<?xml version="1.0" encoding="UTF-8"?>
<!DOCTYPE svg PUBLIC "-//W3C//DTD SVG 1.1//EN"
        "http://www.w3.org/Graphics/SVG/1.1/DTD/svg11.dtd">
<svg
  xmlns="http://www.w3.org/2000/svg"
  xmlns:xlink="http://www.w3.org/1999/xlink"
  version="1.1"
  width="800pt"
  height="350pt"
  viewBox="0 0 800 350"
  >
  <rect
    x="0"
    y="0"
    width="800"
    height="350"
    stroke="none"
    fill="#FFFFFF"
    fill-opacity="1.000000"
    />
  <g
    transform="matrix(1 0 0 -1 0 350)"
    >
    <polyline
      stroke-width="1"
      stroke="#000000"
      stroke-opacity="1.000000"
      fill="none"
      points="120.00,35.01 719.99,35.01"
      />
    <polyline
      stroke-width="1"
      stroke="#000000"
      stroke-opacity="1.000000"
      fill="none"
      points="120.00,35.01 120.00,40.19"
      />
    <polyline
      stroke-width="1"
      stroke="#000000"
      stroke-opacity="1.000000"
      fill="none"
      points="150.03,35.01 150.03,39.33"
      />
    <polyline
      stroke-width="1"
      stroke="#000000"
      stroke-opacity="1.000000"
      fill="none"
      points="180.06,35.01 180.06,39.33"
      />
    <polyline
      stroke-width="1"
      stroke="#000000"
      stroke-opacity="1.000000"
      fill="none"
      points="210.09,35.01 210.09,39.33"
      />
    <polyline
      stroke-width="1"
      stroke="#000000"
      stroke-opacity="1.000000"
      fill="none"
      points="240.12,35.01 240.12,40.19"
      />
    <polyline
      stroke-width="1"
      stroke="#000000"
      stroke-opacity="1.000000"
      fill="none"
      points="270.15,35.01 270.15,39.33"
      />
    <polyline
      stroke-width="1"
      stroke="#000000"
      stroke-opacity="1.000000"
      fill="none"
      points="300.18,35.01 300.18,39.33"
      />
    <polyline
      stroke-width="1"
      stroke="#000000"
      stroke-opacity="1.000000"
      fill="none"
      points="330.21,35.01 330.21,39.33"
      />
    <polyline
      stroke-width="1"
      stroke="#000000"
      stroke-opacity="1.000000"
      fill="none"
      points="360.24,35.01 360.24,40.19"
      />
    <polyline
      stroke-width="1"
      stroke="#000000"
      stroke-opacity="1.000000"
      fill="none"
      points="390.27,35.01 390.27,39.33"
      />
    <polyline
      stroke-width="1"
      stroke="#000000"
      stroke-opacity="1.000000"
      fill="none"
      points="420.28,35.01 420.28,39.33"
      />
    <polyline
      stroke-width="1"
      stroke="#000000"
      stroke-opacity="1.000000"
      fill="none"
      points="450.31,35.01 450.31,39.33"
      />
    <polyline
      stroke-width="1"
      stroke="#000000"
      stroke-opacity="1.000000"
      fill="none"
      points="480.34,35.01 480.34,40.19"
      />
    <polyline
      stroke-width="1"
      stroke="#000000"
      stroke-opacity="1.000000"
      fill="none"
      points="510.37,35.01 510.37,39.33"
      />
    <polyline
      stroke-width="1"
      stroke="#000000"
      stroke-opacity="1.000000"
      fill="none"
      points="540.40,35.01 540.40,39.33"
      />
    <polyline
      stroke-width="1"
      stroke="#000000"
      stroke-opacity="1.000000"
      fill="none"
      points="570.43,35.01 570.43,39.33"
      />
    <polyline
      stroke-width="1"
      stroke="#000000"
      stroke-opacity="1.000000"
      fill="none"
      points="600.46,35.01 600.46,40.19"
      />
    <polyline
      stroke-width="1"
      stroke="#000000"
      stroke-opacity="1.000000"
      fill="none"
      points="630.49,35.01 630.49,39.33"
      />
    <polyline
      stroke-width="1"
      stroke="#000000"
      stroke-opacity="1.000000"
      fill="none"
      points="660.52,35.01 660.52,39.33"
      />
    <polyline
      stroke-width="1"
      stroke="#000000"
      stroke-opacity="1.000000"
      fill="none"
      points="690.55,35.01 690.55,39.33"
      />
    <polyline
      stroke-width="1"
      stroke="#000000"
      stroke-opacity="1.000000"
      fill="none"
      points="719.99,35.01 719.99,121.32"
      />
    <polyline
      stroke-width="1"
      stroke="#000000"
      stroke-opacity="1.000000"
      fill="none"
      points="714.82,38.89 719.99,38.89"
      />
    <polyline
      stroke-width="1"
      stroke="#000000"
      stroke-opacity="1.000000"
      fill="none"
      points="714.82,78.13 719.99,78.13"
      />
    <polyline
      stroke-width="1"
      stroke="#000000"
      stroke-opacity="1.000000"
      fill="none"
      points="714.82,117.36 719.99,117.36"
      />
    <polyline
      stroke-width="1"
      stroke="#000000"
      stroke-opacity="1.000000"
      fill="none"
      points="719.99,121.32 120.00,121.32"
      />
    <polyline
      stroke-width="1"
      stroke="#000000"
      stroke-opacity="1.000000"
      fill="none"
      points="690.55,117.00 690.55,121.32"
      />
    <polyline
      stroke-width="1"
      stroke="#000000"
      stroke-opacity="1.000000"
      fill="none"
      points="660.52,117.00 660.52,121.32"
      />
    <polyline
      stroke-width="1"
      stroke="#000000"
      stroke-opacity="1.000000"
      fill="none"
      points="630.49,117.00 630.49,121.32"
      />
    <polyline
      stroke-width="1"
      stroke="#000000"
      stroke-opacity="1.000000"
      fill="none"
      points="600.46,116.14 600.46,121.32"
      />
    <polyline
      stroke-width="1"
      stroke="#000000"
      stroke-opacity="1.000000"
      fill="none"
      points="570.43,117.00 570.43,121.32"
      />
    <polyline
      stroke-width="1"
      stroke="#000000"
      stroke-opacity="1.000000"
      fill="none"
      points="540.40,117.00 540.40,121.32"
      />
    <polyline
      stroke-width="1"
      stroke="#000000"
      stroke-opacity="1.000000"
      fill="none"
      points="510.37,117.00 510.37,121.32"
      />
    <polyline
      stroke-width="1"
      stroke="#000000"
      stroke-opacity="1.000000"
      fill="none"
      points="480.34,116.14 480.34,121.32"
      />
    <polyline
      stroke-width="1"
      stroke="#000000"
      stroke-opacity="1.000000"
      fill="none"
      points="450.31,117.00 450.31,121.32"
      />
    <polyline
      stroke-width="1"
      stroke="#000000"
      stroke-opacity="1.000000"
      fill="none"
      points="420.28,117.00 420.28,121.32"
      />
    <polyline
      stroke-width="1"
      stroke="#000000"
      stroke-opacity="1.000000"
      fill="none"
      points="390.27,117.00 390.27,121.32"
      />
    <polyline
      stroke-width="1"
      stroke="#000000"
      stroke-opacity="1.000000"
      fill="none"
      points="360.24,116.14 360.24,121.32"
      />
    <polyline
      stroke-width="1"
      stroke="#000000"
      stroke-opacity="1.000000"
      fill="none"
      points="330.21,117.00 330.21,121.32"
      />
    <polyline
      stroke-width="1"
      stroke="#000000"
      stroke-opacity="1.000000"
      fill="none"
      points="300.18,117.00 300.18,121.32"
      />
    <polyline
      stroke-width="1"
      stroke="#000000"
      stroke-opacity="1.000000"
      fill="none"
      points="270.15,117.00 270.15,121.32"
      />
    <polyline
      stroke-width="1"
      stroke="#000000"
      stroke-opacity="1.000000"
      fill="none"
      points="240.12,116.14 240.12,121.32"
      />
    <polyline
      stroke-width="1"
      stroke="#000000"
      stroke-opacity="1.000000"
      fill="none"
      points="210.09,117.00 210.09,121.32"
      />
    <polyline
      stroke-width="1"
      stroke="#000000"
      stroke-opacity="1.000000"
      fill="none"
      points="180.06,117.00 180.06,121.32"
      />
    <polyline
      stroke-width="1"
      stroke="#000000"
      stroke-opacity="1.000000"
      fill="none"
      points="150.03,117.00 150.03,121.32"
      />
    <polyline
      stroke-width="1"
      stroke="#000000"
      stroke-opacity="1.000000"
      fill="none"
      points="120.00,116.14 120.00,121.32"
      />
    <polyline
      stroke-width="1"
      stroke="#000000"
      stroke-opacity="1.000000"
      fill="none"
      points="120.00,121.32 120.00,35.01"
      />
    <polyline
      stroke-width="1"
      stroke="#000000"
      stroke-opacity="1.000000"
      fill="none"
      points="120.00,117.36 125.17,117.36"
      />
    <polyline
      stroke-width="1"
      stroke="#000000"
      stroke-opacity="1.000000"
      fill="none"
      points="120.00,78.13 125.17,78.13"
      />
    <polyline
      stroke-width="1"
      stroke="#000000"
      stroke-opacity="1.000000"
      fill="none"
      points="120.00,38.89 125.17,38.89"
      />
    <clipPath
      id="text-clipping0"
      >
      <polygon
        points="0.000000,0.000000 0.000000,349.986267 800.000000,349.986267 800.000000,0.000000"
        />
    </clipPath>
    <g
      clip-path="url(#text-clipping0)"
      >
      <g
        transform="matrix(1.000000 0.000000 0.000000 -1.000000 119.998779 28.101444)"
        >
        <g
          transform="matrix(1.0 0.0 0.0 1.0 0.0 2.672784)"
          >
          <text
            dominant-baseline="no-change"
            fill="#000000"
            fill-opacity="1.000000"
            xml:space="preserve"
            font-size="6"
            text-anchor="middle"
            x="0.000000"
            y="0"
><tspan font-family="sans-serif" font-style="normal" font-weight="normal">&#x30;</tspan></text>
        </g>
      </g>
    </g>
    <clipPath
      id="text-clipping1"
      >
      <polygon
        points="0.000000,0.000000 0.000000,349.986267 800.000000,349.986267 800.000000,0.000000"
        />
    </clipPath>
    <g
      clip-path="url(#text-clipping1)"
      >
      <g
        transform="matrix(1.000000 0.000000 0.000000 -1.000000 240.119633 28.101444)"
        >
        <g
          transform="matrix(1.0 0.0 0.0 1.0 0.0 2.672784)"
          >
          <text
            dominant-baseline="no-change"
            fill="#000000"
            fill-opacity="1.000000"
            xml:space="preserve"
            font-size="6"
            text-anchor="middle"
            x="0.000000"
            y="0"
><tspan font-family="sans-serif" font-style="normal" font-weight="normal">&#x32;</tspan></text>
        </g>
      </g>
    </g>
    <clipPath
      id="text-clipping2"
      >
      <polygon
        points="0.000000,0.000000 0.000000,349.986267 800.000000,349.986267 800.000000,0.000000"
        />
    </clipPath>
    <g
      clip-path="url(#text-clipping2)"
      >
      <g
        transform="matrix(1.000000 0.000000 0.000000 -1.000000 360.240486 28.101444)"
        >
        <g
          transform="matrix(1.0 0.0 0.0 1.0 0.0 2.672784)"
          >
          <text
            dominant-baseline="no-change"
            fill="#000000"
            fill-opacity="1.000000"
            xml:space="preserve"
            font-size="6"
            text-anchor="middle"
            x="0.000000"
            y="0"
><tspan font-family="sans-serif" font-style="normal" font-weight="normal">&#x34;</tspan></text>
        </g>
      </g>
    </g>
    <clipPath
      id="text-clipping3"
      >
      <polygon
        points="0.000000,0.000000 0.000000,349.986267 800.000000,349.986267 800.000000,0.000000"
        />
    </clipPath>
    <g
      clip-path="url(#text-clipping3)"
      >
      <g
        transform="matrix(1.000000 0.000000 0.000000 -1.000000 480.361339 28.101444)"
        >
        <g
          transform="matrix(1.0 0.0 0.0 1.0 0.0 2.672784)"
          >
          <text
            dominant-baseline="no-change"
            fill="#000000"
            fill-opacity="1.000000"
            xml:space="preserve"
            font-size="6"
            text-anchor="middle"
            x="0.000000"
            y="0"
><tspan font-family="sans-serif" font-style="normal" font-weight="normal">&#x36;</tspan></text>
        </g>
      </g>
    </g>
    <clipPath
      id="text-clipping4"
      >
      <polygon
        points="0.000000,0.000000 0.000000,349.986267 800.000000,349.986267 800.000000,0.000000"
        />
    </clipPath>
    <g
      clip-path="url(#text-clipping4)"
      >
      <g
        transform="matrix(1.000000 0.000000 0.000000 -1.000000 600.482192 28.101444)"
        >
        <g
          transform="matrix(1.0 0.0 0.0 1.0 0.0 2.672784)"
          >
          <text
            dominant-baseline="no-change"
            fill="#000000"
            fill-opacity="1.000000"
            xml:space="preserve"
            font-size="6"
            text-anchor="middle"
            x="0.000000"
            y="0"
><tspan font-family="sans-serif" font-style="normal" font-weight="normal">&#x38;</tspan></text>
        </g>
      </g>
    </g>
    <clipPath
      id="text-clipping5"
      >
      <polygon
        points="0.000000,0.000000 0.000000,349.986267 800.000000,349.986267 800.000000,0.000000"
        />
    </clipPath>
    <g
      clip-path="url(#text-clipping5)"
      >
      <g
        transform="matrix(0.000000 1.000000 1.000000 -0.000000 113.089389 38.892788)"
        >
        <g
          transform="matrix(1.0 0.0 0.0 1.0 0.0 2.672784)"
          >
          <text
            dominant-baseline="no-change"
            fill="#000000"
            fill-opacity="1.000000"
            xml:space="preserve"
            font-size="6"
            text-anchor="middle"
            x="0.000000"
            y="0"
><tspan font-family="sans-serif" font-style="normal" font-weight="normal">&#x2d;&#x31;&#x2e;&#x30;</tspan></text>
        </g>
      </g>
    </g>
    <clipPath
      id="text-clipping6"
      >
      <polygon
        points="0.000000,0.000000 0.000000,349.986267 800.000000,349.986267 800.000000,0.000000"
        />
    </clipPath>
    <g
      clip-path="url(#text-clipping6)"
      >
      <g
        transform="matrix(0.000000 1.000000 1.000000 -0.000000 113.089389 78.127384)"
        >
        <g
          transform="matrix(1.0 0.0 0.0 1.0 0.0 2.672784)"
          >
          <text
            dominant-baseline="no-change"
            fill="#000000"
            fill-opacity="1.000000"
            xml:space="preserve"
            font-size="6"
            text-anchor="middle"
            x="0.000000"
            y="0"
><tspan font-family="sans-serif" font-style="normal" font-weight="normal">&#x30;&#x2e;&#x30;</tspan></text>
        </g>
      </g>
    </g>
    <clipPath
      id="text-clipping7"
      >
      <polygon
        points="0.000000,0.000000 0.000000,349.986267 800.000000,349.986267 800.000000,0.000000"
        />
    </clipPath>
    <g
      clip-path="url(#text-clipping7)"
      >
      <g
        transform="matrix(0.000000 1.000000 1.000000 -0.000000 113.089389 117.361980)"
        >
        <g
          transform="matrix(1.0 0.0 0.0 1.0 0.0 2.672784)"
          >
          <text
            dominant-baseline="no-change"
            fill="#000000"
            fill-opacity="1.000000"
            xml:space="preserve"
            font-size="6"
            text-anchor="middle"
            x="0.000000"
            y="0"
><tspan font-family="sans-serif" font-style="normal" font-weight="normal">&#x31;&#x2e;&#x30;</tspan></text>
        </g>
      </g>
    </g>
    <polyline
      stroke-width="1"
      stroke="#0000FF"
      stroke-opacity="1.000000"
      fill="none"
      points="120.00,78.13 120.61,87.65 121.20,95.00 121.81,98.32 122.39,96.71 123.00,90.48 123.59,81.08 124.20,70.75 124.81,62.09 125.39,57.20 
      126.00,57.42 126.59,62.75 127.20,71.97 127.81,82.91 128.40,92.85 129.01,99.32 129.59,100.66 130.20,96.46 130.81,87.67 131.40,76.37 
      132.01,65.31 132.60,57.25 133.21,54.20 133.82,57.01 134.40,65.09 135.01,76.52 135.60,88.50 136.21,98.12 136.82,102.96 137.41,101.74 
      138.02,94.68 138.60,83.43 139.21,70.71 139.82,59.62 140.41,52.96 141.02,52.39 141.61,58.18 142.22,68.97 142.83,82.16 143.41,94.56 
      144.02,103.05 144.61,105.52 145.22,101.27 145.83,91.26 146.42,77.88 147.03,64.41 147.61,54.13 148.22,49.64 148.83,52.13 149.42,61.04 
      150.03,74.29 150.61,88.63 151.23,100.56 151.84,107.11 152.42,106.57 153.03,99.05 153.62,86.28 154.23,71.36 154.84,57.96 155.42,49.37 
      156.04,47.76 156.62,53.61 157.23,65.58 157.84,80.76 158.43,95.44 159.04,106.01 159.62,109.82 160.23,105.86 160.84,95.07 161.43,79.98 
      162.04,64.31 162.63,51.88 163.24,45.80 163.85,47.63 164.43,56.96 165.04,71.61 165.63,87.97 166.24,102.05 166.85,110.38 167.44,110.84 
      168.05,103.27 168.63,89.46 169.24,72.73 169.85,57.23 170.44,46.73 171.05,43.87 171.64,49.42 172.25,62.06 172.86,78.74 173.44,95.41 
      174.05,107.94 174.64,113.24 175.25,109.94 175.86,98.81 176.45,82.52 177.06,65.04 177.64,50.69 178.25,42.97 178.86,43.82 179.45,53.15 
      180.06,68.63 180.65,86.55 181.26,102.52 181.87,112.58 182.45,114.24 183.06,107.03 183.65,92.70 184.26,74.71 184.87,57.47 185.45,45.22 
      186.07,40.99 186.65,45.85 187.26,58.67 187.87,76.32 188.46,94.49 189.07,108.72 189.65,115.51 190.26,113.16 190.87,102.20 191.46,85.31 
      192.07,66.55 192.66,50.59 193.27,41.33 193.88,41.07 194.46,49.88 195.07,65.65 195.66,84.55 196.27,101.93 196.88,113.53 197.47,116.46 
      198.08,110.01 198.66,95.73 199.27,77.10 199.88,58.67 200.47,44.97 201.08,39.36 201.67,43.24 202.28,55.69 202.89,73.66 203.47,92.78 
      204.08,108.30 204.67,116.48 205.28,115.29 205.89,104.96 206.48,88.06 207.09,68.70 207.67,51.61 208.28,41.02 208.89,39.50 209.48,47.44 
      210.09,62.92 210.68,82.13 211.29,100.37 211.90,113.16 212.48,117.39 213.09,112.02 213.68,98.32 214.29,79.69 214.90,60.70 215.49,45.95 
      216.10,39.09 216.68,41.80 217.29,53.40 217.90,71.05 218.49,90.43 219.10,106.77 219.68,116.09 220.29,116.12 220.91,106.86 221.49,90.55 
      222.10,71.24 222.69,53.64 223.30,42.04 223.91,39.31 224.49,46.07 225.10,60.67 225.69,79.52 226.30,97.98 226.91,111.55 227.50,116.92 
      228.11,112.80 228.69,100.20 229.30,82.23 229.91,63.31 230.50,48.05 231.11,40.21 231.70,41.65 232.31,52.00 232.92,68.73 233.50,87.70 
      234.11,104.25 234.70,114.38 235.31,115.60 235.92,107.67 236.51,92.53 237.12,73.95 237.70,56.45 238.31,44.31 238.92,40.50 239.51,45.90 
      240.12,59.13 240.71,76.98 241.32,95.00 241.93,108.84 242.51,115.12 243.12,112.31 243.71,101.17 244.32,84.48 244.93,66.29 245.52,51.12 
      246.13,42.60 246.71,42.82 247.32,51.66 247.93,66.92 248.52,84.82 249.13,100.98 249.71,111.48 250.33,113.75 250.94,107.33 251.52,93.83 
      252.13,76.56 252.72,59.79 253.33,47.61 253.94,42.97 254.52,46.93 255.13,58.50 255.72,74.76 256.33,91.73 256.92,105.25 257.53,112.06 
      258.14,110.55 258.72,101.15 259.33,86.18 259.92,69.39 260.53,54.86 261.14,46.12 261.73,45.27 262.34,52.42 262.92,65.80 263.53,82.08 
      264.14,97.24 264.73,107.62 265.34,110.72 265.93,105.84 266.54,94.24 267.15,78.84 267.73,63.41 268.34,51.71 268.93,46.56 269.54,49.15 
      270.15,58.79 270.74,73.05 271.35,88.38 271.93,101.08 272.54,108.06 273.15,107.67 "/>
    <polyline
      stroke-width="1"
      stroke="#0000FF"
      stroke-opacity="1.000000"
      fill="none"
      points="273.15,107.67 273.74,100.08 274.35,87.23 274.94,72.32 275.55,58.96 276.16,50.44 276.74,48.76 277.35,54.25 277.94,65.48 278.55,79.67 
      279.16,93.31 279.74,103.10 280.36,106.69 280.94,103.27 281.55,93.80 282.16,80.62 282.75,66.99 283.36,56.25 283.94,50.98 284.55,52.37 
      285.16,60.04 285.75,71.97 286.36,85.28 286.95,96.63 287.56,103.35 288.17,103.84 288.75,98.07 289.36,87.53 289.95,74.86 290.56,63.16 
      291.17,55.28 291.76,53.08 292.37,56.98 292.95,65.99 293.56,77.81 294.17,89.53 294.76,98.27 295.37,102.01 295.96,99.88 296.57,92.48 
      297.18,81.74 297.76,70.29 298.37,60.91 298.96,55.91 299.57,56.37 300.18,62.11 300.77,71.63 301.38,82.60 301.96,92.26 302.57,98.32 
      303.18,99.39 303.77,95.27 304.38,87.06 304.97,76.83 305.58,67.12 306.19,60.26 306.77,57.86 307.38,60.43 307.97,67.24 308.58,76.56 
      309.19,86.09 309.78,93.48 310.39,97.00 310.97,95.88 311.58,90.48 312.19,82.18 312.78,73.10 313.39,65.41 313.97,60.99 314.58,60.79 
      315.20,64.82 315.78,71.97 316.39,80.47 316.98,88.21 317.59,93.31 318.20,94.63 318.78,91.92 319.39,85.94 319.98,78.20 320.59,70.63 
      321.20,65.07 321.79,62.79 322.40,64.28 322.98,69.09 323.59,75.98 324.20,83.21 324.79,89.02 325.40,92.04 325.99,91.63 326.60,87.97 
      327.21,82.01 327.79,75.30 328.40,69.44 328.99,65.85 329.60,65.33 330.21,67.92 330.80,72.90 331.41,79.01 331.99,84.72 332.60,88.67 
      333.21,89.97 333.80,88.36 334.41,84.33 335.00,78.93 335.61,73.49 336.22,69.36 336.80,67.46 337.41,68.21 338.00,71.32 338.61,75.98 
      339.22,80.98 339.81,85.16 340.42,87.48 341.00,87.48 341.61,85.23 342.22,81.33 342.81,76.81 343.42,72.78 344.00,70.17 344.62,69.58 
      345.23,71.07 345.81,74.20 346.42,78.18 347.01,81.96 347.62,84.69 348.23,85.74 348.81,84.91 349.42,82.47 350.01,79.10 350.62,75.64 
      351.23,72.93 351.82,71.56 352.43,71.85 353.01,73.61 353.62,76.39 354.23,79.47 354.82,82.08 355.43,83.62 356.02,83.77 356.63,82.57 
      357.24,80.35 357.82,77.71 358.43,75.30 359.02,73.68 359.63,73.22 360.24,73.95 360.83,75.66 361.44,77.86 362.02,80.01 362.63,81.57 
      363.24,82.25 363.83,81.89 364.44,80.67 365.03,78.91 365.64,77.05 366.25,75.59 366.83,74.81 367.44,74.88 368.03,75.71 368.64,77.08 
      369.25,78.59 369.84,79.91 370.45,80.72 371.03,80.84 371.64,80.32 372.25,79.30 372.84,78.10 373.45,76.98 374.03,76.22 374.65,75.98 
      375.26,76.27 375.84,76.98 376.45,77.88 377.04,78.79 377.65,79.45 378.26,79.74 378.84,79.64 379.45,79.18 380.04,78.52 380.65,77.83 
      381.26,77.27 381.85,77.00 382.46,77.00 383.04,77.27 383.65,77.74 384.26,78.23 384.85,78.62 385.46,78.86 386.05,78.91 386.66,78.76 
      387.27,78.49 387.85,78.18 388.46,77.88 389.05,77.71 389.66,77.66 390.27,77.71 390.86,77.88 391.47,78.05 392.05,78.23 392.66,78.35 
      393.25,78.37 393.86,78.35 394.47,78.27 395.06,78.18 395.67,78.10 396.25,78.05 396.86,78.03 397.47,78.05 398.06,78.08 398.67,78.10 
      399.26,78.13 399.87,78.15 400.48,78.15 401.06,78.15 401.67,78.13 402.26,78.13 402.87,78.13 403.48,78.13 404.07,78.13 404.68,78.13 
      405.26,78.13 405.87,78.13 406.48,78.13 407.07,78.15 407.68,78.18 408.26,78.20 408.87,78.23 409.49,78.23 410.07,78.18 410.68,78.13 
      411.27,78.03 411.88,77.93 412.49,77.88 413.07,77.88 413.68,77.98 414.27,78.13 414.88,78.30 415.49,78.47 416.08,78.59 416.69,78.59 
      417.27,78.47 417.88,78.25 418.49,77.93 419.08,77.61 419.69,77.39 420.28,77.35 420.89,77.49 421.50,77.83 422.08,78.30 422.69,78.79 
      423.28,79.15 423.89,79.30 424.50,79.15 425.09,78.71 425.70,78.08 426.28,77.39 "/>
    <polyline
      stroke-width="1"
      stroke="#0000FF"
      stroke-opacity="1.000000"
      fill="none"
      points="426.28,77.39 426.89,76.81 427.50,76.52 428.09,76.61 428.70,77.13 429.29,77.93 429.90,78.86 430.51,79.69 431.09,80.20 431.70,80.23 
      432.29,79.69 432.90,78.74 433.51,77.52 434.10,76.37 434.71,75.59 435.29,75.39 435.90,75.88 436.51,76.98 437.10,78.47 437.71,79.96 
      438.29,81.08 438.90,81.55 439.52,81.15 440.10,79.98 440.71,78.27 441.30,76.39 441.91,74.86 442.52,74.05 443.10,74.25 443.71,75.42 
      444.30,77.35 444.91,79.59 445.52,81.59 446.11,82.84 446.72,82.94 447.30,81.86 447.91,79.76 448.52,77.15 449.11,74.66 449.72,72.90 
      450.31,72.39 450.92,73.27 451.53,75.44 452.11,78.37 452.72,81.40 453.31,83.74 453.92,84.77 454.53,84.18 455.12,82.06 455.73,78.86 
      456.31,75.32 456.92,72.34 457.53,70.68 458.12,70.83 458.73,72.80 459.32,76.20 459.93,80.20 460.54,83.86 461.12,86.21 461.73,86.65 
      462.32,84.96 462.93,81.50 463.54,77.08 464.13,72.76 464.74,69.61 465.32,68.48 465.93,69.73 466.54,73.10 467.13,77.86 467.74,82.84 
      468.32,86.82 468.94,88.77 469.55,88.14 470.13,84.96 470.74,80.01 471.33,74.42 471.94,69.58 472.55,66.70 473.13,66.60 473.74,69.36 
      474.33,74.39 474.94,80.50 475.55,86.18 476.14,90.07 476.75,91.07 477.33,88.89 477.94,83.99 478.55,77.47 479.14,70.95 479.75,66.02 
      480.34,63.99 480.95,65.38 481.56,70.02 482.14,76.76 482.75,84.04 483.34,90.04 483.95,93.22 484.56,92.75 485.15,88.65 485.76,81.81 
      486.34,73.90 486.95,66.87 487.56,62.43 488.15,61.79 488.76,65.19 489.35,71.88 489.96,80.25 490.57,88.31 491.15,94.02 491.76,95.93 
      492.35,93.46 492.96,87.14 493.57,78.44 494.16,69.51 494.77,62.50 495.35,59.21 495.96,60.55 496.57,66.26 497.16,75.03 497.77,84.74 
      498.36,93.02 498.97,97.78 499.58,97.76 500.16,92.90 500.77,84.28 501.36,73.98 501.97,64.53 502.58,58.23 503.16,56.76 503.78,60.55 
      504.36,68.75 504.97,79.40 505.58,89.94 506.17,97.76 506.78,100.83 507.36,98.37 507.97,90.87 508.58,80.08 509.17,68.63 509.78,59.35 
      510.37,54.54 510.98,55.49 511.59,62.04 512.17,72.66 512.78,84.82 513.37,95.49 513.98,102.05 514.59,102.81 515.18,97.49 515.79,87.31 
      516.37,74.71 516.98,62.79 517.59,54.47 518.18,51.86 518.79,55.69 519.38,65.14 519.99,77.88 520.60,90.90 521.18,100.93 521.79,105.47 
      522.38,103.32 522.99,94.95 523.60,82.33 524.19,68.51 524.80,56.86 525.38,50.34 525.99,50.59 526.58,57.62 527.19,69.78 527.80,84.16 
      528.39,97.22 529.00,105.74 529.58,107.55 530.19,102.13 530.80,90.75 531.39,76.13 532.00,61.84 532.58,51.42 533.19,47.44 533.81,51.00 
      534.39,61.26 535.00,75.78 535.59,91.04 536.20,103.27 536.81,109.43 537.39,107.96 538.00,99.12 538.59,85.04 539.20,69.12 539.81,55.28 
      540.40,46.93 541.01,46.17 541.59,53.27 542.20,66.55 542.81,82.82 543.40,98.05 544.01,108.52 544.60,111.60 545.21,106.47 545.82,94.34 
      546.40,78.13 547.01,61.79 547.60,49.32 548.21,43.85 548.82,46.78 549.41,57.42 550.02,73.22 550.60,90.36 551.21,104.62 551.82,112.45 
      552.41,111.92 553.02,103.08 553.61,88.04 554.22,70.49 554.83,54.66 555.41,44.53 556.02,42.58 556.61,49.37 557.22,63.23 557.83,80.86 
      558.42,97.90 559.03,110.21 559.61,114.68 560.22,110.21 560.83,97.85 561.42,80.57 562.03,62.60 562.61,48.37 563.23,41.36 563.84,43.34 
      564.42,53.88 565.03,70.41 565.62,88.92 566.23,104.86 566.84,114.31 567.42,114.92 568.03,106.50 568.62,91.09 569.23,72.44 569.84,55.13 
      570.43,43.39 571.04,40.11 571.62,46.17 572.23,60.08 572.84,78.47 573.43,96.83 574.04,110.67 574.63,116.56 575.24,113.04 575.85,100.96 
      576.43,83.25 577.04,64.24 577.63,48.59 578.24,40.14 578.85,40.99 579.44,50.95 "/>
    <polyline
      stroke-width="1"
      stroke="#0000FF"
      stroke-opacity="1.000000"
      fill="none"
      points="579.44,50.95 580.05,67.58 580.63,86.84 581.24,104.01 581.85,114.85 582.44,116.73 583.05,109.13 583.64,93.92 584.25,74.86 584.86,56.54 
      585.44,43.51 586.05,38.94 586.64,43.97 587.25,57.37 587.86,75.88 588.45,94.95 589.06,109.89 589.64,117.09 590.25,114.73 590.86,103.42 
      591.45,85.89 592.06,66.48 592.65,49.93 593.26,40.26 593.87,39.89 594.45,48.88 595.06,65.02 595.65,84.35 596.26,102.18 596.87,114.07 
      597.45,117.17 598.07,110.72 598.65,96.29 599.26,77.44 599.87,58.77 600.46,44.87 601.07,39.14 601.65,42.95 602.26,55.35 602.87,73.32 
      603.46,92.43 604.07,107.99 604.66,116.24 605.27,115.12 605.88,104.98 606.46,88.28 607.07,69.14 607.66,52.27 608.27,41.75 608.88,40.16 
      609.47,47.85 610.08,62.94 610.66,81.69 611.27,99.51 611.88,112.04 612.47,116.24 613.08,111.11 613.67,97.95 614.28,79.98 614.89,61.62 
      615.47,47.39 616.08,40.70 616.67,43.21 617.28,54.23 617.89,71.05 618.48,89.53 619.09,105.13 619.67,114.07 620.28,114.19 620.89,105.50 
      621.48,90.16 622.09,71.97 622.68,55.37 623.29,44.43 623.90,41.77 624.48,48.00 625.09,61.57 625.68,79.10 626.29,96.29 626.90,108.94 
      627.48,113.99 628.10,110.26 628.68,98.71 629.29,82.20 629.90,64.82 630.49,50.78 631.10,43.53 631.68,44.75 632.29,54.13 632.91,69.29 
      633.49,86.50 634.10,101.54 634.69,110.77 635.30,111.97 635.91,104.89 636.49,91.34 637.10,74.68 637.69,58.99 638.30,48.10 638.91,44.63 
      639.50,49.34 640.11,61.04 640.69,76.81 641.30,92.78 641.91,105.01 642.50,110.60 643.11,108.21 643.70,98.51 644.31,83.94 644.92,68.09 
      645.50,54.84 646.11,47.36 646.70,47.49 647.31,55.08 647.92,68.19 648.51,83.62 649.12,97.54 649.70,106.60 650.31,108.62 650.92,103.18 
      651.51,91.73 652.12,77.05 652.71,62.82 653.32,52.49 653.93,48.49 654.51,51.76 655.12,61.43 655.71,75.05 656.32,89.26 656.93,100.59 
      657.52,106.30 658.13,105.11 658.71,97.37 659.32,85.01 659.91,71.17 660.52,59.18 661.13,51.95 661.71,51.20 662.32,57.01 662.91,67.87 
      663.52,81.11 664.13,93.41 664.72,101.86 665.33,104.40 665.91,100.52 666.52,91.26 667.13,78.93 667.72,66.58 668.33,57.23 668.92,53.10 
      669.53,55.10 670.14,62.70 670.72,73.90 671.33,85.99 671.92,95.95 672.53,101.44 673.14,101.17 673.73,95.32 674.34,85.38 674.92,73.83 
      675.53,63.53 676.14,56.94 676.73,55.62 677.34,59.77 677.93,68.31 678.54,79.10 679.15,89.48 679.73,96.90 680.34,99.64 680.93,97.10 
      681.54,89.99 682.15,80.15 682.74,70.02 683.35,62.01 683.93,58.08 684.54,59.11 685.15,64.70 685.74,73.46 686.35,83.18 686.94,91.48 
      687.55,96.37 688.16,96.73 688.74,92.61 689.35,85.01 689.94,75.93 690.55,67.58 691.16,61.96 691.74,60.38 692.36,63.14 692.94,69.46 
      693.55,77.76 694.16,85.94 694.75,92.07 695.36,94.66 695.94,93.19 696.55,88.11 697.16,80.74 697.75,72.90 698.36,66.53 698.95,63.11 
      699.56,63.41 700.17,67.26 700.75,73.66 701.36,80.98 701.95,87.41 702.56,91.43 703.17,92.14 703.76,89.43 704.37,84.06 704.95,77.42 
      705.56,71.12 706.17,66.68 706.76,65.14 707.37,66.77 707.96,71.12 708.57,77.03 709.18,83.03 709.76,87.67 710.37,89.87 710.96,89.19 
      711.57,85.82 712.18,80.72 712.77,75.15 713.38,70.46 713.96,67.78 714.57,67.68 715.18,70.12 715.77,74.39 716.38,79.42 716.97,83.99 
      717.58,86.99 718.19,87.75 718.77,86.16 719.38,82.69 719.97,78.25 "/>
    <clipPath
      id="text-clipping8"
      >
      <polygon
        points="0.000000,0.000000 0.000000,349.986267 800.000000,349.986267 800.000000,0.000000"
        />
    </clipPath>
    <g
      clip-path="url(#text-clipping8)"
      >
      <g
        transform="matrix(0.000000 1.000000 1.000000 -0.000000 92.410047 78.151799)"
        >
        <g
          transform="matrix(1.0 0.0 0.0 1.0 0.0 3.759176)"
          >
          <text
            dominant-baseline="no-change"
            fill="#000000"
            fill-opacity="1.000000"
            xml:space="preserve"
            font-size="9"
            text-anchor="middle"
            x="0.000000"
            y="0"
><tspan font-family="sans-serif" font-style="normal" font-weight="normal">&#x41;&#x4d;</tspan></text>
        </g>
      </g>
    </g>
    <polyline
      stroke-width="1"
      stroke="#000000"
      stroke-opacity="1.000000"
      fill="none"
      points="120.00,128.32 719.99,128.32"
      />
    <polyline
      stroke-width="1"
      stroke="#000000"
      stroke-opacity="1.000000"
      fill="none"
      points="719.99,128.32 719.99,214.65"
      />
    <polyline
      stroke-width="1"
      stroke="#000000"
      stroke-opacity="1.000000"
      fill="none"
      points="714.82,132.26 719.99,132.26"
      />
    <polyline
      stroke-width="1"
      stroke="#000000"
      stroke-opacity="1.000000"
      fill="none"
      points="714.82,171.49 719.99,171.49"
      />
    <polyline
      stroke-width="1"
      stroke="#000000"
      stroke-opacity="1.000000"
      fill="none"
      points="714.82,210.72 719.99,210.72"
      />
    <polyline
      stroke-width="1"
      stroke="#000000"
      stroke-opacity="1.000000"
      fill="none"
      points="719.99,214.65 120.00,214.65"
      />
    <polyline
      stroke-width="1"
      stroke="#000000"
      stroke-opacity="1.000000"
      fill="none"
      points="120.00,214.65 120.00,128.32"
      />
    <polyline
      stroke-width="1"
      stroke="#000000"
      stroke-opacity="1.000000"
      fill="none"
      points="120.00,210.72 125.17,210.72"
      />
    <polyline
      stroke-width="1"
      stroke="#000000"
      stroke-opacity="1.000000"
      fill="none"
      points="120.00,171.49 125.17,171.49"
      />
    <polyline
      stroke-width="1"
      stroke="#000000"
      stroke-opacity="1.000000"
      fill="none"
      points="120.00,132.26 125.17,132.26"
      />
    <clipPath
      id="text-clipping9"
      >
      <polygon
        points="0.000000,0.000000 0.000000,349.986267 800.000000,349.986267 800.000000,0.000000"
        />
    </clipPath>
    <g
      clip-path="url(#text-clipping9)"
      >
      <g
        transform="matrix(0.000000 1.000000 1.000000 -0.000000 113.089389 132.255013)"
        >
        <g
          transform="matrix(1.0 0.0 0.0 1.0 0.0 2.672784)"
          >
          <text
            dominant-baseline="no-change"
            fill="#000000"
            fill-opacity="1.000000"
            xml:space="preserve"
            font-size="6"
            text-anchor="middle"
            x="0.000000"
            y="0"
><tspan font-family="sans-serif" font-style="normal" font-weight="normal">&#x2d;&#x31;&#x2e;&#x30;</tspan></text>
        </g>
      </g>
    </g>
    <clipPath
      id="text-clipping10"
      >
      <polygon
        points="0.000000,0.000000 0.000000,349.986267 800.000000,349.986267 800.000000,0.000000"
        />
    </clipPath>
    <g
      clip-path="url(#text-clipping10)"
      >
      <g
        transform="matrix(0.000000 1.000000 1.000000 -0.000000 113.089389 171.489608)"
        >
        <g
          transform="matrix(1.0 0.0 0.0 1.0 0.0 2.672784)"
          >
          <text
            dominant-baseline="no-change"
            fill="#000000"
            fill-opacity="1.000000"
            xml:space="preserve"
            font-size="6"
            text-anchor="middle"
            x="0.000000"
            y="0"
><tspan font-family="sans-serif" font-style="normal" font-weight="normal">&#x30;&#x2e;&#x30;</tspan></text>
        </g>
      </g>
    </g>
    <clipPath
      id="text-clipping11"
      >
      <polygon
        points="0.000000,0.000000 0.000000,349.986267 800.000000,349.986267 800.000000,0.000000"
        />
    </clipPath>
    <g
      clip-path="url(#text-clipping11)"
      >
      <g
        transform="matrix(0.000000 1.000000 1.000000 -0.000000 113.089389 210.724204)"
        >
        <g
          transform="matrix(1.0 0.0 0.0 1.0 0.0 2.672784)"
          >
          <text
            dominant-baseline="no-change"
            fill="#000000"
            fill-opacity="1.000000"
            xml:space="preserve"
            font-size="6"
            text-anchor="middle"
            x="0.000000"
            y="0"
><tspan font-family="sans-serif" font-style="normal" font-weight="normal">&#x31;&#x2e;&#x30;</tspan></text>
        </g>
      </g>
    </g>
    <polyline
      stroke-width="1"
      stroke="#F03232"
      stroke-opacity="1.000000"
      fill="none"
      points="120.00,171.49 120.61,190.29 121.20,204.50 121.81,210.63 122.39,207.16 123.00,194.98 123.59,177.03 124.20,157.72 124.81,141.78 125.39,133.13 
      126.00,133.87 126.59,143.80 127.20,160.53 127.81,179.94 128.40,197.27 129.01,208.28 129.59,210.31 130.20,202.81 130.81,187.65 131.40,168.54 
      132.01,150.13 132.60,136.97 133.21,132.26 133.82,137.14 134.40,150.42 135.01,168.88 135.60,187.97 136.21,203.03 136.82,210.36 137.41,208.16 
      138.02,197.00 138.60,179.60 139.21,160.19 139.82,143.56 140.41,133.77 141.02,133.21 141.61,142.02 142.22,158.04 142.83,177.37 143.41,195.25 
      144.02,207.31 144.61,210.60 145.22,204.33 145.83,190.00 146.42,171.15 147.03,152.37 147.61,138.29 148.22,132.33 148.83,135.94 149.42,148.27 
      150.03,166.29 150.61,185.58 151.23,201.40 151.84,209.92 152.42,209.02 153.03,198.93 153.62,182.11 154.23,162.70 154.84,145.44 155.42,134.55 
      156.04,132.72 156.62,140.36 157.23,155.62 157.84,174.79 158.43,193.12 159.04,206.16 159.62,210.72 160.23,205.67 160.84,192.24 161.43,173.74 
      162.04,154.69 162.63,139.75 163.24,132.57 163.85,134.92 164.43,146.24 165.04,163.73 165.63,183.11 166.24,199.66 166.85,209.31 167.44,209.70 
      168.05,200.71 168.63,184.60 169.24,165.26 169.85,147.44 170.44,135.53 171.05,132.40 171.64,138.85 172.25,153.28 172.86,172.17 173.44,190.90 
      174.05,204.86 174.64,210.68 175.25,206.87 175.86,194.42 176.45,176.32 177.06,157.08 177.64,141.34 178.25,132.99 178.86,134.06 179.45,144.29 
      180.06,161.19 180.65,180.60 181.26,197.78 181.87,208.53 182.45,210.21 183.06,202.40 183.65,187.02 184.26,167.85 184.87,149.57 185.45,136.65 
      186.07,132.26 186.65,137.48 187.26,151.03 187.87,169.59 188.46,188.60 189.07,203.42 189.65,210.46 190.26,207.92 190.87,196.47 191.46,178.91 
      192.07,159.53 192.66,143.07 193.27,133.57 193.88,133.35 194.46,142.48 195.07,158.70 195.66,178.06 196.27,195.81 196.88,207.60 197.47,210.53 
      198.08,203.94 198.66,189.39 199.27,170.44 199.88,151.76 200.47,137.92 201.08,132.28 201.67,136.26 202.28,148.83 202.89,166.97 203.47,186.21 
      204.08,201.86 204.67,210.04 205.28,208.80 205.89,198.42 206.48,181.45 207.09,162.04 207.67,144.93 208.28,134.33 208.89,132.82 209.48,140.80 
      210.09,156.28 210.68,175.47 211.29,193.71 211.90,206.50 212.48,210.70 213.09,205.33 213.68,191.66 214.29,173.05 214.90,154.06 215.49,139.34 
      216.10,132.47 216.68,135.18 217.29,146.76 217.90,164.41 218.49,183.77 219.10,200.13 219.68,209.48 220.29,209.53 220.91,200.25 221.49,183.94 
      222.10,164.58 222.69,146.90 223.30,135.26 223.91,132.47 224.49,139.24 225.10,153.91 225.69,172.88 226.30,191.51 226.91,205.23 227.50,210.70 
      228.11,206.57 228.69,193.85 229.30,175.64 229.91,156.43 230.50,140.90 231.11,132.87 231.70,134.28 232.31,144.80 232.92,161.87 233.50,181.28 
      234.11,198.30 234.70,208.75 235.31,210.09 235.92,201.96 236.51,186.38 237.12,167.14 237.70,148.98 238.31,136.33 238.92,132.28 239.51,137.82 
      240.12,151.62 240.71,170.27 241.32,189.21 241.93,203.84 242.51,210.53 243.12,207.65 243.71,195.93 244.32,178.23 244.93,158.87 245.52,142.61 
      246.13,133.40 246.71,133.52 247.32,142.95 247.93,159.36 248.52,178.74 249.13,196.34 249.71,207.84 250.33,210.46 250.94,203.55 251.52,188.75 
      252.13,169.76 252.72,151.18 253.33,137.55 253.94,132.26 254.52,136.55 255.13,149.42 255.72,167.68 256.33,186.87 256.92,202.30 257.53,210.16 
      258.14,208.58 258.72,197.91 259.33,180.77 259.92,161.36 260.53,144.41 261.14,134.11 261.73,132.96 262.34,141.24 262.92,156.91 263.53,176.15 
      264.14,194.27 264.73,206.79 265.34,210.68 265.93,204.96 266.54,191.05 267.15,172.34 267.73,153.45 268.34,138.94 268.93,132.43 269.54,135.45 
      270.15,147.32 270.74,165.09 271.35,184.43 271.93,200.62 272.54,209.65 273.15,209.36 "/>
    <polyline
      stroke-width="1"
      stroke="#F03232"
      stroke-opacity="1.000000"
      fill="none"
      points="273.15,209.36 273.74,199.79 274.35,183.28 274.94,163.90 275.55,146.37 276.16,134.99 276.74,132.55 277.35,139.63 277.94,154.52 278.55,173.56 
      279.16,192.10 279.74,205.57 280.36,210.72 280.94,206.26 281.55,193.27 282.16,174.96 282.75,155.79 283.36,140.46 283.94,132.74 284.55,134.50 
      285.16,145.32 285.75,162.53 286.36,181.94 286.95,198.81 287.56,208.97 288.17,209.94 288.75,201.52 289.36,185.75 289.95,166.46 290.56,148.42 
      291.17,136.01 291.76,132.30 292.37,138.19 292.95,152.23 293.56,170.98 294.17,189.85 294.76,204.23 295.37,210.58 295.96,207.38 296.57,195.39 
      297.18,177.54 297.76,158.21 298.37,142.14 298.96,133.23 299.57,133.72 300.18,143.44 300.77,160.01 301.38,179.42 301.96,196.88 302.57,208.11 
      303.18,210.38 303.77,203.13 304.38,188.14 304.97,169.05 305.58,150.57 306.19,137.21 306.77,132.26 307.38,136.89 307.97,150.00 308.58,168.36 
      309.19,187.51 309.78,202.72 310.39,210.28 310.97,208.36 311.58,197.39 312.19,180.11 312.78,160.70 313.39,143.93 313.97,133.92 314.58,133.09 
      315.20,141.68 315.78,157.55 316.39,176.86 316.98,194.83 317.59,207.09 318.20,210.65 318.78,204.60 319.39,190.46 319.98,171.66 320.59,152.84 
      321.20,138.55 321.79,132.35 322.40,135.72 322.98,147.86 323.59,165.78 324.20,185.09 324.79,201.08 325.40,209.80 325.99,209.16 326.60,199.30 
      327.21,182.62 327.79,163.21 328.40,145.83 328.99,134.75 329.60,132.65 330.21,140.04 330.80,155.16 331.41,174.27 331.99,192.68 332.60,205.91 
      333.21,210.72 333.80,205.91 334.41,192.68 335.00,174.27 335.61,155.16 336.22,140.04 336.80,132.65 337.41,134.75 338.00,145.83 338.61,163.21 
      339.22,182.62 339.81,199.30 340.42,209.16 341.00,209.80 341.61,201.08 342.22,185.09 342.81,165.78 343.42,147.86 344.00,135.72 344.62,132.35 
      345.23,138.55 345.81,152.84 346.42,171.66 347.01,190.46 347.62,204.60 348.23,210.65 348.81,207.09 349.42,194.83 350.01,176.86 350.62,157.55 
      351.23,141.68 351.82,133.09 352.43,133.92 353.01,143.93 353.62,160.70 354.23,180.11 354.82,197.39 355.43,208.36 356.02,210.28 356.63,202.72 
      357.24,187.51 357.82,168.36 358.43,149.98 359.02,136.89 359.63,132.26 360.24,137.21 360.83,150.57 361.44,169.05 362.02,188.14 362.63,203.13 
      363.24,210.38 363.83,208.11 364.44,196.88 365.03,179.42 365.64,160.01 366.25,143.44 366.83,133.72 367.44,133.23 368.03,142.14 368.64,158.21 
      369.25,177.54 369.84,195.39 370.45,207.38 371.03,210.58 371.64,204.23 372.25,189.85 372.84,170.95 373.45,152.23 374.03,138.19 374.65,132.30 
      375.26,136.01 375.84,148.42 376.45,166.46 377.04,185.75 377.65,201.52 378.26,209.94 378.84,208.97 379.45,198.81 380.04,181.94 380.65,162.53 
      381.26,145.32 381.85,134.50 382.46,132.74 383.04,140.46 383.65,155.79 384.26,174.96 384.85,193.27 385.46,206.26 386.05,210.72 386.66,205.57 
      387.27,192.10 387.85,173.56 388.46,154.52 389.05,139.63 389.66,132.55 390.27,134.99 390.86,146.37 391.47,163.90 392.05,183.28 392.66,199.79 
      393.25,209.36 393.86,209.65 394.47,200.62 395.06,184.43 395.67,165.09 396.25,147.32 396.86,135.45 397.47,132.43 398.06,138.94 398.67,153.45 
      399.26,172.34 399.87,191.05 400.48,204.96 401.06,210.68 401.67,206.79 402.26,194.27 402.87,176.15 403.48,156.91 404.07,141.24 404.68,132.96 
      405.26,134.11 405.87,144.41 406.48,161.36 407.07,180.77 407.68,197.91 408.26,208.58 408.87,210.16 409.49,202.28 410.07,186.87 410.68,167.68 
      411.27,149.42 411.88,136.55 412.49,132.26 413.07,137.55 413.68,151.18 414.27,169.76 414.88,188.75 415.49,203.55 416.08,210.46 416.69,207.84 
      417.27,196.34 417.88,178.74 418.49,159.36 419.08,142.95 419.69,133.52 420.28,133.40 420.89,142.61 421.50,158.87 422.08,178.23 422.69,195.93 
      423.28,207.65 423.89,210.53 424.50,203.84 425.09,189.21 425.70,170.27 426.28,151.62 "/>
    <polyline
      stroke-width="1"
      stroke="#F03232"
      stroke-opacity="1.000000"
      fill="none"
      points="426.28,151.62 426.89,137.82 427.50,132.28 428.09,136.33 428.70,148.98 429.29,167.14 429.90,186.38 430.51,201.96 431.09,210.09 431.70,208.75 
      432.29,198.30 432.90,181.28 433.51,161.87 434.10,144.80 434.71,134.28 435.29,132.87 435.90,140.90 436.51,156.43 437.10,175.64 437.71,193.85 
      438.29,206.57 438.90,210.70 439.52,205.23 440.10,191.51 440.71,172.88 441.30,153.91 441.91,139.24 442.52,132.47 443.10,135.26 443.71,146.90 
      444.30,164.58 444.91,183.94 445.52,200.25 446.11,209.53 446.72,209.48 447.30,200.13 447.91,183.77 448.52,164.41 449.11,146.76 449.72,135.18 
      450.31,132.47 450.92,139.34 451.53,154.06 452.11,173.05 452.72,191.66 453.31,205.33 453.92,210.70 454.53,206.50 455.12,193.71 455.73,175.47 
      456.31,156.28 456.92,140.80 457.53,132.82 458.12,134.33 458.73,144.93 459.32,162.04 459.93,181.45 460.54,198.42 461.12,208.80 461.73,210.04 
      462.32,201.86 462.93,186.21 463.54,166.97 464.13,148.83 464.74,136.26 465.32,132.28 465.93,137.92 466.54,151.76 467.13,170.44 467.74,189.39 
      468.32,203.94 468.94,210.53 469.55,207.60 470.13,195.81 470.74,178.06 471.33,158.70 471.94,142.48 472.55,133.35 473.13,133.57 473.74,143.07 
      474.33,159.53 474.94,178.91 475.55,196.47 476.14,207.92 476.75,210.46 477.33,203.42 477.94,188.60 478.55,169.59 479.14,151.03 479.75,137.48 
      480.34,132.26 480.95,136.65 481.56,149.57 482.14,167.85 482.75,187.02 483.34,202.40 483.95,210.21 484.56,208.53 485.15,197.78 485.76,180.60 
      486.34,161.19 486.95,144.29 487.56,134.06 488.15,132.99 488.76,141.34 489.35,157.08 489.96,176.35 490.57,194.42 491.15,206.87 491.76,210.68 
      492.35,204.86 492.96,190.90 493.57,172.17 494.16,153.28 494.77,138.85 495.35,132.40 495.96,135.53 496.57,147.44 497.16,165.26 497.77,184.60 
      498.36,200.71 498.97,209.70 499.58,209.31 500.16,199.66 500.77,183.11 501.36,163.73 501.97,146.22 502.58,134.92 503.16,132.57 503.78,139.75 
      504.36,154.69 504.97,173.74 505.58,192.24 506.17,205.67 506.78,210.72 507.36,206.16 507.97,193.12 508.58,174.79 509.17,155.62 509.78,140.36 
      510.37,132.72 510.98,134.55 511.59,145.44 512.17,162.70 512.78,182.11 513.37,198.93 513.98,209.02 514.59,209.92 515.18,201.40 515.79,185.58 
      516.37,166.29 516.98,148.27 517.59,135.94 518.18,132.33 518.79,138.29 519.38,152.37 519.99,171.15 520.60,190.00 521.18,204.33 521.79,210.60 
      522.38,207.31 522.99,195.25 523.60,177.37 524.19,158.04 524.80,142.02 525.38,133.21 525.99,133.77 526.58,143.56 527.19,160.19 527.80,179.60 
      528.39,197.00 529.00,208.16 529.58,210.36 530.19,203.03 530.80,187.97 531.39,168.88 532.00,150.42 532.58,137.14 533.19,132.26 533.81,136.97 
      534.39,150.15 535.00,168.54 535.59,187.65 536.20,202.81 536.81,210.31 537.39,208.28 538.00,197.27 538.59,179.94 539.20,160.53 539.81,143.80 
      540.40,133.87 541.01,133.13 541.59,141.80 542.20,157.72 542.81,177.03 543.40,194.98 544.01,207.16 544.60,210.63 545.21,204.50 545.82,190.29 
      546.40,171.49 547.01,152.67 547.60,138.46 548.21,132.35 548.82,135.80 549.41,148.00 550.02,165.95 550.60,185.26 551.21,201.18 551.82,209.85 
      552.41,209.11 553.02,199.18 553.61,182.45 554.22,163.04 554.83,145.71 555.41,134.67 556.02,132.67 556.61,140.17 557.22,155.33 557.83,174.44 
      558.42,192.83 559.03,206.01 559.61,210.72 560.22,205.84 560.83,192.54 561.42,174.08 562.03,154.99 562.61,139.95 563.23,132.62 563.84,134.79 
      564.42,145.98 565.03,163.38 565.62,182.79 566.23,199.42 566.84,209.21 567.42,209.77 568.03,200.96 568.62,184.92 569.23,165.61 569.84,147.73 
      570.43,135.67 571.04,132.38 571.62,138.65 572.23,152.98 572.84,171.83 573.43,190.61 574.04,204.69 574.63,210.65 575.24,207.01 575.85,194.68 
      576.43,176.69 577.04,157.40 577.63,141.56 578.24,133.06 578.85,133.96 579.44,144.05 "/>
    <polyline
      stroke-width="1"
      stroke="#F03232"
      stroke-opacity="1.000000"
      fill="none"
      points="579.44,144.05 580.05,160.84 580.63,180.28 581.24,197.54 581.85,208.40 582.44,210.26 583.05,202.62 583.64,187.33 584.25,168.19 584.86,149.86 
      585.44,136.80 586.05,132.26 586.64,137.31 587.25,150.74 587.86,169.24 588.45,188.29 589.06,203.23 589.64,210.41 590.25,208.04 590.86,196.73 
      591.45,179.25 592.06,159.84 592.65,143.31 593.26,133.67 593.87,133.28 594.45,142.24 595.06,158.38 595.65,177.72 596.26,195.51 596.87,207.45 
      597.45,210.58 598.07,204.13 598.65,189.68 599.26,170.78 599.87,152.06 600.46,138.09 601.07,132.30 601.65,136.09 602.26,148.56 602.87,166.63 
      603.46,185.89 604.07,201.64 604.66,209.99 605.27,208.92 605.88,198.66 606.46,181.79 607.07,162.36 607.66,145.19 608.27,134.45 608.88,132.77 
      609.47,140.58 610.08,155.96 610.66,175.13 611.27,193.41 611.88,206.33 612.47,210.72 613.08,205.50 613.67,191.95 614.28,173.39 614.89,154.37 
      615.47,139.53 616.08,132.52 616.67,135.06 617.28,146.49 617.89,164.07 618.48,183.45 619.09,199.91 619.67,209.41 620.28,209.60 620.89,200.49 
      621.48,184.26 622.09,164.92 622.68,147.17 623.29,135.38 623.90,132.43 624.48,139.04 625.09,153.59 625.68,172.54 626.29,191.22 626.90,205.06 
      627.48,210.70 628.10,206.72 628.68,194.12 629.29,175.98 629.90,156.74 630.49,141.12 631.10,132.91 631.68,134.16 632.29,144.56 632.91,161.53 
      633.49,180.94 634.10,198.05 634.69,208.65 635.30,210.14 635.91,202.18 636.49,186.70 637.10,167.51 637.69,149.27 638.30,136.48 638.91,132.26 
      639.50,137.65 640.11,151.32 640.69,169.93 641.30,188.92 641.91,203.64 642.50,210.48 643.11,207.79 643.70,196.20 644.31,178.57 644.92,159.18 
      645.50,142.83 646.11,133.48 646.70,133.45 647.31,142.70 647.92,159.04 648.51,178.40 649.12,196.08 649.70,207.72 650.31,210.50 650.92,203.74 
      651.51,189.07 652.12,170.10 652.71,151.47 653.32,137.72 653.93,132.28 654.51,136.41 655.12,149.13 655.71,167.34 656.32,186.55 656.93,202.08 
      657.52,210.11 658.13,208.70 658.71,198.17 659.32,181.11 659.91,161.70 660.52,144.68 661.13,134.21 661.71,132.89 662.32,141.02 662.91,156.60 
      663.52,175.81 664.13,193.98 664.72,206.65 665.33,210.70 665.91,205.16 666.52,191.36 667.13,172.71 667.72,153.74 668.33,139.14 668.92,132.45 
      669.53,135.31 670.14,147.05 670.72,164.75 671.33,184.11 671.92,200.37 672.53,209.58 673.14,209.43 673.73,200.03 674.34,183.60 674.92,164.24 
      675.53,146.64 676.14,135.11 676.73,132.50 677.34,139.43 677.93,154.20 678.54,173.22 679.15,191.80 679.73,205.40 680.34,210.72 680.93,206.40 
      681.54,193.56 682.15,175.30 682.74,156.11 683.35,140.68 683.93,132.79 684.54,134.38 685.15,145.05 685.74,162.21 686.35,181.62 686.94,198.54 
      687.55,208.87 688.16,210.02 688.74,201.74 689.35,186.07 689.94,166.80 690.55,148.71 691.16,136.19 691.74,132.30 692.36,138.02 692.94,151.91 
      693.55,170.61 694.16,189.53 694.75,204.03 695.36,210.55 695.94,207.53 696.55,195.66 697.16,177.89 697.75,158.53 698.36,142.36 698.95,133.33 
      699.56,133.62 700.17,143.19 700.75,159.70 701.36,179.08 701.95,196.61 702.56,207.99 703.17,210.43 703.76,203.33 704.37,188.43 704.95,169.39 
      705.56,150.86 706.17,137.38 706.76,132.26 707.37,136.72 707.96,149.71 708.57,168.02 709.18,187.19 709.76,202.50 710.37,210.24 710.96,208.48 
      711.57,197.66 712.18,180.43 712.77,161.02 713.38,144.17 713.96,134.01 714.57,133.01 715.18,141.46 715.77,157.23 716.38,176.52 716.97,194.56 
      717.58,206.94 718.19,210.65 718.77,204.79 719.38,190.75 719.97,172.00 "/>
    <clipPath
      id="text-clipping12"
      >
      <polygon
        points="0.000000,0.000000 0.000000,349.986267 800.000000,349.986267 800.000000,0.000000"
        />
    </clipPath>
    <g
      clip-path="url(#text-clipping12)"
      >
      <g
        transform="matrix(0.000000 1.000000 1.000000 -0.000000 92.410047 171.489608)"
        >
        <g
          transform="matrix(1.0 0.0 0.0 1.0 0.0 3.759176)"
          >
          <text
            dominant-baseline="no-change"
            fill="#000000"
            fill-opacity="1.000000"
            xml:space="preserve"
            font-size="9"
            text-anchor="middle"
            x="0.000000"
            y="0"
><tspan font-family="sans-serif" font-style="normal" font-weight="normal">&#x43;&#x61;&#x72;&#x72;&#x69;&#x65;&#x72;</tspan></text>
        </g>
      </g>
    </g>
    <polyline
      stroke-width="1"
      stroke="#000000"
      stroke-opacity="1.000000"
      fill="none"
      points="120.00,221.66 719.99,221.66"
      />
    <polyline
      stroke-width="1"
      stroke="#000000"
      stroke-opacity="1.000000"
      fill="none"
      points="719.99,221.66 719.99,307.99"
      />
    <polyline
      stroke-width="1"
      stroke="#000000"
      stroke-opacity="1.000000"
      fill="none"
      points="714.82,225.59 719.99,225.59"
      />
    <polyline
      stroke-width="1"
      stroke="#000000"
      stroke-opacity="1.000000"
      fill="none"
      points="714.82,264.83 719.99,264.83"
      />
    <polyline
      stroke-width="1"
      stroke="#000000"
      stroke-opacity="1.000000"
      fill="none"
      points="714.82,304.06 719.99,304.06"
      />
    <polyline
      stroke-width="1"
      stroke="#000000"
      stroke-opacity="1.000000"
      fill="none"
      points="719.99,307.99 120.00,307.99"
      />
    <polyline
      stroke-width="1"
      stroke="#000000"
      stroke-opacity="1.000000"
      fill="none"
      points="120.00,307.99 120.00,221.66"
      />
    <polyline
      stroke-width="1"
      stroke="#000000"
      stroke-opacity="1.000000"
      fill="none"
      points="120.00,304.06 125.17,304.06"
      />
    <polyline
      stroke-width="1"
      stroke="#000000"
      stroke-opacity="1.000000"
      fill="none"
      points="120.00,264.83 125.17,264.83"
      />
    <polyline
      stroke-width="1"
      stroke="#000000"
      stroke-opacity="1.000000"
      fill="none"
      points="120.00,225.59 125.17,225.59"
      />
    <clipPath
      id="text-clipping13"
      >
      <polygon
        points="0.000000,0.000000 0.000000,349.986267 800.000000,349.986267 800.000000,0.000000"
        />
    </clipPath>
    <g
      clip-path="url(#text-clipping13)"
      >
      <g
        transform="matrix(0.000000 1.000000 1.000000 -0.000000 113.089389 225.592822)"
        >
        <g
          transform="matrix(1.0 0.0 0.0 1.0 0.0 2.672784)"
          >
          <text
            dominant-baseline="no-change"
            fill="#000000"
            fill-opacity="1.000000"
            xml:space="preserve"
            font-size="6"
            text-anchor="middle"
            x="0.000000"
            y="0"
><tspan font-family="sans-serif" font-style="normal" font-weight="normal">&#x2d;&#x31;&#x2e;&#x30;</tspan></text>
        </g>
      </g>
    </g>
    <clipPath
      id="text-clipping14"
      >
      <polygon
        points="0.000000,0.000000 0.000000,349.986267 800.000000,349.986267 800.000000,0.000000"
        />
    </clipPath>
    <g
      clip-path="url(#text-clipping14)"
      >
      <g
        transform="matrix(0.000000 1.000000 1.000000 -0.000000 113.089389 264.827418)"
        >
        <g
          transform="matrix(1.0 0.0 0.0 1.0 0.0 2.672784)"
          >
          <text
            dominant-baseline="no-change"
            fill="#000000"
            fill-opacity="1.000000"
            xml:space="preserve"
            font-size="6"
            text-anchor="middle"
            x="0.000000"
            y="0"
><tspan font-family="sans-serif" font-style="normal" font-weight="normal">&#x30;&#x2e;&#x30;</tspan></text>
        </g>
      </g>
    </g>
    <clipPath
      id="text-clipping15"
      >
      <polygon
        points="0.000000,0.000000 0.000000,349.986267 800.000000,349.986267 800.000000,0.000000"
        />
    </clipPath>
    <g
      clip-path="url(#text-clipping15)"
      >
      <g
        transform="matrix(0.000000 1.000000 1.000000 -0.000000 113.089389 304.062014)"
        >
        <g
          transform="matrix(1.0 0.0 0.0 1.0 0.0 2.672784)"
          >
          <text
            dominant-baseline="no-change"
            fill="#000000"
            fill-opacity="1.000000"
            xml:space="preserve"
            font-size="6"
            text-anchor="middle"
            x="0.000000"
            y="0"
><tspan font-family="sans-serif" font-style="normal" font-weight="normal">&#x31;&#x2e;&#x30;</tspan></text>
        </g>
      </g>
    </g>
    <polyline
      stroke-width="1"
      stroke="#000000"
      stroke-opacity="1.000000"
      fill="none"
      points="120.00,264.83 120.61,265.22 121.20,265.61 121.81,266.00 122.39,266.39 123.00,266.78 123.59,267.17 124.20,267.56 124.81,267.95 125.39,268.34 
      126.00,268.73 126.59,269.12 127.20,269.52 127.81,269.91 128.40,270.30 129.01,270.69 129.59,271.08 130.20,271.47 130.81,271.86 131.40,272.23 
      132.01,272.62 132.60,273.01 133.21,273.40 133.82,273.76 134.40,274.15 135.01,274.52 135.60,274.91 136.21,275.28 136.82,275.67 137.41,276.03 
      138.02,276.42 138.60,276.79 139.21,277.16 139.82,277.55 140.41,277.91 141.02,278.28 141.61,278.65 142.22,279.01 142.83,279.38 143.41,279.74 
      144.02,280.11 144.61,280.45 145.22,280.82 145.83,281.19 146.42,281.53 147.03,281.89 147.61,282.24 148.22,282.60 148.83,282.94 149.42,283.29 
      150.03,283.63 150.61,283.97 151.23,284.31 151.84,284.65 152.42,284.99 153.03,285.34 153.62,285.68 154.23,286.00 154.84,286.34 155.42,286.65 
      156.04,286.97 156.62,287.31 157.23,287.63 157.84,287.95 158.43,288.27 159.04,288.56 159.62,288.88 160.23,289.19 160.84,289.49 161.43,289.80 
      162.04,290.10 162.63,290.39 163.24,290.71 163.85,291.00 164.43,291.29 165.04,291.56 165.63,291.85 166.24,292.15 166.85,292.42 167.44,292.68 
      168.05,292.98 168.63,293.25 169.24,293.51 169.85,293.78 170.44,294.05 171.05,294.30 171.64,294.56 172.25,294.81 172.86,295.08 173.44,295.32 
      174.05,295.57 174.64,295.81 175.25,296.05 175.86,296.27 176.45,296.52 177.06,296.74 177.64,296.96 178.25,297.20 178.86,297.42 179.45,297.62 
      180.06,297.84 180.65,298.06 181.26,298.25 181.87,298.47 182.45,298.67 183.06,298.86 183.65,299.06 184.26,299.25 184.87,299.42 185.45,299.62 
      186.07,299.79 186.65,299.96 187.26,300.13 187.87,300.30 188.46,300.47 189.07,300.64 189.65,300.79 190.26,300.96 190.87,301.11 191.46,301.25 
      192.07,301.40 192.66,301.55 193.27,301.67 193.88,301.82 194.46,301.94 195.07,302.06 195.66,302.18 196.27,302.30 196.88,302.43 197.47,302.52 
      198.08,302.62 198.66,302.74 199.27,302.84 199.88,302.94 200.47,303.01 201.08,303.11 201.67,303.18 202.28,303.28 202.89,303.35 203.47,303.43 
      204.08,303.50 204.67,303.55 205.28,303.62 205.89,303.67 206.48,303.72 207.09,303.77 207.67,303.82 208.28,303.87 208.89,303.89 209.48,303.94 
      210.09,303.96 210.68,303.99 211.29,304.01 211.90,304.04 212.48,304.04 213.09,304.06 213.68,304.06 214.29,304.06 214.90,304.06 215.49,304.06 
      216.10,304.04 216.68,304.04 217.29,304.01 217.90,303.99 218.49,303.96 219.10,303.94 219.68,303.92 220.29,303.87 220.91,303.82 221.49,303.79 
      222.10,303.74 222.69,303.67 223.30,303.62 223.91,303.57 224.49,303.50 225.10,303.43 225.69,303.35 226.30,303.28 226.91,303.21 227.50,303.13 
      228.11,303.04 228.69,302.94 229.30,302.84 229.91,302.74 230.50,302.65 231.11,302.55 231.70,302.43 232.31,302.33 232.92,302.21 233.50,302.08 
      234.11,301.96 234.70,301.82 235.31,301.69 235.92,301.55 236.51,301.43 237.12,301.28 237.70,301.13 238.31,300.99 238.92,300.81 239.51,300.67 
      240.12,300.50 240.71,300.33 241.32,300.18 241.93,300.01 242.51,299.81 243.12,299.64 243.71,299.47 244.32,299.28 244.93,299.08 245.52,298.89 
      246.13,298.69 246.71,298.50 247.32,298.30 247.93,298.08 248.52,297.89 249.13,297.67 249.71,297.45 250.33,297.23 250.94,297.01 251.52,296.79 
      252.13,296.54 252.72,296.32 253.33,296.08 253.94,295.83 254.52,295.59 255.13,295.35 255.72,295.10 256.33,294.86 256.92,294.59 257.53,294.34 
      258.14,294.08 258.72,293.83 259.33,293.56 259.92,293.30 260.53,293.03 261.14,292.73 261.73,292.46 262.34,292.17 262.92,291.90 263.53,291.61 
      264.14,291.32 264.73,291.05 265.34,290.73 265.93,290.44 266.54,290.15 267.15,289.85 267.73,289.54 268.34,289.24 268.93,288.92 269.54,288.61 
      270.15,288.31 270.74,288.00 271.35,287.68 271.93,287.36 272.54,287.02 273.15,286.70 "/>
    <polyline
      stroke-width="1"
      stroke="#000000"
      stroke-opacity="1.000000"
      fill="none"
      points="273.15,286.70 273.74,286.39 274.35,286.04 274.94,285.73 275.55,285.38 276.16,285.04 276.74,284.73 277.35,284.38 277.94,284.04 278.55,283.70 
      279.16,283.33 279.74,282.99 280.36,282.65 280.94,282.31 281.55,281.94 282.16,281.60 282.75,281.23 283.36,280.87 283.94,280.53 284.55,280.16 
      285.16,279.79 285.75,279.43 286.36,279.06 286.95,278.70 287.56,278.33 288.17,277.96 288.75,277.60 289.36,277.23 289.95,276.86 290.56,276.47 
      291.17,276.11 291.76,275.72 292.37,275.35 292.95,274.96 293.56,274.59 294.17,274.20 294.76,273.84 295.37,273.45 295.96,273.06 296.57,272.69 
      297.18,272.30 297.76,271.91 298.37,271.52 298.96,271.13 299.57,270.74 300.18,270.37 300.77,269.98 301.38,269.59 301.96,269.20 302.57,268.81 
      303.18,268.42 303.77,268.03 304.38,267.64 304.97,267.24 305.58,266.85 306.19,266.46 306.77,266.07 307.38,265.66 307.97,265.27 308.58,264.88 
      309.19,264.49 309.78,264.09 310.39,263.70 310.97,263.31 311.58,262.92 312.19,262.53 312.78,262.14 313.39,261.75 313.97,261.36 314.58,260.97 
      315.20,260.58 315.78,260.19 316.39,259.80 316.98,259.41 317.59,259.02 318.20,258.63 318.78,258.24 319.39,257.87 319.98,257.48 320.59,257.09 
      321.20,256.70 321.79,256.33 322.40,255.94 322.98,255.55 323.59,255.18 324.20,254.79 324.79,254.43 325.40,254.04 325.99,253.67 326.60,253.28 
      327.21,252.91 327.79,252.55 328.40,252.16 328.99,251.79 329.60,251.42 330.21,251.06 330.80,250.69 331.41,250.33 331.99,249.96 332.60,249.59 
      333.21,249.23 333.80,248.88 334.41,248.52 335.00,248.18 335.61,247.81 336.22,247.47 336.80,247.10 337.41,246.76 338.00,246.42 338.61,246.05 
      339.22,245.71 339.81,245.37 340.42,245.03 341.00,244.71 341.61,244.37 342.22,244.03 342.81,243.71 343.42,243.37 344.00,243.05 344.62,242.71 
      345.23,242.39 345.81,242.07 346.42,241.76 347.01,241.44 347.62,241.12 348.23,240.80 348.81,240.51 349.42,240.19 350.01,239.90 350.62,239.58 
      351.23,239.29 351.82,239.00 352.43,238.70 353.01,238.41 353.62,238.12 354.23,237.82 354.82,237.56 355.43,237.26 356.02,236.99 356.63,236.73 
      357.24,236.43 357.82,236.16 358.43,235.90 359.02,235.65 359.63,235.38 360.24,235.11 360.83,234.87 361.44,234.63 362.02,234.36 362.63,234.11 
      363.24,233.87 363.83,233.65 364.44,233.41 365.03,233.16 365.64,232.94 366.25,232.72 366.83,232.48 367.44,232.26 368.03,232.04 368.64,231.84 
      369.25,231.62 369.84,231.43 370.45,231.21 371.03,231.01 371.64,230.82 372.25,230.62 372.84,230.43 373.45,230.23 374.03,230.06 374.65,229.89 
      375.26,229.69 375.84,229.52 376.45,229.35 377.04,229.18 377.65,229.04 378.26,228.86 378.84,228.72 379.45,228.57 380.04,228.42 380.65,228.28 
      381.26,228.13 381.85,227.99 382.46,227.86 383.04,227.74 383.65,227.59 384.26,227.47 384.85,227.35 385.46,227.25 386.05,227.13 386.66,227.03 
      387.27,226.94 387.85,226.81 388.46,226.74 389.05,226.64 389.66,226.54 390.27,226.47 390.86,226.37 391.47,226.30 392.05,226.23 392.66,226.15 
      393.25,226.11 393.86,226.03 394.47,225.98 395.06,225.93 395.67,225.89 396.25,225.84 396.86,225.79 397.47,225.74 398.06,225.71 398.67,225.69 
      399.26,225.67 399.87,225.64 400.48,225.62 401.06,225.59 401.67,225.59 402.26,225.59 402.87,225.59 403.48,225.59 404.07,225.59 404.68,225.59 
      405.26,225.62 405.87,225.62 406.48,225.64 407.07,225.67 407.68,225.69 408.26,225.74 408.87,225.76 409.49,225.81 410.07,225.86 410.68,225.91 
      411.27,225.96 411.88,226.01 412.49,226.06 413.07,226.13 413.68,226.20 414.27,226.28 414.88,226.35 415.49,226.42 416.08,226.50 416.69,226.59 
      417.27,226.69 417.88,226.79 418.49,226.89 419.08,226.98 419.69,227.08 420.28,227.20 420.89,227.30 421.50,227.42 422.08,227.55 422.69,227.67 
      423.28,227.79 423.89,227.94 424.50,228.06 425.09,228.21 425.70,228.35 426.28,228.50 "/>
    <polyline
      stroke-width="1"
      stroke="#000000"
      stroke-opacity="1.000000"
      fill="none"
      points="426.28,228.50 426.89,228.64 427.50,228.79 428.09,228.96 428.70,229.11 429.29,229.28 429.90,229.45 430.51,229.62 431.09,229.79 431.70,229.96 
      432.29,230.16 432.90,230.33 433.51,230.52 434.10,230.72 434.71,230.92 435.29,231.11 435.90,231.33 436.51,231.53 437.10,231.75 437.71,231.94 
      438.29,232.16 438.90,232.38 439.52,232.60 440.10,232.82 440.71,233.06 441.30,233.28 441.91,233.53 442.52,233.77 443.10,234.02 443.71,234.26 
      444.30,234.50 444.91,234.75 445.52,234.99 446.11,235.26 446.72,235.53 447.30,235.77 447.91,236.04 448.52,236.31 449.11,236.58 449.72,236.85 
      450.31,237.14 450.92,237.41 451.53,237.70 452.11,237.97 452.72,238.26 453.31,238.56 453.92,238.85 454.53,239.14 455.12,239.44 455.73,239.75 
      456.31,240.05 456.92,240.36 457.53,240.66 458.12,240.97 458.73,241.29 459.32,241.61 459.93,241.93 460.54,242.24 461.12,242.56 461.73,242.88 
      462.32,243.22 462.93,243.54 463.54,243.88 464.13,244.20 464.74,244.54 465.32,244.88 465.93,245.22 466.54,245.56 467.13,245.91 467.74,246.25 
      468.32,246.59 468.94,246.93 469.55,247.30 470.13,247.64 470.74,248.01 471.33,248.35 471.94,248.71 472.55,249.06 473.13,249.42 473.74,249.79 
      474.33,250.15 474.94,250.52 475.55,250.89 476.14,251.25 476.75,251.62 477.33,251.99 477.94,252.35 478.55,252.74 479.14,253.11 479.75,253.47 
      480.34,253.87 480.95,254.23 481.56,254.62 482.14,254.99 482.75,255.38 483.34,255.75 483.95,256.14 484.56,256.53 485.15,256.89 485.76,257.28 
      486.34,257.67 486.95,258.06 487.56,258.46 488.15,258.85 488.76,259.21 489.35,259.60 489.96,259.99 490.57,260.38 491.15,260.77 491.76,261.17 
      492.35,261.56 492.96,261.95 493.57,262.34 494.16,262.73 494.77,263.12 495.35,263.51 495.96,263.92 496.57,264.31 497.16,264.71 497.77,265.10 
      498.36,265.49 498.97,265.88 499.58,266.27 500.16,266.66 500.77,267.05 501.36,267.44 501.97,267.83 502.58,268.22 503.16,268.61 503.78,269.00 
      504.36,269.39 504.97,269.78 505.58,270.17 506.17,270.56 506.78,270.96 507.36,271.35 507.97,271.71 508.58,272.10 509.17,272.49 509.78,272.88 
      510.37,273.27 510.98,273.64 511.59,274.03 512.17,274.40 512.78,274.79 513.37,275.18 513.98,275.55 514.59,275.91 515.18,276.30 515.79,276.67 
      516.37,277.06 516.98,277.43 517.59,277.79 518.18,278.16 518.79,278.52 519.38,278.89 519.99,279.26 520.60,279.62 521.18,279.99 521.79,280.36 
      522.38,280.70 522.99,281.06 523.60,281.43 524.19,281.77 524.80,282.14 525.38,282.48 525.99,282.82 526.58,283.19 527.19,283.53 527.80,283.87 
      528.39,284.21 529.00,284.55 529.58,284.90 530.19,285.21 530.80,285.56 531.39,285.90 532.00,286.21 532.58,286.56 533.19,286.87 533.81,287.19 
      534.39,287.51 535.00,287.85 535.59,288.17 536.20,288.46 536.81,288.78 537.39,289.10 538.00,289.39 538.59,289.71 539.20,290.00 539.81,290.32 
      540.40,290.61 541.01,290.90 541.59,291.20 542.20,291.49 542.81,291.76 543.40,292.05 544.01,292.32 544.60,292.61 545.21,292.88 545.82,293.15 
      546.40,293.42 547.01,293.69 547.60,293.95 548.21,294.22 548.82,294.47 549.41,294.74 550.02,294.98 550.60,295.22 551.21,295.49 551.82,295.74 
      552.41,295.96 553.02,296.20 553.61,296.44 554.22,296.66 554.83,296.88 555.41,297.13 556.02,297.35 556.61,297.57 557.22,297.76 557.83,297.98 
      558.42,298.20 559.03,298.40 559.61,298.59 560.22,298.79 560.83,298.98 561.42,299.18 562.03,299.37 562.61,299.55 563.23,299.74 563.84,299.91 
      564.42,300.08 565.03,300.25 565.62,300.42 566.23,300.60 566.84,300.74 567.42,300.91 568.03,301.06 568.62,301.21 569.23,301.35 569.84,301.50 
      570.43,301.62 571.04,301.77 571.62,301.89 572.23,302.01 572.84,302.13 573.43,302.26 574.04,302.38 574.63,302.50 575.24,302.60 575.85,302.69 
      576.43,302.79 577.04,302.89 577.63,302.99 578.24,303.09 578.85,303.16 579.44,303.26 "/>
    <polyline
      stroke-width="1"
      stroke="#000000"
      stroke-opacity="1.000000"
      fill="none"
      points="579.44,303.26 580.05,303.33 580.63,303.40 581.24,303.48 581.85,303.52 582.44,303.60 583.05,303.65 583.64,303.72 584.25,303.77 584.86,303.82 
      585.44,303.84 586.05,303.89 586.64,303.92 587.25,303.96 587.86,303.99 588.45,304.01 589.06,304.01 589.64,304.04 590.25,304.06 590.86,304.06 
      591.45,304.06 592.06,304.06 592.65,304.06 593.26,304.04 593.87,304.04 594.45,304.01 595.06,304.01 595.65,303.99 596.26,303.94 596.87,303.92 
      597.45,303.89 598.07,303.84 598.65,303.79 599.26,303.74 599.87,303.70 600.46,303.65 601.07,303.60 601.65,303.52 602.26,303.45 602.87,303.38 
      603.46,303.31 604.07,303.23 604.66,303.16 605.27,303.06 605.88,302.96 606.46,302.89 607.07,302.79 607.66,302.67 608.27,302.57 608.88,302.48 
      609.47,302.35 610.08,302.23 610.66,302.11 611.27,301.99 611.88,301.86 612.47,301.74 613.08,301.60 613.67,301.47 614.28,301.33 614.89,301.18 
      615.47,301.03 616.08,300.86 616.67,300.72 617.28,300.55 617.89,300.40 618.48,300.23 619.09,300.06 619.67,299.89 620.28,299.69 620.89,299.52 
      621.48,299.33 622.09,299.15 622.68,298.96 623.29,298.76 623.90,298.57 624.48,298.35 625.09,298.15 625.68,297.93 626.29,297.74 626.90,297.52 
      627.48,297.30 628.10,297.08 628.68,296.86 629.29,296.62 629.90,296.40 630.49,296.15 631.10,295.91 631.68,295.69 632.29,295.44 632.91,295.18 
      633.49,294.93 634.10,294.69 634.69,294.42 635.30,294.17 635.91,293.91 636.49,293.64 637.10,293.37 637.69,293.10 638.30,292.83 638.91,292.56 
      639.50,292.27 640.11,292.00 640.69,291.71 641.30,291.42 641.91,291.12 642.50,290.83 643.11,290.54 643.70,290.24 644.31,289.95 644.92,289.63 
      645.50,289.34 646.11,289.02 646.70,288.73 647.31,288.41 647.92,288.09 648.51,287.78 649.12,287.46 649.70,287.14 650.31,286.80 650.92,286.48 
      651.51,286.17 652.12,285.82 652.71,285.48 653.32,285.16 653.93,284.82 654.51,284.48 655.12,284.14 655.71,283.80 656.32,283.46 656.93,283.11 
      657.52,282.77 658.13,282.41 658.71,282.06 659.32,281.70 659.91,281.36 660.52,280.99 661.13,280.62 661.71,280.28 662.32,279.92 662.91,279.55 
      663.52,279.18 664.13,278.82 664.72,278.45 665.33,278.08 665.91,277.72 666.52,277.35 667.13,276.96 667.72,276.60 668.33,276.23 668.92,275.84 
      669.53,275.47 670.14,275.08 670.72,274.72 671.33,274.32 671.92,273.96 672.53,273.57 673.14,273.18 673.73,272.81 674.34,272.42 674.92,272.03 
      675.53,271.64 676.14,271.25 676.73,270.88 677.34,270.49 677.93,270.10 678.54,269.71 679.15,269.32 679.73,268.93 680.34,268.54 680.93,268.15 
      681.54,267.76 682.15,267.37 682.74,266.98 683.35,266.59 683.93,266.19 684.54,265.80 685.15,265.41 685.74,265.00 686.35,264.61 686.94,264.22 
      687.55,263.83 688.16,263.44 688.74,263.05 689.35,262.65 689.94,262.26 690.55,261.87 691.16,261.48 691.74,261.09 692.36,260.70 692.94,260.31 
      693.55,259.92 694.16,259.53 694.75,259.14 695.36,258.75 695.94,258.36 696.55,257.99 697.16,257.60 697.75,257.21 698.36,256.82 698.95,256.45 
      699.56,256.06 700.17,255.67 700.75,255.31 701.36,254.92 701.95,254.52 702.56,254.16 703.17,253.79 703.76,253.40 704.37,253.04 704.95,252.64 
      705.56,252.28 706.17,251.91 706.76,251.55 707.37,251.18 707.96,250.81 708.57,250.45 709.18,250.08 709.76,249.71 710.37,249.35 710.96,248.98 
      711.57,248.64 712.18,248.27 712.77,247.93 713.38,247.57 713.96,247.22 714.57,246.86 715.18,246.52 715.77,246.17 716.38,245.83 716.97,245.49 
      717.58,245.15 718.19,244.81 718.77,244.47 719.38,244.15 719.97,243.81 "/>
    <clipPath
      id="text-clipping16"
      >
      <polygon
        points="0.000000,0.000000 0.000000,349.986267 800.000000,349.986267 800.000000,0.000000"
        />
    </clipPath>
    <g
      clip-path="url(#text-clipping16)"
      >
      <g
        transform="matrix(0.000000 1.000000 1.000000 -0.000000 92.410047 264.827418)"
        >
        <g
          transform="matrix(1.0 0.0 0.0 1.0 0.0 3.759176)"
          >
          <text
            dominant-baseline="no-change"
            fill="#000000"
            fill-opacity="1.000000"
            xml:space="preserve"
            font-size="9"
            text-anchor="middle"
            x="0.000000"
            y="0"
><tspan font-family="sans-serif" font-style="normal" font-weight="normal">&#x53;&#x69;&#x67;&#x6e;&#x61;&#x6c;</tspan></text>
        </g>
      </g>
    </g>
  </g>
</svg>
