<?xml version="1.0" encoding="UTF-8"?>
<!DOCTYPE svg PUBLIC "-//W3C//DTD SVG 1.1//EN"
        "http://www.w3.org/Graphics/SVG/1.1/DTD/svg11.dtd">
<svg
  xmlns="http://www.w3.org/2000/svg"
  xmlns:xlink="http://www.w3.org/1999/xlink"
  version="1.1"
  width="800pt"
  height="350pt"
  viewBox="0 0 800 350"
  >
  <rect
    x="0"
    y="0"
    width="800"
    height="350"
    stroke="none"
    fill="#FFFFFF"
    fill-opacity="1.000000"
    />
  <g
    transform="matrix(1 0 0 -1 0 350)"
    >
    <polyline
      stroke-width="1"
      stroke="#000000"
      stroke-opacity="1.000000"
      fill="none"
      points="120.00,35.01 719.99,35.01"
      />
    <polyline
      stroke-width="1"
      stroke="#000000"
      stroke-opacity="1.000000"
      fill="none"
      points="120.00,35.01 120.00,40.19"
      />
    <polyline
      stroke-width="1"
      stroke="#000000"
      stroke-opacity="1.000000"
      fill="none"
      points="150.03,35.01 150.03,39.33"
      />
    <polyline
      stroke-width="1"
      stroke="#000000"
      stroke-opacity="1.000000"
      fill="none"
      points="180.06,35.01 180.06,39.33"
      />
    <polyline
      stroke-width="1"
      stroke="#000000"
      stroke-opacity="1.000000"
      fill="none"
      points="210.09,35.01 210.09,39.33"
      />
    <polyline
      stroke-width="1"
      stroke="#000000"
      stroke-opacity="1.000000"
      fill="none"
      points="240.12,35.01 240.12,40.19"
      />
    <polyline
      stroke-width="1"
      stroke="#000000"
      stroke-opacity="1.000000"
      fill="none"
      points="270.15,35.01 270.15,39.33"
      />
    <polyline
      stroke-width="1"
      stroke="#000000"
      stroke-opacity="1.000000"
      fill="none"
      points="300.18,35.01 300.18,39.33"
      />
    <polyline
      stroke-width="1"
      stroke="#000000"
      stroke-opacity="1.000000"
      fill="none"
      points="330.21,35.01 330.21,39.33"
      />
    <polyline
      stroke-width="1"
      stroke="#000000"
      stroke-opacity="1.000000"
      fill="none"
      points="360.24,35.01 360.24,40.19"
      />
    <polyline
      stroke-width="1"
      stroke="#000000"
      stroke-opacity="1.000000"
      fill="none"
      points="390.27,35.01 390.27,39.33"
      />
    <polyline
      stroke-width="1"
      stroke="#000000"
      stroke-opacity="1.000000"
      fill="none"
      points="420.28,35.01 420.28,39.33"
      />
    <polyline
      stroke-width="1"
      stroke="#000000"
      stroke-opacity="1.000000"
      fill="none"
      points="450.31,35.01 450.31,39.33"
      />
    <polyline
      stroke-width="1"
      stroke="#000000"
      stroke-opacity="1.000000"
      fill="none"
      points="480.34,35.01 480.34,40.19"
      />
    <polyline
      stroke-width="1"
      stroke="#000000"
      stroke-opacity="1.000000"
      fill="none"
      points="510.37,35.01 510.37,39.33"
      />
    <polyline
      stroke-width="1"
      stroke="#000000"
      stroke-opacity="1.000000"
      fill="none"
      points="540.40,35.01 540.40,39.33"
      />
    <polyline
      stroke-width="1"
      stroke="#000000"
      stroke-opacity="1.000000"
      fill="none"
      points="570.43,35.01 570.43,39.33"
      />
    <polyline
      stroke-width="1"
      stroke="#000000"
      stroke-opacity="1.000000"
      fill="none"
      points="600.46,35.01 600.46,40.19"
      />
    <polyline
      stroke-width="1"
      stroke="#000000"
      stroke-opacity="1.000000"
      fill="none"
      points="630.49,35.01 630.49,39.33"
      />
    <polyline
      stroke-width="1"
      stroke="#000000"
      stroke-opacity="1.000000"
      fill="none"
      points="660.52,35.01 660.52,39.33"
      />
    <polyline
      stroke-width="1"
      stroke="#000000"
      stroke-opacity="1.000000"
      fill="none"
      points="690.55,35.01 690.55,39.33"
      />
    <polyline
      stroke-width="1"
      stroke="#000000"
      stroke-opacity="1.000000"
      fill="none"
      points="719.99,35.01 719.99,121.32"
      />
    <polyline
      stroke-width="1"
      stroke="#000000"
      stroke-opacity="1.000000"
      fill="none"
      points="714.82,38.94 719.99,38.94"
      />
    <polyline
      stroke-width="1"
      stroke="#000000"
      stroke-opacity="1.000000"
      fill="none"
      points="714.82,78.15 719.99,78.15"
      />
    <polyline
      stroke-width="1"
      stroke="#000000"
      stroke-opacity="1.000000"
      fill="none"
      points="714.82,117.39 719.99,117.39"
      />
    <polyline
      stroke-width="1"
      stroke="#000000"
      stroke-opacity="1.000000"
      fill="none"
      points="719.99,121.32 120.00,121.32"
      />
    <polyline
      stroke-width="1"
      stroke="#000000"
      stroke-opacity="1.000000"
      fill="none"
      points="690.55,117.00 690.55,121.32"
      />
    <polyline
      stroke-width="1"
      stroke="#000000"
      stroke-opacity="1.000000"
      fill="none"
      points="660.52,117.00 660.52,121.32"
      />
    <polyline
      stroke-width="1"
      stroke="#000000"
      stroke-opacity="1.000000"
      fill="none"
      points="630.49,117.00 630.49,121.32"
      />
    <polyline
      stroke-width="1"
      stroke="#000000"
      stroke-opacity="1.000000"
      fill="none"
      points="600.46,116.14 600.46,121.32"
      />
    <polyline
      stroke-width="1"
      stroke="#000000"
      stroke-opacity="1.000000"
      fill="none"
      points="570.43,117.00 570.43,121.32"
      />
    <polyline
      stroke-width="1"
      stroke="#000000"
      stroke-opacity="1.000000"
      fill="none"
      points="540.40,117.00 540.40,121.32"
      />
    <polyline
      stroke-width="1"
      stroke="#000000"
      stroke-opacity="1.000000"
      fill="none"
      points="510.37,117.00 510.37,121.32"
      />
    <polyline
      stroke-width="1"
      stroke="#000000"
      stroke-opacity="1.000000"
      fill="none"
      points="480.34,116.14 480.34,121.32"
      />
    <polyline
      stroke-width="1"
      stroke="#000000"
      stroke-opacity="1.000000"
      fill="none"
      points="450.31,117.00 450.31,121.32"
      />
    <polyline
      stroke-width="1"
      stroke="#000000"
      stroke-opacity="1.000000"
      fill="none"
      points="420.28,117.00 420.28,121.32"
      />
    <polyline
      stroke-width="1"
      stroke="#000000"
      stroke-opacity="1.000000"
      fill="none"
      points="390.27,117.00 390.27,121.32"
      />
    <polyline
      stroke-width="1"
      stroke="#000000"
      stroke-opacity="1.000000"
      fill="none"
      points="360.24,116.14 360.24,121.32"
      />
    <polyline
      stroke-width="1"
      stroke="#000000"
      stroke-opacity="1.000000"
      fill="none"
      points="330.21,117.00 330.21,121.32"
      />
    <polyline
      stroke-width="1"
      stroke="#000000"
      stroke-opacity="1.000000"
      fill="none"
      points="300.18,117.00 300.18,121.32"
      />
    <polyline
      stroke-width="1"
      stroke="#000000"
      stroke-opacity="1.000000"
      fill="none"
      points="270.15,117.00 270.15,121.32"
      />
    <polyline
      stroke-width="1"
      stroke="#000000"
      stroke-opacity="1.000000"
      fill="none"
      points="240.12,116.14 240.12,121.32"
      />
    <polyline
      stroke-width="1"
      stroke="#000000"
      stroke-opacity="1.000000"
      fill="none"
      points="210.09,117.00 210.09,121.32"
      />
    <polyline
      stroke-width="1"
      stroke="#000000"
      stroke-opacity="1.000000"
      fill="none"
      points="180.06,117.00 180.06,121.32"
      />
    <polyline
      stroke-width="1"
      stroke="#000000"
      stroke-opacity="1.000000"
      fill="none"
      points="150.03,117.00 150.03,121.32"
      />
    <polyline
      stroke-width="1"
      stroke="#000000"
      stroke-opacity="1.000000"
      fill="none"
      points="120.00,116.14 120.00,121.32"
      />
    <polyline
      stroke-width="1"
      stroke="#000000"
      stroke-opacity="1.000000"
      fill="none"
      points="120.00,121.32 120.00,35.01"
      />
    <polyline
      stroke-width="1"
      stroke="#000000"
      stroke-opacity="1.000000"
      fill="none"
      points="120.00,117.39 125.17,117.39"
      />
    <polyline
      stroke-width="1"
      stroke="#000000"
      stroke-opacity="1.000000"
      fill="none"
      points="120.00,78.15 125.17,78.15"
      />
    <polyline
      stroke-width="1"
      stroke="#000000"
      stroke-opacity="1.000000"
      fill="none"
      points="120.00,38.94 125.17,38.94"
      />
    <clipPath
      id="text-clipping17"
      >
      <polygon
        points="0.000000,0.000000 0.000000,349.986267 800.000000,349.986267 800.000000,0.000000"
        />
    </clipPath>
    <g
      clip-path="url(#text-clipping17)"
      >
      <g
        transform="matrix(1.000000 0.000000 0.000000 -1.000000 119.998779 28.101444)"
        >
        <g
          transform="matrix(1.0 0.0 0.0 1.0 0.0 2.672784)"
          >
          <text
            dominant-baseline="no-change"
            fill="#000000"
            fill-opacity="1.000000"
            xml:space="preserve"
            font-size="6"
            text-anchor="middle"
            x="0.000000"
            y="0"
><tspan font-family="sans-serif" font-style="normal" font-weight="normal">&#x30;</tspan></text>
        </g>
      </g>
    </g>
    <clipPath
      id="text-clipping18"
      >
      <polygon
        points="0.000000,0.000000 0.000000,349.986267 800.000000,349.986267 800.000000,0.000000"
        />
    </clipPath>
    <g
      clip-path="url(#text-clipping18)"
      >
      <g
        transform="matrix(1.000000 0.000000 0.000000 -1.000000 240.119633 28.101444)"
        >
        <g
          transform="matrix(1.0 0.0 0.0 1.0 0.0 2.672784)"
          >
          <text
            dominant-baseline="no-change"
            fill="#000000"
            fill-opacity="1.000000"
            xml:space="preserve"
            font-size="6"
            text-anchor="middle"
            x="0.000000"
            y="0"
><tspan font-family="sans-serif" font-style="normal" font-weight="normal">&#x32;</tspan></text>
        </g>
      </g>
    </g>
    <clipPath
      id="text-clipping19"
      >
      <polygon
        points="0.000000,0.000000 0.000000,349.986267 800.000000,349.986267 800.000000,0.000000"
        />
    </clipPath>
    <g
      clip-path="url(#text-clipping19)"
      >
      <g
        transform="matrix(1.000000 0.000000 0.000000 -1.000000 360.240486 28.101444)"
        >
        <g
          transform="matrix(1.0 0.0 0.0 1.0 0.0 2.672784)"
          >
          <text
            dominant-baseline="no-change"
            fill="#000000"
            fill-opacity="1.000000"
            xml:space="preserve"
            font-size="6"
            text-anchor="middle"
            x="0.000000"
            y="0"
><tspan font-family="sans-serif" font-style="normal" font-weight="normal">&#x34;</tspan></text>
        </g>
      </g>
    </g>
    <clipPath
      id="text-clipping20"
      >
      <polygon
        points="0.000000,0.000000 0.000000,349.986267 800.000000,349.986267 800.000000,0.000000"
        />
    </clipPath>
    <g
      clip-path="url(#text-clipping20)"
      >
      <g
        transform="matrix(1.000000 0.000000 0.000000 -1.000000 480.361339 28.101444)"
        >
        <g
          transform="matrix(1.0 0.0 0.0 1.0 0.0 2.672784)"
          >
          <text
            dominant-baseline="no-change"
            fill="#000000"
            fill-opacity="1.000000"
            xml:space="preserve"
            font-size="6"
            text-anchor="middle"
            x="0.000000"
            y="0"
><tspan font-family="sans-serif" font-style="normal" font-weight="normal">&#x36;</tspan></text>
        </g>
      </g>
    </g>
    <clipPath
      id="text-clipping21"
      >
      <polygon
        points="0.000000,0.000000 0.000000,349.986267 800.000000,349.986267 800.000000,0.000000"
        />
    </clipPath>
    <g
      clip-path="url(#text-clipping21)"
      >
      <g
        transform="matrix(1.000000 0.000000 0.000000 -1.000000 600.482192 28.101444)"
        >
        <g
          transform="matrix(1.0 0.0 0.0 1.0 0.0 2.672784)"
          >
          <text
            dominant-baseline="no-change"
            fill="#000000"
            fill-opacity="1.000000"
            xml:space="preserve"
            font-size="6"
            text-anchor="middle"
            x="0.000000"
            y="0"
><tspan font-family="sans-serif" font-style="normal" font-weight="normal">&#x38;</tspan></text>
        </g>
      </g>
    </g>
    <clipPath
      id="text-clipping22"
      >
      <polygon
        points="0.000000,0.000000 0.000000,349.986267 800.000000,349.986267 800.000000,0.000000"
        />
    </clipPath>
    <g
      clip-path="url(#text-clipping22)"
      >
      <g
        transform="matrix(0.000000 1.000000 1.000000 -0.000000 113.089389 38.917203)"
        >
        <g
          transform="matrix(1.0 0.0 0.0 1.0 0.0 2.672784)"
          >
          <text
            dominant-baseline="no-change"
            fill="#000000"
            fill-opacity="1.000000"
            xml:space="preserve"
            font-size="6"
            text-anchor="middle"
            x="0.000000"
            y="0"
><tspan font-family="sans-serif" font-style="normal" font-weight="normal">&#x2d;&#x32;</tspan></text>
        </g>
      </g>
    </g>
    <clipPath
      id="text-clipping23"
      >
      <polygon
        points="0.000000,0.000000 0.000000,349.986267 800.000000,349.986267 800.000000,0.000000"
        />
    </clipPath>
    <g
      clip-path="url(#text-clipping23)"
      >
      <g
        transform="matrix(0.000000 1.000000 1.000000 -0.000000 113.089389 78.151799)"
        >
        <g
          transform="matrix(1.0 0.0 0.0 1.0 0.0 2.672784)"
          >
          <text
            dominant-baseline="no-change"
            fill="#000000"
            fill-opacity="1.000000"
            xml:space="preserve"
            font-size="6"
            text-anchor="middle"
            x="0.000000"
            y="0"
><tspan font-family="sans-serif" font-style="normal" font-weight="normal">&#x30;</tspan></text>
        </g>
      </g>
    </g>
    <clipPath
      id="text-clipping24"
      >
      <polygon
        points="0.000000,0.000000 0.000000,349.986267 800.000000,349.986267 800.000000,0.000000"
        />
    </clipPath>
    <g
      clip-path="url(#text-clipping24)"
      >
      <g
        transform="matrix(0.000000 1.000000 1.000000 -0.000000 113.089389 117.410810)"
        >
        <g
          transform="matrix(1.0 0.0 0.0 1.0 0.0 2.672784)"
          >
          <text
            dominant-baseline="no-change"
            fill="#000000"
            fill-opacity="1.000000"
            xml:space="preserve"
            font-size="6"
            text-anchor="middle"
            x="0.000000"
            y="0"
><tspan font-family="sans-serif" font-style="normal" font-weight="normal">&#x32;</tspan></text>
        </g>
      </g>
    </g>
    <polyline
      stroke-width="1"
      stroke="#0000FF"
      stroke-opacity="1.000000"
      fill="none"
      points="120.00,78.15 120.61,84.33 121.20,90.36 121.81,96.07 122.39,101.32 123.00,106.01 123.59,110.01 124.20,113.21 124.81,115.56 125.39,116.95 
      126.00,117.39 126.59,116.85 127.20,115.36 127.81,112.94 128.40,109.67 129.01,105.62 129.59,100.91 130.20,95.63 130.81,89.92 131.40,83.94 
      132.01,77.83 132.60,71.76 133.21,65.82 133.82,60.23 134.40,55.10 135.01,50.54 135.60,46.68 136.21,43.63 136.82,41.43 137.41,40.16 
      138.02,39.82 138.60,40.43 139.21,41.97 139.82,44.41 140.41,47.68 141.02,51.69 141.61,56.35 142.22,61.50 142.83,67.07 143.41,72.88 
      144.02,78.79 144.61,84.67 145.22,90.33 145.83,95.71 146.42,100.59 147.03,104.91 147.61,108.52 148.22,111.38 148.83,113.41 149.42,114.53 
      150.03,114.75 150.61,114.09 151.23,112.50 151.84,110.11 152.42,106.91 153.03,103.05 153.62,98.59 154.23,93.66 154.84,88.36 155.42,82.84 
      156.04,77.27 156.62,71.76 157.23,66.43 157.84,61.43 158.43,56.91 159.04,52.93 159.62,49.61 160.23,47.02 160.84,45.22 161.43,44.26 
      162.04,44.14 162.63,44.85 163.24,46.41 163.85,48.71 164.43,51.73 165.04,55.37 165.63,59.55 166.24,64.16 166.85,69.05 167.44,74.12 
      168.05,79.25 168.63,84.30 169.24,89.14 169.85,93.66 170.44,97.73 171.05,101.30 171.64,104.25 172.25,106.52 172.86,108.06 173.44,108.84 
      174.05,108.87 174.64,108.11 175.25,106.64 175.86,104.47 176.45,101.69 177.06,98.37 177.64,94.56 178.25,90.43 178.86,86.04 179.45,81.50 
      180.06,76.96 180.65,72.49 181.26,68.24 181.87,64.28 182.45,60.74 183.06,57.69 183.65,55.18 184.26,53.27 184.87,52.00 185.45,51.42 
      186.07,51.49 186.65,52.22 187.26,53.59 187.87,55.54 188.46,58.03 189.07,60.96 189.65,64.26 190.26,67.87 190.87,71.66 191.46,75.51 
      192.07,79.40 192.66,83.16 193.27,86.75 193.88,90.02 194.46,92.95 195.07,95.46 195.66,97.49 196.27,99.00 196.88,99.95 197.47,100.37 
      198.08,100.20 198.66,99.51 199.27,98.29 199.88,96.61 200.47,94.51 201.08,92.04 201.67,89.28 202.28,86.33 202.89,83.25 203.47,80.10 
      204.08,77.00 204.67,74.03 205.28,71.19 205.89,68.63 206.48,66.38 207.09,64.48 207.67,62.97 208.28,61.87 208.89,61.23 209.48,61.01 
      210.09,61.23 210.68,61.87 211.29,62.89 211.90,64.26 212.48,65.94 213.09,67.85 213.68,69.97 214.29,72.22 214.90,74.54 215.49,76.86 
      216.10,79.13 216.68,81.28 217.29,83.28 217.90,85.06 218.49,86.60 219.10,87.87 219.68,88.85 220.29,89.50 220.91,89.85 221.49,89.87 
      222.10,89.60 222.69,89.07 223.30,88.26 223.91,87.26 224.49,86.06 225.10,84.72 225.69,83.30 226.30,81.81 226.91,80.35 227.50,78.88 
      228.11,77.52 228.69,76.25 229.30,75.10 229.91,74.12 230.50,73.32 231.11,72.71 231.70,72.29 232.31,72.07 232.92,72.05 233.50,72.17 
      234.11,72.46 234.70,72.90 235.31,73.42 235.92,74.05 236.51,74.71 237.12,75.42 237.70,76.10 238.31,76.78 238.92,77.39 239.51,77.93 
      240.12,78.40 240.71,78.76 241.32,79.01 241.93,79.18 242.51,79.20 243.12,79.15 243.71,79.03 244.32,78.84 244.93,78.57 245.52,78.30 
      246.13,78.01 246.71,77.71 247.32,77.47 247.93,77.27 248.52,77.15 249.13,77.10 249.71,77.18 250.33,77.35 250.94,77.61 251.52,77.98 
      252.13,78.44 252.72,79.01 253.33,79.62 253.94,80.30 254.52,81.01 255.13,81.69 255.72,82.35 256.33,82.96 256.92,83.50 257.53,83.91 
      258.14,84.18 258.72,84.30 259.33,84.23 259.92,83.99 260.53,83.55 261.14,82.91 261.73,82.08 262.34,81.08 262.92,79.93 263.53,78.64 
      264.14,77.27 264.73,75.81 265.34,74.32 265.93,72.85 266.54,71.44 267.15,70.12 267.73,68.95 268.34,67.95 268.93,67.19 269.54,66.68 
      270.15,66.43 270.74,66.51 271.35,66.90 271.93,67.58 272.54,68.58 273.15,69.90 "/>
    <polyline
      stroke-width="1"
      stroke="#0000FF"
      stroke-opacity="1.000000"
      fill="none"
      points="273.15,69.90 273.74,71.46 274.35,73.29 274.94,75.30 275.55,77.47 276.16,79.74 276.74,82.08 277.35,84.38 277.94,86.62 278.55,88.70 
      279.16,90.60 279.74,92.24 280.36,93.58 280.94,94.56 281.55,95.14 282.16,95.32 282.75,95.05 283.36,94.34 283.94,93.19 284.55,91.65 
      285.16,89.70 285.75,87.41 286.36,84.79 286.95,81.96 287.56,78.93 288.17,75.83 288.75,72.71 289.36,69.63 289.95,66.68 290.56,63.97 
      291.17,61.55 291.76,59.50 292.37,57.86 292.95,56.72 293.56,56.08 294.17,55.98 294.76,56.45 295.37,57.47 295.96,59.04 296.57,61.13 
      297.18,63.70 297.76,66.68 298.37,70.00 298.96,73.61 299.57,77.39 300.18,81.28 300.77,85.13 301.38,88.92 301.96,92.48 302.57,95.73 
      303.18,98.61 303.77,101.03 304.38,102.93 304.97,104.23 305.58,104.86 306.19,104.86 306.77,104.20 307.38,102.86 307.97,100.88 308.58,98.29 
      309.19,95.17 309.78,91.58 310.39,87.58 310.97,83.30 311.58,78.84 312.19,74.27 312.78,69.75 313.39,65.38 313.97,61.28 314.58,57.55 
      315.20,54.27 315.78,51.56 316.39,49.46 316.98,48.07 317.59,47.44 318.20,47.54 318.78,48.41 319.39,50.05 319.98,52.39 320.59,55.42 
      321.20,59.06 321.79,63.19 322.40,67.75 322.98,72.63 323.59,77.69 324.20,82.82 324.79,87.87 325.40,92.75 325.99,97.29 326.60,101.42 
      327.21,104.98 327.79,107.94 328.40,110.16 328.99,111.60 329.60,112.21 330.21,111.99 330.80,110.94 331.41,109.04 331.99,106.35 332.60,102.96 
      333.21,98.90 333.80,94.31 334.41,89.26 335.00,83.91 335.61,78.37 336.22,72.80 336.80,67.31 337.41,62.06 338.00,57.18 338.61,52.76 
      339.22,48.98 339.81,45.88 340.42,43.58 341.00,42.12 341.61,41.53 342.22,41.87 342.81,43.12 343.42,45.24 344.00,48.19 344.62,51.91 
      345.23,56.30 345.81,61.26 346.42,66.65 347.01,72.37 347.62,78.25 348.23,84.16 348.81,89.94 349.42,95.46 350.01,100.56 350.62,105.15 
      351.23,109.09 351.82,112.23 352.43,114.58 353.01,116.02 353.62,116.51 354.23,116.07 354.82,114.68 355.43,112.36 356.02,109.21 356.63,105.25 
      357.24,100.64 357.82,95.44 358.43,89.80 359.02,83.84 359.63,77.74 360.24,71.63 360.83,65.70 361.44,60.04 362.02,54.81 362.63,50.17 
      363.24,46.22 363.83,43.04 364.44,40.72 365.03,39.36 365.64,38.94 366.25,39.48 366.83,41.02 367.44,43.46 368.03,46.75 368.64,50.83 
      369.25,55.59 369.84,60.94 370.45,66.70 371.03,72.73 371.64,78.91 372.25,85.06 372.84,91.07 373.45,96.73 374.03,101.93 374.65,106.55 
      375.26,110.45 375.84,113.55 376.45,115.78 377.04,117.07 377.65,117.39 378.26,116.73 378.84,115.12 379.45,112.60 380.04,109.23 380.65,105.08 
      381.26,100.30 381.85,94.95 382.46,89.21 383.04,83.21 383.65,77.10 384.26,71.02 384.85,65.14 385.46,59.60 386.05,54.52 386.66,50.05 
      387.27,46.27 387.85,43.31 388.46,41.24 389.05,40.06 389.66,39.84 390.27,40.58 390.86,42.24 391.47,44.78 392.05,48.12 392.66,52.22 
      393.25,56.94 393.86,62.16 394.47,67.75 395.06,73.59 395.67,79.52 396.25,85.35 396.86,91.02 397.47,96.32 398.06,101.15 398.67,105.37 
      399.26,108.91 399.87,111.67 400.48,113.58 401.06,114.60 401.67,114.73 402.26,113.94 402.87,112.26 403.48,109.77 404.07,106.50 404.68,102.54 
      405.26,98.00 405.87,93.02 406.48,87.70 407.07,82.18 407.68,76.59 408.26,71.10 408.87,65.80 409.49,60.87 410.07,56.37 410.68,52.49 
      411.27,49.24 411.88,46.75 412.49,45.05 413.07,44.19 413.68,44.17 414.27,45.00 414.88,46.63 415.49,49.05 416.08,52.15 416.69,55.86 
      417.27,60.08 417.88,64.72 418.49,69.66 419.08,74.76 419.69,79.86 420.28,84.89 420.89,89.70 421.50,94.17 422.08,98.20 422.69,101.69 
      423.28,104.57 423.89,106.74 424.50,108.18 425.09,108.89 425.70,108.79 426.28,107.96 "/>
    <polyline
      stroke-width="1"
      stroke="#0000FF"
      stroke-opacity="1.000000"
      fill="none"
      points="426.28,107.96 426.89,106.40 427.50,104.18 428.09,101.32 428.70,97.93 429.29,94.09 429.90,89.90 430.51,85.48 431.09,80.96 431.70,76.39 
      432.29,71.97 432.90,67.75 433.51,63.84 434.10,60.35 434.71,57.35 435.29,54.91 435.90,53.08 436.51,51.91 437.10,51.39 437.71,51.54 
      438.29,52.37 438.90,53.81 439.52,55.81 440.10,58.35 440.71,61.35 441.30,64.70 441.91,68.31 442.52,72.12 443.10,76.00 443.71,79.86 
      444.30,83.60 444.91,87.16 445.52,90.41 446.11,93.29 446.72,95.73 447.30,97.71 447.91,99.15 448.52,100.05 449.11,100.37 449.72,100.15 
      450.31,99.39 450.92,98.10 451.53,96.37 452.11,94.22 452.72,91.73 453.31,88.94 453.92,85.96 454.53,82.86 455.12,79.74 455.73,76.64 
      456.31,73.66 456.92,70.88 457.53,68.34 458.12,66.12 458.73,64.26 459.32,62.79 459.93,61.77 460.54,61.18 461.12,61.01 461.73,61.28 
      462.32,61.96 462.93,63.04 463.54,64.46 464.13,66.16 464.74,68.12 465.32,70.24 465.93,72.49 466.54,74.81 467.13,77.13 467.74,79.40 
      468.32,81.52 468.94,83.50 469.55,85.26 470.13,86.77 470.74,88.02 471.33,88.94 471.94,89.55 472.55,89.85 473.13,89.85 473.74,89.55 
      474.33,88.97 474.94,88.14 475.55,87.11 476.14,85.89 476.75,84.55 477.33,83.13 477.94,81.64 478.55,80.15 479.14,78.71 479.75,77.35 
      480.34,76.10 480.95,74.98 481.56,74.03 482.14,73.24 482.75,72.66 483.34,72.27 483.95,72.05 484.56,72.05 485.15,72.19 485.76,72.51 
      486.34,72.95 486.95,73.49 487.56,74.12 488.15,74.81 488.76,75.49 489.35,76.20 489.96,76.86 490.57,77.47 491.15,78.01 491.76,78.44 
      492.35,78.79 492.96,79.03 493.57,79.18 494.16,79.20 494.77,79.15 495.35,79.01 495.96,78.81 496.57,78.54 497.16,78.25 497.77,77.96 
      498.36,77.69 498.97,77.44 499.58,77.25 500.16,77.15 500.77,77.10 501.36,77.18 501.97,77.37 502.58,77.64 503.16,78.03 503.78,78.52 
      504.36,79.08 504.97,79.71 505.58,80.37 506.17,81.08 506.78,81.77 507.36,82.42 507.97,83.03 508.58,83.55 509.17,83.94 509.78,84.21 
      510.37,84.30 510.98,84.21 511.59,83.94 512.17,83.47 512.78,82.82 513.37,81.98 513.98,80.96 514.59,79.79 515.18,78.49 515.79,77.08 
      516.37,75.64 516.98,74.15 517.59,72.68 518.18,71.27 518.79,69.97 519.38,68.80 519.99,67.85 520.60,67.12 521.18,66.63 521.79,66.43 
      522.38,66.53 522.99,66.95 523.60,67.68 524.19,68.73 524.80,70.07 525.38,71.68 525.99,73.51 526.58,75.56 527.19,77.74 527.80,80.03 
      528.39,82.35 529.00,84.65 529.58,86.87 530.19,88.94 530.80,90.82 531.39,92.41 532.00,93.70 532.58,94.66 533.19,95.19 533.81,95.29 
      534.39,94.97 535.00,94.22 535.59,93.04 536.20,91.43 536.81,89.43 537.39,87.09 538.00,84.45 538.59,81.59 539.20,78.57 539.81,75.44 
      540.40,72.32 541.01,69.26 541.59,66.34 542.20,63.65 542.81,61.28 543.40,59.28 544.01,57.69 544.60,56.59 545.21,56.03 545.82,56.01 
      546.40,56.54 547.01,57.64 547.60,59.28 548.21,61.43 548.82,64.04 549.41,67.07 550.02,70.44 550.60,74.05 551.21,77.86 551.82,81.74 
      552.41,85.60 553.02,89.36 553.61,92.87 554.22,96.12 554.83,98.93 555.41,101.30 556.02,103.10 556.61,104.32 557.22,104.91 557.83,104.81 
      558.42,104.08 559.03,102.64 559.61,100.59 560.22,97.95 560.83,94.75 561.42,91.12 562.03,87.09 562.61,82.77 563.23,78.27 563.84,73.71 
      564.42,69.22 565.03,64.87 565.62,60.79 566.23,57.11 566.84,53.91 567.42,51.27 568.03,49.27 568.62,47.98 569.23,47.41 569.84,47.61 
      570.43,48.56 571.04,50.29 571.62,52.74 572.23,55.84 572.84,59.52 573.43,63.72 574.04,68.34 574.63,73.22 575.24,78.30 575.85,83.43 
      576.43,88.48 577.04,93.31 577.63,97.81 578.24,101.88 578.85,105.37 579.44,108.23 "/>
    <polyline
      stroke-width="1"
      stroke="#0000FF"
      stroke-opacity="1.000000"
      fill="none"
      points="579.44,108.23 580.05,110.38 580.63,111.72 581.24,112.23 581.85,111.92 582.44,110.75 583.05,108.74 583.64,105.98 584.25,102.49 584.86,98.37 
      585.44,93.70 586.05,88.63 586.64,83.25 587.25,77.71 587.86,72.12 588.45,66.65 589.06,61.45 589.64,56.62 590.25,52.27 590.86,48.56 
      591.45,45.56 592.06,43.36 592.65,41.99 593.26,41.53 593.87,41.97 594.45,43.34 595.06,45.56 595.65,48.61 596.26,52.39 596.87,56.86 
      597.45,61.89 598.07,67.34 598.65,73.07 599.26,78.96 599.87,84.87 600.46,90.63 601.07,96.10 601.65,101.15 602.26,105.67 602.87,109.50 
      603.46,112.58 604.07,114.80 604.66,116.12 605.27,116.51 605.88,115.95 606.46,114.43 607.07,112.04 607.66,108.77 608.27,104.74 608.88,100.03 
      609.47,94.78 610.08,89.09 610.66,83.11 611.27,77.00 611.88,70.90 612.47,64.99 613.08,59.38 613.67,54.23 614.28,49.66 614.89,45.78 
      615.47,42.70 616.08,40.50 616.67,39.26 617.28,38.94 617.89,39.63 618.48,41.26 619.09,43.80 619.67,47.22 620.28,51.37 620.89,56.23 
      621.48,61.60 622.09,67.41 622.68,73.46 623.29,79.67 623.90,85.82 624.48,91.78 625.09,97.39 625.68,102.52 626.29,107.06 626.90,110.87 
      627.48,113.87 628.10,115.97 628.68,117.14 629.29,117.36 629.90,116.58 630.49,114.87 631.10,112.23 631.68,108.77 632.29,104.54 632.91,99.69 
      633.49,94.29 634.10,88.50 634.69,82.47 635.30,76.35 635.91,70.29 636.49,64.43 637.10,58.94 637.69,53.93 638.30,49.54 638.91,45.88 
      639.50,43.02 640.11,41.04 640.69,39.99 641.30,39.87 641.91,40.72 642.50,42.48 643.11,45.14 643.70,48.59 644.31,52.76 644.92,57.55 
      645.50,62.82 646.11,68.46 646.70,74.32 647.31,80.23 647.92,86.06 648.51,91.68 649.12,96.93 649.70,101.69 650.31,105.84 650.92,109.31 
      651.51,111.94 652.12,113.75 652.71,114.68 653.32,114.68 653.93,113.77 654.51,112.02 655.12,109.40 655.71,106.06 656.32,102.03 656.93,97.44 
      657.52,92.39 658.13,87.04 658.71,81.50 659.32,75.93 659.91,70.44 660.52,65.19 661.13,60.30 661.71,55.89 662.32,52.05 662.91,48.90 
      663.52,46.51 664.13,44.90 664.72,44.14 665.33,44.24 665.91,45.17 666.52,46.90 667.13,49.39 667.72,52.57 668.33,56.35 668.92,60.65 
      669.53,65.31 670.14,70.27 670.72,75.37 671.33,80.50 671.92,85.50 672.53,90.26 673.14,94.68 673.73,98.66 674.34,102.08 674.92,104.86 
      675.53,106.96 676.14,108.30 676.73,108.91 677.34,108.74 677.93,107.82 678.54,106.18 679.15,103.86 679.73,100.93 680.34,97.49 680.93,93.58 
      681.54,89.38 682.15,84.94 682.74,80.40 683.35,75.86 683.93,71.44 684.54,67.26 685.15,63.41 685.74,59.96 686.35,57.03 686.94,54.66 
      687.55,52.91 688.16,51.81 688.74,51.37 689.35,51.61 689.94,52.52 690.55,54.03 691.16,56.11 691.74,58.69 692.36,61.72 692.94,65.11 
      693.55,68.78 694.16,72.59 694.75,76.47 695.36,80.32 695.94,84.06 696.55,87.55 697.16,90.77 697.75,93.61 698.36,96.00 698.95,97.90 
      699.56,99.30 700.17,100.10 700.75,100.37 701.36,100.08 701.95,99.25 702.56,97.93 703.17,96.12 703.76,93.92 704.37,91.41 704.95,88.60 
      705.56,85.60 706.17,82.50 706.76,79.35 707.37,76.27 707.96,73.32 708.57,70.56 709.18,68.07 709.76,65.87 710.37,64.06 710.96,62.65 
      711.57,61.67 712.18,61.13 712.77,61.01 713.38,61.35 713.96,62.09 714.57,63.19 715.18,64.65 715.77,66.38 716.38,68.36 716.97,70.51 
      717.58,72.78 718.19,75.10 718.77,77.42 719.38,79.67 719.97,81.77 "/>
    <clipPath
      id="text-clipping25"
      >
      <polygon
        points="0.000000,0.000000 0.000000,349.986267 800.000000,349.986267 800.000000,0.000000"
        />
    </clipPath>
    <g
      clip-path="url(#text-clipping25)"
      >
      <g
        transform="matrix(0.000000 1.000000 1.000000 -0.000000 92.410047 78.151799)"
        >
        <g
          transform="matrix(1.0 0.0 0.0 1.0 0.0 3.759176)"
          >
          <text
            dominant-baseline="no-change"
            fill="#000000"
            fill-opacity="1.000000"
            xml:space="preserve"
            font-size="9"
            text-anchor="middle"
            x="0.000000"
            y="0"
><tspan font-family="sans-serif" font-style="normal" font-weight="normal">&#x41;&#x4d;</tspan></text>
        </g>
      </g>
    </g>
    <polyline
      stroke-width="1"
      stroke="#000000"
      stroke-opacity="1.000000"
      fill="none"
      points="120.00,128.32 719.99,128.32"
      />
    <polyline
      stroke-width="1"
      stroke="#000000"
      stroke-opacity="1.000000"
      fill="none"
      points="719.99,128.32 719.99,214.65"
      />
    <polyline
      stroke-width="1"
      stroke="#000000"
      stroke-opacity="1.000000"
      fill="none"
      points="714.82,132.26 719.99,132.26"
      />
    <polyline
      stroke-width="1"
      stroke="#000000"
      stroke-opacity="1.000000"
      fill="none"
      points="714.82,171.49 719.99,171.49"
      />
    <polyline
      stroke-width="1"
      stroke="#000000"
      stroke-opacity="1.000000"
      fill="none"
      points="714.82,210.72 719.99,210.72"
      />
    <polyline
      stroke-width="1"
      stroke="#000000"
      stroke-opacity="1.000000"
      fill="none"
      points="719.99,214.65 120.00,214.65"
      />
    <polyline
      stroke-width="1"
      stroke="#000000"
      stroke-opacity="1.000000"
      fill="none"
      points="120.00,214.65 120.00,128.32"
      />
    <polyline
      stroke-width="1"
      stroke="#000000"
      stroke-opacity="1.000000"
      fill="none"
      points="120.00,210.72 125.17,210.72"
      />
    <polyline
      stroke-width="1"
      stroke="#000000"
      stroke-opacity="1.000000"
      fill="none"
      points="120.00,171.49 125.17,171.49"
      />
    <polyline
      stroke-width="1"
      stroke="#000000"
      stroke-opacity="1.000000"
      fill="none"
      points="120.00,132.26 125.17,132.26"
      />
    <clipPath
      id="text-clipping26"
      >
      <polygon
        points="0.000000,0.000000 0.000000,349.986267 800.000000,349.986267 800.000000,0.000000"
        />
    </clipPath>
    <g
      clip-path="url(#text-clipping26)"
      >
      <g
        transform="matrix(0.000000 1.000000 1.000000 -0.000000 113.089389 132.255013)"
        >
        <g
          transform="matrix(1.0 0.0 0.0 1.0 0.0 2.672784)"
          >
          <text
            dominant-baseline="no-change"
            fill="#000000"
            fill-opacity="1.000000"
            xml:space="preserve"
            font-size="6"
            text-anchor="middle"
            x="0.000000"
            y="0"
><tspan font-family="sans-serif" font-style="normal" font-weight="normal">&#x2d;&#x31;&#x2e;&#x30;</tspan></text>
        </g>
      </g>
    </g>
    <clipPath
      id="text-clipping27"
      >
      <polygon
        points="0.000000,0.000000 0.000000,349.986267 800.000000,349.986267 800.000000,0.000000"
        />
    </clipPath>
    <g
      clip-path="url(#text-clipping27)"
      >
      <g
        transform="matrix(0.000000 1.000000 1.000000 -0.000000 113.089389 171.489608)"
        >
        <g
          transform="matrix(1.0 0.0 0.0 1.0 0.0 2.672784)"
          >
          <text
            dominant-baseline="no-change"
            fill="#000000"
            fill-opacity="1.000000"
            xml:space="preserve"
            font-size="6"
            text-anchor="middle"
            x="0.000000"
            y="0"
><tspan font-family="sans-serif" font-style="normal" font-weight="normal">&#x30;&#x2e;&#x30;</tspan></text>
        </g>
      </g>
    </g>
    <clipPath
      id="text-clipping28"
      >
      <polygon
        points="0.000000,0.000000 0.000000,349.986267 800.000000,349.986267 800.000000,0.000000"
        />
    </clipPath>
    <g
      clip-path="url(#text-clipping28)"
      >
      <g
        transform="matrix(0.000000 1.000000 1.000000 -0.000000 113.089389 210.724204)"
        >
        <g
          transform="matrix(1.0 0.0 0.0 1.0 0.0 2.672784)"
          >
          <text
            dominant-baseline="no-change"
            fill="#000000"
            fill-opacity="1.000000"
            xml:space="preserve"
            font-size="6"
            text-anchor="middle"
            x="0.000000"
            y="0"
><tspan font-family="sans-serif" font-style="normal" font-weight="normal">&#x31;&#x2e;&#x30;</tspan></text>
        </g>
      </g>
    </g>
    <polyline
      stroke-width="1"
      stroke="#F03232"
      stroke-opacity="1.000000"
      fill="none"
      points="120.00,171.49 120.61,177.94 121.20,184.21 121.81,190.12 122.39,195.54 123.00,200.30 123.59,204.30 124.20,207.38 124.81,209.50 125.39,210.58 
      126.00,210.60 126.59,209.55 127.20,207.48 127.81,204.43 128.40,200.49 129.01,195.76 129.59,190.36 130.20,184.45 130.81,178.18 131.40,171.73 
      132.01,165.29 132.60,159.01 133.21,153.08 133.82,147.64 134.40,142.83 135.01,138.82 135.60,135.70 136.21,133.55 136.82,132.40 137.41,132.35 
      138.02,133.35 138.60,135.38 139.21,138.41 139.82,142.31 140.41,147.03 141.02,152.40 141.61,158.28 142.22,164.53 142.83,170.98 143.41,177.42 
      144.02,183.72 144.61,189.68 145.22,195.12 145.83,199.96 146.42,204.01 147.03,207.16 147.61,209.36 148.22,210.53 148.83,210.65 149.42,209.67 
      150.03,207.70 150.61,204.72 151.23,200.84 151.84,196.15 152.42,190.80 153.03,184.94 153.62,178.69 154.23,172.27 154.84,165.80 155.42,159.50 
      156.04,153.52 156.62,148.05 157.23,143.19 157.84,139.12 158.43,135.92 159.04,133.67 159.62,132.47 160.23,132.30 160.84,133.23 161.43,135.18 
      162.04,138.11 162.63,141.97 163.24,146.61 163.85,151.93 164.43,157.79 165.04,164.02 165.63,170.44 166.24,176.91 166.85,183.21 167.44,189.21 
      168.05,194.71 168.63,199.59 169.24,203.72 169.85,206.96 170.44,209.23 171.05,210.48 171.64,210.68 172.25,209.80 172.86,207.89 173.44,204.99 
      174.05,201.18 174.64,196.56 175.25,191.27 175.86,185.43 176.45,179.20 177.06,172.78 177.64,166.31 178.25,159.99 178.86,153.98 179.45,148.47 
      180.06,143.56 180.65,139.41 181.26,136.14 181.87,133.82 182.45,132.52 183.06,132.28 183.65,133.11 184.26,134.99 184.87,137.85 185.45,141.63 
      186.07,146.22 186.65,151.49 187.26,157.30 187.87,163.51 188.46,169.93 189.07,176.40 189.65,182.72 190.26,188.75 190.87,194.29 191.46,199.22 
      192.07,203.42 192.66,206.72 193.27,209.09 193.88,210.41 194.46,210.70 195.07,209.92 195.66,208.09 196.27,205.26 196.88,201.52 197.47,196.95 
      198.08,191.71 198.66,185.89 199.27,179.72 199.88,173.30 200.47,166.83 201.08,160.50 201.67,154.45 202.28,148.88 202.89,143.93 203.47,139.70 
      204.08,136.36 204.67,133.96 205.28,132.60 205.89,132.26 206.48,133.01 207.09,134.79 207.67,137.60 208.28,141.29 208.89,145.83 209.48,151.05 
      210.09,156.84 210.68,163.02 211.29,169.41 211.90,175.88 212.48,182.23 213.09,188.29 213.68,193.88 214.29,198.86 214.90,203.11 215.49,206.50 
      216.10,208.94 216.68,210.36 217.29,210.72 217.90,210.02 218.49,208.26 219.10,205.50 219.68,201.84 220.29,197.34 220.91,192.14 221.49,186.38 
      222.10,180.21 222.69,173.81 223.30,167.34 223.91,160.99 224.49,154.94 225.10,149.30 225.69,144.29 226.30,140.02 226.91,136.60 227.50,134.11 
      228.11,132.67 228.69,132.26 229.30,132.91 229.91,134.62 230.50,137.33 231.11,140.97 231.70,145.44 232.31,150.61 232.92,156.35 233.50,162.50 
      234.11,168.90 234.70,175.37 235.31,181.72 235.92,187.82 236.51,193.44 237.12,198.49 237.70,202.81 238.31,206.26 238.92,208.77 239.51,210.28 
      240.12,210.72 240.71,210.11 241.32,208.43 241.93,205.77 242.51,202.15 243.12,197.74 243.71,192.58 244.32,186.85 244.93,180.72 245.52,174.32 
      246.13,167.85 246.71,161.50 247.32,155.40 247.93,149.74 248.52,144.66 249.13,140.34 249.71,136.82 250.33,134.28 250.94,132.74 251.52,132.26 
      252.13,132.82 252.72,134.45 253.33,137.09 253.94,140.65 254.52,145.05 255.13,150.18 255.72,155.89 256.33,161.99 256.92,168.39 257.53,174.86 
      258.14,181.23 258.72,187.33 259.33,193.02 259.92,198.13 260.53,202.50 261.14,206.01 261.73,208.60 262.34,210.19 262.92,210.72 263.53,210.19 
      264.14,208.60 264.73,206.01 265.34,202.47 265.93,198.10 266.54,193.02 267.15,187.33 267.73,181.23 268.34,174.83 268.93,168.39 269.54,161.99 
      270.15,155.86 270.74,150.18 271.35,145.05 271.93,140.65 272.54,137.09 273.15,134.45 "/>
    <polyline
      stroke-width="1"
      stroke="#F03232"
      stroke-opacity="1.000000"
      fill="none"
      points="273.15,134.45 273.74,132.82 274.35,132.26 274.94,132.74 275.55,134.28 276.16,136.84 276.74,140.34 277.35,144.68 277.94,149.74 278.55,155.40 
      279.16,161.50 279.74,167.88 280.36,174.35 280.94,180.72 281.55,186.87 282.16,192.58 282.75,197.74 283.36,202.18 283.94,205.77 284.55,208.43 
      285.16,210.11 285.75,210.72 286.36,210.28 286.95,208.77 287.56,206.26 288.17,202.79 288.75,198.49 289.36,193.44 289.95,187.80 290.56,181.72 
      291.17,175.37 291.76,168.90 292.37,162.50 292.95,156.35 293.56,150.61 294.17,145.44 294.76,140.97 295.37,137.33 295.96,134.62 296.57,132.91 
      297.18,132.26 297.76,132.67 298.37,134.11 298.96,136.60 299.57,140.02 300.18,144.29 300.77,149.32 301.38,154.94 301.96,160.99 302.57,167.36 
      303.18,173.81 303.77,180.23 304.38,186.38 304.97,192.14 305.58,197.34 306.19,201.84 306.77,205.52 307.38,208.26 307.97,210.02 308.58,210.72 
      309.19,210.36 309.78,208.94 310.39,206.50 310.97,203.11 311.58,198.86 312.19,193.88 312.78,188.26 313.39,182.23 313.97,175.88 314.58,169.41 
      315.20,162.99 315.78,156.82 316.39,151.05 316.98,145.83 317.59,141.29 318.20,137.58 318.78,134.79 319.39,133.01 319.98,132.26 320.59,132.60 
      321.20,133.96 321.79,136.36 322.40,139.70 322.98,143.93 323.59,148.88 324.20,154.47 324.79,160.50 325.40,166.85 325.99,173.30 326.60,179.72 
      327.21,185.92 327.79,191.71 328.40,196.95 328.99,201.52 329.60,205.26 330.21,208.09 330.80,209.92 331.41,210.70 331.99,210.41 332.60,209.09 
      333.21,206.72 333.80,203.40 334.41,199.22 335.00,194.29 335.61,188.75 336.22,182.72 336.80,176.40 337.41,169.93 338.00,163.51 338.61,157.30 
      339.22,151.49 339.81,146.22 340.42,141.63 341.00,137.85 341.61,134.99 342.22,133.11 342.81,132.28 343.42,132.52 344.00,133.82 344.62,136.14 
      345.23,139.41 345.81,143.56 346.42,148.47 347.01,154.01 347.62,160.01 348.23,166.34 348.81,172.78 349.42,179.20 350.01,185.43 350.62,191.27 
      351.23,196.56 351.82,201.18 352.43,204.99 353.01,207.89 353.62,209.80 354.23,210.68 354.82,210.48 355.43,209.23 356.02,206.94 356.63,203.72 
      357.24,199.59 357.82,194.71 358.43,189.21 359.02,183.21 359.63,176.91 360.24,170.44 360.83,164.02 361.44,157.79 362.02,151.93 362.63,146.61 
      363.24,141.97 363.83,138.11 364.44,135.18 365.03,133.23 365.64,132.30 366.25,132.47 366.83,133.67 367.44,135.92 368.03,139.12 368.64,143.19 
      369.25,148.05 369.84,153.54 370.45,159.50 371.03,165.83 371.64,172.27 372.25,178.69 372.84,184.94 373.45,190.80 374.03,196.15 374.65,200.84 
      375.26,204.72 375.84,207.70 376.45,209.67 377.04,210.65 377.65,210.53 378.26,209.36 378.84,207.16 379.45,204.01 380.04,199.96 380.65,195.12 
      381.26,189.65 381.85,183.70 382.46,177.42 383.04,170.95 383.65,164.53 384.26,158.28 384.85,152.40 385.46,147.03 386.05,142.31 386.66,138.38 
      387.27,135.38 387.85,133.35 388.46,132.35 389.05,132.43 389.66,133.55 390.27,135.70 390.86,138.82 391.47,142.85 392.05,147.64 392.66,153.08 
      393.25,159.01 393.86,165.31 394.47,171.76 395.06,178.20 395.67,184.45 396.25,190.36 396.86,195.76 397.47,200.49 398.06,204.43 398.67,207.50 
      399.26,209.55 399.87,210.60 400.48,210.58 401.06,209.50 401.67,207.38 402.26,204.28 402.87,200.30 403.48,195.54 404.07,190.12 404.68,184.19 
      405.26,177.94 405.87,171.49 406.48,165.04 407.07,158.77 407.68,152.84 408.26,147.42 408.87,142.66 409.49,138.68 410.07,135.58 410.68,133.48 
      411.27,132.40 411.88,132.38 412.49,133.40 413.07,135.48 413.68,138.55 414.27,142.48 414.88,147.22 415.49,152.62 416.08,158.53 416.69,164.80 
      417.27,171.25 417.88,177.69 418.49,183.97 419.08,189.90 419.69,195.34 420.28,200.13 420.89,204.16 421.50,207.28 422.08,209.43 422.69,210.55 
      423.28,210.63 423.89,209.63 424.50,207.57 425.09,204.57 425.70,200.67 426.28,195.95 "/>
    <polyline
      stroke-width="1"
      stroke="#F03232"
      stroke-opacity="1.000000"
      fill="none"
      points="426.28,195.95 426.89,190.58 427.50,184.67 428.09,178.42 428.70,172.00 429.29,165.56 429.90,159.26 430.51,153.30 431.09,147.83 431.70,143.02 
      432.29,138.97 432.90,135.80 433.51,133.60 434.10,132.43 434.71,132.33 435.29,133.28 435.90,135.28 436.51,138.26 437.10,142.14 437.71,146.83 
      438.29,152.18 438.90,158.04 439.52,164.29 440.10,170.71 440.71,177.18 441.30,183.48 441.91,189.43 442.52,194.93 443.10,199.79 443.71,203.86 
      444.30,207.06 444.91,209.31 445.52,210.50 446.11,210.65 446.72,209.75 447.30,207.79 447.91,204.84 448.52,201.01 449.11,196.34 449.72,191.02 
      450.31,185.16 450.92,178.94 451.53,172.52 452.11,166.05 452.72,159.75 453.31,153.76 453.92,148.25 454.53,143.36 455.12,139.26 455.73,136.01 
      456.31,133.74 456.92,132.50 457.53,132.30 458.12,133.18 458.73,135.09 459.32,137.99 459.93,141.80 460.54,146.42 461.12,151.71 461.73,157.55 
      462.32,163.77 462.93,170.20 463.54,176.67 464.13,182.99 464.74,189.00 465.32,194.51 465.93,199.42 466.54,203.57 467.13,206.84 467.74,209.16 
      468.32,210.46 468.94,210.68 469.55,209.85 470.13,207.99 470.74,205.11 471.33,201.32 471.94,196.76 472.55,191.46 473.13,185.65 473.74,179.45 
      474.33,173.03 474.94,166.56 475.55,160.23 476.14,154.23 476.75,148.66 477.33,143.73 477.94,139.56 478.55,136.23 479.14,133.89 479.75,132.55 
      480.34,132.28 480.95,133.06 481.56,134.89 482.14,137.72 482.75,141.46 483.34,146.02 483.95,151.27 484.56,157.08 485.15,163.26 485.76,169.68 
      486.34,176.15 486.95,182.48 487.56,188.53 488.15,194.10 488.76,199.05 489.35,203.28 489.96,206.62 490.57,209.02 491.15,210.38 491.76,210.70 
      492.35,209.97 492.96,208.16 493.57,205.38 494.16,201.67 494.77,197.15 495.35,191.92 495.96,186.14 496.57,179.96 497.16,173.54 497.77,167.09 
      498.36,160.75 498.97,154.69 499.58,149.08 500.16,144.10 500.77,139.85 501.36,136.48 501.97,134.04 502.58,132.62 503.16,132.26 503.78,132.96 
      504.36,134.72 504.97,137.46 505.58,141.14 506.17,145.63 506.78,150.83 507.36,156.60 507.97,162.77 508.58,169.17 509.17,175.64 509.78,181.99 
      510.37,188.04 510.98,193.68 511.59,198.69 512.17,202.96 512.78,206.38 513.37,208.87 513.98,210.31 514.59,210.72 515.18,210.07 515.79,208.36 
      516.37,205.65 516.98,202.01 517.59,197.54 518.18,192.36 518.79,186.60 519.38,180.45 519.99,174.05 520.60,167.61 521.18,161.24 521.79,155.16 
      522.38,149.52 522.99,144.46 523.60,140.17 524.19,136.70 524.80,134.18 525.38,132.69 525.99,132.26 526.58,132.87 527.19,134.53 527.80,137.21 
      528.39,140.82 529.00,145.24 529.58,150.40 530.19,156.13 530.80,162.26 531.39,168.66 532.00,175.13 532.58,181.48 533.19,187.58 533.81,193.24 
      534.39,198.32 535.00,202.64 535.59,206.13 536.20,208.70 536.81,210.24 537.39,210.72 538.00,210.14 538.59,208.53 539.20,205.89 539.81,202.33 
      540.40,197.91 541.01,192.78 541.59,187.09 542.20,180.96 542.81,174.59 543.40,168.12 544.01,161.75 544.60,155.62 545.21,149.96 545.82,144.85 
      546.40,140.48 547.01,136.94 547.60,134.35 548.21,132.77 548.82,132.26 549.41,132.79 550.02,134.35 550.60,136.97 551.21,140.48 551.82,144.88 
      552.41,149.96 553.02,155.64 553.61,161.75 554.22,168.14 554.83,174.59 555.41,180.99 556.02,187.12 556.61,192.80 557.22,197.93 557.83,202.33 
      558.42,205.89 559.03,208.53 559.61,210.16 560.22,210.72 560.83,210.24 561.42,208.70 562.03,206.13 562.61,202.64 563.23,198.30 563.84,193.22 
      564.42,187.55 565.03,181.48 565.62,175.10 566.23,168.63 566.84,162.24 567.42,156.11 568.03,150.37 568.62,145.24 569.23,140.80 569.84,137.21 
      570.43,134.53 571.04,132.87 571.62,132.26 572.23,132.69 572.84,134.21 573.43,136.72 574.04,140.19 574.63,144.49 575.24,149.54 575.85,155.18 
      576.43,161.26 577.04,167.61 577.63,174.08 578.24,180.47 578.85,186.63 579.44,192.36 "/>
    <polyline
      stroke-width="1"
      stroke="#F03232"
      stroke-opacity="1.000000"
      fill="none"
      points="579.44,192.36 580.05,197.54 580.63,202.01 581.24,205.65 581.85,208.36 582.44,210.07 583.05,210.72 583.64,210.31 584.25,208.84 584.86,206.38 
      585.44,202.96 586.05,198.66 586.64,193.66 587.25,188.04 587.86,181.96 588.45,175.62 589.06,169.15 589.64,162.75 590.25,156.57 590.86,150.81 
      591.45,145.61 592.06,141.12 592.65,137.46 593.26,134.70 593.87,132.96 594.45,132.26 595.06,132.62 595.65,134.04 596.26,136.48 596.87,139.87 
      597.45,144.12 598.07,149.10 598.65,154.72 599.26,160.75 599.87,167.09 600.46,173.56 601.07,179.99 601.65,186.16 602.26,191.92 602.87,197.15 
      603.46,201.69 604.07,205.38 604.66,208.19 605.27,209.97 605.88,210.70 606.46,210.38 607.07,209.02 607.66,206.60 608.27,203.25 608.88,199.03 
      609.47,194.07 610.08,188.51 610.66,182.45 611.27,176.13 611.88,169.66 612.47,163.24 613.08,157.06 613.67,151.25 614.28,146.00 614.89,141.46 
      615.47,137.72 616.08,134.89 616.67,133.06 617.28,132.28 617.89,132.55 618.48,133.89 619.09,136.26 619.67,139.56 620.28,143.75 620.89,148.69 
      621.48,154.23 622.09,160.26 622.68,166.58 623.29,173.05 623.90,179.47 624.48,185.67 625.09,191.49 625.68,196.76 626.29,201.35 626.90,205.13 
      627.48,207.99 628.10,209.85 628.68,210.68 629.29,210.46 629.90,209.16 630.49,206.84 631.10,203.55 631.68,199.40 632.29,194.49 632.91,188.97 
      633.49,182.96 634.10,176.64 634.69,170.17 635.30,163.75 635.91,157.55 636.49,151.71 637.10,146.42 637.69,141.80 638.30,137.99 638.91,135.09 
      639.50,133.16 640.11,132.30 640.69,132.50 641.30,133.74 641.91,136.01 642.50,139.26 643.11,143.39 643.70,148.27 644.31,153.76 644.92,159.77 
      645.50,166.07 646.11,172.54 646.70,178.96 647.31,185.19 647.92,191.05 648.51,196.37 649.12,201.01 649.70,204.86 650.31,207.79 650.92,209.75 
      651.51,210.65 652.12,210.50 652.71,209.28 653.32,207.06 653.93,203.86 654.51,199.76 655.12,194.93 655.71,189.43 656.32,183.45 656.93,177.15 
      657.52,170.68 658.13,164.26 658.71,158.04 659.32,152.15 659.91,146.81 660.52,142.14 661.13,138.26 661.71,135.28 662.32,133.28 662.91,132.33 
      663.52,132.45 664.13,133.60 664.72,135.80 665.33,138.97 665.91,143.02 666.52,147.86 667.13,153.32 667.72,159.28 668.33,165.56 668.92,172.03 
      669.53,178.45 670.14,184.70 670.72,190.58 671.33,195.95 671.92,200.67 672.53,204.57 673.14,207.60 673.73,209.63 674.34,210.63 674.92,210.55 
      675.53,209.43 676.14,207.28 676.73,204.13 677.34,200.13 677.93,195.32 678.54,189.87 679.15,183.94 679.73,177.67 680.34,171.22 680.93,164.78 
      681.54,158.50 682.15,152.62 682.74,147.22 683.35,142.48 683.93,138.53 684.54,135.48 685.15,133.40 685.74,132.38 686.35,132.40 686.94,133.48 
      687.55,135.60 688.16,138.68 688.74,142.68 689.35,147.44 689.94,152.86 690.55,158.79 691.16,165.04 691.74,171.49 692.36,177.94 692.94,184.21 
      693.55,190.14 694.16,195.56 694.75,200.32 695.36,204.30 695.94,207.38 696.55,209.50 697.16,210.58 697.75,210.60 698.36,209.55 698.95,207.48 
      699.56,204.43 700.17,200.47 700.75,195.73 701.36,190.34 701.95,184.43 702.56,178.18 703.17,171.73 703.76,165.29 704.37,159.01 704.95,153.06 
      705.56,147.61 706.17,142.83 706.76,138.82 707.37,135.70 707.96,133.52 708.57,132.40 709.18,132.35 709.76,133.35 710.37,135.38 710.96,138.41 
      711.57,142.31 712.18,147.03 712.77,152.40 713.38,158.31 713.96,164.56 714.57,170.98 715.18,177.45 715.77,183.72 716.38,189.68 716.97,195.15 
      717.58,199.96 718.19,204.01 718.77,207.18 719.38,209.38 719.97,210.53 "/>
    <clipPath
      id="text-clipping29"
      >
      <polygon
        points="0.000000,0.000000 0.000000,349.986267 800.000000,349.986267 800.000000,0.000000"
        />
    </clipPath>
    <g
      clip-path="url(#text-clipping29)"
      >
      <g
        transform="matrix(0.000000 1.000000 1.000000 -0.000000 92.410047 171.489608)"
        >
        <g
          transform="matrix(1.0 0.0 0.0 1.0 0.0 3.759176)"
          >
          <text
            dominant-baseline="no-change"
            fill="#000000"
            fill-opacity="1.000000"
            xml:space="preserve"
            font-size="9"
            text-anchor="middle"
            x="0.000000"
            y="0"
><tspan font-family="sans-serif" font-style="normal" font-weight="normal">&#x53;&#x69;&#x64;&#x65;&#x62;&#x61;&#x6e;&#x64;&#x20;&#x32;</tspan></text>
        </g>
      </g>
    </g>
    <polyline
      stroke-width="1"
      stroke="#000000"
      stroke-opacity="1.000000"
      fill="none"
      points="120.00,221.66 719.99,221.66"
      />
    <polyline
      stroke-width="1"
      stroke="#000000"
      stroke-opacity="1.000000"
      fill="none"
      points="719.99,221.66 719.99,307.99"
      />
    <polyline
      stroke-width="1"
      stroke="#000000"
      stroke-opacity="1.000000"
      fill="none"
      points="714.82,225.59 719.99,225.59"
      />
    <polyline
      stroke-width="1"
      stroke="#000000"
      stroke-opacity="1.000000"
      fill="none"
      points="714.82,264.83 719.99,264.83"
      />
    <polyline
      stroke-width="1"
      stroke="#000000"
      stroke-opacity="1.000000"
      fill="none"
      points="714.82,304.06 719.99,304.06"
      />
    <polyline
      stroke-width="1"
      stroke="#000000"
      stroke-opacity="1.000000"
      fill="none"
      points="719.99,307.99 120.00,307.99"
      />
    <polyline
      stroke-width="1"
      stroke="#000000"
      stroke-opacity="1.000000"
      fill="none"
      points="120.00,307.99 120.00,221.66"
      />
    <polyline
      stroke-width="1"
      stroke="#000000"
      stroke-opacity="1.000000"
      fill="none"
      points="120.00,304.06 125.17,304.06"
      />
    <polyline
      stroke-width="1"
      stroke="#000000"
      stroke-opacity="1.000000"
      fill="none"
      points="120.00,264.83 125.17,264.83"
      />
    <polyline
      stroke-width="1"
      stroke="#000000"
      stroke-opacity="1.000000"
      fill="none"
      points="120.00,225.59 125.17,225.59"
      />
    <clipPath
      id="text-clipping30"
      >
      <polygon
        points="0.000000,0.000000 0.000000,349.986267 800.000000,349.986267 800.000000,0.000000"
        />
    </clipPath>
    <g
      clip-path="url(#text-clipping30)"
      >
      <g
        transform="matrix(0.000000 1.000000 1.000000 -0.000000 113.089389 225.592822)"
        >
        <g
          transform="matrix(1.0 0.0 0.0 1.0 0.0 2.672784)"
          >
          <text
            dominant-baseline="no-change"
            fill="#000000"
            fill-opacity="1.000000"
            xml:space="preserve"
            font-size="6"
            text-anchor="middle"
            x="0.000000"
            y="0"
><tspan font-family="sans-serif" font-style="normal" font-weight="normal">&#x2d;&#x31;&#x2e;&#x30;</tspan></text>
        </g>
      </g>
    </g>
    <clipPath
      id="text-clipping31"
      >
      <polygon
        points="0.000000,0.000000 0.000000,349.986267 800.000000,349.986267 800.000000,0.000000"
        />
    </clipPath>
    <g
      clip-path="url(#text-clipping31)"
      >
      <g
        transform="matrix(0.000000 1.000000 1.000000 -0.000000 113.089389 264.827418)"
        >
        <g
          transform="matrix(1.0 0.0 0.0 1.0 0.0 2.672784)"
          >
          <text
            dominant-baseline="no-change"
            fill="#000000"
            fill-opacity="1.000000"
            xml:space="preserve"
            font-size="6"
            text-anchor="middle"
            x="0.000000"
            y="0"
><tspan font-family="sans-serif" font-style="normal" font-weight="normal">&#x30;&#x2e;&#x30;</tspan></text>
        </g>
      </g>
    </g>
    <clipPath
      id="text-clipping32"
      >
      <polygon
        points="0.000000,0.000000 0.000000,349.986267 800.000000,349.986267 800.000000,0.000000"
        />
    </clipPath>
    <g
      clip-path="url(#text-clipping32)"
      >
      <g
        transform="matrix(0.000000 1.000000 1.000000 -0.000000 113.089389 304.062014)"
        >
        <g
          transform="matrix(1.0 0.0 0.0 1.0 0.0 2.672784)"
          >
          <text
            dominant-baseline="no-change"
            fill="#000000"
            fill-opacity="1.000000"
            xml:space="preserve"
            font-size="6"
            text-anchor="middle"
            x="0.000000"
            y="0"
><tspan font-family="sans-serif" font-style="normal" font-weight="normal">&#x31;&#x2e;&#x30;</tspan></text>
        </g>
      </g>
    </g>
    <polyline
      stroke-width="1"
      stroke="#000000"
      stroke-opacity="1.000000"
      fill="none"
      points="120.00,264.83 120.61,270.69 121.20,276.42 121.81,281.89 122.39,286.97 123.00,291.56 123.59,295.57 124.20,298.86 124.81,301.40 125.39,303.11 
      126.00,303.96 126.59,303.94 127.20,303.04 127.81,301.28 128.40,298.69 129.01,295.35 129.59,291.32 130.20,286.70 130.81,281.60 131.40,276.11 
      132.01,270.37 132.60,264.49 133.21,258.63 133.82,252.91 134.40,247.47 135.01,242.39 135.60,237.82 136.21,233.87 136.82,230.62 137.41,228.13 
      138.02,226.47 138.60,225.67 139.21,225.74 139.82,226.69 140.41,228.50 141.02,231.11 141.61,234.50 142.22,238.56 142.83,243.22 143.41,248.35 
      144.02,253.87 144.61,259.60 145.22,265.49 145.83,271.35 146.42,277.03 147.03,282.48 147.61,287.51 148.22,292.05 148.83,295.96 149.42,299.18 
      150.03,301.62 150.61,303.26 151.23,304.01 151.84,303.89 152.42,302.89 153.03,301.03 153.62,298.35 154.23,294.93 154.84,290.83 155.42,286.17 
      156.04,280.99 156.62,275.47 157.23,269.71 157.84,263.83 158.43,257.99 159.04,252.28 159.62,246.86 160.23,241.85 160.84,237.36 161.43,233.48 
      162.04,230.30 162.63,227.91 163.24,226.33 163.85,225.62 164.43,225.79 165.04,226.84 165.63,228.74 166.24,231.45 166.85,234.92 167.44,239.05 
      168.05,243.76 168.63,248.96 169.24,254.50 169.85,260.26 170.44,266.15 171.05,271.98 171.64,277.67 172.25,283.07 172.86,288.05 173.44,292.51 
      174.05,296.37 174.64,299.50 175.25,301.86 175.86,303.38 176.45,304.04 177.06,303.82 177.64,302.72 178.25,300.77 178.86,298.01 179.45,294.52 
      180.06,290.34 180.65,285.60 181.26,280.38 181.87,274.84 182.45,269.05 183.06,263.17 183.65,257.33 184.26,251.67 184.87,246.27 185.45,241.32 
      186.07,236.90 186.65,233.09 187.26,229.99 187.87,227.69 188.46,226.20 189.07,225.59 189.65,225.86 190.26,227.01 190.87,229.01 191.46,231.82 
      192.07,235.36 192.66,239.56 193.27,244.32 193.88,249.57 194.46,255.13 195.07,260.92 195.66,266.81 196.27,272.64 196.88,278.30 197.47,283.65 
      198.08,288.58 198.66,292.98 199.27,296.76 199.88,299.79 200.47,302.06 201.08,303.50 201.67,304.06 202.28,303.74 202.89,302.55 203.47,300.50 
      204.08,297.64 204.67,294.08 205.28,289.83 205.89,285.04 206.48,279.79 207.09,274.20 207.67,268.39 208.28,262.51 208.89,256.70 209.48,251.03 
      210.09,245.71 210.68,240.80 211.29,236.43 211.90,232.70 212.48,229.69 213.09,227.47 213.68,226.11 214.29,225.59 214.90,225.96 215.49,227.20 
      216.10,229.28 216.68,232.18 217.29,235.80 217.90,240.07 218.49,244.88 219.10,250.18 219.68,255.77 220.29,261.58 220.91,267.46 221.49,273.27 
      222.10,278.91 222.69,284.24 223.30,289.10 223.91,293.44 224.49,297.13 225.10,300.11 225.69,302.28 226.30,303.60 226.91,304.06 227.50,303.65 
      228.11,302.35 228.69,300.20 229.30,297.27 229.91,293.64 230.50,289.32 231.11,284.46 231.70,279.16 232.31,273.54 232.92,267.73 233.50,261.85 
      234.11,256.04 234.70,250.42 235.31,245.12 235.92,240.29 236.51,235.97 237.12,232.33 237.70,229.40 238.31,227.28 238.92,225.98 239.51,225.59 
      240.12,226.06 240.71,227.40 241.32,229.57 241.93,232.55 242.51,236.24 243.12,240.58 243.71,245.47 244.32,250.79 244.93,256.40 245.52,262.24 
      246.13,268.12 246.71,273.93 247.32,279.53 247.93,284.80 248.52,289.61 249.13,293.88 249.71,297.49 250.33,300.38 250.94,302.45 251.52,303.70 
      252.13,304.06 252.72,303.55 253.33,302.16 253.94,299.94 254.52,296.91 255.13,293.17 255.72,288.80 256.33,283.90 256.92,278.55 257.53,272.91 
      258.14,267.07 258.72,261.19 259.33,255.40 259.92,249.81 260.53,244.56 261.14,239.78 261.73,235.53 262.34,231.97 262.92,229.13 263.53,227.08 
      264.14,225.91 264.73,225.59 265.34,226.15 265.93,227.59 266.54,229.87 267.15,232.92 267.73,236.70 268.34,241.10 268.93,246.03 269.54,251.40 
      270.15,257.06 270.74,262.90 271.35,268.78 271.93,274.57 272.54,280.14 273.15,285.36 "/>
    <polyline
      stroke-width="1"
      stroke="#000000"
      stroke-opacity="1.000000"
      fill="none"
      points="273.15,285.36 273.74,290.12 274.35,294.32 274.94,297.86 275.55,300.64 276.16,302.65 276.74,303.77 277.35,304.04 277.94,303.43 278.55,301.94 
      279.16,299.62 279.74,296.52 280.36,292.71 280.94,288.29 281.55,283.31 282.16,277.94 282.75,272.25 283.36,266.41 283.94,260.53 284.55,254.77 
      285.16,249.20 285.75,244.00 286.36,239.27 286.95,235.09 287.56,231.60 288.17,228.86 288.75,226.91 289.36,225.84 289.95,225.62 290.56,226.28 
      291.17,227.81 291.76,230.18 292.37,233.31 292.95,237.17 293.56,241.63 294.17,246.61 294.76,252.01 295.37,257.70 295.96,263.56 296.57,269.44 
      297.18,275.20 297.76,280.75 298.37,285.92 298.96,290.63 299.57,294.76 300.18,298.20 300.77,300.91 301.38,302.82 301.96,303.84 302.57,304.01 
      303.18,303.31 303.77,301.72 304.38,299.33 304.97,296.13 305.58,292.25 306.19,287.75 306.77,282.72 307.38,277.30 307.97,271.61 308.58,265.76 
      309.19,259.90 309.78,254.13 310.39,248.59 310.97,243.44 311.58,238.78 312.19,234.68 312.78,231.26 313.39,228.60 313.97,226.74 314.58,225.76 
      315.20,225.64 315.78,226.40 316.39,228.03 316.98,230.48 317.59,233.70 318.20,237.63 318.78,242.17 319.39,247.20 319.98,252.64 320.59,258.36 
      321.20,264.22 321.79,270.08 322.40,275.84 322.98,281.33 323.59,286.48 324.20,291.12 324.79,295.18 325.40,298.54 325.99,301.18 326.60,302.96 
      327.21,303.92 327.79,303.99 328.40,303.16 328.99,301.50 329.60,299.01 330.21,295.74 330.80,291.78 331.41,287.22 331.99,282.14 332.60,276.69 
      333.21,270.96 333.80,265.10 334.41,259.24 335.00,253.50 335.61,248.01 336.22,242.90 336.80,238.29 337.41,234.26 338.00,230.92 338.61,228.35 
      339.22,226.59 339.81,225.69 340.42,225.69 341.00,226.54 341.61,228.28 342.22,230.82 342.81,234.11 343.42,238.12 344.00,242.71 344.62,247.81 
      345.23,253.28 345.81,259.02 346.42,264.88 347.01,270.74 347.62,276.47 348.23,281.94 348.81,287.02 349.42,291.61 350.01,295.59 350.62,298.89 
      351.23,301.43 351.82,303.11 352.43,303.96 353.01,303.94 353.62,303.04 354.23,301.25 354.82,298.67 355.43,295.32 356.02,291.29 356.63,286.65 
      357.24,281.55 357.82,276.06 358.43,270.30 359.02,264.44 359.63,258.58 360.24,252.86 360.83,247.42 361.44,242.34 362.02,237.80 362.63,233.85 
      363.24,230.60 363.83,228.11 364.44,226.45 365.03,225.67 365.64,225.74 366.25,226.69 366.83,228.52 367.44,231.13 368.03,234.53 368.64,238.61 
      369.25,243.24 369.84,248.40 370.45,253.91 371.03,259.65 371.64,265.54 372.25,271.40 372.84,277.11 373.45,282.53 374.03,287.56 374.65,292.07 
      375.26,296.01 375.84,299.20 376.45,301.64 377.04,303.26 377.65,304.01 378.26,303.87 378.84,302.87 379.45,301.01 380.04,298.32 380.65,294.91 
      381.26,290.80 381.85,286.12 382.46,280.94 383.04,275.42 383.65,269.66 384.26,263.78 384.85,257.92 385.46,252.23 386.05,246.81 386.66,241.80 
      387.27,237.31 387.85,233.45 388.46,230.28 389.05,227.89 389.66,226.33 390.27,225.62 390.86,225.81 391.47,226.86 392.05,228.77 392.66,231.48 
      393.25,234.94 393.86,239.09 394.47,243.81 395.06,249.01 395.67,254.55 396.25,260.31 396.86,266.19 397.47,272.03 398.06,277.72 398.67,283.11 
      399.26,288.09 399.87,292.56 400.48,296.40 401.06,299.52 401.67,301.86 402.26,303.38 402.87,304.04 403.48,303.82 404.07,302.69 404.68,300.74 
      405.26,297.98 405.87,294.47 406.48,290.29 407.07,285.56 407.68,280.33 408.26,274.79 408.87,269.00 409.49,263.12 410.07,257.28 410.68,251.62 
      411.27,246.25 411.88,241.29 412.49,236.85 413.07,233.06 413.68,229.96 414.27,227.67 414.88,226.20 415.49,225.59 416.08,225.89 416.69,227.03 
      417.27,229.04 417.88,231.84 418.49,235.38 419.08,239.61 419.69,244.37 420.28,249.62 420.89,255.18 421.50,260.97 422.08,266.85 422.69,272.69 
      423.28,278.35 423.89,283.70 424.50,288.63 425.09,293.03 425.70,296.79 426.28,299.81 "/>
    <polyline
      stroke-width="1"
      stroke="#000000"
      stroke-opacity="1.000000"
      fill="none"
      points="426.28,299.81 426.89,302.08 427.50,303.50 428.09,304.06 428.70,303.72 429.29,302.52 429.90,300.47 430.51,297.62 431.09,294.03 431.70,289.80 
      432.29,284.99 432.90,279.74 433.51,274.15 434.10,268.34 434.71,262.46 435.29,256.62 435.90,250.98 436.51,245.66 437.10,240.75 437.71,236.38 
      438.29,232.67 438.90,229.67 439.52,227.45 440.10,226.08 440.71,225.59 441.30,225.96 441.91,227.20 442.52,229.30 443.10,232.21 443.71,235.82 
      444.30,240.10 444.91,244.93 445.52,250.23 446.11,255.82 446.72,261.63 447.30,267.51 447.91,273.32 448.52,278.96 449.11,284.26 449.72,289.14 
      450.31,293.47 450.92,297.15 451.53,300.11 452.11,302.28 452.72,303.60 453.31,304.06 453.92,303.65 454.53,302.33 455.12,300.20 455.73,297.25 
      456.31,293.59 456.92,289.29 457.53,284.43 458.12,279.11 458.73,273.49 459.32,267.68 459.93,261.80 460.54,255.99 461.12,250.37 461.73,245.08 
      462.32,240.24 462.93,235.94 463.54,232.31 464.13,229.38 464.74,227.25 465.32,225.98 465.93,225.59 466.54,226.06 467.13,227.40 467.74,229.60 
      468.32,232.58 468.94,236.29 469.55,240.63 470.13,245.52 470.74,250.84 471.33,256.48 471.94,262.29 472.55,268.17 473.13,273.98 473.74,279.57 
      474.33,284.85 474.94,289.66 475.55,293.93 476.14,297.52 476.75,300.40 477.33,302.48 477.94,303.70 478.55,304.06 479.14,303.52 479.75,302.13 
      480.34,299.91 480.95,296.88 481.56,293.15 482.14,288.75 482.75,283.85 483.34,278.50 483.95,272.86 484.56,267.02 485.15,261.14 485.76,255.35 
      486.34,249.76 486.95,244.51 487.56,239.73 488.15,235.51 488.76,231.94 489.35,229.11 489.96,227.08 490.57,225.89 491.15,225.59 491.76,226.18 
      492.35,227.62 492.96,229.89 493.57,232.94 494.16,236.73 494.77,241.15 495.35,246.08 495.96,251.45 496.57,257.11 497.16,262.95 497.77,268.83 
      498.36,274.62 498.97,280.18 499.58,285.41 500.16,290.17 500.77,294.37 501.36,297.89 501.97,300.67 502.58,302.65 503.16,303.79 503.78,304.04 
      504.36,303.43 504.97,301.94 505.58,299.59 506.17,296.49 506.78,292.68 507.36,288.24 507.97,283.26 508.58,277.89 509.17,272.20 509.78,266.37 
      510.37,260.48 510.98,254.72 511.59,249.15 512.17,243.95 512.78,239.22 513.37,235.07 513.98,231.57 514.59,228.84 515.18,226.91 515.79,225.81 
      516.37,225.62 516.98,226.28 517.59,227.81 518.18,230.21 518.79,233.33 519.38,237.19 519.99,241.68 520.60,246.66 521.18,252.06 521.79,257.77 
      522.38,263.61 522.99,269.49 523.60,275.25 524.19,280.79 524.80,285.97 525.38,290.66 525.99,294.78 526.58,298.25 527.19,300.94 527.80,302.82 
      528.39,303.87 529.00,304.01 529.58,303.31 530.19,301.72 530.80,299.30 531.39,296.10 532.00,292.22 532.58,287.70 533.19,282.67 533.81,277.25 
      534.39,271.57 535.00,265.71 535.59,259.82 536.20,254.08 536.81,248.54 537.39,243.39 538.00,238.73 538.59,234.65 539.20,231.23 539.81,228.57 
      540.40,226.74 541.01,225.76 541.59,225.64 542.20,226.42 542.81,228.06 543.40,230.50 544.01,233.75 544.60,237.68 545.21,242.22 545.82,247.25 
      546.40,252.69 547.01,258.41 547.60,264.27 548.21,270.13 548.82,275.89 549.41,281.38 550.02,286.51 550.60,291.17 551.21,295.22 551.82,298.57 
      552.41,301.18 553.02,302.99 553.61,303.92 554.22,303.99 554.83,303.16 555.41,301.47 556.02,298.98 556.61,295.69 557.22,291.73 557.83,287.17 
      558.42,282.09 559.03,276.64 559.61,270.91 560.22,265.05 560.83,259.19 561.42,253.45 562.03,247.96 562.61,242.85 563.23,238.24 563.84,234.24 
      564.42,230.89 565.03,228.33 565.62,226.59 566.23,225.69 566.84,225.69 567.42,226.54 568.03,228.28 568.62,230.84 569.23,234.14 569.84,238.14 
      570.43,242.76 571.04,247.86 571.62,253.33 572.23,259.07 572.84,264.93 573.43,270.78 574.04,276.52 574.63,281.99 575.24,287.07 575.85,291.63 
      576.43,295.61 577.04,298.91 577.63,301.43 578.24,303.13 578.85,303.96 579.44,303.94 "/>
    <polyline
      stroke-width="1"
      stroke="#000000"
      stroke-opacity="1.000000"
      fill="none"
      points="579.44,303.94 580.05,303.01 580.63,301.23 581.24,298.64 581.85,295.30 582.44,291.24 583.05,286.63 583.64,281.50 584.25,276.01 584.86,270.25 
      585.44,264.39 586.05,258.53 586.64,252.82 587.25,247.37 587.86,242.32 588.45,237.75 589.06,233.82 589.64,230.57 590.25,228.08 590.86,226.45 
      591.45,225.64 592.06,225.74 592.65,226.72 593.26,228.52 593.87,231.16 594.45,234.55 595.06,238.63 595.65,243.29 596.26,248.45 596.87,253.96 
      597.45,259.72 598.07,265.58 598.65,271.44 599.26,277.16 599.87,282.58 600.46,287.61 601.07,292.12 601.65,296.03 602.26,299.23 602.87,301.67 
      603.46,303.28 604.07,304.01 604.66,303.87 605.27,302.87 605.88,300.99 606.46,298.30 607.07,294.86 607.66,290.76 608.27,286.07 608.88,280.89 
      609.47,275.37 610.08,269.61 610.66,263.73 611.27,257.87 611.88,252.18 612.47,246.78 613.08,241.78 613.67,237.29 614.28,233.41 614.89,230.26 
      615.47,227.86 616.08,226.30 616.67,225.62 617.28,225.81 617.89,226.86 618.48,228.79 619.09,231.53 619.67,234.99 620.28,239.14 620.89,243.86 
      621.48,249.06 622.09,254.60 622.68,260.36 623.29,266.24 623.90,272.08 624.48,277.77 625.09,283.16 625.68,288.14 626.29,292.59 626.90,296.42 
      627.48,299.55 628.10,301.89 628.68,303.40 629.29,304.04 629.90,303.79 630.49,302.69 631.10,300.72 631.68,297.96 632.29,294.44 632.91,290.27 
      633.49,285.51 634.10,280.31 634.69,274.74 635.30,268.95 635.91,263.07 636.49,257.23 637.10,251.57 637.69,246.20 638.30,241.24 638.91,236.82 
      639.50,233.01 640.11,229.94 640.69,227.64 641.30,226.18 641.91,225.59 642.50,225.89 643.11,227.03 643.70,229.06 644.31,231.87 644.92,235.43 
      645.50,239.63 646.11,244.42 646.70,249.64 647.31,255.23 647.92,261.02 648.51,266.90 649.12,272.74 649.70,278.40 650.31,283.75 650.92,288.66 
      651.51,293.05 652.12,296.81 652.71,299.84 653.32,302.11 653.93,303.50 654.51,304.06 655.12,303.72 655.71,302.50 656.32,300.45 656.93,297.59 
      657.52,294.00 658.13,289.75 658.71,284.95 659.32,279.70 659.91,274.08 660.52,268.29 661.13,262.41 661.71,256.58 662.32,250.94 662.91,245.61 
      663.52,240.71 664.13,236.36 664.72,232.65 665.33,229.65 665.91,227.45 666.52,226.08 667.13,225.59 667.72,225.96 668.33,227.23 668.92,229.33 
      669.53,232.23 670.14,235.87 670.72,240.14 671.33,244.98 671.92,250.25 672.53,255.87 673.14,261.68 673.73,267.56 674.34,273.37 674.92,279.01 
      675.53,284.31 676.14,289.19 676.73,293.51 677.34,297.20 677.93,300.13 678.54,302.30 679.15,303.62 679.73,304.06 680.34,303.62 680.93,302.33 
      681.54,300.18 682.15,297.23 682.74,293.56 683.35,289.24 683.93,284.38 684.54,279.06 685.15,273.45 685.74,267.64 686.35,261.75 686.94,255.94 
      687.55,250.33 688.16,245.05 688.74,240.19 689.35,235.92 689.94,232.26 690.55,229.35 691.16,227.25 691.74,225.98 692.36,225.59 692.94,226.06 
      693.55,227.42 694.16,229.62 694.75,232.60 695.36,236.31 695.94,240.66 696.55,245.56 697.16,250.89 697.75,256.53 698.36,262.34 698.95,268.22 
      699.56,274.03 700.17,279.62 700.75,284.90 701.36,289.71 701.95,293.95 702.56,297.57 703.17,300.42 703.76,302.50 704.37,303.72 704.95,304.06 
      705.56,303.52 706.17,302.11 706.76,299.89 707.37,296.86 707.96,293.10 708.57,288.73 709.18,283.80 709.76,278.45 710.37,272.81 710.96,266.98 
      711.57,261.09 712.18,255.31 712.77,249.71 713.38,244.47 713.96,239.68 714.57,235.46 715.18,231.92 715.77,229.08 716.38,227.06 716.97,225.89 
      717.58,225.59 718.19,226.18 718.77,227.62 719.38,229.91 719.97,232.99 "/>
    <clipPath
      id="text-clipping33"
      >
      <polygon
        points="0.000000,0.000000 0.000000,349.986267 800.000000,349.986267 800.000000,0.000000"
        />
    </clipPath>
    <g
      clip-path="url(#text-clipping33)"
      >
      <g
        transform="matrix(0.000000 1.000000 1.000000 -0.000000 92.410047 264.827418)"
        >
        <g
          transform="matrix(1.0 0.0 0.0 1.0 0.0 3.759176)"
          >
          <text
            dominant-baseline="no-change"
            fill="#000000"
            fill-opacity="1.000000"
            xml:space="preserve"
            font-size="9"
            text-anchor="middle"
            x="0.000000"
            y="0"
><tspan font-family="sans-serif" font-style="normal" font-weight="normal">&#x53;&#x69;&#x64;&#x65;&#x62;&#x61;&#x6e;&#x64;&#x20;&#x31;</tspan></text>
        </g>
      </g>
    </g>
  </g>
</svg>
