<?xml version="1.0" encoding="UTF-8"?>
<!DOCTYPE svg PUBLIC "-//W3C//DTD SVG 1.1//EN"
        "http://www.w3.org/Graphics/SVG/1.1/DTD/svg11.dtd">
<svg
  xmlns="http://www.w3.org/2000/svg"
  xmlns:xlink="http://www.w3.org/1999/xlink"
  version="1.1"
  width="800pt"
  height="350pt"
  viewBox="0 0 800 350"
  >
  <rect
    x="0"
    y="0"
    width="800"
    height="350"
    stroke="none"
    fill="#FFFFFF"
    fill-opacity="1.000000"
    />
  <g
    transform="matrix(1 0 0 -1 0 350)"
    >
    <polyline
      stroke-width="1"
      stroke="#000000"
      stroke-opacity="1.000000"
      fill="none"
      points="80.01,45.51 695.99,45.51"
      />
    <polyline
      stroke-width="1"
      stroke="#000000"
      stroke-opacity="1.000000"
      fill="none"
      points="80.01,45.51 80.01,54.13"
      />
    <polyline
      stroke-width="1"
      stroke="#000000"
      stroke-opacity="1.000000"
      fill="none"
      points="110.84,45.51 110.84,49.83"
      />
    <polyline
      stroke-width="1"
      stroke="#000000"
      stroke-opacity="1.000000"
      fill="none"
      points="141.65,45.51 141.65,49.83"
      />
    <polyline
      stroke-width="1"
      stroke="#000000"
      stroke-opacity="1.000000"
      fill="none"
      points="172.49,45.51 172.49,49.83"
      />
    <polyline
      stroke-width="1"
      stroke="#000000"
      stroke-opacity="1.000000"
      fill="none"
      points="203.33,45.51 203.33,54.13"
      />
    <polyline
      stroke-width="1"
      stroke="#000000"
      stroke-opacity="1.000000"
      fill="none"
      points="234.16,45.51 234.16,49.83"
      />
    <polyline
      stroke-width="1"
      stroke="#000000"
      stroke-opacity="1.000000"
      fill="none"
      points="264.97,45.51 264.97,49.83"
      />
    <polyline
      stroke-width="1"
      stroke="#000000"
      stroke-opacity="1.000000"
      fill="none"
      points="295.81,45.51 295.81,49.83"
      />
    <polyline
      stroke-width="1"
      stroke="#000000"
      stroke-opacity="1.000000"
      fill="none"
      points="326.65,45.51 326.65,54.13"
      />
    <polyline
      stroke-width="1"
      stroke="#000000"
      stroke-opacity="1.000000"
      fill="none"
      points="357.48,45.51 357.48,49.83"
      />
    <polyline
      stroke-width="1"
      stroke="#000000"
      stroke-opacity="1.000000"
      fill="none"
      points="388.29,45.51 388.29,49.83"
      />
    <polyline
      stroke-width="1"
      stroke="#000000"
      stroke-opacity="1.000000"
      fill="none"
      points="419.13,45.51 419.13,49.83"
      />
    <polyline
      stroke-width="1"
      stroke="#000000"
      stroke-opacity="1.000000"
      fill="none"
      points="449.96,45.51 449.96,54.13"
      />
    <polyline
      stroke-width="1"
      stroke="#000000"
      stroke-opacity="1.000000"
      fill="none"
      points="480.80,45.51 480.80,49.83"
      />
    <polyline
      stroke-width="1"
      stroke="#000000"
      stroke-opacity="1.000000"
      fill="none"
      points="511.61,45.51 511.61,49.83"
      />
    <polyline
      stroke-width="1"
      stroke="#000000"
      stroke-opacity="1.000000"
      fill="none"
      points="542.45,45.51 542.45,49.83"
      />
    <polyline
      stroke-width="1"
      stroke="#000000"
      stroke-opacity="1.000000"
      fill="none"
      points="573.28,45.51 573.28,54.13"
      />
    <polyline
      stroke-width="1"
      stroke="#000000"
      stroke-opacity="1.000000"
      fill="none"
      points="604.10,45.51 604.10,49.83"
      />
    <polyline
      stroke-width="1"
      stroke="#000000"
      stroke-opacity="1.000000"
      fill="none"
      points="634.93,45.51 634.93,49.83"
      />
    <polyline
      stroke-width="1"
      stroke="#000000"
      stroke-opacity="1.000000"
      fill="none"
      points="665.77,45.51 665.77,49.83"
      />
    <polyline
      stroke-width="1"
      stroke="#000000"
      stroke-opacity="1.000000"
      fill="none"
      points="695.99,45.51 695.99,287.00"
      />
    <polyline
      stroke-width="1"
      stroke="#000000"
      stroke-opacity="1.000000"
      fill="none"
      points="691.67,57.33 695.99,57.33"
      />
    <polyline
      stroke-width="1"
      stroke="#000000"
      stroke-opacity="1.000000"
      fill="none"
      points="691.67,69.41 695.99,69.41"
      />
    <polyline
      stroke-width="1"
      stroke="#000000"
      stroke-opacity="1.000000"
      fill="none"
      points="691.67,81.50 695.99,81.50"
      />
    <polyline
      stroke-width="1"
      stroke="#000000"
      stroke-opacity="1.000000"
      fill="none"
      points="691.67,93.61 695.99,93.61"
      />
    <polyline
      stroke-width="1"
      stroke="#000000"
      stroke-opacity="1.000000"
      fill="none"
      points="687.37,105.69 695.99,105.69"
      />
    <polyline
      stroke-width="1"
      stroke="#000000"
      stroke-opacity="1.000000"
      fill="none"
      points="691.67,117.78 695.99,117.78"
      />
    <polyline
      stroke-width="1"
      stroke="#000000"
      stroke-opacity="1.000000"
      fill="none"
      points="691.67,129.89 695.99,129.89"
      />
    <polyline
      stroke-width="1"
      stroke="#000000"
      stroke-opacity="1.000000"
      fill="none"
      points="691.67,141.97 695.99,141.97"
      />
    <polyline
      stroke-width="1"
      stroke="#000000"
      stroke-opacity="1.000000"
      fill="none"
      points="691.67,154.06 695.99,154.06"
      />
    <polyline
      stroke-width="1"
      stroke="#000000"
      stroke-opacity="1.000000"
      fill="none"
      points="687.37,166.14 695.99,166.14"
      />
    <polyline
      stroke-width="1"
      stroke="#000000"
      stroke-opacity="1.000000"
      fill="none"
      points="691.67,178.25 695.99,178.25"
      />
    <polyline
      stroke-width="1"
      stroke="#000000"
      stroke-opacity="1.000000"
      fill="none"
      points="691.67,190.34 695.99,190.34"
      />
    <polyline
      stroke-width="1"
      stroke="#000000"
      stroke-opacity="1.000000"
      fill="none"
      points="691.67,202.42 695.99,202.42"
      />
    <polyline
      stroke-width="1"
      stroke="#000000"
      stroke-opacity="1.000000"
      fill="none"
      points="691.67,214.53 695.99,214.53"
      />
    <polyline
      stroke-width="1"
      stroke="#000000"
      stroke-opacity="1.000000"
      fill="none"
      points="687.37,226.62 695.99,226.62"
      />
    <polyline
      stroke-width="1"
      stroke="#000000"
      stroke-opacity="1.000000"
      fill="none"
      points="691.67,238.70 695.99,238.70"
      />
    <polyline
      stroke-width="1"
      stroke="#000000"
      stroke-opacity="1.000000"
      fill="none"
      points="691.67,250.79 695.99,250.79"
      />
    <polyline
      stroke-width="1"
      stroke="#000000"
      stroke-opacity="1.000000"
      fill="none"
      points="691.67,262.90 695.99,262.90"
      />
    <polyline
      stroke-width="1"
      stroke="#000000"
      stroke-opacity="1.000000"
      fill="none"
      points="691.67,274.98 695.99,274.98"
      />
    <polyline
      stroke-width="1"
      stroke="#000000"
      stroke-opacity="1.000000"
      fill="none"
      points="695.99,287.00 80.01,287.00"
      />
    <polyline
      stroke-width="1"
      stroke="#000000"
      stroke-opacity="1.000000"
      fill="none"
      points="665.77,282.67 665.77,287.00"
      />
    <polyline
      stroke-width="1"
      stroke="#000000"
      stroke-opacity="1.000000"
      fill="none"
      points="634.93,282.67 634.93,287.00"
      />
    <polyline
      stroke-width="1"
      stroke="#000000"
      stroke-opacity="1.000000"
      fill="none"
      points="604.10,282.67 604.10,287.00"
      />
    <polyline
      stroke-width="1"
      stroke="#000000"
      stroke-opacity="1.000000"
      fill="none"
      points="573.28,278.38 573.28,287.00"
      />
    <polyline
      stroke-width="1"
      stroke="#000000"
      stroke-opacity="1.000000"
      fill="none"
      points="542.45,282.67 542.45,287.00"
      />
    <polyline
      stroke-width="1"
      stroke="#000000"
      stroke-opacity="1.000000"
      fill="none"
      points="511.61,282.67 511.61,287.00"
      />
    <polyline
      stroke-width="1"
      stroke="#000000"
      stroke-opacity="1.000000"
      fill="none"
      points="480.80,282.67 480.80,287.00"
      />
    <polyline
      stroke-width="1"
      stroke="#000000"
      stroke-opacity="1.000000"
      fill="none"
      points="449.96,278.38 449.96,287.00"
      />
    <polyline
      stroke-width="1"
      stroke="#000000"
      stroke-opacity="1.000000"
      fill="none"
      points="419.13,282.67 419.13,287.00"
      />
    <polyline
      stroke-width="1"
      stroke="#000000"
      stroke-opacity="1.000000"
      fill="none"
      points="388.29,282.67 388.29,287.00"
      />
    <polyline
      stroke-width="1"
      stroke="#000000"
      stroke-opacity="1.000000"
      fill="none"
      points="357.48,282.67 357.48,287.00"
      />
    <polyline
      stroke-width="1"
      stroke="#000000"
      stroke-opacity="1.000000"
      fill="none"
      points="326.65,278.38 326.65,287.00"
      />
    <polyline
      stroke-width="1"
      stroke="#000000"
      stroke-opacity="1.000000"
      fill="none"
      points="295.81,282.67 295.81,287.00"
      />
    <polyline
      stroke-width="1"
      stroke="#000000"
      stroke-opacity="1.000000"
      fill="none"
      points="264.97,282.67 264.97,287.00"
      />
    <polyline
      stroke-width="1"
      stroke="#000000"
      stroke-opacity="1.000000"
      fill="none"
      points="234.16,282.67 234.16,287.00"
      />
    <polyline
      stroke-width="1"
      stroke="#000000"
      stroke-opacity="1.000000"
      fill="none"
      points="203.33,278.38 203.33,287.00"
      />
    <polyline
      stroke-width="1"
      stroke="#000000"
      stroke-opacity="1.000000"
      fill="none"
      points="172.49,282.67 172.49,287.00"
      />
    <polyline
      stroke-width="1"
      stroke="#000000"
      stroke-opacity="1.000000"
      fill="none"
      points="141.65,282.67 141.65,287.00"
      />
    <polyline
      stroke-width="1"
      stroke="#000000"
      stroke-opacity="1.000000"
      fill="none"
      points="110.84,282.67 110.84,287.00"
      />
    <polyline
      stroke-width="1"
      stroke="#000000"
      stroke-opacity="1.000000"
      fill="none"
      points="80.01,278.38 80.01,287.00"
      />
    <polyline
      stroke-width="1"
      stroke="#000000"
      stroke-opacity="1.000000"
      fill="none"
      points="80.01,287.00 80.01,45.51"
      />
    <polyline
      stroke-width="1"
      stroke="#000000"
      stroke-opacity="1.000000"
      fill="none"
      points="80.01,274.98 84.33,274.98"
      />
    <polyline
      stroke-width="1"
      stroke="#000000"
      stroke-opacity="1.000000"
      fill="none"
      points="80.01,262.90 84.33,262.90"
      />
    <polyline
      stroke-width="1"
      stroke="#000000"
      stroke-opacity="1.000000"
      fill="none"
      points="80.01,250.79 84.33,250.79"
      />
    <polyline
      stroke-width="1"
      stroke="#000000"
      stroke-opacity="1.000000"
      fill="none"
      points="80.01,238.70 84.33,238.70"
      />
    <polyline
      stroke-width="1"
      stroke="#000000"
      stroke-opacity="1.000000"
      fill="none"
      points="80.01,226.62 88.63,226.62"
      />
    <polyline
      stroke-width="1"
      stroke="#000000"
      stroke-opacity="1.000000"
      fill="none"
      points="80.01,214.53 84.33,214.53"
      />
    <polyline
      stroke-width="1"
      stroke="#000000"
      stroke-opacity="1.000000"
      fill="none"
      points="80.01,202.42 84.33,202.42"
      />
    <polyline
      stroke-width="1"
      stroke="#000000"
      stroke-opacity="1.000000"
      fill="none"
      points="80.01,190.34 84.33,190.34"
      />
    <polyline
      stroke-width="1"
      stroke="#000000"
      stroke-opacity="1.000000"
      fill="none"
      points="80.01,178.25 84.33,178.25"
      />
    <polyline
      stroke-width="1"
      stroke="#000000"
      stroke-opacity="1.000000"
      fill="none"
      points="80.01,166.14 88.63,166.14"
      />
    <polyline
      stroke-width="1"
      stroke="#000000"
      stroke-opacity="1.000000"
      fill="none"
      points="80.01,154.06 84.33,154.06"
      />
    <polyline
      stroke-width="1"
      stroke="#000000"
      stroke-opacity="1.000000"
      fill="none"
      points="80.01,141.97 84.33,141.97"
      />
    <polyline
      stroke-width="1"
      stroke="#000000"
      stroke-opacity="1.000000"
      fill="none"
      points="80.01,129.89 84.33,129.89"
      />
    <polyline
      stroke-width="1"
      stroke="#000000"
      stroke-opacity="1.000000"
      fill="none"
      points="80.01,117.78 84.33,117.78"
      />
    <polyline
      stroke-width="1"
      stroke="#000000"
      stroke-opacity="1.000000"
      fill="none"
      points="80.01,105.69 88.63,105.69"
      />
    <polyline
      stroke-width="1"
      stroke="#000000"
      stroke-opacity="1.000000"
      fill="none"
      points="80.01,93.61 84.33,93.61"
      />
    <polyline
      stroke-width="1"
      stroke="#000000"
      stroke-opacity="1.000000"
      fill="none"
      points="80.01,81.50 84.33,81.50"
      />
    <polyline
      stroke-width="1"
      stroke="#000000"
      stroke-opacity="1.000000"
      fill="none"
      points="80.01,69.41 84.33,69.41"
      />
    <polyline
      stroke-width="1"
      stroke="#000000"
      stroke-opacity="1.000000"
      fill="none"
      points="80.01,57.33 84.33,57.33"
      />
    <clipPath
      id="text-clipping58"
      >
      <polygon
        points="0.000000,0.000000 0.000000,349.986267 800.000000,349.986267 800.000000,0.000000"
        />
    </clipPath>
    <g
      clip-path="url(#text-clipping58)"
      >
      <g
        transform="matrix(1.000000 0.000000 0.000000 -1.000000 80.007324 28.247932)"
        >
        <g
          transform="matrix(1.0 0.0 0.0 1.0 0.0 5.931960)"
          >
          <text
            dominant-baseline="no-change"
            fill="#000000"
            fill-opacity="1.000000"
            xml:space="preserve"
            font-size="15"
            text-anchor="middle"
            x="0.000000"
            y="0"
><tspan font-family="sans-serif" font-style="normal" font-weight="normal">&#x30;</tspan></text>
        </g>
      </g>
    </g>
    <clipPath
      id="text-clipping59"
      >
      <polygon
        points="0.000000,0.000000 0.000000,349.986267 800.000000,349.986267 800.000000,0.000000"
        />
    </clipPath>
    <g
      clip-path="url(#text-clipping59)"
      >
      <g
        transform="matrix(1.000000 0.000000 0.000000 -1.000000 203.326518 28.247932)"
        >
        <g
          transform="matrix(1.0 0.0 0.0 1.0 0.0 5.931960)"
          >
          <text
            dominant-baseline="no-change"
            fill="#000000"
            fill-opacity="1.000000"
            xml:space="preserve"
            font-size="15"
            text-anchor="middle"
            x="0.000000"
            y="0"
><tspan font-family="sans-serif" font-style="normal" font-weight="normal">&#x32;</tspan></text>
        </g>
      </g>
    </g>
    <clipPath
      id="text-clipping60"
      >
      <polygon
        points="0.000000,0.000000 0.000000,349.986267 800.000000,349.986267 800.000000,0.000000"
        />
    </clipPath>
    <g
      clip-path="url(#text-clipping60)"
      >
      <g
        transform="matrix(1.000000 0.000000 0.000000 -1.000000 326.645711 28.247932)"
        >
        <g
          transform="matrix(1.0 0.0 0.0 1.0 0.0 5.931960)"
          >
          <text
            dominant-baseline="no-change"
            fill="#000000"
            fill-opacity="1.000000"
            xml:space="preserve"
            font-size="15"
            text-anchor="middle"
            x="0.000000"
            y="0"
><tspan font-family="sans-serif" font-style="normal" font-weight="normal">&#x34;</tspan></text>
        </g>
      </g>
    </g>
    <clipPath
      id="text-clipping61"
      >
      <polygon
        points="0.000000,0.000000 0.000000,349.986267 800.000000,349.986267 800.000000,0.000000"
        />
    </clipPath>
    <g
      clip-path="url(#text-clipping61)"
      >
      <g
        transform="matrix(1.000000 0.000000 0.000000 -1.000000 449.964904 28.247932)"
        >
        <g
          transform="matrix(1.0 0.0 0.0 1.0 0.0 5.931960)"
          >
          <text
            dominant-baseline="no-change"
            fill="#000000"
            fill-opacity="1.000000"
            xml:space="preserve"
            font-size="15"
            text-anchor="middle"
            x="0.000000"
            y="0"
><tspan font-family="sans-serif" font-style="normal" font-weight="normal">&#x36;</tspan></text>
        </g>
      </g>
    </g>
    <clipPath
      id="text-clipping62"
      >
      <polygon
        points="0.000000,0.000000 0.000000,349.986267 800.000000,349.986267 800.000000,0.000000"
        />
    </clipPath>
    <g
      clip-path="url(#text-clipping62)"
      >
      <g
        transform="matrix(1.000000 0.000000 0.000000 -1.000000 573.284097 28.247932)"
        >
        <g
          transform="matrix(1.0 0.0 0.0 1.0 0.0 5.931960)"
          >
          <text
            dominant-baseline="no-change"
            fill="#000000"
            fill-opacity="1.000000"
            xml:space="preserve"
            font-size="15"
            text-anchor="middle"
            x="0.000000"
            y="0"
><tspan font-family="sans-serif" font-style="normal" font-weight="normal">&#x38;</tspan></text>
        </g>
      </g>
    </g>
    <clipPath
      id="text-clipping63"
      >
      <polygon
        points="0.000000,0.000000 0.000000,349.986267 800.000000,349.986267 800.000000,0.000000"
        />
    </clipPath>
    <g
      clip-path="url(#text-clipping63)"
      >
      <g
        transform="matrix(0.000000 1.000000 1.000000 -0.000000 62.746055 105.691702)"
        >
        <g
          transform="matrix(1.0 0.0 0.0 1.0 0.0 5.931960)"
          >
          <text
            dominant-baseline="no-change"
            fill="#000000"
            fill-opacity="1.000000"
            xml:space="preserve"
            font-size="15"
            text-anchor="middle"
            x="0.000000"
            y="0"
><tspan font-family="sans-serif" font-style="normal" font-weight="normal">&#x2d;&#x30;&#x2e;&#x35;</tspan></text>
        </g>
      </g>
    </g>
    <clipPath
      id="text-clipping64"
      >
      <polygon
        points="0.000000,0.000000 0.000000,349.986267 800.000000,349.986267 800.000000,0.000000"
        />
    </clipPath>
    <g
      clip-path="url(#text-clipping64)"
      >
      <g
        transform="matrix(0.000000 1.000000 1.000000 -0.000000 62.746055 166.142766)"
        >
        <g
          transform="matrix(1.0 0.0 0.0 1.0 0.0 5.931960)"
          >
          <text
            dominant-baseline="no-change"
            fill="#000000"
            fill-opacity="1.000000"
            xml:space="preserve"
            font-size="15"
            text-anchor="middle"
            x="0.000000"
            y="0"
><tspan font-family="sans-serif" font-style="normal" font-weight="normal">&#x30;&#x2e;&#x30;</tspan></text>
        </g>
      </g>
    </g>
    <clipPath
      id="text-clipping65"
      >
      <polygon
        points="0.000000,0.000000 0.000000,349.986267 800.000000,349.986267 800.000000,0.000000"
        />
    </clipPath>
    <g
      clip-path="url(#text-clipping65)"
      >
      <g
        transform="matrix(0.000000 1.000000 1.000000 -0.000000 62.746055 226.618244)"
        >
        <g
          transform="matrix(1.0 0.0 0.0 1.0 0.0 5.931960)"
          >
          <text
            dominant-baseline="no-change"
            fill="#000000"
            fill-opacity="1.000000"
            xml:space="preserve"
            font-size="15"
            text-anchor="middle"
            x="0.000000"
            y="0"
><tspan font-family="sans-serif" font-style="normal" font-weight="normal">&#x30;&#x2e;&#x35;</tspan></text>
        </g>
      </g>
    </g>
    <polyline
      stroke-width="1"
      stroke="#000000"
      stroke-opacity="1.000000"
      fill="none"
      points="80.01,166.14 80.62,195.44 81.23,218.05 81.86,228.28 82.47,223.32 83.08,204.16 83.69,175.20 84.33,143.46 84.94,116.75 85.55,101.74 
      86.16,102.40 86.79,118.80 87.41,147.25 88.02,180.84 88.65,211.41 89.26,231.33 89.87,235.51 90.48,222.59 91.12,195.54 91.73,160.75 
      92.34,126.74 92.95,101.88 93.58,92.51 94.19,101.15 94.80,126.00 95.41,161.16 96.05,198.08 96.66,227.72 97.27,242.61 97.88,238.85 
      98.51,217.10 99.12,182.45 99.73,143.27 100.34,109.18 100.98,88.65 101.59,86.94 102.20,104.76 102.81,137.97 103.45,178.57 104.06,216.68 
      104.67,242.85 105.28,250.45 105.91,237.36 106.52,206.55 107.13,165.39 107.74,123.88 108.38,92.29 108.99,78.47 109.60,86.11 110.21,113.58 
      110.84,154.33 111.45,198.47 112.06,235.16 112.67,255.31 113.31,253.72 113.92,230.52 114.53,191.24 115.14,145.32 115.78,104.03 116.39,77.61 
      117.00,72.68 117.61,90.73 118.24,127.54 118.85,174.22 119.46,219.42 120.07,251.94 120.71,263.68 121.32,251.52 121.93,218.27 122.56,171.83 
      123.17,123.59 123.78,85.35 124.39,66.65 125.03,72.24 125.64,101.00 126.25,146.05 126.86,196.42 127.49,239.78 128.10,265.41 128.71,266.83 
      129.33,243.51 129.96,200.98 130.57,149.54 131.18,101.79 131.79,69.48 132.43,60.70 133.04,77.76 133.65,116.68 134.26,168.05 134.89,219.32 
      135.50,257.89 136.11,274.20 136.72,264.05 137.36,229.79 137.97,179.67 138.58,125.88 139.19,81.64 139.82,57.91 140.43,60.60 141.04,89.24 
      141.65,136.94 142.29,192.10 142.90,241.22 143.51,272.15 144.12,277.25 144.76,255.09 145.37,210.97 145.98,155.62 146.59,102.57 147.22,64.87 
      147.83,51.83 148.44,66.80 149.05,106.23 149.69,160.55 150.30,216.49 150.91,260.31 151.52,281.21 152.15,273.98 152.76,240.24 153.37,188.21 
      154.01,130.55 154.62,81.42 155.23,52.88 155.84,52.05 156.47,79.20 157.08,127.76 157.70,185.89 158.31,239.39 158.94,275.08 159.55,284.14 
      160.16,264.31 160.77,220.37 161.41,162.99 162.02,106.25 162.63,64.06 163.24,46.83 163.87,58.77 164.48,97.07 165.09,152.40 165.70,211.19 
      166.34,259.07 166.95,284.24 167.56,280.50 168.17,248.76 168.80,196.71 169.41,137.11 170.02,84.57 170.64,51.95 171.27,47.27 171.88,71.73 
      172.49,119.32 173.10,178.42 173.74,234.55 174.35,273.98 174.96,287.00 175.57,270.42 176.20,228.30 176.81,170.98 177.42,112.45 178.03,67.09 
      178.67,46.00 179.28,54.32 179.89,90.04 180.50,144.36 181.13,203.99 181.74,254.30 182.35,283.02 182.96,283.09 183.60,254.55 184.21,204.40 
      184.82,144.95 185.43,90.77 186.07,55.10 186.68,46.68 187.29,67.48 187.92,112.41 188.53,170.39 189.14,227.23 189.75,269.03 190.39,285.56 
      191.00,272.84 191.61,234.06 192.22,178.77 192.85,120.54 193.46,73.59 194.07,49.42 194.68,53.86 195.32,85.74 195.93,137.21 196.54,195.56 
      197.15,246.57 197.78,277.72 198.39,281.50 199.01,257.06 199.62,210.50 200.25,153.28 200.86,99.42 201.47,62.06 202.08,50.32 202.72,66.92 
      203.33,107.69 203.94,162.58 204.55,218.10 205.18,260.68 205.79,279.94 206.40,271.35 207.01,237.07 207.65,185.65 208.26,129.74 208.87,82.99 
      209.48,56.81 210.11,57.50 210.72,84.69 211.33,131.64 211.94,186.75 212.58,236.48 213.19,268.78 213.80,275.81 214.41,256.04 215.05,214.44 
      215.66,161.31 216.27,109.72 216.88,72.24 217.51,57.94 218.12,70.14 218.73,105.69 219.37,155.74 219.98,207.99 220.59,249.64 221.20,270.61 
      221.83,265.95 222.44,236.97 223.05,190.95 223.66,139.24 224.30,94.49 224.91,67.60 225.52,64.97 226.13,87.04 226.76,128.20 227.38,178.28 
      227.99,224.98 228.60,256.92 229.23,266.44 229.84,251.42 230.45,215.78 231.06,168.34 231.70,120.83 232.31,84.82 232.92,68.97 233.53,76.96 
      234.16,106.62 234.77,150.49 235.38,197.74 235.99,236.80 236.63,258.24 237.24,257.04 "/>
    <polyline
      stroke-width="1"
      stroke="#000000"
      stroke-opacity="1.000000"
      fill="none"
      points="237.24,257.04 237.85,233.70 238.46,194.15 239.09,148.22 239.70,107.16 240.31,80.94 240.93,75.73 241.56,92.63 242.17,127.23 242.78,170.90 
      243.39,212.92 244.03,243.02 244.64,254.06 245.25,243.59 245.86,214.36 246.49,173.78 247.10,131.86 247.71,98.81 248.32,82.57 248.96,86.89 
      249.57,110.45 250.18,147.22 250.81,188.14 251.42,223.13 252.03,243.78 252.64,245.27 253.28,227.50 253.89,195.05 254.50,156.04 255.11,120.05 
      255.75,95.80 256.36,89.02 256.97,101.08 257.58,128.79 258.21,165.14 258.82,201.20 259.43,228.18 260.04,239.63 260.68,233.06 261.29,210.36 
      261.90,177.25 262.51,142.00 263.14,113.21 263.75,97.73 264.36,99.17 264.97,116.82 265.61,146.17 266.22,179.86 266.83,209.63 267.44,228.30 
      268.07,231.57 268.68,218.88 269.30,193.63 269.91,162.19 270.54,132.28 271.15,111.16 271.76,103.79 272.37,111.70 273.01,132.65 273.62,161.33 
      274.23,190.63 274.84,213.39 275.47,224.23 276.08,220.78 276.69,204.16 277.30,178.64 277.94,150.66 278.55,127.01 279.16,113.36 279.77,112.80 
      280.40,125.20 281.01,147.22 281.62,173.37 282.24,197.15 282.87,212.90 283.48,216.97 284.09,208.62 284.73,190.19 285.34,166.36 285.95,143.07 
      286.56,125.91 287.19,118.92 287.80,123.54 288.41,138.36 289.02,159.53 289.66,181.77 290.27,199.64 290.88,208.97 291.49,207.70 292.12,196.39 
      292.73,178.11 293.34,157.40 293.95,139.38 294.59,128.32 295.20,126.74 295.81,134.70 296.42,150.05 297.05,168.85 297.67,186.46 298.28,198.64 
      298.89,202.59 299.52,197.66 300.13,185.26 300.74,168.61 301.35,151.91 301.99,139.14 302.60,133.33 303.21,135.60 303.82,145.17 304.45,159.50 
      305.06,174.96 305.67,187.77 306.28,194.93 306.92,194.93 307.53,187.97 308.14,176.01 308.75,162.09 309.38,149.66 309.99,141.63 310.61,139.82 
      311.22,144.41 311.85,154.08 312.46,166.26 313.07,177.96 313.68,186.36 314.32,189.58 314.93,187.02 315.54,179.55 316.17,169.17 316.78,158.50 
      317.39,150.10 318.00,145.93 318.64,146.81 319.25,152.28 319.86,160.84 320.47,170.29 321.10,178.33 321.71,183.06 322.32,183.53 322.93,179.82 
      323.57,172.98 324.18,164.85 324.79,157.45 325.40,152.49 326.04,151.05 326.65,153.32 327.26,158.53 327.87,165.29 328.50,171.90 329.11,176.76 
      329.72,178.84 330.33,177.74 330.97,173.96 331.58,168.51 332.19,162.85 332.80,158.31 333.43,155.91 334.04,156.11 334.65,158.70 335.26,162.90 
      335.90,167.58 336.51,171.64 337.12,174.10 337.73,174.49 338.36,172.88 338.98,169.78 339.59,166.05 340.20,162.63 340.83,160.31 341.44,159.55 
      342.05,160.41 342.66,162.58 343.30,165.41 343.91,168.17 344.52,170.22 345.13,171.12 345.76,170.76 346.37,169.34 346.98,167.31 347.59,165.22 
      348.23,163.53 348.84,162.65 349.45,162.70 350.08,163.53 350.69,164.90 351.30,166.41 351.92,167.68 352.55,168.44 353.16,168.56 353.77,168.10 
      354.38,167.24 355.02,166.26 355.63,165.39 356.24,164.82 356.85,164.68 357.48,164.90 358.09,165.36 358.70,165.95 359.31,166.46 359.95,166.80 
      360.56,166.92 361.17,166.83 361.78,166.61 362.41,166.34 363.02,166.07 363.63,165.92 364.24,165.87 364.88,165.90 365.49,165.97 366.10,166.07 
      366.71,166.17 367.35,166.19 367.96,166.19 368.57,166.19 369.18,166.17 369.81,166.17 370.42,166.14 371.03,166.14 371.64,166.14 372.28,166.14 
      372.89,166.12 373.50,166.12 374.11,166.12 374.74,166.19 375.35,166.26 375.96,166.36 376.57,166.44 377.21,166.44 377.82,166.31 378.43,166.09 
      379.04,165.83 379.67,165.56 380.29,165.41 380.90,165.41 381.53,165.65 382.14,166.12 382.75,166.68 383.36,167.22 384.00,167.56 384.61,167.61 
      385.22,167.24 385.83,166.48 386.46,165.53 387.07,164.58 387.68,163.92 388.29,163.75 388.93,164.19 389.54,165.24 390.15,166.68 390.76,168.17 
      391.39,169.29 392.00,169.76 392.61,169.32 393.22,167.97 393.86,166.02 394.47,163.87 "/>
    <polyline
      stroke-width="1"
      stroke="#000000"
      stroke-opacity="1.000000"
      fill="none"
      points="394.47,163.87 395.08,162.11 395.69,161.21 396.33,161.50 396.94,163.04 397.55,165.53 398.16,168.41 398.79,170.98 399.40,172.54 400.01,172.59 
      400.62,170.98 401.26,167.97 401.87,164.29 402.48,160.77 403.09,158.35 403.72,157.77 404.33,159.26 404.94,162.65 405.55,167.17 406.19,171.73 
      406.80,175.23 407.41,176.62 408.02,175.47 408.66,171.86 409.27,166.56 409.88,160.82 410.49,156.08 411.12,153.62 411.73,154.16 412.34,157.79 
      412.95,163.73 413.59,170.64 414.20,176.79 414.81,180.62 415.44,180.99 416.05,177.62 416.66,171.20 417.27,163.16 417.91,155.47 418.52,150.08 
      419.13,148.47 419.74,151.23 420.37,157.87 420.98,166.92 421.59,176.20 422.21,183.40 422.84,186.60 423.45,184.80 424.06,178.25 424.67,168.36 
      425.31,157.50 425.92,148.34 426.53,143.27 427.14,143.71 427.77,149.78 428.38,160.21 428.99,172.54 429.60,183.77 430.24,191.05 430.85,192.36 
      431.46,187.19 432.07,176.54 432.70,162.92 433.31,149.59 433.92,139.92 434.53,136.45 435.17,140.26 435.78,150.69 436.39,165.31 437.00,180.67 
      437.64,192.93 438.25,198.91 438.86,196.93 439.47,187.21 440.10,171.93 440.71,154.72 441.32,139.82 441.93,130.99 442.57,130.67 443.18,139.14 
      443.79,154.62 444.40,173.42 445.03,190.97 445.64,202.86 446.25,205.99 446.89,199.27 447.50,184.16 448.11,164.12 448.72,144.02 449.35,128.89 
      449.96,122.59 450.58,126.96 451.19,141.17 451.82,161.94 452.43,184.33 453.04,202.76 453.65,212.60 454.29,211.16 454.90,198.49 455.51,177.50 
      456.12,153.18 456.75,131.47 457.36,117.85 457.97,115.90 458.58,126.32 459.22,146.90 459.83,172.71 460.44,197.49 461.05,215.07 461.68,220.91 
      462.29,213.34 462.90,193.88 463.52,167.14 464.15,139.60 464.76,118.05 465.37,107.94 465.98,112.02 466.62,129.62 467.23,156.60 467.84,186.50 
      468.45,211.97 469.08,226.59 469.69,226.57 470.30,211.60 470.91,185.09 471.55,153.40 472.16,124.25 472.77,104.93 473.38,100.39 474.01,112.02 
      474.62,137.26 475.23,170.07 475.84,202.50 476.48,226.52 477.09,236.04 477.70,228.47 478.33,205.35 478.95,172.17 479.56,136.94 480.17,108.35 
      480.80,93.56 481.41,96.46 482.02,116.63 482.63,149.32 483.27,186.70 483.88,219.59 484.49,239.78 485.10,242.12 485.73,225.74 486.34,194.42 
      486.95,155.64 487.56,118.92 488.20,93.31 488.81,85.31 489.42,97.12 490.03,126.13 490.66,165.43 491.27,205.43 491.89,236.29 492.50,250.28 
      493.13,243.71 493.74,217.93 494.35,179.06 494.96,136.50 495.60,100.71 496.21,80.62 496.82,81.35 497.43,102.98 498.06,140.46 498.67,184.70 
      499.28,224.91 499.89,251.11 500.53,256.67 501.14,240.02 501.75,204.99 502.36,159.99 502.99,116.02 503.60,83.91 504.21,71.71 504.82,82.64 
      505.46,114.24 506.07,158.94 506.68,205.89 507.29,243.54 507.93,262.51 508.54,257.94 509.15,230.74 509.76,187.41 510.39,138.41 511.00,95.78 
      511.61,70.09 512.25,67.78 512.86,89.65 513.47,130.55 514.08,180.55 514.71,227.45 515.32,259.68 515.93,269.17 516.54,253.40 517.18,216.07 
      517.79,166.14 518.40,115.85 519.01,77.49 519.64,60.67 520.26,69.63 520.87,102.40 521.48,151.05 522.11,203.81 522.72,247.66 523.33,271.81 
      523.94,270.15 524.58,242.93 525.19,196.66 525.80,142.58 526.41,93.97 527.04,62.77 527.65,56.76 528.26,77.59 528.87,120.32 529.51,174.54 
      530.12,227.03 530.73,264.85 531.34,278.67 531.97,264.93 532.58,226.84 533.19,173.66 533.81,118.39 534.44,74.54 535.05,52.98 535.66,59.08 
      536.27,91.51 536.91,142.41 537.52,199.35 538.13,248.42 538.74,277.50 539.37,279.38 539.98,253.47 540.59,206.06 541.20,148.66 541.84,95.32 
      542.45,59.18 543.06,49.15 543.69,67.78 544.30,110.60 544.91,167.19 545.52,223.71 546.16,266.29 546.77,284.43 547.38,273.62 547.99,236.43 
      548.63,181.89 549.24,123.37 549.85,75.20 550.46,49.20 551.09,51.83 551.70,82.47 "/>
    <polyline
      stroke-width="1"
      stroke="#000000"
      stroke-opacity="1.000000"
      fill="none"
      points="551.70,82.47 552.31,133.70 552.92,192.97 553.56,245.81 554.17,279.18 554.78,284.92 555.39,261.56 556.02,214.78 556.63,156.04 557.24,99.69 
      557.85,59.57 558.49,45.51 559.10,60.99 559.71,102.27 560.32,159.21 560.95,217.90 561.56,263.95 562.18,286.04 562.79,278.79 563.42,243.98 
      564.03,190.07 564.64,130.30 565.25,79.35 565.89,49.64 566.50,48.46 567.11,76.10 567.72,125.79 568.35,185.31 568.96,240.12 569.57,276.79 
      570.18,286.34 570.82,266.44 571.43,222.05 572.04,164.02 572.65,106.60 573.28,63.80 573.89,46.14 574.50,57.86 575.12,96.05 575.75,151.35 
      576.36,210.14 576.97,258.06 577.61,283.41 578.22,280.01 578.83,248.79 579.44,197.39 580.07,138.51 580.68,86.53 581.29,54.15 581.90,49.27 
      582.54,72.98 583.15,119.39 583.76,177.11 584.37,231.94 585.00,270.54 585.61,283.46 586.22,267.68 586.83,227.13 587.47,171.83 588.08,115.36 
      588.69,71.51 589.30,50.98 589.93,58.67 590.55,92.61 591.16,144.36 591.77,201.20 592.40,249.25 593.01,276.74 593.62,277.11 594.23,250.35 
      594.87,203.18 595.48,147.17 596.09,96.12 596.70,62.43 597.33,54.25 597.94,73.44 598.55,115.16 599.16,169.12 599.80,222.03 600.41,260.97 
      601.02,276.55 601.63,265.07 602.26,229.50 602.87,178.72 603.49,125.17 604.10,82.01 604.73,59.65 605.34,63.43 605.95,92.26 606.56,138.94 
      607.20,191.90 607.81,238.22 608.42,266.59 609.05,270.27 609.66,248.49 610.27,206.82 610.88,155.55 611.52,107.25 612.13,73.73 612.74,63.01 
      613.35,77.54 613.98,113.55 614.59,162.09 615.20,211.21 615.81,248.91 616.45,266.10 617.06,258.75 617.67,228.91 618.28,184.04 618.92,135.23 
      619.53,94.41 620.14,71.49 620.75,71.85 621.38,95.19 621.99,135.58 622.60,183.04 623.21,225.89 623.85,253.74 624.46,259.97 625.07,243.27 
      625.68,207.97 626.31,162.87 626.92,119.05 627.53,87.21 628.14,74.93 628.78,85.01 629.39,114.75 630.00,156.65 630.61,200.37 631.24,235.24 
      631.86,252.89 632.47,249.18 633.08,225.32 633.71,187.36 634.32,144.71 634.93,107.82 635.54,85.60 636.18,83.25 636.79,101.13 637.40,134.60 
      638.01,175.27 638.64,213.19 639.25,239.14 639.86,246.98 640.50,235.07 641.11,206.52 641.72,168.61 642.33,130.62 642.96,101.83 643.57,89.11 
      644.18,95.29 644.80,118.63 645.43,153.15 646.04,190.31 646.65,221.03 647.26,237.92 647.90,237.09 648.51,219.05 649.12,188.46 649.73,152.93 
      650.36,121.20 650.97,100.93 651.58,96.83 652.19,109.65 652.83,135.97 653.44,169.17 654.05,201.06 654.66,223.88 655.29,232.31 655.90,224.52 
      656.51,202.69 657.12,172.42 657.76,141.17 658.37,116.56 658.98,104.47 659.59,107.57 660.23,124.83 660.84,151.79 661.45,181.67 662.06,207.21 
      662.69,222.30 663.30,223.44 663.91,210.68 664.52,187.36 665.16,159.40 665.77,133.70 666.38,116.39 666.99,111.50 667.62,119.97 668.23,139.46 
      668.84,165.00 669.45,190.22 670.09,209.04 670.70,217.05 671.31,212.53 671.92,196.91 672.55,174.20 673.17,150.08 673.78,130.42 674.41,119.90 
      675.02,120.83 675.63,132.72 676.24,152.40 676.88,174.91 677.49,194.71 678.10,207.11 678.71,209.26 679.34,200.96 679.95,184.43 680.56,163.95 
      681.17,144.54 681.81,130.89 682.42,126.15 683.03,131.23 683.64,144.58 684.27,162.77 684.88,181.26 685.49,195.54 686.10,202.33 686.74,200.15 
      687.35,189.85 687.96,174.13 688.57,156.96 689.21,142.58 689.82,134.31 690.43,134.01 691.04,141.46 691.67,154.64 692.28,170.15 692.89,184.19 
      693.50,193.39 694.14,195.73 694.75,190.85 695.36,180.18 695.97,166.53 "/>
    <polyline
      stroke-width="1"
      stroke="#000000"
      stroke-opacity="1.000000"
      fill="none"
      points="80.01,45.51 695.99,45.51"
      />
    <polyline
      stroke-width="1"
      stroke="#000000"
      stroke-opacity="1.000000"
      fill="none"
      points="80.01,45.51 80.01,54.13"
      />
    <polyline
      stroke-width="1"
      stroke="#000000"
      stroke-opacity="1.000000"
      fill="none"
      points="110.84,45.51 110.84,49.83"
      />
    <polyline
      stroke-width="1"
      stroke="#000000"
      stroke-opacity="1.000000"
      fill="none"
      points="141.65,45.51 141.65,49.83"
      />
    <polyline
      stroke-width="1"
      stroke="#000000"
      stroke-opacity="1.000000"
      fill="none"
      points="172.49,45.51 172.49,49.83"
      />
    <polyline
      stroke-width="1"
      stroke="#000000"
      stroke-opacity="1.000000"
      fill="none"
      points="203.33,45.51 203.33,54.13"
      />
    <polyline
      stroke-width="1"
      stroke="#000000"
      stroke-opacity="1.000000"
      fill="none"
      points="234.16,45.51 234.16,49.83"
      />
    <polyline
      stroke-width="1"
      stroke="#000000"
      stroke-opacity="1.000000"
      fill="none"
      points="264.97,45.51 264.97,49.83"
      />
    <polyline
      stroke-width="1"
      stroke="#000000"
      stroke-opacity="1.000000"
      fill="none"
      points="295.81,45.51 295.81,49.83"
      />
    <polyline
      stroke-width="1"
      stroke="#000000"
      stroke-opacity="1.000000"
      fill="none"
      points="326.65,45.51 326.65,54.13"
      />
    <polyline
      stroke-width="1"
      stroke="#000000"
      stroke-opacity="1.000000"
      fill="none"
      points="357.48,45.51 357.48,49.83"
      />
    <polyline
      stroke-width="1"
      stroke="#000000"
      stroke-opacity="1.000000"
      fill="none"
      points="388.29,45.51 388.29,49.83"
      />
    <polyline
      stroke-width="1"
      stroke="#000000"
      stroke-opacity="1.000000"
      fill="none"
      points="419.13,45.51 419.13,49.83"
      />
    <polyline
      stroke-width="1"
      stroke="#000000"
      stroke-opacity="1.000000"
      fill="none"
      points="449.96,45.51 449.96,54.13"
      />
    <polyline
      stroke-width="1"
      stroke="#000000"
      stroke-opacity="1.000000"
      fill="none"
      points="480.80,45.51 480.80,49.83"
      />
    <polyline
      stroke-width="1"
      stroke="#000000"
      stroke-opacity="1.000000"
      fill="none"
      points="511.61,45.51 511.61,49.83"
      />
    <polyline
      stroke-width="1"
      stroke="#000000"
      stroke-opacity="1.000000"
      fill="none"
      points="542.45,45.51 542.45,49.83"
      />
    <polyline
      stroke-width="1"
      stroke="#000000"
      stroke-opacity="1.000000"
      fill="none"
      points="573.28,45.51 573.28,54.13"
      />
    <polyline
      stroke-width="1"
      stroke="#000000"
      stroke-opacity="1.000000"
      fill="none"
      points="604.10,45.51 604.10,49.83"
      />
    <polyline
      stroke-width="1"
      stroke="#000000"
      stroke-opacity="1.000000"
      fill="none"
      points="634.93,45.51 634.93,49.83"
      />
    <polyline
      stroke-width="1"
      stroke="#000000"
      stroke-opacity="1.000000"
      fill="none"
      points="665.77,45.51 665.77,49.83"
      />
    <polyline
      stroke-width="1"
      stroke="#000000"
      stroke-opacity="1.000000"
      fill="none"
      points="695.99,45.51 695.99,287.00"
      />
    <polyline
      stroke-width="1"
      stroke="#000000"
      stroke-opacity="1.000000"
      fill="none"
      points="691.67,57.33 695.99,57.33"
      />
    <polyline
      stroke-width="1"
      stroke="#000000"
      stroke-opacity="1.000000"
      fill="none"
      points="691.67,69.41 695.99,69.41"
      />
    <polyline
      stroke-width="1"
      stroke="#000000"
      stroke-opacity="1.000000"
      fill="none"
      points="691.67,81.50 695.99,81.50"
      />
    <polyline
      stroke-width="1"
      stroke="#000000"
      stroke-opacity="1.000000"
      fill="none"
      points="691.67,93.61 695.99,93.61"
      />
    <polyline
      stroke-width="1"
      stroke="#000000"
      stroke-opacity="1.000000"
      fill="none"
      points="687.37,105.69 695.99,105.69"
      />
    <polyline
      stroke-width="1"
      stroke="#000000"
      stroke-opacity="1.000000"
      fill="none"
      points="691.67,117.78 695.99,117.78"
      />
    <polyline
      stroke-width="1"
      stroke="#000000"
      stroke-opacity="1.000000"
      fill="none"
      points="691.67,129.89 695.99,129.89"
      />
    <polyline
      stroke-width="1"
      stroke="#000000"
      stroke-opacity="1.000000"
      fill="none"
      points="691.67,141.97 695.99,141.97"
      />
    <polyline
      stroke-width="1"
      stroke="#000000"
      stroke-opacity="1.000000"
      fill="none"
      points="691.67,154.06 695.99,154.06"
      />
    <polyline
      stroke-width="1"
      stroke="#000000"
      stroke-opacity="1.000000"
      fill="none"
      points="687.37,166.14 695.99,166.14"
      />
    <polyline
      stroke-width="1"
      stroke="#000000"
      stroke-opacity="1.000000"
      fill="none"
      points="691.67,178.25 695.99,178.25"
      />
    <polyline
      stroke-width="1"
      stroke="#000000"
      stroke-opacity="1.000000"
      fill="none"
      points="691.67,190.34 695.99,190.34"
      />
    <polyline
      stroke-width="1"
      stroke="#000000"
      stroke-opacity="1.000000"
      fill="none"
      points="691.67,202.42 695.99,202.42"
      />
    <polyline
      stroke-width="1"
      stroke="#000000"
      stroke-opacity="1.000000"
      fill="none"
      points="691.67,214.53 695.99,214.53"
      />
    <polyline
      stroke-width="1"
      stroke="#000000"
      stroke-opacity="1.000000"
      fill="none"
      points="687.37,226.62 695.99,226.62"
      />
    <polyline
      stroke-width="1"
      stroke="#000000"
      stroke-opacity="1.000000"
      fill="none"
      points="691.67,238.70 695.99,238.70"
      />
    <polyline
      stroke-width="1"
      stroke="#000000"
      stroke-opacity="1.000000"
      fill="none"
      points="691.67,250.79 695.99,250.79"
      />
    <polyline
      stroke-width="1"
      stroke="#000000"
      stroke-opacity="1.000000"
      fill="none"
      points="691.67,262.90 695.99,262.90"
      />
    <polyline
      stroke-width="1"
      stroke="#000000"
      stroke-opacity="1.000000"
      fill="none"
      points="691.67,274.98 695.99,274.98"
      />
    <polyline
      stroke-width="1"
      stroke="#000000"
      stroke-opacity="1.000000"
      fill="none"
      points="695.99,287.00 80.01,287.00"
      />
    <polyline
      stroke-width="1"
      stroke="#000000"
      stroke-opacity="1.000000"
      fill="none"
      points="665.77,282.67 665.77,287.00"
      />
    <polyline
      stroke-width="1"
      stroke="#000000"
      stroke-opacity="1.000000"
      fill="none"
      points="634.93,282.67 634.93,287.00"
      />
    <polyline
      stroke-width="1"
      stroke="#000000"
      stroke-opacity="1.000000"
      fill="none"
      points="604.10,282.67 604.10,287.00"
      />
    <polyline
      stroke-width="1"
      stroke="#000000"
      stroke-opacity="1.000000"
      fill="none"
      points="573.28,278.38 573.28,287.00"
      />
    <polyline
      stroke-width="1"
      stroke="#000000"
      stroke-opacity="1.000000"
      fill="none"
      points="542.45,282.67 542.45,287.00"
      />
    <polyline
      stroke-width="1"
      stroke="#000000"
      stroke-opacity="1.000000"
      fill="none"
      points="511.61,282.67 511.61,287.00"
      />
    <polyline
      stroke-width="1"
      stroke="#000000"
      stroke-opacity="1.000000"
      fill="none"
      points="480.80,282.67 480.80,287.00"
      />
    <polyline
      stroke-width="1"
      stroke="#000000"
      stroke-opacity="1.000000"
      fill="none"
      points="449.96,278.38 449.96,287.00"
      />
    <polyline
      stroke-width="1"
      stroke="#000000"
      stroke-opacity="1.000000"
      fill="none"
      points="419.13,282.67 419.13,287.00"
      />
    <polyline
      stroke-width="1"
      stroke="#000000"
      stroke-opacity="1.000000"
      fill="none"
      points="388.29,282.67 388.29,287.00"
      />
    <polyline
      stroke-width="1"
      stroke="#000000"
      stroke-opacity="1.000000"
      fill="none"
      points="357.48,282.67 357.48,287.00"
      />
    <polyline
      stroke-width="1"
      stroke="#000000"
      stroke-opacity="1.000000"
      fill="none"
      points="326.65,278.38 326.65,287.00"
      />
    <polyline
      stroke-width="1"
      stroke="#000000"
      stroke-opacity="1.000000"
      fill="none"
      points="295.81,282.67 295.81,287.00"
      />
    <polyline
      stroke-width="1"
      stroke="#000000"
      stroke-opacity="1.000000"
      fill="none"
      points="264.97,282.67 264.97,287.00"
      />
    <polyline
      stroke-width="1"
      stroke="#000000"
      stroke-opacity="1.000000"
      fill="none"
      points="234.16,282.67 234.16,287.00"
      />
    <polyline
      stroke-width="1"
      stroke="#000000"
      stroke-opacity="1.000000"
      fill="none"
      points="203.33,278.38 203.33,287.00"
      />
    <polyline
      stroke-width="1"
      stroke="#000000"
      stroke-opacity="1.000000"
      fill="none"
      points="172.49,282.67 172.49,287.00"
      />
    <polyline
      stroke-width="1"
      stroke="#000000"
      stroke-opacity="1.000000"
      fill="none"
      points="141.65,282.67 141.65,287.00"
      />
    <polyline
      stroke-width="1"
      stroke="#000000"
      stroke-opacity="1.000000"
      fill="none"
      points="110.84,282.67 110.84,287.00"
      />
    <polyline
      stroke-width="1"
      stroke="#000000"
      stroke-opacity="1.000000"
      fill="none"
      points="80.01,278.38 80.01,287.00"
      />
    <polyline
      stroke-width="1"
      stroke="#000000"
      stroke-opacity="1.000000"
      fill="none"
      points="80.01,287.00 80.01,45.51"
      />
    <polyline
      stroke-width="1"
      stroke="#000000"
      stroke-opacity="1.000000"
      fill="none"
      points="80.01,274.98 84.33,274.98"
      />
    <polyline
      stroke-width="1"
      stroke="#000000"
      stroke-opacity="1.000000"
      fill="none"
      points="80.01,262.90 84.33,262.90"
      />
    <polyline
      stroke-width="1"
      stroke="#000000"
      stroke-opacity="1.000000"
      fill="none"
      points="80.01,250.79 84.33,250.79"
      />
    <polyline
      stroke-width="1"
      stroke="#000000"
      stroke-opacity="1.000000"
      fill="none"
      points="80.01,238.70 84.33,238.70"
      />
    <polyline
      stroke-width="1"
      stroke="#000000"
      stroke-opacity="1.000000"
      fill="none"
      points="80.01,226.62 88.63,226.62"
      />
    <polyline
      stroke-width="1"
      stroke="#000000"
      stroke-opacity="1.000000"
      fill="none"
      points="80.01,214.53 84.33,214.53"
      />
    <polyline
      stroke-width="1"
      stroke="#000000"
      stroke-opacity="1.000000"
      fill="none"
      points="80.01,202.42 84.33,202.42"
      />
    <polyline
      stroke-width="1"
      stroke="#000000"
      stroke-opacity="1.000000"
      fill="none"
      points="80.01,190.34 84.33,190.34"
      />
    <polyline
      stroke-width="1"
      stroke="#000000"
      stroke-opacity="1.000000"
      fill="none"
      points="80.01,178.25 84.33,178.25"
      />
    <polyline
      stroke-width="1"
      stroke="#000000"
      stroke-opacity="1.000000"
      fill="none"
      points="80.01,166.14 88.63,166.14"
      />
    <polyline
      stroke-width="1"
      stroke="#000000"
      stroke-opacity="1.000000"
      fill="none"
      points="80.01,154.06 84.33,154.06"
      />
    <polyline
      stroke-width="1"
      stroke="#000000"
      stroke-opacity="1.000000"
      fill="none"
      points="80.01,141.97 84.33,141.97"
      />
    <polyline
      stroke-width="1"
      stroke="#000000"
      stroke-opacity="1.000000"
      fill="none"
      points="80.01,129.89 84.33,129.89"
      />
    <polyline
      stroke-width="1"
      stroke="#000000"
      stroke-opacity="1.000000"
      fill="none"
      points="80.01,117.78 84.33,117.78"
      />
    <polyline
      stroke-width="1"
      stroke="#000000"
      stroke-opacity="1.000000"
      fill="none"
      points="80.01,105.69 88.63,105.69"
      />
    <polyline
      stroke-width="1"
      stroke="#000000"
      stroke-opacity="1.000000"
      fill="none"
      points="80.01,93.61 84.33,93.61"
      />
    <polyline
      stroke-width="1"
      stroke="#000000"
      stroke-opacity="1.000000"
      fill="none"
      points="80.01,81.50 84.33,81.50"
      />
    <polyline
      stroke-width="1"
      stroke="#000000"
      stroke-opacity="1.000000"
      fill="none"
      points="80.01,69.41 84.33,69.41"
      />
    <polyline
      stroke-width="1"
      stroke="#000000"
      stroke-opacity="1.000000"
      fill="none"
      points="80.01,57.33 84.33,57.33"
      />
    <clipPath
      id="text-clipping66"
      >
      <polygon
        points="0.000000,0.000000 0.000000,349.986267 800.000000,349.986267 800.000000,0.000000"
        />
    </clipPath>
    <g
      clip-path="url(#text-clipping66)"
      >
      <g
        transform="matrix(1.000000 0.000000 0.000000 -1.000000 80.007324 28.247932)"
        >
        <g
          transform="matrix(1.0 0.0 0.0 1.0 0.0 5.931960)"
          >
          <text
            dominant-baseline="no-change"
            fill="#000000"
            fill-opacity="1.000000"
            xml:space="preserve"
            font-size="15"
            text-anchor="middle"
            x="0.000000"
            y="0"
><tspan font-family="sans-serif" font-style="normal" font-weight="normal">&#x30;</tspan></text>
        </g>
      </g>
    </g>
    <clipPath
      id="text-clipping67"
      >
      <polygon
        points="0.000000,0.000000 0.000000,349.986267 800.000000,349.986267 800.000000,0.000000"
        />
    </clipPath>
    <g
      clip-path="url(#text-clipping67)"
      >
      <g
        transform="matrix(1.000000 0.000000 0.000000 -1.000000 203.326518 28.247932)"
        >
        <g
          transform="matrix(1.0 0.0 0.0 1.0 0.0 5.931960)"
          >
          <text
            dominant-baseline="no-change"
            fill="#000000"
            fill-opacity="1.000000"
            xml:space="preserve"
            font-size="15"
            text-anchor="middle"
            x="0.000000"
            y="0"
><tspan font-family="sans-serif" font-style="normal" font-weight="normal">&#x32;</tspan></text>
        </g>
      </g>
    </g>
    <clipPath
      id="text-clipping68"
      >
      <polygon
        points="0.000000,0.000000 0.000000,349.986267 800.000000,349.986267 800.000000,0.000000"
        />
    </clipPath>
    <g
      clip-path="url(#text-clipping68)"
      >
      <g
        transform="matrix(1.000000 0.000000 0.000000 -1.000000 326.645711 28.247932)"
        >
        <g
          transform="matrix(1.0 0.0 0.0 1.0 0.0 5.931960)"
          >
          <text
            dominant-baseline="no-change"
            fill="#000000"
            fill-opacity="1.000000"
            xml:space="preserve"
            font-size="15"
            text-anchor="middle"
            x="0.000000"
            y="0"
><tspan font-family="sans-serif" font-style="normal" font-weight="normal">&#x34;</tspan></text>
        </g>
      </g>
    </g>
    <clipPath
      id="text-clipping69"
      >
      <polygon
        points="0.000000,0.000000 0.000000,349.986267 800.000000,349.986267 800.000000,0.000000"
        />
    </clipPath>
    <g
      clip-path="url(#text-clipping69)"
      >
      <g
        transform="matrix(1.000000 0.000000 0.000000 -1.000000 449.964904 28.247932)"
        >
        <g
          transform="matrix(1.0 0.0 0.0 1.0 0.0 5.931960)"
          >
          <text
            dominant-baseline="no-change"
            fill="#000000"
            fill-opacity="1.000000"
            xml:space="preserve"
            font-size="15"
            text-anchor="middle"
            x="0.000000"
            y="0"
><tspan font-family="sans-serif" font-style="normal" font-weight="normal">&#x36;</tspan></text>
        </g>
      </g>
    </g>
    <clipPath
      id="text-clipping70"
      >
      <polygon
        points="0.000000,0.000000 0.000000,349.986267 800.000000,349.986267 800.000000,0.000000"
        />
    </clipPath>
    <g
      clip-path="url(#text-clipping70)"
      >
      <g
        transform="matrix(1.000000 0.000000 0.000000 -1.000000 573.284097 28.247932)"
        >
        <g
          transform="matrix(1.0 0.0 0.0 1.0 0.0 5.931960)"
          >
          <text
            dominant-baseline="no-change"
            fill="#000000"
            fill-opacity="1.000000"
            xml:space="preserve"
            font-size="15"
            text-anchor="middle"
            x="0.000000"
            y="0"
><tspan font-family="sans-serif" font-style="normal" font-weight="normal">&#x38;</tspan></text>
        </g>
      </g>
    </g>
    <clipPath
      id="text-clipping71"
      >
      <polygon
        points="0.000000,0.000000 0.000000,349.986267 800.000000,349.986267 800.000000,0.000000"
        />
    </clipPath>
    <g
      clip-path="url(#text-clipping71)"
      >
      <g
        transform="matrix(0.000000 1.000000 1.000000 -0.000000 62.746055 105.691702)"
        >
        <g
          transform="matrix(1.0 0.0 0.0 1.0 0.0 5.931960)"
          >
          <text
            dominant-baseline="no-change"
            fill="#000000"
            fill-opacity="1.000000"
            xml:space="preserve"
            font-size="15"
            text-anchor="middle"
            x="0.000000"
            y="0"
><tspan font-family="sans-serif" font-style="normal" font-weight="normal">&#x2d;&#x30;&#x2e;&#x35;</tspan></text>
        </g>
      </g>
    </g>
    <clipPath
      id="text-clipping72"
      >
      <polygon
        points="0.000000,0.000000 0.000000,349.986267 800.000000,349.986267 800.000000,0.000000"
        />
    </clipPath>
    <g
      clip-path="url(#text-clipping72)"
      >
      <g
        transform="matrix(0.000000 1.000000 1.000000 -0.000000 62.746055 166.142766)"
        >
        <g
          transform="matrix(1.0 0.0 0.0 1.0 0.0 5.931960)"
          >
          <text
            dominant-baseline="no-change"
            fill="#000000"
            fill-opacity="1.000000"
            xml:space="preserve"
            font-size="15"
            text-anchor="middle"
            x="0.000000"
            y="0"
><tspan font-family="sans-serif" font-style="normal" font-weight="normal">&#x30;&#x2e;&#x30;</tspan></text>
        </g>
      </g>
    </g>
    <clipPath
      id="text-clipping73"
      >
      <polygon
        points="0.000000,0.000000 0.000000,349.986267 800.000000,349.986267 800.000000,0.000000"
        />
    </clipPath>
    <g
      clip-path="url(#text-clipping73)"
      >
      <g
        transform="matrix(0.000000 1.000000 1.000000 -0.000000 62.746055 226.618244)"
        >
        <g
          transform="matrix(1.0 0.0 0.0 1.0 0.0 5.931960)"
          >
          <text
            dominant-baseline="no-change"
            fill="#000000"
            fill-opacity="1.000000"
            xml:space="preserve"
            font-size="15"
            text-anchor="middle"
            x="0.000000"
            y="0"
><tspan font-family="sans-serif" font-style="normal" font-weight="normal">&#x30;&#x2e;&#x35;</tspan></text>
        </g>
      </g>
    </g>
    <polyline
      stroke-width="3"
      stroke="#F03232"
      stroke-opacity="1.000000"
      fill="none"
      points="80.01,226.62 80.62,227.23 81.23,227.81 81.86,228.42 82.47,229.04 83.08,229.65 83.69,230.23 84.33,230.84 84.94,231.45 85.55,232.04 
      86.16,232.65 86.79,233.26 87.41,233.85 88.02,234.46 88.65,235.04 89.26,235.65 89.87,236.24 90.48,236.85 91.12,237.43 91.73,238.04 
      92.34,238.63 92.95,239.22 93.58,239.80 94.19,240.39 94.80,241.00 95.41,241.58 96.05,242.17 96.66,242.73 97.27,243.32 97.88,243.90 
      98.51,244.49 99.12,245.05 99.73,245.64 100.34,246.20 100.98,246.78 101.59,247.35 102.20,247.91 102.81,248.47 103.45,249.03 104.06,249.59 
      104.67,250.15 105.28,250.72 105.91,251.28 106.52,251.81 107.13,252.38 107.74,252.91 108.38,253.45 108.99,253.99 109.60,254.52 110.21,255.06 
      110.84,255.60 111.45,256.14 112.06,256.65 112.67,257.19 113.31,257.70 113.92,258.21 114.53,258.72 115.14,259.24 115.78,259.75 116.39,260.26 
      117.00,260.75 117.61,261.26 118.24,261.75 118.85,262.24 119.46,262.73 120.07,263.22 120.71,263.68 121.32,264.17 121.93,264.63 122.56,265.10 
      123.17,265.56 123.78,266.02 124.39,266.49 125.03,266.93 125.64,267.39 126.25,267.83 126.86,268.27 127.49,268.71 128.10,269.15 128.71,269.56 
      129.33,269.98 129.96,270.42 130.57,270.83 131.18,271.22 131.79,271.64 132.43,272.03 133.04,272.44 133.65,272.84 134.26,273.23 134.89,273.59 
      135.50,273.98 136.11,274.35 136.72,274.72 137.36,275.08 137.97,275.45 138.58,275.79 139.19,276.16 139.82,276.50 140.43,276.84 141.04,277.16 
      141.65,277.50 142.29,277.82 142.90,278.13 143.51,278.45 144.12,278.77 144.76,279.06 145.37,279.35 145.98,279.65 146.59,279.94 147.22,280.23 
      147.83,280.50 148.44,280.77 149.05,281.04 149.69,281.31 150.30,281.55 150.91,281.80 151.52,282.04 152.15,282.28 152.76,282.53 153.37,282.75 
      154.01,282.97 154.62,283.19 155.23,283.38 155.84,283.60 156.47,283.80 157.08,283.99 157.70,284.19 158.31,284.36 158.94,284.53 159.55,284.70 
      160.16,284.87 160.77,285.04 161.41,285.19 162.02,285.34 162.63,285.48 163.24,285.60 163.87,285.73 164.48,285.87 165.09,285.97 165.70,286.09 
      166.34,286.19 166.95,286.29 167.56,286.39 168.17,286.48 168.80,286.56 169.41,286.63 170.02,286.70 170.64,286.78 171.27,286.83 171.88,286.87 
      172.49,286.92 173.10,286.97 173.74,287.00 "/>
    <polyline
      stroke-width="3"
      stroke="#F03232"
      stroke-opacity="1.000000"
      fill="none"
      points="179.89,287.00 180.50,286.97 181.13,286.92 181.74,286.90 182.35,286.83 182.96,286.78 183.60,286.73 184.21,286.65 184.82,286.58 185.43,286.48 
      186.07,286.41 186.68,286.31 187.29,286.21 187.92,286.12 188.53,286.00 189.14,285.87 189.75,285.75 190.39,285.63 191.00,285.51 191.61,285.36 
      192.22,285.21 192.85,285.07 193.46,284.90 194.07,284.73 194.68,284.55 195.32,284.38 195.93,284.21 196.54,284.02 197.15,283.82 197.78,283.63 
      198.39,283.43 199.01,283.21 199.62,282.99 200.25,282.77 200.86,282.55 201.47,282.33 202.08,282.09 202.72,281.84 203.33,281.60 203.94,281.33 
      204.55,281.09 205.18,280.82 205.79,280.55 206.40,280.26 207.01,279.99 207.65,279.70 208.26,279.40 208.87,279.11 209.48,278.82 210.11,278.50 
      210.72,278.18 211.33,277.86 211.94,277.55 212.58,277.21 213.19,276.89 213.80,276.55 214.41,276.20 215.05,275.86 215.66,275.50 216.27,275.13 
      216.88,274.79 217.51,274.40 218.12,274.03 218.73,273.67 219.37,273.27 219.98,272.88 220.59,272.49 221.20,272.10 221.83,271.71 222.44,271.30 
      223.05,270.88 223.66,270.47 224.30,270.05 224.91,269.64 225.52,269.20 226.13,268.78 226.76,268.34 227.38,267.90 227.99,267.46 228.60,267.00 
      229.23,266.56 229.84,266.10 230.45,265.63 231.06,265.17 231.70,264.71 232.31,264.24 232.92,263.75 233.53,263.29 234.16,262.80 234.77,262.31 
      235.38,261.82 235.99,261.34 236.63,260.82 237.24,260.34 "/>
    <polyline
      stroke-width="3"
      stroke="#F03232"
      stroke-opacity="1.000000"
      fill="none"
      points="237.24,260.34 237.85,259.82 238.46,259.33 239.09,258.82 239.70,258.31 240.31,257.77 240.93,257.26 241.56,256.75 242.17,256.21 242.78,255.70 
      243.39,255.16 244.03,254.62 244.64,254.08 245.25,253.55 245.86,253.01 246.49,252.45 247.10,251.91 247.71,251.35 248.32,250.81 248.96,250.25 
      249.57,249.69 250.18,249.13 250.81,248.57 251.42,248.01 252.03,247.44 252.64,246.86 253.28,246.30 253.89,245.74 254.50,245.15 255.11,244.56 
      255.75,244.00 256.36,243.42 256.97,242.83 257.58,242.24 258.21,241.66 258.82,241.07 259.43,240.49 260.04,239.90 260.68,239.31 261.29,238.73 
      261.90,238.12 262.51,237.53 263.14,236.95 263.75,236.34 264.36,235.75 264.97,235.14 265.61,234.55 266.22,233.94 266.83,233.36 267.44,232.75 
      268.07,232.14 268.68,231.55 269.30,230.94 269.91,230.33 270.54,229.74 271.15,229.13 271.76,228.52 272.37,227.91 273.01,227.33 273.62,226.72 
      274.23,226.11 274.84,225.50 275.47,224.91 276.08,224.30 276.69,223.69 277.30,223.08 277.94,222.49 278.55,221.88 279.16,221.27 279.77,220.69 
      280.40,220.08 281.01,219.46 281.62,218.88 282.24,218.27 282.87,217.68 283.48,217.07 284.09,216.49 284.73,215.88 285.34,215.29 285.95,214.70 
      286.56,214.12 287.19,213.51 287.80,212.92 288.41,212.34 289.02,211.75 289.66,211.16 290.27,210.58 290.88,209.99 291.49,209.43 292.12,208.84 
      292.73,208.26 293.34,207.70 293.95,207.11 294.59,206.55 295.20,205.96 295.81,205.40 296.42,204.84 297.05,204.28 297.67,203.72 298.28,203.16 
      298.89,202.59 299.52,202.06 300.13,201.50 300.74,200.96 301.35,200.40 301.99,199.86 302.60,199.32 303.21,198.79 303.82,198.25 304.45,197.71 
      305.06,197.17 305.67,196.66 306.28,196.12 306.92,195.61 307.53,195.10 308.14,194.59 308.75,194.07 309.38,193.56 309.99,193.05 310.61,192.56 
      311.22,192.05 311.85,191.56 312.46,191.07 313.07,190.58 313.68,190.09 314.32,189.63 314.93,189.14 315.54,188.68 316.17,188.21 316.78,187.75 
      317.39,187.29 318.00,186.82 318.64,186.36 319.25,185.92 319.86,185.48 320.47,185.04 321.10,184.60 321.71,184.16 322.32,183.75 322.93,183.31 
      323.57,182.89 324.18,182.48 324.79,182.06 325.40,181.65 326.04,181.26 326.65,180.86 327.26,180.47 327.87,180.08 328.50,179.69 329.11,179.30 
      329.72,178.94 330.33,178.57 330.97,178.20 331.58,177.84 332.19,177.50 332.80,177.13 333.43,176.79 334.04,176.45 334.65,176.13 335.26,175.79 
      335.90,175.47 336.51,175.15 337.12,174.83 337.73,174.52 338.36,174.22 338.98,173.91 339.59,173.61 340.20,173.35 340.83,173.05 341.44,172.78 
      342.05,172.52 342.66,172.25 343.30,171.98 343.91,171.71 344.52,171.47 345.13,171.22 345.76,170.98 346.37,170.76 346.98,170.51 347.59,170.29 
      348.23,170.07 348.84,169.88 349.45,169.66 350.08,169.46 350.69,169.27 351.30,169.07 351.92,168.90 352.55,168.73 353.16,168.56 353.77,168.39 
      354.38,168.22 355.02,168.07 355.63,167.93 356.24,167.78 356.85,167.63 357.48,167.51 358.09,167.39 358.70,167.27 359.31,167.17 359.95,167.05 
      360.56,166.95 361.17,166.85 361.78,166.78 362.41,166.68 363.02,166.61 363.63,166.53 364.24,166.46 364.88,166.41 365.49,166.36 366.10,166.31 
      366.71,166.26 367.35,166.24 367.96,166.22 368.57,166.19 369.18,166.17 369.81,166.17 370.42,166.14 371.03,166.17 371.64,166.17 372.28,166.17 
      372.89,166.19 373.50,166.22 374.11,166.26 374.74,166.29 375.35,166.34 375.96,166.39 376.57,166.44 377.21,166.51 377.82,166.58 378.43,166.66 
      379.04,166.73 379.67,166.80 380.29,166.90 380.90,167.00 381.53,167.09 382.14,167.22 382.75,167.34 383.36,167.46 384.00,167.58 384.61,167.71 
      385.22,167.85 385.83,168.00 386.46,168.14 387.07,168.32 387.68,168.46 388.29,168.63 388.93,168.80 389.54,169.00 390.15,169.17 390.76,169.37 
      391.39,169.56 392.00,169.78 392.61,169.98 393.22,170.20 393.86,170.42 394.47,170.64 "/>
    <polyline
      stroke-width="3"
      stroke="#F03232"
      stroke-opacity="1.000000"
      fill="none"
      points="394.47,170.64 395.08,170.88 395.69,171.10 396.33,171.34 396.94,171.59 397.55,171.86 398.16,172.10 398.79,172.37 399.40,172.64 400.01,172.93 
      400.62,173.20 401.26,173.49 401.87,173.78 402.48,174.08 403.09,174.37 403.72,174.69 404.33,175.01 404.94,175.32 405.55,175.64 406.19,175.96 
      406.80,176.30 407.41,176.64 408.02,176.98 408.66,177.32 409.27,177.67 409.88,178.03 410.49,178.40 411.12,178.77 411.73,179.13 412.34,179.52 
      412.95,179.89 413.59,180.28 414.20,180.67 414.81,181.06 415.44,181.48 416.05,181.87 416.66,182.28 417.27,182.70 417.91,183.11 418.52,183.53 
      419.13,183.97 419.74,184.38 420.37,184.82 420.98,185.26 421.59,185.70 422.21,186.16 422.84,186.60 423.45,187.07 424.06,187.53 424.67,187.97 
      425.31,188.46 425.92,188.92 426.53,189.39 427.14,189.87 427.77,190.36 428.38,190.85 428.99,191.34 429.60,191.83 430.24,192.32 430.85,192.83 
      431.46,193.32 432.07,193.83 432.70,194.34 433.31,194.85 433.92,195.37 434.53,195.88 435.17,196.42 435.78,196.93 436.39,197.47 437.00,197.98 
      437.64,198.52 438.25,199.05 438.86,199.59 439.47,200.15 440.10,200.69 440.71,201.23 441.32,201.79 441.93,202.35 442.57,202.89 443.18,203.45 
      443.79,204.01 444.40,204.57 445.03,205.13 445.64,205.69 446.25,206.28 446.89,206.84 447.50,207.40 448.11,207.99 448.72,208.58 449.35,209.14 
      449.96,209.72 450.58,210.31 451.19,210.90 451.82,211.48 452.43,212.07 453.04,212.65 453.65,213.24 454.29,213.82 454.90,214.41 455.51,215.00 
      456.12,215.61 456.75,216.19 457.36,216.80 457.97,217.39 458.58,218.00 459.22,218.59 459.83,219.20 460.44,219.78 461.05,220.39 461.68,220.98 
      462.29,221.59 462.90,222.20 463.52,222.81 464.15,223.40 464.76,224.01 465.37,224.62 465.98,225.20 466.62,225.81 467.23,226.42 467.84,227.03 
      468.45,227.64 469.08,228.23 469.69,228.84 470.30,229.45 470.91,230.06 471.55,230.65 472.16,231.26 472.77,231.87 473.38,232.45 474.01,233.06 
      474.62,233.67 475.23,234.26 475.84,234.87 476.48,235.46 477.09,236.07 477.70,236.65 478.33,237.24 478.95,237.85 479.56,238.44 480.17,239.02 
      480.80,239.63 481.41,240.22 482.02,240.80 482.63,241.39 483.27,241.98 483.88,242.56 484.49,243.15 485.10,243.71 485.73,244.29 486.34,244.88 
      486.95,245.44 487.56,246.03 488.20,246.59 488.81,247.18 489.42,247.74 490.03,248.30 490.66,248.86 491.27,249.42 491.89,249.98 492.50,250.54 
      493.13,251.08 493.74,251.64 494.35,252.20 494.96,252.74 495.60,253.28 496.21,253.82 496.82,254.35 497.43,254.89 498.06,255.43 498.67,255.96 
      499.28,256.50 499.89,257.01 500.53,257.53 501.14,258.06 501.75,258.58 502.36,259.09 502.99,259.58 503.60,260.09 504.21,260.60 504.82,261.09 
      505.46,261.58 506.07,262.07 506.68,262.56 507.29,263.05 507.93,263.53 508.54,264.02 509.15,264.49 509.76,264.95 510.39,265.41 511.00,265.88 
      511.61,266.34 512.25,266.78 512.86,267.24 513.47,267.68 514.08,268.12 514.71,268.56 515.32,269.00 515.93,269.42 516.54,269.86 517.18,270.27 
      517.79,270.69 518.40,271.10 519.01,271.52 519.64,271.91 520.26,272.30 520.87,272.71 521.48,273.10 522.11,273.47 522.72,273.86 523.33,274.23 
      523.94,274.59 524.58,274.96 525.19,275.33 525.80,275.69 526.41,276.03 527.04,276.38 527.65,276.72 528.26,277.06 528.87,277.38 529.51,277.72 
      530.12,278.04 530.73,278.35 531.34,278.67 531.97,278.96 532.58,279.26 533.19,279.55 533.81,279.84 534.44,280.14 535.05,280.40 535.66,280.70 
      536.27,280.94 536.91,281.21 537.52,281.48 538.13,281.72 538.74,281.97 539.37,282.21 539.98,282.45 540.59,282.67 541.20,282.89 541.84,283.11 
      542.45,283.33 543.06,283.53 543.69,283.72 544.30,283.92 544.91,284.12 545.52,284.31 546.16,284.48 546.77,284.65 547.38,284.82 547.99,284.99 
      548.63,285.14 549.24,285.29 549.85,285.43 550.46,285.56 551.09,285.70 551.70,285.82 "/>
    <polyline
      stroke-width="3"
      stroke="#F03232"
      stroke-opacity="1.000000"
      fill="none"
      points="551.70,285.82 552.31,285.95 552.92,286.07 553.56,286.17 554.17,286.26 554.78,286.36 555.39,286.46 556.02,286.53 556.63,286.61 557.24,286.68 
      557.85,286.75 558.49,286.80 559.10,286.87 559.71,286.92 560.32,286.95 560.95,287.00 "/>
    <polyline
      stroke-width="3"
      stroke="#F03232"
      stroke-opacity="1.000000"
      fill="none"
      points="567.42,287.00 567.72,286.97 568.35,286.95 568.96,286.90 569.57,286.85 570.18,286.80 570.82,286.73 571.43,286.68 572.04,286.61 572.65,286.51 
      573.28,286.43 573.89,286.34 574.50,286.24 575.12,286.14 575.75,286.04 576.36,285.92 576.97,285.80 577.61,285.68 578.22,285.53 578.83,285.41 
      579.44,285.26 580.07,285.12 580.68,284.95 581.29,284.80 581.90,284.63 582.54,284.46 583.15,284.26 583.76,284.09 584.37,283.90 585.00,283.70 
      585.61,283.50 586.22,283.29 586.83,283.07 587.47,282.85 588.08,282.63 588.69,282.41 589.30,282.16 589.93,281.92 590.55,281.67 591.16,281.43 
      591.77,281.16 592.40,280.89 593.01,280.62 593.62,280.36 594.23,280.09 594.87,279.79 595.48,279.50 596.09,279.21 596.70,278.91 597.33,278.60 
      597.94,278.28 598.55,277.96 599.16,277.65 599.80,277.33 600.41,276.99 601.02,276.64 601.63,276.30 602.26,275.96 602.87,275.62 603.49,275.25 
      604.10,274.89 604.73,274.52 605.34,274.15 605.95,273.79 606.56,273.40 607.20,273.01 607.81,272.62 608.42,272.23 609.05,271.83 609.66,271.42 
      610.27,271.03 610.88,270.61 611.52,270.20 612.13,269.76 612.74,269.34 613.35,268.90 613.98,268.49 614.59,268.05 615.20,267.59 615.81,267.15 
      616.45,266.71 617.06,266.24 617.67,265.78 618.28,265.32 618.92,264.85 619.53,264.39 620.14,263.92 620.75,263.44 621.38,262.95 621.99,262.46 
      622.60,261.97 623.21,261.48 623.85,260.99 624.46,260.48 625.07,259.99 625.68,259.48 626.31,258.97 626.92,258.46 627.53,257.94 628.14,257.43 
      628.78,256.92 629.39,256.38 630.00,255.87 630.61,255.33 631.24,254.79 631.86,254.26 632.47,253.72 633.08,253.18 633.71,252.62 634.32,252.08 
      634.93,251.52 635.54,250.98 636.18,250.42 636.79,249.86 637.40,249.30 638.01,248.74 638.64,248.18 639.25,247.61 639.86,247.05 640.50,246.49 
      641.11,245.91 641.72,245.34 642.33,244.76 642.96,244.17 643.57,243.61 644.18,243.02 644.80,242.44 645.43,241.85 646.04,241.27 646.65,240.68 
      647.26,240.10 647.90,239.51 648.51,238.90 649.12,238.31 649.73,237.73 650.36,237.14 650.97,236.53 651.58,235.94 652.19,235.33 652.83,234.75 
      653.44,234.14 654.05,233.55 654.66,232.94 655.29,232.33 655.90,231.75 656.51,231.13 657.12,230.52 657.76,229.91 658.37,229.33 658.98,228.72 
      659.59,228.11 660.23,227.50 660.84,226.91 661.45,226.30 662.06,225.69 662.69,225.08 663.30,224.49 663.91,223.88 664.52,223.27 665.16,222.66 
      665.77,222.08 666.38,221.47 666.99,220.86 667.62,220.27 668.23,219.66 668.84,219.07 669.45,218.46 670.09,217.88 670.70,217.27 671.31,216.68 
      671.92,216.07 672.55,215.49 673.17,214.87 673.78,214.29 674.41,213.70 675.02,213.12 675.63,212.53 676.24,211.94 676.88,211.36 677.49,210.77 
      678.10,210.19 678.71,209.60 679.34,209.02 679.95,208.45 680.56,207.87 681.17,207.31 681.81,206.72 682.42,206.16 683.03,205.60 683.64,205.01 
      684.27,204.45 684.88,203.89 685.49,203.33 686.10,202.79 686.74,202.23 687.35,201.67 687.96,201.13 688.57,200.57 689.21,200.03 689.82,199.49 
      690.43,198.96 691.04,198.42 691.67,197.88 692.28,197.34 692.89,196.83 693.50,196.30 694.14,195.78 694.75,195.27 695.36,194.73 695.97,194.24 
      "/>
  </g>
</svg>
