<?xml version="1.0" encoding="UTF-8"?>
<!DOCTYPE svg PUBLIC "-//W3C//DTD SVG 1.1//EN"
        "http://www.w3.org/Graphics/SVG/1.1/DTD/svg11.dtd">
<svg
  xmlns="http://www.w3.org/2000/svg"
  xmlns:xlink="http://www.w3.org/1999/xlink"
  version="1.1"
  width="800pt"
  height="350pt"
  viewBox="0 0 800 350"
  >
  <rect
    x="0"
    y="0"
    width="800"
    height="350"
    stroke="none"
    fill="#FFFFFF"
    fill-opacity="1.000000"
    />
  <g
    transform="matrix(1 0 0 -1 0 350)"
    >
    <polyline
      stroke-width="1"
      stroke="#000000"
      stroke-opacity="1.000000"
      fill="none"
      points="120.00,35.01 719.99,35.01"
      />
    <polyline
      stroke-width="1"
      stroke="#000000"
      stroke-opacity="1.000000"
      fill="none"
      points="120.00,35.01 120.00,40.19"
      />
    <polyline
      stroke-width="1"
      stroke="#000000"
      stroke-opacity="1.000000"
      fill="none"
      points="150.03,35.01 150.03,39.33"
      />
    <polyline
      stroke-width="1"
      stroke="#000000"
      stroke-opacity="1.000000"
      fill="none"
      points="180.06,35.01 180.06,39.33"
      />
    <polyline
      stroke-width="1"
      stroke="#000000"
      stroke-opacity="1.000000"
      fill="none"
      points="210.09,35.01 210.09,39.33"
      />
    <polyline
      stroke-width="1"
      stroke="#000000"
      stroke-opacity="1.000000"
      fill="none"
      points="240.12,35.01 240.12,40.19"
      />
    <polyline
      stroke-width="1"
      stroke="#000000"
      stroke-opacity="1.000000"
      fill="none"
      points="270.15,35.01 270.15,39.33"
      />
    <polyline
      stroke-width="1"
      stroke="#000000"
      stroke-opacity="1.000000"
      fill="none"
      points="300.18,35.01 300.18,39.33"
      />
    <polyline
      stroke-width="1"
      stroke="#000000"
      stroke-opacity="1.000000"
      fill="none"
      points="330.21,35.01 330.21,39.33"
      />
    <polyline
      stroke-width="1"
      stroke="#000000"
      stroke-opacity="1.000000"
      fill="none"
      points="360.24,35.01 360.24,40.19"
      />
    <polyline
      stroke-width="1"
      stroke="#000000"
      stroke-opacity="1.000000"
      fill="none"
      points="390.27,35.01 390.27,39.33"
      />
    <polyline
      stroke-width="1"
      stroke="#000000"
      stroke-opacity="1.000000"
      fill="none"
      points="420.28,35.01 420.28,39.33"
      />
    <polyline
      stroke-width="1"
      stroke="#000000"
      stroke-opacity="1.000000"
      fill="none"
      points="450.31,35.01 450.31,39.33"
      />
    <polyline
      stroke-width="1"
      stroke="#000000"
      stroke-opacity="1.000000"
      fill="none"
      points="480.34,35.01 480.34,40.19"
      />
    <polyline
      stroke-width="1"
      stroke="#000000"
      stroke-opacity="1.000000"
      fill="none"
      points="510.37,35.01 510.37,39.33"
      />
    <polyline
      stroke-width="1"
      stroke="#000000"
      stroke-opacity="1.000000"
      fill="none"
      points="540.40,35.01 540.40,39.33"
      />
    <polyline
      stroke-width="1"
      stroke="#000000"
      stroke-opacity="1.000000"
      fill="none"
      points="570.43,35.01 570.43,39.33"
      />
    <polyline
      stroke-width="1"
      stroke="#000000"
      stroke-opacity="1.000000"
      fill="none"
      points="600.46,35.01 600.46,40.19"
      />
    <polyline
      stroke-width="1"
      stroke="#000000"
      stroke-opacity="1.000000"
      fill="none"
      points="630.49,35.01 630.49,39.33"
      />
    <polyline
      stroke-width="1"
      stroke="#000000"
      stroke-opacity="1.000000"
      fill="none"
      points="660.52,35.01 660.52,39.33"
      />
    <polyline
      stroke-width="1"
      stroke="#000000"
      stroke-opacity="1.000000"
      fill="none"
      points="690.55,35.01 690.55,39.33"
      />
    <polyline
      stroke-width="1"
      stroke="#000000"
      stroke-opacity="1.000000"
      fill="none"
      points="719.99,35.01 719.99,121.32"
      />
    <polyline
      stroke-width="1"
      stroke="#000000"
      stroke-opacity="1.000000"
      fill="none"
      points="714.82,38.94 719.99,38.94"
      />
    <polyline
      stroke-width="1"
      stroke="#000000"
      stroke-opacity="1.000000"
      fill="none"
      points="714.82,78.15 719.99,78.15"
      />
    <polyline
      stroke-width="1"
      stroke="#000000"
      stroke-opacity="1.000000"
      fill="none"
      points="714.82,117.39 719.99,117.39"
      />
    <polyline
      stroke-width="1"
      stroke="#000000"
      stroke-opacity="1.000000"
      fill="none"
      points="719.99,121.32 120.00,121.32"
      />
    <polyline
      stroke-width="1"
      stroke="#000000"
      stroke-opacity="1.000000"
      fill="none"
      points="690.55,117.00 690.55,121.32"
      />
    <polyline
      stroke-width="1"
      stroke="#000000"
      stroke-opacity="1.000000"
      fill="none"
      points="660.52,117.00 660.52,121.32"
      />
    <polyline
      stroke-width="1"
      stroke="#000000"
      stroke-opacity="1.000000"
      fill="none"
      points="630.49,117.00 630.49,121.32"
      />
    <polyline
      stroke-width="1"
      stroke="#000000"
      stroke-opacity="1.000000"
      fill="none"
      points="600.46,116.14 600.46,121.32"
      />
    <polyline
      stroke-width="1"
      stroke="#000000"
      stroke-opacity="1.000000"
      fill="none"
      points="570.43,117.00 570.43,121.32"
      />
    <polyline
      stroke-width="1"
      stroke="#000000"
      stroke-opacity="1.000000"
      fill="none"
      points="540.40,117.00 540.40,121.32"
      />
    <polyline
      stroke-width="1"
      stroke="#000000"
      stroke-opacity="1.000000"
      fill="none"
      points="510.37,117.00 510.37,121.32"
      />
    <polyline
      stroke-width="1"
      stroke="#000000"
      stroke-opacity="1.000000"
      fill="none"
      points="480.34,116.14 480.34,121.32"
      />
    <polyline
      stroke-width="1"
      stroke="#000000"
      stroke-opacity="1.000000"
      fill="none"
      points="450.31,117.00 450.31,121.32"
      />
    <polyline
      stroke-width="1"
      stroke="#000000"
      stroke-opacity="1.000000"
      fill="none"
      points="420.28,117.00 420.28,121.32"
      />
    <polyline
      stroke-width="1"
      stroke="#000000"
      stroke-opacity="1.000000"
      fill="none"
      points="390.27,117.00 390.27,121.32"
      />
    <polyline
      stroke-width="1"
      stroke="#000000"
      stroke-opacity="1.000000"
      fill="none"
      points="360.24,116.14 360.24,121.32"
      />
    <polyline
      stroke-width="1"
      stroke="#000000"
      stroke-opacity="1.000000"
      fill="none"
      points="330.21,117.00 330.21,121.32"
      />
    <polyline
      stroke-width="1"
      stroke="#000000"
      stroke-opacity="1.000000"
      fill="none"
      points="300.18,117.00 300.18,121.32"
      />
    <polyline
      stroke-width="1"
      stroke="#000000"
      stroke-opacity="1.000000"
      fill="none"
      points="270.15,117.00 270.15,121.32"
      />
    <polyline
      stroke-width="1"
      stroke="#000000"
      stroke-opacity="1.000000"
      fill="none"
      points="240.12,116.14 240.12,121.32"
      />
    <polyline
      stroke-width="1"
      stroke="#000000"
      stroke-opacity="1.000000"
      fill="none"
      points="210.09,117.00 210.09,121.32"
      />
    <polyline
      stroke-width="1"
      stroke="#000000"
      stroke-opacity="1.000000"
      fill="none"
      points="180.06,117.00 180.06,121.32"
      />
    <polyline
      stroke-width="1"
      stroke="#000000"
      stroke-opacity="1.000000"
      fill="none"
      points="150.03,117.00 150.03,121.32"
      />
    <polyline
      stroke-width="1"
      stroke="#000000"
      stroke-opacity="1.000000"
      fill="none"
      points="120.00,116.14 120.00,121.32"
      />
    <polyline
      stroke-width="1"
      stroke="#000000"
      stroke-opacity="1.000000"
      fill="none"
      points="120.00,121.32 120.00,35.01"
      />
    <polyline
      stroke-width="1"
      stroke="#000000"
      stroke-opacity="1.000000"
      fill="none"
      points="120.00,117.39 125.17,117.39"
      />
    <polyline
      stroke-width="1"
      stroke="#000000"
      stroke-opacity="1.000000"
      fill="none"
      points="120.00,78.15 125.17,78.15"
      />
    <polyline
      stroke-width="1"
      stroke="#000000"
      stroke-opacity="1.000000"
      fill="none"
      points="120.00,38.94 125.17,38.94"
      />
    <clipPath
      id="text-clipping74"
      >
      <polygon
        points="0.000000,0.000000 0.000000,349.986267 800.000000,349.986267 800.000000,0.000000"
        />
    </clipPath>
    <g
      clip-path="url(#text-clipping74)"
      >
      <g
        transform="matrix(1.000000 0.000000 0.000000 -1.000000 119.998779 28.101444)"
        >
        <g
          transform="matrix(1.0 0.0 0.0 1.0 0.0 2.672784)"
          >
          <text
            dominant-baseline="no-change"
            fill="#000000"
            fill-opacity="1.000000"
            xml:space="preserve"
            font-size="6"
            text-anchor="middle"
            x="0.000000"
            y="0"
><tspan font-family="sans-serif" font-style="normal" font-weight="normal">&#x30;</tspan></text>
        </g>
      </g>
    </g>
    <clipPath
      id="text-clipping75"
      >
      <polygon
        points="0.000000,0.000000 0.000000,349.986267 800.000000,349.986267 800.000000,0.000000"
        />
    </clipPath>
    <g
      clip-path="url(#text-clipping75)"
      >
      <g
        transform="matrix(1.000000 0.000000 0.000000 -1.000000 240.119633 28.101444)"
        >
        <g
          transform="matrix(1.0 0.0 0.0 1.0 0.0 2.672784)"
          >
          <text
            dominant-baseline="no-change"
            fill="#000000"
            fill-opacity="1.000000"
            xml:space="preserve"
            font-size="6"
            text-anchor="middle"
            x="0.000000"
            y="0"
><tspan font-family="sans-serif" font-style="normal" font-weight="normal">&#x32;</tspan></text>
        </g>
      </g>
    </g>
    <clipPath
      id="text-clipping76"
      >
      <polygon
        points="0.000000,0.000000 0.000000,349.986267 800.000000,349.986267 800.000000,0.000000"
        />
    </clipPath>
    <g
      clip-path="url(#text-clipping76)"
      >
      <g
        transform="matrix(1.000000 0.000000 0.000000 -1.000000 360.240486 28.101444)"
        >
        <g
          transform="matrix(1.0 0.0 0.0 1.0 0.0 2.672784)"
          >
          <text
            dominant-baseline="no-change"
            fill="#000000"
            fill-opacity="1.000000"
            xml:space="preserve"
            font-size="6"
            text-anchor="middle"
            x="0.000000"
            y="0"
><tspan font-family="sans-serif" font-style="normal" font-weight="normal">&#x34;</tspan></text>
        </g>
      </g>
    </g>
    <clipPath
      id="text-clipping77"
      >
      <polygon
        points="0.000000,0.000000 0.000000,349.986267 800.000000,349.986267 800.000000,0.000000"
        />
    </clipPath>
    <g
      clip-path="url(#text-clipping77)"
      >
      <g
        transform="matrix(1.000000 0.000000 0.000000 -1.000000 480.361339 28.101444)"
        >
        <g
          transform="matrix(1.0 0.0 0.0 1.0 0.0 2.672784)"
          >
          <text
            dominant-baseline="no-change"
            fill="#000000"
            fill-opacity="1.000000"
            xml:space="preserve"
            font-size="6"
            text-anchor="middle"
            x="0.000000"
            y="0"
><tspan font-family="sans-serif" font-style="normal" font-weight="normal">&#x36;</tspan></text>
        </g>
      </g>
    </g>
    <clipPath
      id="text-clipping78"
      >
      <polygon
        points="0.000000,0.000000 0.000000,349.986267 800.000000,349.986267 800.000000,0.000000"
        />
    </clipPath>
    <g
      clip-path="url(#text-clipping78)"
      >
      <g
        transform="matrix(1.000000 0.000000 0.000000 -1.000000 600.482192 28.101444)"
        >
        <g
          transform="matrix(1.0 0.0 0.0 1.0 0.0 2.672784)"
          >
          <text
            dominant-baseline="no-change"
            fill="#000000"
            fill-opacity="1.000000"
            xml:space="preserve"
            font-size="6"
            text-anchor="middle"
            x="0.000000"
            y="0"
><tspan font-family="sans-serif" font-style="normal" font-weight="normal">&#x38;</tspan></text>
        </g>
      </g>
    </g>
    <clipPath
      id="text-clipping79"
      >
      <polygon
        points="0.000000,0.000000 0.000000,349.986267 800.000000,349.986267 800.000000,0.000000"
        />
    </clipPath>
    <g
      clip-path="url(#text-clipping79)"
      >
      <g
        transform="matrix(0.000000 1.000000 1.000000 -0.000000 113.089389 38.917203)"
        >
        <g
          transform="matrix(1.0 0.0 0.0 1.0 0.0 2.672784)"
          >
          <text
            dominant-baseline="no-change"
            fill="#000000"
            fill-opacity="1.000000"
            xml:space="preserve"
            font-size="6"
            text-anchor="middle"
            x="0.000000"
            y="0"
><tspan font-family="sans-serif" font-style="normal" font-weight="normal">&#x2d;&#x31;&#x2e;&#x30;</tspan></text>
        </g>
      </g>
    </g>
    <clipPath
      id="text-clipping80"
      >
      <polygon
        points="0.000000,0.000000 0.000000,349.986267 800.000000,349.986267 800.000000,0.000000"
        />
    </clipPath>
    <g
      clip-path="url(#text-clipping80)"
      >
      <g
        transform="matrix(0.000000 1.000000 1.000000 -0.000000 113.089389 78.151799)"
        >
        <g
          transform="matrix(1.0 0.0 0.0 1.0 0.0 2.672784)"
          >
          <text
            dominant-baseline="no-change"
            fill="#000000"
            fill-opacity="1.000000"
            xml:space="preserve"
            font-size="6"
            text-anchor="middle"
            x="0.000000"
            y="0"
><tspan font-family="sans-serif" font-style="normal" font-weight="normal">&#x30;&#x2e;&#x30;</tspan></text>
        </g>
      </g>
    </g>
    <clipPath
      id="text-clipping81"
      >
      <polygon
        points="0.000000,0.000000 0.000000,349.986267 800.000000,349.986267 800.000000,0.000000"
        />
    </clipPath>
    <g
      clip-path="url(#text-clipping81)"
      >
      <g
        transform="matrix(0.000000 1.000000 1.000000 -0.000000 113.089389 117.410810)"
        >
        <g
          transform="matrix(1.0 0.0 0.0 1.0 0.0 2.672784)"
          >
          <text
            dominant-baseline="no-change"
            fill="#000000"
            fill-opacity="1.000000"
            xml:space="preserve"
            font-size="6"
            text-anchor="middle"
            x="0.000000"
            y="0"
><tspan font-family="sans-serif" font-style="normal" font-weight="normal">&#x31;&#x2e;&#x30;</tspan></text>
        </g>
      </g>
    </g>
    <polyline
      stroke-width="1"
      stroke="#0000FF"
      stroke-opacity="1.000000"
      fill="none"
      points="120.00,78.15 120.61,78.15 121.20,78.15 121.81,78.15 122.39,78.15 123.00,78.15 123.59,78.15 124.20,78.15 124.81,78.15 125.39,78.15 
      126.00,78.15 126.59,78.15 127.20,78.15 127.81,78.15 128.40,78.15 129.01,78.15 129.59,78.15 130.20,78.15 130.81,78.15 131.40,78.15 
      132.01,78.15 132.60,78.15 133.21,78.15 133.82,78.15 134.40,78.15 135.01,78.15 135.60,78.15 136.21,78.15 136.82,78.15 137.41,78.15 
      138.02,78.15 138.60,78.15 139.21,78.15 139.82,78.15 140.41,78.15 141.02,78.15 141.61,78.15 142.22,78.15 142.83,78.15 143.41,78.15 
      144.02,78.15 144.61,78.15 145.22,78.15 145.83,78.15 146.42,78.15 147.03,78.15 147.61,78.15 148.22,78.15 148.83,78.15 149.42,78.15 
      150.03,78.15 150.61,78.15 151.23,78.15 151.84,78.15 152.42,78.15 153.03,78.15 153.62,78.15 154.23,78.15 154.84,78.15 155.42,78.15 
      156.04,78.15 156.62,78.15 157.23,78.15 157.84,78.15 158.43,78.15 159.04,78.15 159.62,78.15 160.23,78.15 160.84,78.15 161.43,78.15 
      162.04,78.15 162.63,78.15 163.24,78.15 163.85,78.15 164.43,78.15 165.04,78.15 165.63,78.15 166.24,78.15 166.85,78.15 167.44,78.15 
      168.05,78.15 168.63,78.15 169.24,78.15 169.85,78.15 170.44,78.15 171.05,78.15 171.64,78.15 172.25,78.15 172.86,78.15 173.44,78.15 
      174.05,78.15 174.64,78.15 175.25,78.15 175.86,78.15 176.45,78.15 177.06,78.15 177.64,78.15 178.25,78.15 178.86,78.15 179.45,78.15 
      180.06,78.15 180.65,78.15 181.26,78.15 181.87,78.15 182.45,78.15 183.06,78.15 183.65,78.15 184.26,78.15 184.87,78.15 185.45,78.15 
      186.07,78.15 186.65,78.15 187.26,78.15 187.87,78.15 188.46,78.15 189.07,78.15 189.65,78.15 190.26,78.15 190.87,78.15 191.46,78.15 
      192.07,78.15 192.66,78.15 193.27,78.15 193.88,78.15 194.46,78.15 195.07,78.15 195.66,78.15 196.27,78.15 196.88,78.15 197.47,78.15 
      198.08,78.15 198.66,78.15 199.27,78.15 199.88,78.15 200.47,78.15 201.08,78.15 201.67,78.15 202.28,78.15 202.89,78.15 203.47,78.15 
      204.08,78.15 204.67,78.15 205.28,78.15 205.89,78.15 206.48,78.15 207.09,78.15 207.67,78.15 208.28,78.15 208.89,78.15 209.48,78.15 
      210.09,78.15 210.68,78.15 211.29,78.15 211.90,78.15 212.48,78.15 213.09,78.15 213.68,78.15 214.29,78.15 214.90,78.15 215.49,78.15 
      216.10,78.15 216.68,78.15 217.29,78.15 217.90,78.15 218.49,78.15 219.10,78.15 219.68,78.15 220.29,78.15 220.91,78.15 221.49,78.15 
      222.10,78.15 222.69,78.15 223.30,78.15 223.91,78.15 224.49,78.15 225.10,78.15 225.69,78.15 226.30,78.15 226.91,78.15 227.50,78.15 
      228.11,78.15 228.69,78.15 229.30,78.15 229.91,78.15 230.50,78.15 231.11,78.15 231.70,78.15 232.31,78.15 232.92,78.15 233.50,78.15 
      234.11,78.15 234.70,78.15 235.31,78.15 235.92,78.15 236.51,78.15 237.12,78.15 237.70,78.15 238.31,78.15 238.92,78.15 239.51,78.15 
      240.12,78.15 240.71,78.15 241.32,78.15 241.93,78.15 242.51,78.15 243.12,78.15 243.71,78.15 244.32,78.15 244.93,78.15 245.52,78.15 
      246.13,78.15 246.71,78.15 247.32,78.15 247.93,78.15 248.52,78.15 249.13,78.15 249.71,78.15 250.33,78.15 250.94,78.15 251.52,78.15 
      252.13,78.15 252.72,78.15 253.33,78.15 253.94,78.15 254.52,78.15 255.13,78.15 255.72,78.15 256.33,78.15 256.92,78.15 257.53,78.15 
      258.14,78.15 258.72,78.15 259.33,78.15 259.92,78.15 260.53,78.15 261.14,78.15 261.73,78.15 262.34,78.15 262.92,78.15 263.53,78.15 
      264.14,78.15 264.73,78.15 265.34,78.15 265.93,78.15 266.54,78.15 267.15,78.15 267.73,78.15 268.34,78.15 268.93,78.15 269.54,78.15 
      270.15,78.15 270.74,78.15 271.35,78.15 271.93,78.15 272.54,78.15 273.15,78.15 "/>
    <polyline
      stroke-width="1"
      stroke="#0000FF"
      stroke-opacity="1.000000"
      fill="none"
      points="273.15,78.15 273.74,78.15 274.35,78.15 274.94,78.15 275.55,78.15 276.16,78.15 276.74,78.15 277.35,78.15 277.94,78.15 278.55,78.15 
      279.16,78.15 279.74,78.15 280.36,78.15 280.94,78.15 281.55,78.15 282.16,78.15 282.75,78.15 283.36,78.15 283.94,78.15 284.55,78.15 
      285.16,78.15 285.75,78.15 286.36,78.15 286.95,78.15 287.56,78.15 288.17,78.15 288.75,78.15 289.36,78.15 289.95,78.15 290.56,78.15 
      291.17,78.15 291.76,78.15 292.37,78.15 292.95,78.15 293.56,78.15 294.17,78.15 294.76,78.15 295.37,78.15 295.96,78.15 296.57,78.15 
      297.18,78.15 297.76,78.15 298.37,78.15 298.96,78.15 299.57,78.15 300.18,78.15 300.77,78.15 301.38,78.15 301.96,78.15 302.57,78.15 
      303.18,78.15 303.77,78.15 304.38,78.15 304.97,78.15 305.58,78.15 306.19,78.15 306.77,78.15 307.38,78.15 307.97,78.15 308.58,78.15 
      309.19,94.17 309.78,109.38 310.39,116.95 310.97,115.02 311.58,104.06 312.19,86.77 312.78,67.36 313.39,50.61 313.97,40.60 314.58,39.77 
      315.20,48.37 315.78,64.24 316.39,83.52 316.98,101.49 317.59,113.77 318.20,117.31 318.78,111.26 319.39,97.12 319.98,78.32 320.59,59.50 
      321.20,45.24 321.79,39.04 322.40,42.41 322.98,54.54 323.59,72.46 324.20,91.75 324.79,107.74 325.40,116.48 325.99,115.82 326.60,105.96 
      327.21,89.28 327.79,69.90 328.40,52.52 328.99,41.43 329.60,39.33 330.21,46.73 330.80,61.84 331.41,80.94 331.99,99.37 332.60,112.60 
      333.21,117.39 333.80,112.60 334.41,99.37 335.00,80.94 335.61,61.84 336.22,46.73 336.80,39.33 337.41,41.43 338.00,52.52 338.61,69.90 
      339.22,89.28 339.81,105.96 340.42,115.82 341.00,116.48 341.61,107.74 342.22,91.75 342.81,72.46 343.42,54.54 344.00,42.41 344.62,39.04 
      345.23,45.24 345.81,59.50 346.42,78.35 347.01,97.12 347.62,111.26 348.23,117.31 348.81,113.75 349.42,101.49 350.01,83.52 350.62,64.24 
      351.23,48.37 351.82,39.77 352.43,40.60 353.01,50.61 353.62,67.36 354.23,86.77 354.82,104.06 355.43,115.02 356.02,116.95 356.63,109.38 
      357.24,94.17 357.82,75.05 358.43,56.67 359.02,43.58 359.63,38.94 360.24,43.90 360.83,57.25 361.44,75.73 362.02,94.80 362.63,109.79 
      363.24,117.04 363.83,114.77 364.44,103.54 365.03,86.09 365.64,66.70 366.25,50.12 366.83,40.41 367.44,39.92 368.03,48.81 368.64,64.89 
      369.25,84.21 369.84,102.05 370.45,114.04 371.03,117.26 371.64,110.89 372.25,96.51 372.84,77.64 373.45,58.89 374.03,44.87 374.65,38.99 
      375.26,42.70 375.84,55.10 376.45,73.15 377.04,92.41 377.65,108.18 378.26,116.61 378.84,115.63 379.45,105.47 380.04,88.63 380.65,69.22 
      381.26,52.00 381.85,41.19 382.46,39.43 383.04,47.14 383.65,62.48 384.26,81.62 384.85,99.93 385.46,112.92 386.05,117.39 386.66,112.26 
      387.27,98.76 387.85,80.25 388.46,61.21 389.05,46.31 389.66,39.23 390.27,41.68 390.86,53.05 391.47,70.58 392.05,89.94 392.66,106.45 
      393.25,116.02 393.86,116.31 394.47,107.28 395.06,91.12 395.67,71.76 396.25,54.01 396.86,42.14 397.47,39.11 398.06,45.63 398.67,60.11 
      399.26,79.03 399.87,97.73 400.48,111.62 401.06,117.34 401.67,113.46 402.26,100.93 402.87,82.84 403.48,63.60 404.07,47.90 404.68,39.65 
      405.26,40.80 405.87,51.10 406.48,68.04 407.07,87.45 407.68,104.59 408.26,115.26 408.87,116.85 409.49,108.96 410.07,93.53 410.68,74.34 
      411.27,56.11 411.88,43.24 412.49,38.94 413.07,44.24 413.68,57.84 414.27,76.42 414.88,95.44 415.49,110.21 416.08,117.14 416.69,114.53 
      417.27,103.01 417.88,85.40 418.49,66.04 419.08,49.64 419.69,40.21 420.28,40.09 420.89,49.27 421.50,65.55 422.08,84.89 422.69,102.59 
      423.28,114.31 423.89,117.19 424.50,110.50 425.09,95.90 425.70,76.96 426.28,58.30 "/>
    <polyline
      stroke-width="1"
      stroke="#0000FF"
      stroke-opacity="1.000000"
      fill="none"
      points="426.28,58.30 426.89,44.51 427.50,38.97 428.09,43.02 428.70,55.67 429.29,73.83 429.90,93.04 430.51,108.62 431.09,116.75 431.70,115.41 
      432.29,104.96 432.90,87.94 433.51,68.53 434.10,51.49 434.71,40.97 435.29,39.55 435.90,47.58 436.51,63.11 437.10,82.33 437.71,100.52 
      438.29,113.24 438.90,117.36 439.52,111.89 440.10,98.17 440.71,79.54 441.30,60.57 441.91,45.92 442.52,39.16 443.10,41.94 443.71,53.59 
      444.30,71.27 444.91,90.60 445.52,106.94 446.11,116.19 446.72,116.14 447.30,106.81 447.91,90.46 448.52,71.07 449.11,53.44 449.72,41.87 
      450.31,39.16 450.92,46.02 451.53,60.74 452.11,79.71 452.72,98.32 453.31,111.99 453.92,117.36 454.53,113.16 455.12,100.37 455.73,82.16 
      456.31,62.94 456.92,47.46 457.53,39.50 458.12,41.02 458.73,51.61 459.32,68.70 459.93,88.11 460.54,105.08 461.12,115.48 461.73,116.73 
      462.32,108.52 462.93,92.90 463.54,73.66 464.13,55.52 464.74,42.95 465.32,38.97 465.93,44.61 466.54,58.45 467.13,77.13 467.74,96.05 
      468.32,110.60 468.94,117.22 469.55,114.26 470.13,102.47 470.74,84.72 471.33,65.38 471.94,49.17 472.55,40.04 473.13,40.26 473.74,49.76 
      474.33,66.21 474.94,85.57 475.55,103.15 476.14,114.58 476.75,117.12 477.33,110.11 477.94,95.27 478.55,76.25 479.14,57.69 479.75,44.17 
      480.34,38.94 480.95,43.34 481.56,56.25 482.14,74.51 482.75,93.70 483.34,109.06 483.95,116.87 484.56,115.19 485.15,104.45 485.76,87.28 
      486.34,67.87 486.95,50.98 487.56,40.75 488.15,39.67 488.76,48.02 489.35,63.75 489.96,83.01 490.57,101.08 491.15,113.53 491.76,117.34 
      492.35,111.55 492.96,97.59 493.57,78.86 494.16,59.96 494.77,45.53 495.35,39.09 495.96,42.21 496.57,54.13 497.16,71.95 497.77,78.15 
      498.36,78.15 498.97,78.15 499.58,78.15 500.16,78.15 500.77,78.15 501.36,78.15 501.97,78.15 502.58,78.15 503.16,78.15 503.78,78.15 
      504.36,78.15 504.97,78.15 505.58,78.15 506.17,78.15 506.78,78.15 507.36,78.15 507.97,78.15 508.58,78.15 509.17,78.15 509.78,78.15 
      510.37,78.15 510.98,78.15 511.59,78.15 512.17,78.15 512.78,78.15 513.37,78.15 513.98,78.15 514.59,78.15 515.18,78.15 515.79,78.15 
      516.37,78.15 516.98,78.15 517.59,78.15 518.18,78.15 518.79,78.15 519.38,78.15 519.99,78.15 520.60,78.15 521.18,78.15 521.79,78.15 
      522.38,78.15 522.99,78.15 523.60,78.15 524.19,78.15 524.80,78.15 525.38,78.15 525.99,78.15 526.58,78.15 527.19,78.15 527.80,78.15 
      528.39,78.15 529.00,78.15 529.58,78.15 530.19,78.15 530.80,78.15 531.39,78.15 532.00,78.15 532.58,78.15 533.19,78.15 533.81,78.15 
      534.39,78.15 535.00,78.15 535.59,78.15 536.20,78.15 536.81,78.15 537.39,78.15 538.00,78.15 538.59,78.15 539.20,78.15 539.81,78.15 
      540.40,78.15 541.01,78.15 541.59,78.15 542.20,78.15 542.81,78.15 543.40,78.15 544.01,78.15 544.60,78.15 545.21,78.15 545.82,78.15 
      546.40,78.15 547.01,78.15 547.60,78.15 548.21,78.15 548.82,78.15 549.41,78.15 550.02,78.15 550.60,78.15 551.21,78.15 551.82,78.15 
      552.41,78.15 553.02,78.15 553.61,78.15 554.22,78.15 554.83,78.15 555.41,78.15 556.02,78.15 556.61,78.15 557.22,78.15 557.83,78.15 
      558.42,78.15 559.03,78.15 559.61,78.15 560.22,78.15 560.83,78.15 561.42,78.15 562.03,78.15 562.61,78.15 563.23,78.15 563.84,78.15 
      564.42,78.15 565.03,78.15 565.62,78.15 566.23,78.15 566.84,78.15 567.42,78.15 568.03,78.15 568.62,78.15 569.23,78.15 569.84,78.15 
      570.43,78.15 571.04,78.15 571.62,78.15 572.23,78.15 572.84,78.15 573.43,78.15 574.04,78.15 574.63,78.15 575.24,78.15 575.85,78.15 
      576.43,78.15 577.04,78.15 577.63,78.15 578.24,78.15 578.85,78.15 579.44,78.15 "/>
    <polyline
      stroke-width="1"
      stroke="#0000FF"
      stroke-opacity="1.000000"
      fill="none"
      points="579.44,78.15 580.05,78.15 580.63,78.15 581.24,78.15 581.85,78.15 582.44,78.15 583.05,78.15 583.64,78.15 584.25,78.15 584.86,78.15 
      585.44,78.15 586.05,78.15 586.64,78.15 587.25,78.15 587.86,78.15 588.45,78.15 589.06,78.15 589.64,78.15 590.25,78.15 590.86,78.15 
      591.45,78.15 592.06,78.15 592.65,78.15 593.26,78.15 593.87,78.15 594.45,78.15 595.06,78.15 595.65,78.15 596.26,78.15 596.87,78.15 
      597.45,78.15 598.07,78.15 598.65,78.15 599.26,78.15 599.87,78.15 600.46,78.15 601.07,78.15 601.65,78.15 602.26,78.15 602.87,78.15 
      603.46,78.15 604.07,78.15 604.66,78.15 605.27,78.15 605.88,78.15 606.46,78.15 607.07,78.15 607.66,78.15 608.27,78.15 608.88,78.15 
      609.47,78.15 610.08,78.15 610.66,78.15 611.27,78.15 611.88,78.15 612.47,78.15 613.08,78.15 613.67,78.15 614.28,78.15 614.89,78.15 
      615.47,78.15 616.08,78.15 616.67,78.15 617.28,78.15 617.89,78.15 618.48,78.15 619.09,78.15 619.67,78.15 620.28,78.15 620.89,78.15 
      621.48,78.15 622.09,78.15 622.68,78.15 623.29,78.15 623.90,78.15 624.48,78.15 625.09,78.15 625.68,78.15 626.29,78.15 626.90,78.15 
      627.48,78.15 628.10,78.15 628.68,78.15 629.29,78.15 629.90,78.15 630.49,78.15 631.10,78.15 631.68,78.15 632.29,78.15 632.91,78.15 
      633.49,78.15 634.10,78.15 634.69,78.15 635.30,78.15 635.91,78.15 636.49,78.15 637.10,78.15 637.69,78.15 638.30,78.15 638.91,78.15 
      639.50,78.15 640.11,78.15 640.69,78.15 641.30,78.15 641.91,78.15 642.50,78.15 643.11,78.15 643.70,78.15 644.31,78.15 644.92,78.15 
      645.50,78.15 646.11,78.15 646.70,78.15 647.31,78.15 647.92,78.15 648.51,78.15 649.12,78.15 649.70,78.15 650.31,78.15 650.92,78.15 
      651.51,78.15 652.12,78.15 652.71,78.15 653.32,78.15 653.93,78.15 654.51,78.15 655.12,78.15 655.71,78.15 656.32,78.15 656.93,78.15 
      657.52,78.15 658.13,78.15 658.71,78.15 659.32,78.15 659.91,78.15 660.52,78.15 661.13,78.15 661.71,78.15 662.32,78.15 662.91,78.15 
      663.52,78.15 664.13,78.15 664.72,78.15 665.33,78.15 665.91,78.15 666.52,78.15 667.13,78.15 667.72,78.15 668.33,78.15 668.92,78.15 
      669.53,78.15 670.14,78.15 670.72,78.15 671.33,78.15 671.92,78.15 672.53,78.15 673.14,78.15 673.73,78.15 674.34,78.15 674.92,78.15 
      675.53,78.15 676.14,78.15 676.73,78.15 677.34,78.15 677.93,78.15 678.54,78.15 679.15,78.15 679.73,78.15 680.34,78.15 680.93,78.15 
      681.54,78.15 682.15,78.15 682.74,78.15 683.35,78.15 683.93,78.15 684.54,78.15 685.15,78.15 685.74,78.15 686.35,88.28 686.94,105.23 
      687.55,115.53 688.16,116.68 688.74,108.40 689.35,92.73 689.94,73.49 690.55,55.37 691.16,42.85 691.74,38.97 692.36,44.68 692.94,58.60 
      693.55,77.30 694.16,96.19 694.75,110.70 695.36,117.22 695.94,114.19 696.55,102.32 697.16,84.55 697.75,65.21 698.36,49.05 698.95,40.02 
      699.56,40.31 700.17,49.88 700.75,66.36 701.36,85.74 701.95,103.27 702.56,114.65 703.17,117.09 703.76,109.99 704.37,95.12 704.95,76.08 
      705.56,57.55 706.17,44.07 706.76,38.94 707.37,43.41 707.96,56.37 708.57,74.68 709.18,93.85 709.76,109.18 710.37,116.90 710.96,115.14 
      711.57,104.32 712.18,87.11 712.77,67.70 713.38,50.86 713.96,40.70 714.57,39.70 715.18,48.15 715.77,63.92 716.38,83.18 716.97,101.22 
      717.58,113.63 718.19,117.34 718.77,111.45 719.38,97.42 719.97,78.69 "/>
    <clipPath
      id="text-clipping82"
      >
      <polygon
        points="0.000000,0.000000 0.000000,349.986267 800.000000,349.986267 800.000000,0.000000"
        />
    </clipPath>
    <g
      clip-path="url(#text-clipping82)"
      >
      <g
        transform="matrix(0.000000 1.000000 1.000000 -0.000000 92.410047 78.151799)"
        >
        <g
          transform="matrix(1.0 0.0 0.0 1.0 0.0 3.759176)"
          >
          <text
            dominant-baseline="no-change"
            fill="#000000"
            fill-opacity="1.000000"
            xml:space="preserve"
            font-size="9"
            text-anchor="middle"
            x="0.000000"
            y="0"
><tspan font-family="sans-serif" font-style="normal" font-weight="normal">&#x41;&#x4d;</tspan></text>
        </g>
      </g>
    </g>
    <polyline
      stroke-width="1"
      stroke="#000000"
      stroke-opacity="1.000000"
      fill="none"
      points="120.00,128.32 719.99,128.32"
      />
    <polyline
      stroke-width="1"
      stroke="#000000"
      stroke-opacity="1.000000"
      fill="none"
      points="719.99,128.32 719.99,214.65"
      />
    <polyline
      stroke-width="1"
      stroke="#000000"
      stroke-opacity="1.000000"
      fill="none"
      points="714.82,132.26 719.99,132.26"
      />
    <polyline
      stroke-width="1"
      stroke="#000000"
      stroke-opacity="1.000000"
      fill="none"
      points="714.82,171.49 719.99,171.49"
      />
    <polyline
      stroke-width="1"
      stroke="#000000"
      stroke-opacity="1.000000"
      fill="none"
      points="714.82,210.72 719.99,210.72"
      />
    <polyline
      stroke-width="1"
      stroke="#000000"
      stroke-opacity="1.000000"
      fill="none"
      points="719.99,214.65 120.00,214.65"
      />
    <polyline
      stroke-width="1"
      stroke="#000000"
      stroke-opacity="1.000000"
      fill="none"
      points="120.00,214.65 120.00,128.32"
      />
    <polyline
      stroke-width="1"
      stroke="#000000"
      stroke-opacity="1.000000"
      fill="none"
      points="120.00,210.72 125.17,210.72"
      />
    <polyline
      stroke-width="1"
      stroke="#000000"
      stroke-opacity="1.000000"
      fill="none"
      points="120.00,171.49 125.17,171.49"
      />
    <polyline
      stroke-width="1"
      stroke="#000000"
      stroke-opacity="1.000000"
      fill="none"
      points="120.00,132.26 125.17,132.26"
      />
    <clipPath
      id="text-clipping83"
      >
      <polygon
        points="0.000000,0.000000 0.000000,349.986267 800.000000,349.986267 800.000000,0.000000"
        />
    </clipPath>
    <g
      clip-path="url(#text-clipping83)"
      >
      <g
        transform="matrix(0.000000 1.000000 1.000000 -0.000000 113.089389 132.255013)"
        >
        <g
          transform="matrix(1.0 0.0 0.0 1.0 0.0 2.672784)"
          >
          <text
            dominant-baseline="no-change"
            fill="#000000"
            fill-opacity="1.000000"
            xml:space="preserve"
            font-size="6"
            text-anchor="middle"
            x="0.000000"
            y="0"
><tspan font-family="sans-serif" font-style="normal" font-weight="normal">&#x2d;&#x31;&#x2e;&#x30;</tspan></text>
        </g>
      </g>
    </g>
    <clipPath
      id="text-clipping84"
      >
      <polygon
        points="0.000000,0.000000 0.000000,349.986267 800.000000,349.986267 800.000000,0.000000"
        />
    </clipPath>
    <g
      clip-path="url(#text-clipping84)"
      >
      <g
        transform="matrix(0.000000 1.000000 1.000000 -0.000000 113.089389 171.489608)"
        >
        <g
          transform="matrix(1.0 0.0 0.0 1.0 0.0 2.672784)"
          >
          <text
            dominant-baseline="no-change"
            fill="#000000"
            fill-opacity="1.000000"
            xml:space="preserve"
            font-size="6"
            text-anchor="middle"
            x="0.000000"
            y="0"
><tspan font-family="sans-serif" font-style="normal" font-weight="normal">&#x30;&#x2e;&#x30;</tspan></text>
        </g>
      </g>
    </g>
    <clipPath
      id="text-clipping85"
      >
      <polygon
        points="0.000000,0.000000 0.000000,349.986267 800.000000,349.986267 800.000000,0.000000"
        />
    </clipPath>
    <g
      clip-path="url(#text-clipping85)"
      >
      <g
        transform="matrix(0.000000 1.000000 1.000000 -0.000000 113.089389 210.724204)"
        >
        <g
          transform="matrix(1.0 0.0 0.0 1.0 0.0 2.672784)"
          >
          <text
            dominant-baseline="no-change"
            fill="#000000"
            fill-opacity="1.000000"
            xml:space="preserve"
            font-size="6"
            text-anchor="middle"
            x="0.000000"
            y="0"
><tspan font-family="sans-serif" font-style="normal" font-weight="normal">&#x31;&#x2e;&#x30;</tspan></text>
        </g>
      </g>
    </g>
    <polyline
      stroke-width="1"
      stroke="#F03232"
      stroke-opacity="1.000000"
      fill="none"
      points="120.00,171.49 120.61,190.29 121.20,204.50 121.81,210.63 122.39,207.16 123.00,194.98 123.59,177.03 124.20,157.72 124.81,141.78 125.39,133.13 
      126.00,133.87 126.59,143.80 127.20,160.53 127.81,179.94 128.40,197.27 129.01,208.28 129.59,210.31 130.20,202.81 130.81,187.65 131.40,168.54 
      132.01,150.13 132.60,136.97 133.21,132.26 133.82,137.14 134.40,150.42 135.01,168.88 135.60,187.97 136.21,203.03 136.82,210.36 137.41,208.16 
      138.02,197.00 138.60,179.60 139.21,160.19 139.82,143.56 140.41,133.77 141.02,133.21 141.61,142.02 142.22,158.04 142.83,177.37 143.41,195.25 
      144.02,207.31 144.61,210.60 145.22,204.33 145.83,190.00 146.42,171.15 147.03,152.37 147.61,138.29 148.22,132.33 148.83,135.94 149.42,148.27 
      150.03,166.29 150.61,185.58 151.23,201.40 151.84,209.92 152.42,209.02 153.03,198.93 153.62,182.11 154.23,162.70 154.84,145.44 155.42,134.55 
      156.04,132.72 156.62,140.36 157.23,155.62 157.84,174.79 158.43,193.12 159.04,206.16 159.62,210.72 160.23,205.67 160.84,192.24 161.43,173.74 
      162.04,154.69 162.63,139.75 163.24,132.57 163.85,134.92 164.43,146.24 165.04,163.73 165.63,183.11 166.24,199.66 166.85,209.31 167.44,209.70 
      168.05,200.71 168.63,184.60 169.24,165.26 169.85,147.44 170.44,135.53 171.05,132.40 171.64,138.85 172.25,153.28 172.86,172.17 173.44,190.90 
      174.05,204.86 174.64,210.68 175.25,206.87 175.86,194.42 176.45,176.32 177.06,157.08 177.64,141.34 178.25,132.99 178.86,134.06 179.45,144.29 
      180.06,161.19 180.65,180.60 181.26,197.78 181.87,208.53 182.45,210.21 183.06,202.40 183.65,187.02 184.26,167.85 184.87,149.57 185.45,136.65 
      186.07,132.26 186.65,137.48 187.26,151.03 187.87,169.59 188.46,188.60 189.07,203.42 189.65,210.46 190.26,207.92 190.87,196.47 191.46,178.91 
      192.07,159.53 192.66,143.07 193.27,133.57 193.88,133.35 194.46,142.48 195.07,158.70 195.66,178.06 196.27,195.81 196.88,207.60 197.47,210.53 
      198.08,203.94 198.66,189.39 199.27,170.44 199.88,151.76 200.47,137.92 201.08,132.28 201.67,136.26 202.28,148.83 202.89,166.97 203.47,186.21 
      204.08,201.86 204.67,210.04 205.28,208.80 205.89,198.42 206.48,181.45 207.09,162.04 207.67,144.93 208.28,134.33 208.89,132.82 209.48,140.80 
      210.09,156.28 210.68,175.47 211.29,193.71 211.90,206.50 212.48,210.70 213.09,205.33 213.68,191.66 214.29,173.05 214.90,154.06 215.49,139.34 
      216.10,132.47 216.68,135.18 217.29,146.76 217.90,164.41 218.49,183.77 219.10,200.13 219.68,209.48 220.29,209.53 220.91,200.25 221.49,183.94 
      222.10,164.58 222.69,146.90 223.30,135.26 223.91,132.47 224.49,139.24 225.10,153.91 225.69,172.88 226.30,191.51 226.91,205.23 227.50,210.70 
      228.11,206.57 228.69,193.85 229.30,175.64 229.91,156.43 230.50,140.90 231.11,132.87 231.70,134.28 232.31,144.80 232.92,161.87 233.50,181.28 
      234.11,198.30 234.70,208.75 235.31,210.09 235.92,201.96 236.51,186.38 237.12,167.14 237.70,148.98 238.31,136.33 238.92,132.28 239.51,137.82 
      240.12,151.62 240.71,170.27 241.32,189.21 241.93,203.84 242.51,210.53 243.12,207.65 243.71,195.93 244.32,178.23 244.93,158.87 245.52,142.61 
      246.13,133.40 246.71,133.52 247.32,142.95 247.93,159.36 248.52,178.74 249.13,196.34 249.71,207.84 250.33,210.46 250.94,203.55 251.52,188.75 
      252.13,169.76 252.72,151.18 253.33,137.55 253.94,132.26 254.52,136.55 255.13,149.42 255.72,167.68 256.33,186.87 256.92,202.30 257.53,210.16 
      258.14,208.58 258.72,197.91 259.33,180.77 259.92,161.36 260.53,144.41 261.14,134.11 261.73,132.96 262.34,141.24 262.92,156.91 263.53,176.15 
      264.14,194.27 264.73,206.79 265.34,210.68 265.93,204.96 266.54,191.05 267.15,172.34 267.73,153.45 268.34,138.94 268.93,132.43 269.54,135.45 
      270.15,147.32 270.74,165.09 271.35,184.43 271.93,200.62 272.54,209.65 273.15,209.36 "/>
    <polyline
      stroke-width="1"
      stroke="#F03232"
      stroke-opacity="1.000000"
      fill="none"
      points="273.15,209.36 273.74,199.79 274.35,183.28 274.94,163.90 275.55,146.37 276.16,134.99 276.74,132.55 277.35,139.63 277.94,154.52 278.55,173.56 
      279.16,192.10 279.74,205.57 280.36,210.72 280.94,206.26 281.55,193.27 282.16,174.96 282.75,155.79 283.36,140.46 283.94,132.74 284.55,134.50 
      285.16,145.32 285.75,162.53 286.36,181.94 286.95,198.81 287.56,208.97 288.17,209.94 288.75,201.52 289.36,185.75 289.95,166.46 290.56,148.42 
      291.17,136.01 291.76,132.30 292.37,138.19 292.95,152.23 293.56,170.98 294.17,189.85 294.76,204.23 295.37,210.58 295.96,207.38 296.57,195.39 
      297.18,177.54 297.76,158.21 298.37,142.14 298.96,133.23 299.57,133.72 300.18,143.44 300.77,160.01 301.38,179.42 301.96,196.88 302.57,208.11 
      303.18,210.38 303.77,203.13 304.38,188.14 304.97,169.05 305.58,150.57 306.19,137.21 306.77,132.26 307.38,136.89 307.97,150.00 308.58,168.36 
      309.19,187.51 309.78,202.72 310.39,210.28 310.97,208.36 311.58,197.39 312.19,180.11 312.78,160.70 313.39,143.93 313.97,133.92 314.58,133.09 
      315.20,141.68 315.78,157.55 316.39,176.86 316.98,194.83 317.59,207.09 318.20,210.65 318.78,204.60 319.39,190.46 319.98,171.66 320.59,152.84 
      321.20,138.55 321.79,132.35 322.40,135.72 322.98,147.86 323.59,165.78 324.20,185.09 324.79,201.08 325.40,209.80 325.99,209.16 326.60,199.30 
      327.21,182.62 327.79,163.21 328.40,145.83 328.99,134.75 329.60,132.65 330.21,140.04 330.80,155.16 331.41,174.27 331.99,192.68 332.60,205.91 
      333.21,210.72 333.80,205.91 334.41,192.68 335.00,174.27 335.61,155.16 336.22,140.04 336.80,132.65 337.41,134.75 338.00,145.83 338.61,163.21 
      339.22,182.62 339.81,199.30 340.42,209.16 341.00,209.80 341.61,201.08 342.22,185.09 342.81,165.78 343.42,147.86 344.00,135.72 344.62,132.35 
      345.23,138.55 345.81,152.84 346.42,171.66 347.01,190.46 347.62,204.60 348.23,210.65 348.81,207.09 349.42,194.83 350.01,176.86 350.62,157.55 
      351.23,141.68 351.82,133.09 352.43,133.92 353.01,143.93 353.62,160.70 354.23,180.11 354.82,197.39 355.43,208.36 356.02,210.28 356.63,202.72 
      357.24,187.51 357.82,168.36 358.43,149.98 359.02,136.89 359.63,132.26 360.24,137.21 360.83,150.57 361.44,169.05 362.02,188.14 362.63,203.13 
      363.24,210.38 363.83,208.11 364.44,196.88 365.03,179.42 365.64,160.01 366.25,143.44 366.83,133.72 367.44,133.23 368.03,142.14 368.64,158.21 
      369.25,177.54 369.84,195.39 370.45,207.38 371.03,210.58 371.64,204.23 372.25,189.85 372.84,170.95 373.45,152.23 374.03,138.19 374.65,132.30 
      375.26,136.01 375.84,148.42 376.45,166.46 377.04,185.75 377.65,201.52 378.26,209.94 378.84,208.97 379.45,198.81 380.04,181.94 380.65,162.53 
      381.26,145.32 381.85,134.50 382.46,132.74 383.04,140.46 383.65,155.79 384.26,174.96 384.85,193.27 385.46,206.26 386.05,210.72 386.66,205.57 
      387.27,192.10 387.85,173.56 388.46,154.52 389.05,139.63 389.66,132.55 390.27,134.99 390.86,146.37 391.47,163.90 392.05,183.28 392.66,199.79 
      393.25,209.36 393.86,209.65 394.47,200.62 395.06,184.43 395.67,165.09 396.25,147.32 396.86,135.45 397.47,132.43 398.06,138.94 398.67,153.45 
      399.26,172.34 399.87,191.05 400.48,204.96 401.06,210.68 401.67,206.79 402.26,194.27 402.87,176.15 403.48,156.91 404.07,141.24 404.68,132.96 
      405.26,134.11 405.87,144.41 406.48,161.36 407.07,180.77 407.68,197.91 408.26,208.58 408.87,210.16 409.49,202.28 410.07,186.87 410.68,167.68 
      411.27,149.42 411.88,136.55 412.49,132.26 413.07,137.55 413.68,151.18 414.27,169.76 414.88,188.75 415.49,203.55 416.08,210.46 416.69,207.84 
      417.27,196.34 417.88,178.74 418.49,159.36 419.08,142.95 419.69,133.52 420.28,133.40 420.89,142.61 421.50,158.87 422.08,178.23 422.69,195.93 
      423.28,207.65 423.89,210.53 424.50,203.84 425.09,189.21 425.70,170.27 426.28,151.62 "/>
    <polyline
      stroke-width="1"
      stroke="#F03232"
      stroke-opacity="1.000000"
      fill="none"
      points="426.28,151.62 426.89,137.82 427.50,132.28 428.09,136.33 428.70,148.98 429.29,167.14 429.90,186.38 430.51,201.96 431.09,210.09 431.70,208.75 
      432.29,198.30 432.90,181.28 433.51,161.87 434.10,144.80 434.71,134.28 435.29,132.87 435.90,140.90 436.51,156.43 437.10,175.64 437.71,193.85 
      438.29,206.57 438.90,210.70 439.52,205.23 440.10,191.51 440.71,172.88 441.30,153.91 441.91,139.24 442.52,132.47 443.10,135.26 443.71,146.90 
      444.30,164.58 444.91,183.94 445.52,200.25 446.11,209.53 446.72,209.48 447.30,200.13 447.91,183.77 448.52,164.41 449.11,146.76 449.72,135.18 
      450.31,132.47 450.92,139.34 451.53,154.06 452.11,173.05 452.72,191.66 453.31,205.33 453.92,210.70 454.53,206.50 455.12,193.71 455.73,175.47 
      456.31,156.28 456.92,140.80 457.53,132.82 458.12,134.33 458.73,144.93 459.32,162.04 459.93,181.45 460.54,198.42 461.12,208.80 461.73,210.04 
      462.32,201.86 462.93,186.21 463.54,166.97 464.13,148.83 464.74,136.26 465.32,132.28 465.93,137.92 466.54,151.76 467.13,170.44 467.74,189.39 
      468.32,203.94 468.94,210.53 469.55,207.60 470.13,195.81 470.74,178.06 471.33,158.70 471.94,142.48 472.55,133.35 473.13,133.57 473.74,143.07 
      474.33,159.53 474.94,178.91 475.55,196.47 476.14,207.92 476.75,210.46 477.33,203.42 477.94,188.60 478.55,169.59 479.14,151.03 479.75,137.48 
      480.34,132.26 480.95,136.65 481.56,149.57 482.14,167.85 482.75,187.02 483.34,202.40 483.95,210.21 484.56,208.53 485.15,197.78 485.76,180.60 
      486.34,161.19 486.95,144.29 487.56,134.06 488.15,132.99 488.76,141.34 489.35,157.08 489.96,176.35 490.57,194.42 491.15,206.87 491.76,210.68 
      492.35,204.86 492.96,190.90 493.57,172.17 494.16,153.28 494.77,138.85 495.35,132.40 495.96,135.53 496.57,147.44 497.16,165.26 497.77,184.60 
      498.36,200.71 498.97,209.70 499.58,209.31 500.16,199.66 500.77,183.11 501.36,163.73 501.97,146.22 502.58,134.92 503.16,132.57 503.78,139.75 
      504.36,154.69 504.97,173.74 505.58,192.24 506.17,205.67 506.78,210.72 507.36,206.16 507.97,193.12 508.58,174.79 509.17,155.62 509.78,140.36 
      510.37,132.72 510.98,134.55 511.59,145.44 512.17,162.70 512.78,182.11 513.37,198.93 513.98,209.02 514.59,209.92 515.18,201.40 515.79,185.58 
      516.37,166.29 516.98,148.27 517.59,135.94 518.18,132.33 518.79,138.29 519.38,152.37 519.99,171.15 520.60,190.00 521.18,204.33 521.79,210.60 
      522.38,207.31 522.99,195.25 523.60,177.37 524.19,158.04 524.80,142.02 525.38,133.21 525.99,133.77 526.58,143.56 527.19,160.19 527.80,179.60 
      528.39,197.00 529.00,208.16 529.58,210.36 530.19,203.03 530.80,187.97 531.39,168.88 532.00,150.42 532.58,137.14 533.19,132.26 533.81,136.97 
      534.39,150.15 535.00,168.54 535.59,187.65 536.20,202.81 536.81,210.31 537.39,208.28 538.00,197.27 538.59,179.94 539.20,160.53 539.81,143.80 
      540.40,133.87 541.01,133.13 541.59,141.80 542.20,157.72 542.81,177.03 543.40,194.98 544.01,207.16 544.60,210.63 545.21,204.50 545.82,190.29 
      546.40,171.49 547.01,152.67 547.60,138.46 548.21,132.35 548.82,135.80 549.41,148.00 550.02,165.95 550.60,185.26 551.21,201.18 551.82,209.85 
      552.41,209.11 553.02,199.18 553.61,182.45 554.22,163.04 554.83,145.71 555.41,134.67 556.02,132.67 556.61,140.17 557.22,155.33 557.83,174.44 
      558.42,192.83 559.03,206.01 559.61,210.72 560.22,205.84 560.83,192.54 561.42,174.08 562.03,154.99 562.61,139.95 563.23,132.62 563.84,134.79 
      564.42,145.98 565.03,163.38 565.62,182.79 566.23,199.42 566.84,209.21 567.42,209.77 568.03,200.96 568.62,184.92 569.23,165.61 569.84,147.73 
      570.43,135.67 571.04,132.38 571.62,138.65 572.23,152.98 572.84,171.83 573.43,190.61 574.04,204.69 574.63,210.65 575.24,207.01 575.85,194.68 
      576.43,176.69 577.04,157.40 577.63,141.56 578.24,133.06 578.85,133.96 579.44,144.05 "/>
    <polyline
      stroke-width="1"
      stroke="#F03232"
      stroke-opacity="1.000000"
      fill="none"
      points="579.44,144.05 580.05,160.84 580.63,180.28 581.24,197.54 581.85,208.40 582.44,210.26 583.05,202.62 583.64,187.33 584.25,168.19 584.86,149.86 
      585.44,136.80 586.05,132.26 586.64,137.31 587.25,150.74 587.86,169.24 588.45,188.29 589.06,203.23 589.64,210.41 590.25,208.04 590.86,196.73 
      591.45,179.25 592.06,159.84 592.65,143.31 593.26,133.67 593.87,133.28 594.45,142.24 595.06,158.38 595.65,177.72 596.26,195.51 596.87,207.45 
      597.45,210.58 598.07,204.13 598.65,189.68 599.26,170.78 599.87,152.06 600.46,138.09 601.07,132.30 601.65,136.09 602.26,148.56 602.87,166.63 
      603.46,185.89 604.07,201.64 604.66,209.99 605.27,208.92 605.88,198.66 606.46,181.79 607.07,162.36 607.66,145.19 608.27,134.45 608.88,132.77 
      609.47,140.58 610.08,155.96 610.66,175.13 611.27,193.41 611.88,206.33 612.47,210.72 613.08,205.50 613.67,191.95 614.28,173.39 614.89,154.37 
      615.47,139.53 616.08,132.52 616.67,135.06 617.28,146.49 617.89,164.07 618.48,183.45 619.09,199.91 619.67,209.41 620.28,209.60 620.89,200.49 
      621.48,184.26 622.09,164.92 622.68,147.17 623.29,135.38 623.90,132.43 624.48,139.04 625.09,153.59 625.68,172.54 626.29,191.22 626.90,205.06 
      627.48,210.70 628.10,206.72 628.68,194.12 629.29,175.98 629.90,156.74 630.49,141.12 631.10,132.91 631.68,134.16 632.29,144.56 632.91,161.53 
      633.49,180.94 634.10,198.05 634.69,208.65 635.30,210.14 635.91,202.18 636.49,186.70 637.10,167.51 637.69,149.27 638.30,136.48 638.91,132.26 
      639.50,137.65 640.11,151.32 640.69,169.93 641.30,188.92 641.91,203.64 642.50,210.48 643.11,207.79 643.70,196.20 644.31,178.57 644.92,159.18 
      645.50,142.83 646.11,133.48 646.70,133.45 647.31,142.70 647.92,159.04 648.51,178.40 649.12,196.08 649.70,207.72 650.31,210.50 650.92,203.74 
      651.51,189.07 652.12,170.10 652.71,151.47 653.32,137.72 653.93,132.28 654.51,136.41 655.12,149.13 655.71,167.34 656.32,186.55 656.93,202.08 
      657.52,210.11 658.13,208.70 658.71,198.17 659.32,181.11 659.91,161.70 660.52,144.68 661.13,134.21 661.71,132.89 662.32,141.02 662.91,156.60 
      663.52,175.81 664.13,193.98 664.72,206.65 665.33,210.70 665.91,205.16 666.52,191.36 667.13,172.71 667.72,153.74 668.33,139.14 668.92,132.45 
      669.53,135.31 670.14,147.05 670.72,164.75 671.33,184.11 671.92,200.37 672.53,209.58 673.14,209.43 673.73,200.03 674.34,183.60 674.92,164.24 
      675.53,146.64 676.14,135.11 676.73,132.50 677.34,139.43 677.93,154.20 678.54,173.22 679.15,191.80 679.73,205.40 680.34,210.72 680.93,206.40 
      681.54,193.56 682.15,175.30 682.74,156.11 683.35,140.68 683.93,132.79 684.54,134.38 685.15,145.05 685.74,162.21 686.35,181.62 686.94,198.54 
      687.55,208.87 688.16,210.02 688.74,201.74 689.35,186.07 689.94,166.80 690.55,148.71 691.16,136.19 691.74,132.30 692.36,138.02 692.94,151.91 
      693.55,170.61 694.16,189.53 694.75,204.03 695.36,210.55 695.94,207.53 696.55,195.66 697.16,177.89 697.75,158.53 698.36,142.36 698.95,133.33 
      699.56,133.62 700.17,143.19 700.75,159.70 701.36,179.08 701.95,196.61 702.56,207.99 703.17,210.43 703.76,203.33 704.37,188.43 704.95,169.39 
      705.56,150.86 706.17,137.38 706.76,132.26 707.37,136.72 707.96,149.71 708.57,168.02 709.18,187.19 709.76,202.50 710.37,210.24 710.96,208.48 
      711.57,197.66 712.18,180.43 712.77,161.02 713.38,144.17 713.96,134.01 714.57,133.01 715.18,141.46 715.77,157.23 716.38,176.52 716.97,194.56 
      717.58,206.94 718.19,210.65 718.77,204.79 719.38,190.75 719.97,172.00 "/>
    <clipPath
      id="text-clipping86"
      >
      <polygon
        points="0.000000,0.000000 0.000000,349.986267 800.000000,349.986267 800.000000,0.000000"
        />
    </clipPath>
    <g
      clip-path="url(#text-clipping86)"
      >
      <g
        transform="matrix(0.000000 1.000000 1.000000 -0.000000 92.410047 171.489608)"
        >
        <g
          transform="matrix(1.0 0.0 0.0 1.0 0.0 3.759176)"
          >
          <text
            dominant-baseline="no-change"
            fill="#000000"
            fill-opacity="1.000000"
            xml:space="preserve"
            font-size="9"
            text-anchor="middle"
            x="0.000000"
            y="0"
><tspan font-family="sans-serif" font-style="normal" font-weight="normal">&#x43;&#x61;&#x72;&#x72;&#x69;&#x65;&#x72;</tspan></text>
        </g>
      </g>
    </g>
    <polyline
      stroke-width="1"
      stroke="#000000"
      stroke-opacity="1.000000"
      fill="none"
      points="120.00,221.66 719.99,221.66"
      />
    <polyline
      stroke-width="1"
      stroke="#000000"
      stroke-opacity="1.000000"
      fill="none"
      points="719.99,221.66 719.99,307.99"
      />
    <polyline
      stroke-width="1"
      stroke="#000000"
      stroke-opacity="1.000000"
      fill="none"
      points="714.82,225.59 719.99,225.59"
      />
    <polyline
      stroke-width="1"
      stroke="#000000"
      stroke-opacity="1.000000"
      fill="none"
      points="714.82,264.83 719.99,264.83"
      />
    <polyline
      stroke-width="1"
      stroke="#000000"
      stroke-opacity="1.000000"
      fill="none"
      points="714.82,304.06 719.99,304.06"
      />
    <polyline
      stroke-width="1"
      stroke="#000000"
      stroke-opacity="1.000000"
      fill="none"
      points="719.99,307.99 120.00,307.99"
      />
    <polyline
      stroke-width="1"
      stroke="#000000"
      stroke-opacity="1.000000"
      fill="none"
      points="120.00,307.99 120.00,221.66"
      />
    <polyline
      stroke-width="1"
      stroke="#000000"
      stroke-opacity="1.000000"
      fill="none"
      points="120.00,304.06 125.17,304.06"
      />
    <polyline
      stroke-width="1"
      stroke="#000000"
      stroke-opacity="1.000000"
      fill="none"
      points="120.00,264.83 125.17,264.83"
      />
    <polyline
      stroke-width="1"
      stroke="#000000"
      stroke-opacity="1.000000"
      fill="none"
      points="120.00,225.59 125.17,225.59"
      />
    <clipPath
      id="text-clipping87"
      >
      <polygon
        points="0.000000,0.000000 0.000000,349.986267 800.000000,349.986267 800.000000,0.000000"
        />
    </clipPath>
    <g
      clip-path="url(#text-clipping87)"
      >
      <g
        transform="matrix(0.000000 1.000000 1.000000 -0.000000 113.089389 225.592822)"
        >
        <g
          transform="matrix(1.0 0.0 0.0 1.0 0.0 2.672784)"
          >
          <text
            dominant-baseline="no-change"
            fill="#000000"
            fill-opacity="1.000000"
            xml:space="preserve"
            font-size="6"
            text-anchor="middle"
            x="0.000000"
            y="0"
><tspan font-family="sans-serif" font-style="normal" font-weight="normal">&#x30;&#x2e;&#x30;</tspan></text>
        </g>
      </g>
    </g>
    <clipPath
      id="text-clipping88"
      >
      <polygon
        points="0.000000,0.000000 0.000000,349.986267 800.000000,349.986267 800.000000,0.000000"
        />
    </clipPath>
    <g
      clip-path="url(#text-clipping88)"
      >
      <g
        transform="matrix(0.000000 1.000000 1.000000 -0.000000 113.089389 264.827418)"
        >
        <g
          transform="matrix(1.0 0.0 0.0 1.0 0.0 2.672784)"
          >
          <text
            dominant-baseline="no-change"
            fill="#000000"
            fill-opacity="1.000000"
            xml:space="preserve"
            font-size="6"
            text-anchor="middle"
            x="0.000000"
            y="0"
><tspan font-family="sans-serif" font-style="normal" font-weight="normal">&#x30;&#x2e;&#x35;</tspan></text>
        </g>
      </g>
    </g>
    <clipPath
      id="text-clipping89"
      >
      <polygon
        points="0.000000,0.000000 0.000000,349.986267 800.000000,349.986267 800.000000,0.000000"
        />
    </clipPath>
    <g
      clip-path="url(#text-clipping89)"
      >
      <g
        transform="matrix(0.000000 1.000000 1.000000 -0.000000 113.089389 304.062014)"
        >
        <g
          transform="matrix(1.0 0.0 0.0 1.0 0.0 2.672784)"
          >
          <text
            dominant-baseline="no-change"
            fill="#000000"
            fill-opacity="1.000000"
            xml:space="preserve"
            font-size="6"
            text-anchor="middle"
            x="0.000000"
            y="0"
><tspan font-family="sans-serif" font-style="normal" font-weight="normal">&#x31;&#x2e;&#x30;</tspan></text>
        </g>
      </g>
    </g>
    <polyline
      stroke-width="1"
      stroke="#000000"
      stroke-opacity="1.000000"
      fill="none"
      points="120.00,225.59 120.61,225.59 121.20,225.59 121.81,225.59 122.39,225.59 123.00,225.59 123.59,225.59 124.20,225.59 124.81,225.59 125.39,225.59 
      126.00,225.59 126.59,225.59 127.20,225.59 127.81,225.59 128.40,225.59 129.01,225.59 129.59,225.59 130.20,225.59 130.81,225.59 131.40,225.59 
      132.01,225.59 132.60,225.59 133.21,225.59 133.82,225.59 134.40,225.59 135.01,225.59 135.60,225.59 136.21,225.59 136.82,225.59 137.41,225.59 
      138.02,225.59 138.60,225.59 139.21,225.59 139.82,225.59 140.41,225.59 141.02,225.59 141.61,225.59 142.22,225.59 142.83,225.59 143.41,225.59 
      144.02,225.59 144.61,225.59 145.22,225.59 145.83,225.59 146.42,225.59 147.03,225.59 147.61,225.59 148.22,225.59 148.83,225.59 149.42,225.59 
      150.03,225.59 150.61,225.59 151.23,225.59 151.84,225.59 152.42,225.59 153.03,225.59 153.62,225.59 154.23,225.59 154.84,225.59 155.42,225.59 
      156.04,225.59 156.62,225.59 157.23,225.59 157.84,225.59 158.43,225.59 159.04,225.59 159.62,225.59 160.23,225.59 160.84,225.59 161.43,225.59 
      162.04,225.59 162.63,225.59 163.24,225.59 163.85,225.59 164.43,225.59 165.04,225.59 165.63,225.59 166.24,225.59 166.85,225.59 167.44,225.59 
      168.05,225.59 168.63,225.59 169.24,225.59 169.85,225.59 170.44,225.59 171.05,225.59 171.64,225.59 172.25,225.59 172.86,225.59 173.44,225.59 
      174.05,225.59 174.64,225.59 175.25,225.59 175.86,225.59 176.45,225.59 177.06,225.59 177.64,225.59 178.25,225.59 178.86,225.59 179.45,225.59 
      180.06,225.59 180.65,225.59 181.26,225.59 181.87,225.59 182.45,225.59 183.06,225.59 183.65,225.59 184.26,225.59 184.87,225.59 185.45,225.59 
      186.07,225.59 186.65,225.59 187.26,225.59 187.87,225.59 188.46,225.59 189.07,225.59 189.65,225.59 190.26,225.59 190.87,225.59 191.46,225.59 
      192.07,225.59 192.66,225.59 193.27,225.59 193.88,225.59 194.46,225.59 195.07,225.59 195.66,225.59 196.27,225.59 196.88,225.59 197.47,225.59 
      198.08,225.59 198.66,225.59 199.27,225.59 199.88,225.59 200.47,225.59 201.08,225.59 201.67,225.59 202.28,225.59 202.89,225.59 203.47,225.59 
      204.08,225.59 204.67,225.59 205.28,225.59 205.89,225.59 206.48,225.59 207.09,225.59 207.67,225.59 208.28,225.59 208.89,225.59 209.48,225.59 
      210.09,225.59 210.68,225.59 211.29,225.59 211.90,225.59 212.48,225.59 213.09,225.59 213.68,225.59 214.29,225.59 214.90,225.59 215.49,225.59 
      216.10,225.59 216.68,225.59 217.29,225.59 217.90,225.59 218.49,225.59 219.10,225.59 219.68,225.59 220.29,225.59 220.91,225.59 221.49,225.59 
      222.10,225.59 222.69,225.59 223.30,225.59 223.91,225.59 224.49,225.59 225.10,225.59 225.69,225.59 226.30,225.59 226.91,225.59 227.50,225.59 
      228.11,225.59 228.69,225.59 229.30,225.59 229.91,225.59 230.50,225.59 231.11,225.59 231.70,225.59 232.31,225.59 232.92,225.59 233.50,225.59 
      234.11,225.59 234.70,225.59 235.31,225.59 235.92,225.59 236.51,225.59 237.12,225.59 237.70,225.59 238.31,225.59 238.92,225.59 239.51,225.59 
      240.12,225.59 240.71,225.59 241.32,225.59 241.93,225.59 242.51,225.59 243.12,225.59 243.71,225.59 244.32,225.59 244.93,225.59 245.52,225.59 
      246.13,225.59 246.71,225.59 247.32,225.59 247.93,225.59 248.52,225.59 249.13,225.59 249.71,225.59 250.33,225.59 250.94,225.59 251.52,225.59 
      252.13,225.59 252.72,225.59 253.33,225.59 253.94,225.59 254.52,225.59 255.13,225.59 255.72,225.59 256.33,225.59 256.92,225.59 257.53,225.59 
      258.14,225.59 258.72,225.59 259.33,225.59 259.92,225.59 260.53,225.59 261.14,225.59 261.73,225.59 262.34,225.59 262.92,225.59 263.53,225.59 
      264.14,225.59 264.73,225.59 265.34,225.59 265.93,225.59 266.54,225.59 267.15,225.59 267.73,225.59 268.34,225.59 268.93,225.59 269.54,225.59 
      270.15,225.59 270.74,225.59 271.35,225.59 271.93,225.59 272.54,225.59 273.15,225.59 "/>
    <polyline
      stroke-width="1"
      stroke="#000000"
      stroke-opacity="1.000000"
      fill="none"
      points="273.15,225.59 273.74,225.59 274.35,225.59 274.94,225.59 275.55,225.59 276.16,225.59 276.74,225.59 277.35,225.59 277.94,225.59 278.55,225.59 
      279.16,225.59 279.74,225.59 280.36,225.59 280.94,225.59 281.55,225.59 282.16,225.59 282.75,225.59 283.36,225.59 283.94,225.59 284.55,225.59 
      285.16,225.59 285.75,225.59 286.36,225.59 286.95,225.59 287.56,225.59 288.17,225.59 288.75,225.59 289.36,225.59 289.95,225.59 290.56,225.59 
      291.17,225.59 291.76,225.59 292.37,225.59 292.95,225.59 293.56,225.59 294.17,225.59 294.76,225.59 295.37,225.59 295.96,225.59 296.57,225.59 
      297.18,225.59 297.76,225.59 298.37,225.59 298.96,225.59 299.57,225.59 300.18,225.59 300.77,225.59 301.38,225.59 301.96,225.59 302.57,225.59 
      303.18,225.59 303.77,225.59 304.38,225.59 304.97,225.59 305.58,225.59 306.19,225.59 306.77,225.59 307.38,225.59 307.97,225.59 308.58,225.59 
      309.19,304.06 309.78,304.06 310.39,304.06 310.97,304.06 311.58,304.06 312.19,304.06 312.78,304.06 313.39,304.06 313.97,304.06 314.58,304.06 
      315.20,304.06 315.78,304.06 316.39,304.06 316.98,304.06 317.59,304.06 318.20,304.06 318.78,304.06 319.39,304.06 319.98,304.06 320.59,304.06 
      321.20,304.06 321.79,304.06 322.40,304.06 322.98,304.06 323.59,304.06 324.20,304.06 324.79,304.06 325.40,304.06 325.99,304.06 326.60,304.06 
      327.21,304.06 327.79,304.06 328.40,304.06 328.99,304.06 329.60,304.06 330.21,304.06 330.80,304.06 331.41,304.06 331.99,304.06 332.60,304.06 
      333.21,304.06 333.80,304.06 334.41,304.06 335.00,304.06 335.61,304.06 336.22,304.06 336.80,304.06 337.41,304.06 338.00,304.06 338.61,304.06 
      339.22,304.06 339.81,304.06 340.42,304.06 341.00,304.06 341.61,304.06 342.22,304.06 342.81,304.06 343.42,304.06 344.00,304.06 344.62,304.06 
      345.23,304.06 345.81,304.06 346.42,304.06 347.01,304.06 347.62,304.06 348.23,304.06 348.81,304.06 349.42,304.06 350.01,304.06 350.62,304.06 
      351.23,304.06 351.82,304.06 352.43,304.06 353.01,304.06 353.62,304.06 354.23,304.06 354.82,304.06 355.43,304.06 356.02,304.06 356.63,304.06 
      357.24,304.06 357.82,304.06 358.43,304.06 359.02,304.06 359.63,304.06 360.24,304.06 360.83,304.06 361.44,304.06 362.02,304.06 362.63,304.06 
      363.24,304.06 363.83,304.06 364.44,304.06 365.03,304.06 365.64,304.06 366.25,304.06 366.83,304.06 367.44,304.06 368.03,304.06 368.64,304.06 
      369.25,304.06 369.84,304.06 370.45,304.06 371.03,304.06 371.64,304.06 372.25,304.06 372.84,304.06 373.45,304.06 374.03,304.06 374.65,304.06 
      375.26,304.06 375.84,304.06 376.45,304.06 377.04,304.06 377.65,304.06 378.26,304.06 378.84,304.06 379.45,304.06 380.04,304.06 380.65,304.06 
      381.26,304.06 381.85,304.06 382.46,304.06 383.04,304.06 383.65,304.06 384.26,304.06 384.85,304.06 385.46,304.06 386.05,304.06 386.66,304.06 
      387.27,304.06 387.85,304.06 388.46,304.06 389.05,304.06 389.66,304.06 390.27,304.06 390.86,304.06 391.47,304.06 392.05,304.06 392.66,304.06 
      393.25,304.06 393.86,304.06 394.47,304.06 395.06,304.06 395.67,304.06 396.25,304.06 396.86,304.06 397.47,304.06 398.06,304.06 398.67,304.06 
      399.26,304.06 399.87,304.06 400.48,304.06 401.06,304.06 401.67,304.06 402.26,304.06 402.87,304.06 403.48,304.06 404.07,304.06 404.68,304.06 
      405.26,304.06 405.87,304.06 406.48,304.06 407.07,304.06 407.68,304.06 408.26,304.06 408.87,304.06 409.49,304.06 410.07,304.06 410.68,304.06 
      411.27,304.06 411.88,304.06 412.49,304.06 413.07,304.06 413.68,304.06 414.27,304.06 414.88,304.06 415.49,304.06 416.08,304.06 416.69,304.06 
      417.27,304.06 417.88,304.06 418.49,304.06 419.08,304.06 419.69,304.06 420.28,304.06 420.89,304.06 421.50,304.06 422.08,304.06 422.69,304.06 
      423.28,304.06 423.89,304.06 424.50,304.06 425.09,304.06 425.70,304.06 426.28,304.06 "/>
    <polyline
      stroke-width="1"
      stroke="#000000"
      stroke-opacity="1.000000"
      fill="none"
      points="426.28,304.06 426.89,304.06 427.50,304.06 428.09,304.06 428.70,304.06 429.29,304.06 429.90,304.06 430.51,304.06 431.09,304.06 431.70,304.06 
      432.29,304.06 432.90,304.06 433.51,304.06 434.10,304.06 434.71,304.06 435.29,304.06 435.90,304.06 436.51,304.06 437.10,304.06 437.71,304.06 
      438.29,304.06 438.90,304.06 439.52,304.06 440.10,304.06 440.71,304.06 441.30,304.06 441.91,304.06 442.52,304.06 443.10,304.06 443.71,304.06 
      444.30,304.06 444.91,304.06 445.52,304.06 446.11,304.06 446.72,304.06 447.30,304.06 447.91,304.06 448.52,304.06 449.11,304.06 449.72,304.06 
      450.31,304.06 450.92,304.06 451.53,304.06 452.11,304.06 452.72,304.06 453.31,304.06 453.92,304.06 454.53,304.06 455.12,304.06 455.73,304.06 
      456.31,304.06 456.92,304.06 457.53,304.06 458.12,304.06 458.73,304.06 459.32,304.06 459.93,304.06 460.54,304.06 461.12,304.06 461.73,304.06 
      462.32,304.06 462.93,304.06 463.54,304.06 464.13,304.06 464.74,304.06 465.32,304.06 465.93,304.06 466.54,304.06 467.13,304.06 467.74,304.06 
      468.32,304.06 468.94,304.06 469.55,304.06 470.13,304.06 470.74,304.06 471.33,304.06 471.94,304.06 472.55,304.06 473.13,304.06 473.74,304.06 
      474.33,304.06 474.94,304.06 475.55,304.06 476.14,304.06 476.75,304.06 477.33,304.06 477.94,304.06 478.55,304.06 479.14,304.06 479.75,304.06 
      480.34,304.06 480.95,304.06 481.56,304.06 482.14,304.06 482.75,304.06 483.34,304.06 483.95,304.06 484.56,304.06 485.15,304.06 485.76,304.06 
      486.34,304.06 486.95,304.06 487.56,304.06 488.15,304.06 488.76,304.06 489.35,304.06 489.96,304.06 490.57,304.06 491.15,304.06 491.76,304.06 
      492.35,304.06 492.96,304.06 493.57,304.06 494.16,304.06 494.77,304.06 495.35,304.06 495.96,304.06 496.57,304.06 497.16,304.06 497.77,225.59 
      498.36,225.59 498.97,225.59 499.58,225.59 500.16,225.59 500.77,225.59 501.36,225.59 501.97,225.59 502.58,225.59 503.16,225.59 503.78,225.59 
      504.36,225.59 504.97,225.59 505.58,225.59 506.17,225.59 506.78,225.59 507.36,225.59 507.97,225.59 508.58,225.59 509.17,225.59 509.78,225.59 
      510.37,225.59 510.98,225.59 511.59,225.59 512.17,225.59 512.78,225.59 513.37,225.59 513.98,225.59 514.59,225.59 515.18,225.59 515.79,225.59 
      516.37,225.59 516.98,225.59 517.59,225.59 518.18,225.59 518.79,225.59 519.38,225.59 519.99,225.59 520.60,225.59 521.18,225.59 521.79,225.59 
      522.38,225.59 522.99,225.59 523.60,225.59 524.19,225.59 524.80,225.59 525.38,225.59 525.99,225.59 526.58,225.59 527.19,225.59 527.80,225.59 
      528.39,225.59 529.00,225.59 529.58,225.59 530.19,225.59 530.80,225.59 531.39,225.59 532.00,225.59 532.58,225.59 533.19,225.59 533.81,225.59 
      534.39,225.59 535.00,225.59 535.59,225.59 536.20,225.59 536.81,225.59 537.39,225.59 538.00,225.59 538.59,225.59 539.20,225.59 539.81,225.59 
      540.40,225.59 541.01,225.59 541.59,225.59 542.20,225.59 542.81,225.59 543.40,225.59 544.01,225.59 544.60,225.59 545.21,225.59 545.82,225.59 
      546.40,225.59 547.01,225.59 547.60,225.59 548.21,225.59 548.82,225.59 549.41,225.59 550.02,225.59 550.60,225.59 551.21,225.59 551.82,225.59 
      552.41,225.59 553.02,225.59 553.61,225.59 554.22,225.59 554.83,225.59 555.41,225.59 556.02,225.59 556.61,225.59 557.22,225.59 557.83,225.59 
      558.42,225.59 559.03,225.59 559.61,225.59 560.22,225.59 560.83,225.59 561.42,225.59 562.03,225.59 562.61,225.59 563.23,225.59 563.84,225.59 
      564.42,225.59 565.03,225.59 565.62,225.59 566.23,225.59 566.84,225.59 567.42,225.59 568.03,225.59 568.62,225.59 569.23,225.59 569.84,225.59 
      570.43,225.59 571.04,225.59 571.62,225.59 572.23,225.59 572.84,225.59 573.43,225.59 574.04,225.59 574.63,225.59 575.24,225.59 575.85,225.59 
      576.43,225.59 577.04,225.59 577.63,225.59 578.24,225.59 578.85,225.59 579.44,225.59 "/>
    <polyline
      stroke-width="1"
      stroke="#000000"
      stroke-opacity="1.000000"
      fill="none"
      points="579.44,225.59 580.05,225.59 580.63,225.59 581.24,225.59 581.85,225.59 582.44,225.59 583.05,225.59 583.64,225.59 584.25,225.59 584.86,225.59 
      585.44,225.59 586.05,225.59 586.64,225.59 587.25,225.59 587.86,225.59 588.45,225.59 589.06,225.59 589.64,225.59 590.25,225.59 590.86,225.59 
      591.45,225.59 592.06,225.59 592.65,225.59 593.26,225.59 593.87,225.59 594.45,225.59 595.06,225.59 595.65,225.59 596.26,225.59 596.87,225.59 
      597.45,225.59 598.07,225.59 598.65,225.59 599.26,225.59 599.87,225.59 600.46,225.59 601.07,225.59 601.65,225.59 602.26,225.59 602.87,225.59 
      603.46,225.59 604.07,225.59 604.66,225.59 605.27,225.59 605.88,225.59 606.46,225.59 607.07,225.59 607.66,225.59 608.27,225.59 608.88,225.59 
      609.47,225.59 610.08,225.59 610.66,225.59 611.27,225.59 611.88,225.59 612.47,225.59 613.08,225.59 613.67,225.59 614.28,225.59 614.89,225.59 
      615.47,225.59 616.08,225.59 616.67,225.59 617.28,225.59 617.89,225.59 618.48,225.59 619.09,225.59 619.67,225.59 620.28,225.59 620.89,225.59 
      621.48,225.59 622.09,225.59 622.68,225.59 623.29,225.59 623.90,225.59 624.48,225.59 625.09,225.59 625.68,225.59 626.29,225.59 626.90,225.59 
      627.48,225.59 628.10,225.59 628.68,225.59 629.29,225.59 629.90,225.59 630.49,225.59 631.10,225.59 631.68,225.59 632.29,225.59 632.91,225.59 
      633.49,225.59 634.10,225.59 634.69,225.59 635.30,225.59 635.91,225.59 636.49,225.59 637.10,225.59 637.69,225.59 638.30,225.59 638.91,225.59 
      639.50,225.59 640.11,225.59 640.69,225.59 641.30,225.59 641.91,225.59 642.50,225.59 643.11,225.59 643.70,225.59 644.31,225.59 644.92,225.59 
      645.50,225.59 646.11,225.59 646.70,225.59 647.31,225.59 647.92,225.59 648.51,225.59 649.12,225.59 649.70,225.59 650.31,225.59 650.92,225.59 
      651.51,225.59 652.12,225.59 652.71,225.59 653.32,225.59 653.93,225.59 654.51,225.59 655.12,225.59 655.71,225.59 656.32,225.59 656.93,225.59 
      657.52,225.59 658.13,225.59 658.71,225.59 659.32,225.59 659.91,225.59 660.52,225.59 661.13,225.59 661.71,225.59 662.32,225.59 662.91,225.59 
      663.52,225.59 664.13,225.59 664.72,225.59 665.33,225.59 665.91,225.59 666.52,225.59 667.13,225.59 667.72,225.59 668.33,225.59 668.92,225.59 
      669.53,225.59 670.14,225.59 670.72,225.59 671.33,225.59 671.92,225.59 672.53,225.59 673.14,225.59 673.73,225.59 674.34,225.59 674.92,225.59 
      675.53,225.59 676.14,225.59 676.73,225.59 677.34,225.59 677.93,225.59 678.54,225.59 679.15,225.59 679.73,225.59 680.34,225.59 680.93,225.59 
      681.54,225.59 682.15,225.59 682.74,225.59 683.35,225.59 683.93,225.59 684.54,225.59 685.15,225.59 685.74,225.59 686.35,304.06 686.94,304.06 
      687.55,304.06 688.16,304.06 688.74,304.06 689.35,304.06 689.94,304.06 690.55,304.06 691.16,304.06 691.74,304.06 692.36,304.06 692.94,304.06 
      693.55,304.06 694.16,304.06 694.75,304.06 695.36,304.06 695.94,304.06 696.55,304.06 697.16,304.06 697.75,304.06 698.36,304.06 698.95,304.06 
      699.56,304.06 700.17,304.06 700.75,304.06 701.36,304.06 701.95,304.06 702.56,304.06 703.17,304.06 703.76,304.06 704.37,304.06 704.95,304.06 
      705.56,304.06 706.17,304.06 706.76,304.06 707.37,304.06 707.96,304.06 708.57,304.06 709.18,304.06 709.76,304.06 710.37,304.06 710.96,304.06 
      711.57,304.06 712.18,304.06 712.77,304.06 713.38,304.06 713.96,304.06 714.57,304.06 715.18,304.06 715.77,304.06 716.38,304.06 716.97,304.06 
      717.58,304.06 718.19,304.06 718.77,304.06 719.38,304.06 719.97,304.06 "/>
    <clipPath
      id="text-clipping90"
      >
      <polygon
        points="0.000000,0.000000 0.000000,349.986267 800.000000,349.986267 800.000000,0.000000"
        />
    </clipPath>
    <g
      clip-path="url(#text-clipping90)"
      >
      <g
        transform="matrix(0.000000 1.000000 1.000000 -0.000000 92.410047 264.827418)"
        >
        <g
          transform="matrix(1.0 0.0 0.0 1.0 0.0 3.759176)"
          >
          <text
            dominant-baseline="no-change"
            fill="#000000"
            fill-opacity="1.000000"
            xml:space="preserve"
            font-size="9"
            text-anchor="middle"
            x="0.000000"
            y="0"
><tspan font-family="sans-serif" font-style="normal" font-weight="normal">&#x53;&#x71;&#x75;&#x61;&#x72;&#x65;&#x2d;&#x57;&#x61;&#x76;&#x65;&#x20;&#x53;&#x69;&#x67;&#x6e;&#x61;&#x6c;</tspan></text>
        </g>
      </g>
    </g>
  </g>
</svg>
