<?xml version="1.0" encoding="UTF-8"?>
<!DOCTYPE svg PUBLIC "-//W3C//DTD SVG 1.1//EN"
        "http://www.w3.org/Graphics/SVG/1.1/DTD/svg11.dtd">
<svg
  xmlns="http://www.w3.org/2000/svg"
  xmlns:xlink="http://www.w3.org/1999/xlink"
  version="1.1"
  width="800pt"
  height="350pt"
  viewBox="0 0 800 350"
  >
  <rect
    x="0"
    y="0"
    width="800"
    height="350"
    stroke="none"
    fill="#FFFFFF"
    fill-opacity="1.000000"
    />
  <g
    transform="matrix(1 0 0 -1 0 350)"
    >
    <polyline
      stroke-width="1"
      stroke="#000000"
      stroke-opacity="1.000000"
      fill="none"
      points="120.00,35.01 719.99,35.01"
      />
    <polyline
      stroke-width="1"
      stroke="#000000"
      stroke-opacity="1.000000"
      fill="none"
      points="120.00,35.01 120.00,40.19"
      />
    <polyline
      stroke-width="1"
      stroke="#000000"
      stroke-opacity="1.000000"
      fill="none"
      points="150.03,35.01 150.03,39.33"
      />
    <polyline
      stroke-width="1"
      stroke="#000000"
      stroke-opacity="1.000000"
      fill="none"
      points="180.06,35.01 180.06,39.33"
      />
    <polyline
      stroke-width="1"
      stroke="#000000"
      stroke-opacity="1.000000"
      fill="none"
      points="210.09,35.01 210.09,39.33"
      />
    <polyline
      stroke-width="1"
      stroke="#000000"
      stroke-opacity="1.000000"
      fill="none"
      points="240.12,35.01 240.12,40.19"
      />
    <polyline
      stroke-width="1"
      stroke="#000000"
      stroke-opacity="1.000000"
      fill="none"
      points="270.15,35.01 270.15,39.33"
      />
    <polyline
      stroke-width="1"
      stroke="#000000"
      stroke-opacity="1.000000"
      fill="none"
      points="300.18,35.01 300.18,39.33"
      />
    <polyline
      stroke-width="1"
      stroke="#000000"
      stroke-opacity="1.000000"
      fill="none"
      points="330.21,35.01 330.21,39.33"
      />
    <polyline
      stroke-width="1"
      stroke="#000000"
      stroke-opacity="1.000000"
      fill="none"
      points="360.24,35.01 360.24,40.19"
      />
    <polyline
      stroke-width="1"
      stroke="#000000"
      stroke-opacity="1.000000"
      fill="none"
      points="390.27,35.01 390.27,39.33"
      />
    <polyline
      stroke-width="1"
      stroke="#000000"
      stroke-opacity="1.000000"
      fill="none"
      points="420.28,35.01 420.28,39.33"
      />
    <polyline
      stroke-width="1"
      stroke="#000000"
      stroke-opacity="1.000000"
      fill="none"
      points="450.31,35.01 450.31,39.33"
      />
    <polyline
      stroke-width="1"
      stroke="#000000"
      stroke-opacity="1.000000"
      fill="none"
      points="480.34,35.01 480.34,40.19"
      />
    <polyline
      stroke-width="1"
      stroke="#000000"
      stroke-opacity="1.000000"
      fill="none"
      points="510.37,35.01 510.37,39.33"
      />
    <polyline
      stroke-width="1"
      stroke="#000000"
      stroke-opacity="1.000000"
      fill="none"
      points="540.40,35.01 540.40,39.33"
      />
    <polyline
      stroke-width="1"
      stroke="#000000"
      stroke-opacity="1.000000"
      fill="none"
      points="570.43,35.01 570.43,39.33"
      />
    <polyline
      stroke-width="1"
      stroke="#000000"
      stroke-opacity="1.000000"
      fill="none"
      points="600.46,35.01 600.46,40.19"
      />
    <polyline
      stroke-width="1"
      stroke="#000000"
      stroke-opacity="1.000000"
      fill="none"
      points="630.49,35.01 630.49,39.33"
      />
    <polyline
      stroke-width="1"
      stroke="#000000"
      stroke-opacity="1.000000"
      fill="none"
      points="660.52,35.01 660.52,39.33"
      />
    <polyline
      stroke-width="1"
      stroke="#000000"
      stroke-opacity="1.000000"
      fill="none"
      points="690.55,35.01 690.55,39.33"
      />
    <polyline
      stroke-width="1"
      stroke="#000000"
      stroke-opacity="1.000000"
      fill="none"
      points="719.99,35.01 719.99,121.32"
      />
    <polyline
      stroke-width="1"
      stroke="#000000"
      stroke-opacity="1.000000"
      fill="none"
      points="714.82,39.09 719.99,39.09"
      />
    <polyline
      stroke-width="1"
      stroke="#000000"
      stroke-opacity="1.000000"
      fill="none"
      points="714.82,78.30 719.99,78.30"
      />
    <polyline
      stroke-width="1"
      stroke="#000000"
      stroke-opacity="1.000000"
      fill="none"
      points="714.82,117.53 719.99,117.53"
      />
    <polyline
      stroke-width="1"
      stroke="#000000"
      stroke-opacity="1.000000"
      fill="none"
      points="719.99,121.32 120.00,121.32"
      />
    <polyline
      stroke-width="1"
      stroke="#000000"
      stroke-opacity="1.000000"
      fill="none"
      points="690.55,117.00 690.55,121.32"
      />
    <polyline
      stroke-width="1"
      stroke="#000000"
      stroke-opacity="1.000000"
      fill="none"
      points="660.52,117.00 660.52,121.32"
      />
    <polyline
      stroke-width="1"
      stroke="#000000"
      stroke-opacity="1.000000"
      fill="none"
      points="630.49,117.00 630.49,121.32"
      />
    <polyline
      stroke-width="1"
      stroke="#000000"
      stroke-opacity="1.000000"
      fill="none"
      points="600.46,116.14 600.46,121.32"
      />
    <polyline
      stroke-width="1"
      stroke="#000000"
      stroke-opacity="1.000000"
      fill="none"
      points="570.43,117.00 570.43,121.32"
      />
    <polyline
      stroke-width="1"
      stroke="#000000"
      stroke-opacity="1.000000"
      fill="none"
      points="540.40,117.00 540.40,121.32"
      />
    <polyline
      stroke-width="1"
      stroke="#000000"
      stroke-opacity="1.000000"
      fill="none"
      points="510.37,117.00 510.37,121.32"
      />
    <polyline
      stroke-width="1"
      stroke="#000000"
      stroke-opacity="1.000000"
      fill="none"
      points="480.34,116.14 480.34,121.32"
      />
    <polyline
      stroke-width="1"
      stroke="#000000"
      stroke-opacity="1.000000"
      fill="none"
      points="450.31,117.00 450.31,121.32"
      />
    <polyline
      stroke-width="1"
      stroke="#000000"
      stroke-opacity="1.000000"
      fill="none"
      points="420.28,117.00 420.28,121.32"
      />
    <polyline
      stroke-width="1"
      stroke="#000000"
      stroke-opacity="1.000000"
      fill="none"
      points="390.27,117.00 390.27,121.32"
      />
    <polyline
      stroke-width="1"
      stroke="#000000"
      stroke-opacity="1.000000"
      fill="none"
      points="360.24,116.14 360.24,121.32"
      />
    <polyline
      stroke-width="1"
      stroke="#000000"
      stroke-opacity="1.000000"
      fill="none"
      points="330.21,117.00 330.21,121.32"
      />
    <polyline
      stroke-width="1"
      stroke="#000000"
      stroke-opacity="1.000000"
      fill="none"
      points="300.18,117.00 300.18,121.32"
      />
    <polyline
      stroke-width="1"
      stroke="#000000"
      stroke-opacity="1.000000"
      fill="none"
      points="270.15,117.00 270.15,121.32"
      />
    <polyline
      stroke-width="1"
      stroke="#000000"
      stroke-opacity="1.000000"
      fill="none"
      points="240.12,116.14 240.12,121.32"
      />
    <polyline
      stroke-width="1"
      stroke="#000000"
      stroke-opacity="1.000000"
      fill="none"
      points="210.09,117.00 210.09,121.32"
      />
    <polyline
      stroke-width="1"
      stroke="#000000"
      stroke-opacity="1.000000"
      fill="none"
      points="180.06,117.00 180.06,121.32"
      />
    <polyline
      stroke-width="1"
      stroke="#000000"
      stroke-opacity="1.000000"
      fill="none"
      points="150.03,117.00 150.03,121.32"
      />
    <polyline
      stroke-width="1"
      stroke="#000000"
      stroke-opacity="1.000000"
      fill="none"
      points="120.00,116.14 120.00,121.32"
      />
    <polyline
      stroke-width="1"
      stroke="#000000"
      stroke-opacity="1.000000"
      fill="none"
      points="120.00,121.32 120.00,35.01"
      />
    <polyline
      stroke-width="1"
      stroke="#000000"
      stroke-opacity="1.000000"
      fill="none"
      points="120.00,117.53 125.17,117.53"
      />
    <polyline
      stroke-width="1"
      stroke="#000000"
      stroke-opacity="1.000000"
      fill="none"
      points="120.00,78.30 125.17,78.30"
      />
    <polyline
      stroke-width="1"
      stroke="#000000"
      stroke-opacity="1.000000"
      fill="none"
      points="120.00,39.09 125.17,39.09"
      />
    <clipPath
      id="text-clipping203"
      >
      <polygon
        points="0.000000,0.000000 0.000000,349.986267 800.000000,349.986267 800.000000,0.000000"
        />
    </clipPath>
    <g
      clip-path="url(#text-clipping203)"
      >
      <g
        transform="matrix(1.000000 0.000000 0.000000 -1.000000 119.998779 28.101444)"
        >
        <g
          transform="matrix(1.0 0.0 0.0 1.0 0.0 2.672784)"
          >
          <text
            dominant-baseline="no-change"
            fill="#000000"
            fill-opacity="1.000000"
            xml:space="preserve"
            font-size="6"
            text-anchor="middle"
            x="0.000000"
            y="0"
><tspan font-family="sans-serif" font-style="normal" font-weight="normal">&#x30;</tspan></text>
        </g>
      </g>
    </g>
    <clipPath
      id="text-clipping204"
      >
      <polygon
        points="0.000000,0.000000 0.000000,349.986267 800.000000,349.986267 800.000000,0.000000"
        />
    </clipPath>
    <g
      clip-path="url(#text-clipping204)"
      >
      <g
        transform="matrix(1.000000 0.000000 0.000000 -1.000000 240.119633 28.101444)"
        >
        <g
          transform="matrix(1.0 0.0 0.0 1.0 0.0 2.672784)"
          >
          <text
            dominant-baseline="no-change"
            fill="#000000"
            fill-opacity="1.000000"
            xml:space="preserve"
            font-size="6"
            text-anchor="middle"
            x="0.000000"
            y="0"
><tspan font-family="sans-serif" font-style="normal" font-weight="normal">&#x32;</tspan></text>
        </g>
      </g>
    </g>
    <clipPath
      id="text-clipping205"
      >
      <polygon
        points="0.000000,0.000000 0.000000,349.986267 800.000000,349.986267 800.000000,0.000000"
        />
    </clipPath>
    <g
      clip-path="url(#text-clipping205)"
      >
      <g
        transform="matrix(1.000000 0.000000 0.000000 -1.000000 360.240486 28.101444)"
        >
        <g
          transform="matrix(1.0 0.0 0.0 1.0 0.0 2.672784)"
          >
          <text
            dominant-baseline="no-change"
            fill="#000000"
            fill-opacity="1.000000"
            xml:space="preserve"
            font-size="6"
            text-anchor="middle"
            x="0.000000"
            y="0"
><tspan font-family="sans-serif" font-style="normal" font-weight="normal">&#x34;</tspan></text>
        </g>
      </g>
    </g>
    <clipPath
      id="text-clipping206"
      >
      <polygon
        points="0.000000,0.000000 0.000000,349.986267 800.000000,349.986267 800.000000,0.000000"
        />
    </clipPath>
    <g
      clip-path="url(#text-clipping206)"
      >
      <g
        transform="matrix(1.000000 0.000000 0.000000 -1.000000 480.361339 28.101444)"
        >
        <g
          transform="matrix(1.0 0.0 0.0 1.0 0.0 2.672784)"
          >
          <text
            dominant-baseline="no-change"
            fill="#000000"
            fill-opacity="1.000000"
            xml:space="preserve"
            font-size="6"
            text-anchor="middle"
            x="0.000000"
            y="0"
><tspan font-family="sans-serif" font-style="normal" font-weight="normal">&#x36;</tspan></text>
        </g>
      </g>
    </g>
    <clipPath
      id="text-clipping207"
      >
      <polygon
        points="0.000000,0.000000 0.000000,349.986267 800.000000,349.986267 800.000000,0.000000"
        />
    </clipPath>
    <g
      clip-path="url(#text-clipping207)"
      >
      <g
        transform="matrix(1.000000 0.000000 0.000000 -1.000000 600.482192 28.101444)"
        >
        <g
          transform="matrix(1.0 0.0 0.0 1.0 0.0 2.672784)"
          >
          <text
            dominant-baseline="no-change"
            fill="#000000"
            fill-opacity="1.000000"
            xml:space="preserve"
            font-size="6"
            text-anchor="middle"
            x="0.000000"
            y="0"
><tspan font-family="sans-serif" font-style="normal" font-weight="normal">&#x38;</tspan></text>
        </g>
      </g>
    </g>
    <clipPath
      id="text-clipping208"
      >
      <polygon
        points="0.000000,0.000000 0.000000,349.986267 800.000000,349.986267 800.000000,0.000000"
        />
    </clipPath>
    <g
      clip-path="url(#text-clipping208)"
      >
      <g
        transform="matrix(0.000000 1.000000 1.000000 -0.000000 113.089389 39.063692)"
        >
        <g
          transform="matrix(1.0 0.0 0.0 1.0 0.0 2.672784)"
          >
          <text
            dominant-baseline="no-change"
            fill="#000000"
            fill-opacity="1.000000"
            xml:space="preserve"
            font-size="6"
            text-anchor="middle"
            x="0.000000"
            y="0"
><tspan font-family="sans-serif" font-style="normal" font-weight="normal">&#x2d;&#x31;&#x2e;&#x30;</tspan></text>
        </g>
      </g>
    </g>
    <clipPath
      id="text-clipping209"
      >
      <polygon
        points="0.000000,0.000000 0.000000,349.986267 800.000000,349.986267 800.000000,0.000000"
        />
    </clipPath>
    <g
      clip-path="url(#text-clipping209)"
      >
      <g
        transform="matrix(0.000000 1.000000 1.000000 -0.000000 113.089389 78.322703)"
        >
        <g
          transform="matrix(1.0 0.0 0.0 1.0 0.0 2.672784)"
          >
          <text
            dominant-baseline="no-change"
            fill="#000000"
            fill-opacity="1.000000"
            xml:space="preserve"
            font-size="6"
            text-anchor="middle"
            x="0.000000"
            y="0"
><tspan font-family="sans-serif" font-style="normal" font-weight="normal">&#x30;&#x2e;&#x30;</tspan></text>
        </g>
      </g>
    </g>
    <clipPath
      id="text-clipping210"
      >
      <polygon
        points="0.000000,0.000000 0.000000,349.986267 800.000000,349.986267 800.000000,0.000000"
        />
    </clipPath>
    <g
      clip-path="url(#text-clipping210)"
      >
      <g
        transform="matrix(0.000000 1.000000 1.000000 -0.000000 113.089389 117.557299)"
        >
        <g
          transform="matrix(1.0 0.0 0.0 1.0 0.0 2.672784)"
          >
          <text
            dominant-baseline="no-change"
            fill="#000000"
            fill-opacity="1.000000"
            xml:space="preserve"
            font-size="6"
            text-anchor="middle"
            x="0.000000"
            y="0"
><tspan font-family="sans-serif" font-style="normal" font-weight="normal">&#x31;&#x2e;&#x30;</tspan></text>
        </g>
      </g>
    </g>
    <polyline
      stroke-width="1"
      stroke="#F03232"
      stroke-opacity="1.000000"
      fill="none"
      points="120.00,78.30 120.61,77.93 121.20,76.98 121.81,75.95 122.39,75.44 123.00,75.95 123.59,77.64 124.20,80.23 124.81,83.06 125.39,85.21 
      126.00,85.82 126.59,84.38 127.20,80.94 127.81,76.13 128.40,71.17 129.01,67.38 129.59,66.04 130.20,67.82 130.81,72.59 131.40,79.40 
      132.01,86.65 132.60,92.43 133.21,95.10 133.82,93.63 134.40,88.06 135.01,79.57 135.60,70.09 136.21,62.04 136.82,57.57 137.41,58.13 
      138.02,63.84 138.60,73.59 139.21,85.09 139.82,95.51 140.41,102.13 141.02,103.08 141.61,97.83 142.22,87.41 142.83,74.25 143.41,61.53 
      144.02,52.52 144.61,49.59 145.22,53.76 145.83,64.24 146.42,78.57 147.03,93.34 147.61,104.84 148.22,110.06 148.83,107.55 149.42,97.66 
      150.03,82.69 150.61,66.26 151.23,52.39 151.84,44.65 152.42,45.07 153.03,53.76 153.62,68.70 154.23,86.33 154.84,102.27 155.42,112.58 
      156.04,114.58 156.62,107.64 157.23,93.36 157.84,75.15 158.43,57.50 159.04,44.75 159.62,40.14 160.23,44.90 160.84,57.94 161.43,76.08 
      162.04,94.92 162.63,109.82 163.24,117.04 163.85,114.80 164.43,103.57 165.04,86.09 165.63,66.65 166.24,50.03 166.85,40.33 167.44,39.94 
      168.05,48.98 168.63,65.16 169.24,84.55 169.85,102.35 170.44,114.21 171.05,117.22 171.64,110.72 172.25,96.32 172.86,77.61 173.44,59.23 
      174.05,45.66 174.64,40.19 175.25,44.07 175.86,56.25 176.45,73.68 177.06,91.99 177.64,106.74 178.25,114.36 178.86,113.06 179.45,103.35 
      180.06,87.70 180.65,70.07 181.26,54.76 181.87,45.48 182.45,44.36 183.06,51.52 183.65,65.02 184.26,81.40 184.87,96.61 185.45,107.01 
      186.07,110.16 186.65,105.52 187.26,94.44 187.87,79.79 188.46,65.26 189.07,54.40 189.65,49.66 190.26,52.03 190.87,60.65 191.46,73.17 
      192.07,86.43 192.66,97.15 193.27,102.88 193.88,102.42 194.46,96.19 195.07,85.99 195.66,74.47 196.27,64.50 196.88,58.40 197.47,57.42 
      198.08,61.53 198.66,69.36 199.27,78.81 199.88,87.48 200.47,93.31 201.08,95.12 201.67,92.78 202.28,87.19 202.89,79.98 203.47,73.07 
      204.08,68.09 204.67,66.07 205.28,67.19 205.89,70.80 206.48,75.73 207.09,80.59 207.67,84.16 208.28,85.77 208.89,85.33 209.48,83.28 
      210.09,80.47 210.68,77.83 211.29,76.05 211.90,75.44 212.48,75.88 213.09,76.91 213.68,77.88 214.29,78.30 214.90,77.98 215.49,77.08 
      216.10,76.03 216.68,75.47 217.29,75.88 217.90,77.47 218.49,80.01 219.10,82.84 219.68,85.09 220.29,85.84 220.91,84.57 221.49,81.25 
      222.10,76.54 222.69,71.54 223.30,67.60 223.91,66.04 224.49,67.56 225.10,72.12 225.69,78.84 226.30,86.11 226.91,92.07 227.50,95.02 
      228.11,93.90 228.69,88.65 229.30,80.30 229.91,70.83 230.50,62.58 231.11,57.77 231.70,57.89 232.31,63.21 232.92,72.71 233.50,84.16 
      234.11,94.78 234.70,101.79 235.31,103.23 235.92,98.44 236.51,88.38 237.12,75.32 237.70,62.45 238.31,53.03 238.92,49.56 239.51,53.18 
      240.12,63.21 240.71,77.37 241.32,92.24 241.93,104.10 242.51,109.92 243.12,108.04 243.71,98.66 244.32,83.99 244.93,67.53 245.52,53.32 
      246.13,45.00 246.71,44.73 247.32,52.81 247.93,67.36 248.52,84.91 249.13,101.17 249.71,112.04 250.33,114.77 250.94,108.50 251.52,94.71 
      252.13,76.66 252.72,58.77 253.33,45.51 253.94,40.19 254.52,44.19 255.13,56.64 255.72,74.56 256.33,93.51 256.92,108.87 257.53,116.80 
      258.14,115.31 258.72,104.74 259.33,87.60 259.92,68.17 260.53,51.15 261.14,40.80 261.73,39.63 262.34,47.95 262.92,63.70 263.53,82.99 
      264.14,101.10 264.73,113.55 265.34,117.34 265.93,111.55 266.54,97.68 267.15,79.18 267.73,60.57 268.34,46.49 268.93,40.28 269.54,43.41 
      270.15,55.03 270.74,72.19 271.35,90.63 271.93,105.79 272.54,114.07 273.15,113.50 "/>
    <polyline
      stroke-width="1"
      stroke="#F03232"
      stroke-opacity="1.000000"
      fill="none"
      points="273.15,113.50 273.74,104.40 274.35,89.09 274.94,71.44 275.55,55.79 276.16,45.95 276.74,44.14 277.35,50.69 277.94,63.77 278.55,80.08 
      279.16,95.54 279.74,106.42 280.36,110.18 280.94,106.16 281.55,95.49 282.16,81.01 282.75,66.34 283.36,55.06 283.94,49.78 284.55,51.59 
      285.16,59.77 285.75,72.10 286.36,85.43 286.95,96.46 287.56,102.64 288.17,102.69 288.75,96.88 289.36,86.89 289.95,75.37 290.56,65.16 
      291.17,58.69 291.76,57.30 292.37,61.04 292.95,68.65 293.56,78.05 294.17,86.87 294.76,93.00 295.37,95.14 295.96,93.12 296.57,87.72 
      297.18,80.59 297.76,73.59 298.37,68.39 298.96,66.12 299.57,66.99 300.18,70.44 300.77,75.32 301.38,80.23 301.96,83.96 302.57,85.72 
      303.18,85.43 303.77,83.47 304.38,80.69 304.97,78.01 305.58,76.15 306.19,75.44 306.77,75.83 307.38,76.81 307.97,77.81 308.58,78.30 
      309.19,78.03 309.78,77.15 310.39,76.10 310.97,75.47 311.58,75.78 312.19,77.30 312.78,79.79 313.39,82.62 313.97,84.94 314.58,85.84 
      315.20,84.74 315.78,81.59 316.39,76.93 316.98,71.90 317.59,67.85 318.20,66.07 318.78,67.31 319.39,71.66 319.98,78.25 320.59,85.55 
      321.20,91.70 321.79,94.92 322.40,94.14 322.98,89.19 323.59,81.03 324.20,71.56 324.79,63.11 325.40,57.99 325.99,57.69 326.60,62.62 
      327.21,71.85 327.79,83.25 328.40,94.02 328.99,101.42 329.60,103.35 330.21,99.05 330.80,89.33 331.41,76.39 331.99,63.38 332.60,53.59 
      333.21,49.59 333.80,52.64 334.41,62.23 335.00,76.17 335.61,91.12 336.22,103.35 336.80,109.74 337.41,108.47 338.00,99.66 338.61,85.28 
      339.22,68.80 339.81,54.27 340.42,45.36 341.00,44.43 341.61,51.88 342.22,66.04 342.81,83.52 343.42,100.03 344.00,111.45 344.62,114.87 
      345.23,109.31 345.81,96.00 346.42,78.15 347.01,60.08 347.62,46.31 348.23,40.26 348.81,43.53 349.42,55.40 350.01,73.02 350.62,92.09 
      351.23,107.89 351.82,116.51 352.43,115.80 353.01,105.86 353.62,89.11 354.23,69.68 354.82,52.32 355.43,41.31 356.02,39.36 356.63,46.97 
      357.24,62.26 357.82,81.45 358.43,99.81 359.02,112.85 359.63,117.39 360.24,112.36 360.83,99.00 361.44,80.72 362.02,61.94 362.63,47.34 
      363.24,40.43 363.83,42.82 364.44,53.86 365.03,70.71 365.64,89.21 366.25,104.81 366.83,113.72 367.44,113.87 368.03,105.37 368.64,90.46 
      369.25,72.83 369.84,56.86 370.45,46.44 371.03,43.97 371.64,49.88 372.25,62.58 372.84,78.76 373.45,94.44 374.03,105.79 374.65,110.18 
      375.26,106.74 375.84,96.51 376.45,82.20 377.04,67.43 377.65,55.76 378.26,49.95 378.84,51.20 379.45,58.94 380.04,71.05 380.65,84.40 
      381.26,95.73 381.85,102.37 382.46,102.91 383.04,97.51 383.65,87.77 384.26,76.27 384.85,65.87 385.46,59.04 386.05,57.23 386.66,60.57 
      387.27,67.95 387.85,77.30 388.46,86.23 389.05,92.63 389.66,95.12 390.27,93.41 390.86,88.24 391.47,81.18 392.05,74.07 392.66,68.70 
      393.25,66.19 393.86,66.82 394.47,70.09 395.06,74.90 395.67,79.86 396.25,83.72 396.86,85.67 397.47,85.53 398.06,83.67 398.67,80.94 
      399.26,78.20 399.87,76.25 400.48,75.47 401.06,75.76 401.67,76.71 402.26,77.74 402.87,78.30 403.48,78.08 404.07,77.25 404.68,76.17 
      405.26,75.49 405.87,75.73 406.48,77.15 407.07,79.57 407.68,82.40 408.26,84.79 408.87,85.84 409.49,84.91 410.07,81.91 410.68,77.35 
      411.27,72.29 411.88,68.12 412.49,66.09 413.07,67.12 413.68,71.22 414.27,77.66 414.88,84.99 415.49,91.29 416.08,94.80 416.69,94.36 
      417.27,89.72 417.88,81.77 418.49,72.32 419.08,63.70 419.69,58.23 420.28,57.52 420.89,62.04 421.50,71.00 422.08,82.33 422.69,93.26 
      423.28,101.00 423.89,103.42 424.50,99.61 425.09,90.26 425.70,77.47 426.28,64.36 "/>
    <polyline
      stroke-width="1"
      stroke="#F03232"
      stroke-opacity="1.000000"
      fill="none"
      points="426.28,64.36 426.89,54.18 427.50,49.66 428.09,52.15 428.70,61.26 429.29,74.98 429.90,89.99 430.51,102.57 431.09,109.50 431.70,108.87 
      432.29,100.59 432.90,86.55 433.51,70.09 434.10,55.28 434.71,45.80 435.29,44.19 435.90,51.00 436.51,64.75 437.10,82.11 437.71,98.86 
      438.29,110.82 438.90,114.94 439.52,110.06 440.10,97.29 440.71,79.64 441.30,61.43 441.91,47.14 442.52,40.41 443.10,42.95 443.71,54.20 
      444.30,71.51 444.91,90.63 445.52,106.84 446.11,116.14 446.72,116.21 447.30,106.94 447.91,90.60 448.52,71.22 449.11,53.52 449.72,41.87 
      450.31,39.16 450.92,46.05 451.53,60.84 452.11,79.89 452.72,98.49 453.31,112.09 453.92,117.39 454.53,113.09 455.12,100.32 455.73,82.25 
      456.31,63.36 456.92,48.27 457.53,40.65 458.12,42.31 458.73,52.71 459.32,69.26 459.93,87.80 460.54,103.76 461.12,113.31 461.73,114.21 
      462.32,106.33 462.93,91.80 463.54,74.22 464.13,57.99 464.74,47.00 465.32,43.85 465.93,49.15 466.54,61.38 467.13,77.42 467.74,93.29 
      468.32,105.11 468.94,110.11 469.55,107.28 470.13,97.51 470.74,83.43 471.33,68.53 471.94,56.50 472.55,50.15 473.13,50.83 473.74,58.11 
      474.33,69.97 474.94,83.38 475.55,94.97 476.14,102.05 476.75,103.10 477.33,98.15 477.94,88.65 478.55,77.18 479.14,66.60 479.75,59.43 
      480.34,57.18 480.95,60.13 481.56,67.26 482.14,76.54 482.75,85.60 483.34,92.26 483.95,95.10 484.56,93.68 485.15,88.75 485.76,81.77 
      486.34,74.61 486.95,69.05 487.56,66.26 488.15,66.65 488.76,69.75 489.35,74.49 489.96,79.49 490.57,83.47 491.15,85.60 491.76,85.60 
      492.35,83.86 492.96,81.15 493.57,78.40 494.16,76.37 494.77,75.49 495.35,75.71 495.96,76.64 496.57,77.66 497.16,78.27 497.77,78.13 
      498.36,77.32 498.97,76.25 499.58,75.51 500.16,75.66 500.77,76.98 501.36,79.35 501.97,82.18 502.58,84.65 503.16,85.82 503.78,85.06 
      504.36,82.20 504.97,77.74 505.58,72.68 506.17,68.39 506.78,66.16 507.36,66.90 507.97,70.78 508.58,77.10 509.17,84.43 509.78,90.87 
      510.37,94.66 510.98,94.56 511.59,90.24 512.17,82.50 512.78,73.07 513.37,64.31 513.98,58.50 514.59,57.37 515.18,61.50 515.79,70.17 
      516.37,81.40 516.98,92.48 517.59,100.56 518.18,103.45 518.79,100.13 519.38,91.16 519.99,78.54 520.60,65.33 521.18,54.81 521.79,49.76 
      522.38,51.69 522.99,60.33 523.60,73.78 524.19,88.82 524.80,101.74 525.38,109.21 525.99,109.21 526.58,101.49 527.19,87.82 527.80,71.41 
      528.39,56.30 529.00,46.29 529.58,44.02 530.19,50.17 530.80,63.45 531.39,80.67 532.00,97.63 532.58,110.11 533.19,114.94 533.81,110.77 
      534.39,98.54 535.00,81.13 535.59,62.79 536.20,48.05 536.81,40.63 537.39,42.38 538.00,53.03 538.59,70.00 539.20,89.14 539.81,105.76 
      540.40,115.73 541.01,116.56 541.59,107.99 542.20,92.09 542.81,72.76 543.40,54.74 544.01,42.48 544.60,39.01 545.21,45.17 545.82,59.45 
      546.40,78.32 547.01,97.12 547.60,111.28 548.21,117.31 548.82,113.77 549.41,101.57 550.02,83.77 550.60,64.77 551.21,49.22 551.82,40.92 
      552.41,41.82 553.02,51.61 553.61,67.80 554.22,86.36 554.83,102.69 555.41,112.87 556.02,114.46 556.61,107.25 557.22,93.12 557.83,75.64 
      558.42,59.13 559.03,47.61 559.61,43.80 560.22,48.44 560.83,60.21 561.42,76.10 562.03,92.14 562.61,104.40 563.23,110.01 563.84,107.79 
      564.42,98.51 565.03,84.62 565.62,69.66 566.23,57.28 566.84,50.42 567.42,50.51 568.03,57.33 568.62,68.95 569.23,82.33 569.84,94.19 
      570.43,101.69 571.04,103.25 571.62,98.73 572.23,89.53 572.84,78.10 573.43,67.34 574.04,59.82 574.63,57.16 575.24,59.72 575.85,66.58 
      576.43,75.78 577.04,84.94 577.63,91.87 578.24,95.02 578.85,93.95 579.44,89.24 "/>
    <polyline
      stroke-width="1"
      stroke="#F03232"
      stroke-opacity="1.000000"
      fill="none"
      points="579.44,89.24 580.05,82.35 580.63,75.15 581.24,69.39 581.85,66.36 582.44,66.51 583.05,69.44 583.64,74.10 584.25,79.13 584.86,83.23 
      585.44,85.50 586.05,85.67 586.64,84.04 587.25,81.37 587.86,78.59 588.45,76.49 589.06,75.51 589.64,75.66 590.25,76.54 590.86,77.59 
      591.45,78.25 592.06,78.18 592.65,77.39 593.26,76.35 593.87,75.54 594.45,75.61 595.06,76.83 595.65,79.13 596.26,81.96 596.87,84.50 
      597.45,85.79 598.07,85.21 598.65,82.52 599.26,78.13 599.87,73.07 600.46,68.65 601.07,66.24 601.65,66.73 602.26,70.36 602.87,76.54 
      603.46,83.84 604.07,90.43 604.66,94.49 605.27,94.73 605.88,90.73 606.46,83.18 607.07,73.83 607.66,64.92 608.27,58.82 608.88,57.28 
      609.47,60.99 610.08,69.34 610.66,80.47 611.27,91.68 611.88,100.10 612.47,103.45 613.08,100.61 613.67,92.04 614.28,79.62 614.89,66.31 
      615.47,55.47 616.08,49.93 616.67,51.27 617.28,59.43 617.89,72.61 618.48,87.65 619.09,100.86 619.67,108.87 620.28,109.50 620.89,102.37 
      621.48,89.07 622.09,72.71 622.68,57.35 623.29,46.83 623.90,43.87 624.48,49.39 625.09,62.21 625.68,79.25 626.29,96.39 626.90,109.38 
      627.48,114.87 628.10,111.43 628.68,99.76 629.29,82.60 629.90,64.16 630.49,49.00 631.10,40.87 631.68,41.90 632.29,51.91 632.91,68.51 
      633.49,87.65 634.10,104.64 634.69,115.26 635.30,116.85 635.91,108.96 636.49,93.53 637.10,74.32 637.69,56.03 638.30,43.17 638.91,38.94 
      639.50,44.34 640.11,58.08 640.69,76.74 641.30,95.75 641.91,110.43 642.50,117.17 643.11,114.38 643.70,102.81 644.31,85.31 644.92,66.21 
      645.50,50.25 646.11,41.26 646.70,41.41 647.31,50.56 647.92,66.36 648.51,84.89 649.12,101.57 649.70,112.33 650.31,114.68 650.92,108.11 
      651.51,94.41 652.12,77.05 652.71,60.30 653.32,48.27 653.93,43.78 654.51,47.78 655.12,59.08 655.71,74.78 656.32,90.95 656.93,103.64 
      657.52,109.84 658.13,108.26 658.71,99.44 659.32,85.82 659.91,70.80 660.52,58.08 661.13,50.71 661.71,50.25 662.32,56.59 662.91,67.90 
      663.52,81.28 664.13,93.36 664.72,101.30 665.33,103.35 665.91,99.30 666.52,90.38 667.13,79.03 667.72,68.12 668.33,60.26 668.92,57.18 
      669.53,59.35 670.14,65.92 670.72,75.00 671.33,84.28 671.92,91.43 672.53,94.92 673.14,94.17 673.73,89.72 674.34,82.94 674.92,75.69 
      675.53,69.75 676.14,66.48 676.73,66.38 677.34,69.12 677.93,73.68 678.54,78.74 679.15,82.96 679.73,85.40 680.34,85.72 680.93,84.23 
      681.54,81.62 682.15,78.81 682.74,76.61 683.35,75.54 683.93,75.61 684.54,76.47 685.15,77.52 685.74,78.23 686.35,78.20 686.94,77.49 
      687.55,76.42 688.16,75.59 688.74,75.56 689.35,76.69 689.94,78.93 690.55,81.74 691.16,84.33 691.74,85.77 692.36,85.33 692.94,82.79 
      693.55,78.52 694.16,73.46 694.75,68.95 695.36,66.34 695.94,66.58 696.55,69.97 697.16,75.98 697.75,83.25 698.36,89.97 698.95,94.29 
      699.56,94.85 700.17,91.19 700.75,83.89 701.36,74.59 701.95,65.55 702.56,59.13 703.17,57.20 703.76,60.50 704.37,68.56 704.95,79.54 
      705.56,90.85 706.17,99.59 706.76,103.40 707.37,101.08 707.96,92.90 708.57,80.69 709.18,67.34 709.76,56.18 710.37,50.12 710.96,50.90 
      711.57,58.57 712.18,71.44 712.77,86.48 713.38,99.98 713.96,108.47 714.57,109.72 715.18,103.20 715.77,90.29 716.38,74.05 716.97,58.45 
      717.58,47.41 718.19,43.80 718.77,48.66 719.38,60.99 719.97,77.83 "/>
    <clipPath
      id="text-clipping211"
      >
      <polygon
        points="0.000000,0.000000 0.000000,349.986267 800.000000,349.986267 800.000000,0.000000"
        />
    </clipPath>
    <g
      clip-path="url(#text-clipping211)"
      >
      <g
        transform="matrix(0.000000 1.000000 1.000000 -0.000000 92.410047 78.151799)"
        >
        <g
          transform="matrix(1.0 0.0 0.0 1.0 0.0 3.759176)"
          >
          <text
            dominant-baseline="no-change"
            fill="#000000"
            fill-opacity="1.000000"
            xml:space="preserve"
            font-size="9"
            text-anchor="middle"
            x="0.000000"
            y="0"
><tspan font-family="sans-serif" font-style="normal" font-weight="normal">&#x32;&#x30;&#x30;&#x25;</tspan></text>
        </g>
      </g>
    </g>
    <polyline
      stroke-width="1"
      stroke="#000000"
      stroke-opacity="1.000000"
      fill="none"
      points="120.00,128.32 719.99,128.32"
      />
    <polyline
      stroke-width="1"
      stroke="#000000"
      stroke-opacity="1.000000"
      fill="none"
      points="719.99,128.32 719.99,214.65"
      />
    <polyline
      stroke-width="1"
      stroke="#000000"
      stroke-opacity="1.000000"
      fill="none"
      points="714.82,132.21 719.99,132.21"
      />
    <polyline
      stroke-width="1"
      stroke="#000000"
      stroke-opacity="1.000000"
      fill="none"
      points="714.82,171.47 719.99,171.47"
      />
    <polyline
      stroke-width="1"
      stroke="#000000"
      stroke-opacity="1.000000"
      fill="none"
      points="714.82,210.70 719.99,210.70"
      />
    <polyline
      stroke-width="1"
      stroke="#000000"
      stroke-opacity="1.000000"
      fill="none"
      points="719.99,214.65 120.00,214.65"
      />
    <polyline
      stroke-width="1"
      stroke="#000000"
      stroke-opacity="1.000000"
      fill="none"
      points="120.00,214.65 120.00,128.32"
      />
    <polyline
      stroke-width="1"
      stroke="#000000"
      stroke-opacity="1.000000"
      fill="none"
      points="120.00,210.70 125.17,210.70"
      />
    <polyline
      stroke-width="1"
      stroke="#000000"
      stroke-opacity="1.000000"
      fill="none"
      points="120.00,171.47 125.17,171.47"
      />
    <polyline
      stroke-width="1"
      stroke="#000000"
      stroke-opacity="1.000000"
      fill="none"
      points="120.00,132.21 125.17,132.21"
      />
    <clipPath
      id="text-clipping212"
      >
      <polygon
        points="0.000000,0.000000 0.000000,349.986267 800.000000,349.986267 800.000000,0.000000"
        />
    </clipPath>
    <g
      clip-path="url(#text-clipping212)"
      >
      <g
        transform="matrix(0.000000 1.000000 1.000000 -0.000000 113.089389 132.230598)"
        >
        <g
          transform="matrix(1.0 0.0 0.0 1.0 0.0 2.672784)"
          >
          <text
            dominant-baseline="no-change"
            fill="#000000"
            fill-opacity="1.000000"
            xml:space="preserve"
            font-size="6"
            text-anchor="middle"
            x="0.000000"
            y="0"
><tspan font-family="sans-serif" font-style="normal" font-weight="normal">&#x2d;&#x31;&#x2e;&#x30;</tspan></text>
        </g>
      </g>
    </g>
    <clipPath
      id="text-clipping213"
      >
      <polygon
        points="0.000000,0.000000 0.000000,349.986267 800.000000,349.986267 800.000000,0.000000"
        />
    </clipPath>
    <g
      clip-path="url(#text-clipping213)"
      >
      <g
        transform="matrix(0.000000 1.000000 1.000000 -0.000000 113.089389 171.465194)"
        >
        <g
          transform="matrix(1.0 0.0 0.0 1.0 0.0 2.672784)"
          >
          <text
            dominant-baseline="no-change"
            fill="#000000"
            fill-opacity="1.000000"
            xml:space="preserve"
            font-size="6"
            text-anchor="middle"
            x="0.000000"
            y="0"
><tspan font-family="sans-serif" font-style="normal" font-weight="normal">&#x30;&#x2e;&#x30;</tspan></text>
        </g>
      </g>
    </g>
    <clipPath
      id="text-clipping214"
      >
      <polygon
        points="0.000000,0.000000 0.000000,349.986267 800.000000,349.986267 800.000000,0.000000"
        />
    </clipPath>
    <g
      clip-path="url(#text-clipping214)"
      >
      <g
        transform="matrix(0.000000 1.000000 1.000000 -0.000000 113.089389 210.699789)"
        >
        <g
          transform="matrix(1.0 0.0 0.0 1.0 0.0 2.672784)"
          >
          <text
            dominant-baseline="no-change"
            fill="#000000"
            fill-opacity="1.000000"
            xml:space="preserve"
            font-size="6"
            text-anchor="middle"
            x="0.000000"
            y="0"
><tspan font-family="sans-serif" font-style="normal" font-weight="normal">&#x31;&#x2e;&#x30;</tspan></text>
        </g>
      </g>
    </g>
    <polyline
      stroke-width="1"
      stroke="#000000"
      stroke-opacity="1.000000"
      fill="none"
      points="120.00,171.47 120.61,181.08 121.20,188.68 121.81,192.27 122.39,190.78 123.00,184.41 123.59,174.57 124.20,163.58 124.81,154.18 125.39,148.76 
      126.00,148.83 126.59,154.55 127.20,164.65 127.81,176.79 128.40,187.97 129.01,195.37 129.59,197.05 130.20,192.41 130.81,182.43 131.40,169.44 
      132.01,156.57 132.60,147.07 133.21,143.39 133.82,146.56 134.40,156.01 135.01,169.54 135.60,183.84 136.21,195.42 136.82,201.32 137.41,199.93 
      138.02,191.49 138.60,177.89 139.21,162.41 139.82,148.86 140.41,140.63 141.02,139.87 141.61,146.93 142.22,160.16 142.83,176.45 143.41,191.75 
      144.02,202.33 144.61,205.43 145.22,200.20 145.83,187.77 146.42,171.15 147.03,154.35 147.61,141.56 148.22,135.94 148.83,139.02 149.42,150.15 
      150.03,166.66 150.61,184.55 151.23,199.42 151.84,207.55 152.42,206.89 153.03,197.49 153.62,181.60 154.23,163.04 154.84,146.42 155.42,135.80 
      156.04,133.89 156.62,141.19 157.23,155.99 157.84,174.69 158.43,192.71 159.04,205.62 159.62,210.21 160.23,205.30 160.84,192.05 161.43,173.71 
      162.04,154.72 162.63,139.80 163.24,132.57 163.85,134.89 164.43,146.17 165.04,163.68 165.63,183.11 166.24,199.71 166.85,209.41 167.44,209.80 
      168.05,200.79 168.63,184.60 169.24,165.22 169.85,147.39 170.44,135.48 171.05,132.40 171.64,138.90 172.25,153.32 172.86,172.15 173.44,190.73 
      174.05,204.52 174.64,210.16 175.25,206.33 175.86,193.98 176.45,176.20 177.06,157.38 177.64,142.12 178.25,134.13 178.86,135.31 179.45,145.32 
      180.06,161.60 180.65,180.16 181.26,196.42 181.87,206.45 182.45,207.84 183.06,200.35 183.65,185.89 184.26,168.10 184.87,151.32 185.45,139.65 
      186.07,135.87 186.65,140.80 187.26,153.13 187.87,169.76 188.46,186.55 189.07,199.44 189.65,205.30 190.26,202.86 190.87,192.83 191.46,177.74 
      192.07,161.41 192.66,147.78 193.27,140.17 193.88,140.29 194.46,147.98 195.07,161.21 195.66,176.67 196.27,190.56 196.88,199.52 197.47,201.47 
      198.08,196.12 198.66,184.89 199.27,170.68 199.88,156.99 200.47,147.12 201.08,143.39 201.67,146.54 202.28,155.67 202.89,168.36 203.47,181.48 
      204.08,191.80 204.67,196.91 205.28,195.73 205.89,188.73 206.48,177.74 207.09,165.58 207.67,155.20 208.28,149.08 208.89,148.56 209.48,153.59 
      210.09,162.75 210.68,173.71 211.29,183.72 211.90,190.44 212.48,192.34 213.09,189.14 213.68,181.79 214.29,172.25 214.90,162.87 215.49,155.94 
      216.10,153.03 216.68,154.67 217.29,160.28 217.90,168.32 218.49,176.76 219.10,183.55 219.68,187.14 220.29,186.77 220.91,182.77 221.49,176.23 
      222.10,168.88 222.69,162.50 223.30,158.62 223.91,158.01 224.49,160.65 225.10,165.73 225.69,171.90 226.30,177.59 226.91,181.50 227.50,182.77 
      228.11,181.26 228.69,177.52 229.30,172.54 229.91,167.66 230.50,163.97 231.11,162.36 231.70,162.99 232.31,165.61 232.92,169.44 233.50,173.44 
      234.11,176.67 234.70,178.42 235.31,178.37 235.92,176.69 236.51,173.91 237.12,170.78 237.70,168.10 238.31,166.46 238.92,166.14 239.51,167.12 
      240.12,169.02 240.71,171.32 241.32,173.39 241.93,174.79 242.51,175.25 243.12,174.76 243.71,173.54 244.32,172.00 244.93,170.51 245.52,169.46 
      246.13,169.00 246.71,169.19 247.32,169.88 247.93,170.85 248.52,171.78 249.13,172.49 249.71,172.83 250.33,172.81 250.94,172.44 251.52,171.93 
      252.13,171.42 252.72,171.03 253.33,170.83 253.94,170.83 254.52,170.98 255.13,171.20 255.72,171.42 256.33,171.56 256.92,171.64 257.53,171.64 
      258.14,171.56 258.72,171.51 259.33,171.47 259.92,171.44 260.53,171.44 261.14,171.47 261.73,171.47 262.34,171.44 262.92,171.44 263.53,171.47 
      264.14,171.49 264.73,171.56 265.34,171.61 265.93,171.64 266.54,171.59 267.15,171.47 267.73,171.27 268.34,171.03 268.93,170.85 269.54,170.81 
      270.15,170.95 270.74,171.29 271.35,171.81 271.93,172.32 272.54,172.73 273.15,172.86 "/>
    <polyline
      stroke-width="1"
      stroke="#000000"
      stroke-opacity="1.000000"
      fill="none"
      points="273.15,172.86 273.74,172.61 274.35,171.98 274.94,171.07 275.55,170.10 276.16,169.32 276.74,169.00 277.35,169.29 277.94,170.22 278.55,171.61 
      279.16,173.20 279.74,174.52 280.36,175.20 280.94,174.98 281.55,173.81 282.16,171.86 282.75,169.56 283.36,167.51 283.94,166.26 284.55,166.26 
      285.16,167.58 285.75,170.07 286.36,173.15 286.95,176.08 287.56,178.11 288.17,178.57 288.75,177.25 289.36,174.32 289.95,170.42 290.56,166.46 
      291.17,163.46 291.76,162.29 292.37,163.38 292.95,166.63 293.56,171.32 294.17,176.40 294.76,180.55 295.37,182.67 295.96,182.06 296.57,178.74 
      297.18,173.37 297.76,167.17 298.37,161.67 298.96,158.35 299.57,158.16 300.18,161.31 300.77,167.19 301.38,174.47 301.96,181.38 302.57,186.11 
      303.18,187.41 303.77,184.75 304.38,178.62 304.97,170.39 305.58,162.04 306.19,155.69 306.77,153.01 307.38,154.84 307.97,160.92 308.58,169.90 
      309.19,179.62 309.78,187.70 310.39,192.02 310.97,191.36 311.58,185.70 312.19,176.27 312.78,165.31 313.39,155.47 313.97,149.30 314.58,148.44 
      315.20,153.28 315.78,162.82 316.39,174.83 316.98,186.36 317.59,194.54 318.20,197.22 318.78,193.56 319.39,184.28 319.98,171.59 320.59,158.48 
      321.20,148.25 321.79,143.53 322.40,145.61 322.98,154.18 323.59,167.22 324.20,181.65 324.79,193.88 325.40,200.84 325.99,200.67 326.60,193.24 
      327.21,180.28 327.79,164.85 328.40,150.74 328.99,141.48 329.60,139.46 330.21,145.32 330.80,157.77 331.41,173.81 331.99,189.56 332.60,201.08 
      333.21,205.50 333.80,201.57 334.41,190.12 335.00,173.93 335.61,156.87 336.22,143.17 336.80,136.26 337.41,137.97 338.00,147.93 338.61,163.82 
      339.22,181.79 339.81,197.42 340.42,206.82 341.00,207.60 341.61,199.49 342.22,184.41 342.81,166.00 343.42,148.76 344.00,136.97 344.62,133.55 
      345.23,139.46 345.81,153.25 346.42,171.64 347.01,190.07 347.62,204.06 348.23,210.11 348.81,206.70 349.42,194.61 350.01,176.79 350.62,157.60 
      351.23,141.73 351.82,133.11 352.43,133.87 353.01,143.88 353.62,160.65 354.23,180.08 354.82,197.44 355.43,208.45 356.02,210.38 356.63,202.79 
      357.24,187.51 357.82,168.32 358.43,149.93 359.02,136.84 359.63,132.26 360.24,137.26 360.83,150.61 361.44,169.05 362.02,187.97 362.63,202.79 
      363.24,209.89 363.83,207.55 364.44,196.42 365.03,179.23 365.64,160.26 366.25,144.15 366.83,134.82 367.44,134.50 368.03,143.19 368.64,158.75 
      369.25,177.23 369.84,194.15 370.45,205.38 371.03,208.23 371.64,202.08 372.25,188.53 372.84,170.98 373.45,153.74 374.03,141.02 374.65,135.87 
      375.26,139.46 375.84,150.79 376.45,167.00 377.04,184.04 377.65,197.78 378.26,204.91 378.84,203.81 379.45,194.83 380.04,180.33 380.65,163.92 
      381.26,149.61 381.85,140.87 382.46,139.73 383.04,146.29 383.65,158.84 384.26,174.22 384.85,188.60 385.46,198.52 386.05,201.67 386.66,197.42 
      387.27,186.97 387.85,173.00 388.46,158.99 389.05,148.32 389.66,143.51 390.27,145.61 390.86,153.89 391.47,166.22 392.05,179.47 392.66,190.44 
      393.25,196.51 393.86,196.34 394.47,190.17 395.06,179.64 395.67,167.46 396.25,156.62 396.86,149.71 397.47,148.25 398.06,152.45 398.67,161.09 
      399.26,171.95 399.87,182.31 400.48,189.68 401.06,192.39 401.67,189.97 402.26,183.16 402.87,173.81 403.48,164.26 404.07,156.82 404.68,153.20 
      405.26,154.11 405.87,159.16 406.48,166.95 407.07,175.49 407.68,182.67 408.26,186.82 408.87,187.09 409.49,183.60 410.07,177.37 410.68,170.02 
      411.27,163.38 411.88,159.04 412.49,157.89 413.07,160.04 413.68,164.80 414.27,170.90 414.88,176.79 415.49,181.06 416.08,182.77 416.69,181.67 
      417.27,178.23 417.88,173.37 418.49,168.36 419.08,164.43 419.69,162.46 420.28,162.75 420.89,165.09 421.50,168.78 422.08,172.83 422.69,176.25 
      423.28,178.25 423.89,178.50 424.50,177.03 425.09,174.39 425.70,171.27 426.28,168.46 "/>
    <polyline
      stroke-width="1"
      stroke="#000000"
      stroke-opacity="1.000000"
      fill="none"
      points="426.28,168.46 426.89,166.63 427.50,166.09 428.09,166.90 428.70,168.68 429.29,170.95 429.90,173.10 430.51,174.61 431.09,175.25 431.70,174.88 
      432.29,173.76 432.90,172.25 433.51,170.73 434.10,169.59 434.71,169.02 435.29,169.12 435.90,169.76 436.51,170.68 437.10,171.66 437.71,172.42 
      438.29,172.81 438.90,172.83 439.52,172.52 440.10,172.03 440.71,171.49 441.30,171.07 441.91,170.85 442.52,170.83 443.10,170.95 443.71,171.17 
      444.30,171.39 444.91,171.56 445.52,171.64 446.11,171.64 446.72,171.59 447.30,171.51 447.91,171.47 448.52,171.44 449.11,171.44 449.72,171.47 
      450.31,171.47 450.92,171.44 451.53,171.44 452.11,171.47 452.72,171.49 453.31,171.54 453.92,171.61 454.53,171.64 455.12,171.61 455.73,171.49 
      456.31,171.29 456.92,171.07 457.53,170.88 458.12,170.81 458.73,170.93 459.32,171.25 459.93,171.71 460.54,172.25 461.12,172.69 461.73,172.86 
      462.32,172.69 462.93,172.12 463.54,171.25 464.13,170.24 464.74,169.41 465.32,169.00 465.93,169.19 466.54,170.02 467.13,171.37 467.74,172.95 
      468.32,174.35 468.94,175.15 469.55,175.08 470.13,174.05 470.74,172.20 471.33,169.93 471.94,167.80 472.55,166.39 473.13,166.17 473.74,167.29 
      474.33,169.61 474.94,172.66 475.55,175.66 476.14,177.86 476.75,178.62 477.33,177.57 477.94,174.88 478.55,171.05 479.14,167.05 479.75,163.85 
      480.34,162.33 480.95,163.07 481.56,165.97 482.14,170.51 482.75,175.62 483.34,179.99 483.95,182.50 484.56,182.35 485.15,179.42 485.76,174.30 
      486.34,168.14 486.95,162.46 487.56,158.70 488.15,157.96 488.76,160.60 489.35,166.12 489.96,173.30 490.57,180.38 491.15,185.58 491.76,187.48 
      492.35,185.43 492.96,179.77 493.57,171.76 494.16,163.29 494.77,156.50 495.35,153.15 495.96,154.25 496.57,159.72 497.16,168.36 497.77,178.13 
      498.36,186.63 498.97,191.66 499.58,191.83 500.16,186.92 500.77,177.96 501.36,167.05 501.97,156.84 502.58,149.96 503.16,148.17 503.78,152.15 
      504.36,161.09 504.97,172.88 505.58,184.70 506.17,193.56 506.78,197.22 507.36,194.56 507.97,186.07 508.58,173.71 509.17,160.45 509.78,149.57 
      510.37,143.83 510.98,144.80 511.59,152.45 512.17,164.97 512.78,179.40 513.37,192.22 513.98,200.18 514.59,201.20 515.18,194.85 515.79,182.60 
      516.37,167.31 516.98,152.74 517.59,142.51 518.18,139.24 518.79,143.90 519.38,155.45 519.99,171.17 520.60,187.24 521.18,199.66 521.79,205.33 
      522.38,202.74 522.99,192.36 523.60,176.67 524.19,159.45 524.80,144.98 525.38,136.82 525.99,137.09 526.58,145.85 527.19,161.04 527.80,178.96 
      528.39,195.25 529.00,205.87 529.58,208.09 530.19,201.32 530.80,187.14 531.39,168.97 532.00,151.23 532.58,138.33 533.19,133.48 533.81,137.92 
      534.39,150.64 535.00,168.58 535.59,187.33 536.20,202.30 536.81,209.77 537.39,207.87 538.00,197.03 538.59,179.84 539.20,160.55 539.81,143.85 
      540.40,133.89 541.01,133.11 541.59,141.73 542.20,157.67 542.81,177.01 543.40,195.00 544.01,207.26 544.60,210.72 545.21,204.57 545.82,190.31 
      546.40,171.47 547.01,152.62 547.60,138.41 548.21,132.33 548.82,135.84 549.41,148.05 550.02,165.95 550.60,185.14 551.21,200.89 551.82,209.38 
      552.41,208.55 553.02,198.69 553.61,182.21 554.22,163.21 554.83,146.34 555.41,135.72 556.02,133.92 556.61,141.29 557.22,155.94 557.83,174.27 
      558.42,191.75 559.03,204.11 559.61,208.38 560.22,203.62 560.83,191.07 561.42,173.86 562.03,156.28 562.61,142.61 563.23,136.11 563.84,138.33 
      564.42,148.56 565.03,164.24 565.62,181.45 566.23,195.98 566.84,204.33 567.42,204.55 568.03,196.71 568.62,182.89 569.23,166.51 569.84,151.62 
      570.43,141.80 571.04,139.38 571.62,144.78 572.23,156.57 572.84,171.73 573.43,186.53 574.04,197.34 574.63,201.67 575.24,198.57 575.85,188.97 
      576.43,175.32 577.04,161.06 577.63,149.66 578.24,143.83 578.85,144.83 579.44,152.23 "/>
    <polyline
      stroke-width="1"
      stroke="#000000"
      stroke-opacity="1.000000"
      fill="none"
      points="579.44,152.23 580.05,164.12 580.63,177.45 581.24,188.97 581.85,195.95 582.44,196.81 583.05,191.51 583.64,181.52 584.25,169.39 584.86,158.16 
      585.44,150.47 586.05,148.10 586.64,151.45 587.25,159.50 587.86,170.17 588.45,180.79 589.06,188.78 589.64,192.32 590.25,190.68 590.86,184.48 
      591.45,175.37 592.06,165.70 592.65,157.77 593.26,153.47 593.87,153.67 594.45,158.13 595.06,165.61 595.65,174.18 596.26,181.69 596.87,186.41 
      597.45,187.31 598.07,184.38 598.65,178.50 599.26,171.20 599.87,164.34 600.46,159.53 601.07,157.84 601.65,159.50 602.26,163.92 602.87,169.90 
      603.46,175.93 604.07,180.52 604.66,182.67 605.27,182.04 605.88,178.89 606.46,174.18 607.07,169.12 607.66,164.95 608.27,162.63 608.88,162.55 
      609.47,164.60 610.08,168.14 610.66,172.20 611.27,175.79 611.88,178.06 612.47,178.57 613.08,177.37 613.67,174.86 614.28,171.76 614.89,168.85 
      615.47,166.83 616.08,166.09 616.67,166.70 617.28,168.36 617.89,170.59 618.48,172.78 619.09,174.44 619.67,175.20 620.28,175.01 620.89,173.98 
      621.48,172.49 622.09,170.95 622.68,169.73 623.29,169.07 623.90,169.07 624.48,169.63 625.09,170.54 625.68,171.51 626.29,172.32 626.90,172.78 
      627.48,172.86 628.10,172.59 628.68,172.10 629.29,171.56 629.90,171.12 630.49,170.88 631.10,170.81 631.68,170.93 632.29,171.12 632.91,171.37 
      633.49,171.54 634.10,171.64 634.69,171.64 635.30,171.59 635.91,171.54 636.49,171.49 637.10,171.47 637.69,171.44 638.30,171.47 638.91,171.47 
      639.50,171.44 640.11,171.44 640.69,171.47 641.30,171.49 641.91,171.54 642.50,171.61 643.11,171.64 643.70,171.61 644.31,171.51 644.92,171.34 
      645.50,171.10 646.11,170.90 646.70,170.81 647.31,170.88 647.92,171.17 648.51,171.64 649.12,172.17 649.70,172.64 650.31,172.86 650.92,172.73 
      651.51,172.22 652.12,171.39 652.71,170.42 653.32,169.54 653.93,169.05 654.51,169.12 655.12,169.85 655.71,171.15 656.32,172.69 656.93,174.15 
      657.52,175.08 658.13,175.18 658.71,174.27 659.32,172.54 659.91,170.29 660.52,168.10 661.13,166.56 661.71,166.12 662.32,167.02 662.91,169.19 
      663.52,172.15 664.13,175.23 664.72,177.59 665.33,178.62 665.91,177.86 666.52,175.40 667.13,171.71 667.72,167.66 668.33,164.26 668.92,162.43 
      669.53,162.80 670.14,165.39 670.72,169.73 671.33,174.81 671.92,179.40 672.53,182.26 673.14,182.57 673.73,180.06 674.34,175.23 674.92,169.12 
      675.53,163.26 676.14,159.11 676.73,157.87 677.34,159.97 677.93,165.09 678.54,172.12 679.15,179.33 679.73,184.94 680.34,187.43 680.93,186.02 
      681.54,180.89 682.15,173.13 682.74,164.58 683.35,157.38 683.93,153.40 684.54,153.76 685.15,158.60 685.74,166.85 686.35,176.59 686.94,185.45 
      687.55,191.14 688.16,192.14 688.74,187.99 689.35,179.57 689.94,168.80 690.55,158.31 691.16,150.74 691.74,148.08 692.36,151.15 692.94,159.40 
      693.55,170.90 694.16,182.94 694.75,192.46 695.36,197.05 695.94,195.39 696.55,187.75 697.16,175.84 697.75,162.48 698.36,151.03 698.95,144.32 
      699.56,144.19 700.17,150.83 700.75,162.75 701.36,177.13 701.95,190.44 702.56,199.35 703.17,201.54 703.76,196.32 704.37,184.84 704.95,169.80 
      705.56,154.86 706.17,143.73 706.76,139.24 707.37,142.66 707.96,153.25 708.57,168.54 709.18,184.82 709.76,198.08 710.37,204.99 710.96,203.72 
      711.57,194.44 712.18,179.38 712.77,162.11 713.38,146.93 713.96,137.58 714.57,136.45 715.18,143.95 715.77,158.33 716.38,176.10 716.97,192.95 
      717.58,204.67 718.19,208.36 718.77,202.98 719.38,189.78 719.97,171.95 "/>
    <clipPath
      id="text-clipping215"
      >
      <polygon
        points="0.000000,0.000000 0.000000,349.986267 800.000000,349.986267 800.000000,0.000000"
        />
    </clipPath>
    <g
      clip-path="url(#text-clipping215)"
      >
      <g
        transform="matrix(0.000000 1.000000 1.000000 -0.000000 92.410047 171.489608)"
        >
        <g
          transform="matrix(1.0 0.0 0.0 1.0 0.0 3.759176)"
          >
          <text
            dominant-baseline="no-change"
            fill="#000000"
            fill-opacity="1.000000"
            xml:space="preserve"
            font-size="9"
            text-anchor="middle"
            x="0.000000"
            y="0"
><tspan font-family="sans-serif" font-style="normal" font-weight="normal">&#x31;&#x30;&#x30;&#x25;</tspan></text>
        </g>
      </g>
    </g>
    <polyline
      stroke-width="1"
      stroke="#000000"
      stroke-opacity="1.000000"
      fill="none"
      points="120.00,221.66 719.99,221.66"
      />
    <polyline
      stroke-width="1"
      stroke="#000000"
      stroke-opacity="1.000000"
      fill="none"
      points="719.99,221.66 719.99,307.99"
      />
    <polyline
      stroke-width="1"
      stroke="#000000"
      stroke-opacity="1.000000"
      fill="none"
      points="714.82,225.57 719.99,225.57"
      />
    <polyline
      stroke-width="1"
      stroke="#000000"
      stroke-opacity="1.000000"
      fill="none"
      points="714.82,264.83 719.99,264.83"
      />
    <polyline
      stroke-width="1"
      stroke="#000000"
      stroke-opacity="1.000000"
      fill="none"
      points="714.82,304.06 719.99,304.06"
      />
    <polyline
      stroke-width="1"
      stroke="#000000"
      stroke-opacity="1.000000"
      fill="none"
      points="719.99,307.99 120.00,307.99"
      />
    <polyline
      stroke-width="1"
      stroke="#000000"
      stroke-opacity="1.000000"
      fill="none"
      points="120.00,307.99 120.00,221.66"
      />
    <polyline
      stroke-width="1"
      stroke="#000000"
      stroke-opacity="1.000000"
      fill="none"
      points="120.00,304.06 125.17,304.06"
      />
    <polyline
      stroke-width="1"
      stroke="#000000"
      stroke-opacity="1.000000"
      fill="none"
      points="120.00,264.83 125.17,264.83"
      />
    <polyline
      stroke-width="1"
      stroke="#000000"
      stroke-opacity="1.000000"
      fill="none"
      points="120.00,225.57 125.17,225.57"
      />
    <clipPath
      id="text-clipping216"
      >
      <polygon
        points="0.000000,0.000000 0.000000,349.986267 800.000000,349.986267 800.000000,0.000000"
        />
    </clipPath>
    <g
      clip-path="url(#text-clipping216)"
      >
      <g
        transform="matrix(0.000000 1.000000 1.000000 -0.000000 113.089389 225.568407)"
        >
        <g
          transform="matrix(1.0 0.0 0.0 1.0 0.0 2.672784)"
          >
          <text
            dominant-baseline="no-change"
            fill="#000000"
            fill-opacity="1.000000"
            xml:space="preserve"
            font-size="6"
            text-anchor="middle"
            x="0.000000"
            y="0"
><tspan font-family="sans-serif" font-style="normal" font-weight="normal">&#x2d;&#x31;</tspan></text>
        </g>
      </g>
    </g>
    <clipPath
      id="text-clipping217"
      >
      <polygon
        points="0.000000,0.000000 0.000000,349.986267 800.000000,349.986267 800.000000,0.000000"
        />
    </clipPath>
    <g
      clip-path="url(#text-clipping217)"
      >
      <g
        transform="matrix(0.000000 1.000000 1.000000 -0.000000 113.089389 264.827418)"
        >
        <g
          transform="matrix(1.0 0.0 0.0 1.0 0.0 2.672784)"
          >
          <text
            dominant-baseline="no-change"
            fill="#000000"
            fill-opacity="1.000000"
            xml:space="preserve"
            font-size="6"
            text-anchor="middle"
            x="0.000000"
            y="0"
><tspan font-family="sans-serif" font-style="normal" font-weight="normal">&#x30;</tspan></text>
        </g>
      </g>
    </g>
    <clipPath
      id="text-clipping218"
      >
      <polygon
        points="0.000000,0.000000 0.000000,349.986267 800.000000,349.986267 800.000000,0.000000"
        />
    </clipPath>
    <g
      clip-path="url(#text-clipping218)"
      >
      <g
        transform="matrix(0.000000 1.000000 1.000000 -0.000000 113.089389 304.062014)"
        >
        <g
          transform="matrix(1.0 0.0 0.0 1.0 0.0 2.672784)"
          >
          <text
            dominant-baseline="no-change"
            fill="#000000"
            fill-opacity="1.000000"
            xml:space="preserve"
            font-size="6"
            text-anchor="middle"
            x="0.000000"
            y="0"
><tspan font-family="sans-serif" font-style="normal" font-weight="normal">&#x31;</tspan></text>
        </g>
      </g>
    </g>
    <polyline
      stroke-width="1"
      stroke="#000000"
      stroke-opacity="1.000000"
      fill="none"
      points="120.00,264.83 120.61,277.52 121.20,287.34 121.81,291.76 122.39,289.63 123.00,281.31 123.59,268.73 124.20,254.99 124.81,243.39 125.39,236.87 
      126.00,237.17 126.59,244.29 127.20,256.62 127.81,271.18 128.40,284.43 129.01,293.05 129.59,294.86 130.20,289.24 130.81,277.52 131.40,262.48 
      132.01,247.76 132.60,237.04 133.21,233.01 133.82,236.75 134.40,247.49 135.01,262.65 135.60,278.57 136.21,291.32 136.82,297.69 137.41,296.05 
      138.02,286.68 138.60,271.81 139.21,255.01 139.82,240.44 140.41,231.67 141.02,230.99 141.61,238.63 142.22,252.82 142.83,270.10 143.41,286.29 
      144.02,297.35 144.61,300.52 145.22,294.93 145.83,281.87 146.42,264.49 147.03,247.03 147.61,233.80 148.22,228.06 148.83,231.33 149.42,242.88 
      150.03,259.90 150.61,278.26 151.23,293.44 151.84,301.72 152.42,300.96 153.03,291.34 153.62,275.13 154.23,256.28 154.84,239.44 155.42,228.72 
      156.04,226.84 156.62,234.26 157.23,249.20 157.84,268.07 158.43,286.21 159.04,299.18 159.62,303.74 160.23,298.79 160.84,285.48 161.43,267.07 
      162.04,248.05 162.63,233.11 163.24,225.91 163.85,228.23 164.43,239.53 165.04,257.04 165.63,276.47 166.24,293.05 166.85,302.74 167.44,303.13 
      168.05,294.13 168.63,277.96 169.24,258.58 169.85,240.75 170.44,228.84 171.05,225.74 171.64,232.21 172.25,246.66 172.86,265.51 173.44,284.14 
      174.05,298.01 174.64,303.70 175.25,299.86 175.86,287.48 176.45,269.61 177.06,250.62 177.64,235.21 178.25,227.08 178.86,228.23 179.45,238.31 
      180.06,254.82 180.65,273.67 181.26,290.24 181.87,300.50 182.45,301.99 183.06,294.39 183.65,279.62 184.26,261.36 184.87,244.07 185.45,231.99 
      186.07,227.99 186.65,233.04 187.26,245.78 187.87,263.05 188.46,280.60 189.07,294.13 189.65,300.40 190.26,297.91 190.87,287.41 191.46,271.49 
      192.07,254.13 192.66,239.56 193.27,231.31 193.88,231.31 194.46,239.48 195.07,253.72 195.66,270.49 196.27,285.68 196.88,295.57 197.47,297.89 
      198.08,292.10 198.66,279.74 199.27,263.95 199.88,248.59 200.47,237.39 201.08,233.01 201.67,236.46 202.28,246.74 202.89,261.24 203.47,276.40 
      204.08,288.51 204.67,294.66 205.28,293.47 205.89,285.34 206.48,272.35 207.09,257.75 207.67,245.12 208.28,237.51 208.89,236.65 209.48,242.66 
      210.09,253.94 210.68,267.64 211.29,280.43 211.90,289.17 212.48,291.83 213.09,287.90 213.68,278.45 214.29,265.85 214.90,253.28 215.49,243.73 
      216.10,239.51 216.68,241.51 217.29,249.10 217.90,260.36 218.49,272.47 219.10,282.45 219.68,287.97 220.29,287.73 220.91,281.97 221.49,272.15 
      222.10,260.80 222.69,250.64 223.30,244.15 223.91,242.83 224.49,246.83 225.10,255.13 225.69,265.58 226.30,275.59 226.91,282.80 227.50,285.46 
      228.11,283.09 228.69,276.33 229.30,266.93 229.91,257.26 230.50,249.62 231.11,245.83 231.70,246.74 232.31,252.01 232.92,260.26 233.50,269.42 
      234.11,277.25 234.70,281.92 235.31,282.33 235.92,278.48 236.51,271.42 237.12,262.92 237.70,255.06 238.31,249.74 238.92,248.18 239.51,250.69 
      240.12,256.58 240.71,264.31 241.32,272.03 241.93,277.84 242.51,280.38 243.12,279.11 243.71,274.37 244.32,267.44 244.93,259.97 245.52,253.82 
      246.13,250.45 246.71,250.62 247.32,254.23 247.93,260.36 248.52,267.46 249.13,273.81 249.71,277.89 250.33,278.74 250.94,276.18 251.52,270.91 
      252.13,264.22 252.72,257.75 253.33,253.06 253.94,251.30 254.52,252.84 255.13,257.28 255.72,263.51 256.33,270.03 256.92,275.23 257.53,277.86 
      258.14,277.30 258.72,273.69 259.33,267.93 259.92,261.43 260.53,255.77 261.14,252.33 261.73,251.94 262.34,254.70 262.92,259.94 263.53,266.39 
      264.14,272.47 264.73,276.69 265.34,278.04 265.93,276.13 266.54,271.44 267.15,265.12 267.73,258.65 268.34,253.67 268.93,251.37 269.54,252.35 
      270.15,256.40 270.74,262.58 271.35,269.37 271.93,275.13 272.54,278.43 273.15,278.40 "/>
    <polyline
      stroke-width="1"
      stroke="#000000"
      stroke-opacity="1.000000"
      fill="none"
      points="273.15,278.40 273.74,275.06 274.35,269.12 274.94,262.02 275.55,255.53 276.16,251.20 276.74,250.15 277.35,252.72 277.94,258.33 278.55,265.63 
      279.16,272.86 279.74,278.26 280.36,280.43 280.94,278.79 281.55,273.67 282.16,266.24 282.75,258.31 283.36,251.84 283.94,248.42 284.55,248.98 
      285.16,253.50 285.75,260.90 286.36,269.44 286.95,277.03 287.56,281.77 288.17,282.41 288.75,278.72 289.36,271.49 289.95,262.43 290.56,253.77 
      291.17,247.64 291.76,245.61 292.37,248.32 292.95,255.16 293.56,264.56 294.17,274.23 294.76,281.82 295.37,285.36 295.96,283.90 296.57,277.67 
      297.18,268.10 297.76,257.53 298.37,248.49 298.96,243.32 299.57,243.34 300.18,248.69 300.77,258.16 301.38,269.49 301.96,279.92 302.57,286.83 
      303.18,288.44 303.77,284.26 304.38,275.15 304.97,263.29 305.58,251.57 306.19,242.85 306.77,239.41 307.38,242.19 307.97,250.62 308.58,262.73 
      309.19,275.62 309.78,286.07 310.39,291.49 310.97,290.41 311.58,282.97 312.19,270.91 312.78,257.11 313.39,244.95 313.97,237.48 314.58,236.65 
      315.20,242.76 315.78,254.43 316.39,268.86 316.98,282.55 317.59,292.10 318.20,295.08 318.78,290.61 319.39,279.72 319.98,264.95 320.59,249.93 
      321.20,238.36 321.79,233.14 322.40,235.65 322.98,245.42 323.59,260.09 324.20,276.16 324.79,289.66 325.40,297.20 325.99,296.86 326.60,288.63 
      327.21,274.40 327.79,257.65 328.40,242.44 328.99,232.58 329.60,230.52 330.21,236.90 330.80,250.23 331.41,267.32 331.99,283.97 332.60,296.08 
      333.21,300.60 333.80,296.37 334.41,284.33 335.00,267.39 335.61,249.64 336.22,235.46 336.80,228.40 337.41,230.21 338.00,240.58 338.61,256.97 
      339.22,275.42 339.81,291.42 340.42,300.96 341.00,301.72 341.61,293.39 342.22,277.99 342.81,259.26 343.42,241.80 344.00,229.89 344.62,226.50 
      345.23,232.50 345.81,246.44 346.42,265.00 347.01,283.55 347.62,297.62 348.23,303.65 348.81,300.20 349.42,288.05 350.01,270.17 350.62,250.94 
      351.23,235.04 351.82,226.45 352.43,227.23 353.01,237.21 353.62,254.01 354.23,273.45 354.82,290.80 355.43,301.79 356.02,303.72 356.63,296.13 
      357.24,280.87 357.82,261.70 358.43,243.29 359.02,230.18 359.63,225.59 360.24,230.57 360.83,243.95 361.44,262.39 362.02,281.38 362.63,296.27 
      363.24,303.43 363.83,301.11 364.44,289.93 365.03,272.64 365.64,253.52 366.25,237.24 366.83,227.79 367.44,227.42 368.03,236.19 368.64,251.91 
      369.25,270.69 369.84,287.92 370.45,299.42 371.03,302.38 371.64,296.15 372.25,282.33 372.84,264.31 373.45,246.57 374.03,233.41 374.65,228.03 
      375.26,231.65 375.84,243.34 376.45,260.16 377.04,277.96 377.65,292.39 378.26,299.96 378.84,298.89 379.45,289.54 380.04,274.23 380.65,256.82 
      381.26,241.54 381.85,232.09 382.46,230.74 383.04,237.70 383.65,251.18 384.26,267.81 384.85,283.53 385.46,294.47 386.05,298.06 386.66,293.51 
      387.27,282.04 387.85,266.54 388.46,250.84 389.05,238.75 389.66,233.19 390.27,235.41 390.86,244.73 391.47,258.80 392.05,274.11 392.66,286.92 
      393.25,294.17 393.86,294.15 394.47,287.02 395.06,274.59 395.67,260.02 396.25,246.86 396.86,238.29 397.47,236.31 398.06,241.29 398.67,251.89 
      399.26,265.44 399.87,278.57 400.48,288.14 401.06,291.85 401.67,288.95 402.26,280.23 402.87,267.95 403.48,255.16 404.07,244.95 404.68,239.78 
      405.26,240.78 405.87,247.59 406.48,258.43 407.07,270.61 407.68,281.11 408.26,287.46 408.87,288.17 409.49,283.21 410.07,273.91 410.68,262.58 
      411.27,252.08 411.88,244.88 412.49,242.66 413.07,245.88 413.68,253.60 414.27,263.88 414.88,274.13 415.49,281.92 416.08,285.38 416.69,283.77 
      417.27,277.62 417.88,268.51 418.49,258.70 419.08,250.62 419.69,246.13 420.28,246.30 420.89,250.91 421.50,258.82 422.08,267.98 422.69,276.18 
      423.28,281.43 423.89,282.55 424.50,279.35 425.09,272.69 425.70,264.29 426.28,256.18 "/>
    <polyline
      stroke-width="1"
      stroke="#000000"
      stroke-opacity="1.000000"
      fill="none"
      points="426.28,256.18 426.89,250.35 427.50,248.15 428.09,250.03 428.70,255.45 429.29,263.05 429.90,270.88 430.51,277.11 431.09,280.23 431.70,279.55 
      432.29,275.33 432.90,268.61 433.51,261.12 434.10,254.65 434.71,250.76 435.29,250.35 435.90,253.47 436.51,259.29 437.10,266.34 437.71,272.93 
      438.29,277.45 438.90,278.84 439.52,276.82 440.10,271.88 440.71,265.32 441.30,258.70 441.91,253.65 442.52,251.35 443.10,252.38 443.71,256.40 
      444.30,262.46 444.91,269.05 445.52,274.54 446.11,277.65 446.72,277.60 447.30,274.45 447.91,268.93 448.52,262.46 449.11,256.55 449.72,252.69 
      450.31,251.79 450.92,254.06 451.53,258.99 452.11,265.34 452.72,271.59 453.31,276.18 453.92,278.04 454.53,276.64 455.12,272.35 455.73,266.17 
      456.31,259.63 456.92,254.30 457.53,251.52 458.12,251.96 458.73,255.60 459.32,261.51 459.93,268.32 460.54,274.35 461.12,278.11 461.73,278.65 
      462.32,275.79 462.93,270.17 463.54,263.17 464.13,256.45 464.74,251.69 465.32,250.08 465.93,252.08 466.54,257.28 467.13,264.41 467.74,271.79 
      468.32,277.57 468.94,280.33 469.55,279.31 470.13,274.67 470.74,267.51 471.33,259.53 471.94,252.69 472.55,248.71 473.13,248.62 473.74,252.55 
      474.33,259.60 474.94,268.10 475.55,275.98 476.14,281.26 476.75,282.60 477.33,279.57 477.94,272.81 478.55,263.92 479.14,255.04 479.75,248.37 
      480.34,245.64 480.95,247.59 481.56,253.84 482.14,262.97 482.75,272.79 483.34,280.84 483.95,285.12 484.56,284.46 485.15,278.91 485.76,269.76 
      486.34,259.16 486.95,249.74 487.56,243.81 488.15,242.98 488.76,247.52 489.35,256.45 489.96,267.66 490.57,278.43 491.15,286.04 491.76,288.58 
      492.35,285.29 492.96,276.84 493.57,265.24 494.16,253.30 494.77,243.95 495.35,239.56 495.96,241.34 496.57,248.96 497.16,260.68 497.77,273.64 
      498.36,284.70 498.97,291.05 499.58,291.02 500.16,284.53 500.77,273.03 501.36,259.29 501.97,246.64 502.58,238.26 503.16,236.31 503.78,241.34 
      504.36,252.28 504.97,266.51 505.58,280.57 506.17,290.98 506.78,295.10 507.36,291.81 507.97,281.80 508.58,267.42 509.17,252.18 509.78,239.83 
      510.37,233.45 510.98,234.72 511.59,243.44 512.17,257.55 512.78,273.67 513.37,287.83 513.98,296.49 514.59,297.47 515.18,290.41 515.79,276.94 
      516.37,260.31 516.98,244.59 517.59,233.65 518.18,230.28 518.79,235.36 519.38,247.76 519.99,264.51 520.60,281.50 521.18,294.59 521.79,300.47 
      522.38,297.62 522.99,286.68 523.60,270.25 524.19,252.33 524.80,237.31 525.38,228.94 525.99,229.33 526.58,238.44 527.19,254.11 527.80,272.54 
      528.39,289.19 529.00,299.98 529.58,302.23 530.19,295.27 530.80,280.77 531.39,262.29 532.00,244.32 532.58,231.26 533.19,226.40 533.81,230.94 
      534.39,243.81 535.00,261.92 535.59,280.79 536.20,295.83 536.81,303.31 537.39,301.38 538.00,290.46 538.59,273.23 539.20,253.89 539.81,237.17 
      540.40,227.20 541.01,226.45 541.59,235.09 542.20,251.03 542.81,270.37 543.40,288.36 544.01,300.60 544.60,304.06 545.21,297.91 545.82,283.68 
      546.40,264.83 547.01,245.98 547.60,231.77 548.21,225.67 548.82,229.16 549.41,241.39 550.02,259.31 550.60,278.52 551.21,294.34 551.82,302.89 
      552.41,302.11 553.02,292.20 553.61,275.64 554.22,256.50 554.83,239.46 555.41,228.72 556.02,226.84 556.61,234.24 557.22,249.08 557.83,267.68 
      558.42,285.48 559.03,298.10 559.61,302.55 560.22,297.74 560.83,284.92 561.42,267.29 562.03,249.20 562.61,235.04 563.23,228.28 563.84,230.48 
      564.42,241.05 565.03,257.31 565.62,275.25 566.23,290.49 566.84,299.33 567.42,299.67 568.03,291.49 568.62,276.91 569.23,259.55 569.84,243.66 
      570.43,233.09 571.04,230.38 571.62,236.09 572.23,248.71 572.84,265.12 573.43,281.26 574.04,293.17 574.63,298.03 575.24,294.76 575.85,284.24 
      576.43,269.12 577.04,253.18 577.63,240.31 578.24,233.58 578.85,234.53 579.44,242.83 "/>
    <polyline
      stroke-width="1"
      stroke="#000000"
      stroke-opacity="1.000000"
      fill="none"
      points="579.44,242.83 580.05,256.38 580.63,271.74 581.24,285.19 581.85,293.47 582.44,294.66 583.05,288.58 583.64,276.82 584.25,262.34 584.86,248.71 
      585.44,239.24 586.05,236.14 586.64,240.07 587.25,249.91 587.86,263.22 588.45,276.64 589.06,286.97 589.64,291.71 590.25,289.85 590.86,281.94 
      591.45,270.03 592.06,257.09 592.65,246.30 593.26,240.19 593.87,240.19 594.45,246.17 595.06,256.55 595.65,268.71 596.26,279.67 596.87,286.80 
      597.45,288.46 598.07,284.33 598.65,275.59 599.26,264.41 599.87,253.57 600.46,245.71 601.07,242.66 601.65,245.03 602.26,252.13 602.87,262.17 
      603.46,272.62 604.07,280.94 604.66,285.16 605.27,284.36 605.88,278.87 606.46,270.08 607.07,260.21 607.66,251.69 608.27,246.54 608.88,245.95 
      609.47,249.93 610.08,257.43 610.66,266.54 611.27,275.03 611.88,280.87 612.47,282.67 613.08,280.14 613.67,273.93 614.28,265.66 614.89,257.36 
      615.47,251.06 616.08,248.23 616.67,249.47 617.28,254.40 617.89,261.75 618.48,269.71 619.09,276.30 619.67,279.99 620.28,279.92 620.89,276.20 
      621.48,269.78 622.09,262.29 622.68,255.55 623.29,251.16 623.90,250.18 624.48,252.77 625.09,258.21 625.68,265.19 626.29,271.98 626.90,276.91 
      627.48,278.84 628.10,277.35 628.68,272.81 629.29,266.39 629.90,259.68 630.49,254.28 631.10,251.50 631.68,251.99 632.29,255.60 632.91,261.43 
      633.49,268.03 634.10,273.81 634.69,277.35 635.30,277.84 635.91,275.13 636.49,269.93 637.10,263.48 637.69,257.38 638.30,253.11 638.91,251.72 
      639.50,253.50 640.11,258.06 640.69,264.29 641.30,270.66 641.91,275.62 642.50,277.94 643.11,277.08 643.70,273.18 644.31,267.22 644.92,260.63 
      645.50,255.01 646.11,251.74 646.70,251.67 647.31,254.82 647.92,260.46 648.51,267.24 649.12,273.52 649.70,277.72 650.31,278.79 650.92,276.45 
      651.51,271.20 652.12,264.31 652.71,257.43 653.32,252.25 653.93,250.11 654.51,251.55 655.12,256.28 655.71,263.22 656.32,270.69 656.93,276.84 
      657.52,280.14 658.13,279.72 658.71,275.62 659.32,268.76 659.91,260.77 660.52,253.62 661.13,249.10 661.71,248.35 662.32,251.69 662.91,258.33 
      663.52,266.73 664.13,274.84 664.72,280.67 665.33,282.70 665.91,280.33 666.52,274.08 667.13,265.39 667.72,256.36 668.33,249.20 668.92,245.76 
      669.53,246.96 670.14,252.60 670.72,261.41 671.33,271.27 671.92,279.77 672.53,284.75 673.14,284.90 673.73,280.09 674.34,271.40 674.92,260.85 
      675.53,251.06 676.14,244.44 676.73,242.73 677.34,246.47 677.93,254.82 678.54,265.83 679.15,276.86 679.73,285.14 680.34,288.56 680.93,286.19 
      681.54,278.48 682.15,267.20 682.74,255.11 683.35,245.15 683.93,239.85 684.54,240.63 685.15,247.42 685.74,258.65 686.35,271.61 686.94,283.19 
      687.55,290.44 688.16,291.49 688.74,285.95 689.35,275.11 689.94,261.48 690.55,248.45 691.16,239.22 691.74,236.14 692.36,240.10 692.94,250.25 
      693.55,264.17 694.16,278.50 694.75,289.68 695.36,294.93 695.94,292.81 696.55,283.75 697.16,269.86 697.75,254.52 698.36,241.46 698.95,233.99 
      699.56,233.99 700.17,241.63 700.75,255.09 701.36,271.13 701.95,285.85 702.56,295.59 703.17,297.89 703.76,292.03 704.37,279.40 704.95,263.02 
      705.56,246.86 706.17,234.94 706.76,230.23 707.37,234.02 707.96,245.39 708.57,261.70 709.18,278.96 709.76,292.93 710.37,300.11 710.96,298.67 
      711.57,288.88 712.18,273.08 712.77,255.11 713.38,239.36 713.96,229.72 714.57,228.64 715.18,236.46 715.77,251.30 716.38,269.59 716.97,286.85 
      717.58,298.81 718.19,302.50 718.77,296.93 719.38,283.46 719.97,265.32 "/>
    <clipPath
      id="text-clipping219"
      >
      <polygon
        points="0.000000,0.000000 0.000000,349.986267 800.000000,349.986267 800.000000,0.000000"
        />
    </clipPath>
    <g
      clip-path="url(#text-clipping219)"
      >
      <g
        transform="matrix(0.000000 1.000000 1.000000 -0.000000 92.410047 264.827418)"
        >
        <g
          transform="matrix(1.0 0.0 0.0 1.0 0.0 3.759176)"
          >
          <text
            dominant-baseline="no-change"
            fill="#000000"
            fill-opacity="1.000000"
            xml:space="preserve"
            font-size="9"
            text-anchor="middle"
            x="0.000000"
            y="0"
><tspan font-family="sans-serif" font-style="normal" font-weight="normal">&#x37;&#x35;&#x25;</tspan></text>
        </g>
      </g>
    </g>
  </g>
</svg>
