<?xml version="1.0" encoding="UTF-8"?>
<!DOCTYPE svg PUBLIC "-//W3C//DTD SVG 1.1//EN"
        "http://www.w3.org/Graphics/SVG/1.1/DTD/svg11.dtd">
<svg
  xmlns="http://www.w3.org/2000/svg"
  xmlns:xlink="http://www.w3.org/1999/xlink"
  version="1.1"
  width="800pt"
  height="300pt"
  viewBox="0 0 800 300"
  >
  <rect
    x="0"
    y="0"
    width="800"
    height="300"
    stroke="none"
    fill="#FFFFFF"
    fill-opacity="1.000000"
    />
  <g
    transform="matrix(1 0 0 -1 0 300)"
    >
    <polyline
      stroke-width="1"
      stroke="#000000"
      stroke-opacity="1.000000"
      fill="none"
      points="80.01,38.99 695.99,38.99"
      />
    <polyline
      stroke-width="1"
      stroke="#000000"
      stroke-opacity="1.000000"
      fill="none"
      points="80.01,38.99 80.01,47.24"
      />
    <polyline
      stroke-width="1"
      stroke="#000000"
      stroke-opacity="1.000000"
      fill="none"
      points="110.84,38.99 110.84,43.12"
      />
    <polyline
      stroke-width="1"
      stroke="#000000"
      stroke-opacity="1.000000"
      fill="none"
      points="141.65,38.99 141.65,43.12"
      />
    <polyline
      stroke-width="1"
      stroke="#000000"
      stroke-opacity="1.000000"
      fill="none"
      points="172.49,38.99 172.49,43.12"
      />
    <polyline
      stroke-width="1"
      stroke="#000000"
      stroke-opacity="1.000000"
      fill="none"
      points="203.33,38.99 203.33,47.24"
      />
    <polyline
      stroke-width="1"
      stroke="#000000"
      stroke-opacity="1.000000"
      fill="none"
      points="234.16,38.99 234.16,43.12"
      />
    <polyline
      stroke-width="1"
      stroke="#000000"
      stroke-opacity="1.000000"
      fill="none"
      points="264.97,38.99 264.97,43.12"
      />
    <polyline
      stroke-width="1"
      stroke="#000000"
      stroke-opacity="1.000000"
      fill="none"
      points="295.81,38.99 295.81,43.12"
      />
    <polyline
      stroke-width="1"
      stroke="#000000"
      stroke-opacity="1.000000"
      fill="none"
      points="326.65,38.99 326.65,47.24"
      />
    <polyline
      stroke-width="1"
      stroke="#000000"
      stroke-opacity="1.000000"
      fill="none"
      points="357.48,38.99 357.48,43.12"
      />
    <polyline
      stroke-width="1"
      stroke="#000000"
      stroke-opacity="1.000000"
      fill="none"
      points="388.29,38.99 388.29,43.12"
      />
    <polyline
      stroke-width="1"
      stroke="#000000"
      stroke-opacity="1.000000"
      fill="none"
      points="419.13,38.99 419.13,43.12"
      />
    <polyline
      stroke-width="1"
      stroke="#000000"
      stroke-opacity="1.000000"
      fill="none"
      points="449.96,38.99 449.96,47.24"
      />
    <polyline
      stroke-width="1"
      stroke="#000000"
      stroke-opacity="1.000000"
      fill="none"
      points="480.80,38.99 480.80,43.12"
      />
    <polyline
      stroke-width="1"
      stroke="#000000"
      stroke-opacity="1.000000"
      fill="none"
      points="511.61,38.99 511.61,43.12"
      />
    <polyline
      stroke-width="1"
      stroke="#000000"
      stroke-opacity="1.000000"
      fill="none"
      points="542.45,38.99 542.45,43.12"
      />
    <polyline
      stroke-width="1"
      stroke="#000000"
      stroke-opacity="1.000000"
      fill="none"
      points="573.28,38.99 573.28,47.24"
      />
    <polyline
      stroke-width="1"
      stroke="#000000"
      stroke-opacity="1.000000"
      fill="none"
      points="604.10,38.99 604.10,43.12"
      />
    <polyline
      stroke-width="1"
      stroke="#000000"
      stroke-opacity="1.000000"
      fill="none"
      points="634.93,38.99 634.93,43.12"
      />
    <polyline
      stroke-width="1"
      stroke="#000000"
      stroke-opacity="1.000000"
      fill="none"
      points="665.77,38.99 665.77,43.12"
      />
    <polyline
      stroke-width="1"
      stroke="#000000"
      stroke-opacity="1.000000"
      fill="none"
      points="695.99,38.99 695.99,245.98"
      />
    <polyline
      stroke-width="1"
      stroke="#000000"
      stroke-opacity="1.000000"
      fill="none"
      points="687.74,38.99 695.99,38.99"
      />
    <polyline
      stroke-width="1"
      stroke="#000000"
      stroke-opacity="1.000000"
      fill="none"
      points="691.87,49.34 695.99,49.34"
      />
    <polyline
      stroke-width="1"
      stroke="#000000"
      stroke-opacity="1.000000"
      fill="none"
      points="691.87,59.69 695.99,59.69"
      />
    <polyline
      stroke-width="1"
      stroke="#000000"
      stroke-opacity="1.000000"
      fill="none"
      points="691.87,70.05 695.99,70.05"
      />
    <polyline
      stroke-width="1"
      stroke="#000000"
      stroke-opacity="1.000000"
      fill="none"
      points="691.87,80.40 695.99,80.40"
      />
    <polyline
      stroke-width="1"
      stroke="#000000"
      stroke-opacity="1.000000"
      fill="none"
      points="687.74,90.73 695.99,90.73"
      />
    <polyline
      stroke-width="1"
      stroke="#000000"
      stroke-opacity="1.000000"
      fill="none"
      points="691.87,101.08 695.99,101.08"
      />
    <polyline
      stroke-width="1"
      stroke="#000000"
      stroke-opacity="1.000000"
      fill="none"
      points="691.87,111.43 695.99,111.43"
      />
    <polyline
      stroke-width="1"
      stroke="#000000"
      stroke-opacity="1.000000"
      fill="none"
      points="691.87,121.78 695.99,121.78"
      />
    <polyline
      stroke-width="1"
      stroke="#000000"
      stroke-opacity="1.000000"
      fill="none"
      points="691.87,132.13 695.99,132.13"
      />
    <polyline
      stroke-width="1"
      stroke="#000000"
      stroke-opacity="1.000000"
      fill="none"
      points="687.74,142.48 695.99,142.48"
      />
    <polyline
      stroke-width="1"
      stroke="#000000"
      stroke-opacity="1.000000"
      fill="none"
      points="691.87,152.84 695.99,152.84"
      />
    <polyline
      stroke-width="1"
      stroke="#000000"
      stroke-opacity="1.000000"
      fill="none"
      points="691.87,163.19 695.99,163.19"
      />
    <polyline
      stroke-width="1"
      stroke="#000000"
      stroke-opacity="1.000000"
      fill="none"
      points="691.87,173.54 695.99,173.54"
      />
    <polyline
      stroke-width="1"
      stroke="#000000"
      stroke-opacity="1.000000"
      fill="none"
      points="691.87,183.87 695.99,183.87"
      />
    <polyline
      stroke-width="1"
      stroke="#000000"
      stroke-opacity="1.000000"
      fill="none"
      points="687.74,194.22 695.99,194.22"
      />
    <polyline
      stroke-width="1"
      stroke="#000000"
      stroke-opacity="1.000000"
      fill="none"
      points="691.87,204.57 695.99,204.57"
      />
    <polyline
      stroke-width="1"
      stroke="#000000"
      stroke-opacity="1.000000"
      fill="none"
      points="691.87,214.92 695.99,214.92"
      />
    <polyline
      stroke-width="1"
      stroke="#000000"
      stroke-opacity="1.000000"
      fill="none"
      points="691.87,225.28 695.99,225.28"
      />
    <polyline
      stroke-width="1"
      stroke="#000000"
      stroke-opacity="1.000000"
      fill="none"
      points="691.87,235.63 695.99,235.63"
      />
    <polyline
      stroke-width="1"
      stroke="#000000"
      stroke-opacity="1.000000"
      fill="none"
      points="687.74,245.98 695.99,245.98"
      />
    <polyline
      stroke-width="1"
      stroke="#000000"
      stroke-opacity="1.000000"
      fill="none"
      points="695.99,245.98 80.01,245.98"
      />
    <polyline
      stroke-width="1"
      stroke="#000000"
      stroke-opacity="1.000000"
      fill="none"
      points="665.77,241.85 665.77,245.98"
      />
    <polyline
      stroke-width="1"
      stroke="#000000"
      stroke-opacity="1.000000"
      fill="none"
      points="634.93,241.85 634.93,245.98"
      />
    <polyline
      stroke-width="1"
      stroke="#000000"
      stroke-opacity="1.000000"
      fill="none"
      points="604.10,241.85 604.10,245.98"
      />
    <polyline
      stroke-width="1"
      stroke="#000000"
      stroke-opacity="1.000000"
      fill="none"
      points="573.28,237.73 573.28,245.98"
      />
    <polyline
      stroke-width="1"
      stroke="#000000"
      stroke-opacity="1.000000"
      fill="none"
      points="542.45,241.85 542.45,245.98"
      />
    <polyline
      stroke-width="1"
      stroke="#000000"
      stroke-opacity="1.000000"
      fill="none"
      points="511.61,241.85 511.61,245.98"
      />
    <polyline
      stroke-width="1"
      stroke="#000000"
      stroke-opacity="1.000000"
      fill="none"
      points="480.80,241.85 480.80,245.98"
      />
    <polyline
      stroke-width="1"
      stroke="#000000"
      stroke-opacity="1.000000"
      fill="none"
      points="449.96,237.73 449.96,245.98"
      />
    <polyline
      stroke-width="1"
      stroke="#000000"
      stroke-opacity="1.000000"
      fill="none"
      points="419.13,241.85 419.13,245.98"
      />
    <polyline
      stroke-width="1"
      stroke="#000000"
      stroke-opacity="1.000000"
      fill="none"
      points="388.29,241.85 388.29,245.98"
      />
    <polyline
      stroke-width="1"
      stroke="#000000"
      stroke-opacity="1.000000"
      fill="none"
      points="357.48,241.85 357.48,245.98"
      />
    <polyline
      stroke-width="1"
      stroke="#000000"
      stroke-opacity="1.000000"
      fill="none"
      points="326.65,237.73 326.65,245.98"
      />
    <polyline
      stroke-width="1"
      stroke="#000000"
      stroke-opacity="1.000000"
      fill="none"
      points="295.81,241.85 295.81,245.98"
      />
    <polyline
      stroke-width="1"
      stroke="#000000"
      stroke-opacity="1.000000"
      fill="none"
      points="264.97,241.85 264.97,245.98"
      />
    <polyline
      stroke-width="1"
      stroke="#000000"
      stroke-opacity="1.000000"
      fill="none"
      points="234.16,241.85 234.16,245.98"
      />
    <polyline
      stroke-width="1"
      stroke="#000000"
      stroke-opacity="1.000000"
      fill="none"
      points="203.33,237.73 203.33,245.98"
      />
    <polyline
      stroke-width="1"
      stroke="#000000"
      stroke-opacity="1.000000"
      fill="none"
      points="172.49,241.85 172.49,245.98"
      />
    <polyline
      stroke-width="1"
      stroke="#000000"
      stroke-opacity="1.000000"
      fill="none"
      points="141.65,241.85 141.65,245.98"
      />
    <polyline
      stroke-width="1"
      stroke="#000000"
      stroke-opacity="1.000000"
      fill="none"
      points="110.84,241.85 110.84,245.98"
      />
    <polyline
      stroke-width="1"
      stroke="#000000"
      stroke-opacity="1.000000"
      fill="none"
      points="80.01,237.73 80.01,245.98"
      />
    <polyline
      stroke-width="1"
      stroke="#000000"
      stroke-opacity="1.000000"
      fill="none"
      points="80.01,245.98 80.01,38.99"
      />
    <polyline
      stroke-width="1"
      stroke="#000000"
      stroke-opacity="1.000000"
      fill="none"
      points="80.01,245.98 88.26,245.98"
      />
    <polyline
      stroke-width="1"
      stroke="#000000"
      stroke-opacity="1.000000"
      fill="none"
      points="80.01,235.63 84.13,235.63"
      />
    <polyline
      stroke-width="1"
      stroke="#000000"
      stroke-opacity="1.000000"
      fill="none"
      points="80.01,225.28 84.13,225.28"
      />
    <polyline
      stroke-width="1"
      stroke="#000000"
      stroke-opacity="1.000000"
      fill="none"
      points="80.01,214.92 84.13,214.92"
      />
    <polyline
      stroke-width="1"
      stroke="#000000"
      stroke-opacity="1.000000"
      fill="none"
      points="80.01,204.57 84.13,204.57"
      />
    <polyline
      stroke-width="1"
      stroke="#000000"
      stroke-opacity="1.000000"
      fill="none"
      points="80.01,194.22 88.26,194.22"
      />
    <polyline
      stroke-width="1"
      stroke="#000000"
      stroke-opacity="1.000000"
      fill="none"
      points="80.01,183.87 84.13,183.87"
      />
    <polyline
      stroke-width="1"
      stroke="#000000"
      stroke-opacity="1.000000"
      fill="none"
      points="80.01,173.54 84.13,173.54"
      />
    <polyline
      stroke-width="1"
      stroke="#000000"
      stroke-opacity="1.000000"
      fill="none"
      points="80.01,163.19 84.13,163.19"
      />
    <polyline
      stroke-width="1"
      stroke="#000000"
      stroke-opacity="1.000000"
      fill="none"
      points="80.01,152.84 84.13,152.84"
      />
    <polyline
      stroke-width="1"
      stroke="#000000"
      stroke-opacity="1.000000"
      fill="none"
      points="80.01,142.48 88.26,142.48"
      />
    <polyline
      stroke-width="1"
      stroke="#000000"
      stroke-opacity="1.000000"
      fill="none"
      points="80.01,132.13 84.13,132.13"
      />
    <polyline
      stroke-width="1"
      stroke="#000000"
      stroke-opacity="1.000000"
      fill="none"
      points="80.01,121.78 84.13,121.78"
      />
    <polyline
      stroke-width="1"
      stroke="#000000"
      stroke-opacity="1.000000"
      fill="none"
      points="80.01,111.43 84.13,111.43"
      />
    <polyline
      stroke-width="1"
      stroke="#000000"
      stroke-opacity="1.000000"
      fill="none"
      points="80.01,101.08 84.13,101.08"
      />
    <polyline
      stroke-width="1"
      stroke="#000000"
      stroke-opacity="1.000000"
      fill="none"
      points="80.01,90.73 88.26,90.73"
      />
    <polyline
      stroke-width="1"
      stroke="#000000"
      stroke-opacity="1.000000"
      fill="none"
      points="80.01,80.40 84.13,80.40"
      />
    <polyline
      stroke-width="1"
      stroke="#000000"
      stroke-opacity="1.000000"
      fill="none"
      points="80.01,70.05 84.13,70.05"
      />
    <polyline
      stroke-width="1"
      stroke="#000000"
      stroke-opacity="1.000000"
      fill="none"
      points="80.01,59.69 84.13,59.69"
      />
    <polyline
      stroke-width="1"
      stroke="#000000"
      stroke-opacity="1.000000"
      fill="none"
      points="80.01,49.34 84.13,49.34"
      />
    <polyline
      stroke-width="1"
      stroke="#000000"
      stroke-opacity="1.000000"
      fill="none"
      points="80.01,38.99 88.26,38.99"
      />
    <clipPath
      id="text-clipping186"
      >
      <polygon
        points="0.000000,0.000000 0.000000,299.984741 800.000000,299.984741 800.000000,0.000000"
        />
    </clipPath>
    <g
      clip-path="url(#text-clipping186)"
      >
      <g
        transform="matrix(1.000000 0.000000 0.000000 -1.000000 80.007324 22.486038)"
        >
        <g
          transform="matrix(1.0 0.0 0.0 1.0 0.0 5.695778)"
          >
          <text
            dominant-baseline="no-change"
            fill="#000000"
            fill-opacity="1.000000"
            xml:space="preserve"
            font-size="14"
            text-anchor="middle"
            x="0.000000"
            y="0"
><tspan font-family="sans-serif" font-style="normal" font-weight="normal">&#x30;</tspan></text>
        </g>
      </g>
    </g>
    <clipPath
      id="text-clipping187"
      >
      <polygon
        points="0.000000,0.000000 0.000000,299.984741 800.000000,299.984741 800.000000,0.000000"
        />
    </clipPath>
    <g
      clip-path="url(#text-clipping187)"
      >
      <g
        transform="matrix(1.000000 0.000000 0.000000 -1.000000 203.326518 22.486038)"
        >
        <g
          transform="matrix(1.0 0.0 0.0 1.0 0.0 5.695778)"
          >
          <text
            dominant-baseline="no-change"
            fill="#000000"
            fill-opacity="1.000000"
            xml:space="preserve"
            font-size="14"
            text-anchor="middle"
            x="0.000000"
            y="0"
><tspan font-family="sans-serif" font-style="normal" font-weight="normal">&#x32;</tspan></text>
        </g>
      </g>
    </g>
    <clipPath
      id="text-clipping188"
      >
      <polygon
        points="0.000000,0.000000 0.000000,299.984741 800.000000,299.984741 800.000000,0.000000"
        />
    </clipPath>
    <g
      clip-path="url(#text-clipping188)"
      >
      <g
        transform="matrix(1.000000 0.000000 0.000000 -1.000000 326.645711 22.486038)"
        >
        <g
          transform="matrix(1.0 0.0 0.0 1.0 0.0 5.695778)"
          >
          <text
            dominant-baseline="no-change"
            fill="#000000"
            fill-opacity="1.000000"
            xml:space="preserve"
            font-size="14"
            text-anchor="middle"
            x="0.000000"
            y="0"
><tspan font-family="sans-serif" font-style="normal" font-weight="normal">&#x34;</tspan></text>
        </g>
      </g>
    </g>
    <clipPath
      id="text-clipping189"
      >
      <polygon
        points="0.000000,0.000000 0.000000,299.984741 800.000000,299.984741 800.000000,0.000000"
        />
    </clipPath>
    <g
      clip-path="url(#text-clipping189)"
      >
      <g
        transform="matrix(1.000000 0.000000 0.000000 -1.000000 449.964904 22.486038)"
        >
        <g
          transform="matrix(1.0 0.0 0.0 1.0 0.0 5.695778)"
          >
          <text
            dominant-baseline="no-change"
            fill="#000000"
            fill-opacity="1.000000"
            xml:space="preserve"
            font-size="14"
            text-anchor="middle"
            x="0.000000"
            y="0"
><tspan font-family="sans-serif" font-style="normal" font-weight="normal">&#x36;</tspan></text>
        </g>
      </g>
    </g>
    <clipPath
      id="text-clipping190"
      >
      <polygon
        points="0.000000,0.000000 0.000000,299.984741 800.000000,299.984741 800.000000,0.000000"
        />
    </clipPath>
    <g
      clip-path="url(#text-clipping190)"
      >
      <g
        transform="matrix(1.000000 0.000000 0.000000 -1.000000 573.284097 22.486038)"
        >
        <g
          transform="matrix(1.0 0.0 0.0 1.0 0.0 5.695778)"
          >
          <text
            dominant-baseline="no-change"
            fill="#000000"
            fill-opacity="1.000000"
            xml:space="preserve"
            font-size="14"
            text-anchor="middle"
            x="0.000000"
            y="0"
><tspan font-family="sans-serif" font-style="normal" font-weight="normal">&#x38;</tspan></text>
        </g>
      </g>
    </g>
    <clipPath
      id="text-clipping191"
      >
      <polygon
        points="0.000000,0.000000 0.000000,299.984741 800.000000,299.984741 800.000000,0.000000"
        />
    </clipPath>
    <g
      clip-path="url(#text-clipping191)"
      >
      <g
        transform="matrix(0.000000 1.000000 1.000000 -0.000000 63.502915 38.990448)"
        >
        <g
          transform="matrix(1.0 0.0 0.0 1.0 0.0 5.695778)"
          >
          <text
            dominant-baseline="no-change"
            fill="#000000"
            fill-opacity="1.000000"
            xml:space="preserve"
            font-size="14"
            text-anchor="middle"
            x="0.000000"
            y="0"
><tspan font-family="sans-serif" font-style="normal" font-weight="normal">&#x2d;&#x31;&#x2e;&#x30;</tspan></text>
        </g>
      </g>
    </g>
    <clipPath
      id="text-clipping192"
      >
      <polygon
        points="0.000000,0.000000 0.000000,299.984741 800.000000,299.984741 800.000000,0.000000"
        />
    </clipPath>
    <g
      clip-path="url(#text-clipping192)"
      >
      <g
        transform="matrix(0.000000 1.000000 1.000000 -0.000000 63.502915 90.749840)"
        >
        <g
          transform="matrix(1.0 0.0 0.0 1.0 0.0 5.695778)"
          >
          <text
            dominant-baseline="no-change"
            fill="#000000"
            fill-opacity="1.000000"
            xml:space="preserve"
            font-size="14"
            text-anchor="middle"
            x="0.000000"
            y="0"
><tspan font-family="sans-serif" font-style="normal" font-weight="normal">&#x2d;&#x30;&#x2e;&#x35;</tspan></text>
        </g>
      </g>
    </g>
    <clipPath
      id="text-clipping193"
      >
      <polygon
        points="0.000000,0.000000 0.000000,299.984741 800.000000,299.984741 800.000000,0.000000"
        />
    </clipPath>
    <g
      clip-path="url(#text-clipping193)"
      >
      <g
        transform="matrix(0.000000 1.000000 1.000000 -0.000000 63.502915 142.484817)"
        >
        <g
          transform="matrix(1.0 0.0 0.0 1.0 0.0 5.695778)"
          >
          <text
            dominant-baseline="no-change"
            fill="#000000"
            fill-opacity="1.000000"
            xml:space="preserve"
            font-size="14"
            text-anchor="middle"
            x="0.000000"
            y="0"
><tspan font-family="sans-serif" font-style="normal" font-weight="normal">&#x30;&#x2e;&#x30;</tspan></text>
        </g>
      </g>
    </g>
    <clipPath
      id="text-clipping194"
      >
      <polygon
        points="0.000000,0.000000 0.000000,299.984741 800.000000,299.984741 800.000000,0.000000"
        />
    </clipPath>
    <g
      clip-path="url(#text-clipping194)"
      >
      <g
        transform="matrix(0.000000 1.000000 1.000000 -0.000000 63.502915 194.244209)"
        >
        <g
          transform="matrix(1.0 0.0 0.0 1.0 0.0 5.695778)"
          >
          <text
            dominant-baseline="no-change"
            fill="#000000"
            fill-opacity="1.000000"
            xml:space="preserve"
            font-size="14"
            text-anchor="middle"
            x="0.000000"
            y="0"
><tspan font-family="sans-serif" font-style="normal" font-weight="normal">&#x30;&#x2e;&#x35;</tspan></text>
        </g>
      </g>
    </g>
    <clipPath
      id="text-clipping195"
      >
      <polygon
        points="0.000000,0.000000 0.000000,299.984741 800.000000,299.984741 800.000000,0.000000"
        />
    </clipPath>
    <g
      clip-path="url(#text-clipping195)"
      >
      <g
        transform="matrix(0.000000 1.000000 1.000000 -0.000000 63.502915 245.979186)"
        >
        <g
          transform="matrix(1.0 0.0 0.0 1.0 0.0 5.695778)"
          >
          <text
            dominant-baseline="no-change"
            fill="#000000"
            fill-opacity="1.000000"
            xml:space="preserve"
            font-size="14"
            text-anchor="middle"
            x="0.000000"
            y="0"
><tspan font-family="sans-serif" font-style="normal" font-weight="normal">&#x31;&#x2e;&#x30;</tspan></text>
        </g>
      </g>
    </g>
    <polyline
      stroke-width="1"
      stroke="#000000"
      stroke-opacity="1.000000"
      fill="none"
      points="80.01,142.48 80.62,143.51 81.23,144.56 81.86,145.59 82.47,146.61 83.08,147.66 83.69,148.69 84.33,149.71 84.94,150.76 85.55,151.79 
      86.16,152.81 86.79,153.84 87.41,154.86 88.02,155.89 88.65,156.91 89.26,157.94 89.87,158.96 90.48,159.99 91.12,161.02 91.73,162.02 
      92.34,163.04 92.95,164.07 93.58,165.07 94.19,166.07 94.80,167.07 95.41,168.10 96.05,169.10 96.66,170.10 97.27,171.07 97.88,172.08 
      98.51,173.08 99.12,174.05 99.73,175.03 100.34,176.01 100.98,177.01 101.59,177.96 102.20,178.94 102.81,179.91 103.45,180.86 104.06,181.82 
      104.67,182.79 105.28,183.75 105.91,184.67 106.52,185.63 107.13,186.55 107.74,187.51 108.38,188.43 108.99,189.36 109.60,190.26 110.21,191.19 
      110.84,192.10 111.45,193.00 112.06,193.90 112.67,194.81 113.31,195.68 113.92,196.59 114.53,197.47 115.14,198.32 115.78,199.20 116.39,200.05 
      117.00,200.91 117.61,201.76 118.24,202.62 118.85,203.45 119.46,204.28 120.07,205.11 120.71,205.94 121.32,206.74 121.93,207.55 122.56,208.36 
      123.17,209.16 123.78,209.94 124.39,210.72 125.03,211.51 125.64,212.26 126.25,213.02 126.86,213.78 127.49,214.53 128.10,215.27 128.71,216.00 
      129.33,216.73 129.96,217.44 130.57,218.15 131.18,218.85 131.79,219.54 132.43,220.22 133.04,220.91 133.65,221.59 134.26,222.25 134.89,222.91 
      135.50,223.54 136.11,224.20 136.72,224.81 137.36,225.45 137.97,226.06 138.58,226.67 139.19,227.25 139.82,227.86 140.43,228.42 141.04,229.01 
      141.65,229.57 142.29,230.13 142.90,230.67 143.51,231.21 144.12,231.75 144.76,232.26 145.37,232.77 145.98,233.26 146.59,233.75 147.22,234.24 
      147.83,234.72 148.44,235.19 149.05,235.63 149.69,236.09 150.30,236.53 150.91,236.95 151.52,237.36 152.15,237.78 152.76,238.17 153.37,238.56 
      154.01,238.95 154.62,239.31 155.23,239.68 155.84,240.02 156.47,240.36 157.08,240.71 157.70,241.02 158.31,241.32 158.94,241.63 159.55,241.93 
      160.16,242.19 160.77,242.46 161.41,242.73 162.02,243.00 162.63,243.22 163.24,243.46 163.87,243.68 164.48,243.90 165.09,244.10 165.70,244.29 
      166.34,244.47 166.95,244.64 167.56,244.81 168.17,244.95 168.80,245.10 169.41,245.22 170.02,245.34 170.64,245.44 171.27,245.54 171.88,245.64 
      172.49,245.71 173.10,245.78 173.74,245.83 174.35,245.88 174.96,245.93 175.57,245.95 176.20,245.98 176.81,245.98 177.42,245.98 178.03,245.95 
      178.67,245.93 179.28,245.91 179.89,245.86 180.50,245.78 181.13,245.74 181.74,245.66 182.35,245.56 182.96,245.47 183.60,245.37 184.21,245.25 
      184.82,245.10 185.43,244.98 186.07,244.83 186.68,244.66 187.29,244.49 187.92,244.32 188.53,244.12 189.14,243.93 189.75,243.71 190.39,243.49 
      191.00,243.27 191.61,243.02 192.22,242.78 192.85,242.51 193.46,242.24 194.07,241.98 194.68,241.68 195.32,241.36 195.93,241.07 196.54,240.75 
      197.15,240.41 197.78,240.07 198.39,239.73 199.01,239.36 199.62,239.00 200.25,238.63 200.86,238.24 201.47,237.82 202.08,237.43 202.72,237.02 
      203.33,236.58 203.94,236.14 204.55,235.70 205.18,235.26 205.79,234.80 206.40,234.31 207.01,233.85 207.65,233.33 208.26,232.84 208.87,232.33 
      209.48,231.82 210.11,231.28 210.72,230.74 211.33,230.21 211.94,229.65 212.58,229.08 213.19,228.52 213.80,227.94 214.41,227.35 215.05,226.76 
      215.66,226.15 216.27,225.54 216.88,224.91 217.51,224.30 218.12,223.66 218.73,223.00 219.37,222.35 219.98,221.69 220.59,221.03 221.20,220.34 
      221.83,219.66 222.44,218.95 223.05,218.27 223.66,217.56 224.30,216.83 224.91,216.12 225.52,215.39 226.13,214.65 226.76,213.90 227.38,213.14 
      227.99,212.38 228.60,211.63 229.23,210.85 229.84,210.07 230.45,209.28 231.06,208.48 231.70,207.70 232.31,206.87 232.92,206.06 233.53,205.26 
      234.16,204.43 234.77,203.60 235.38,202.74 235.99,201.91 236.63,201.06 237.24,200.20 "/>
    <polyline
      stroke-width="1"
      stroke="#000000"
      stroke-opacity="1.000000"
      fill="none"
      points="237.24,200.20 237.85,199.35 238.46,198.47 239.09,197.59 239.70,196.71 240.31,195.83 240.93,194.95 241.56,194.05 242.17,193.15 242.78,192.24 
      243.39,191.34 244.03,190.41 244.64,189.51 245.25,188.58 245.86,187.65 246.49,186.72 247.10,185.77 247.71,184.84 248.32,183.89 248.96,182.94 
      249.57,181.99 250.18,181.01 250.81,180.06 251.42,179.08 252.03,178.13 252.64,177.15 253.28,176.18 253.89,175.20 254.50,174.20 255.11,173.22 
      255.75,172.22 256.36,171.25 256.97,170.24 257.58,169.24 258.21,168.24 258.82,167.24 259.43,166.24 260.04,165.24 260.68,164.21 261.29,163.21 
      261.90,162.19 262.51,161.16 263.14,160.16 263.75,159.14 264.36,158.11 264.97,157.08 265.61,156.06 266.22,155.03 266.83,154.01 267.44,152.98 
      268.07,151.96 268.68,150.91 269.30,149.88 269.91,148.86 270.54,147.81 271.15,146.78 271.76,145.76 272.37,144.71 273.01,143.68 273.62,142.66 
      274.23,141.61 274.84,140.58 275.47,139.53 276.08,138.51 276.69,137.48 277.30,136.43 277.94,135.40 278.55,134.38 279.16,133.35 279.77,132.30 
      280.40,131.28 281.01,130.25 281.62,129.23 282.24,128.20 282.87,127.18 283.48,126.15 284.09,125.13 284.73,124.12 285.34,123.10 285.95,122.07 
      286.56,121.07 287.19,120.05 287.80,119.05 288.41,118.05 289.02,117.04 289.66,116.04 290.27,115.04 290.88,114.04 291.49,113.04 292.12,112.06 
      292.73,111.06 293.34,110.09 293.95,109.11 294.59,108.13 295.20,107.16 295.81,106.18 296.42,105.20 297.05,104.25 297.67,103.30 298.28,102.32 
      298.89,101.37 299.52,100.44 300.13,99.49 300.74,98.54 301.35,97.61 301.99,96.68 302.60,95.75 303.21,94.83 303.82,93.92 304.45,93.02 
      305.06,92.09 305.67,91.21 306.28,90.31 306.92,89.41 307.53,88.53 308.14,87.65 308.75,86.77 309.38,85.89 309.99,85.04 310.61,84.18 
      311.22,83.33 311.85,82.47 312.46,81.64 313.07,80.81 313.68,79.98 314.32,79.15 314.93,78.35 315.54,77.54 316.17,76.74 316.78,75.93 
      317.39,75.15 318.00,74.37 318.64,73.59 319.25,72.83 319.86,72.05 320.47,71.29 321.10,70.56 321.71,69.83 322.32,69.09 322.93,68.36 
      323.57,67.63 324.18,66.92 324.79,66.21 325.40,65.53 326.04,64.85 326.65,64.16 327.26,63.48 327.87,62.82 328.50,62.16 329.11,61.53 
      329.72,60.87 330.33,60.23 330.97,59.62 331.58,59.01 332.19,58.40 332.80,57.79 333.43,57.20 334.04,56.62 334.65,56.06 335.26,55.49 
      335.90,54.93 336.51,54.37 337.12,53.83 337.73,53.32 338.36,52.78 338.98,52.27 339.59,51.78 340.20,51.30 340.83,50.81 341.44,50.32 
      342.05,49.86 342.66,49.39 343.30,48.95 343.91,48.51 344.52,48.10 345.13,47.66 345.76,47.27 346.37,46.85 346.98,46.46 347.59,46.07 
      348.23,45.70 348.84,45.34 349.45,45.00 350.08,44.65 350.69,44.31 351.30,44.00 351.92,43.68 352.55,43.39 353.16,43.09 353.77,42.80 
      354.38,42.53 355.02,42.26 355.63,42.02 356.24,41.77 356.85,41.53 357.48,41.31 358.09,41.09 358.70,40.89 359.31,40.70 359.95,40.53 
      360.56,40.36 361.17,40.19 361.78,40.04 362.41,39.89 363.02,39.77 363.63,39.65 364.24,39.53 364.88,39.43 365.49,39.33 366.10,39.26 
      366.71,39.19 367.35,39.14 367.96,39.09 368.57,39.04 369.18,39.01 369.81,38.99 370.42,38.99 371.03,38.99 371.64,39.01 372.28,39.04 
      372.89,39.06 373.50,39.11 374.11,39.16 374.74,39.23 375.35,39.31 375.96,245.59 376.57,245.49 377.21,245.37 377.82,245.27 378.43,245.12 
      379.04,245.00 379.67,244.86 380.29,244.69 380.90,244.51 381.53,244.34 382.14,244.15 382.75,243.95 383.36,243.76 384.00,243.54 384.61,243.29 
      385.22,243.07 385.83,242.83 386.46,242.56 387.07,242.29 387.68,242.02 388.29,241.73 388.93,241.41 389.54,241.12 390.15,240.80 390.76,240.46 
      391.39,240.14 392.00,239.78 392.61,239.44 393.22,239.07 393.86,238.68 394.47,238.29 "/>
    <polyline
      stroke-width="1"
      stroke="#000000"
      stroke-opacity="1.000000"
      fill="none"
      points="394.47,238.29 395.08,237.90 395.69,237.51 396.33,237.09 396.94,236.65 397.55,236.21 398.16,235.77 398.79,235.33 399.40,234.87 400.01,234.38 
      400.62,233.92 401.26,233.43 401.87,232.92 402.48,232.43 403.09,231.89 403.72,231.38 404.33,230.84 404.94,230.30 405.55,229.74 406.19,229.18 
      406.80,228.62 407.41,228.03 408.02,227.45 408.66,226.86 409.27,226.25 409.88,225.64 410.49,225.03 411.12,224.40 411.73,223.76 412.34,223.10 
      412.95,222.47 413.59,221.78 414.20,221.12 414.81,220.44 415.44,219.76 416.05,219.07 416.66,218.37 417.27,217.66 417.91,216.95 418.52,216.22 
      419.13,215.51 419.74,214.75 420.37,214.02 420.98,213.26 421.59,212.51 422.21,211.75 422.84,210.97 423.45,210.19 424.06,209.41 424.67,208.62 
      425.31,207.82 425.92,207.01 426.53,206.18 427.14,205.38 427.77,204.55 428.38,203.72 428.99,202.89 429.60,202.03 430.24,201.18 430.85,200.32 
      431.46,199.47 432.07,198.61 432.70,197.74 433.31,196.86 433.92,195.98 434.53,195.07 435.17,194.20 435.78,193.29 436.39,192.39 437.00,191.49 
      437.64,190.56 438.25,189.65 438.86,188.73 439.47,187.80 440.10,186.87 440.71,185.92 441.32,184.99 441.93,184.04 442.57,183.09 443.18,182.13 
      443.79,181.18 444.40,180.21 445.03,179.25 445.64,178.28 446.25,177.30 446.89,176.32 447.50,175.35 448.11,174.37 448.72,173.37 449.35,172.39 
      449.96,171.39 450.58,170.42 451.19,169.41 451.82,168.41 452.43,167.41 453.04,166.39 453.65,165.39 454.29,164.38 454.90,163.36 455.51,162.36 
      456.12,161.33 456.75,160.31 457.36,159.31 457.97,158.28 458.58,157.26 459.22,156.23 459.83,155.20 460.44,154.18 461.05,153.13 461.68,152.10 
      462.29,151.08 462.90,150.05 463.52,149.03 464.15,147.98 464.76,146.95 465.37,145.93 465.98,144.88 466.62,143.85 467.23,142.80 467.84,141.78 
      468.45,140.75 469.08,139.70 469.69,138.68 470.30,137.65 470.91,136.60 471.55,135.58 472.16,134.55 472.77,133.50 473.38,132.47 474.01,131.45 
      474.62,130.42 475.23,129.40 475.84,128.37 476.48,127.35 477.09,126.32 477.70,125.30 478.33,124.27 478.95,123.27 479.56,122.24 480.17,121.22 
      480.80,120.22 481.41,119.22 482.02,118.19 482.63,117.19 483.27,116.19 483.88,115.19 484.49,114.19 485.10,113.21 485.73,112.21 486.34,111.23 
      486.95,110.23 487.56,109.26 488.20,108.28 488.81,107.30 489.42,106.33 490.03,105.37 490.66,104.40 491.27,103.45 491.89,102.49 492.50,101.54 
      493.13,100.59 493.74,99.64 494.35,98.71 494.96,97.76 495.60,96.83 496.21,95.90 496.82,94.97 497.43,94.07 498.06,93.14 498.67,92.24 
      499.28,91.34 499.89,90.46 500.53,89.55 501.14,88.67 501.75,87.80 502.36,86.92 502.99,86.04 503.60,85.18 504.21,84.33 504.82,83.47 
      505.46,82.62 506.07,81.77 506.68,80.94 507.29,80.10 507.93,79.30 508.54,78.47 509.15,77.66 509.76,76.86 510.39,76.05 511.00,75.27 
      511.61,74.49 512.25,73.71 512.86,72.95 513.47,72.17 514.08,71.41 514.71,70.68 515.32,69.92 515.93,69.19 516.54,68.46 517.18,67.75 
      517.79,67.04 518.40,66.34 519.01,65.63 519.64,64.94 520.26,64.26 520.87,63.60 521.48,62.92 522.11,62.26 522.72,61.62 523.33,60.99 
      523.94,60.35 524.58,59.72 525.19,59.11 525.80,58.50 526.41,57.89 527.04,57.30 527.65,56.72 528.26,56.13 528.87,55.57 529.51,55.01 
      530.12,54.47 530.73,53.93 531.34,53.40 531.97,52.88 532.58,52.37 533.19,51.86 533.81,51.37 534.44,50.88 535.05,50.39 535.66,49.93 
      536.27,49.46 536.91,49.02 537.52,48.59 538.13,48.15 538.74,47.73 539.37,47.32 539.98,46.93 540.59,46.53 541.20,46.14 541.84,45.78 
      542.45,45.41 543.06,45.05 543.69,44.70 544.30,44.36 544.91,44.04 545.52,43.73 546.16,43.43 546.77,43.14 547.38,42.85 547.99,42.58 
      548.63,42.31 549.24,42.04 549.85,41.80 550.46,41.58 551.09,41.36 551.70,41.14 "/>
    <polyline
      stroke-width="1"
      stroke="#000000"
      stroke-opacity="1.000000"
      fill="none"
      points="551.70,41.14 552.31,40.92 552.92,40.72 553.56,40.55 554.17,40.38 554.78,40.21 555.39,40.06 556.02,39.92 556.63,39.77 557.24,39.65 
      557.85,39.55 558.49,39.45 559.10,39.36 559.71,39.28 560.32,39.21 560.95,39.14 561.56,39.09 562.18,39.04 562.79,39.01 563.42,38.99 
      564.03,38.99 564.64,38.99 565.25,38.99 565.89,39.01 566.50,39.06 567.11,39.09 567.72,39.16 568.35,39.21 568.96,39.28 569.57,39.38 
      570.18,39.45 570.82,39.58 571.43,39.67 572.04,39.82 572.65,39.94 573.28,40.09 573.89,40.24 574.50,40.41 575.12,40.58 575.75,40.77 
      576.36,40.97 576.97,41.19 577.61,41.38 578.22,41.63 578.83,41.85 579.44,42.12 580.07,42.36 580.68,42.63 581.29,42.90 581.90,43.19 
      582.54,43.48 583.15,43.80 583.76,44.12 584.37,44.43 585.00,44.78 585.61,45.12 586.22,45.48 586.83,45.85 587.47,46.22 588.08,46.61 
      588.69,47.00 589.30,47.41 589.93,47.83 590.55,48.24 591.16,48.68 591.77,49.12 592.40,49.56 593.01,50.03 593.62,50.49 594.23,50.98 
      594.87,51.47 595.48,51.95 596.09,52.47 596.70,52.98 597.33,53.49 597.94,54.03 598.55,54.57 599.16,55.13 599.80,55.69 600.41,56.25 
      601.02,56.84 601.63,57.42 602.26,58.01 602.87,58.62 603.49,59.23 604.10,59.84 604.73,60.48 605.34,61.11 605.95,61.75 606.56,62.40 
      607.20,63.06 607.81,63.72 608.42,64.41 609.05,65.09 609.66,65.77 610.27,66.48 610.88,67.19 611.52,67.90 612.13,68.63 612.74,69.34 
      613.35,70.09 613.98,70.83 614.59,71.58 615.20,72.34 615.81,73.10 616.45,73.88 617.06,74.64 617.67,75.44 618.28,76.22 618.92,77.03 
      619.53,77.83 620.14,78.64 620.75,79.45 621.38,80.28 621.99,81.11 622.60,81.94 623.21,82.79 623.85,83.65 624.46,84.50 625.07,85.35 
      625.68,86.21 626.31,87.09 626.92,87.97 627.53,88.85 628.14,89.75 628.78,90.63 629.39,91.53 630.00,92.43 630.61,93.34 631.24,94.24 
      631.86,95.17 632.47,96.10 633.08,97.02 633.71,97.95 634.32,98.88 634.93,99.83 635.54,100.78 636.18,101.74 636.79,102.69 637.40,103.64 
      638.01,104.59 638.64,105.57 639.25,106.52 639.86,107.50 640.50,108.47 641.11,109.45 641.72,110.43 642.33,111.43 642.96,112.41 643.57,113.41 
      644.18,114.41 644.80,115.41 645.43,116.41 646.04,117.41 646.65,118.41 647.26,119.41 647.90,120.41 648.51,121.44 649.12,122.44 649.73,123.47 
      650.36,124.49 650.97,125.52 651.58,126.52 652.19,127.54 652.83,128.57 653.44,129.59 654.05,130.62 654.66,131.67 655.29,132.69 655.90,133.72 
      656.51,134.75 657.12,135.77 657.76,136.82 658.37,137.85 658.98,138.87 659.59,139.92 660.23,140.95 660.84,142.00 661.45,143.02 662.06,144.05 
      662.69,145.10 663.30,146.12 663.91,147.17 664.52,148.20 665.16,149.22 665.77,150.25 666.38,151.30 666.99,152.32 667.62,153.35 668.23,154.37 
      668.84,155.40 669.45,156.43 670.09,157.45 670.70,158.48 671.31,159.50 671.92,160.53 672.55,161.55 673.17,162.55 673.78,163.58 674.41,164.58 
      675.02,165.61 675.63,166.61 676.24,167.61 676.88,168.61 677.49,169.61 678.10,170.61 678.71,171.61 679.34,172.59 679.95,173.59 680.56,174.57 
      681.17,175.54 681.81,176.52 682.42,177.50 683.03,178.47 683.64,179.45 684.27,180.40 684.88,181.38 685.49,182.33 686.10,183.28 686.74,184.23 
      687.35,185.19 687.96,186.11 688.57,187.04 689.21,187.99 689.82,188.92 690.43,189.83 691.04,190.75 691.67,191.66 692.28,192.58 692.89,193.49 
      693.50,194.37 694.14,195.27 694.75,196.15 695.36,197.03 695.97,197.91 "/>
  </g>
</svg>
