<?xml version="1.0" encoding="UTF-8"?>
<!DOCTYPE svg PUBLIC "-//W3C//DTD SVG 1.1//EN"
        "http://www.w3.org/Graphics/SVG/1.1/DTD/svg11.dtd">
<svg
  xmlns="http://www.w3.org/2000/svg"
  xmlns:xlink="http://www.w3.org/1999/xlink"
  version="1.1"
  width="800pt"
  height="350pt"
  viewBox="0 0 800 350"
  >
  <rect
    x="0"
    y="0"
    width="800"
    height="350"
    stroke="none"
    fill="#FFFFFF"
    fill-opacity="1.000000"
    />
  <g
    transform="matrix(1 0 0 -1 0 350)"
    >
    <polyline
      stroke-width="1"
      stroke="#000000"
      stroke-opacity="1.000000"
      fill="none"
      points="80.01,166.24 80.81,212.46 81.62,251.62 82.42,277.79 83.23,287.00 84.01,277.79 84.82,251.62 85.62,212.46 86.43,166.24 87.23,120.05 
      88.04,80.86 88.85,54.69 89.65,45.51 90.46,54.69 91.24,80.86 92.04,120.05 92.85,166.24 93.66,212.46 94.46,251.62 95.27,277.79 
      96.07,287.00 96.88,277.79 97.68,251.62 98.46,212.46 99.27,166.24 100.08,120.05 100.88,80.86 101.69,54.69 102.49,45.51 103.30,54.69 
      104.10,80.86 104.91,120.05 105.72,166.24 106.50,212.46 107.30,251.62 108.11,277.79 108.91,287.00 109.72,277.79 110.53,251.62 111.33,212.46 
      112.14,166.24 112.94,120.05 113.72,80.86 114.53,54.69 115.34,45.51 116.14,54.69 116.95,80.86 117.75,120.05 118.56,166.24 119.36,212.46 
      120.17,251.62 120.98,277.79 121.76,287.00 122.56,277.79 123.37,251.62 124.17,212.46 124.98,166.24 125.79,120.05 126.59,80.86 127.40,54.69 
      128.20,45.51 128.98,54.69 129.79,80.86 130.59,120.05 131.40,166.24 132.21,212.46 133.01,251.62 133.82,277.79 134.62,287.00 135.43,277.79 
      136.21,251.62 137.02,212.46 137.82,166.24 138.63,120.05 139.43,80.86 140.24,54.69 141.04,45.51 141.85,54.69 142.66,80.86 143.46,120.05 
      144.24,166.24 145.05,212.46 145.85,251.62 146.66,277.79 147.47,287.00 148.27,277.79 149.08,251.62 149.88,212.46 150.69,166.24 151.47,120.05 
      152.28,80.86 153.08,54.69 153.89,45.51 154.69,54.69 155.50,80.86 156.30,120.05 157.11,166.24 157.91,212.46 158.72,251.62 159.50,277.79 
      160.31,287.00 161.11,277.79 161.92,251.62 162.72,212.46 163.53,166.24 164.34,120.05 165.14,80.86 165.95,54.69 166.73,45.51 167.53,54.69 
      168.34,80.86 169.15,120.05 169.95,166.24 170.76,212.46 171.56,251.62 172.37,277.79 173.17,287.00 173.98,277.79 174.76,251.62 175.57,212.46 
      176.37,166.24 177.18,120.05 177.98,80.86 178.79,54.69 179.60,45.51 180.40,54.69 181.21,80.86 181.99,120.05 182.79,166.24 183.60,212.46 
      184.41,251.62 185.21,277.79 186.02,287.00 186.82,277.79 187.63,251.62 188.43,212.46 189.21,166.24 190.02,120.05 190.83,80.86 191.63,54.69 
      192.44,45.51 193.24,54.69 194.05,80.86 194.85,120.05 195.66,166.24 196.47,212.46 197.25,251.62 198.05,277.79 198.86,287.00 199.66,277.79 
      200.47,251.62 201.28,212.46 202.08,166.24 202.89,120.05 203.69,80.86 204.47,54.69 205.28,45.51 206.09,54.69 206.89,80.86 207.70,120.05 
      208.50,166.24 209.31,212.46 210.11,251.62 210.92,277.79 211.73,287.00 212.51,277.79 213.31,251.62 214.12,212.46 214.92,166.24 215.73,120.05 
      216.53,80.86 217.34,54.69 218.15,45.51 218.95,54.69 219.73,80.86 220.54,120.05 221.34,166.24 222.15,212.46 222.96,251.62 223.76,277.79 
      224.57,287.00 225.37,277.79 226.18,251.62 226.96,212.46 227.77,166.24 228.57,120.05 229.38,80.86 230.18,54.69 230.99,45.51 231.79,54.69 
      232.60,80.86 233.41,120.05 234.21,166.24 234.99,212.46 235.80,251.62 236.60,277.79 237.41,287.00 238.22,277.79 239.02,251.62 239.83,212.46 
      240.63,166.24 241.44,120.05 242.22,80.86 243.02,54.69 243.83,45.51 244.64,54.69 245.44,80.86 246.25,120.05 247.05,166.24 247.86,212.46 
      248.66,251.62 249.47,277.79 250.25,287.00 251.06,277.79 251.86,251.62 252.67,212.46 253.47,166.24 254.28,120.05 255.09,80.86 255.89,54.69 
      256.70,45.51 257.48,54.69 258.28,80.86 259.09,120.05 259.90,166.24 260.70,212.46 261.51,251.62 262.31,277.79 263.12,287.00 263.92,277.79 
      264.71,251.62 265.51,212.46 266.32,166.24 267.12,120.05 267.93,80.86 268.73,54.69 269.54,45.51 270.35,54.69 271.15,80.86 271.96,120.05 
      272.74,166.24 273.54,212.46 274.35,251.62 275.15,277.79 275.96,287.00 276.77,277.79 277.57,251.62 278.38,212.46 279.18,166.24 279.96,120.05 
      280.77,80.86 281.58,54.69 282.38,45.51 283.19,54.69 283.99,80.86 284.80,120.05 "/>
    <polyline
      stroke-width="1"
      stroke="#000000"
      stroke-opacity="1.000000"
      fill="none"
      points="284.80,120.05 285.60,166.24 286.41,212.43 287.22,251.55 288.00,277.60 288.80,286.63 289.61,277.28 290.41,251.08 291.22,212.07 292.03,166.24 
      292.83,120.68 293.64,82.28 294.44,56.91 295.22,48.34 296.03,57.74 296.84,83.55 297.64,121.71 298.45,166.24 299.25,210.36 300.06,247.30 
      300.86,271.52 301.67,279.50 302.45,270.20 303.26,245.27 304.06,208.72 304.87,166.24 305.67,124.42 306.48,89.60 307.28,66.92 308.09,59.69 
      308.90,68.70 309.70,92.29 310.48,126.62 311.29,166.24 312.09,205.08 312.90,237.21 313.71,257.94 314.51,264.34 315.32,255.79 316.12,233.94 
      316.93,202.42 317.71,166.24 318.52,131.03 319.32,102.08 320.13,83.57 320.93,78.08 321.74,86.01 322.54,105.79 323.35,134.04 324.16,166.24 
      324.96,197.39 325.74,222.83 326.55,238.87 327.35,243.44 328.16,236.24 328.97,218.81 329.77,194.15 330.58,166.24 331.38,139.48 332.19,117.83 
      332.97,104.32 333.77,100.71 334.58,107.06 335.39,122.00 336.19,142.85 337.00,166.24 337.80,188.51 338.61,206.33 339.41,217.24 340.22,219.98 
      341.00,214.51 341.81,202.15 342.61,185.11 343.42,166.24 344.22,148.49 345.03,134.43 345.84,126.00 346.64,124.10 347.45,128.62 348.23,138.43 
      349.03,151.71 349.84,166.24 350.65,179.74 351.45,190.22 352.26,196.34 353.06,197.52 353.87,193.95 354.67,186.55 355.46,176.76 356.26,166.24 
      357.07,156.67 357.87,149.42 358.68,145.32 359.48,144.76 360.29,147.42 361.10,152.62 361.90,159.28 362.71,166.24 363.49,172.42 364.29,176.96 
      365.10,179.35 365.90,179.50 366.71,177.64 367.52,174.35 368.32,170.29 369.13,166.24 369.93,162.82 370.71,160.43 371.52,159.33 372.33,159.45 
      373.13,160.60 373.94,162.36 374.74,164.38 375.55,166.24 376.35,167.71 377.16,168.58 377.97,168.85 378.75,168.63 379.55,168.10 380.36,167.41 
      381.16,166.75 381.97,166.24 382.78,165.95 383.58,165.85 384.39,165.90 385.19,166.02 385.97,166.14 386.78,166.22 387.59,166.24 388.39,166.24 
      389.20,166.24 390.00,166.17 390.81,166.05 391.61,165.87 392.42,165.73 393.20,165.70 394.01,165.85 394.81,166.24 395.62,166.88 396.42,167.66 
      397.23,168.46 398.03,169.07 398.84,169.29 399.65,168.93 400.45,167.90 401.23,166.24 402.04,164.14 402.84,161.92 403.65,159.99 404.46,158.77 
      405.26,158.65 406.07,159.89 406.87,162.50 407.68,166.24 408.46,170.64 409.27,174.96 410.07,178.47 410.88,180.43 411.68,180.25 412.49,177.67 
      413.29,172.81 414.10,166.24 414.91,158.87 415.71,151.84 416.49,146.39 417.30,143.61 418.10,144.24 418.91,148.56 419.71,156.21 420.52,166.24 
      421.33,177.23 422.13,187.43 422.94,195.12 423.72,198.81 424.52,197.56 425.33,191.17 426.14,180.25 426.94,166.24 427.75,151.20 428.55,137.46 
      429.36,127.32 430.16,122.68 430.95,124.69 431.75,133.43 432.56,147.93 433.36,166.24 434.17,185.67 434.97,203.20 435.78,215.88 436.59,221.44 
      437.39,218.61 438.20,207.35 438.98,189.07 439.78,166.24 440.59,142.29 441.40,120.95 442.20,105.69 443.01,99.22 443.81,102.96 444.62,116.78 
      445.42,138.92 446.21,166.24 447.01,194.68 447.82,219.81 448.62,237.56 449.43,244.86 450.23,240.17 451.04,223.81 451.84,197.93 452.65,166.24 
      453.46,133.52 454.24,104.84 455.04,84.79 455.85,76.76 456.65,82.40 457.46,101.17 458.27,130.55 459.07,166.24 459.88,202.89 460.68,234.77 
      461.46,256.87 462.27,265.49 463.08,258.97 463.88,238.00 464.69,205.48 465.49,166.24 466.30,126.22 467.10,91.58 467.91,67.80 468.72,58.74 
      469.50,66.09 470.30,88.97 471.11,124.10 471.91,166.24 472.72,209.02 473.53,245.81 474.33,270.88 475.14,280.21 475.94,272.15 476.72,247.74 
      477.53,210.58 478.33,166.24 479.14,121.49 479.95,83.21 480.75,57.30 481.56,47.90 482.36,56.54 483.17,82.03 483.95,120.54 484.76,166.24 
      485.56,212.16 486.37,251.23 487.17,277.45 487.98,286.75 488.78,277.69 489.59,251.59 "/>
    <polyline
      stroke-width="1"
      stroke="#000000"
      stroke-opacity="1.000000"
      fill="none"
      points="489.59,251.59 490.40,212.46 491.20,166.24 491.98,120.07 492.79,80.96 493.59,54.91 494.40,45.88 495.21,55.20 496.01,81.42 496.82,120.44 
      497.62,166.24 498.43,211.82 499.21,250.20 500.02,275.59 500.82,284.16 501.63,274.76 502.43,248.96 503.24,210.80 504.04,166.24 504.85,122.15 
      505.66,85.21 506.46,60.96 507.24,53.00 508.05,62.28 508.85,87.21 509.66,123.78 510.46,166.24 511.27,208.06 512.08,242.90 512.88,265.56 
      513.69,272.81 514.47,263.80 515.27,240.22 516.08,205.89 516.89,166.24 517.69,127.42 518.50,95.29 519.30,74.56 520.11,68.17 520.91,76.71 
      521.70,98.56 522.50,130.08 523.31,166.24 524.11,201.47 524.92,230.43 525.72,248.91 526.53,254.43 527.34,246.49 528.14,226.72 528.95,198.44 
      529.73,166.24 530.53,135.09 531.34,109.67 532.15,93.63 532.95,89.07 533.76,96.27 534.56,113.70 535.37,138.36 536.17,166.24 536.95,193.02 
      537.76,214.68 538.57,228.18 539.37,231.79 540.18,225.45 540.98,210.50 541.79,189.63 542.59,166.24 543.40,144.00 544.21,126.18 544.99,115.26 
      545.79,112.53 546.60,117.97 547.40,130.35 548.21,147.37 549.02,166.24 549.82,184.01 550.63,198.05 551.43,206.50 552.21,208.38 553.02,203.89 
      553.83,194.07 554.63,180.77 555.44,166.24 556.24,152.76 557.05,142.29 557.85,136.16 558.66,134.99 559.44,138.55 560.25,145.95 561.05,155.74 
      561.86,166.24 562.66,175.81 563.47,183.09 564.28,187.16 565.08,187.75 565.89,185.09 566.69,179.89 567.47,173.22 568.28,166.24 569.08,160.06 
      569.89,155.55 570.70,153.15 571.50,153.01 572.31,154.86 573.11,158.16 573.92,162.19 574.70,166.24 575.51,169.68 576.31,172.05 577.12,173.17 
      577.92,173.03 578.73,171.90 579.53,170.12 580.34,168.12 581.15,166.24 581.95,164.80 582.73,163.92 583.54,163.65 584.34,163.85 585.15,164.41 
      585.96,165.09 586.76,165.75 587.57,166.24 588.37,166.53 589.18,166.63 589.96,166.58 590.77,166.48 591.57,166.36 592.38,166.29 593.18,166.26 
      593.99,166.24 594.79,166.26 595.60,166.34 596.40,166.46 597.21,166.63 597.99,166.75 598.80,166.80 599.60,166.63 600.41,166.24 601.21,165.63 
      602.02,164.82 602.83,164.04 603.63,163.43 604.44,163.21 605.22,163.58 606.02,164.60 606.83,166.24 607.64,168.34 608.44,170.59 609.25,172.52 
      610.05,173.74 610.86,173.83 611.66,172.59 612.45,170.00 613.25,166.24 614.06,161.87 614.86,157.52 615.67,154.01 616.47,152.08 617.28,152.25 
      618.09,154.84 618.89,159.67 619.70,166.24 620.48,173.64 621.28,180.67 622.09,186.11 622.89,188.90 623.70,188.26 624.51,183.94 625.31,176.27 
      626.12,166.24 626.92,155.25 627.70,145.05 628.51,137.36 629.32,133.67 630.12,134.94 630.93,141.34 631.73,152.25 632.54,166.24 633.34,181.30 
      634.15,195.05 634.96,205.18 635.74,209.80 636.54,207.82 637.35,199.08 638.15,184.58 638.96,166.24 639.77,146.81 640.57,129.30 641.38,116.63 
      642.18,111.06 642.96,113.90 643.77,125.13 644.58,143.44 645.38,166.24 646.19,190.19 646.99,211.55 647.80,226.81 648.60,233.28 649.41,229.52 
      650.19,215.73 651.00,193.59 651.80,166.24 652.61,137.80 653.41,112.67 654.22,94.95 655.02,87.65 655.83,92.34 656.64,108.69 657.44,134.57 
      658.22,166.24 659.03,198.98 659.83,227.67 660.64,247.71 661.45,255.72 662.25,250.11 663.06,231.33 663.86,201.96 664.67,166.24 665.45,129.62 
      666.26,97.71 667.06,75.64 667.87,67.02 668.67,73.54 669.48,94.51 670.28,127.01 671.09,166.24 671.90,206.28 672.70,240.93 673.48,264.71 
      674.29,273.74 675.09,266.41 675.90,243.54 676.71,208.40 677.51,166.24 678.32,123.49 679.12,86.67 679.93,61.62 680.71,52.30 681.51,60.35 
      682.32,84.74 683.13,121.90 683.93,166.24 684.74,211.02 685.54,249.30 686.35,275.18 687.15,284.60 687.94,275.96 688.74,250.47 689.55,211.94 
      690.35,166.24 691.16,120.34 691.96,81.25 692.77,55.03 693.58,45.73 694.38,54.81 "/>
    <polyline
      stroke-width="1"
      stroke="#000000"
      stroke-opacity="1.000000"
      fill="none"
      points="694.38,54.81 695.19,80.91 695.97,120.05 "/>
    <polyline
      stroke-width="1"
      stroke="#F03232"
      stroke-opacity="1.000000"
      fill="none"
      points="80.01,166.24 80.81,180.11 81.62,191.85 82.42,199.71 83.23,202.47 84.01,199.71 84.82,191.85 85.62,180.11 86.43,166.24 87.23,152.40 
      88.04,140.63 88.85,132.79 89.65,130.03 90.46,132.79 91.24,140.63 92.04,152.40 92.85,166.24 93.66,180.11 94.46,191.85 95.27,199.71 
      96.07,202.47 96.88,199.71 97.68,191.85 98.46,180.11 99.27,166.24 100.08,152.40 100.88,140.63 101.69,132.79 102.49,130.03 103.30,132.79 
      104.10,140.63 104.91,152.40 105.72,166.24 106.50,180.11 107.30,191.85 108.11,199.71 108.91,202.47 109.72,199.71 110.53,191.85 111.33,180.11 
      112.14,166.24 112.94,152.40 113.72,140.63 114.53,132.79 115.34,130.03 116.14,132.79 116.95,140.63 117.75,152.40 118.56,166.24 119.36,180.11 
      120.17,191.85 120.98,199.71 121.76,202.47 122.56,199.71 123.37,191.85 124.17,180.11 124.98,166.24 125.79,152.40 126.59,140.63 127.40,132.79 
      128.20,130.03 128.98,132.79 129.79,140.63 130.59,152.40 131.40,166.24 132.21,180.11 133.01,191.85 133.82,199.71 134.62,202.47 135.43,199.71 
      136.21,191.85 137.02,180.11 137.82,166.24 138.63,152.40 139.43,140.63 140.24,132.79 141.04,130.03 141.85,132.79 142.66,140.63 143.46,152.40 
      144.24,166.24 145.05,180.11 145.85,191.85 146.66,199.71 147.47,202.47 148.27,199.71 149.08,191.85 149.88,180.11 150.69,166.24 151.47,152.40 
      152.28,140.63 153.08,132.79 153.89,130.03 154.69,132.79 155.50,140.63 156.30,152.40 157.11,166.24 157.91,180.11 158.72,191.85 159.50,199.71 
      160.31,202.47 161.11,199.71 161.92,191.85 162.72,180.11 163.53,166.24 164.34,152.40 165.14,140.63 165.95,132.79 166.73,130.03 167.53,132.79 
      168.34,140.63 169.15,152.40 169.95,166.24 170.76,180.11 171.56,191.85 172.37,199.71 173.17,202.47 173.98,199.71 174.76,191.85 175.57,180.11 
      176.37,166.24 177.18,152.40 177.98,140.63 178.79,132.79 179.60,130.03 180.40,132.79 181.21,140.63 181.99,152.40 182.79,166.24 183.60,180.11 
      184.41,191.85 185.21,199.71 186.02,202.47 186.82,199.71 187.63,191.85 188.43,180.11 189.21,166.24 190.02,152.40 190.83,140.63 191.63,132.79 
      192.44,130.03 193.24,132.79 194.05,140.63 194.85,152.40 195.66,166.24 196.47,180.11 197.25,191.85 198.05,199.71 198.86,202.47 199.66,199.71 
      200.47,191.85 201.28,180.11 202.08,166.24 202.89,152.40 203.69,140.63 204.47,132.79 205.28,130.03 206.09,132.79 206.89,140.63 207.70,152.40 
      208.50,166.24 209.31,180.11 210.11,191.85 210.92,199.71 211.73,202.47 212.51,199.71 213.31,191.85 214.12,180.11 214.92,166.24 215.73,152.40 
      216.53,140.63 217.34,132.79 218.15,130.03 218.95,132.79 219.73,140.63 220.54,152.40 221.34,166.24 222.15,180.11 222.96,191.85 223.76,199.71 
      224.57,202.47 225.37,199.71 226.18,191.85 226.96,180.11 227.77,166.24 228.57,152.40 229.38,140.63 230.18,132.79 230.99,130.03 231.79,132.79 
      232.60,140.63 233.41,152.40 234.21,166.24 234.99,180.11 235.80,191.85 236.60,199.71 237.41,202.47 238.22,199.71 239.02,191.85 239.83,180.11 
      240.63,166.24 241.44,152.40 242.22,140.63 243.02,132.79 243.83,130.03 244.64,132.79 245.44,140.63 246.25,152.40 247.05,166.24 247.86,180.11 
      248.66,191.85 249.47,199.71 250.25,202.47 251.06,199.71 251.86,191.85 252.67,180.11 253.47,166.24 254.28,152.40 255.09,140.63 255.89,132.79 
      256.70,130.03 257.48,132.79 258.28,140.63 259.09,152.40 259.90,166.24 260.70,180.11 261.51,191.85 262.31,199.71 263.12,202.47 263.92,199.71 
      264.71,191.85 265.51,180.11 266.32,166.24 267.12,152.40 267.93,140.63 268.73,132.79 269.54,130.03 270.35,132.79 271.15,140.63 271.96,152.40 
      272.74,166.24 273.54,180.11 274.35,191.85 275.15,199.71 275.96,202.47 276.77,199.71 277.57,191.85 278.38,180.11 279.18,166.24 279.96,152.40 
      280.77,140.63 281.58,132.79 282.38,130.03 283.19,132.79 283.99,140.63 284.80,152.40 "/>
    <polyline
      stroke-width="1"
      stroke="#F03232"
      stroke-opacity="1.000000"
      fill="none"
      points="284.80,152.40 285.60,166.24 286.41,180.11 287.22,191.85 288.00,199.71 288.80,202.47 289.61,199.71 290.41,191.85 291.22,180.11 292.03,166.24 
      292.83,152.40 293.64,140.63 294.44,132.79 295.22,130.03 296.03,132.79 296.84,140.63 297.64,152.40 298.45,166.24 299.25,180.11 300.06,191.85 
      300.86,199.71 301.67,202.47 302.45,199.71 303.26,191.85 304.06,180.11 304.87,166.24 305.67,152.40 306.48,140.63 307.28,132.79 308.09,130.03 
      308.90,132.79 309.70,140.63 310.48,152.40 311.29,166.24 312.09,180.11 312.90,191.85 313.71,199.71 314.51,202.47 315.32,199.71 316.12,191.85 
      316.93,180.11 317.71,166.24 318.52,152.40 319.32,140.63 320.13,132.79 320.93,130.03 321.74,132.79 322.54,140.63 323.35,152.40 324.16,166.24 
      324.96,180.11 325.74,191.85 326.55,199.71 327.35,202.47 328.16,199.71 328.97,191.85 329.77,180.11 330.58,166.24 331.38,152.40 332.19,140.63 
      332.97,132.79 333.77,130.03 334.58,132.79 335.39,140.63 336.19,152.40 337.00,166.24 337.80,180.11 338.61,191.85 339.41,199.71 340.22,202.47 
      341.00,199.71 341.81,191.85 342.61,180.11 343.42,166.24 344.22,152.40 345.03,140.63 345.84,132.79 346.64,130.03 347.45,132.79 348.23,140.63 
      349.03,152.40 349.84,166.24 350.65,180.11 351.45,191.85 352.26,199.71 353.06,202.47 353.87,199.71 354.67,191.85 355.46,180.11 356.26,166.24 
      357.07,152.40 357.87,140.63 358.68,132.79 359.48,130.03 360.29,132.79 361.10,140.63 361.90,152.40 362.71,166.24 363.49,180.11 364.29,191.85 
      365.10,199.71 365.90,202.47 366.71,199.71 367.52,191.85 368.32,180.11 369.13,166.24 369.93,152.40 370.71,140.63 371.52,132.79 372.33,130.03 
      373.13,132.79 373.94,140.63 374.74,152.40 375.55,166.24 376.35,180.11 377.16,191.85 377.97,199.71 378.75,202.47 379.55,199.71 380.36,191.85 
      381.16,180.11 381.97,166.24 382.78,152.40 383.58,140.63 384.39,132.79 385.19,130.03 385.97,132.79 386.78,140.63 387.59,152.40 388.39,166.24 
      389.20,180.11 390.00,191.85 390.81,199.71 391.61,202.47 392.42,199.71 393.20,191.85 394.01,180.11 394.81,166.24 395.62,152.40 396.42,140.63 
      397.23,132.79 398.03,130.03 398.84,132.79 399.65,140.63 400.45,152.40 401.23,166.24 402.04,180.11 402.84,191.85 403.65,199.71 404.46,202.47 
      405.26,199.71 406.07,191.85 406.87,180.11 407.68,166.24 408.46,152.40 409.27,140.63 410.07,132.79 410.88,130.03 411.68,132.79 412.49,140.63 
      413.29,152.40 414.10,166.24 414.91,180.11 415.71,191.85 416.49,199.71 417.30,202.47 418.10,199.71 418.91,191.85 419.71,180.11 420.52,166.24 
      421.33,152.40 422.13,140.63 422.94,132.79 423.72,130.03 424.52,132.79 425.33,140.63 426.14,152.40 426.94,166.24 427.75,180.11 428.55,191.85 
      429.36,199.71 430.16,202.47 430.95,199.71 431.75,191.85 432.56,180.11 433.36,166.24 434.17,152.40 434.97,140.63 435.78,132.79 436.59,130.03 
      437.39,132.79 438.20,140.63 438.98,152.40 439.78,166.24 440.59,180.11 441.40,191.85 442.20,199.71 443.01,202.47 443.81,199.71 444.62,191.85 
      445.42,180.11 446.21,166.24 447.01,152.40 447.82,140.63 448.62,132.79 449.43,130.03 450.23,132.79 451.04,140.63 451.84,152.40 452.65,166.24 
      453.46,180.11 454.24,191.85 455.04,199.71 455.85,202.47 456.65,199.71 457.46,191.85 458.27,180.11 459.07,166.24 459.88,152.40 460.68,140.63 
      461.46,132.79 462.27,130.03 463.08,132.79 463.88,140.63 464.69,152.40 465.49,166.24 466.30,180.11 467.10,191.85 467.91,199.71 468.72,202.47 
      469.50,199.71 470.30,191.85 471.11,180.11 471.91,166.24 472.72,152.40 473.53,140.63 474.33,132.79 475.14,130.03 475.94,132.79 476.72,140.63 
      477.53,152.40 478.33,166.24 479.14,180.11 479.95,191.85 480.75,199.71 481.56,202.47 482.36,199.71 483.17,191.85 483.95,180.11 484.76,166.24 
      485.56,152.40 486.37,140.63 487.17,132.79 487.98,130.03 488.78,132.79 489.59,140.63 "/>
    <polyline
      stroke-width="1"
      stroke="#F03232"
      stroke-opacity="1.000000"
      fill="none"
      points="489.59,140.63 490.40,152.40 491.20,166.24 491.98,180.11 492.79,191.85 493.59,199.71 494.40,202.47 495.21,199.71 496.01,191.85 496.82,180.11 
      497.62,166.24 498.43,152.40 499.21,140.63 500.02,132.79 500.82,130.03 501.63,132.79 502.43,140.63 503.24,152.40 504.04,166.24 504.85,180.11 
      505.66,191.85 506.46,199.71 507.24,202.47 508.05,199.71 508.85,191.85 509.66,180.11 510.46,166.24 511.27,152.40 512.08,140.63 512.88,132.79 
      513.69,130.03 514.47,132.79 515.27,140.63 516.08,152.40 516.89,166.24 517.69,180.11 518.50,191.85 519.30,199.71 520.11,202.47 520.91,199.71 
      521.70,191.85 522.50,180.11 523.31,166.24 524.11,152.40 524.92,140.63 525.72,132.79 526.53,130.03 527.34,132.79 528.14,140.63 528.95,152.40 
      529.73,166.24 530.53,180.11 531.34,191.85 532.15,199.71 532.95,202.47 533.76,199.71 534.56,191.85 535.37,180.11 536.17,166.24 536.95,152.40 
      537.76,140.63 538.57,132.79 539.37,130.03 540.18,132.79 540.98,140.63 541.79,152.40 542.59,166.24 543.40,180.11 544.21,191.85 544.99,199.71 
      545.79,202.47 546.60,199.71 547.40,191.85 548.21,180.11 549.02,166.24 549.82,152.40 550.63,140.63 551.43,132.79 552.21,130.03 553.02,132.79 
      553.83,140.63 554.63,152.40 555.44,166.24 556.24,180.11 557.05,191.85 557.85,199.71 558.66,202.47 559.44,199.71 560.25,191.85 561.05,180.11 
      561.86,166.24 562.66,152.40 563.47,140.63 564.28,132.79 565.08,130.03 565.89,132.79 566.69,140.63 567.47,152.40 568.28,166.24 569.08,180.11 
      569.89,191.85 570.70,199.71 571.50,202.47 572.31,199.71 573.11,191.85 573.92,180.11 574.70,166.24 575.51,152.40 576.31,140.63 577.12,132.79 
      577.92,130.03 578.73,132.79 579.53,140.63 580.34,152.40 581.15,166.24 581.95,180.11 582.73,191.85 583.54,199.71 584.34,202.47 585.15,199.71 
      585.96,191.85 586.76,180.11 587.57,166.24 588.37,152.40 589.18,140.63 589.96,132.79 590.77,130.03 591.57,132.79 592.38,140.63 593.18,152.40 
      593.99,166.24 594.79,180.11 595.60,191.85 596.40,199.71 597.21,202.47 597.99,199.71 598.80,191.85 599.60,180.11 600.41,166.24 601.21,152.40 
      602.02,140.63 602.83,132.79 603.63,130.03 604.44,132.79 605.22,140.63 606.02,152.40 606.83,166.24 607.64,180.11 608.44,191.85 609.25,199.71 
      610.05,202.47 610.86,199.71 611.66,191.85 612.45,180.11 613.25,166.24 614.06,152.40 614.86,140.63 615.67,132.79 616.47,130.03 617.28,132.79 
      618.09,140.63 618.89,152.40 619.70,166.24 620.48,180.11 621.28,191.85 622.09,199.71 622.89,202.47 623.70,199.71 624.51,191.85 625.31,180.11 
      626.12,166.24 626.92,152.40 627.70,140.63 628.51,132.79 629.32,130.03 630.12,132.79 630.93,140.63 631.73,152.40 632.54,166.24 633.34,180.11 
      634.15,191.85 634.96,199.71 635.74,202.47 636.54,199.71 637.35,191.85 638.15,180.11 638.96,166.24 639.77,152.40 640.57,140.63 641.38,132.79 
      642.18,130.03 642.96,132.79 643.77,140.63 644.58,152.40 645.38,166.24 646.19,180.11 646.99,191.85 647.80,199.71 648.60,202.47 649.41,199.71 
      650.19,191.85 651.00,180.11 651.80,166.24 652.61,152.40 653.41,140.63 654.22,132.79 655.02,130.03 655.83,132.79 656.64,140.63 657.44,152.40 
      658.22,166.24 659.03,180.11 659.83,191.85 660.64,199.71 661.45,202.47 662.25,199.71 663.06,191.85 663.86,180.11 664.67,166.24 665.45,152.40 
      666.26,140.63 667.06,132.79 667.87,130.03 668.67,132.79 669.48,140.63 670.28,152.40 671.09,166.24 671.90,180.11 672.70,191.85 673.48,199.71 
      674.29,202.47 675.09,199.71 675.90,191.85 676.71,180.11 677.51,166.24 678.32,152.40 679.12,140.63 679.93,132.79 680.71,130.03 681.51,132.79 
      682.32,140.63 683.13,152.40 683.93,166.24 684.74,180.11 685.54,191.85 686.35,199.71 687.15,202.47 687.94,199.71 688.74,191.85 689.55,180.11 
      690.35,166.24 691.16,152.40 691.96,140.63 692.77,132.79 693.58,130.03 694.38,132.79 "/>
    <polyline
      stroke-width="1"
      stroke="#F03232"
      stroke-opacity="1.000000"
      fill="none"
      points="694.38,132.79 695.19,140.63 695.97,152.40 "/>
  </g>
</svg>
