<?xml version="1.0" encoding="UTF-8"?>
<!DOCTYPE svg PUBLIC "-//W3C//DTD SVG 1.1//EN"
        "http://www.w3.org/Graphics/SVG/1.1/DTD/svg11.dtd">
<svg
  xmlns="http://www.w3.org/2000/svg"
  xmlns:xlink="http://www.w3.org/1999/xlink"
  version="1.1"
  width="800pt"
  height="350pt"
  viewBox="0 0 800 350"
  >
  <rect
    x="0"
    y="0"
    width="800"
    height="350"
    stroke="none"
    fill="#FFFFFF"
    fill-opacity="1.000000"
    />
  <g
    transform="matrix(1 0 0 -1 0 350)"
    >
    <polyline
      stroke-width="1"
      stroke="#000000"
      stroke-opacity="1.000000"
      fill="none"
      points="80.01,45.51 695.99,45.51"
      />
    <polyline
      stroke-width="1"
      stroke="#000000"
      stroke-opacity="1.000000"
      fill="none"
      points="80.01,45.51 80.01,54.13"
      />
    <polyline
      stroke-width="1"
      stroke="#000000"
      stroke-opacity="1.000000"
      fill="none"
      points="110.84,45.51 110.84,49.83"
      />
    <polyline
      stroke-width="1"
      stroke="#000000"
      stroke-opacity="1.000000"
      fill="none"
      points="141.65,45.51 141.65,49.83"
      />
    <polyline
      stroke-width="1"
      stroke="#000000"
      stroke-opacity="1.000000"
      fill="none"
      points="172.49,45.51 172.49,49.83"
      />
    <polyline
      stroke-width="1"
      stroke="#000000"
      stroke-opacity="1.000000"
      fill="none"
      points="203.33,45.51 203.33,54.13"
      />
    <polyline
      stroke-width="1"
      stroke="#000000"
      stroke-opacity="1.000000"
      fill="none"
      points="234.16,45.51 234.16,49.83"
      />
    <polyline
      stroke-width="1"
      stroke="#000000"
      stroke-opacity="1.000000"
      fill="none"
      points="264.97,45.51 264.97,49.83"
      />
    <polyline
      stroke-width="1"
      stroke="#000000"
      stroke-opacity="1.000000"
      fill="none"
      points="295.81,45.51 295.81,49.83"
      />
    <polyline
      stroke-width="1"
      stroke="#000000"
      stroke-opacity="1.000000"
      fill="none"
      points="326.65,45.51 326.65,54.13"
      />
    <polyline
      stroke-width="1"
      stroke="#000000"
      stroke-opacity="1.000000"
      fill="none"
      points="357.48,45.51 357.48,49.83"
      />
    <polyline
      stroke-width="1"
      stroke="#000000"
      stroke-opacity="1.000000"
      fill="none"
      points="388.29,45.51 388.29,49.83"
      />
    <polyline
      stroke-width="1"
      stroke="#000000"
      stroke-opacity="1.000000"
      fill="none"
      points="419.13,45.51 419.13,49.83"
      />
    <polyline
      stroke-width="1"
      stroke="#000000"
      stroke-opacity="1.000000"
      fill="none"
      points="449.96,45.51 449.96,54.13"
      />
    <polyline
      stroke-width="1"
      stroke="#000000"
      stroke-opacity="1.000000"
      fill="none"
      points="480.80,45.51 480.80,49.83"
      />
    <polyline
      stroke-width="1"
      stroke="#000000"
      stroke-opacity="1.000000"
      fill="none"
      points="511.61,45.51 511.61,49.83"
      />
    <polyline
      stroke-width="1"
      stroke="#000000"
      stroke-opacity="1.000000"
      fill="none"
      points="542.45,45.51 542.45,49.83"
      />
    <polyline
      stroke-width="1"
      stroke="#000000"
      stroke-opacity="1.000000"
      fill="none"
      points="573.28,45.51 573.28,54.13"
      />
    <polyline
      stroke-width="1"
      stroke="#000000"
      stroke-opacity="1.000000"
      fill="none"
      points="604.10,45.51 604.10,49.83"
      />
    <polyline
      stroke-width="1"
      stroke="#000000"
      stroke-opacity="1.000000"
      fill="none"
      points="634.93,45.51 634.93,49.83"
      />
    <polyline
      stroke-width="1"
      stroke="#000000"
      stroke-opacity="1.000000"
      fill="none"
      points="665.77,45.51 665.77,49.83"
      />
    <polyline
      stroke-width="1"
      stroke="#000000"
      stroke-opacity="1.000000"
      fill="none"
      points="695.99,45.51 695.99,287.00"
      />
    <polyline
      stroke-width="1"
      stroke="#000000"
      stroke-opacity="1.000000"
      fill="none"
      points="687.37,45.51 695.99,45.51"
      />
    <polyline
      stroke-width="1"
      stroke="#000000"
      stroke-opacity="1.000000"
      fill="none"
      points="691.67,57.57 695.99,57.57"
      />
    <polyline
      stroke-width="1"
      stroke="#000000"
      stroke-opacity="1.000000"
      fill="none"
      points="691.67,69.66 695.99,69.66"
      />
    <polyline
      stroke-width="1"
      stroke="#000000"
      stroke-opacity="1.000000"
      fill="none"
      points="691.67,81.74 695.99,81.74"
      />
    <polyline
      stroke-width="1"
      stroke="#000000"
      stroke-opacity="1.000000"
      fill="none"
      points="691.67,93.80 695.99,93.80"
      />
    <polyline
      stroke-width="1"
      stroke="#000000"
      stroke-opacity="1.000000"
      fill="none"
      points="687.37,105.89 695.99,105.89"
      />
    <polyline
      stroke-width="1"
      stroke="#000000"
      stroke-opacity="1.000000"
      fill="none"
      points="691.67,117.95 695.99,117.95"
      />
    <polyline
      stroke-width="1"
      stroke="#000000"
      stroke-opacity="1.000000"
      fill="none"
      points="691.67,130.03 695.99,130.03"
      />
    <polyline
      stroke-width="1"
      stroke="#000000"
      stroke-opacity="1.000000"
      fill="none"
      points="691.67,142.09 695.99,142.09"
      />
    <polyline
      stroke-width="1"
      stroke="#000000"
      stroke-opacity="1.000000"
      fill="none"
      points="691.67,154.18 695.99,154.18"
      />
    <polyline
      stroke-width="1"
      stroke="#000000"
      stroke-opacity="1.000000"
      fill="none"
      points="687.37,166.24 695.99,166.24"
      />
    <polyline
      stroke-width="1"
      stroke="#000000"
      stroke-opacity="1.000000"
      fill="none"
      points="691.67,178.33 695.99,178.33"
      />
    <polyline
      stroke-width="1"
      stroke="#000000"
      stroke-opacity="1.000000"
      fill="none"
      points="691.67,190.39 695.99,190.39"
      />
    <polyline
      stroke-width="1"
      stroke="#000000"
      stroke-opacity="1.000000"
      fill="none"
      points="691.67,202.47 695.99,202.47"
      />
    <polyline
      stroke-width="1"
      stroke="#000000"
      stroke-opacity="1.000000"
      fill="none"
      points="691.67,214.56 695.99,214.56"
      />
    <polyline
      stroke-width="1"
      stroke="#000000"
      stroke-opacity="1.000000"
      fill="none"
      points="687.37,226.62 695.99,226.62"
      />
    <polyline
      stroke-width="1"
      stroke="#000000"
      stroke-opacity="1.000000"
      fill="none"
      points="691.67,238.70 695.99,238.70"
      />
    <polyline
      stroke-width="1"
      stroke="#000000"
      stroke-opacity="1.000000"
      fill="none"
      points="691.67,250.76 695.99,250.76"
      />
    <polyline
      stroke-width="1"
      stroke="#000000"
      stroke-opacity="1.000000"
      fill="none"
      points="691.67,262.85 695.99,262.85"
      />
    <polyline
      stroke-width="1"
      stroke="#000000"
      stroke-opacity="1.000000"
      fill="none"
      points="691.67,274.91 695.99,274.91"
      />
    <polyline
      stroke-width="1"
      stroke="#000000"
      stroke-opacity="1.000000"
      fill="none"
      points="687.37,287.00 695.99,287.00"
      />
    <polyline
      stroke-width="1"
      stroke="#000000"
      stroke-opacity="1.000000"
      fill="none"
      points="695.99,287.00 80.01,287.00"
      />
    <polyline
      stroke-width="1"
      stroke="#000000"
      stroke-opacity="1.000000"
      fill="none"
      points="665.77,282.67 665.77,287.00"
      />
    <polyline
      stroke-width="1"
      stroke="#000000"
      stroke-opacity="1.000000"
      fill="none"
      points="634.93,282.67 634.93,287.00"
      />
    <polyline
      stroke-width="1"
      stroke="#000000"
      stroke-opacity="1.000000"
      fill="none"
      points="604.10,282.67 604.10,287.00"
      />
    <polyline
      stroke-width="1"
      stroke="#000000"
      stroke-opacity="1.000000"
      fill="none"
      points="573.28,278.38 573.28,287.00"
      />
    <polyline
      stroke-width="1"
      stroke="#000000"
      stroke-opacity="1.000000"
      fill="none"
      points="542.45,282.67 542.45,287.00"
      />
    <polyline
      stroke-width="1"
      stroke="#000000"
      stroke-opacity="1.000000"
      fill="none"
      points="511.61,282.67 511.61,287.00"
      />
    <polyline
      stroke-width="1"
      stroke="#000000"
      stroke-opacity="1.000000"
      fill="none"
      points="480.80,282.67 480.80,287.00"
      />
    <polyline
      stroke-width="1"
      stroke="#000000"
      stroke-opacity="1.000000"
      fill="none"
      points="449.96,278.38 449.96,287.00"
      />
    <polyline
      stroke-width="1"
      stroke="#000000"
      stroke-opacity="1.000000"
      fill="none"
      points="419.13,282.67 419.13,287.00"
      />
    <polyline
      stroke-width="1"
      stroke="#000000"
      stroke-opacity="1.000000"
      fill="none"
      points="388.29,282.67 388.29,287.00"
      />
    <polyline
      stroke-width="1"
      stroke="#000000"
      stroke-opacity="1.000000"
      fill="none"
      points="357.48,282.67 357.48,287.00"
      />
    <polyline
      stroke-width="1"
      stroke="#000000"
      stroke-opacity="1.000000"
      fill="none"
      points="326.65,278.38 326.65,287.00"
      />
    <polyline
      stroke-width="1"
      stroke="#000000"
      stroke-opacity="1.000000"
      fill="none"
      points="295.81,282.67 295.81,287.00"
      />
    <polyline
      stroke-width="1"
      stroke="#000000"
      stroke-opacity="1.000000"
      fill="none"
      points="264.97,282.67 264.97,287.00"
      />
    <polyline
      stroke-width="1"
      stroke="#000000"
      stroke-opacity="1.000000"
      fill="none"
      points="234.16,282.67 234.16,287.00"
      />
    <polyline
      stroke-width="1"
      stroke="#000000"
      stroke-opacity="1.000000"
      fill="none"
      points="203.33,278.38 203.33,287.00"
      />
    <polyline
      stroke-width="1"
      stroke="#000000"
      stroke-opacity="1.000000"
      fill="none"
      points="172.49,282.67 172.49,287.00"
      />
    <polyline
      stroke-width="1"
      stroke="#000000"
      stroke-opacity="1.000000"
      fill="none"
      points="141.65,282.67 141.65,287.00"
      />
    <polyline
      stroke-width="1"
      stroke="#000000"
      stroke-opacity="1.000000"
      fill="none"
      points="110.84,282.67 110.84,287.00"
      />
    <polyline
      stroke-width="1"
      stroke="#000000"
      stroke-opacity="1.000000"
      fill="none"
      points="80.01,278.38 80.01,287.00"
      />
    <polyline
      stroke-width="1"
      stroke="#000000"
      stroke-opacity="1.000000"
      fill="none"
      points="80.01,287.00 80.01,45.51"
      />
    <polyline
      stroke-width="1"
      stroke="#000000"
      stroke-opacity="1.000000"
      fill="none"
      points="80.01,287.00 88.63,287.00"
      />
    <polyline
      stroke-width="1"
      stroke="#000000"
      stroke-opacity="1.000000"
      fill="none"
      points="80.01,274.91 84.33,274.91"
      />
    <polyline
      stroke-width="1"
      stroke="#000000"
      stroke-opacity="1.000000"
      fill="none"
      points="80.01,262.85 84.33,262.85"
      />
    <polyline
      stroke-width="1"
      stroke="#000000"
      stroke-opacity="1.000000"
      fill="none"
      points="80.01,250.76 84.33,250.76"
      />
    <polyline
      stroke-width="1"
      stroke="#000000"
      stroke-opacity="1.000000"
      fill="none"
      points="80.01,238.70 84.33,238.70"
      />
    <polyline
      stroke-width="1"
      stroke="#000000"
      stroke-opacity="1.000000"
      fill="none"
      points="80.01,226.62 88.63,226.62"
      />
    <polyline
      stroke-width="1"
      stroke="#000000"
      stroke-opacity="1.000000"
      fill="none"
      points="80.01,214.56 84.33,214.56"
      />
    <polyline
      stroke-width="1"
      stroke="#000000"
      stroke-opacity="1.000000"
      fill="none"
      points="80.01,202.47 84.33,202.47"
      />
    <polyline
      stroke-width="1"
      stroke="#000000"
      stroke-opacity="1.000000"
      fill="none"
      points="80.01,190.39 84.33,190.39"
      />
    <polyline
      stroke-width="1"
      stroke="#000000"
      stroke-opacity="1.000000"
      fill="none"
      points="80.01,178.33 84.33,178.33"
      />
    <polyline
      stroke-width="1"
      stroke="#000000"
      stroke-opacity="1.000000"
      fill="none"
      points="80.01,166.24 88.63,166.24"
      />
    <polyline
      stroke-width="1"
      stroke="#000000"
      stroke-opacity="1.000000"
      fill="none"
      points="80.01,154.18 84.33,154.18"
      />
    <polyline
      stroke-width="1"
      stroke="#000000"
      stroke-opacity="1.000000"
      fill="none"
      points="80.01,142.09 84.33,142.09"
      />
    <polyline
      stroke-width="1"
      stroke="#000000"
      stroke-opacity="1.000000"
      fill="none"
      points="80.01,130.03 84.33,130.03"
      />
    <polyline
      stroke-width="1"
      stroke="#000000"
      stroke-opacity="1.000000"
      fill="none"
      points="80.01,117.95 84.33,117.95"
      />
    <polyline
      stroke-width="1"
      stroke="#000000"
      stroke-opacity="1.000000"
      fill="none"
      points="80.01,105.89 88.63,105.89"
      />
    <polyline
      stroke-width="1"
      stroke="#000000"
      stroke-opacity="1.000000"
      fill="none"
      points="80.01,93.80 84.33,93.80"
      />
    <polyline
      stroke-width="1"
      stroke="#000000"
      stroke-opacity="1.000000"
      fill="none"
      points="80.01,81.74 84.33,81.74"
      />
    <polyline
      stroke-width="1"
      stroke="#000000"
      stroke-opacity="1.000000"
      fill="none"
      points="80.01,69.66 84.33,69.66"
      />
    <polyline
      stroke-width="1"
      stroke="#000000"
      stroke-opacity="1.000000"
      fill="none"
      points="80.01,57.57 84.33,57.57"
      />
    <polyline
      stroke-width="1"
      stroke="#000000"
      stroke-opacity="1.000000"
      fill="none"
      points="80.01,45.51 88.63,45.51"
      />
    <clipPath
      id="text-clipping113"
      >
      <polygon
        points="0.000000,0.000000 0.000000,349.986267 800.000000,349.986267 800.000000,0.000000"
        />
    </clipPath>
    <g
      clip-path="url(#text-clipping113)"
      >
      <g
        transform="matrix(1.000000 0.000000 0.000000 -1.000000 80.007324 28.247932)"
        >
        <g
          transform="matrix(1.0 0.0 0.0 1.0 0.0 5.931960)"
          >
          <text
            dominant-baseline="no-change"
            fill="#000000"
            fill-opacity="1.000000"
            xml:space="preserve"
            font-size="15"
            text-anchor="middle"
            x="0.000000"
            y="0"
><tspan font-family="sans-serif" font-style="normal" font-weight="normal">&#x30;</tspan></text>
        </g>
      </g>
    </g>
    <clipPath
      id="text-clipping114"
      >
      <polygon
        points="0.000000,0.000000 0.000000,349.986267 800.000000,349.986267 800.000000,0.000000"
        />
    </clipPath>
    <g
      clip-path="url(#text-clipping114)"
      >
      <g
        transform="matrix(1.000000 0.000000 0.000000 -1.000000 203.326518 28.247932)"
        >
        <g
          transform="matrix(1.0 0.0 0.0 1.0 0.0 5.931960)"
          >
          <text
            dominant-baseline="no-change"
            fill="#000000"
            fill-opacity="1.000000"
            xml:space="preserve"
            font-size="15"
            text-anchor="middle"
            x="0.000000"
            y="0"
><tspan font-family="sans-serif" font-style="normal" font-weight="normal">&#x32;</tspan></text>
        </g>
      </g>
    </g>
    <clipPath
      id="text-clipping115"
      >
      <polygon
        points="0.000000,0.000000 0.000000,349.986267 800.000000,349.986267 800.000000,0.000000"
        />
    </clipPath>
    <g
      clip-path="url(#text-clipping115)"
      >
      <g
        transform="matrix(1.000000 0.000000 0.000000 -1.000000 326.645711 28.247932)"
        >
        <g
          transform="matrix(1.0 0.0 0.0 1.0 0.0 5.931960)"
          >
          <text
            dominant-baseline="no-change"
            fill="#000000"
            fill-opacity="1.000000"
            xml:space="preserve"
            font-size="15"
            text-anchor="middle"
            x="0.000000"
            y="0"
><tspan font-family="sans-serif" font-style="normal" font-weight="normal">&#x34;</tspan></text>
        </g>
      </g>
    </g>
    <clipPath
      id="text-clipping116"
      >
      <polygon
        points="0.000000,0.000000 0.000000,349.986267 800.000000,349.986267 800.000000,0.000000"
        />
    </clipPath>
    <g
      clip-path="url(#text-clipping116)"
      >
      <g
        transform="matrix(1.000000 0.000000 0.000000 -1.000000 449.964904 28.247932)"
        >
        <g
          transform="matrix(1.0 0.0 0.0 1.0 0.0 5.931960)"
          >
          <text
            dominant-baseline="no-change"
            fill="#000000"
            fill-opacity="1.000000"
            xml:space="preserve"
            font-size="15"
            text-anchor="middle"
            x="0.000000"
            y="0"
><tspan font-family="sans-serif" font-style="normal" font-weight="normal">&#x36;</tspan></text>
        </g>
      </g>
    </g>
    <clipPath
      id="text-clipping117"
      >
      <polygon
        points="0.000000,0.000000 0.000000,349.986267 800.000000,349.986267 800.000000,0.000000"
        />
    </clipPath>
    <g
      clip-path="url(#text-clipping117)"
      >
      <g
        transform="matrix(1.000000 0.000000 0.000000 -1.000000 573.284097 28.247932)"
        >
        <g
          transform="matrix(1.0 0.0 0.0 1.0 0.0 5.931960)"
          >
          <text
            dominant-baseline="no-change"
            fill="#000000"
            fill-opacity="1.000000"
            xml:space="preserve"
            font-size="15"
            text-anchor="middle"
            x="0.000000"
            y="0"
><tspan font-family="sans-serif" font-style="normal" font-weight="normal">&#x38;</tspan></text>
        </g>
      </g>
    </g>
    <clipPath
      id="text-clipping118"
      >
      <polygon
        points="0.000000,0.000000 0.000000,349.986267 800.000000,349.986267 800.000000,0.000000"
        />
    </clipPath>
    <g
      clip-path="url(#text-clipping118)"
      >
      <g
        transform="matrix(0.000000 1.000000 1.000000 -0.000000 62.746055 45.509201)"
        >
        <g
          transform="matrix(1.0 0.0 0.0 1.0 0.0 5.931960)"
          >
          <text
            dominant-baseline="no-change"
            fill="#000000"
            fill-opacity="1.000000"
            xml:space="preserve"
            font-size="15"
            text-anchor="middle"
            x="0.000000"
            y="0"
><tspan font-family="sans-serif" font-style="normal" font-weight="normal">&#x2d;&#x31;&#x2e;&#x30;</tspan></text>
        </g>
      </g>
    </g>
    <clipPath
      id="text-clipping119"
      >
      <polygon
        points="0.000000,0.000000 0.000000,349.986267 800.000000,349.986267 800.000000,0.000000"
        />
    </clipPath>
    <g
      clip-path="url(#text-clipping119)"
      >
      <g
        transform="matrix(0.000000 1.000000 1.000000 -0.000000 62.746055 105.862606)"
        >
        <g
          transform="matrix(1.0 0.0 0.0 1.0 0.0 5.931960)"
          >
          <text
            dominant-baseline="no-change"
            fill="#000000"
            fill-opacity="1.000000"
            xml:space="preserve"
            font-size="15"
            text-anchor="middle"
            x="0.000000"
            y="0"
><tspan font-family="sans-serif" font-style="normal" font-weight="normal">&#x2d;&#x30;&#x2e;&#x35;</tspan></text>
        </g>
      </g>
    </g>
    <clipPath
      id="text-clipping120"
      >
      <polygon
        points="0.000000,0.000000 0.000000,349.986267 800.000000,349.986267 800.000000,0.000000"
        />
    </clipPath>
    <g
      clip-path="url(#text-clipping120)"
      >
      <g
        transform="matrix(0.000000 1.000000 1.000000 -0.000000 62.746055 166.240425)"
        >
        <g
          transform="matrix(1.0 0.0 0.0 1.0 0.0 5.931960)"
          >
          <text
            dominant-baseline="no-change"
            fill="#000000"
            fill-opacity="1.000000"
            xml:space="preserve"
            font-size="15"
            text-anchor="middle"
            x="0.000000"
            y="0"
><tspan font-family="sans-serif" font-style="normal" font-weight="normal">&#x30;&#x2e;&#x30;</tspan></text>
        </g>
      </g>
    </g>
    <clipPath
      id="text-clipping121"
      >
      <polygon
        points="0.000000,0.000000 0.000000,349.986267 800.000000,349.986267 800.000000,0.000000"
        />
    </clipPath>
    <g
      clip-path="url(#text-clipping121)"
      >
      <g
        transform="matrix(0.000000 1.000000 1.000000 -0.000000 62.746055 226.618244)"
        >
        <g
          transform="matrix(1.0 0.0 0.0 1.0 0.0 5.931960)"
          >
          <text
            dominant-baseline="no-change"
            fill="#000000"
            fill-opacity="1.000000"
            xml:space="preserve"
            font-size="15"
            text-anchor="middle"
            x="0.000000"
            y="0"
><tspan font-family="sans-serif" font-style="normal" font-weight="normal">&#x30;&#x2e;&#x35;</tspan></text>
        </g>
      </g>
    </g>
    <clipPath
      id="text-clipping122"
      >
      <polygon
        points="0.000000,0.000000 0.000000,349.986267 800.000000,349.986267 800.000000,0.000000"
        />
    </clipPath>
    <g
      clip-path="url(#text-clipping122)"
      >
      <g
        transform="matrix(0.000000 1.000000 1.000000 -0.000000 62.746055 286.996063)"
        >
        <g
          transform="matrix(1.0 0.0 0.0 1.0 0.0 5.931960)"
          >
          <text
            dominant-baseline="no-change"
            fill="#000000"
            fill-opacity="1.000000"
            xml:space="preserve"
            font-size="15"
            text-anchor="middle"
            x="0.000000"
            y="0"
><tspan font-family="sans-serif" font-style="normal" font-weight="normal">&#x31;&#x2e;&#x30;</tspan></text>
        </g>
      </g>
    </g>
    <polyline
      stroke-width="1"
      stroke="#000000"
      stroke-opacity="1.000000"
      fill="none"
      points="80.01,166.24 80.62,167.49 81.23,168.49 81.86,168.97 82.47,168.83 83.08,168.00 83.69,166.68 84.33,165.17 84.94,163.82 85.55,163.02 
      86.16,162.99 86.79,163.77 87.41,165.24 88.02,167.05 88.65,168.76 89.26,169.93 89.87,170.24 90.48,169.56 91.12,168.00 91.73,165.92 
      92.34,163.82 92.95,162.21 93.58,161.53 94.19,162.02 94.80,163.60 95.41,165.92 96.05,168.44 96.66,170.51 97.27,171.64 97.88,171.44 
      98.51,169.95 99.12,167.46 99.73,164.53 100.34,161.92 100.98,160.28 101.59,160.06 102.20,161.38 102.81,163.99 103.45,167.27 104.06,170.42 
      104.67,172.66 105.28,173.39 105.91,172.37 106.52,169.78 107.13,166.19 107.74,162.48 108.38,159.55 108.99,158.21 109.60,158.82 110.21,161.31 
      110.84,165.12 111.45,169.37 112.06,172.98 112.67,175.05 113.31,175.01 113.92,172.76 114.53,168.80 115.14,164.09 115.78,159.75 116.39,156.87 
      117.00,156.25 117.61,158.09 118.24,162.02 118.85,167.14 119.46,172.20 120.07,175.96 120.71,177.40 121.32,176.13 121.93,172.34 122.56,166.92 
      123.17,161.16 123.78,156.50 124.39,154.13 125.03,154.69 125.64,158.16 126.25,163.73 126.86,170.10 127.49,175.69 128.10,179.11 128.71,179.42 
      129.33,176.47 129.96,170.90 130.57,164.02 131.18,157.50 131.79,152.96 132.43,151.62 133.04,153.86 133.65,159.26 134.26,166.51 134.89,173.91 
      135.50,179.60 136.11,182.13 136.72,180.77 137.36,175.79 137.97,168.29 138.58,160.11 139.19,153.25 139.82,149.44 140.43,149.71 141.04,154.08 
      141.65,161.58 142.29,170.44 142.90,178.45 143.51,183.65 144.12,184.65 144.76,181.11 145.37,173.81 145.98,164.46 146.59,155.35 147.22,148.71 
      147.83,146.29 148.44,148.74 149.05,155.60 149.69,165.24 150.30,175.35 150.91,183.43 151.52,187.43 152.15,186.26 152.76,180.13 153.37,170.42 
      154.01,159.45 154.62,149.96 155.23,144.29 155.84,143.93 156.47,149.10 157.08,158.62 157.70,170.22 158.31,181.06 158.94,188.48 159.55,190.53 
      160.16,186.63 160.77,177.59 161.41,165.58 162.02,153.50 162.63,144.32 163.24,140.41 163.87,142.80 164.48,151.03 165.09,163.19 165.70,176.35 
      166.34,187.24 166.95,193.15 167.56,192.54 168.17,185.38 168.80,173.39 169.41,159.40 170.02,146.86 170.64,138.87 171.27,137.50 171.88,143.24 
      172.49,154.74 173.10,169.29 173.74,183.36 174.35,193.44 174.96,196.95 175.57,192.97 176.20,182.31 176.81,167.51 177.42,152.13 178.03,139.99 
      178.67,134.13 179.28,136.09 179.89,145.56 180.50,160.28 181.13,176.71 181.74,190.83 182.35,199.10 182.96,199.42 183.60,191.53 184.21,177.28 
      184.82,160.09 185.43,144.15 186.07,133.40 186.68,130.59 187.29,136.55 187.92,149.93 188.53,167.56 189.14,185.11 189.75,198.27 190.39,203.74 
      191.00,200.03 191.61,187.95 192.22,170.32 192.85,151.42 193.46,135.92 194.07,127.67 194.68,128.81 195.32,139.21 195.93,156.43 196.54,176.32 
      197.15,194.00 197.78,205.11 198.39,206.77 199.01,198.47 199.62,182.11 200.25,161.60 200.86,141.97 201.47,128.06 202.08,123.37 202.72,129.18 
      203.33,144.22 203.94,164.90 204.55,186.19 205.18,202.84 205.79,210.68 206.40,207.70 207.01,194.44 207.65,174.08 208.26,151.52 208.87,132.28 
      209.48,121.20 210.11,121.07 210.72,132.06 211.33,151.64 211.94,175.05 212.58,196.59 213.19,210.92 213.80,214.41 214.41,206.09 215.05,187.85 
      215.66,164.07 216.27,140.53 216.88,123.05 217.51,115.99 218.12,121.24 218.73,137.65 219.37,161.28 219.98,186.41 220.59,206.87 221.20,217.56 
      221.83,215.75 222.44,201.72 223.05,178.79 223.66,152.49 224.30,129.33 224.91,114.97 225.52,113.06 226.13,124.27 226.76,145.90 227.38,172.81 
      227.99,198.39 228.60,216.34 229.23,222.15 229.84,214.24 230.45,194.46 231.06,167.51 231.70,139.97 232.31,118.58 232.92,108.74 233.53,112.92 
      234.16,130.30 234.77,156.69 235.38,185.70 235.99,210.24 236.63,224.20 237.24,224.03 "/>
    <polyline
      stroke-width="1"
      stroke="#000000"
      stroke-opacity="1.000000"
      fill="none"
      points="237.24,224.03 237.85,209.65 238.46,184.43 239.09,154.50 239.70,127.15 240.31,109.16 240.93,105.03 241.56,115.95 242.17,139.34 242.78,169.56 
      243.39,199.30 244.03,221.17 244.64,229.74 245.25,222.76 245.86,201.84 246.49,171.93 247.10,140.36 247.71,114.87 248.32,101.76 248.96,104.42 
      249.57,122.29 250.18,151.15 250.81,183.99 251.42,212.75 252.03,230.35 252.64,232.33 253.28,218.07 253.89,190.95 254.50,157.50 255.11,125.93 
      255.75,103.98 256.36,97.17 256.97,107.28 257.58,131.99 258.21,165.31 258.82,199.18 259.43,225.23 260.04,236.99 260.68,231.45 261.29,209.85 
      261.90,177.32 262.51,141.83 263.14,112.04 263.75,95.32 264.36,95.93 264.97,113.80 265.61,144.73 266.22,181.21 266.83,214.29 267.44,235.82 
      268.07,240.41 268.68,226.84 269.30,198.25 269.91,161.55 270.54,125.76 271.15,99.64 271.76,89.68 272.37,98.46 273.01,123.98 273.62,160.09 
      274.23,197.98 274.84,228.35 275.47,243.68 276.08,240.10 276.69,218.34 277.30,183.62 277.94,144.39 278.55,110.23 279.16,89.60 279.77,87.65 
      280.40,105.01 281.01,137.53 281.62,177.35 282.24,214.70 282.87,240.44 283.48,248.10 284.09,235.70 284.73,206.16 285.34,166.61 285.95,126.71 
      286.56,96.24 287.19,82.79 287.80,89.72 288.41,115.53 289.02,153.96 289.66,195.66 290.27,230.40 290.88,249.62 291.49,248.47 292.12,227.13 
      292.73,190.70 293.34,148.03 293.95,109.55 294.59,84.77 295.20,79.86 295.81,96.12 296.42,129.72 297.05,172.49 297.67,214.00 298.28,244.03 
      298.89,255.13 299.52,244.49 300.13,214.56 300.74,172.59 301.35,128.81 301.99,93.97 302.60,76.69 303.21,81.30 303.82,106.79 304.45,147.03 
      305.06,192.22 305.67,231.28 306.28,254.60 306.92,256.36 307.53,236.02 308.14,198.42 308.75,152.71 309.38,110.09 309.99,81.01 310.61,72.71 
      311.22,87.33 311.85,121.41 312.46,166.68 313.07,212.07 313.68,246.44 314.32,261.34 314.93,252.94 315.54,223.22 316.17,179.38 316.78,132.08 
      317.39,92.92 318.00,71.58 318.64,73.37 319.25,97.95 319.86,139.43 320.47,187.70 321.10,230.92 321.71,258.50 322.32,263.56 322.93,244.76 
      323.57,206.60 324.18,158.35 324.79,111.84 325.40,78.44 326.04,66.46 326.65,78.88 327.26,112.82 327.87,160.04 328.50,208.97 329.11,247.64 
      329.72,266.51 330.33,260.87 330.97,231.97 331.58,186.82 332.19,136.43 332.80,93.14 333.43,67.60 334.04,66.16 334.65,89.26 335.26,131.35 
      335.90,182.18 336.51,229.30 337.12,261.17 337.73,269.86 338.36,253.16 338.98,215.07 339.59,164.85 340.20,114.80 340.83,77.15 341.44,61.23 
      342.05,71.00 342.66,104.18 343.30,152.71 343.91,204.74 344.52,247.54 345.13,270.54 345.76,268.05 346.37,240.58 346.98,194.78 347.59,141.80 
      348.23,94.66 348.84,64.89 349.45,59.89 350.08,80.96 350.69,123.00 351.30,175.81 351.92,226.47 352.55,262.51 353.16,275.06 353.77,260.97 
      354.38,223.62 355.02,172.05 355.63,118.90 356.24,77.20 356.85,57.20 357.48,63.89 358.09,95.68 358.70,144.90 359.31,199.49 359.95,246.10 
      360.56,273.27 361.17,274.28 361.78,248.79 362.41,203.01 363.02,148.08 363.63,97.42 364.24,63.53 364.88,54.71 365.49,73.22 366.10,114.58 
      366.71,168.73 367.35,222.42 367.96,262.48 368.57,279.06 369.18,268.03 369.81,231.99 370.42,179.77 371.03,124.08 371.64,78.59 372.28,54.49 
      372.89,57.72 373.50,87.58 374.11,136.77 374.74,193.32 375.35,243.37 375.96,274.62 376.57,279.38 377.21,256.43 377.82,211.31 378.43,155.06 
      379.04,101.42 379.67,63.55 380.29,50.76 380.90,66.26 381.53,106.30 382.14,161.14 382.75,217.32 383.36,261.09 384.00,281.72 384.61,274.08 
      385.22,240.00 385.83,187.77 386.46,130.18 387.07,81.33 387.68,53.18 388.29,52.69 388.93,80.03 389.54,128.57 390.15,186.38 390.76,239.39 
      391.39,274.57 392.00,283.24 392.61,263.26 393.22,219.49 393.86,162.60 394.47,106.50 "/>
    <polyline
      stroke-width="1"
      stroke="#000000"
      stroke-opacity="1.000000"
      fill="none"
      points="394.47,106.50 395.08,64.97 395.69,48.19 396.33,60.30 396.94,98.42 397.55,153.18 398.16,211.24 398.79,258.33 399.40,282.94 400.01,280.92 
      400.62,248.74 401.26,196.37 401.87,136.63 402.48,84.13 403.09,51.76 403.72,47.39 404.33,72.15 404.94,119.93 405.55,179.06 406.19,235.04 
      406.80,274.20 407.41,286.92 408.02,270.10 408.66,227.84 409.27,170.51 409.88,112.14 410.49,67.02 411.12,46.19 411.73,54.76 412.34,90.60 
      412.95,145.00 413.59,204.57 414.20,254.77 414.81,283.31 415.44,283.16 416.05,254.40 416.66,204.06 417.27,144.46 417.91,90.19 418.52,54.54 
      419.13,46.24 419.74,67.34 420.37,112.63 420.98,171.05 421.59,228.30 422.21,270.37 422.84,286.92 423.45,273.96 424.06,234.60 424.67,178.52 
      425.31,119.41 425.92,71.80 426.53,47.29 427.14,51.93 427.77,84.55 428.38,137.16 428.99,196.91 429.60,249.13 430.24,281.09 430.85,284.92 
      431.46,259.70 432.07,211.58 432.70,152.40 433.31,96.58 433.92,57.84 434.53,45.63 435.17,62.97 435.78,105.57 436.39,163.04 437.00,221.30 
      437.64,266.07 438.25,286.41 438.86,277.33 439.47,241.05 440.10,186.46 440.71,126.91 441.32,77.00 441.93,48.93 442.57,49.61 443.18,78.81 
      443.79,129.45 444.40,189.09 445.03,243.12 445.64,278.35 446.25,286.14 446.89,264.56 447.50,218.90 448.11,160.38 448.72,103.27 449.35,61.60 
      449.96,45.53 450.58,59.04 451.19,98.78 451.82,155.06 452.43,214.07 453.04,261.36 453.65,285.38 454.29,280.23 454.90,247.18 455.51,194.29 
      456.12,134.57 456.75,82.60 457.36,51.10 457.97,47.78 458.58,73.49 459.22,121.90 459.83,181.18 460.44,236.80 461.05,275.13 461.68,286.83 
      462.29,268.98 462.90,226.01 463.52,168.39 464.15,110.23 464.76,65.82 465.37,45.97 465.98,55.59 466.62,92.29 467.23,147.10 467.84,206.60 
      468.45,256.21 469.08,283.82 469.69,282.63 470.30,252.94 470.91,202.03 471.55,142.36 472.16,88.55 472.77,53.76 473.38,46.51 474.01,68.56 
      474.62,114.55 475.23,173.20 475.84,230.13 476.48,271.44 477.09,286.97 477.70,272.96 478.33,232.82 478.95,176.40 479.56,117.46 480.17,70.49 
      480.80,46.95 481.41,52.64 482.02,86.14 482.63,139.24 483.27,198.96 483.88,250.69 484.49,281.72 485.10,284.51 485.73,258.31 486.34,209.60 
      486.95,150.27 487.56,94.85 488.20,56.91 488.81,45.73 489.42,64.09 490.03,107.43 490.66,165.19 491.27,223.20 491.89,267.27 492.50,286.61 
      493.13,276.47 493.74,239.36 494.35,184.33 494.96,124.91 495.60,75.56 496.21,48.44 496.82,50.17 497.43,80.30 498.06,131.50 498.67,191.19 
      499.28,244.76 499.89,279.13 500.53,285.85 501.14,263.29 501.75,216.97 502.36,158.23 502.99,101.47 503.60,60.55 504.21,45.51 504.82,60.04 
      505.46,100.56 506.07,157.18 506.68,216.02 507.29,262.65 507.93,285.70 508.54,279.50 509.15,245.56 509.76,192.22 510.39,132.50 511.00,81.06 
      511.61,50.47 512.25,48.22 512.86,74.88 513.47,123.91 514.08,183.28 514.71,238.51 515.32,276.03 515.93,286.68 516.54,267.85 517.18,224.13 
      517.79,166.24 518.40,108.35 519.01,64.65 519.64,45.80 520.26,56.47 520.87,94.00 521.48,149.22 522.11,208.60 522.72,257.63 523.33,284.29 
      523.94,282.04 524.58,251.42 525.19,199.98 525.80,140.26 526.41,86.92 527.04,52.98 527.65,46.80 528.26,69.85 528.87,116.48 529.51,175.32 
      530.12,231.94 530.73,272.47 531.34,287.00 531.97,271.96 532.58,231.04 533.19,174.25 533.81,115.51 534.44,69.19 535.05,46.63 535.66,53.37 
      536.27,87.75 536.91,141.31 537.52,201.01 538.13,252.20 538.74,282.33 539.37,284.04 539.98,256.92 540.59,207.60 541.20,148.15 541.84,93.14 
      542.45,56.01 543.06,45.90 543.69,65.24 544.30,109.31 544.91,167.31 545.52,225.08 546.16,268.42 546.77,286.75 547.38,275.59 547.99,237.65 
      548.63,182.23 549.24,122.90 549.85,74.17 550.46,48.00 551.09,50.78 551.70,81.81 "/>
    <polyline
      stroke-width="1"
      stroke="#000000"
      stroke-opacity="1.000000"
      fill="none"
      points="551.70,81.81 552.31,133.55 552.92,193.27 553.56,246.37 554.17,279.87 554.78,285.56 555.39,262.02 556.02,215.02 556.63,156.11 557.24,99.66 
      557.85,59.52 558.49,45.51 559.10,61.06 559.71,102.37 560.32,159.31 560.95,217.95 561.56,263.92 562.18,286.00 562.79,278.74 563.42,243.95 
      564.03,190.12 564.64,130.47 565.25,79.57 565.89,49.88 566.50,48.68 567.11,76.30 567.72,125.91 568.35,185.41 568.96,240.22 569.57,276.91 
      570.18,286.51 570.82,266.68 571.43,222.25 572.04,164.12 572.65,106.50 573.28,63.50 573.89,45.68 574.50,57.37 575.12,95.71 575.75,151.32 
      576.36,210.60 576.97,259.02 577.61,284.70 578.22,281.41 578.83,249.91 579.44,197.93 580.07,138.19 580.68,85.33 581.29,52.27 581.90,47.12 
      582.54,71.14 583.15,118.44 583.76,177.45 584.37,233.72 585.00,273.47 585.61,286.97 586.22,270.91 586.83,229.23 587.47,172.12 588.08,113.58 
      588.69,67.95 589.30,46.36 589.93,54.15 590.55,89.38 591.16,143.41 591.77,203.06 592.40,253.69 593.01,282.89 593.62,283.55 594.23,255.50 
      594.87,205.57 595.48,146.05 596.09,91.43 596.70,55.15 597.33,46.07 597.94,66.41 598.55,111.21 599.16,169.46 599.80,226.94 600.41,269.54 
      601.02,286.87 601.63,274.67 602.26,235.92 602.87,180.11 603.49,120.90 604.10,72.80 604.73,47.58 605.34,51.42 605.95,83.38 606.56,135.60 
      607.20,195.34 607.81,247.96 608.42,280.57 609.05,285.19 609.66,260.70 610.27,213.07 610.88,153.98 611.52,97.90 612.13,58.55 612.74,45.56 
      613.35,62.14 613.98,104.20 614.59,161.46 615.20,219.88 615.81,265.17 616.45,286.26 617.06,277.96 617.67,242.29 618.28,188.02 618.92,128.42 
      619.53,78.08 620.14,49.32 620.75,49.20 621.38,77.74 621.99,127.93 622.60,187.51 623.21,241.90 623.85,277.74 624.46,286.31 625.07,265.49 
      625.68,220.34 626.31,161.97 626.92,104.64 627.53,62.40 628.14,45.58 628.78,58.30 629.39,97.46 630.00,153.45 630.61,212.58 631.24,260.36 
      631.86,285.12 632.47,280.75 633.08,248.35 633.71,195.86 634.32,136.11 634.93,83.74 635.54,51.59 636.18,47.49 636.79,72.46 637.40,120.41 
      638.01,179.60 638.64,235.48 639.25,274.42 639.86,286.90 640.50,269.81 641.11,227.38 641.72,169.98 642.33,111.67 642.96,66.73 643.57,46.12 
      644.18,54.96 644.80,91.04 645.43,145.51 646.04,205.08 646.65,255.13 647.26,283.43 647.90,283.04 648.51,254.04 649.12,203.55 649.73,143.93 
      650.36,89.77 650.97,54.35 651.58,46.31 652.19,67.63 652.83,113.11 653.44,171.59 654.05,228.77 654.66,270.64 655.29,286.95 655.90,273.71 
      656.51,234.16 657.12,177.98 657.76,118.92 658.37,71.46 658.98,47.22 659.59,52.10 660.23,84.94 660.84,137.68 661.45,197.42 662.06,249.52 
      662.69,281.26 663.30,284.82 663.91,259.36 664.52,211.09 665.16,151.86 665.77,96.15 666.38,57.59 666.99,45.66 667.62,63.23 668.23,106.03 
      668.84,163.58 669.45,221.78 670.09,266.39 670.70,286.46 671.31,277.13 671.92,240.63 672.55,185.92 673.17,126.40 673.78,76.64 674.41,48.81 
      675.02,49.73 675.63,79.20 676.24,129.96 676.88,189.61 677.49,243.54 678.10,278.55 678.71,286.07 679.34,264.24 679.95,218.41 680.56,159.84 
      681.17,102.81 681.81,61.33 682.42,45.53 683.03,59.28 683.64,99.22 684.27,155.57 684.88,214.56 685.49,261.70 686.10,285.46 686.74,280.04 
      687.35,246.78 687.96,193.78 688.57,134.04 689.21,82.20 689.82,50.93 690.43,47.90 691.04,73.83 691.67,122.39 692.28,181.69 692.89,237.21 
      693.50,275.37 694.14,286.80 694.75,268.71 695.36,225.54 695.97,167.85 "/>
    <polyline
      stroke-width="1"
      stroke="#000000"
      stroke-opacity="1.000000"
      fill="none"
      points="80.01,45.51 695.99,45.51"
      />
    <polyline
      stroke-width="1"
      stroke="#000000"
      stroke-opacity="1.000000"
      fill="none"
      points="80.01,45.51 80.01,54.13"
      />
    <polyline
      stroke-width="1"
      stroke="#000000"
      stroke-opacity="1.000000"
      fill="none"
      points="110.84,45.51 110.84,49.83"
      />
    <polyline
      stroke-width="1"
      stroke="#000000"
      stroke-opacity="1.000000"
      fill="none"
      points="141.65,45.51 141.65,49.83"
      />
    <polyline
      stroke-width="1"
      stroke="#000000"
      stroke-opacity="1.000000"
      fill="none"
      points="172.49,45.51 172.49,49.83"
      />
    <polyline
      stroke-width="1"
      stroke="#000000"
      stroke-opacity="1.000000"
      fill="none"
      points="203.33,45.51 203.33,54.13"
      />
    <polyline
      stroke-width="1"
      stroke="#000000"
      stroke-opacity="1.000000"
      fill="none"
      points="234.16,45.51 234.16,49.83"
      />
    <polyline
      stroke-width="1"
      stroke="#000000"
      stroke-opacity="1.000000"
      fill="none"
      points="264.97,45.51 264.97,49.83"
      />
    <polyline
      stroke-width="1"
      stroke="#000000"
      stroke-opacity="1.000000"
      fill="none"
      points="295.81,45.51 295.81,49.83"
      />
    <polyline
      stroke-width="1"
      stroke="#000000"
      stroke-opacity="1.000000"
      fill="none"
      points="326.65,45.51 326.65,54.13"
      />
    <polyline
      stroke-width="1"
      stroke="#000000"
      stroke-opacity="1.000000"
      fill="none"
      points="357.48,45.51 357.48,49.83"
      />
    <polyline
      stroke-width="1"
      stroke="#000000"
      stroke-opacity="1.000000"
      fill="none"
      points="388.29,45.51 388.29,49.83"
      />
    <polyline
      stroke-width="1"
      stroke="#000000"
      stroke-opacity="1.000000"
      fill="none"
      points="419.13,45.51 419.13,49.83"
      />
    <polyline
      stroke-width="1"
      stroke="#000000"
      stroke-opacity="1.000000"
      fill="none"
      points="449.96,45.51 449.96,54.13"
      />
    <polyline
      stroke-width="1"
      stroke="#000000"
      stroke-opacity="1.000000"
      fill="none"
      points="480.80,45.51 480.80,49.83"
      />
    <polyline
      stroke-width="1"
      stroke="#000000"
      stroke-opacity="1.000000"
      fill="none"
      points="511.61,45.51 511.61,49.83"
      />
    <polyline
      stroke-width="1"
      stroke="#000000"
      stroke-opacity="1.000000"
      fill="none"
      points="542.45,45.51 542.45,49.83"
      />
    <polyline
      stroke-width="1"
      stroke="#000000"
      stroke-opacity="1.000000"
      fill="none"
      points="573.28,45.51 573.28,54.13"
      />
    <polyline
      stroke-width="1"
      stroke="#000000"
      stroke-opacity="1.000000"
      fill="none"
      points="604.10,45.51 604.10,49.83"
      />
    <polyline
      stroke-width="1"
      stroke="#000000"
      stroke-opacity="1.000000"
      fill="none"
      points="634.93,45.51 634.93,49.83"
      />
    <polyline
      stroke-width="1"
      stroke="#000000"
      stroke-opacity="1.000000"
      fill="none"
      points="665.77,45.51 665.77,49.83"
      />
    <polyline
      stroke-width="1"
      stroke="#000000"
      stroke-opacity="1.000000"
      fill="none"
      points="695.99,45.51 695.99,287.00"
      />
    <polyline
      stroke-width="1"
      stroke="#000000"
      stroke-opacity="1.000000"
      fill="none"
      points="687.37,45.51 695.99,45.51"
      />
    <polyline
      stroke-width="1"
      stroke="#000000"
      stroke-opacity="1.000000"
      fill="none"
      points="691.67,57.57 695.99,57.57"
      />
    <polyline
      stroke-width="1"
      stroke="#000000"
      stroke-opacity="1.000000"
      fill="none"
      points="691.67,69.66 695.99,69.66"
      />
    <polyline
      stroke-width="1"
      stroke="#000000"
      stroke-opacity="1.000000"
      fill="none"
      points="691.67,81.74 695.99,81.74"
      />
    <polyline
      stroke-width="1"
      stroke="#000000"
      stroke-opacity="1.000000"
      fill="none"
      points="691.67,93.80 695.99,93.80"
      />
    <polyline
      stroke-width="1"
      stroke="#000000"
      stroke-opacity="1.000000"
      fill="none"
      points="687.37,105.89 695.99,105.89"
      />
    <polyline
      stroke-width="1"
      stroke="#000000"
      stroke-opacity="1.000000"
      fill="none"
      points="691.67,117.95 695.99,117.95"
      />
    <polyline
      stroke-width="1"
      stroke="#000000"
      stroke-opacity="1.000000"
      fill="none"
      points="691.67,130.03 695.99,130.03"
      />
    <polyline
      stroke-width="1"
      stroke="#000000"
      stroke-opacity="1.000000"
      fill="none"
      points="691.67,142.09 695.99,142.09"
      />
    <polyline
      stroke-width="1"
      stroke="#000000"
      stroke-opacity="1.000000"
      fill="none"
      points="691.67,154.18 695.99,154.18"
      />
    <polyline
      stroke-width="1"
      stroke="#000000"
      stroke-opacity="1.000000"
      fill="none"
      points="687.37,166.24 695.99,166.24"
      />
    <polyline
      stroke-width="1"
      stroke="#000000"
      stroke-opacity="1.000000"
      fill="none"
      points="691.67,178.33 695.99,178.33"
      />
    <polyline
      stroke-width="1"
      stroke="#000000"
      stroke-opacity="1.000000"
      fill="none"
      points="691.67,190.39 695.99,190.39"
      />
    <polyline
      stroke-width="1"
      stroke="#000000"
      stroke-opacity="1.000000"
      fill="none"
      points="691.67,202.47 695.99,202.47"
      />
    <polyline
      stroke-width="1"
      stroke="#000000"
      stroke-opacity="1.000000"
      fill="none"
      points="691.67,214.56 695.99,214.56"
      />
    <polyline
      stroke-width="1"
      stroke="#000000"
      stroke-opacity="1.000000"
      fill="none"
      points="687.37,226.62 695.99,226.62"
      />
    <polyline
      stroke-width="1"
      stroke="#000000"
      stroke-opacity="1.000000"
      fill="none"
      points="691.67,238.70 695.99,238.70"
      />
    <polyline
      stroke-width="1"
      stroke="#000000"
      stroke-opacity="1.000000"
      fill="none"
      points="691.67,250.76 695.99,250.76"
      />
    <polyline
      stroke-width="1"
      stroke="#000000"
      stroke-opacity="1.000000"
      fill="none"
      points="691.67,262.85 695.99,262.85"
      />
    <polyline
      stroke-width="1"
      stroke="#000000"
      stroke-opacity="1.000000"
      fill="none"
      points="691.67,274.91 695.99,274.91"
      />
    <polyline
      stroke-width="1"
      stroke="#000000"
      stroke-opacity="1.000000"
      fill="none"
      points="687.37,287.00 695.99,287.00"
      />
    <polyline
      stroke-width="1"
      stroke="#000000"
      stroke-opacity="1.000000"
      fill="none"
      points="695.99,287.00 80.01,287.00"
      />
    <polyline
      stroke-width="1"
      stroke="#000000"
      stroke-opacity="1.000000"
      fill="none"
      points="665.77,282.67 665.77,287.00"
      />
    <polyline
      stroke-width="1"
      stroke="#000000"
      stroke-opacity="1.000000"
      fill="none"
      points="634.93,282.67 634.93,287.00"
      />
    <polyline
      stroke-width="1"
      stroke="#000000"
      stroke-opacity="1.000000"
      fill="none"
      points="604.10,282.67 604.10,287.00"
      />
    <polyline
      stroke-width="1"
      stroke="#000000"
      stroke-opacity="1.000000"
      fill="none"
      points="573.28,278.38 573.28,287.00"
      />
    <polyline
      stroke-width="1"
      stroke="#000000"
      stroke-opacity="1.000000"
      fill="none"
      points="542.45,282.67 542.45,287.00"
      />
    <polyline
      stroke-width="1"
      stroke="#000000"
      stroke-opacity="1.000000"
      fill="none"
      points="511.61,282.67 511.61,287.00"
      />
    <polyline
      stroke-width="1"
      stroke="#000000"
      stroke-opacity="1.000000"
      fill="none"
      points="480.80,282.67 480.80,287.00"
      />
    <polyline
      stroke-width="1"
      stroke="#000000"
      stroke-opacity="1.000000"
      fill="none"
      points="449.96,278.38 449.96,287.00"
      />
    <polyline
      stroke-width="1"
      stroke="#000000"
      stroke-opacity="1.000000"
      fill="none"
      points="419.13,282.67 419.13,287.00"
      />
    <polyline
      stroke-width="1"
      stroke="#000000"
      stroke-opacity="1.000000"
      fill="none"
      points="388.29,282.67 388.29,287.00"
      />
    <polyline
      stroke-width="1"
      stroke="#000000"
      stroke-opacity="1.000000"
      fill="none"
      points="357.48,282.67 357.48,287.00"
      />
    <polyline
      stroke-width="1"
      stroke="#000000"
      stroke-opacity="1.000000"
      fill="none"
      points="326.65,278.38 326.65,287.00"
      />
    <polyline
      stroke-width="1"
      stroke="#000000"
      stroke-opacity="1.000000"
      fill="none"
      points="295.81,282.67 295.81,287.00"
      />
    <polyline
      stroke-width="1"
      stroke="#000000"
      stroke-opacity="1.000000"
      fill="none"
      points="264.97,282.67 264.97,287.00"
      />
    <polyline
      stroke-width="1"
      stroke="#000000"
      stroke-opacity="1.000000"
      fill="none"
      points="234.16,282.67 234.16,287.00"
      />
    <polyline
      stroke-width="1"
      stroke="#000000"
      stroke-opacity="1.000000"
      fill="none"
      points="203.33,278.38 203.33,287.00"
      />
    <polyline
      stroke-width="1"
      stroke="#000000"
      stroke-opacity="1.000000"
      fill="none"
      points="172.49,282.67 172.49,287.00"
      />
    <polyline
      stroke-width="1"
      stroke="#000000"
      stroke-opacity="1.000000"
      fill="none"
      points="141.65,282.67 141.65,287.00"
      />
    <polyline
      stroke-width="1"
      stroke="#000000"
      stroke-opacity="1.000000"
      fill="none"
      points="110.84,282.67 110.84,287.00"
      />
    <polyline
      stroke-width="1"
      stroke="#000000"
      stroke-opacity="1.000000"
      fill="none"
      points="80.01,278.38 80.01,287.00"
      />
    <polyline
      stroke-width="1"
      stroke="#000000"
      stroke-opacity="1.000000"
      fill="none"
      points="80.01,287.00 80.01,45.51"
      />
    <polyline
      stroke-width="1"
      stroke="#000000"
      stroke-opacity="1.000000"
      fill="none"
      points="80.01,287.00 88.63,287.00"
      />
    <polyline
      stroke-width="1"
      stroke="#000000"
      stroke-opacity="1.000000"
      fill="none"
      points="80.01,274.91 84.33,274.91"
      />
    <polyline
      stroke-width="1"
      stroke="#000000"
      stroke-opacity="1.000000"
      fill="none"
      points="80.01,262.85 84.33,262.85"
      />
    <polyline
      stroke-width="1"
      stroke="#000000"
      stroke-opacity="1.000000"
      fill="none"
      points="80.01,250.76 84.33,250.76"
      />
    <polyline
      stroke-width="1"
      stroke="#000000"
      stroke-opacity="1.000000"
      fill="none"
      points="80.01,238.70 84.33,238.70"
      />
    <polyline
      stroke-width="1"
      stroke="#000000"
      stroke-opacity="1.000000"
      fill="none"
      points="80.01,226.62 88.63,226.62"
      />
    <polyline
      stroke-width="1"
      stroke="#000000"
      stroke-opacity="1.000000"
      fill="none"
      points="80.01,214.56 84.33,214.56"
      />
    <polyline
      stroke-width="1"
      stroke="#000000"
      stroke-opacity="1.000000"
      fill="none"
      points="80.01,202.47 84.33,202.47"
      />
    <polyline
      stroke-width="1"
      stroke="#000000"
      stroke-opacity="1.000000"
      fill="none"
      points="80.01,190.39 84.33,190.39"
      />
    <polyline
      stroke-width="1"
      stroke="#000000"
      stroke-opacity="1.000000"
      fill="none"
      points="80.01,178.33 84.33,178.33"
      />
    <polyline
      stroke-width="1"
      stroke="#000000"
      stroke-opacity="1.000000"
      fill="none"
      points="80.01,166.24 88.63,166.24"
      />
    <polyline
      stroke-width="1"
      stroke="#000000"
      stroke-opacity="1.000000"
      fill="none"
      points="80.01,154.18 84.33,154.18"
      />
    <polyline
      stroke-width="1"
      stroke="#000000"
      stroke-opacity="1.000000"
      fill="none"
      points="80.01,142.09 84.33,142.09"
      />
    <polyline
      stroke-width="1"
      stroke="#000000"
      stroke-opacity="1.000000"
      fill="none"
      points="80.01,130.03 84.33,130.03"
      />
    <polyline
      stroke-width="1"
      stroke="#000000"
      stroke-opacity="1.000000"
      fill="none"
      points="80.01,117.95 84.33,117.95"
      />
    <polyline
      stroke-width="1"
      stroke="#000000"
      stroke-opacity="1.000000"
      fill="none"
      points="80.01,105.89 88.63,105.89"
      />
    <polyline
      stroke-width="1"
      stroke="#000000"
      stroke-opacity="1.000000"
      fill="none"
      points="80.01,93.80 84.33,93.80"
      />
    <polyline
      stroke-width="1"
      stroke="#000000"
      stroke-opacity="1.000000"
      fill="none"
      points="80.01,81.74 84.33,81.74"
      />
    <polyline
      stroke-width="1"
      stroke="#000000"
      stroke-opacity="1.000000"
      fill="none"
      points="80.01,69.66 84.33,69.66"
      />
    <polyline
      stroke-width="1"
      stroke="#000000"
      stroke-opacity="1.000000"
      fill="none"
      points="80.01,57.57 84.33,57.57"
      />
    <polyline
      stroke-width="1"
      stroke="#000000"
      stroke-opacity="1.000000"
      fill="none"
      points="80.01,45.51 88.63,45.51"
      />
    <clipPath
      id="text-clipping123"
      >
      <polygon
        points="0.000000,0.000000 0.000000,349.986267 800.000000,349.986267 800.000000,0.000000"
        />
    </clipPath>
    <g
      clip-path="url(#text-clipping123)"
      >
      <g
        transform="matrix(1.000000 0.000000 0.000000 -1.000000 80.007324 28.247932)"
        >
        <g
          transform="matrix(1.0 0.0 0.0 1.0 0.0 5.931960)"
          >
          <text
            dominant-baseline="no-change"
            fill="#000000"
            fill-opacity="1.000000"
            xml:space="preserve"
            font-size="15"
            text-anchor="middle"
            x="0.000000"
            y="0"
><tspan font-family="sans-serif" font-style="normal" font-weight="normal">&#x30;</tspan></text>
        </g>
      </g>
    </g>
    <clipPath
      id="text-clipping124"
      >
      <polygon
        points="0.000000,0.000000 0.000000,349.986267 800.000000,349.986267 800.000000,0.000000"
        />
    </clipPath>
    <g
      clip-path="url(#text-clipping124)"
      >
      <g
        transform="matrix(1.000000 0.000000 0.000000 -1.000000 203.326518 28.247932)"
        >
        <g
          transform="matrix(1.0 0.0 0.0 1.0 0.0 5.931960)"
          >
          <text
            dominant-baseline="no-change"
            fill="#000000"
            fill-opacity="1.000000"
            xml:space="preserve"
            font-size="15"
            text-anchor="middle"
            x="0.000000"
            y="0"
><tspan font-family="sans-serif" font-style="normal" font-weight="normal">&#x32;</tspan></text>
        </g>
      </g>
    </g>
    <clipPath
      id="text-clipping125"
      >
      <polygon
        points="0.000000,0.000000 0.000000,349.986267 800.000000,349.986267 800.000000,0.000000"
        />
    </clipPath>
    <g
      clip-path="url(#text-clipping125)"
      >
      <g
        transform="matrix(1.000000 0.000000 0.000000 -1.000000 326.645711 28.247932)"
        >
        <g
          transform="matrix(1.0 0.0 0.0 1.0 0.0 5.931960)"
          >
          <text
            dominant-baseline="no-change"
            fill="#000000"
            fill-opacity="1.000000"
            xml:space="preserve"
            font-size="15"
            text-anchor="middle"
            x="0.000000"
            y="0"
><tspan font-family="sans-serif" font-style="normal" font-weight="normal">&#x34;</tspan></text>
        </g>
      </g>
    </g>
    <clipPath
      id="text-clipping126"
      >
      <polygon
        points="0.000000,0.000000 0.000000,349.986267 800.000000,349.986267 800.000000,0.000000"
        />
    </clipPath>
    <g
      clip-path="url(#text-clipping126)"
      >
      <g
        transform="matrix(1.000000 0.000000 0.000000 -1.000000 449.964904 28.247932)"
        >
        <g
          transform="matrix(1.0 0.0 0.0 1.0 0.0 5.931960)"
          >
          <text
            dominant-baseline="no-change"
            fill="#000000"
            fill-opacity="1.000000"
            xml:space="preserve"
            font-size="15"
            text-anchor="middle"
            x="0.000000"
            y="0"
><tspan font-family="sans-serif" font-style="normal" font-weight="normal">&#x36;</tspan></text>
        </g>
      </g>
    </g>
    <clipPath
      id="text-clipping127"
      >
      <polygon
        points="0.000000,0.000000 0.000000,349.986267 800.000000,349.986267 800.000000,0.000000"
        />
    </clipPath>
    <g
      clip-path="url(#text-clipping127)"
      >
      <g
        transform="matrix(1.000000 0.000000 0.000000 -1.000000 573.284097 28.247932)"
        >
        <g
          transform="matrix(1.0 0.0 0.0 1.0 0.0 5.931960)"
          >
          <text
            dominant-baseline="no-change"
            fill="#000000"
            fill-opacity="1.000000"
            xml:space="preserve"
            font-size="15"
            text-anchor="middle"
            x="0.000000"
            y="0"
><tspan font-family="sans-serif" font-style="normal" font-weight="normal">&#x38;</tspan></text>
        </g>
      </g>
    </g>
    <clipPath
      id="text-clipping128"
      >
      <polygon
        points="0.000000,0.000000 0.000000,349.986267 800.000000,349.986267 800.000000,0.000000"
        />
    </clipPath>
    <g
      clip-path="url(#text-clipping128)"
      >
      <g
        transform="matrix(0.000000 1.000000 1.000000 -0.000000 62.746055 45.509201)"
        >
        <g
          transform="matrix(1.0 0.0 0.0 1.0 0.0 5.931960)"
          >
          <text
            dominant-baseline="no-change"
            fill="#000000"
            fill-opacity="1.000000"
            xml:space="preserve"
            font-size="15"
            text-anchor="middle"
            x="0.000000"
            y="0"
><tspan font-family="sans-serif" font-style="normal" font-weight="normal">&#x2d;&#x31;&#x2e;&#x30;</tspan></text>
        </g>
      </g>
    </g>
    <clipPath
      id="text-clipping129"
      >
      <polygon
        points="0.000000,0.000000 0.000000,349.986267 800.000000,349.986267 800.000000,0.000000"
        />
    </clipPath>
    <g
      clip-path="url(#text-clipping129)"
      >
      <g
        transform="matrix(0.000000 1.000000 1.000000 -0.000000 62.746055 105.862606)"
        >
        <g
          transform="matrix(1.0 0.0 0.0 1.0 0.0 5.931960)"
          >
          <text
            dominant-baseline="no-change"
            fill="#000000"
            fill-opacity="1.000000"
            xml:space="preserve"
            font-size="15"
            text-anchor="middle"
            x="0.000000"
            y="0"
><tspan font-family="sans-serif" font-style="normal" font-weight="normal">&#x2d;&#x30;&#x2e;&#x35;</tspan></text>
        </g>
      </g>
    </g>
    <clipPath
      id="text-clipping130"
      >
      <polygon
        points="0.000000,0.000000 0.000000,349.986267 800.000000,349.986267 800.000000,0.000000"
        />
    </clipPath>
    <g
      clip-path="url(#text-clipping130)"
      >
      <g
        transform="matrix(0.000000 1.000000 1.000000 -0.000000 62.746055 166.240425)"
        >
        <g
          transform="matrix(1.0 0.0 0.0 1.0 0.0 5.931960)"
          >
          <text
            dominant-baseline="no-change"
            fill="#000000"
            fill-opacity="1.000000"
            xml:space="preserve"
            font-size="15"
            text-anchor="middle"
            x="0.000000"
            y="0"
><tspan font-family="sans-serif" font-style="normal" font-weight="normal">&#x30;&#x2e;&#x30;</tspan></text>
        </g>
      </g>
    </g>
    <clipPath
      id="text-clipping131"
      >
      <polygon
        points="0.000000,0.000000 0.000000,349.986267 800.000000,349.986267 800.000000,0.000000"
        />
    </clipPath>
    <g
      clip-path="url(#text-clipping131)"
      >
      <g
        transform="matrix(0.000000 1.000000 1.000000 -0.000000 62.746055 226.618244)"
        >
        <g
          transform="matrix(1.0 0.0 0.0 1.0 0.0 5.931960)"
          >
          <text
            dominant-baseline="no-change"
            fill="#000000"
            fill-opacity="1.000000"
            xml:space="preserve"
            font-size="15"
            text-anchor="middle"
            x="0.000000"
            y="0"
><tspan font-family="sans-serif" font-style="normal" font-weight="normal">&#x30;&#x2e;&#x35;</tspan></text>
        </g>
      </g>
    </g>
    <clipPath
      id="text-clipping132"
      >
      <polygon
        points="0.000000,0.000000 0.000000,349.986267 800.000000,349.986267 800.000000,0.000000"
        />
    </clipPath>
    <g
      clip-path="url(#text-clipping132)"
      >
      <g
        transform="matrix(0.000000 1.000000 1.000000 -0.000000 62.746055 286.996063)"
        >
        <g
          transform="matrix(1.0 0.0 0.0 1.0 0.0 5.931960)"
          >
          <text
            dominant-baseline="no-change"
            fill="#000000"
            fill-opacity="1.000000"
            xml:space="preserve"
            font-size="15"
            text-anchor="middle"
            x="0.000000"
            y="0"
><tspan font-family="sans-serif" font-style="normal" font-weight="normal">&#x31;&#x2e;&#x30;</tspan></text>
        </g>
      </g>
    </g>
    <polyline
      stroke-width="1"
      stroke="#F03232"
      stroke-opacity="1.000000"
      fill="none"
      points="80.01,168.73 80.62,168.80 81.23,168.90 81.86,169.00 82.47,169.07 83.08,169.17 83.69,169.27 84.33,169.37 84.94,169.46 85.55,169.56 
      86.16,169.66 86.79,169.76 87.41,169.85 88.02,169.98 88.65,170.07 89.26,170.17 89.87,170.29 90.48,170.39 91.12,170.51 91.73,170.61 
      92.34,170.73 92.95,170.85 93.58,170.95 94.19,171.07 94.80,171.20 95.41,171.32 96.05,171.44 96.66,171.56 97.27,171.68 97.88,171.81 
      98.51,171.93 99.12,172.08 99.73,172.20 100.34,172.32 100.98,172.47 101.59,172.59 102.20,172.73 102.81,172.86 103.45,173.00 104.06,173.15 
      104.67,173.30 105.28,173.42 105.91,173.56 106.52,173.71 107.13,173.86 107.74,174.00 108.38,174.15 108.99,174.30 109.60,174.47 110.21,174.61 
      110.84,174.76 111.45,174.93 112.06,175.08 112.67,175.23 113.31,175.40 113.92,175.54 114.53,175.71 115.14,175.88 115.78,176.06 116.39,176.20 
      117.00,176.37 117.61,176.54 118.24,176.71 118.85,176.89 119.46,177.06 120.07,177.23 120.71,177.40 121.32,177.57 121.93,177.76 122.56,177.94 
      123.17,178.11 123.78,178.30 124.39,178.47 125.03,178.67 125.64,178.84 126.25,179.03 126.86,179.20 127.49,179.40 128.10,179.60 128.71,179.77 
      129.33,179.96 129.96,180.16 130.57,180.35 131.18,180.55 131.79,180.74 132.43,180.94 133.04,181.13 133.65,181.33 134.26,181.55 134.89,181.74 
      135.50,181.94 136.11,182.13 136.72,182.35 137.36,182.55 137.97,182.77 138.58,182.96 139.19,183.18 139.82,183.38 140.43,183.60 141.04,183.82 
      141.65,184.01 142.29,184.23 142.90,184.45 143.51,184.67 144.12,184.89 144.76,185.11 145.37,185.33 145.98,185.55 146.59,185.77 147.22,185.99 
      147.83,186.21 148.44,186.43 149.05,186.68 149.69,186.90 150.30,187.12 150.91,187.36 151.52,187.58 152.15,187.82 152.76,188.04 153.37,188.29 
      154.01,188.51 154.62,188.75 155.23,188.97 155.84,189.21 156.47,189.46 157.08,189.70 157.70,189.92 158.31,190.17 158.94,190.41 159.55,190.66 
      160.16,190.90 160.77,191.14 161.41,191.39 162.02,191.63 162.63,191.88 163.24,192.12 163.87,192.36 164.48,192.63 165.09,192.88 165.70,193.12 
      166.34,193.37 166.95,193.63 167.56,193.88 168.17,194.15 168.80,194.39 169.41,194.63 170.02,194.90 170.64,195.15 171.27,195.42 171.88,195.68 
      172.49,195.93 173.10,196.20 173.74,196.47 174.35,196.71 174.96,196.98 175.57,197.25 176.20,197.52 176.81,197.78 177.42,198.03 178.03,198.30 
      178.67,198.57 179.28,198.83 179.89,199.10 180.50,199.37 181.13,199.64 181.74,199.91 182.35,200.18 182.96,200.47 183.60,200.74 184.21,201.01 
      184.82,201.28 185.43,201.54 186.07,201.84 186.68,202.11 187.29,202.37 187.92,202.67 188.53,202.94 189.14,203.20 189.75,203.50 190.39,203.77 
      191.00,204.06 191.61,204.33 192.22,204.62 192.85,204.89 193.46,205.18 194.07,205.45 194.68,205.74 195.32,206.01 195.93,206.31 196.54,206.60 
      197.15,206.87 197.78,207.16 198.39,207.45 199.01,207.75 199.62,208.01 200.25,208.31 200.86,208.60 201.47,208.89 202.08,209.16 202.72,209.45 
      203.33,209.75 203.94,210.04 204.55,210.33 205.18,210.63 205.79,210.92 206.40,211.21 207.01,211.51 207.65,211.80 208.26,212.09 208.87,212.38 
      209.48,212.68 210.11,212.97 210.72,213.26 211.33,213.56 211.94,213.85 212.58,214.14 213.19,214.44 213.80,214.73 214.41,215.02 215.05,215.34 
      215.66,215.63 216.27,215.92 216.88,216.22 217.51,216.51 218.12,216.80 218.73,217.12 219.37,217.41 219.98,217.71 220.59,218.00 221.20,218.29 
      221.83,218.61 222.44,218.90 223.05,219.20 223.66,219.51 224.30,219.81 224.91,220.10 225.52,220.39 226.13,220.71 226.76,221.00 227.38,221.30 
      227.99,221.61 228.60,221.91 229.23,222.20 229.84,222.52 230.45,222.81 231.06,223.10 231.70,223.42 232.31,223.71 232.92,224.01 233.53,224.32 
      234.16,224.62 234.77,224.91 235.38,225.23 235.99,225.52 236.63,225.81 237.24,226.13 "/>
    <polyline
      stroke-width="1"
      stroke="#F03232"
      stroke-opacity="1.000000"
      fill="none"
      points="237.24,226.13 237.85,226.42 238.46,226.74 239.09,227.03 239.70,227.33 240.31,227.64 240.93,227.94 241.56,228.23 242.17,228.55 242.78,228.84 
      243.39,229.13 244.03,229.45 244.64,229.74 245.25,230.06 245.86,230.35 246.49,230.65 247.10,230.96 247.71,231.26 248.32,231.55 248.96,231.84 
      249.57,232.16 250.18,232.45 250.81,232.75 251.42,233.06 252.03,233.36 252.64,233.65 253.28,233.97 253.89,234.26 254.50,234.55 255.11,234.85 
      255.75,235.16 256.36,235.46 256.97,235.75 257.58,236.04 258.21,236.34 258.82,236.65 259.43,236.95 260.04,237.24 260.68,237.53 261.29,237.82 
      261.90,238.12 262.51,238.44 263.14,238.73 263.75,239.02 264.36,239.31 264.97,239.61 265.61,239.90 266.22,240.19 266.83,240.49 267.44,240.78 
      268.07,241.07 268.68,241.36 269.30,241.66 269.91,241.95 270.54,242.24 271.15,242.54 271.76,242.83 272.37,243.12 273.01,243.42 273.62,243.71 
      274.23,243.98 274.84,244.27 275.47,244.56 276.08,244.86 276.69,245.15 277.30,245.42 277.94,245.71 278.55,246.00 279.16,246.30 279.77,246.57 
      280.40,246.86 281.01,247.15 281.62,247.42 282.24,247.71 282.87,247.98 283.48,248.27 284.09,248.54 284.73,248.84 285.34,249.10 285.95,249.40 
      286.56,249.67 287.19,249.96 287.80,250.23 288.41,250.52 289.02,250.79 289.66,251.06 290.27,251.33 290.88,251.62 291.49,251.89 292.12,252.16 
      292.73,252.42 293.34,252.72 293.95,252.99 294.59,253.25 295.20,253.52 295.81,253.79 296.42,254.06 297.05,254.33 297.67,254.60 298.28,254.87 
      298.89,255.13 299.52,255.40 300.13,255.67 300.74,255.92 301.35,256.18 301.99,256.45 302.60,256.72 303.21,256.97 303.82,257.23 304.45,257.50 
      305.06,257.75 305.67,258.02 306.28,258.26 306.92,258.53 307.53,258.77 308.14,259.04 308.75,259.29 309.38,259.55 309.99,259.80 310.61,260.04 
      311.22,260.31 311.85,260.55 312.46,260.80 313.07,261.04 313.68,261.29 314.32,261.53 314.93,261.78 315.54,262.04 316.17,262.29 316.78,262.51 
      317.39,262.75 318.00,263.00 318.64,263.24 319.25,263.48 319.86,263.73 320.47,263.95 321.10,264.19 321.71,264.44 322.32,264.66 322.93,264.90 
      323.57,265.14 324.18,265.36 324.79,265.58 325.40,265.83 326.04,266.05 326.65,266.29 327.26,266.51 327.87,266.73 328.50,266.95 329.11,267.20 
      329.72,267.42 330.33,267.64 330.97,267.85 331.58,268.07 332.19,268.29 332.80,268.51 333.43,268.73 334.04,268.93 334.65,269.15 335.26,269.37 
      335.90,269.59 336.51,269.78 337.12,270.00 337.73,270.22 338.36,270.42 338.98,270.64 339.59,270.83 340.20,271.03 340.83,271.25 341.44,271.44 
      342.05,271.64 342.66,271.86 343.30,272.05 343.91,272.25 344.52,272.44 345.13,272.64 345.76,272.84 346.37,273.03 346.98,273.23 347.59,273.42 
      348.23,273.59 348.84,273.79 349.45,273.98 350.08,274.15 350.69,274.35 351.30,274.54 351.92,274.72 352.55,274.91 353.16,275.08 353.77,275.25 
      354.38,275.45 355.02,275.62 355.63,275.79 356.24,275.96 356.85,276.13 357.48,276.30 358.09,276.47 358.70,276.64 359.31,276.82 359.95,276.99 
      360.56,277.16 361.17,277.33 361.78,277.47 362.41,277.65 363.02,277.79 363.63,277.96 364.24,278.11 364.88,278.28 365.49,278.43 366.10,278.60 
      366.71,278.74 367.35,278.89 367.96,279.04 368.57,279.18 369.18,279.33 369.81,279.48 370.42,279.62 371.03,279.77 371.64,279.92 372.28,280.06 
      372.89,280.21 373.50,280.33 374.11,280.48 374.74,280.60 375.35,280.75 375.96,280.87 376.57,281.01 377.21,281.14 377.82,281.26 378.43,281.41 
      379.04,281.53 379.67,281.65 380.29,281.77 380.90,281.89 381.53,282.02 382.14,282.14 382.75,282.26 383.36,282.36 384.00,282.48 384.61,282.60 
      385.22,282.70 385.83,282.82 386.46,282.92 387.07,283.04 387.68,283.14 388.29,283.26 388.93,283.36 389.54,283.46 390.15,283.55 390.76,283.65 
      391.39,283.75 392.00,283.85 392.61,283.94 393.22,284.04 393.86,284.14 394.47,284.21 "/>
    <polyline
      stroke-width="1"
      stroke="#F03232"
      stroke-opacity="1.000000"
      fill="none"
      points="394.47,284.21 395.08,284.31 395.69,284.41 396.33,284.48 396.94,284.58 397.55,284.65 398.16,284.75 398.79,284.82 399.40,284.90 400.01,287.00 
      400.62,287.00 401.26,287.00 401.87,287.00 402.48,287.00 403.09,287.00 403.72,287.00 404.33,287.00 404.94,287.00 405.55,287.00 406.19,287.00 
      406.80,287.00 407.41,287.00 408.02,287.00 408.66,287.00 409.27,287.00 409.88,287.00 410.49,287.00 411.12,287.00 411.73,287.00 412.34,287.00 
      412.95,287.00 413.59,287.00 414.20,287.00 414.81,287.00 415.44,287.00 416.05,287.00 416.66,287.00 417.27,287.00 417.91,287.00 418.52,287.00 
      419.13,287.00 419.74,287.00 420.37,287.00 420.98,287.00 421.59,287.00 422.21,287.00 422.84,287.00 423.45,287.00 424.06,287.00 424.67,287.00 
      425.31,287.00 425.92,287.00 426.53,287.00 427.14,287.00 427.77,287.00 428.38,287.00 428.99,287.00 429.60,287.00 430.24,287.00 430.85,287.00 
      431.46,287.00 432.07,287.00 432.70,287.00 433.31,287.00 433.92,287.00 434.53,287.00 435.17,287.00 435.78,287.00 436.39,287.00 437.00,287.00 
      437.64,287.00 438.25,287.00 438.86,287.00 439.47,287.00 440.10,287.00 440.71,287.00 441.32,287.00 441.93,287.00 442.57,287.00 443.18,287.00 
      443.79,287.00 444.40,287.00 445.03,287.00 445.64,287.00 446.25,287.00 446.89,287.00 447.50,287.00 448.11,287.00 448.72,287.00 449.35,287.00 
      449.96,287.00 450.58,287.00 451.19,287.00 451.82,287.00 452.43,287.00 453.04,287.00 453.65,287.00 454.29,287.00 454.90,287.00 455.51,287.00 
      456.12,287.00 456.75,287.00 457.36,287.00 457.97,287.00 458.58,287.00 459.22,287.00 459.83,287.00 460.44,287.00 461.05,287.00 461.68,287.00 
      462.29,287.00 462.90,287.00 463.52,287.00 464.15,287.00 464.76,287.00 465.37,287.00 465.98,287.00 466.62,287.00 467.23,287.00 467.84,287.00 
      468.45,287.00 469.08,287.00 469.69,287.00 470.30,287.00 470.91,287.00 471.55,287.00 472.16,287.00 472.77,287.00 473.38,287.00 474.01,287.00 
      474.62,287.00 475.23,287.00 475.84,287.00 476.48,287.00 477.09,287.00 477.70,287.00 478.33,287.00 478.95,287.00 479.56,287.00 480.17,287.00 
      480.80,287.00 481.41,287.00 482.02,287.00 482.63,287.00 483.27,287.00 483.88,287.00 484.49,287.00 485.10,287.00 485.73,287.00 486.34,287.00 
      486.95,287.00 487.56,287.00 488.20,287.00 488.81,287.00 489.42,287.00 490.03,287.00 490.66,287.00 491.27,287.00 491.89,287.00 492.50,287.00 
      493.13,287.00 493.74,287.00 494.35,287.00 494.96,287.00 495.60,287.00 496.21,287.00 496.82,287.00 497.43,287.00 498.06,287.00 498.67,287.00 
      499.28,287.00 499.89,287.00 500.53,287.00 501.14,287.00 501.75,287.00 502.36,287.00 502.99,287.00 503.60,287.00 504.21,287.00 504.82,287.00 
      505.46,287.00 506.07,287.00 506.68,287.00 507.29,287.00 507.93,287.00 508.54,287.00 509.15,287.00 509.76,287.00 510.39,287.00 511.00,287.00 
      511.61,287.00 512.25,287.00 512.86,287.00 513.47,287.00 514.08,287.00 514.71,287.00 515.32,287.00 515.93,287.00 516.54,287.00 517.18,287.00 
      517.79,287.00 518.40,287.00 519.01,287.00 519.64,287.00 520.26,287.00 520.87,287.00 521.48,287.00 522.11,287.00 522.72,287.00 523.33,287.00 
      523.94,287.00 524.58,287.00 525.19,287.00 525.80,287.00 526.41,287.00 527.04,287.00 527.65,287.00 528.26,287.00 528.87,287.00 529.51,287.00 
      530.12,287.00 530.73,287.00 531.34,287.00 531.97,287.00 532.58,287.00 533.19,287.00 533.81,287.00 534.44,287.00 535.05,287.00 535.66,287.00 
      536.27,287.00 536.91,287.00 537.52,287.00 538.13,287.00 538.74,287.00 539.37,287.00 539.98,287.00 540.59,287.00 541.20,287.00 541.84,287.00 
      542.45,287.00 543.06,287.00 543.69,287.00 544.30,287.00 544.91,287.00 545.52,287.00 546.16,287.00 546.77,287.00 547.38,287.00 547.99,287.00 
      548.63,287.00 549.24,287.00 549.85,287.00 550.46,287.00 551.09,287.00 551.70,287.00 "/>
    <polyline
      stroke-width="1"
      stroke="#F03232"
      stroke-opacity="1.000000"
      fill="none"
      points="551.70,287.00 552.31,287.00 552.92,287.00 553.56,287.00 554.17,287.00 554.78,287.00 555.39,287.00 556.02,287.00 556.63,287.00 557.24,287.00 
      557.85,287.00 558.49,287.00 559.10,287.00 559.71,287.00 560.32,287.00 560.95,287.00 561.56,287.00 562.18,287.00 562.79,287.00 563.42,287.00 
      564.03,287.00 564.64,287.00 565.25,287.00 565.89,287.00 566.50,287.00 567.11,287.00 567.72,287.00 568.35,287.00 568.96,287.00 569.57,287.00 
      570.18,287.00 570.82,287.00 571.43,287.00 572.04,287.00 572.65,287.00 573.28,287.00 573.89,287.00 574.50,287.00 575.12,287.00 575.75,287.00 
      576.36,287.00 576.97,287.00 577.61,287.00 578.22,287.00 578.83,287.00 579.44,287.00 580.07,287.00 580.68,287.00 581.29,287.00 581.90,287.00 
      582.54,287.00 583.15,287.00 583.76,287.00 584.37,287.00 585.00,287.00 585.61,287.00 586.22,287.00 586.83,287.00 587.47,287.00 588.08,287.00 
      588.69,287.00 589.30,287.00 589.93,287.00 590.55,287.00 591.16,287.00 591.77,287.00 592.40,287.00 593.01,287.00 593.62,287.00 594.23,287.00 
      594.87,287.00 595.48,287.00 596.09,287.00 596.70,287.00 597.33,287.00 597.94,287.00 598.55,287.00 599.16,287.00 599.80,287.00 600.41,287.00 
      601.02,287.00 601.63,287.00 602.26,287.00 602.87,287.00 603.49,287.00 604.10,287.00 604.73,287.00 605.34,287.00 605.95,287.00 606.56,287.00 
      607.20,287.00 607.81,287.00 608.42,287.00 609.05,287.00 609.66,287.00 610.27,287.00 610.88,287.00 611.52,287.00 612.13,287.00 612.74,287.00 
      613.35,287.00 613.98,287.00 614.59,287.00 615.20,287.00 615.81,287.00 616.45,287.00 617.06,287.00 617.67,287.00 618.28,287.00 618.92,287.00 
      619.53,287.00 620.14,287.00 620.75,287.00 621.38,287.00 621.99,287.00 622.60,287.00 623.21,287.00 623.85,287.00 624.46,287.00 625.07,287.00 
      625.68,287.00 626.31,287.00 626.92,287.00 627.53,287.00 628.14,287.00 628.78,287.00 629.39,287.00 630.00,287.00 630.61,287.00 631.24,287.00 
      631.86,287.00 632.47,287.00 633.08,287.00 633.71,287.00 634.32,287.00 634.93,287.00 635.54,287.00 636.18,287.00 636.79,287.00 637.40,287.00 
      638.01,287.00 638.64,287.00 639.25,287.00 639.86,287.00 640.50,287.00 641.11,287.00 641.72,287.00 642.33,287.00 642.96,287.00 643.57,287.00 
      644.18,287.00 644.80,287.00 645.43,287.00 646.04,287.00 646.65,287.00 647.26,287.00 647.90,287.00 648.51,287.00 649.12,287.00 649.73,287.00 
      650.36,287.00 650.97,287.00 651.58,287.00 652.19,287.00 652.83,287.00 653.44,287.00 654.05,287.00 654.66,287.00 655.29,287.00 655.90,287.00 
      656.51,287.00 657.12,287.00 657.76,287.00 658.37,287.00 658.98,287.00 659.59,287.00 660.23,287.00 660.84,287.00 661.45,287.00 662.06,287.00 
      662.69,287.00 663.30,287.00 663.91,287.00 664.52,287.00 665.16,287.00 665.77,287.00 666.38,287.00 666.99,287.00 667.62,287.00 668.23,287.00 
      668.84,287.00 669.45,287.00 670.09,287.00 670.70,287.00 671.31,287.00 671.92,287.00 672.55,287.00 673.17,287.00 673.78,287.00 674.41,287.00 
      675.02,287.00 675.63,287.00 676.24,287.00 676.88,287.00 677.49,287.00 678.10,287.00 678.71,287.00 679.34,287.00 679.95,287.00 680.56,287.00 
      681.17,287.00 681.81,287.00 682.42,287.00 683.03,287.00 683.64,287.00 684.27,287.00 684.88,287.00 685.49,287.00 686.10,287.00 686.74,287.00 
      687.35,287.00 687.96,287.00 688.57,287.00 689.21,287.00 689.82,287.00 690.43,287.00 691.04,287.00 691.67,287.00 692.28,287.00 692.89,287.00 
      693.50,287.00 694.14,287.00 694.75,287.00 695.36,287.00 695.97,287.00 "/>
  </g>
</svg>
