<?xml version="1.0" encoding="UTF-8"?>
<!DOCTYPE svg PUBLIC "-//W3C//DTD SVG 1.1//EN"
        "http://www.w3.org/Graphics/SVG/1.1/DTD/svg11.dtd">
<svg
  xmlns="http://www.w3.org/2000/svg"
  xmlns:xlink="http://www.w3.org/1999/xlink"
  version="1.1"
  width="800pt"
  height="350pt"
  viewBox="0 0 800 350"
  >
  <rect
    x="0"
    y="0"
    width="800"
    height="350"
    stroke="none"
    fill="#FFFFFF"
    fill-opacity="1.000000"
    />
  <g
    transform="matrix(1 0 0 -1 0 350)"
    >
    <polyline
      stroke-width="1"
      stroke="#000000"
      stroke-opacity="1.000000"
      fill="none"
      points="80.01,45.51 695.99,45.51"
      />
    <polyline
      stroke-width="1"
      stroke="#000000"
      stroke-opacity="1.000000"
      fill="none"
      points="80.01,45.51 80.01,54.13"
      />
    <polyline
      stroke-width="1"
      stroke="#000000"
      stroke-opacity="1.000000"
      fill="none"
      points="110.84,45.51 110.84,49.83"
      />
    <polyline
      stroke-width="1"
      stroke="#000000"
      stroke-opacity="1.000000"
      fill="none"
      points="141.65,45.51 141.65,49.83"
      />
    <polyline
      stroke-width="1"
      stroke="#000000"
      stroke-opacity="1.000000"
      fill="none"
      points="172.49,45.51 172.49,49.83"
      />
    <polyline
      stroke-width="1"
      stroke="#000000"
      stroke-opacity="1.000000"
      fill="none"
      points="203.33,45.51 203.33,54.13"
      />
    <polyline
      stroke-width="1"
      stroke="#000000"
      stroke-opacity="1.000000"
      fill="none"
      points="234.16,45.51 234.16,49.83"
      />
    <polyline
      stroke-width="1"
      stroke="#000000"
      stroke-opacity="1.000000"
      fill="none"
      points="264.97,45.51 264.97,49.83"
      />
    <polyline
      stroke-width="1"
      stroke="#000000"
      stroke-opacity="1.000000"
      fill="none"
      points="295.81,45.51 295.81,49.83"
      />
    <polyline
      stroke-width="1"
      stroke="#000000"
      stroke-opacity="1.000000"
      fill="none"
      points="326.65,45.51 326.65,54.13"
      />
    <polyline
      stroke-width="1"
      stroke="#000000"
      stroke-opacity="1.000000"
      fill="none"
      points="357.48,45.51 357.48,49.83"
      />
    <polyline
      stroke-width="1"
      stroke="#000000"
      stroke-opacity="1.000000"
      fill="none"
      points="388.29,45.51 388.29,49.83"
      />
    <polyline
      stroke-width="1"
      stroke="#000000"
      stroke-opacity="1.000000"
      fill="none"
      points="419.13,45.51 419.13,49.83"
      />
    <polyline
      stroke-width="1"
      stroke="#000000"
      stroke-opacity="1.000000"
      fill="none"
      points="449.96,45.51 449.96,54.13"
      />
    <polyline
      stroke-width="1"
      stroke="#000000"
      stroke-opacity="1.000000"
      fill="none"
      points="480.80,45.51 480.80,49.83"
      />
    <polyline
      stroke-width="1"
      stroke="#000000"
      stroke-opacity="1.000000"
      fill="none"
      points="511.61,45.51 511.61,49.83"
      />
    <polyline
      stroke-width="1"
      stroke="#000000"
      stroke-opacity="1.000000"
      fill="none"
      points="542.45,45.51 542.45,49.83"
      />
    <polyline
      stroke-width="1"
      stroke="#000000"
      stroke-opacity="1.000000"
      fill="none"
      points="573.28,45.51 573.28,54.13"
      />
    <polyline
      stroke-width="1"
      stroke="#000000"
      stroke-opacity="1.000000"
      fill="none"
      points="604.10,45.51 604.10,49.83"
      />
    <polyline
      stroke-width="1"
      stroke="#000000"
      stroke-opacity="1.000000"
      fill="none"
      points="634.93,45.51 634.93,49.83"
      />
    <polyline
      stroke-width="1"
      stroke="#000000"
      stroke-opacity="1.000000"
      fill="none"
      points="665.77,45.51 665.77,49.83"
      />
    <polyline
      stroke-width="1"
      stroke="#000000"
      stroke-opacity="1.000000"
      fill="none"
      points="695.99,45.51 695.99,287.00"
      />
    <polyline
      stroke-width="1"
      stroke="#000000"
      stroke-opacity="1.000000"
      fill="none"
      points="687.37,45.51 695.99,45.51"
      />
    <polyline
      stroke-width="1"
      stroke="#000000"
      stroke-opacity="1.000000"
      fill="none"
      points="691.67,57.57 695.99,57.57"
      />
    <polyline
      stroke-width="1"
      stroke="#000000"
      stroke-opacity="1.000000"
      fill="none"
      points="691.67,69.66 695.99,69.66"
      />
    <polyline
      stroke-width="1"
      stroke="#000000"
      stroke-opacity="1.000000"
      fill="none"
      points="691.67,81.74 695.99,81.74"
      />
    <polyline
      stroke-width="1"
      stroke="#000000"
      stroke-opacity="1.000000"
      fill="none"
      points="691.67,93.80 695.99,93.80"
      />
    <polyline
      stroke-width="1"
      stroke="#000000"
      stroke-opacity="1.000000"
      fill="none"
      points="687.37,105.89 695.99,105.89"
      />
    <polyline
      stroke-width="1"
      stroke="#000000"
      stroke-opacity="1.000000"
      fill="none"
      points="691.67,117.95 695.99,117.95"
      />
    <polyline
      stroke-width="1"
      stroke="#000000"
      stroke-opacity="1.000000"
      fill="none"
      points="691.67,130.03 695.99,130.03"
      />
    <polyline
      stroke-width="1"
      stroke="#000000"
      stroke-opacity="1.000000"
      fill="none"
      points="691.67,142.09 695.99,142.09"
      />
    <polyline
      stroke-width="1"
      stroke="#000000"
      stroke-opacity="1.000000"
      fill="none"
      points="691.67,154.18 695.99,154.18"
      />
    <polyline
      stroke-width="1"
      stroke="#000000"
      stroke-opacity="1.000000"
      fill="none"
      points="687.37,166.24 695.99,166.24"
      />
    <polyline
      stroke-width="1"
      stroke="#000000"
      stroke-opacity="1.000000"
      fill="none"
      points="691.67,178.33 695.99,178.33"
      />
    <polyline
      stroke-width="1"
      stroke="#000000"
      stroke-opacity="1.000000"
      fill="none"
      points="691.67,190.39 695.99,190.39"
      />
    <polyline
      stroke-width="1"
      stroke="#000000"
      stroke-opacity="1.000000"
      fill="none"
      points="691.67,202.47 695.99,202.47"
      />
    <polyline
      stroke-width="1"
      stroke="#000000"
      stroke-opacity="1.000000"
      fill="none"
      points="691.67,214.56 695.99,214.56"
      />
    <polyline
      stroke-width="1"
      stroke="#000000"
      stroke-opacity="1.000000"
      fill="none"
      points="687.37,226.62 695.99,226.62"
      />
    <polyline
      stroke-width="1"
      stroke="#000000"
      stroke-opacity="1.000000"
      fill="none"
      points="691.67,238.70 695.99,238.70"
      />
    <polyline
      stroke-width="1"
      stroke="#000000"
      stroke-opacity="1.000000"
      fill="none"
      points="691.67,250.76 695.99,250.76"
      />
    <polyline
      stroke-width="1"
      stroke="#000000"
      stroke-opacity="1.000000"
      fill="none"
      points="691.67,262.85 695.99,262.85"
      />
    <polyline
      stroke-width="1"
      stroke="#000000"
      stroke-opacity="1.000000"
      fill="none"
      points="691.67,274.91 695.99,274.91"
      />
    <polyline
      stroke-width="1"
      stroke="#000000"
      stroke-opacity="1.000000"
      fill="none"
      points="687.37,287.00 695.99,287.00"
      />
    <polyline
      stroke-width="1"
      stroke="#000000"
      stroke-opacity="1.000000"
      fill="none"
      points="695.99,287.00 80.01,287.00"
      />
    <polyline
      stroke-width="1"
      stroke="#000000"
      stroke-opacity="1.000000"
      fill="none"
      points="665.77,282.67 665.77,287.00"
      />
    <polyline
      stroke-width="1"
      stroke="#000000"
      stroke-opacity="1.000000"
      fill="none"
      points="634.93,282.67 634.93,287.00"
      />
    <polyline
      stroke-width="1"
      stroke="#000000"
      stroke-opacity="1.000000"
      fill="none"
      points="604.10,282.67 604.10,287.00"
      />
    <polyline
      stroke-width="1"
      stroke="#000000"
      stroke-opacity="1.000000"
      fill="none"
      points="573.28,278.38 573.28,287.00"
      />
    <polyline
      stroke-width="1"
      stroke="#000000"
      stroke-opacity="1.000000"
      fill="none"
      points="542.45,282.67 542.45,287.00"
      />
    <polyline
      stroke-width="1"
      stroke="#000000"
      stroke-opacity="1.000000"
      fill="none"
      points="511.61,282.67 511.61,287.00"
      />
    <polyline
      stroke-width="1"
      stroke="#000000"
      stroke-opacity="1.000000"
      fill="none"
      points="480.80,282.67 480.80,287.00"
      />
    <polyline
      stroke-width="1"
      stroke="#000000"
      stroke-opacity="1.000000"
      fill="none"
      points="449.96,278.38 449.96,287.00"
      />
    <polyline
      stroke-width="1"
      stroke="#000000"
      stroke-opacity="1.000000"
      fill="none"
      points="419.13,282.67 419.13,287.00"
      />
    <polyline
      stroke-width="1"
      stroke="#000000"
      stroke-opacity="1.000000"
      fill="none"
      points="388.29,282.67 388.29,287.00"
      />
    <polyline
      stroke-width="1"
      stroke="#000000"
      stroke-opacity="1.000000"
      fill="none"
      points="357.48,282.67 357.48,287.00"
      />
    <polyline
      stroke-width="1"
      stroke="#000000"
      stroke-opacity="1.000000"
      fill="none"
      points="326.65,278.38 326.65,287.00"
      />
    <polyline
      stroke-width="1"
      stroke="#000000"
      stroke-opacity="1.000000"
      fill="none"
      points="295.81,282.67 295.81,287.00"
      />
    <polyline
      stroke-width="1"
      stroke="#000000"
      stroke-opacity="1.000000"
      fill="none"
      points="264.97,282.67 264.97,287.00"
      />
    <polyline
      stroke-width="1"
      stroke="#000000"
      stroke-opacity="1.000000"
      fill="none"
      points="234.16,282.67 234.16,287.00"
      />
    <polyline
      stroke-width="1"
      stroke="#000000"
      stroke-opacity="1.000000"
      fill="none"
      points="203.33,278.38 203.33,287.00"
      />
    <polyline
      stroke-width="1"
      stroke="#000000"
      stroke-opacity="1.000000"
      fill="none"
      points="172.49,282.67 172.49,287.00"
      />
    <polyline
      stroke-width="1"
      stroke="#000000"
      stroke-opacity="1.000000"
      fill="none"
      points="141.65,282.67 141.65,287.00"
      />
    <polyline
      stroke-width="1"
      stroke="#000000"
      stroke-opacity="1.000000"
      fill="none"
      points="110.84,282.67 110.84,287.00"
      />
    <polyline
      stroke-width="1"
      stroke="#000000"
      stroke-opacity="1.000000"
      fill="none"
      points="80.01,278.38 80.01,287.00"
      />
    <polyline
      stroke-width="1"
      stroke="#000000"
      stroke-opacity="1.000000"
      fill="none"
      points="80.01,287.00 80.01,45.51"
      />
    <polyline
      stroke-width="1"
      stroke="#000000"
      stroke-opacity="1.000000"
      fill="none"
      points="80.01,287.00 88.63,287.00"
      />
    <polyline
      stroke-width="1"
      stroke="#000000"
      stroke-opacity="1.000000"
      fill="none"
      points="80.01,274.91 84.33,274.91"
      />
    <polyline
      stroke-width="1"
      stroke="#000000"
      stroke-opacity="1.000000"
      fill="none"
      points="80.01,262.85 84.33,262.85"
      />
    <polyline
      stroke-width="1"
      stroke="#000000"
      stroke-opacity="1.000000"
      fill="none"
      points="80.01,250.76 84.33,250.76"
      />
    <polyline
      stroke-width="1"
      stroke="#000000"
      stroke-opacity="1.000000"
      fill="none"
      points="80.01,238.70 84.33,238.70"
      />
    <polyline
      stroke-width="1"
      stroke="#000000"
      stroke-opacity="1.000000"
      fill="none"
      points="80.01,226.62 88.63,226.62"
      />
    <polyline
      stroke-width="1"
      stroke="#000000"
      stroke-opacity="1.000000"
      fill="none"
      points="80.01,214.56 84.33,214.56"
      />
    <polyline
      stroke-width="1"
      stroke="#000000"
      stroke-opacity="1.000000"
      fill="none"
      points="80.01,202.47 84.33,202.47"
      />
    <polyline
      stroke-width="1"
      stroke="#000000"
      stroke-opacity="1.000000"
      fill="none"
      points="80.01,190.39 84.33,190.39"
      />
    <polyline
      stroke-width="1"
      stroke="#000000"
      stroke-opacity="1.000000"
      fill="none"
      points="80.01,178.33 84.33,178.33"
      />
    <polyline
      stroke-width="1"
      stroke="#000000"
      stroke-opacity="1.000000"
      fill="none"
      points="80.01,166.24 88.63,166.24"
      />
    <polyline
      stroke-width="1"
      stroke="#000000"
      stroke-opacity="1.000000"
      fill="none"
      points="80.01,154.18 84.33,154.18"
      />
    <polyline
      stroke-width="1"
      stroke="#000000"
      stroke-opacity="1.000000"
      fill="none"
      points="80.01,142.09 84.33,142.09"
      />
    <polyline
      stroke-width="1"
      stroke="#000000"
      stroke-opacity="1.000000"
      fill="none"
      points="80.01,130.03 84.33,130.03"
      />
    <polyline
      stroke-width="1"
      stroke="#000000"
      stroke-opacity="1.000000"
      fill="none"
      points="80.01,117.95 84.33,117.95"
      />
    <polyline
      stroke-width="1"
      stroke="#000000"
      stroke-opacity="1.000000"
      fill="none"
      points="80.01,105.89 88.63,105.89"
      />
    <polyline
      stroke-width="1"
      stroke="#000000"
      stroke-opacity="1.000000"
      fill="none"
      points="80.01,93.80 84.33,93.80"
      />
    <polyline
      stroke-width="1"
      stroke="#000000"
      stroke-opacity="1.000000"
      fill="none"
      points="80.01,81.74 84.33,81.74"
      />
    <polyline
      stroke-width="1"
      stroke="#000000"
      stroke-opacity="1.000000"
      fill="none"
      points="80.01,69.66 84.33,69.66"
      />
    <polyline
      stroke-width="1"
      stroke="#000000"
      stroke-opacity="1.000000"
      fill="none"
      points="80.01,57.57 84.33,57.57"
      />
    <polyline
      stroke-width="1"
      stroke="#000000"
      stroke-opacity="1.000000"
      fill="none"
      points="80.01,45.51 88.63,45.51"
      />
    <clipPath
      id="text-clipping133"
      >
      <polygon
        points="0.000000,0.000000 0.000000,349.986267 800.000000,349.986267 800.000000,0.000000"
        />
    </clipPath>
    <g
      clip-path="url(#text-clipping133)"
      >
      <g
        transform="matrix(1.000000 0.000000 0.000000 -1.000000 80.007324 28.247932)"
        >
        <g
          transform="matrix(1.0 0.0 0.0 1.0 0.0 5.931960)"
          >
          <text
            dominant-baseline="no-change"
            fill="#000000"
            fill-opacity="1.000000"
            xml:space="preserve"
            font-size="15"
            text-anchor="middle"
            x="0.000000"
            y="0"
><tspan font-family="sans-serif" font-style="normal" font-weight="normal">&#x30;</tspan></text>
        </g>
      </g>
    </g>
    <clipPath
      id="text-clipping134"
      >
      <polygon
        points="0.000000,0.000000 0.000000,349.986267 800.000000,349.986267 800.000000,0.000000"
        />
    </clipPath>
    <g
      clip-path="url(#text-clipping134)"
      >
      <g
        transform="matrix(1.000000 0.000000 0.000000 -1.000000 203.326518 28.247932)"
        >
        <g
          transform="matrix(1.0 0.0 0.0 1.0 0.0 5.931960)"
          >
          <text
            dominant-baseline="no-change"
            fill="#000000"
            fill-opacity="1.000000"
            xml:space="preserve"
            font-size="15"
            text-anchor="middle"
            x="0.000000"
            y="0"
><tspan font-family="sans-serif" font-style="normal" font-weight="normal">&#x32;</tspan></text>
        </g>
      </g>
    </g>
    <clipPath
      id="text-clipping135"
      >
      <polygon
        points="0.000000,0.000000 0.000000,349.986267 800.000000,349.986267 800.000000,0.000000"
        />
    </clipPath>
    <g
      clip-path="url(#text-clipping135)"
      >
      <g
        transform="matrix(1.000000 0.000000 0.000000 -1.000000 326.645711 28.247932)"
        >
        <g
          transform="matrix(1.0 0.0 0.0 1.0 0.0 5.931960)"
          >
          <text
            dominant-baseline="no-change"
            fill="#000000"
            fill-opacity="1.000000"
            xml:space="preserve"
            font-size="15"
            text-anchor="middle"
            x="0.000000"
            y="0"
><tspan font-family="sans-serif" font-style="normal" font-weight="normal">&#x34;</tspan></text>
        </g>
      </g>
    </g>
    <clipPath
      id="text-clipping136"
      >
      <polygon
        points="0.000000,0.000000 0.000000,349.986267 800.000000,349.986267 800.000000,0.000000"
        />
    </clipPath>
    <g
      clip-path="url(#text-clipping136)"
      >
      <g
        transform="matrix(1.000000 0.000000 0.000000 -1.000000 449.964904 28.247932)"
        >
        <g
          transform="matrix(1.0 0.0 0.0 1.0 0.0 5.931960)"
          >
          <text
            dominant-baseline="no-change"
            fill="#000000"
            fill-opacity="1.000000"
            xml:space="preserve"
            font-size="15"
            text-anchor="middle"
            x="0.000000"
            y="0"
><tspan font-family="sans-serif" font-style="normal" font-weight="normal">&#x36;</tspan></text>
        </g>
      </g>
    </g>
    <clipPath
      id="text-clipping137"
      >
      <polygon
        points="0.000000,0.000000 0.000000,349.986267 800.000000,349.986267 800.000000,0.000000"
        />
    </clipPath>
    <g
      clip-path="url(#text-clipping137)"
      >
      <g
        transform="matrix(1.000000 0.000000 0.000000 -1.000000 573.284097 28.247932)"
        >
        <g
          transform="matrix(1.0 0.0 0.0 1.0 0.0 5.931960)"
          >
          <text
            dominant-baseline="no-change"
            fill="#000000"
            fill-opacity="1.000000"
            xml:space="preserve"
            font-size="15"
            text-anchor="middle"
            x="0.000000"
            y="0"
><tspan font-family="sans-serif" font-style="normal" font-weight="normal">&#x38;</tspan></text>
        </g>
      </g>
    </g>
    <clipPath
      id="text-clipping138"
      >
      <polygon
        points="0.000000,0.000000 0.000000,349.986267 800.000000,349.986267 800.000000,0.000000"
        />
    </clipPath>
    <g
      clip-path="url(#text-clipping138)"
      >
      <g
        transform="matrix(0.000000 1.000000 1.000000 -0.000000 62.746055 45.509201)"
        >
        <g
          transform="matrix(1.0 0.0 0.0 1.0 0.0 5.931960)"
          >
          <text
            dominant-baseline="no-change"
            fill="#000000"
            fill-opacity="1.000000"
            xml:space="preserve"
            font-size="15"
            text-anchor="middle"
            x="0.000000"
            y="0"
><tspan font-family="sans-serif" font-style="normal" font-weight="normal">&#x2d;&#x31;&#x2e;&#x30;</tspan></text>
        </g>
      </g>
    </g>
    <clipPath
      id="text-clipping139"
      >
      <polygon
        points="0.000000,0.000000 0.000000,349.986267 800.000000,349.986267 800.000000,0.000000"
        />
    </clipPath>
    <g
      clip-path="url(#text-clipping139)"
      >
      <g
        transform="matrix(0.000000 1.000000 1.000000 -0.000000 62.746055 105.862606)"
        >
        <g
          transform="matrix(1.0 0.0 0.0 1.0 0.0 5.931960)"
          >
          <text
            dominant-baseline="no-change"
            fill="#000000"
            fill-opacity="1.000000"
            xml:space="preserve"
            font-size="15"
            text-anchor="middle"
            x="0.000000"
            y="0"
><tspan font-family="sans-serif" font-style="normal" font-weight="normal">&#x2d;&#x30;&#x2e;&#x35;</tspan></text>
        </g>
      </g>
    </g>
    <clipPath
      id="text-clipping140"
      >
      <polygon
        points="0.000000,0.000000 0.000000,349.986267 800.000000,349.986267 800.000000,0.000000"
        />
    </clipPath>
    <g
      clip-path="url(#text-clipping140)"
      >
      <g
        transform="matrix(0.000000 1.000000 1.000000 -0.000000 62.746055 166.240425)"
        >
        <g
          transform="matrix(1.0 0.0 0.0 1.0 0.0 5.931960)"
          >
          <text
            dominant-baseline="no-change"
            fill="#000000"
            fill-opacity="1.000000"
            xml:space="preserve"
            font-size="15"
            text-anchor="middle"
            x="0.000000"
            y="0"
><tspan font-family="sans-serif" font-style="normal" font-weight="normal">&#x30;&#x2e;&#x30;</tspan></text>
        </g>
      </g>
    </g>
    <clipPath
      id="text-clipping141"
      >
      <polygon
        points="0.000000,0.000000 0.000000,349.986267 800.000000,349.986267 800.000000,0.000000"
        />
    </clipPath>
    <g
      clip-path="url(#text-clipping141)"
      >
      <g
        transform="matrix(0.000000 1.000000 1.000000 -0.000000 62.746055 226.618244)"
        >
        <g
          transform="matrix(1.0 0.0 0.0 1.0 0.0 5.931960)"
          >
          <text
            dominant-baseline="no-change"
            fill="#000000"
            fill-opacity="1.000000"
            xml:space="preserve"
            font-size="15"
            text-anchor="middle"
            x="0.000000"
            y="0"
><tspan font-family="sans-serif" font-style="normal" font-weight="normal">&#x30;&#x2e;&#x35;</tspan></text>
        </g>
      </g>
    </g>
    <clipPath
      id="text-clipping142"
      >
      <polygon
        points="0.000000,0.000000 0.000000,349.986267 800.000000,349.986267 800.000000,0.000000"
        />
    </clipPath>
    <g
      clip-path="url(#text-clipping142)"
      >
      <g
        transform="matrix(0.000000 1.000000 1.000000 -0.000000 62.746055 286.996063)"
        >
        <g
          transform="matrix(1.0 0.0 0.0 1.0 0.0 5.931960)"
          >
          <text
            dominant-baseline="no-change"
            fill="#000000"
            fill-opacity="1.000000"
            xml:space="preserve"
            font-size="15"
            text-anchor="middle"
            x="0.000000"
            y="0"
><tspan font-family="sans-serif" font-style="normal" font-weight="normal">&#x31;&#x2e;&#x30;</tspan></text>
        </g>
      </g>
    </g>
    <polyline
      stroke-width="1"
      stroke="#000000"
      stroke-opacity="1.000000"
      fill="none"
      points="80.01,166.24 80.62,166.24 81.23,166.24 81.86,166.24 82.47,166.24 83.08,166.24 83.69,166.24 84.33,166.24 84.94,166.24 85.55,166.24 
      86.16,166.24 86.79,166.24 87.41,166.24 88.02,166.24 88.65,166.24 89.26,166.24 89.87,166.24 90.48,166.24 91.12,166.24 91.73,166.24 
      92.34,166.24 92.95,166.24 93.58,166.24 94.19,166.24 94.80,166.24 95.41,166.24 96.05,166.24 96.66,166.24 97.27,166.24 97.88,166.24 
      98.51,166.24 99.12,166.24 99.73,166.24 100.34,166.24 100.98,166.24 101.59,166.24 102.20,166.24 102.81,166.24 103.45,166.24 104.06,166.24 
      104.67,166.24 105.28,166.24 105.91,166.24 106.52,166.24 107.13,166.24 107.74,166.24 108.38,166.24 108.99,166.24 109.60,166.24 110.21,166.24 
      110.84,166.24 111.45,166.24 112.06,166.24 112.67,166.24 113.31,166.24 113.92,166.24 114.53,166.24 115.14,166.24 115.78,166.24 116.39,166.24 
      117.00,166.24 117.61,166.24 118.24,166.24 118.85,166.24 119.46,166.24 120.07,166.24 120.71,166.24 121.32,166.24 121.93,166.24 122.56,166.24 
      123.17,166.24 123.78,166.24 124.39,166.24 125.03,166.24 125.64,166.24 126.25,166.24 126.86,166.24 127.49,166.24 128.10,166.24 128.71,166.24 
      129.33,166.24 129.96,166.24 130.57,166.24 131.18,166.24 131.79,166.24 132.43,166.24 133.04,166.24 133.65,166.24 134.26,166.24 134.89,166.24 
      135.50,166.24 136.11,166.24 136.72,166.24 137.36,166.24 137.97,166.24 138.58,166.24 139.19,166.24 139.82,166.24 140.43,166.24 141.04,166.24 
      141.65,166.24 142.29,166.24 142.90,166.24 143.51,166.24 144.12,166.24 144.76,166.24 145.37,166.24 145.98,166.24 146.59,166.24 147.22,166.24 
      147.83,166.24 148.44,166.24 149.05,166.24 149.69,166.24 150.30,166.24 150.91,166.24 151.52,166.24 152.15,166.24 152.76,166.24 153.37,166.24 
      154.01,166.24 154.62,166.24 155.23,166.24 155.84,166.24 156.47,166.24 157.08,166.24 157.70,166.24 158.31,166.24 158.94,166.24 159.55,166.24 
      160.16,166.24 160.77,166.24 161.41,166.24 162.02,166.24 162.63,166.24 163.24,166.24 163.87,166.24 164.48,166.24 165.09,166.24 165.70,166.24 
      166.34,166.24 166.95,166.24 167.56,166.24 168.17,166.24 168.80,166.24 169.41,166.24 170.02,166.24 170.64,166.24 171.27,166.24 171.88,166.24 
      172.49,166.24 173.10,166.24 173.74,166.24 174.35,166.24 174.96,166.24 175.57,166.24 176.20,166.24 176.81,166.24 177.42,166.24 178.03,166.24 
      178.67,166.24 179.28,166.24 179.89,166.24 180.50,166.24 181.13,166.24 181.74,166.24 182.35,166.24 182.96,166.24 183.60,166.24 184.21,166.24 
      184.82,166.24 185.43,166.24 186.07,166.24 186.68,166.24 187.29,166.24 187.92,166.24 188.53,166.24 189.14,166.24 189.75,166.24 190.39,166.24 
      191.00,166.24 191.61,166.24 192.22,166.24 192.85,166.24 193.46,166.24 194.07,166.24 194.68,166.24 195.32,166.24 195.93,166.24 196.54,166.24 
      197.15,166.24 197.78,166.24 198.39,166.24 199.01,166.24 199.62,166.24 200.25,166.24 200.86,166.24 201.47,166.24 202.08,166.24 202.72,166.24 
      203.33,166.24 203.94,166.24 204.55,166.24 205.18,166.24 205.79,166.24 206.40,166.24 207.01,166.24 207.65,166.24 208.26,166.24 208.87,166.24 
      209.48,166.24 210.11,166.24 210.72,166.24 211.33,166.24 211.94,166.24 212.58,166.24 213.19,166.24 213.80,166.24 214.41,166.24 215.05,166.24 
      215.66,166.24 216.27,166.24 216.88,166.24 217.51,166.24 218.12,166.24 218.73,166.24 219.37,166.24 219.98,166.24 220.59,166.24 221.20,166.24 
      221.83,166.24 222.44,166.24 223.05,166.24 223.66,166.24 224.30,166.24 224.91,166.24 225.52,166.24 226.13,166.24 226.76,166.24 227.38,166.24 
      227.99,166.24 228.60,166.24 229.23,166.24 229.84,166.24 230.45,166.24 231.06,166.24 231.70,166.24 232.31,166.24 232.92,166.24 233.53,166.24 
      234.16,166.24 234.77,166.24 235.38,166.24 235.99,166.24 236.63,166.24 237.24,166.24 "/>
    <polyline
      stroke-width="1"
      stroke="#000000"
      stroke-opacity="1.000000"
      fill="none"
      points="237.24,166.24 237.85,166.24 238.46,166.24 239.09,166.24 239.70,166.24 240.31,166.24 240.93,166.24 241.56,166.24 242.17,166.24 242.78,166.24 
      243.39,166.24 244.03,166.24 244.64,166.24 245.25,166.24 245.86,166.24 246.49,166.24 247.10,166.24 247.71,166.24 248.32,166.24 248.96,166.24 
      249.57,166.24 250.18,166.24 250.81,166.24 251.42,166.24 252.03,166.24 252.64,166.24 253.28,166.24 253.89,166.24 254.50,166.24 255.11,166.24 
      255.75,166.24 256.36,166.24 256.97,166.24 257.58,166.24 258.21,166.24 258.82,166.24 259.43,166.24 260.04,166.24 260.68,166.24 261.29,166.24 
      261.90,166.24 262.51,166.24 263.14,166.24 263.75,166.24 264.36,166.24 264.97,166.24 265.61,166.24 266.22,166.24 266.83,166.24 267.44,166.24 
      268.07,166.24 268.68,166.24 269.30,166.24 269.91,166.24 270.54,166.24 271.15,166.24 271.76,166.24 272.37,166.24 273.01,166.24 273.62,166.24 
      274.23,166.24 274.84,166.24 275.47,166.24 276.08,166.24 276.69,166.24 277.30,166.24 277.94,166.24 278.55,166.24 279.16,166.24 279.77,166.24 
      280.40,166.24 281.01,166.24 281.62,166.24 282.24,166.24 282.87,166.24 283.48,166.24 284.09,166.24 284.73,166.24 285.34,166.24 285.95,166.24 
      286.56,166.24 287.19,166.24 287.80,166.24 288.41,166.24 289.02,166.24 289.66,166.24 290.27,166.24 290.88,166.24 291.49,166.24 292.12,166.24 
      292.73,166.24 293.34,166.24 293.95,166.24 294.59,166.24 295.20,166.24 295.81,166.24 296.42,166.24 297.05,166.24 297.67,166.24 298.28,166.24 
      298.89,166.24 299.52,166.24 300.13,166.24 300.74,166.24 301.35,166.24 301.99,166.24 302.60,166.24 303.21,166.24 303.82,166.24 304.45,166.24 
      305.06,166.24 305.67,166.24 306.28,166.24 306.92,166.24 307.53,166.24 308.14,166.24 308.75,166.24 309.38,166.24 309.99,166.24 310.61,166.24 
      311.22,166.24 311.85,166.24 312.46,166.24 313.07,166.24 313.68,166.24 314.32,166.24 314.93,166.24 315.54,166.24 316.17,166.24 316.78,166.24 
      317.39,166.24 318.00,166.24 318.64,166.24 319.25,166.24 319.86,166.24 320.47,166.24 321.10,166.24 321.71,166.24 322.32,166.24 322.93,166.24 
      323.57,166.24 324.18,166.24 324.79,166.24 325.40,166.24 326.04,166.24 326.65,166.24 327.26,166.24 327.87,166.24 328.50,166.24 329.11,166.24 
      329.72,166.24 330.33,166.24 330.97,166.24 331.58,166.24 332.19,166.24 332.80,166.24 333.43,166.24 334.04,166.24 334.65,166.24 335.26,166.24 
      335.90,166.24 336.51,166.24 337.12,166.24 337.73,166.24 338.36,166.24 338.98,166.24 339.59,166.24 340.20,166.24 340.83,166.24 341.44,166.24 
      342.05,166.24 342.66,166.24 343.30,166.24 343.91,166.24 344.52,166.24 345.13,166.24 345.76,166.24 346.37,166.24 346.98,166.24 347.59,166.24 
      348.23,166.24 348.84,166.24 349.45,166.24 350.08,166.24 350.69,166.24 351.30,166.29 351.92,166.44 352.55,166.41 353.16,166.34 353.77,166.26 
      354.38,166.24 355.02,166.24 355.63,166.22 356.24,166.12 356.85,165.97 357.48,165.83 358.09,165.83 358.70,166.07 359.31,166.61 359.95,167.31 
      360.56,168.02 361.17,168.41 361.78,168.22 362.41,167.27 363.02,165.65 363.63,163.70 364.24,161.94 364.88,160.99 365.49,161.33 366.10,163.21 
      366.71,166.41 367.35,170.24 367.96,173.76 368.57,175.84 369.18,175.64 369.81,172.81 370.42,167.71 371.03,161.38 371.64,155.40 372.28,151.47 
      372.89,150.96 373.50,154.45 374.11,161.55 374.74,170.81 375.35,179.96 375.96,186.60 376.57,188.60 377.21,184.99 377.82,176.08 378.43,163.70 
      379.04,150.74 379.67,140.56 380.29,136.11 380.90,139.04 381.53,149.27 382.14,164.75 382.75,181.89 383.36,196.39 384.00,204.30 384.61,203.06 
      385.22,192.32 385.83,174.13 386.46,152.64 387.07,133.18 387.68,120.83 388.29,119.24 388.93,129.50 389.54,149.71 390.15,175.32 390.76,200.13 
      391.39,217.78 392.00,223.37 392.61,214.83 393.22,193.56 393.86,164.34 394.47,134.13 "/>
    <polyline
      stroke-width="1"
      stroke="#000000"
      stroke-opacity="1.000000"
      fill="none"
      points="394.47,134.13 395.08,110.53 395.69,99.86 396.33,105.37 396.94,126.42 397.55,158.43 398.16,193.73 398.79,223.64 399.40,240.36 400.01,239.19 
      400.62,219.73 401.26,186.14 401.87,146.34 402.48,110.14 403.09,86.65 403.72,82.28 404.33,98.68 404.94,132.47 405.55,175.71 406.19,217.90 
      406.80,248.47 407.41,259.43 408.02,247.52 408.66,215.09 409.27,169.68 409.88,122.27 410.49,84.65 411.12,66.36 411.73,72.46 412.34,101.96 
      412.95,148.00 413.59,199.49 414.20,243.81 414.81,269.73 415.44,270.54 416.05,245.56 416.66,200.54 417.27,146.34 417.91,96.19 418.52,62.62 
      419.13,54.18 419.74,73.27 420.37,115.53 420.98,170.83 421.59,225.62 422.21,266.37 422.84,282.85 423.45,270.78 424.06,232.87 424.67,178.25 
      425.31,120.27 425.92,73.22 426.53,48.73 427.14,53.00 427.77,85.13 428.38,137.31 428.99,196.78 429.60,248.96 430.24,280.94 430.85,284.85 
      431.46,259.68 432.07,211.58 432.70,152.40 433.31,96.63 433.92,58.01 434.53,45.95 435.17,63.38 435.78,105.94 436.39,163.07 437.00,220.73 
      437.64,264.78 438.25,284.48 438.86,275.18 439.47,239.31 440.10,185.92 440.71,128.13 441.32,80.18 441.93,53.69 442.57,54.91 443.18,83.28 
      443.79,131.52 444.40,189.09 445.03,243.12 445.64,278.35 446.25,286.14 446.89,264.56 447.50,218.90 448.11,160.38 448.72,103.27 449.35,61.60 
      449.96,45.53 450.58,59.04 451.19,98.78 451.82,155.06 452.43,214.07 453.04,261.36 453.65,285.38 454.29,280.23 454.90,247.18 455.51,194.29 
      456.12,134.57 456.75,82.60 457.36,51.10 457.97,47.78 458.58,73.49 459.22,121.90 459.83,181.18 460.44,236.80 461.05,275.13 461.68,286.83 
      462.29,268.98 462.90,226.01 463.52,168.39 464.15,110.23 464.76,65.82 465.37,45.97 465.98,55.59 466.62,92.29 467.23,147.10 467.84,206.60 
      468.45,256.21 469.08,283.82 469.69,282.63 470.30,252.94 470.91,202.03 471.55,142.36 472.16,88.55 472.77,53.76 473.38,46.51 474.01,68.56 
      474.62,114.55 475.23,173.20 475.84,230.13 476.48,271.44 477.09,286.97 477.70,272.96 478.33,232.82 478.95,176.40 479.56,117.46 480.17,70.49 
      480.80,46.95 481.41,52.64 482.02,86.14 482.63,139.24 483.27,198.96 483.88,250.69 484.49,281.72 485.10,284.51 485.73,258.31 486.34,209.60 
      486.95,150.27 487.56,94.85 488.20,56.91 488.81,45.73 489.42,64.09 490.03,107.43 490.66,165.19 491.27,223.20 491.89,267.27 492.50,286.61 
      493.13,276.47 493.74,239.36 494.35,184.33 494.96,124.91 495.60,75.56 496.21,48.44 496.82,50.17 497.43,80.30 498.06,131.50 498.67,191.19 
      499.28,244.76 499.89,279.13 500.53,285.85 501.14,263.29 501.75,216.97 502.36,158.23 502.99,101.47 503.60,60.55 504.21,45.51 504.82,60.04 
      505.46,100.56 506.07,157.18 506.68,216.02 507.29,262.65 507.93,285.70 508.54,279.50 509.15,245.56 509.76,192.22 510.39,132.50 511.00,81.06 
      511.61,50.47 512.25,48.22 512.86,74.88 513.47,123.91 514.08,183.28 514.71,238.51 515.32,276.03 515.93,286.68 516.54,267.85 517.18,224.13 
      517.79,166.24 518.40,108.35 519.01,64.65 519.64,45.80 520.26,56.47 520.87,94.00 521.48,149.22 522.11,208.60 522.72,257.63 523.33,284.29 
      523.94,282.04 524.58,251.42 525.19,199.98 525.80,140.26 526.41,86.92 527.04,52.98 527.65,46.80 528.26,69.85 528.87,116.48 529.51,175.32 
      530.12,231.94 530.73,272.47 531.34,287.00 531.97,271.96 532.58,231.04 533.19,174.25 533.81,115.51 534.44,69.19 535.05,46.63 535.66,53.37 
      536.27,87.75 536.91,141.31 537.52,201.01 538.13,252.20 538.74,282.33 539.37,284.04 539.98,256.92 540.59,207.60 541.20,148.15 541.84,93.14 
      542.45,56.01 543.06,45.90 543.69,65.24 544.30,109.31 544.91,167.31 545.52,225.08 546.16,268.42 546.77,286.75 547.38,275.59 547.99,237.65 
      548.63,182.23 549.24,122.90 549.85,74.17 550.46,48.00 551.09,50.78 551.70,81.81 "/>
    <polyline
      stroke-width="1"
      stroke="#000000"
      stroke-opacity="1.000000"
      fill="none"
      points="551.70,81.81 552.31,133.55 552.92,193.27 553.56,246.37 554.17,279.87 554.78,285.56 555.39,262.02 556.02,215.02 556.63,156.11 557.24,99.66 
      557.85,59.52 558.49,45.51 559.10,61.06 559.71,102.37 560.32,159.31 560.95,217.95 561.56,263.92 562.18,286.00 562.79,278.74 563.42,243.95 
      564.03,190.12 564.64,130.47 565.25,79.57 565.89,49.88 566.50,48.68 567.11,76.30 567.72,125.91 568.35,185.41 568.96,240.22 569.57,276.91 
      570.18,286.51 570.82,266.68 571.43,222.25 572.04,164.12 572.65,106.50 573.28,63.50 573.89,45.68 574.50,57.37 575.12,95.71 575.75,151.32 
      576.36,210.60 576.97,259.02 577.61,284.70 578.22,281.41 578.83,249.91 579.44,197.93 580.07,138.19 580.68,85.33 581.29,52.27 581.90,47.12 
      582.54,71.14 583.15,118.44 583.76,177.45 584.37,233.72 585.00,273.47 585.61,286.97 586.22,270.91 586.83,229.23 587.47,172.12 588.08,113.58 
      588.69,67.95 589.30,46.36 589.93,54.15 590.55,89.38 591.16,143.41 591.77,203.06 592.40,253.69 593.01,282.89 593.62,283.55 594.23,255.50 
      594.87,205.57 595.48,146.05 596.09,91.43 596.70,55.15 597.33,46.07 597.94,66.41 598.55,111.21 599.16,169.46 599.80,226.94 600.41,269.54 
      601.02,286.87 601.63,274.67 602.26,235.92 602.87,180.11 603.49,120.90 604.10,72.80 604.73,47.58 605.34,51.42 605.95,83.38 606.56,135.60 
      607.20,195.34 607.81,247.96 608.42,280.57 609.05,285.19 609.66,260.70 610.27,213.07 610.88,153.98 611.52,97.90 612.13,58.55 612.74,45.56 
      613.35,62.14 613.98,104.20 614.59,161.46 615.20,219.88 615.81,265.17 616.45,286.26 617.06,277.96 617.67,242.29 618.28,188.02 618.92,128.42 
      619.53,78.08 620.14,49.32 620.75,49.20 621.38,77.74 621.99,127.93 622.60,187.51 623.21,241.90 623.85,277.74 624.46,286.31 625.07,265.49 
      625.68,220.34 626.31,161.97 626.92,104.64 627.53,62.40 628.14,45.58 628.78,58.30 629.39,97.46 630.00,153.45 630.61,212.58 631.24,260.36 
      631.86,285.12 632.47,280.75 633.08,248.35 633.71,195.86 634.32,136.11 634.93,83.74 635.54,51.59 636.18,47.49 636.79,72.46 637.40,120.41 
      638.01,179.60 638.64,235.48 639.25,274.42 639.86,286.90 640.50,269.81 641.11,227.38 641.72,169.98 642.33,111.67 642.96,66.73 643.57,46.12 
      644.18,54.96 644.80,91.04 645.43,145.51 646.04,205.08 646.65,255.13 647.26,283.43 647.90,283.04 648.51,254.04 649.12,203.55 649.73,143.93 
      650.36,89.77 650.97,54.35 651.58,46.31 652.19,67.63 652.83,113.11 653.44,171.59 654.05,228.77 654.66,270.64 655.29,286.95 655.90,273.71 
      656.51,234.16 657.12,177.98 657.76,118.92 658.37,71.46 658.98,47.22 659.59,52.10 660.23,84.94 660.84,137.68 661.45,197.42 662.06,249.52 
      662.69,281.26 663.30,284.82 663.91,259.36 664.52,211.09 665.16,151.86 665.77,96.15 666.38,57.59 666.99,45.66 667.62,63.23 668.23,106.03 
      668.84,163.58 669.45,221.78 670.09,266.39 670.70,286.46 671.31,277.13 671.92,240.63 672.55,185.92 673.17,126.40 673.78,76.64 674.41,48.81 
      675.02,49.73 675.63,79.20 676.24,129.96 676.88,189.61 677.49,243.54 678.10,278.55 678.71,286.07 679.34,264.24 679.95,218.41 680.56,159.84 
      681.17,102.81 681.81,61.33 682.42,45.53 683.03,59.28 683.64,99.22 684.27,155.57 684.88,214.56 685.49,261.70 686.10,285.46 686.74,280.04 
      687.35,246.78 687.96,193.78 688.57,134.04 689.21,82.20 689.82,50.93 690.43,47.90 691.04,73.83 691.67,122.39 692.28,181.69 692.89,237.21 
      693.50,275.37 694.14,286.80 694.75,268.71 695.36,225.54 695.97,167.85 "/>
    <polyline
      stroke-width="1"
      stroke="#000000"
      stroke-opacity="1.000000"
      fill="none"
      points="80.01,45.51 695.99,45.51"
      />
    <polyline
      stroke-width="1"
      stroke="#000000"
      stroke-opacity="1.000000"
      fill="none"
      points="80.01,45.51 80.01,54.13"
      />
    <polyline
      stroke-width="1"
      stroke="#000000"
      stroke-opacity="1.000000"
      fill="none"
      points="110.84,45.51 110.84,49.83"
      />
    <polyline
      stroke-width="1"
      stroke="#000000"
      stroke-opacity="1.000000"
      fill="none"
      points="141.65,45.51 141.65,49.83"
      />
    <polyline
      stroke-width="1"
      stroke="#000000"
      stroke-opacity="1.000000"
      fill="none"
      points="172.49,45.51 172.49,49.83"
      />
    <polyline
      stroke-width="1"
      stroke="#000000"
      stroke-opacity="1.000000"
      fill="none"
      points="203.33,45.51 203.33,54.13"
      />
    <polyline
      stroke-width="1"
      stroke="#000000"
      stroke-opacity="1.000000"
      fill="none"
      points="234.16,45.51 234.16,49.83"
      />
    <polyline
      stroke-width="1"
      stroke="#000000"
      stroke-opacity="1.000000"
      fill="none"
      points="264.97,45.51 264.97,49.83"
      />
    <polyline
      stroke-width="1"
      stroke="#000000"
      stroke-opacity="1.000000"
      fill="none"
      points="295.81,45.51 295.81,49.83"
      />
    <polyline
      stroke-width="1"
      stroke="#000000"
      stroke-opacity="1.000000"
      fill="none"
      points="326.65,45.51 326.65,54.13"
      />
    <polyline
      stroke-width="1"
      stroke="#000000"
      stroke-opacity="1.000000"
      fill="none"
      points="357.48,45.51 357.48,49.83"
      />
    <polyline
      stroke-width="1"
      stroke="#000000"
      stroke-opacity="1.000000"
      fill="none"
      points="388.29,45.51 388.29,49.83"
      />
    <polyline
      stroke-width="1"
      stroke="#000000"
      stroke-opacity="1.000000"
      fill="none"
      points="419.13,45.51 419.13,49.83"
      />
    <polyline
      stroke-width="1"
      stroke="#000000"
      stroke-opacity="1.000000"
      fill="none"
      points="449.96,45.51 449.96,54.13"
      />
    <polyline
      stroke-width="1"
      stroke="#000000"
      stroke-opacity="1.000000"
      fill="none"
      points="480.80,45.51 480.80,49.83"
      />
    <polyline
      stroke-width="1"
      stroke="#000000"
      stroke-opacity="1.000000"
      fill="none"
      points="511.61,45.51 511.61,49.83"
      />
    <polyline
      stroke-width="1"
      stroke="#000000"
      stroke-opacity="1.000000"
      fill="none"
      points="542.45,45.51 542.45,49.83"
      />
    <polyline
      stroke-width="1"
      stroke="#000000"
      stroke-opacity="1.000000"
      fill="none"
      points="573.28,45.51 573.28,54.13"
      />
    <polyline
      stroke-width="1"
      stroke="#000000"
      stroke-opacity="1.000000"
      fill="none"
      points="604.10,45.51 604.10,49.83"
      />
    <polyline
      stroke-width="1"
      stroke="#000000"
      stroke-opacity="1.000000"
      fill="none"
      points="634.93,45.51 634.93,49.83"
      />
    <polyline
      stroke-width="1"
      stroke="#000000"
      stroke-opacity="1.000000"
      fill="none"
      points="665.77,45.51 665.77,49.83"
      />
    <polyline
      stroke-width="1"
      stroke="#000000"
      stroke-opacity="1.000000"
      fill="none"
      points="695.99,45.51 695.99,287.00"
      />
    <polyline
      stroke-width="1"
      stroke="#000000"
      stroke-opacity="1.000000"
      fill="none"
      points="687.37,45.51 695.99,45.51"
      />
    <polyline
      stroke-width="1"
      stroke="#000000"
      stroke-opacity="1.000000"
      fill="none"
      points="691.67,57.57 695.99,57.57"
      />
    <polyline
      stroke-width="1"
      stroke="#000000"
      stroke-opacity="1.000000"
      fill="none"
      points="691.67,69.66 695.99,69.66"
      />
    <polyline
      stroke-width="1"
      stroke="#000000"
      stroke-opacity="1.000000"
      fill="none"
      points="691.67,81.74 695.99,81.74"
      />
    <polyline
      stroke-width="1"
      stroke="#000000"
      stroke-opacity="1.000000"
      fill="none"
      points="691.67,93.80 695.99,93.80"
      />
    <polyline
      stroke-width="1"
      stroke="#000000"
      stroke-opacity="1.000000"
      fill="none"
      points="687.37,105.89 695.99,105.89"
      />
    <polyline
      stroke-width="1"
      stroke="#000000"
      stroke-opacity="1.000000"
      fill="none"
      points="691.67,117.95 695.99,117.95"
      />
    <polyline
      stroke-width="1"
      stroke="#000000"
      stroke-opacity="1.000000"
      fill="none"
      points="691.67,130.03 695.99,130.03"
      />
    <polyline
      stroke-width="1"
      stroke="#000000"
      stroke-opacity="1.000000"
      fill="none"
      points="691.67,142.09 695.99,142.09"
      />
    <polyline
      stroke-width="1"
      stroke="#000000"
      stroke-opacity="1.000000"
      fill="none"
      points="691.67,154.18 695.99,154.18"
      />
    <polyline
      stroke-width="1"
      stroke="#000000"
      stroke-opacity="1.000000"
      fill="none"
      points="687.37,166.24 695.99,166.24"
      />
    <polyline
      stroke-width="1"
      stroke="#000000"
      stroke-opacity="1.000000"
      fill="none"
      points="691.67,178.33 695.99,178.33"
      />
    <polyline
      stroke-width="1"
      stroke="#000000"
      stroke-opacity="1.000000"
      fill="none"
      points="691.67,190.39 695.99,190.39"
      />
    <polyline
      stroke-width="1"
      stroke="#000000"
      stroke-opacity="1.000000"
      fill="none"
      points="691.67,202.47 695.99,202.47"
      />
    <polyline
      stroke-width="1"
      stroke="#000000"
      stroke-opacity="1.000000"
      fill="none"
      points="691.67,214.56 695.99,214.56"
      />
    <polyline
      stroke-width="1"
      stroke="#000000"
      stroke-opacity="1.000000"
      fill="none"
      points="687.37,226.62 695.99,226.62"
      />
    <polyline
      stroke-width="1"
      stroke="#000000"
      stroke-opacity="1.000000"
      fill="none"
      points="691.67,238.70 695.99,238.70"
      />
    <polyline
      stroke-width="1"
      stroke="#000000"
      stroke-opacity="1.000000"
      fill="none"
      points="691.67,250.76 695.99,250.76"
      />
    <polyline
      stroke-width="1"
      stroke="#000000"
      stroke-opacity="1.000000"
      fill="none"
      points="691.67,262.85 695.99,262.85"
      />
    <polyline
      stroke-width="1"
      stroke="#000000"
      stroke-opacity="1.000000"
      fill="none"
      points="691.67,274.91 695.99,274.91"
      />
    <polyline
      stroke-width="1"
      stroke="#000000"
      stroke-opacity="1.000000"
      fill="none"
      points="687.37,287.00 695.99,287.00"
      />
    <polyline
      stroke-width="1"
      stroke="#000000"
      stroke-opacity="1.000000"
      fill="none"
      points="695.99,287.00 80.01,287.00"
      />
    <polyline
      stroke-width="1"
      stroke="#000000"
      stroke-opacity="1.000000"
      fill="none"
      points="665.77,282.67 665.77,287.00"
      />
    <polyline
      stroke-width="1"
      stroke="#000000"
      stroke-opacity="1.000000"
      fill="none"
      points="634.93,282.67 634.93,287.00"
      />
    <polyline
      stroke-width="1"
      stroke="#000000"
      stroke-opacity="1.000000"
      fill="none"
      points="604.10,282.67 604.10,287.00"
      />
    <polyline
      stroke-width="1"
      stroke="#000000"
      stroke-opacity="1.000000"
      fill="none"
      points="573.28,278.38 573.28,287.00"
      />
    <polyline
      stroke-width="1"
      stroke="#000000"
      stroke-opacity="1.000000"
      fill="none"
      points="542.45,282.67 542.45,287.00"
      />
    <polyline
      stroke-width="1"
      stroke="#000000"
      stroke-opacity="1.000000"
      fill="none"
      points="511.61,282.67 511.61,287.00"
      />
    <polyline
      stroke-width="1"
      stroke="#000000"
      stroke-opacity="1.000000"
      fill="none"
      points="480.80,282.67 480.80,287.00"
      />
    <polyline
      stroke-width="1"
      stroke="#000000"
      stroke-opacity="1.000000"
      fill="none"
      points="449.96,278.38 449.96,287.00"
      />
    <polyline
      stroke-width="1"
      stroke="#000000"
      stroke-opacity="1.000000"
      fill="none"
      points="419.13,282.67 419.13,287.00"
      />
    <polyline
      stroke-width="1"
      stroke="#000000"
      stroke-opacity="1.000000"
      fill="none"
      points="388.29,282.67 388.29,287.00"
      />
    <polyline
      stroke-width="1"
      stroke="#000000"
      stroke-opacity="1.000000"
      fill="none"
      points="357.48,282.67 357.48,287.00"
      />
    <polyline
      stroke-width="1"
      stroke="#000000"
      stroke-opacity="1.000000"
      fill="none"
      points="326.65,278.38 326.65,287.00"
      />
    <polyline
      stroke-width="1"
      stroke="#000000"
      stroke-opacity="1.000000"
      fill="none"
      points="295.81,282.67 295.81,287.00"
      />
    <polyline
      stroke-width="1"
      stroke="#000000"
      stroke-opacity="1.000000"
      fill="none"
      points="264.97,282.67 264.97,287.00"
      />
    <polyline
      stroke-width="1"
      stroke="#000000"
      stroke-opacity="1.000000"
      fill="none"
      points="234.16,282.67 234.16,287.00"
      />
    <polyline
      stroke-width="1"
      stroke="#000000"
      stroke-opacity="1.000000"
      fill="none"
      points="203.33,278.38 203.33,287.00"
      />
    <polyline
      stroke-width="1"
      stroke="#000000"
      stroke-opacity="1.000000"
      fill="none"
      points="172.49,282.67 172.49,287.00"
      />
    <polyline
      stroke-width="1"
      stroke="#000000"
      stroke-opacity="1.000000"
      fill="none"
      points="141.65,282.67 141.65,287.00"
      />
    <polyline
      stroke-width="1"
      stroke="#000000"
      stroke-opacity="1.000000"
      fill="none"
      points="110.84,282.67 110.84,287.00"
      />
    <polyline
      stroke-width="1"
      stroke="#000000"
      stroke-opacity="1.000000"
      fill="none"
      points="80.01,278.38 80.01,287.00"
      />
    <polyline
      stroke-width="1"
      stroke="#000000"
      stroke-opacity="1.000000"
      fill="none"
      points="80.01,287.00 80.01,45.51"
      />
    <polyline
      stroke-width="1"
      stroke="#000000"
      stroke-opacity="1.000000"
      fill="none"
      points="80.01,287.00 88.63,287.00"
      />
    <polyline
      stroke-width="1"
      stroke="#000000"
      stroke-opacity="1.000000"
      fill="none"
      points="80.01,274.91 84.33,274.91"
      />
    <polyline
      stroke-width="1"
      stroke="#000000"
      stroke-opacity="1.000000"
      fill="none"
      points="80.01,262.85 84.33,262.85"
      />
    <polyline
      stroke-width="1"
      stroke="#000000"
      stroke-opacity="1.000000"
      fill="none"
      points="80.01,250.76 84.33,250.76"
      />
    <polyline
      stroke-width="1"
      stroke="#000000"
      stroke-opacity="1.000000"
      fill="none"
      points="80.01,238.70 84.33,238.70"
      />
    <polyline
      stroke-width="1"
      stroke="#000000"
      stroke-opacity="1.000000"
      fill="none"
      points="80.01,226.62 88.63,226.62"
      />
    <polyline
      stroke-width="1"
      stroke="#000000"
      stroke-opacity="1.000000"
      fill="none"
      points="80.01,214.56 84.33,214.56"
      />
    <polyline
      stroke-width="1"
      stroke="#000000"
      stroke-opacity="1.000000"
      fill="none"
      points="80.01,202.47 84.33,202.47"
      />
    <polyline
      stroke-width="1"
      stroke="#000000"
      stroke-opacity="1.000000"
      fill="none"
      points="80.01,190.39 84.33,190.39"
      />
    <polyline
      stroke-width="1"
      stroke="#000000"
      stroke-opacity="1.000000"
      fill="none"
      points="80.01,178.33 84.33,178.33"
      />
    <polyline
      stroke-width="1"
      stroke="#000000"
      stroke-opacity="1.000000"
      fill="none"
      points="80.01,166.24 88.63,166.24"
      />
    <polyline
      stroke-width="1"
      stroke="#000000"
      stroke-opacity="1.000000"
      fill="none"
      points="80.01,154.18 84.33,154.18"
      />
    <polyline
      stroke-width="1"
      stroke="#000000"
      stroke-opacity="1.000000"
      fill="none"
      points="80.01,142.09 84.33,142.09"
      />
    <polyline
      stroke-width="1"
      stroke="#000000"
      stroke-opacity="1.000000"
      fill="none"
      points="80.01,130.03 84.33,130.03"
      />
    <polyline
      stroke-width="1"
      stroke="#000000"
      stroke-opacity="1.000000"
      fill="none"
      points="80.01,117.95 84.33,117.95"
      />
    <polyline
      stroke-width="1"
      stroke="#000000"
      stroke-opacity="1.000000"
      fill="none"
      points="80.01,105.89 88.63,105.89"
      />
    <polyline
      stroke-width="1"
      stroke="#000000"
      stroke-opacity="1.000000"
      fill="none"
      points="80.01,93.80 84.33,93.80"
      />
    <polyline
      stroke-width="1"
      stroke="#000000"
      stroke-opacity="1.000000"
      fill="none"
      points="80.01,81.74 84.33,81.74"
      />
    <polyline
      stroke-width="1"
      stroke="#000000"
      stroke-opacity="1.000000"
      fill="none"
      points="80.01,69.66 84.33,69.66"
      />
    <polyline
      stroke-width="1"
      stroke="#000000"
      stroke-opacity="1.000000"
      fill="none"
      points="80.01,57.57 84.33,57.57"
      />
    <polyline
      stroke-width="1"
      stroke="#000000"
      stroke-opacity="1.000000"
      fill="none"
      points="80.01,45.51 88.63,45.51"
      />
    <clipPath
      id="text-clipping143"
      >
      <polygon
        points="0.000000,0.000000 0.000000,349.986267 800.000000,349.986267 800.000000,0.000000"
        />
    </clipPath>
    <g
      clip-path="url(#text-clipping143)"
      >
      <g
        transform="matrix(1.000000 0.000000 0.000000 -1.000000 80.007324 28.247932)"
        >
        <g
          transform="matrix(1.0 0.0 0.0 1.0 0.0 5.931960)"
          >
          <text
            dominant-baseline="no-change"
            fill="#000000"
            fill-opacity="1.000000"
            xml:space="preserve"
            font-size="15"
            text-anchor="middle"
            x="0.000000"
            y="0"
><tspan font-family="sans-serif" font-style="normal" font-weight="normal">&#x30;</tspan></text>
        </g>
      </g>
    </g>
    <clipPath
      id="text-clipping144"
      >
      <polygon
        points="0.000000,0.000000 0.000000,349.986267 800.000000,349.986267 800.000000,0.000000"
        />
    </clipPath>
    <g
      clip-path="url(#text-clipping144)"
      >
      <g
        transform="matrix(1.000000 0.000000 0.000000 -1.000000 203.326518 28.247932)"
        >
        <g
          transform="matrix(1.0 0.0 0.0 1.0 0.0 5.931960)"
          >
          <text
            dominant-baseline="no-change"
            fill="#000000"
            fill-opacity="1.000000"
            xml:space="preserve"
            font-size="15"
            text-anchor="middle"
            x="0.000000"
            y="0"
><tspan font-family="sans-serif" font-style="normal" font-weight="normal">&#x32;</tspan></text>
        </g>
      </g>
    </g>
    <clipPath
      id="text-clipping145"
      >
      <polygon
        points="0.000000,0.000000 0.000000,349.986267 800.000000,349.986267 800.000000,0.000000"
        />
    </clipPath>
    <g
      clip-path="url(#text-clipping145)"
      >
      <g
        transform="matrix(1.000000 0.000000 0.000000 -1.000000 326.645711 28.247932)"
        >
        <g
          transform="matrix(1.0 0.0 0.0 1.0 0.0 5.931960)"
          >
          <text
            dominant-baseline="no-change"
            fill="#000000"
            fill-opacity="1.000000"
            xml:space="preserve"
            font-size="15"
            text-anchor="middle"
            x="0.000000"
            y="0"
><tspan font-family="sans-serif" font-style="normal" font-weight="normal">&#x34;</tspan></text>
        </g>
      </g>
    </g>
    <clipPath
      id="text-clipping146"
      >
      <polygon
        points="0.000000,0.000000 0.000000,349.986267 800.000000,349.986267 800.000000,0.000000"
        />
    </clipPath>
    <g
      clip-path="url(#text-clipping146)"
      >
      <g
        transform="matrix(1.000000 0.000000 0.000000 -1.000000 449.964904 28.247932)"
        >
        <g
          transform="matrix(1.0 0.0 0.0 1.0 0.0 5.931960)"
          >
          <text
            dominant-baseline="no-change"
            fill="#000000"
            fill-opacity="1.000000"
            xml:space="preserve"
            font-size="15"
            text-anchor="middle"
            x="0.000000"
            y="0"
><tspan font-family="sans-serif" font-style="normal" font-weight="normal">&#x36;</tspan></text>
        </g>
      </g>
    </g>
    <clipPath
      id="text-clipping147"
      >
      <polygon
        points="0.000000,0.000000 0.000000,349.986267 800.000000,349.986267 800.000000,0.000000"
        />
    </clipPath>
    <g
      clip-path="url(#text-clipping147)"
      >
      <g
        transform="matrix(1.000000 0.000000 0.000000 -1.000000 573.284097 28.247932)"
        >
        <g
          transform="matrix(1.0 0.0 0.0 1.0 0.0 5.931960)"
          >
          <text
            dominant-baseline="no-change"
            fill="#000000"
            fill-opacity="1.000000"
            xml:space="preserve"
            font-size="15"
            text-anchor="middle"
            x="0.000000"
            y="0"
><tspan font-family="sans-serif" font-style="normal" font-weight="normal">&#x38;</tspan></text>
        </g>
      </g>
    </g>
    <clipPath
      id="text-clipping148"
      >
      <polygon
        points="0.000000,0.000000 0.000000,349.986267 800.000000,349.986267 800.000000,0.000000"
        />
    </clipPath>
    <g
      clip-path="url(#text-clipping148)"
      >
      <g
        transform="matrix(0.000000 1.000000 1.000000 -0.000000 62.746055 45.509201)"
        >
        <g
          transform="matrix(1.0 0.0 0.0 1.0 0.0 5.931960)"
          >
          <text
            dominant-baseline="no-change"
            fill="#000000"
            fill-opacity="1.000000"
            xml:space="preserve"
            font-size="15"
            text-anchor="middle"
            x="0.000000"
            y="0"
><tspan font-family="sans-serif" font-style="normal" font-weight="normal">&#x2d;&#x31;&#x2e;&#x30;</tspan></text>
        </g>
      </g>
    </g>
    <clipPath
      id="text-clipping149"
      >
      <polygon
        points="0.000000,0.000000 0.000000,349.986267 800.000000,349.986267 800.000000,0.000000"
        />
    </clipPath>
    <g
      clip-path="url(#text-clipping149)"
      >
      <g
        transform="matrix(0.000000 1.000000 1.000000 -0.000000 62.746055 105.862606)"
        >
        <g
          transform="matrix(1.0 0.0 0.0 1.0 0.0 5.931960)"
          >
          <text
            dominant-baseline="no-change"
            fill="#000000"
            fill-opacity="1.000000"
            xml:space="preserve"
            font-size="15"
            text-anchor="middle"
            x="0.000000"
            y="0"
><tspan font-family="sans-serif" font-style="normal" font-weight="normal">&#x2d;&#x30;&#x2e;&#x35;</tspan></text>
        </g>
      </g>
    </g>
    <clipPath
      id="text-clipping150"
      >
      <polygon
        points="0.000000,0.000000 0.000000,349.986267 800.000000,349.986267 800.000000,0.000000"
        />
    </clipPath>
    <g
      clip-path="url(#text-clipping150)"
      >
      <g
        transform="matrix(0.000000 1.000000 1.000000 -0.000000 62.746055 166.240425)"
        >
        <g
          transform="matrix(1.0 0.0 0.0 1.0 0.0 5.931960)"
          >
          <text
            dominant-baseline="no-change"
            fill="#000000"
            fill-opacity="1.000000"
            xml:space="preserve"
            font-size="15"
            text-anchor="middle"
            x="0.000000"
            y="0"
><tspan font-family="sans-serif" font-style="normal" font-weight="normal">&#x30;&#x2e;&#x30;</tspan></text>
        </g>
      </g>
    </g>
    <clipPath
      id="text-clipping151"
      >
      <polygon
        points="0.000000,0.000000 0.000000,349.986267 800.000000,349.986267 800.000000,0.000000"
        />
    </clipPath>
    <g
      clip-path="url(#text-clipping151)"
      >
      <g
        transform="matrix(0.000000 1.000000 1.000000 -0.000000 62.746055 226.618244)"
        >
        <g
          transform="matrix(1.0 0.0 0.0 1.0 0.0 5.931960)"
          >
          <text
            dominant-baseline="no-change"
            fill="#000000"
            fill-opacity="1.000000"
            xml:space="preserve"
            font-size="15"
            text-anchor="middle"
            x="0.000000"
            y="0"
><tspan font-family="sans-serif" font-style="normal" font-weight="normal">&#x30;&#x2e;&#x35;</tspan></text>
        </g>
      </g>
    </g>
    <clipPath
      id="text-clipping152"
      >
      <polygon
        points="0.000000,0.000000 0.000000,349.986267 800.000000,349.986267 800.000000,0.000000"
        />
    </clipPath>
    <g
      clip-path="url(#text-clipping152)"
      >
      <g
        transform="matrix(0.000000 1.000000 1.000000 -0.000000 62.746055 286.996063)"
        >
        <g
          transform="matrix(1.0 0.0 0.0 1.0 0.0 5.931960)"
          >
          <text
            dominant-baseline="no-change"
            fill="#000000"
            fill-opacity="1.000000"
            xml:space="preserve"
            font-size="15"
            text-anchor="middle"
            x="0.000000"
            y="0"
><tspan font-family="sans-serif" font-style="normal" font-weight="normal">&#x31;&#x2e;&#x30;</tspan></text>
        </g>
      </g>
    </g>
    <polyline
      stroke-width="1"
      stroke="#F03232"
      stroke-opacity="1.000000"
      fill="none"
      points="80.01,218.63 80.62,220.12 81.23,221.64 81.86,223.13 82.47,224.64 83.08,226.15 83.69,227.67 84.33,229.18 84.94,230.67 85.55,232.18 
      86.16,233.67 86.79,235.19 87.41,236.68 88.02,238.17 88.65,239.63 89.26,241.10 89.87,242.56 90.48,244.03 91.12,245.44 91.73,246.88 
      92.34,248.30 92.95,249.69 93.58,251.08 94.19,252.45 94.80,253.82 95.41,255.16 96.05,256.48 96.66,257.77 97.27,259.07 97.88,260.31 
      98.51,261.56 99.12,262.78 99.73,263.97 100.34,265.14 100.98,266.29 101.59,267.44 102.20,268.54 102.81,269.61 103.45,270.64 104.06,271.66 
      104.67,272.66 105.28,273.62 105.91,274.54 106.52,275.45 107.13,276.33 107.74,277.16 108.38,277.99 108.99,278.74 109.60,279.50 110.21,280.21 
      110.84,280.89 111.45,281.53 112.06,282.14 112.67,282.72 113.31,283.26 113.92,283.77 114.53,284.24 115.14,284.68 115.78,285.07 116.39,285.43 
      117.00,285.75 117.61,286.04 118.24,286.29 118.85,286.48 119.46,286.68 120.07,286.80 120.71,286.90 121.32,286.97 121.93,287.00 122.56,286.97 
      123.17,286.92 123.78,286.85 124.39,286.70 125.03,286.56 125.64,286.34 126.25,286.12 126.86,285.82 127.49,285.51 128.10,285.16 128.71,284.77 
      129.33,284.36 129.96,283.90 130.57,283.41 131.18,282.87 131.79,282.31 132.43,281.70 133.04,281.06 133.65,280.40 134.26,279.70 134.89,278.96 
      135.50,278.21 136.11,277.40 136.72,276.57 137.36,275.69 137.97,274.81 138.58,273.89 139.19,272.93 139.82,271.96 140.43,270.93 141.04,269.91 
      141.65,268.83 142.29,267.73 142.90,266.63 143.51,265.49 144.12,264.31 144.76,263.12 145.37,261.92 145.98,260.68 146.59,259.41 147.22,258.14 
      147.83,256.84 148.44,255.53 149.05,254.18 149.69,252.84 150.30,251.47 150.91,250.08 151.52,248.69 152.15,247.27 152.76,245.86 153.37,244.42 
      154.01,242.98 154.62,241.51 155.23,240.05 155.84,238.58 156.47,237.09 157.08,235.60 157.70,234.11 158.31,232.60 158.94,231.11 159.55,229.60 
      160.16,228.08 160.77,226.57 161.41,225.08 162.02,223.57 162.63,222.05 163.24,220.56 163.87,219.05 164.48,217.56 165.09,216.07 165.70,214.58 
      166.34,213.12 166.95,211.65 167.56,210.19 168.17,208.75 168.80,207.31 169.41,205.89 170.02,204.47 170.64,203.08 171.27,201.69 171.88,200.32 
      172.49,198.98 173.10,197.64 173.74,196.32 174.35,195.03 174.96,193.76 175.57,192.51 176.20,191.27 176.81,190.04 177.42,188.87 178.03,187.70 
      178.67,186.55 179.28,185.43 179.89,184.36 180.50,183.28 181.13,182.26 181.74,181.23 182.35,180.25 182.96,179.30 183.60,178.37 184.21,177.50 
      184.82,176.62 185.43,175.79 186.07,175.01 186.68,174.22 187.29,173.49 187.92,172.81 188.53,172.12 189.14,171.49 189.75,170.90 190.39,170.34 
      191.00,169.80 191.61,169.32 192.22,168.85 192.85,168.44 193.46,168.05 194.07,167.71 194.68,167.39 195.32,167.12 195.93,166.88 196.54,166.68 
      197.15,166.53 197.78,166.39 198.39,166.31 199.01,166.26 199.62,166.24 200.25,166.26 200.86,166.34 201.47,166.44 202.08,166.58 202.72,166.75 
      203.33,166.97 203.94,167.22 204.55,167.51 205.18,167.83 205.79,168.19 206.40,168.61 207.01,169.02 207.65,169.51 208.26,170.00 208.87,170.56 
      209.48,171.12 210.11,171.73 210.72,172.39 211.33,173.08 211.94,173.78 212.58,174.52 213.19,175.30 213.80,176.13 214.41,176.96 215.05,177.84 
      215.66,178.74 216.27,179.67 216.88,180.65 217.51,181.62 218.12,182.65 218.73,183.70 219.37,184.77 219.98,185.87 220.59,186.99 221.20,188.14 
      221.83,189.31 222.44,190.53 223.05,191.75 223.66,192.97 224.30,194.24 224.91,195.54 225.52,196.83 226.13,198.15 226.76,199.49 227.38,200.86 
      227.99,202.23 228.60,203.62 229.23,205.01 229.84,206.43 230.45,207.87 231.06,209.31 231.70,210.75 232.31,212.21 232.92,213.68 233.53,215.17 
      234.16,216.66 234.77,218.15 235.38,219.64 235.99,221.15 236.63,222.64 237.24,224.15 "/>
    <polyline
      stroke-width="1"
      stroke="#F03232"
      stroke-opacity="1.000000"
      fill="none"
      points="237.24,224.15 237.85,225.67 238.46,227.18 239.09,228.67 239.70,230.18 240.31,231.70 240.93,233.19 241.56,234.70 242.17,236.19 242.78,237.68 
      243.39,239.14 244.03,240.63 244.64,242.10 245.25,243.54 245.86,244.98 246.49,246.42 247.10,247.83 247.71,249.25 248.32,250.64 248.96,252.01 
      249.57,253.38 250.18,254.72 250.81,256.04 251.42,257.36 252.03,258.65 252.64,259.92 253.28,261.17 253.89,262.39 254.50,263.58 255.11,264.78 
      255.75,265.93 256.36,267.07 256.97,268.17 257.58,269.25 258.21,270.30 258.82,271.35 259.43,272.35 260.04,273.30 260.68,274.25 261.29,275.15 
      261.90,276.03 262.51,276.89 263.14,277.72 263.75,278.50 264.36,279.26 264.97,279.99 265.61,280.67 266.22,281.33 266.83,281.94 267.44,282.53 
      268.07,283.09 268.68,283.60 269.30,284.09 269.91,284.53 270.54,284.95 271.15,285.31 271.76,285.65 272.37,285.95 273.01,286.21 273.62,286.43 
      274.23,286.61 274.84,286.78 275.47,286.87 276.08,286.95 276.69,287.00 277.30,287.00 277.94,286.95 278.55,286.87 279.16,286.75 279.77,286.61 
      280.40,286.41 281.01,286.19 281.62,285.92 282.24,285.63 282.87,285.29 283.48,284.92 284.09,284.51 284.73,284.04 285.34,283.58 285.95,283.04 
      286.56,282.50 287.19,281.92 287.80,281.28 288.41,280.62 289.02,279.94 289.66,279.21 290.27,278.45 290.88,277.67 291.49,276.84 292.12,275.98 
      292.73,275.11 293.34,274.20 293.95,273.25 294.59,272.27 295.20,271.27 295.81,270.25 296.42,269.20 297.05,268.10 297.67,267.00 298.28,265.85 
      298.89,264.71 299.52,263.51 300.13,262.31 300.74,261.09 301.35,259.82 301.99,258.55 302.60,257.28 303.21,255.96 303.82,254.62 304.45,253.28 
      305.06,251.94 305.67,250.54 306.28,249.15 306.92,247.74 307.53,246.32 308.14,244.90 308.75,243.44 309.38,242.00 309.99,240.53 310.61,239.07 
      311.22,237.58 311.85,236.09 312.46,234.60 313.07,233.09 313.68,231.60 314.32,230.09 314.93,228.57 315.54,227.08 316.17,225.57 316.78,224.05 
      317.39,222.54 318.00,221.05 318.64,219.54 319.25,218.05 319.86,216.56 320.47,215.07 321.10,213.61 321.71,212.12 322.32,210.68 322.93,209.21 
      323.57,207.77 324.18,206.35 324.79,204.94 325.40,203.52 326.04,202.15 326.65,200.76 327.26,199.42 327.87,198.08 328.50,196.76 329.11,195.46 
      329.72,194.17 330.33,192.90 330.97,191.66 331.58,190.44 332.19,189.24 332.80,188.07 333.43,186.92 334.04,185.80 334.65,184.70 335.26,183.62 
      335.90,182.57 336.51,181.57 337.12,180.57 337.73,179.62 338.36,178.69 338.98,177.79 339.59,176.91 340.20,176.06 340.83,175.25 341.44,174.49 
      342.05,173.74 342.66,173.03 343.30,172.34 343.91,171.71 344.52,171.10 345.13,170.51 345.76,169.98 346.37,169.46 346.98,169.00 347.59,168.58 
      348.23,168.17 348.84,167.83 349.45,167.49 350.08,167.22 350.69,166.95 351.30,166.75 351.92,166.58 352.55,166.44 353.16,166.34 353.77,166.26 
      354.38,166.24 355.02,166.26 355.63,166.31 356.24,166.41 356.85,166.53 357.48,166.70 358.09,166.90 358.70,167.14 359.31,167.41 359.95,167.73 
      360.56,168.07 361.17,168.46 361.78,168.88 362.41,169.34 363.02,169.83 363.63,170.37 364.24,170.93 364.88,171.54 365.49,172.17 366.10,172.83 
      366.71,173.54 367.35,174.27 367.96,175.05 368.57,175.86 369.18,176.69 369.81,177.54 370.42,178.45 371.03,179.38 371.64,180.33 372.28,181.30 
      372.89,182.31 373.50,183.36 374.11,184.41 374.74,185.50 375.35,186.63 375.96,187.77 376.57,188.95 377.21,190.12 377.82,191.34 378.43,192.58 
      379.04,193.83 379.67,195.12 380.29,196.42 380.90,197.74 381.53,199.05 382.14,200.42 382.75,201.79 383.36,203.16 384.00,204.55 384.61,205.96 
      385.22,207.40 385.83,208.82 386.46,210.28 387.07,211.73 387.68,213.21 388.29,214.68 388.93,216.17 389.54,217.66 390.15,219.15 390.76,220.64 
      391.39,222.15 392.00,223.66 392.61,225.15 393.22,226.67 393.86,228.18 394.47,229.69 "/>
    <polyline
      stroke-width="1"
      stroke="#F03232"
      stroke-opacity="1.000000"
      fill="none"
      points="394.47,229.69 395.08,231.21 395.69,232.70 396.33,234.21 396.94,235.70 397.55,237.19 398.16,238.65 398.79,240.14 399.40,241.61 400.01,243.07 
      400.62,244.51 401.26,245.95 401.87,247.37 402.48,248.79 403.09,250.18 403.72,251.57 404.33,252.94 404.94,254.28 405.55,255.62 406.19,256.92 
      406.80,258.21 407.41,259.50 408.02,260.75 408.66,262.00 409.27,263.19 409.88,264.39 410.49,265.56 411.12,266.68 411.73,267.81 412.34,268.90 
      412.95,269.95 413.59,271.00 414.20,272.01 414.81,272.98 415.44,273.93 416.05,274.86 416.66,275.77 417.27,276.62 417.91,277.45 418.52,278.26 
      419.13,279.01 419.74,279.74 420.37,280.45 420.98,281.11 421.59,281.75 422.21,282.33 422.84,282.92 423.45,283.43 424.06,283.92 424.67,284.38 
      425.31,284.80 425.92,285.19 426.53,285.53 427.14,285.85 427.77,286.12 428.38,286.36 428.99,286.56 429.60,286.73 430.24,286.85 430.85,286.92 
      431.46,286.97 432.07,287.00 432.70,286.97 433.31,286.90 433.92,286.80 434.53,286.65 435.17,286.48 435.78,286.26 436.39,286.02 437.00,285.73 
      437.64,285.41 438.25,285.04 438.86,284.63 439.47,284.21 440.10,283.72 440.71,283.24 441.32,282.67 441.93,282.11 442.57,281.50 443.18,280.84 
      443.79,280.16 444.40,279.45 445.03,278.70 445.64,277.94 446.25,277.11 446.89,276.28 447.50,275.40 448.11,274.50 448.72,273.57 449.35,272.59 
      449.96,271.61 450.58,270.59 451.19,269.54 451.82,268.47 452.43,267.37 453.04,266.24 453.65,265.07 454.29,263.90 454.90,262.70 455.51,261.48 
      456.12,260.24 456.75,258.97 457.36,257.70 457.97,256.40 458.58,255.06 459.22,253.72 459.83,252.38 460.44,251.01 461.05,249.62 461.68,248.20 
      462.29,246.78 462.90,245.37 463.52,243.93 464.15,242.46 464.76,241.02 465.37,239.53 465.98,238.07 466.62,236.58 467.23,235.09 467.84,233.60 
      468.45,232.09 469.08,230.57 469.69,229.08 470.30,227.57 470.91,226.06 471.55,224.54 472.16,223.05 472.77,221.54 473.38,220.03 474.01,218.54 
      474.62,217.05 475.23,215.56 475.84,214.07 476.48,212.60 477.09,211.14 477.70,209.70 478.33,208.23 478.95,206.82 479.56,205.40 480.17,203.99 
      480.80,202.59 481.41,201.23 482.02,199.86 482.63,198.52 483.27,197.17 483.88,195.88 484.49,194.59 485.10,193.32 485.73,192.07 486.34,190.85 
      486.95,189.63 487.56,188.46 488.20,187.31 488.81,186.16 489.42,185.06 490.03,183.99 490.66,182.92 491.27,181.89 491.89,180.89 492.50,179.94 
      493.13,178.98 493.74,178.08 494.35,177.18 494.96,176.35 495.60,175.52 496.21,174.74 496.82,173.98 497.43,173.25 498.06,172.56 498.67,171.90 
      499.28,171.29 499.89,170.71 500.53,170.15 501.14,169.63 501.75,169.15 502.36,168.71 502.99,168.29 503.60,167.93 504.21,167.58 504.82,167.29 
      505.46,167.05 506.07,166.80 506.68,166.63 507.29,166.48 507.93,166.36 508.54,166.29 509.15,166.26 509.76,166.26 510.39,166.29 511.00,166.36 
      511.61,166.48 512.25,166.63 512.86,166.83 513.47,167.05 514.08,167.31 514.71,167.63 515.32,167.95 515.93,168.34 516.54,168.76 517.18,169.19 
      517.79,169.68 518.40,170.20 519.01,170.76 519.64,171.34 520.26,171.95 520.87,172.61 521.48,173.32 522.11,174.03 522.72,174.79 523.33,175.59 
      523.94,176.40 524.58,177.25 525.19,178.15 525.80,179.06 526.41,180.01 527.04,180.99 527.65,181.99 528.26,183.01 528.87,184.06 529.51,185.14 
      530.12,186.26 530.73,187.38 531.34,188.56 531.97,189.73 532.58,190.95 533.19,192.17 533.81,193.41 534.44,194.68 535.05,195.98 535.66,197.30 
      536.27,198.61 536.91,199.96 537.52,201.32 538.13,202.72 538.74,204.11 539.37,205.50 539.98,206.92 540.59,208.36 541.20,209.80 541.84,211.26 
      542.45,212.73 543.06,214.19 543.69,215.68 544.30,217.17 544.91,218.66 545.52,220.15 546.16,221.66 546.77,223.15 547.38,224.67 547.99,226.18 
      548.63,227.69 549.24,229.21 549.85,230.70 550.46,232.21 551.09,233.70 551.70,235.21 "/>
    <polyline
      stroke-width="1"
      stroke="#F03232"
      stroke-opacity="1.000000"
      fill="none"
      points="551.70,235.21 552.31,236.70 552.92,238.19 553.56,239.66 554.17,241.12 554.78,242.59 555.39,244.05 556.02,245.49 556.63,246.91 557.24,248.32 
      557.85,249.71 558.49,251.11 559.10,252.47 559.71,253.84 560.32,255.18 560.95,256.50 561.56,257.80 562.18,259.09 562.79,260.34 563.42,261.58 
      564.03,262.80 564.64,264.00 565.25,265.17 565.89,266.32 566.50,267.44 567.11,268.54 567.72,269.61 568.35,270.66 568.96,271.69 569.57,272.66 
      570.18,273.64 570.82,274.57 571.43,275.47 572.04,276.35 572.65,277.18 573.28,277.99 573.89,278.77 574.50,279.50 575.12,280.23 575.75,280.89 
      576.36,281.55 576.97,282.16 577.61,282.72 578.22,283.26 578.83,283.77 579.44,284.24 580.07,284.68 580.68,285.07 581.29,285.43 581.90,285.75 
      582.54,286.04 583.15,286.29 583.76,286.51 584.37,286.68 585.00,286.80 585.61,286.90 586.22,286.97 586.83,287.00 587.47,286.97 588.08,286.92 
      588.69,286.83 589.30,286.70 589.93,286.53 590.55,286.34 591.16,286.09 591.77,285.82 592.40,285.51 593.01,285.16 593.62,284.77 594.23,284.36 
      594.87,283.90 595.48,283.41 596.09,282.87 596.70,282.31 597.33,281.70 597.94,281.06 598.55,280.40 599.16,279.70 599.80,278.96 600.41,278.18 
      601.02,277.38 601.63,276.55 602.26,275.69 602.87,274.79 603.49,273.86 604.10,272.91 604.73,271.93 605.34,270.93 605.95,269.88 606.56,268.81 
      607.20,267.73 607.81,266.61 608.42,265.46 609.05,264.29 609.66,263.09 610.27,261.90 610.88,260.65 611.52,259.41 612.13,258.11 612.74,256.82 
      613.35,255.50 613.98,254.18 614.59,252.82 615.20,251.45 615.81,250.06 616.45,248.66 617.06,247.25 617.67,245.83 618.28,244.39 618.92,242.95 
      619.53,241.49 620.14,240.02 620.75,238.56 621.38,237.07 621.99,235.58 622.60,234.09 623.21,232.58 623.85,231.09 624.46,229.57 625.07,228.06 
      625.68,226.54 626.31,225.06 626.92,223.54 627.53,222.03 628.14,220.51 628.78,219.03 629.39,217.54 630.00,216.05 630.61,214.56 631.24,213.09 
      631.86,211.63 632.47,210.16 633.08,208.72 633.71,207.28 634.32,205.87 634.93,204.45 635.54,203.06 636.18,201.67 636.79,200.30 637.40,198.96 
      638.01,197.61 638.64,196.30 639.25,195.00 639.86,193.73 640.50,192.49 641.11,191.24 641.72,190.02 642.33,188.85 642.96,187.68 643.57,186.53 
      644.18,185.43 644.80,184.33 645.43,183.26 646.04,182.23 646.65,181.23 647.26,180.23 647.90,179.28 648.51,178.37 649.12,177.47 649.73,176.62 
      650.36,175.79 650.97,174.98 651.58,174.22 652.19,173.49 652.83,172.78 653.44,172.12 654.05,171.49 654.66,170.88 655.29,170.32 655.90,169.80 
      656.51,169.32 657.12,168.85 657.76,168.44 658.37,168.05 658.98,167.71 659.59,167.39 660.23,167.12 660.84,166.88 661.45,166.68 662.06,166.51 
      662.69,166.39 663.30,166.31 663.91,166.26 664.52,166.24 665.16,166.29 665.77,166.34 666.38,166.44 666.99,166.58 667.62,166.75 668.23,166.97 
      668.84,167.22 669.45,167.51 670.09,167.85 670.70,168.22 671.31,168.61 671.92,169.05 672.55,169.51 673.17,170.02 673.78,170.56 674.41,171.15 
      675.02,171.76 675.63,172.39 676.24,173.08 676.88,173.78 677.49,174.54 678.10,175.32 678.71,176.13 679.34,176.98 679.95,177.86 680.56,178.77 
      681.17,179.69 681.81,180.65 682.42,181.65 683.03,182.67 683.64,183.72 684.27,184.80 684.88,185.89 685.49,187.02 686.10,188.16 686.74,189.34 
      687.35,190.53 687.96,191.75 688.57,193.00 689.21,194.27 689.82,195.56 690.43,196.86 691.04,198.17 691.67,199.52 692.28,200.89 692.89,202.25 
      693.50,203.64 694.14,205.04 694.75,206.45 695.36,207.89 695.97,209.33 "/>
  </g>
</svg>
