<?xml version="1.0" encoding="UTF-8"?>
<!DOCTYPE svg PUBLIC "-//W3C//DTD SVG 1.1//EN"
        "http://www.w3.org/Graphics/SVG/1.1/DTD/svg11.dtd">
<svg
  xmlns="http://www.w3.org/2000/svg"
  xmlns:xlink="http://www.w3.org/1999/xlink"
  version="1.1"
  width="800pt"
  height="350pt"
  viewBox="0 0 800 350"
  >
  <rect
    x="0"
    y="0"
    width="800"
    height="350"
    stroke="none"
    fill="#FFFFFF"
    fill-opacity="1.000000"
    />
  <g
    transform="matrix(1 0 0 -1 0 350)"
    >
    <polyline
      stroke-width="1"
      stroke="#000000"
      stroke-opacity="1.000000"
      fill="none"
      points="120.00,35.01 719.99,35.01"
      />
    <polyline
      stroke-width="1"
      stroke="#000000"
      stroke-opacity="1.000000"
      fill="none"
      points="120.00,35.01 120.00,40.19"
      />
    <polyline
      stroke-width="1"
      stroke="#000000"
      stroke-opacity="1.000000"
      fill="none"
      points="150.00,35.01 150.00,39.33"
      />
    <polyline
      stroke-width="1"
      stroke="#000000"
      stroke-opacity="1.000000"
      fill="none"
      points="179.99,35.01 179.99,39.33"
      />
    <polyline
      stroke-width="1"
      stroke="#000000"
      stroke-opacity="1.000000"
      fill="none"
      points="209.99,35.01 209.99,39.33"
      />
    <polyline
      stroke-width="1"
      stroke="#000000"
      stroke-opacity="1.000000"
      fill="none"
      points="240.00,35.01 240.00,40.19"
      />
    <polyline
      stroke-width="1"
      stroke="#000000"
      stroke-opacity="1.000000"
      fill="none"
      points="270.00,35.01 270.00,39.33"
      />
    <polyline
      stroke-width="1"
      stroke="#000000"
      stroke-opacity="1.000000"
      fill="none"
      points="299.98,35.01 299.98,39.33"
      />
    <polyline
      stroke-width="1"
      stroke="#000000"
      stroke-opacity="1.000000"
      fill="none"
      points="329.99,35.01 329.99,39.33"
      />
    <polyline
      stroke-width="1"
      stroke="#000000"
      stroke-opacity="1.000000"
      fill="none"
      points="360.00,35.01 360.00,40.19"
      />
    <polyline
      stroke-width="1"
      stroke="#000000"
      stroke-opacity="1.000000"
      fill="none"
      points="389.98,35.01 389.98,39.33"
      />
    <polyline
      stroke-width="1"
      stroke="#000000"
      stroke-opacity="1.000000"
      fill="none"
      points="419.98,35.01 419.98,39.33"
      />
    <polyline
      stroke-width="1"
      stroke="#000000"
      stroke-opacity="1.000000"
      fill="none"
      points="449.99,35.01 449.99,39.33"
      />
    <polyline
      stroke-width="1"
      stroke="#000000"
      stroke-opacity="1.000000"
      fill="none"
      points="480.00,35.01 480.00,40.19"
      />
    <polyline
      stroke-width="1"
      stroke="#000000"
      stroke-opacity="1.000000"
      fill="none"
      points="509.98,35.01 509.98,39.33"
      />
    <polyline
      stroke-width="1"
      stroke="#000000"
      stroke-opacity="1.000000"
      fill="none"
      points="539.98,35.01 539.98,39.33"
      />
    <polyline
      stroke-width="1"
      stroke="#000000"
      stroke-opacity="1.000000"
      fill="none"
      points="569.99,35.01 569.99,39.33"
      />
    <polyline
      stroke-width="1"
      stroke="#000000"
      stroke-opacity="1.000000"
      fill="none"
      points="599.99,35.01 599.99,40.19"
      />
    <polyline
      stroke-width="1"
      stroke="#000000"
      stroke-opacity="1.000000"
      fill="none"
      points="629.98,35.01 629.98,39.33"
      />
    <polyline
      stroke-width="1"
      stroke="#000000"
      stroke-opacity="1.000000"
      fill="none"
      points="659.98,35.01 659.98,39.33"
      />
    <polyline
      stroke-width="1"
      stroke="#000000"
      stroke-opacity="1.000000"
      fill="none"
      points="689.99,35.01 689.99,39.33"
      />
    <polyline
      stroke-width="1"
      stroke="#000000"
      stroke-opacity="1.000000"
      fill="none"
      points="719.97,35.01 719.97,40.19"
      />
    <polyline
      stroke-width="1"
      stroke="#000000"
      stroke-opacity="1.000000"
      fill="none"
      points="719.99,35.01 719.99,98.00"
      />
    <polyline
      stroke-width="1"
      stroke="#000000"
      stroke-opacity="1.000000"
      fill="none"
      points="714.82,35.01 719.99,35.01"
      />
    <polyline
      stroke-width="1"
      stroke="#000000"
      stroke-opacity="1.000000"
      fill="none"
      points="714.82,66.51 719.99,66.51"
      />
    <polyline
      stroke-width="1"
      stroke="#000000"
      stroke-opacity="1.000000"
      fill="none"
      points="714.82,98.00 719.99,98.00"
      />
    <polyline
      stroke-width="1"
      stroke="#000000"
      stroke-opacity="1.000000"
      fill="none"
      points="719.99,98.00 120.00,98.00"
      />
    <polyline
      stroke-width="1"
      stroke="#000000"
      stroke-opacity="1.000000"
      fill="none"
      points="719.97,92.83 719.97,98.00"
      />
    <polyline
      stroke-width="1"
      stroke="#000000"
      stroke-opacity="1.000000"
      fill="none"
      points="689.99,93.68 689.99,98.00"
      />
    <polyline
      stroke-width="1"
      stroke="#000000"
      stroke-opacity="1.000000"
      fill="none"
      points="659.98,93.68 659.98,98.00"
      />
    <polyline
      stroke-width="1"
      stroke="#000000"
      stroke-opacity="1.000000"
      fill="none"
      points="629.98,93.68 629.98,98.00"
      />
    <polyline
      stroke-width="1"
      stroke="#000000"
      stroke-opacity="1.000000"
      fill="none"
      points="599.99,92.83 599.99,98.00"
      />
    <polyline
      stroke-width="1"
      stroke="#000000"
      stroke-opacity="1.000000"
      fill="none"
      points="569.99,93.68 569.99,98.00"
      />
    <polyline
      stroke-width="1"
      stroke="#000000"
      stroke-opacity="1.000000"
      fill="none"
      points="539.98,93.68 539.98,98.00"
      />
    <polyline
      stroke-width="1"
      stroke="#000000"
      stroke-opacity="1.000000"
      fill="none"
      points="509.98,93.68 509.98,98.00"
      />
    <polyline
      stroke-width="1"
      stroke="#000000"
      stroke-opacity="1.000000"
      fill="none"
      points="480.00,92.83 480.00,98.00"
      />
    <polyline
      stroke-width="1"
      stroke="#000000"
      stroke-opacity="1.000000"
      fill="none"
      points="449.99,93.68 449.99,98.00"
      />
    <polyline
      stroke-width="1"
      stroke="#000000"
      stroke-opacity="1.000000"
      fill="none"
      points="419.98,93.68 419.98,98.00"
      />
    <polyline
      stroke-width="1"
      stroke="#000000"
      stroke-opacity="1.000000"
      fill="none"
      points="389.98,93.68 389.98,98.00"
      />
    <polyline
      stroke-width="1"
      stroke="#000000"
      stroke-opacity="1.000000"
      fill="none"
      points="360.00,92.83 360.00,98.00"
      />
    <polyline
      stroke-width="1"
      stroke="#000000"
      stroke-opacity="1.000000"
      fill="none"
      points="329.99,93.68 329.99,98.00"
      />
    <polyline
      stroke-width="1"
      stroke="#000000"
      stroke-opacity="1.000000"
      fill="none"
      points="299.98,93.68 299.98,98.00"
      />
    <polyline
      stroke-width="1"
      stroke="#000000"
      stroke-opacity="1.000000"
      fill="none"
      points="270.00,93.68 270.00,98.00"
      />
    <polyline
      stroke-width="1"
      stroke="#000000"
      stroke-opacity="1.000000"
      fill="none"
      points="240.00,92.83 240.00,98.00"
      />
    <polyline
      stroke-width="1"
      stroke="#000000"
      stroke-opacity="1.000000"
      fill="none"
      points="209.99,93.68 209.99,98.00"
      />
    <polyline
      stroke-width="1"
      stroke="#000000"
      stroke-opacity="1.000000"
      fill="none"
      points="179.99,93.68 179.99,98.00"
      />
    <polyline
      stroke-width="1"
      stroke="#000000"
      stroke-opacity="1.000000"
      fill="none"
      points="150.00,93.68 150.00,98.00"
      />
    <polyline
      stroke-width="1"
      stroke="#000000"
      stroke-opacity="1.000000"
      fill="none"
      points="120.00,92.83 120.00,98.00"
      />
    <polyline
      stroke-width="1"
      stroke="#000000"
      stroke-opacity="1.000000"
      fill="none"
      points="120.00,98.00 120.00,35.01"
      />
    <polyline
      stroke-width="1"
      stroke="#000000"
      stroke-opacity="1.000000"
      fill="none"
      points="120.00,98.00 125.17,98.00"
      />
    <polyline
      stroke-width="1"
      stroke="#000000"
      stroke-opacity="1.000000"
      fill="none"
      points="120.00,66.51 125.17,66.51"
      />
    <polyline
      stroke-width="1"
      stroke="#000000"
      stroke-opacity="1.000000"
      fill="none"
      points="120.00,35.01 125.17,35.01"
      />
    <clipPath
      id="text-clipping91"
      >
      <polygon
        points="0.000000,0.000000 0.000000,349.986267 800.000000,349.986267 800.000000,0.000000"
        />
    </clipPath>
    <g
      clip-path="url(#text-clipping91)"
      >
      <g
        transform="matrix(1.000000 0.000000 0.000000 -1.000000 119.998779 28.101444)"
        >
        <g
          transform="matrix(1.0 0.0 0.0 1.0 0.0 2.672784)"
          >
          <text
            dominant-baseline="no-change"
            fill="#000000"
            fill-opacity="1.000000"
            xml:space="preserve"
            font-size="6"
            text-anchor="middle"
            x="0.000000"
            y="0"
><tspan font-family="sans-serif" font-style="normal" font-weight="normal">&#x30;</tspan></text>
        </g>
      </g>
    </g>
    <clipPath
      id="text-clipping92"
      >
      <polygon
        points="0.000000,0.000000 0.000000,349.986267 800.000000,349.986267 800.000000,0.000000"
        />
    </clipPath>
    <g
      clip-path="url(#text-clipping92)"
      >
      <g
        transform="matrix(1.000000 0.000000 0.000000 -1.000000 239.997559 28.101444)"
        >
        <g
          transform="matrix(1.0 0.0 0.0 1.0 0.0 2.672784)"
          >
          <text
            dominant-baseline="no-change"
            fill="#000000"
            fill-opacity="1.000000"
            xml:space="preserve"
            font-size="6"
            text-anchor="middle"
            x="0.000000"
            y="0"
><tspan font-family="sans-serif" font-style="normal" font-weight="normal">&#x32;</tspan></text>
        </g>
      </g>
    </g>
    <clipPath
      id="text-clipping93"
      >
      <polygon
        points="0.000000,0.000000 0.000000,349.986267 800.000000,349.986267 800.000000,0.000000"
        />
    </clipPath>
    <g
      clip-path="url(#text-clipping93)"
      >
      <g
        transform="matrix(1.000000 0.000000 0.000000 -1.000000 359.996338 28.101444)"
        >
        <g
          transform="matrix(1.0 0.0 0.0 1.0 0.0 2.672784)"
          >
          <text
            dominant-baseline="no-change"
            fill="#000000"
            fill-opacity="1.000000"
            xml:space="preserve"
            font-size="6"
            text-anchor="middle"
            x="0.000000"
            y="0"
><tspan font-family="sans-serif" font-style="normal" font-weight="normal">&#x34;</tspan></text>
        </g>
      </g>
    </g>
    <clipPath
      id="text-clipping94"
      >
      <polygon
        points="0.000000,0.000000 0.000000,349.986267 800.000000,349.986267 800.000000,0.000000"
        />
    </clipPath>
    <g
      clip-path="url(#text-clipping94)"
      >
      <g
        transform="matrix(1.000000 0.000000 0.000000 -1.000000 479.995117 28.101444)"
        >
        <g
          transform="matrix(1.0 0.0 0.0 1.0 0.0 2.672784)"
          >
          <text
            dominant-baseline="no-change"
            fill="#000000"
            fill-opacity="1.000000"
            xml:space="preserve"
            font-size="6"
            text-anchor="middle"
            x="0.000000"
            y="0"
><tspan font-family="sans-serif" font-style="normal" font-weight="normal">&#x36;</tspan></text>
        </g>
      </g>
    </g>
    <clipPath
      id="text-clipping95"
      >
      <polygon
        points="0.000000,0.000000 0.000000,349.986267 800.000000,349.986267 800.000000,0.000000"
        />
    </clipPath>
    <g
      clip-path="url(#text-clipping95)"
      >
      <g
        transform="matrix(1.000000 0.000000 0.000000 -1.000000 599.993896 28.101444)"
        >
        <g
          transform="matrix(1.0 0.0 0.0 1.0 0.0 2.672784)"
          >
          <text
            dominant-baseline="no-change"
            fill="#000000"
            fill-opacity="1.000000"
            xml:space="preserve"
            font-size="6"
            text-anchor="middle"
            x="0.000000"
            y="0"
><tspan font-family="sans-serif" font-style="normal" font-weight="normal">&#x38;</tspan></text>
        </g>
      </g>
    </g>
    <clipPath
      id="text-clipping96"
      >
      <polygon
        points="0.000000,0.000000 0.000000,349.986267 800.000000,349.986267 800.000000,0.000000"
        />
    </clipPath>
    <g
      clip-path="url(#text-clipping96)"
      >
      <g
        transform="matrix(1.000000 0.000000 0.000000 -1.000000 719.992676 28.101444)"
        >
        <g
          transform="matrix(1.0 0.0 0.0 1.0 0.0 2.672784)"
          >
          <text
            dominant-baseline="no-change"
            fill="#000000"
            fill-opacity="1.000000"
            xml:space="preserve"
            font-size="6"
            text-anchor="middle"
            x="0.000000"
            y="0"
><tspan font-family="sans-serif" font-style="normal" font-weight="normal">&#x31;&#x30;</tspan></text>
        </g>
      </g>
    </g>
    <clipPath
      id="text-clipping97"
      >
      <polygon
        points="0.000000,0.000000 0.000000,349.986267 800.000000,349.986267 800.000000,0.000000"
        />
    </clipPath>
    <g
      clip-path="url(#text-clipping97)"
      >
      <g
        transform="matrix(0.000000 1.000000 1.000000 -0.000000 113.089389 35.010834)"
        >
        <g
          transform="matrix(1.0 0.0 0.0 1.0 0.0 2.672784)"
          >
          <text
            dominant-baseline="no-change"
            fill="#000000"
            fill-opacity="1.000000"
            xml:space="preserve"
            font-size="6"
            text-anchor="middle"
            x="0.000000"
            y="0"
><tspan font-family="sans-serif" font-style="normal" font-weight="normal">&#x2d;&#x31;</tspan></text>
        </g>
      </g>
    </g>
    <clipPath
      id="text-clipping98"
      >
      <polygon
        points="0.000000,0.000000 0.000000,349.986267 800.000000,349.986267 800.000000,0.000000"
        />
    </clipPath>
    <g
      clip-path="url(#text-clipping98)"
      >
      <g
        transform="matrix(0.000000 1.000000 1.000000 -0.000000 113.089389 66.505936)"
        >
        <g
          transform="matrix(1.0 0.0 0.0 1.0 0.0 2.672784)"
          >
          <text
            dominant-baseline="no-change"
            fill="#000000"
            fill-opacity="1.000000"
            xml:space="preserve"
            font-size="6"
            text-anchor="middle"
            x="0.000000"
            y="0"
><tspan font-family="sans-serif" font-style="normal" font-weight="normal">&#x30;</tspan></text>
        </g>
      </g>
    </g>
    <clipPath
      id="text-clipping99"
      >
      <polygon
        points="0.000000,0.000000 0.000000,349.986267 800.000000,349.986267 800.000000,0.000000"
        />
    </clipPath>
    <g
      clip-path="url(#text-clipping99)"
      >
      <g
        transform="matrix(0.000000 1.000000 1.000000 -0.000000 113.089389 98.001038)"
        >
        <g
          transform="matrix(1.0 0.0 0.0 1.0 0.0 2.672784)"
          >
          <text
            dominant-baseline="no-change"
            fill="#000000"
            fill-opacity="1.000000"
            xml:space="preserve"
            font-size="6"
            text-anchor="middle"
            x="0.000000"
            y="0"
><tspan font-family="sans-serif" font-style="normal" font-weight="normal">&#x31;</tspan></text>
        </g>
      </g>
    </g>
    <polyline
      stroke-width="1"
      stroke="#0000FF"
      stroke-opacity="1.000000"
      fill="none"
      points="120.00,66.51 120.58,71.22 121.20,75.76 121.81,80.08 122.39,83.99 123.00,87.43 123.59,90.31 124.20,92.61 124.78,94.29 125.39,95.34 
      126.00,95.85 126.59,95.83 127.20,95.39 127.79,94.63 128.40,93.66 129.01,92.53 129.59,91.43 130.20,90.38 130.79,89.50 131.40,88.85 
      131.99,88.45 132.60,88.33 133.21,88.48 133.79,88.87 134.40,89.46 134.99,90.19 135.60,90.99 136.19,91.80 136.80,92.53 137.41,93.14 
      137.99,93.56 138.60,93.78 139.19,93.75 139.80,93.51 140.39,93.04 141.00,92.41 141.61,91.65 142.19,90.85 142.80,90.04 143.39,89.33 
      144.00,88.77 144.58,88.43 145.19,88.33 145.81,88.50 146.39,88.94 147.00,89.63 147.59,90.55 148.20,91.60 148.78,92.73 149.39,93.83 
      150.00,94.78 150.59,95.51 151.20,95.88 151.79,95.80 152.40,95.22 152.98,94.05 153.59,92.26 154.20,89.87 154.79,86.89 155.40,83.35 
      155.99,79.37 156.60,75.03 157.21,70.41 157.79,65.70 158.40,61.01 158.99,56.50 159.60,52.25 160.19,48.41 160.80,45.05 161.41,42.26 
      161.99,40.06 162.60,38.50 163.19,37.55 163.80,37.13 164.38,37.21 165.00,37.72 165.61,38.53 166.19,39.55 166.80,40.65 167.39,41.77 
      168.00,42.80 168.58,43.63 169.19,44.24 169.80,44.61 170.39,44.68 171.00,44.48 171.59,44.07 172.20,43.43 172.78,42.70 173.39,41.90 
      174.00,41.09 174.59,40.36 175.20,39.80 175.79,39.38 176.40,39.21 176.98,39.28 177.59,39.58 178.20,40.06 178.79,40.72 179.40,41.48 
      179.99,42.29 180.60,43.09 181.21,43.78 181.79,44.31 182.40,44.61 182.99,44.68 183.60,44.46 184.19,43.97 184.80,43.24 185.41,42.29 
      185.99,41.21 186.60,40.09 187.19,39.01 187.80,38.09 188.38,37.43 189.00,37.11 189.61,37.28 190.19,37.97 190.80,39.21 191.39,41.11 
      192.00,43.60 192.58,46.68 193.19,50.29 193.80,54.35 194.39,58.74 195.00,63.38 195.59,68.09 196.20,72.76 196.78,77.25 197.39,81.45 
      198.00,85.21 198.59,88.45 199.20,91.16 199.79,93.24 200.40,94.71 200.98,95.58 201.59,95.90 202.20,95.73 202.79,95.17 203.40,94.31 
      203.99,93.29 204.60,92.17 205.18,91.07 205.79,90.07 206.40,89.26 206.99,88.67 207.60,88.38 208.19,88.36 208.80,88.58 209.41,89.04 
      209.99,89.68 210.60,90.46 211.19,91.26 211.80,92.04 212.38,92.75 212.99,93.31 213.61,93.66 214.19,93.80 214.80,93.70 215.39,93.39 
      216.00,92.85 216.58,92.17 217.19,91.38 217.80,90.58 218.39,89.80 219.00,89.14 219.59,88.65 220.20,88.36 220.78,88.36 221.39,88.63 
      222.00,89.14 222.59,89.92 223.20,90.90 223.79,91.97 224.40,93.12 224.98,94.17 225.59,95.05 226.20,95.66 226.79,95.90 227.40,95.66 
      227.99,94.88 228.60,93.51 229.18,91.53 229.79,88.94 230.40,85.77 230.99,82.06 231.60,77.93 232.18,73.49 232.80,68.85 233.38,64.11 
      233.99,59.47 234.60,55.03 235.19,50.90 235.80,47.22 236.38,44.04 236.99,41.46 237.60,39.48 238.19,38.11 238.80,37.35 239.39,37.11 
      240.00,37.35 240.58,37.97 241.19,38.84 241.80,39.92 242.39,41.04 243.00,42.12 243.59,43.09 244.20,43.87 244.78,44.39 245.39,44.65 
      246.00,44.63 246.59,44.36 247.20,43.87 247.79,43.19 248.40,42.43 248.98,41.60 249.59,40.82 250.20,40.16 250.79,39.63 251.40,39.31 
      251.99,39.21 252.60,39.36 253.18,39.70 253.79,40.26 254.40,40.97 254.99,41.75 255.60,42.58 256.18,43.34 256.79,43.97 257.38,44.43 
      257.99,44.65 258.60,44.63 259.19,44.31 259.80,43.75 260.38,42.95 260.99,41.94 261.58,40.85 262.19,39.72 262.80,38.67 263.39,37.82 
      264.00,37.28 264.58,37.11 265.19,37.43 265.80,38.31 266.39,39.80 267.00,41.87 267.59,44.58 268.20,47.83 268.78,51.61 269.39,55.79 
      270.00,60.28 270.59,64.97 271.20,69.68 271.79,74.29 272.40,78.69 272.98,82.77 "/>
    <polyline
      stroke-width="1"
      stroke="#0000FF"
      stroke-opacity="1.000000"
      fill="none"
      points="272.98,82.77 273.59,86.36 274.20,89.43 274.79,91.92 275.40,93.80 275.98,95.07 276.60,95.73 277.18,95.90 277.79,95.58 278.40,94.92 
      278.99,94.00 279.60,92.90 280.18,91.78 280.79,90.70 281.38,89.77 281.99,89.04 282.60,88.55 283.19,88.33 283.80,88.41 284.38,88.70 
      284.99,89.24 285.58,89.94 286.19,90.73 286.80,91.53 287.39,92.29 288.00,92.95 288.58,93.46 289.19,93.73 289.78,93.80 290.39,93.61 
      291.00,93.22 291.59,92.63 292.20,91.92 292.78,91.12 293.39,90.31 294.00,89.55 294.59,88.94 295.20,88.53 295.79,88.33 296.40,88.41 
      296.98,88.77 297.59,89.38 298.20,90.24 298.79,91.24 299.40,92.36 299.98,93.48 300.60,94.49 301.18,95.29 301.79,95.80 302.40,95.88 
      302.99,95.46 303.60,94.49 304.18,92.92 304.79,90.73 305.38,87.92 305.99,84.57 306.60,80.72 307.19,76.47 307.80,71.95 308.38,67.26 
      308.99,62.55 309.58,57.96 310.19,53.59 310.80,49.61 311.39,46.10 312.00,43.12 312.58,40.72 313.19,38.94 313.78,37.79 314.39,37.21 
      315.00,37.13 315.59,37.53 316.20,38.23 316.78,39.19 317.39,40.28 317.98,41.41 318.59,42.48 319.20,43.39 319.79,44.07 320.40,44.51 
      320.98,44.68 321.59,44.58 322.20,44.22 322.79,43.65 323.40,42.95 323.98,42.16 324.59,41.33 325.18,40.60 325.79,39.97 326.40,39.50 
      326.99,39.26 327.60,39.23 328.18,39.45 328.79,39.87 329.38,40.48 329.99,41.24 330.60,42.04 331.19,42.82 331.80,43.56 332.38,44.14 
      332.99,44.53 333.58,44.68 334.19,44.56 334.80,44.17 335.39,43.51 336.00,42.63 336.58,41.58 337.19,40.46 337.78,39.36 338.39,38.36 
      339.00,37.60 339.59,37.16 340.20,37.16 340.78,37.67 341.39,38.75 341.98,40.41 342.59,42.73 343.20,45.61 343.78,49.05 344.40,52.98 
      344.98,57.28 345.59,61.84 346.18,66.55 346.79,71.24 347.40,75.81 347.98,80.10 348.59,84.01 349.18,87.45 349.79,90.33 350.40,92.63 
      350.99,94.29 351.60,95.36 352.18,95.85 352.79,95.83 353.38,95.39 353.99,94.63 354.60,93.63 355.19,92.53 355.80,91.41 356.38,90.38 
      356.99,89.50 357.58,88.85 358.19,88.45 358.80,88.33 359.39,88.48 360.00,88.87 360.58,89.46 361.19,90.19 361.78,90.99 362.39,91.80 
      363.00,92.53 363.59,93.14 364.20,93.56 364.78,93.78 365.39,93.75 365.98,93.51 366.59,93.04 367.20,92.41 367.78,91.65 368.40,90.85 
      368.98,90.04 369.59,89.33 370.18,88.77 370.79,88.43 371.40,88.33 371.98,88.50 372.59,88.94 373.18,89.65 373.79,90.55 374.38,91.60 
      374.99,92.75 375.60,93.83 376.18,94.78 376.79,95.51 377.38,95.88 377.99,95.80 378.60,95.19 379.19,94.02 379.80,92.24 380.38,89.85 
      380.99,86.87 381.58,83.33 382.19,79.32 382.80,74.98 383.39,70.39 384.00,65.68 384.58,60.99 385.19,56.45 385.78,52.22 386.39,48.37 
      387.00,45.02 387.59,42.24 388.20,40.06 388.78,38.50 389.39,37.53 389.98,37.13 390.59,37.23 391.20,37.72 391.78,38.53 392.39,39.55 
      392.98,40.68 393.59,41.77 394.18,42.80 394.79,43.63 395.40,44.26 395.98,44.61 396.59,44.68 397.18,44.48 397.79,44.04 398.38,43.43 
      398.99,42.68 399.60,41.87 400.18,41.09 400.79,40.36 401.38,39.77 401.99,39.38 402.58,39.21 403.19,39.28 403.80,39.58 404.38,40.06 
      404.99,40.72 405.58,41.48 406.19,42.31 406.80,43.09 407.39,43.78 408.00,44.31 408.58,44.61 409.19,44.68 409.78,44.46 410.39,43.97 
      411.00,43.21 411.58,42.29 412.20,41.21 412.78,40.09 413.39,39.01 413.98,38.09 414.59,37.43 415.20,37.11 415.78,37.28 416.39,37.97 
      416.98,39.23 417.59,41.11 418.18,43.63 418.79,46.71 419.40,50.32 419.98,54.40 420.59,58.79 421.18,63.43 421.79,68.14 422.38,72.80 
      422.99,77.30 423.60,81.47 424.18,85.23 424.79,88.50 425.38,91.19 425.99,93.26 "/>
    <polyline
      stroke-width="1"
      stroke="#0000FF"
      stroke-opacity="1.000000"
      fill="none"
      points="425.99,93.26 426.58,94.71 427.19,95.58 427.80,95.90 428.38,95.73 428.99,95.17 429.58,94.31 430.19,93.26 430.77,92.14 431.39,91.04 
      432.00,90.07 432.58,89.26 433.19,88.67 433.78,88.38 434.39,88.36 435.00,88.58 435.58,89.04 436.19,89.70 436.78,90.46 437.39,91.26 
      437.98,92.07 438.59,92.75 439.20,93.31 439.78,93.66 440.39,93.80 440.98,93.70 441.59,93.36 442.18,92.85 442.79,92.17 443.40,91.38 
      443.98,90.58 444.59,89.80 445.18,89.14 445.79,88.63 446.38,88.36 446.99,88.36 447.60,88.63 448.18,89.16 448.79,89.92 449.38,90.90 
      449.99,91.99 450.58,93.12 451.19,94.17 451.80,95.07 452.38,95.68 452.99,95.90 453.58,95.66 454.19,94.88 454.77,93.51 455.38,91.51 
      456.00,88.92 456.58,85.72 457.19,82.03 457.78,77.91 458.39,73.46 458.97,68.80 459.58,64.09 460.19,59.43 460.78,54.98 461.39,50.88 
      461.98,47.19 462.59,44.02 463.20,41.43 463.78,39.45 464.39,38.11 464.98,37.33 465.59,37.11 466.18,37.35 466.79,37.97 467.40,38.87 
      467.98,39.92 468.59,41.04 469.18,42.14 469.79,43.09 470.38,43.87 470.99,44.41 471.60,44.65 472.18,44.63 472.79,44.36 473.38,43.87 
      473.99,43.19 474.58,42.41 475.19,41.60 475.80,40.82 476.38,40.14 476.99,39.63 477.58,39.31 478.19,39.21 478.77,39.36 479.38,39.72 
      480.00,40.26 480.58,40.97 481.19,41.77 481.78,42.58 482.39,43.34 482.97,43.97 483.58,44.43 484.19,44.65 484.78,44.63 485.39,44.31 
      485.98,43.75 486.59,42.92 487.20,41.92 487.78,40.82 488.39,39.70 488.98,38.67 489.59,37.82 490.18,37.28 490.79,37.11 491.40,37.45 
      491.98,38.33 492.59,39.80 493.18,41.90 493.79,44.61 494.38,47.88 494.99,51.64 495.60,55.84 496.18,60.33 496.79,64.99 497.38,69.73 
      497.99,74.34 498.57,78.74 499.19,82.79 499.80,86.38 500.38,89.46 500.99,91.95 501.58,93.83 502.19,95.07 502.77,95.75 503.38,95.90 
      503.99,95.58 504.58,94.90 505.19,93.97 505.78,92.90 506.39,91.78 506.97,90.70 507.58,89.77 508.19,89.04 508.78,88.55 509.39,88.33 
      509.98,88.41 510.59,88.72 511.17,89.24 511.78,89.94 512.39,90.73 512.98,91.53 513.59,92.31 514.18,92.97 514.79,93.46 515.40,93.73 
      515.98,93.80 516.59,93.61 517.18,93.22 517.79,92.63 518.38,91.90 518.99,91.12 519.60,90.31 520.18,89.55 520.79,88.94 521.38,88.53 
      521.99,88.33 522.57,88.41 523.18,88.77 523.80,89.38 524.38,90.24 524.99,91.26 525.58,92.36 526.19,93.48 526.77,94.51 527.38,95.32 
      527.99,95.80 528.58,95.88 529.19,95.46 529.78,94.49 530.39,92.90 530.97,90.70 531.58,87.89 532.19,84.55 532.78,80.69 533.39,76.44 
      533.98,71.90 534.59,67.21 535.17,62.50 535.78,57.91 536.39,53.57 536.98,49.59 537.59,46.07 538.18,43.09 538.79,40.70 539.37,38.94 
      539.98,37.79 540.59,37.21 541.18,37.13 541.79,37.53 542.37,38.23 542.99,39.21 543.60,40.31 544.18,41.43 544.79,42.48 545.38,43.39 
      545.99,44.07 546.57,44.51 547.18,44.68 547.80,44.58 548.38,44.22 548.99,43.65 549.58,42.95 550.19,42.14 550.77,41.33 551.38,40.58 
      551.99,39.94 552.58,39.50 553.19,39.26 553.78,39.23 554.39,39.45 554.97,39.87 555.58,40.50 556.19,41.24 556.78,42.04 557.39,42.85 
      557.98,43.56 558.59,44.17 559.17,44.53 559.78,44.68 560.39,44.56 560.98,44.14 561.59,43.48 562.18,42.60 562.79,41.58 563.37,40.46 
      563.98,39.33 564.59,38.36 565.18,37.60 565.79,37.16 566.37,37.16 566.99,37.67 567.57,38.75 568.18,40.43 568.79,42.73 569.38,45.63 
      569.99,49.07 570.57,53.00 571.18,57.33 571.79,61.89 572.38,66.58 572.99,71.29 573.58,75.86 574.19,80.15 574.77,84.06 575.38,87.48 
      575.99,90.36 576.58,92.65 577.19,94.31 577.78,95.36 578.39,95.85 578.97,95.83 "/>
    <polyline
      stroke-width="1"
      stroke="#0000FF"
      stroke-opacity="1.000000"
      fill="none"
      points="578.97,95.83 579.58,95.39 580.19,94.61 580.78,93.63 581.39,92.53 581.98,91.41 582.59,90.36 583.17,89.48 583.78,88.85 584.39,88.45 
      584.98,88.33 585.59,88.48 586.18,88.87 586.79,89.46 587.37,90.19 587.98,90.99 588.59,91.80 589.18,92.53 589.79,93.14 590.37,93.58 
      590.98,93.78 591.57,93.75 592.18,93.51 592.79,93.04 593.38,92.41 593.99,91.65 594.57,90.82 595.18,90.04 595.77,89.33 596.38,88.77 
      596.99,88.43 597.58,88.33 598.19,88.50 598.77,88.94 599.38,89.65 599.99,90.55 600.58,91.63 601.19,92.75 601.78,93.85 602.39,94.80 
      602.97,95.51 603.58,95.88 604.19,95.80 604.78,95.19 605.39,94.02 605.98,92.24 606.59,89.82 607.17,86.82 607.78,83.30 608.39,79.30 
      608.98,74.93 609.59,70.34 610.17,65.63 610.79,60.94 611.37,56.42 611.98,52.17 612.59,48.34 613.18,45.00 613.79,42.21 614.37,40.04 
      614.98,38.48 615.57,37.53 616.18,37.13 616.79,37.23 617.38,37.72 617.99,38.55 618.57,39.55 619.18,40.68 619.77,41.80 620.38,42.80 
      620.99,43.65 621.58,44.26 622.19,44.61 622.77,44.68 623.38,44.48 623.97,44.04 624.58,43.43 625.19,42.68 625.78,41.87 626.39,41.07 
      626.97,40.36 627.58,39.77 628.19,39.38 628.78,39.21 629.39,39.28 629.98,39.58 630.59,40.06 631.17,40.72 631.78,41.51 632.39,42.31 
      632.98,43.09 633.59,43.78 634.17,44.31 634.78,44.63 635.37,44.68 635.98,44.46 636.59,43.95 637.18,43.21 637.79,42.26 638.37,41.19 
      638.98,40.06 639.57,38.99 640.18,38.06 640.79,37.40 641.38,37.11 641.99,37.28 642.57,37.97 643.18,39.26 643.77,41.14 644.38,43.65 
      644.99,46.73 645.58,50.37 646.19,54.42 646.77,58.84 647.38,63.45 647.97,68.17 648.58,72.85 649.19,77.32 649.78,81.50 650.39,85.26 
      650.97,88.53 651.58,91.19 652.17,93.26 652.78,94.73 653.39,95.58 653.98,95.90 654.59,95.73 655.17,95.17 655.78,94.31 656.39,93.26 
      656.98,92.14 657.59,91.04 658.17,90.04 658.78,89.24 659.37,88.67 659.98,88.38 660.59,88.36 661.18,88.58 661.79,89.04 662.37,89.70 
      662.98,90.46 663.57,91.26 664.18,92.07 664.79,92.75 665.38,93.31 665.99,93.68 666.57,93.80 667.18,93.70 667.77,93.36 668.38,92.85 
      668.99,92.17 669.58,91.38 670.19,90.55 670.77,89.80 671.38,89.11 671.97,88.63 672.58,88.36 673.19,88.36 673.78,88.63 674.39,89.16 
      674.97,89.94 675.58,90.92 676.17,91.99 676.78,93.12 677.39,94.19 677.97,95.07 678.59,95.68 679.17,95.90 679.78,95.66 680.37,94.88 
      680.98,93.48 681.59,91.48 682.17,88.89 682.78,85.70 683.37,82.01 683.98,77.86 684.59,73.42 685.18,68.75 685.79,64.04 686.37,59.40 
      686.98,54.96 687.57,50.83 688.18,47.17 688.79,44.00 689.38,41.41 689.99,39.45 690.57,38.09 691.18,37.33 691.77,37.11 692.38,37.35 
      692.99,37.97 693.58,38.87 694.19,39.94 694.77,41.07 695.38,42.14 695.97,43.12 696.58,43.87 697.19,44.41 697.78,44.65 698.39,44.63 
      698.97,44.36 699.58,43.85 700.17,43.19 700.78,42.41 701.39,41.60 701.97,40.82 702.58,40.14 703.17,39.63 703.78,39.31 704.37,39.21 
      704.98,39.36 705.59,39.72 706.17,40.28 706.78,40.97 707.37,41.77 707.98,42.58 708.57,43.34 709.18,43.97 709.79,44.43 710.37,44.65 
      710.98,44.63 711.57,44.31 712.18,43.73 712.79,42.92 713.38,41.92 713.99,40.82 714.57,39.70 715.18,38.67 715.77,37.82 716.38,37.26 
      716.99,37.11 717.58,37.45 718.19,38.33 718.77,39.82 719.38,41.92 "/>
    <clipPath
      id="text-clipping100"
      >
      <polygon
        points="0.000000,0.000000 0.000000,349.986267 800.000000,349.986267 800.000000,0.000000"
        />
    </clipPath>
    <g
      clip-path="url(#text-clipping100)"
      >
      <g
        transform="matrix(0.000000 1.000000 1.000000 -0.000000 92.410047 66.505936)"
        >
        <g
          transform="matrix(1.0 0.0 0.0 1.0 0.0 3.759176)"
          >
          <text
            dominant-baseline="no-change"
            fill="#000000"
            fill-opacity="1.000000"
            xml:space="preserve"
            font-size="9"
            text-anchor="middle"
            x="0.000000"
            y="0"
><tspan font-family="sans-serif" font-style="normal" font-weight="normal">&#x53;&#x75;&#x6d;</tspan></text>
        </g>
      </g>
    </g>
    <polyline
      stroke-width="1"
      stroke="#000000"
      stroke-opacity="1.000000"
      fill="none"
      points="120.00,105.01 719.99,105.01"
      />
    <polyline
      stroke-width="1"
      stroke="#000000"
      stroke-opacity="1.000000"
      fill="none"
      points="719.99,105.01 719.99,168.00"
      />
    <polyline
      stroke-width="1"
      stroke="#000000"
      stroke-opacity="1.000000"
      fill="none"
      points="714.82,105.01 719.99,105.01"
      />
    <polyline
      stroke-width="1"
      stroke="#000000"
      stroke-opacity="1.000000"
      fill="none"
      points="714.82,136.50 719.99,136.50"
      />
    <polyline
      stroke-width="1"
      stroke="#000000"
      stroke-opacity="1.000000"
      fill="none"
      points="714.82,168.00 719.99,168.00"
      />
    <polyline
      stroke-width="1"
      stroke="#000000"
      stroke-opacity="1.000000"
      fill="none"
      points="719.99,168.00 120.00,168.00"
      />
    <polyline
      stroke-width="1"
      stroke="#000000"
      stroke-opacity="1.000000"
      fill="none"
      points="120.00,168.00 120.00,105.01"
      />
    <polyline
      stroke-width="1"
      stroke="#000000"
      stroke-opacity="1.000000"
      fill="none"
      points="120.00,168.00 125.17,168.00"
      />
    <polyline
      stroke-width="1"
      stroke="#000000"
      stroke-opacity="1.000000"
      fill="none"
      points="120.00,136.50 125.17,136.50"
      />
    <polyline
      stroke-width="1"
      stroke="#000000"
      stroke-opacity="1.000000"
      fill="none"
      points="120.00,105.01 125.17,105.01"
      />
    <clipPath
      id="text-clipping101"
      >
      <polygon
        points="0.000000,0.000000 0.000000,349.986267 800.000000,349.986267 800.000000,0.000000"
        />
    </clipPath>
    <g
      clip-path="url(#text-clipping101)"
      >
      <g
        transform="matrix(0.000000 1.000000 1.000000 -0.000000 113.089389 105.008087)"
        >
        <g
          transform="matrix(1.0 0.0 0.0 1.0 0.0 2.672784)"
          >
          <text
            dominant-baseline="no-change"
            fill="#000000"
            fill-opacity="1.000000"
            xml:space="preserve"
            font-size="6"
            text-anchor="middle"
            x="0.000000"
            y="0"
><tspan font-family="sans-serif" font-style="normal" font-weight="normal">&#x2d;&#x31;</tspan></text>
        </g>
      </g>
    </g>
    <clipPath
      id="text-clipping102"
      >
      <polygon
        points="0.000000,0.000000 0.000000,349.986267 800.000000,349.986267 800.000000,0.000000"
        />
    </clipPath>
    <g
      clip-path="url(#text-clipping102)"
      >
      <g
        transform="matrix(0.000000 1.000000 1.000000 -0.000000 113.089389 136.503189)"
        >
        <g
          transform="matrix(1.0 0.0 0.0 1.0 0.0 2.672784)"
          >
          <text
            dominant-baseline="no-change"
            fill="#000000"
            fill-opacity="1.000000"
            xml:space="preserve"
            font-size="6"
            text-anchor="middle"
            x="0.000000"
            y="0"
><tspan font-family="sans-serif" font-style="normal" font-weight="normal">&#x30;</tspan></text>
        </g>
      </g>
    </g>
    <clipPath
      id="text-clipping103"
      >
      <polygon
        points="0.000000,0.000000 0.000000,349.986267 800.000000,349.986267 800.000000,0.000000"
        />
    </clipPath>
    <g
      clip-path="url(#text-clipping103)"
      >
      <g
        transform="matrix(0.000000 1.000000 1.000000 -0.000000 113.089389 167.998291)"
        >
        <g
          transform="matrix(1.0 0.0 0.0 1.0 0.0 2.672784)"
          >
          <text
            dominant-baseline="no-change"
            fill="#000000"
            fill-opacity="1.000000"
            xml:space="preserve"
            font-size="6"
            text-anchor="middle"
            x="0.000000"
            y="0"
><tspan font-family="sans-serif" font-style="normal" font-weight="normal">&#x31;</tspan></text>
        </g>
      </g>
    </g>
    <polyline
      stroke-width="1"
      stroke="#00FF00"
      stroke-opacity="1.000000"
      fill="none"
      points="120.00,136.50 120.58,138.07 121.20,139.53 121.81,140.80 122.39,141.80 123.00,142.48 123.59,142.78 124.20,142.70 124.78,142.22 125.39,141.41 
      126.00,140.26 126.59,138.90 127.20,137.38 127.79,135.82 128.40,134.28 129.01,132.89 129.59,131.74 130.20,130.86 130.79,130.35 131.40,130.20 
      131.99,130.45 132.60,131.08 133.21,132.06 133.79,133.30 134.40,134.75 134.99,136.28 135.60,137.85 136.19,139.34 136.80,140.63 137.41,141.68 
      137.99,142.41 138.60,142.75 139.19,142.73 139.80,142.31 140.39,141.53 141.00,140.43 141.61,139.09 142.19,137.60 142.80,136.01 143.39,134.48 
      144.00,133.09 144.58,131.86 145.19,130.96 145.81,130.40 146.39,130.20 147.00,130.40 147.59,130.99 148.20,131.91 148.78,133.11 149.39,134.55 
      150.00,136.09 150.59,137.65 151.20,139.14 151.79,140.48 152.40,141.56 152.98,142.34 153.59,142.73 154.20,142.75 154.79,142.39 155.40,141.65 
      155.99,140.60 156.60,139.29 157.21,137.80 157.79,136.23 158.40,134.70 158.99,133.26 159.60,132.01 160.19,131.06 160.80,130.45 161.41,130.20 
      161.99,130.35 162.60,130.89 163.19,131.77 163.80,132.94 164.38,134.35 165.00,135.87 165.61,137.46 166.19,138.94 166.80,140.31 167.39,141.43 
      168.00,142.24 168.58,142.70 169.19,142.78 169.80,142.46 170.39,141.78 171.00,140.75 171.59,139.48 172.20,138.02 172.78,136.45 173.39,134.89 
      174.00,133.43 174.59,132.16 175.20,131.18 175.79,130.50 176.40,130.20 176.98,130.30 177.59,130.79 178.20,131.64 178.79,132.77 179.40,134.16 
      179.99,135.67 180.60,137.24 181.21,138.77 181.79,140.14 182.40,141.31 182.99,142.17 183.60,142.68 184.19,142.80 184.80,142.53 185.41,141.87 
      185.99,140.90 186.60,139.65 187.19,138.21 187.80,136.65 188.38,135.09 189.00,133.62 189.61,132.33 190.19,131.28 190.80,130.57 191.39,130.23 
      192.00,130.28 192.58,130.72 193.19,131.50 193.80,132.62 194.39,133.96 195.00,135.45 195.59,137.04 196.20,138.55 196.78,139.97 197.39,141.17 
      198.00,142.07 198.59,142.63 199.20,142.80 199.79,142.58 200.40,142.00 200.98,141.04 201.59,139.82 202.20,138.41 202.79,136.87 203.40,135.31 
      203.99,133.79 204.60,132.47 205.18,131.40 205.79,130.64 206.40,130.25 206.99,130.25 207.60,130.64 208.19,131.38 208.80,132.45 209.41,133.77 
      209.99,135.26 210.60,136.82 211.19,138.36 211.80,139.80 212.38,141.02 212.99,141.97 213.61,142.58 214.19,142.80 214.80,142.63 215.39,142.09 
      216.00,141.19 216.58,140.02 217.19,138.60 217.80,137.06 218.39,135.50 219.00,133.99 219.59,132.65 220.20,131.52 220.78,130.72 221.39,130.28 
      222.00,130.23 222.59,130.57 223.20,131.25 223.79,132.28 224.40,133.57 224.98,135.04 225.59,136.60 226.20,138.16 226.79,139.63 227.40,140.87 
      227.99,141.85 228.60,142.51 229.18,142.80 229.79,142.68 230.40,142.19 230.99,141.34 231.60,140.19 232.18,138.80 232.80,137.28 233.38,135.70 
      233.99,134.18 234.60,132.82 235.19,131.67 235.80,130.81 236.38,130.33 236.99,130.20 237.60,130.50 238.19,131.16 238.80,132.13 239.39,133.40 
      240.00,134.84 240.58,136.41 241.19,137.97 241.80,139.43 242.39,140.73 243.00,141.75 243.59,142.44 244.20,142.78 244.78,142.70 245.39,142.27 
      246.00,141.46 246.59,140.34 247.20,138.99 247.79,137.48 248.40,135.92 248.98,134.38 249.59,132.99 250.20,131.79 250.79,130.91 251.40,130.38 
      251.99,130.20 252.60,130.42 253.18,131.03 253.79,131.99 254.40,133.21 254.99,134.65 255.60,136.19 256.18,137.75 256.79,139.24 257.38,140.56 
      257.99,141.63 258.60,142.36 259.19,142.75 259.80,142.75 260.38,142.34 260.99,141.58 261.58,140.51 262.19,139.19 262.80,137.70 263.39,136.11 
      264.00,134.57 264.58,133.16 265.19,131.94 265.80,131.01 266.39,130.42 267.00,130.20 267.59,130.38 268.20,130.94 268.78,131.84 269.39,133.04 
      270.00,134.45 270.59,135.99 271.20,137.55 271.79,139.07 272.40,140.41 272.98,141.51 "/>
    <polyline
      stroke-width="1"
      stroke="#00FF00"
      stroke-opacity="1.000000"
      fill="none"
      points="272.98,141.51 273.59,142.29 274.20,142.73 274.79,142.78 275.40,142.41 275.98,141.70 276.60,140.68 277.18,139.38 277.79,137.89 278.40,136.33 
      278.99,134.77 279.60,133.33 280.18,132.08 280.79,131.11 281.38,130.47 281.99,130.20 282.60,130.33 283.19,130.84 283.80,131.72 284.38,132.87 
      284.99,134.26 285.58,135.77 286.19,137.36 286.80,138.87 287.39,140.24 288.00,141.39 288.58,142.22 289.19,142.68 289.78,142.78 290.39,142.48 
      291.00,141.83 291.59,140.82 292.20,139.56 292.78,138.09 293.39,136.55 294.00,134.99 294.59,133.52 295.20,132.23 295.79,131.23 296.40,130.55 
      296.98,130.23 297.59,130.30 298.20,130.77 298.79,131.57 299.40,132.69 299.98,134.06 300.60,135.58 301.18,137.14 301.79,138.68 302.40,140.07 
      302.99,141.24 303.60,142.12 304.18,142.66 304.79,142.80 305.38,142.56 305.99,141.92 306.60,140.97 307.19,139.73 307.80,138.31 308.38,136.75 
      308.99,135.18 309.58,133.70 310.19,132.40 310.80,131.35 311.39,130.59 312.00,130.23 312.58,130.25 313.19,130.67 313.78,131.45 314.39,132.52 
      315.00,133.87 315.59,135.36 316.20,136.94 316.78,138.48 317.39,139.90 317.98,141.09 318.59,142.02 319.20,142.61 319.79,142.80 320.40,142.61 
      320.98,142.05 321.59,141.12 322.20,139.92 322.79,138.51 323.40,136.97 323.98,135.38 324.59,133.89 325.18,132.55 325.79,131.47 326.40,130.69 
      326.99,130.28 327.60,130.23 328.18,130.59 328.79,131.33 329.38,132.38 329.99,133.67 330.60,135.16 331.19,136.72 331.80,138.29 332.38,139.73 
      332.99,140.95 333.58,141.92 334.19,142.53 334.80,142.80 335.39,142.66 336.00,142.14 336.58,141.26 337.19,140.09 337.78,138.70 338.39,137.16 
      339.00,135.60 339.59,134.09 340.20,132.72 340.78,131.60 341.39,130.77 341.98,130.30 342.59,130.23 343.20,130.52 343.78,131.21 344.40,132.21 
      344.98,133.50 345.59,134.97 346.18,136.50 346.79,138.07 347.40,139.53 347.98,140.80 348.59,141.80 349.18,142.48 349.79,142.78 350.40,142.70 
      350.99,142.22 351.60,141.39 352.18,140.26 352.79,138.90 353.38,137.38 353.99,135.80 354.60,134.28 355.19,132.89 355.80,131.72 356.38,130.86 
      356.99,130.35 357.58,130.20 358.19,130.47 358.80,131.11 359.39,132.06 360.00,133.30 360.58,134.75 361.19,136.31 361.78,137.87 362.39,139.36 
      363.00,140.65 363.59,141.70 364.20,142.41 364.78,142.78 365.39,142.73 365.98,142.31 366.59,141.53 367.20,140.43 367.78,139.09 368.40,137.58 
      368.98,136.01 369.59,134.48 370.18,133.06 370.79,131.86 371.40,130.96 371.98,130.38 372.59,130.20 373.18,130.40 373.79,130.99 374.38,131.91 
      374.99,133.13 375.60,134.55 376.18,136.09 376.79,137.68 377.38,139.16 377.99,140.48 378.60,141.58 379.19,142.34 379.80,142.75 380.38,142.75 
      380.99,142.39 381.58,141.65 382.19,140.58 382.80,139.26 383.39,137.80 384.00,136.21 384.58,134.67 385.19,133.23 385.78,132.01 386.39,131.06 
      387.00,130.45 387.59,130.20 388.20,130.35 388.78,130.89 389.39,131.79 389.98,132.96 390.59,134.35 391.20,135.89 391.78,137.46 392.39,138.97 
      392.98,140.34 393.59,141.43 394.18,142.27 394.79,142.70 395.40,142.78 395.98,142.46 396.59,141.75 397.18,140.75 397.79,139.46 398.38,137.99 
      398.99,136.43 399.60,134.87 400.18,133.43 400.79,132.16 401.38,131.16 401.99,130.50 402.58,130.20 403.19,130.33 403.80,130.79 404.38,131.64 
      404.99,132.79 405.58,134.16 406.19,135.67 406.80,137.26 407.39,138.77 408.00,140.17 408.58,141.31 409.19,142.17 409.78,142.68 410.39,142.80 
      411.00,142.51 411.58,141.87 412.20,140.90 412.78,139.65 413.39,138.19 413.98,136.65 414.59,135.09 415.20,133.60 415.78,132.30 416.39,131.28 
      416.98,130.57 417.59,130.23 418.18,130.28 418.79,130.72 419.40,131.52 419.98,132.62 420.59,133.96 421.18,135.48 421.79,137.04 422.38,138.58 
      422.99,139.99 423.60,141.17 424.18,142.07 424.79,142.63 425.38,142.80 425.99,142.58 "/>
    <polyline
      stroke-width="1"
      stroke="#00FF00"
      stroke-opacity="1.000000"
      fill="none"
      points="425.99,142.58 426.58,141.97 427.19,141.04 427.80,139.82 428.38,138.38 428.99,136.84 429.58,135.28 430.19,133.79 430.77,132.47 431.39,131.40 
      432.00,130.64 432.58,130.25 433.19,130.25 433.78,130.64 434.39,131.38 435.00,132.45 435.58,133.77 436.19,135.26 436.78,136.84 437.39,138.38 
      437.98,139.80 438.59,141.04 439.20,141.97 439.78,142.58 440.39,142.80 440.98,142.63 441.59,142.07 442.18,141.19 442.79,139.99 443.40,138.60 
      443.98,137.06 444.59,135.48 445.18,133.99 445.79,132.62 446.38,131.52 446.99,130.72 447.60,130.28 448.18,130.23 448.79,130.57 449.38,131.28 
      449.99,132.30 450.58,133.60 451.19,135.06 451.80,136.63 452.38,138.19 452.99,139.63 453.58,140.87 454.19,141.87 454.77,142.51 455.38,142.80 
      456.00,142.68 456.58,142.17 457.19,141.31 457.78,140.17 458.39,138.80 458.97,137.26 459.58,135.70 460.19,134.18 460.78,132.79 461.39,131.64 
      461.98,130.81 462.59,130.33 463.20,130.20 463.78,130.50 464.39,131.16 464.98,132.16 465.59,133.40 466.18,134.87 466.79,136.41 467.40,137.97 
      467.98,139.46 468.59,140.73 469.18,141.75 469.79,142.46 470.38,142.78 470.99,142.70 471.60,142.27 472.18,141.46 472.79,140.34 473.38,138.99 
      473.99,137.48 474.58,135.89 475.19,134.38 475.80,132.96 476.38,131.79 476.99,130.91 477.58,130.35 478.19,130.20 478.77,130.45 479.38,131.06 
      480.00,131.99 480.58,133.23 481.19,134.67 481.78,136.21 482.39,137.77 482.97,139.26 483.58,140.58 484.19,141.63 484.78,142.39 485.39,142.75 
      485.98,142.75 486.59,142.34 487.20,141.58 487.78,140.51 488.39,139.16 488.98,137.68 489.59,136.11 490.18,134.57 490.79,133.13 491.40,131.94 
      491.98,131.01 492.59,130.40 493.18,130.20 493.79,130.38 494.38,130.94 494.99,131.86 495.60,133.06 496.18,134.45 496.79,135.99 497.38,137.58 
      497.99,139.07 498.57,140.41 499.19,141.51 499.80,142.29 500.38,142.73 500.99,142.78 501.58,142.41 502.19,141.70 502.77,140.65 503.38,139.36 
      503.99,137.87 504.58,136.31 505.19,134.77 505.78,133.33 506.39,132.08 506.97,131.11 507.58,130.47 508.19,130.20 508.78,130.33 509.39,130.84 
      509.98,131.72 510.59,132.87 511.17,134.26 511.78,135.80 512.39,137.36 512.98,138.87 513.59,140.24 514.18,141.39 514.79,142.22 515.40,142.70 
      515.98,142.78 516.59,142.48 517.18,141.83 517.79,140.82 518.38,139.56 518.99,138.09 519.60,136.53 520.18,134.97 520.79,133.50 521.38,132.23 
      521.99,131.21 522.57,130.52 523.18,130.23 523.80,130.30 524.38,130.77 524.99,131.57 525.58,132.72 526.19,134.06 526.77,135.58 527.38,137.16 
      527.99,138.68 528.58,140.07 529.19,141.24 529.78,142.12 530.39,142.66 530.97,142.80 531.58,142.56 532.19,141.92 532.78,140.97 533.39,139.73 
      533.98,138.29 534.59,136.75 535.17,135.18 535.78,133.70 536.39,132.38 536.98,131.33 537.59,130.59 538.18,130.23 538.79,130.25 539.37,130.67 
      539.98,131.45 540.59,132.55 541.18,133.89 541.79,135.38 542.37,136.94 542.99,138.48 543.60,139.90 544.18,141.12 544.79,142.02 545.38,142.61 
      545.99,142.80 546.57,142.61 547.18,142.02 547.80,141.12 548.38,139.90 548.99,138.48 549.58,136.94 550.19,135.38 550.77,133.89 551.38,132.55 
      551.99,131.45 552.58,130.67 553.19,130.25 553.78,130.23 554.39,130.59 554.97,131.33 555.58,132.38 556.19,133.70 556.78,135.18 557.39,136.75 
      557.98,138.29 558.59,139.73 559.17,140.97 559.78,141.92 560.39,142.56 560.98,142.80 561.59,142.66 562.18,142.12 562.79,141.24 563.37,140.07 
      563.98,138.68 564.59,137.16 565.18,135.58 565.79,134.06 566.37,132.72 566.99,131.57 567.57,130.77 568.18,130.30 568.79,130.23 569.38,130.52 
      569.99,131.21 570.57,132.23 571.18,133.50 571.79,134.97 572.38,136.53 572.99,138.09 573.58,139.56 574.19,140.82 574.77,141.83 575.38,142.48 
      575.99,142.78 576.58,142.70 577.19,142.22 577.78,141.39 578.39,140.24 578.97,138.87 "/>
    <polyline
      stroke-width="1"
      stroke="#00FF00"
      stroke-opacity="1.000000"
      fill="none"
      points="578.97,138.87 579.58,137.36 580.19,135.80 580.78,134.26 581.39,132.87 581.98,131.72 582.59,130.84 583.17,130.33 583.78,130.20 584.39,130.47 
      584.98,131.11 585.59,132.08 586.18,133.33 586.79,134.77 587.37,136.31 587.98,137.89 588.59,139.36 589.18,140.65 589.79,141.70 590.37,142.41 
      590.98,142.78 591.57,142.73 592.18,142.29 592.79,141.51 593.38,140.41 593.99,139.07 594.57,137.58 595.18,135.99 595.77,134.45 596.38,133.06 
      596.99,131.86 597.58,130.94 598.19,130.38 598.77,130.20 599.38,130.40 599.99,131.01 600.58,131.94 601.19,133.13 601.78,134.57 602.39,136.11 
      602.97,137.68 603.58,139.16 604.19,140.51 604.78,141.58 605.39,142.34 605.98,142.75 606.59,142.75 607.17,142.39 607.78,141.63 608.39,140.58 
      608.98,139.26 609.59,137.77 610.17,136.21 610.79,134.67 611.37,133.23 611.98,131.99 612.59,131.06 613.18,130.45 613.79,130.20 614.37,130.35 
      614.98,130.91 615.57,131.79 616.18,132.96 616.79,134.38 617.38,135.89 617.99,137.48 618.57,138.99 619.18,140.34 619.77,141.46 620.38,142.27 
      620.99,142.70 621.58,142.78 622.19,142.46 622.77,141.75 623.38,140.73 623.97,139.46 624.58,137.97 625.19,136.41 625.78,134.87 626.39,133.40 
      626.97,132.16 627.58,131.16 628.19,130.50 628.78,130.20 629.39,130.33 629.98,130.81 630.59,131.64 631.17,132.79 631.78,134.18 632.39,135.70 
      632.98,137.26 633.59,138.80 634.17,140.17 634.78,141.31 635.37,142.17 635.98,142.68 636.59,142.80 637.18,142.51 637.79,141.87 638.37,140.87 
      638.98,139.63 639.57,138.19 640.18,136.63 640.79,135.06 641.38,133.60 641.99,132.30 642.57,131.28 643.18,130.57 643.77,130.23 644.38,130.28 
      644.99,130.72 645.58,131.52 646.19,132.62 646.77,133.99 647.38,135.48 647.97,137.06 648.58,138.60 649.19,139.99 649.78,141.19 650.39,142.07 
      650.97,142.63 651.58,142.80 652.17,142.58 652.78,141.97 653.39,141.04 653.98,139.80 654.59,138.38 655.17,136.84 655.78,135.26 656.39,133.77 
      656.98,132.45 657.59,131.38 658.17,130.64 658.78,130.25 659.37,130.25 659.98,130.64 660.59,131.40 661.18,132.47 661.79,133.79 662.37,135.28 
      662.98,136.84 663.57,138.38 664.18,139.82 664.79,141.04 665.38,141.97 665.99,142.58 666.57,142.80 667.18,142.63 667.77,142.07 668.38,141.17 
      668.99,139.99 669.58,138.58 670.19,137.04 670.77,135.48 671.38,133.96 671.97,132.62 672.58,131.52 673.19,130.72 673.78,130.28 674.39,130.23 
      674.97,130.57 675.58,131.28 676.17,132.30 676.78,133.60 677.39,135.09 677.97,136.65 678.59,138.19 679.17,139.65 679.78,140.90 680.37,141.87 
      680.98,142.51 681.59,142.80 682.17,142.68 682.78,142.17 683.37,141.31 683.98,140.17 684.59,138.77 685.18,137.26 685.79,135.67 686.37,134.16 
      686.98,132.79 687.57,131.64 688.18,130.79 688.79,130.33 689.38,130.20 689.99,130.50 690.57,131.16 691.18,132.16 691.77,133.43 692.38,134.87 
      692.99,136.43 693.58,137.99 694.19,139.46 694.77,140.75 695.38,141.75 695.97,142.46 696.58,142.78 697.19,142.70 697.78,142.27 698.39,141.43 
      698.97,140.34 699.58,138.97 700.17,137.46 700.78,135.89 701.39,134.35 701.97,132.96 702.58,131.79 703.17,130.89 703.78,130.35 704.37,130.20 
      704.98,130.45 705.59,131.06 706.17,132.01 706.78,133.23 707.37,134.67 707.98,136.21 708.57,137.80 709.18,139.26 709.79,140.58 710.37,141.65 
      710.98,142.39 711.57,142.75 712.18,142.75 712.79,142.34 713.38,141.58 713.99,140.48 714.57,139.16 715.18,137.68 715.77,136.09 716.38,134.55 
      716.99,133.13 717.58,131.91 718.19,130.99 718.77,130.40 719.38,130.20 "/>
    <clipPath
      id="text-clipping104"
      >
      <polygon
        points="0.000000,0.000000 0.000000,349.986267 800.000000,349.986267 800.000000,0.000000"
        />
    </clipPath>
    <g
      clip-path="url(#text-clipping104)"
      >
      <g
        transform="matrix(0.000000 1.000000 1.000000 -0.000000 92.410047 136.503189)"
        >
        <g
          transform="matrix(1.0 0.0 0.0 1.0 0.0 3.759176)"
          >
          <text
            dominant-baseline="no-change"
            fill="#000000"
            fill-opacity="1.000000"
            xml:space="preserve"
            font-size="9"
            text-anchor="middle"
            x="0.000000"
            y="0"
><tspan font-family="sans-serif" font-style="normal" font-weight="normal">&#x35;&#x74;&#x68;</tspan></text>
        </g>
      </g>
    </g>
    <polyline
      stroke-width="1"
      stroke="#000000"
      stroke-opacity="1.000000"
      fill="none"
      points="120.00,175.01 719.99,175.01"
      />
    <polyline
      stroke-width="1"
      stroke="#000000"
      stroke-opacity="1.000000"
      fill="none"
      points="719.99,175.01 719.99,238.00"
      />
    <polyline
      stroke-width="1"
      stroke="#000000"
      stroke-opacity="1.000000"
      fill="none"
      points="714.82,175.01 719.99,175.01"
      />
    <polyline
      stroke-width="1"
      stroke="#000000"
      stroke-opacity="1.000000"
      fill="none"
      points="714.82,206.50 719.99,206.50"
      />
    <polyline
      stroke-width="1"
      stroke="#000000"
      stroke-opacity="1.000000"
      fill="none"
      points="714.82,238.00 719.99,238.00"
      />
    <polyline
      stroke-width="1"
      stroke="#000000"
      stroke-opacity="1.000000"
      fill="none"
      points="719.99,238.00 120.00,238.00"
      />
    <polyline
      stroke-width="1"
      stroke="#000000"
      stroke-opacity="1.000000"
      fill="none"
      points="120.00,238.00 120.00,175.01"
      />
    <polyline
      stroke-width="1"
      stroke="#000000"
      stroke-opacity="1.000000"
      fill="none"
      points="120.00,238.00 125.17,238.00"
      />
    <polyline
      stroke-width="1"
      stroke="#000000"
      stroke-opacity="1.000000"
      fill="none"
      points="120.00,206.50 125.17,206.50"
      />
    <polyline
      stroke-width="1"
      stroke="#000000"
      stroke-opacity="1.000000"
      fill="none"
      points="120.00,175.01 125.17,175.01"
      />
    <clipPath
      id="text-clipping105"
      >
      <polygon
        points="0.000000,0.000000 0.000000,349.986267 800.000000,349.986267 800.000000,0.000000"
        />
    </clipPath>
    <g
      clip-path="url(#text-clipping105)"
      >
      <g
        transform="matrix(0.000000 1.000000 1.000000 -0.000000 113.089389 175.005341)"
        >
        <g
          transform="matrix(1.0 0.0 0.0 1.0 0.0 2.672784)"
          >
          <text
            dominant-baseline="no-change"
            fill="#000000"
            fill-opacity="1.000000"
            xml:space="preserve"
            font-size="6"
            text-anchor="middle"
            x="0.000000"
            y="0"
><tspan font-family="sans-serif" font-style="normal" font-weight="normal">&#x2d;&#x31;</tspan></text>
        </g>
      </g>
    </g>
    <clipPath
      id="text-clipping106"
      >
      <polygon
        points="0.000000,0.000000 0.000000,349.986267 800.000000,349.986267 800.000000,0.000000"
        />
    </clipPath>
    <g
      clip-path="url(#text-clipping106)"
      >
      <g
        transform="matrix(0.000000 1.000000 1.000000 -0.000000 113.089389 206.500443)"
        >
        <g
          transform="matrix(1.0 0.0 0.0 1.0 0.0 2.672784)"
          >
          <text
            dominant-baseline="no-change"
            fill="#000000"
            fill-opacity="1.000000"
            xml:space="preserve"
            font-size="6"
            text-anchor="middle"
            x="0.000000"
            y="0"
><tspan font-family="sans-serif" font-style="normal" font-weight="normal">&#x30;</tspan></text>
        </g>
      </g>
    </g>
    <clipPath
      id="text-clipping107"
      >
      <polygon
        points="0.000000,0.000000 0.000000,349.986267 800.000000,349.986267 800.000000,0.000000"
        />
    </clipPath>
    <g
      clip-path="url(#text-clipping107)"
      >
      <g
        transform="matrix(0.000000 1.000000 1.000000 -0.000000 113.089389 237.995544)"
        >
        <g
          transform="matrix(1.0 0.0 0.0 1.0 0.0 2.672784)"
          >
          <text
            dominant-baseline="no-change"
            fill="#000000"
            fill-opacity="1.000000"
            xml:space="preserve"
            font-size="6"
            text-anchor="middle"
            x="0.000000"
            y="0"
><tspan font-family="sans-serif" font-style="normal" font-weight="normal">&#x31;</tspan></text>
        </g>
      </g>
    </g>
    <polyline
      stroke-width="1"
      stroke="#F03232"
      stroke-opacity="1.000000"
      fill="none"
      points="120.00,206.50 120.58,208.06 121.20,209.60 121.81,211.07 122.39,212.43 123.00,213.65 123.59,214.73 124.20,215.61 124.78,216.29 125.39,216.73 
      126.00,216.97 126.59,216.95 127.20,216.73 127.79,216.24 128.40,215.56 129.01,214.65 129.59,213.58 130.20,212.36 130.79,210.99 131.40,209.50 
      131.99,207.99 132.60,206.40 133.21,204.84 133.79,203.30 134.40,201.86 134.99,200.49 135.60,199.27 136.19,198.22 136.80,197.34 137.41,196.69 
      137.99,196.25 138.60,196.03 139.19,196.03 139.80,196.30 140.39,196.78 141.00,197.47 141.61,198.39 142.19,199.47 142.80,200.71 143.39,202.08 
      144.00,203.57 144.58,205.11 145.19,206.67 145.81,208.23 146.39,209.77 147.00,211.21 147.59,212.58 148.20,213.78 148.78,214.83 149.39,215.68 
      150.00,216.34 150.59,216.78 151.20,216.97 151.79,216.95 152.40,216.68 152.98,216.19 153.59,215.46 154.20,214.56 154.79,213.46 155.40,212.21 
      155.99,210.82 156.60,209.36 157.21,207.79 157.79,206.23 158.40,204.67 158.99,203.13 159.60,201.69 160.19,200.35 160.80,199.15 161.41,198.10 
      161.99,197.27 162.60,196.61 163.19,196.20 163.80,196.00 164.38,196.05 165.00,196.34 165.61,196.86 166.19,197.56 166.80,198.49 167.39,199.59 
      168.00,200.86 168.58,202.25 169.19,203.74 169.80,205.28 170.39,206.84 171.00,208.40 171.59,209.94 172.20,211.38 172.78,212.70 173.39,213.90 
      174.00,214.92 174.59,215.78 175.20,216.41 175.79,216.80 176.40,217.00 176.98,216.93 177.59,216.63 178.20,216.12 178.79,215.36 179.40,214.44 
      179.99,213.31 180.60,212.04 181.21,210.65 181.79,209.19 182.40,207.62 182.99,206.06 183.60,204.50 184.19,202.98 184.80,201.54 185.41,200.20 
      185.99,199.03 186.60,198.00 187.19,197.17 187.80,196.56 188.38,196.17 189.00,196.00 189.61,196.08 190.19,196.39 190.80,196.91 191.39,197.66 
      192.00,198.61 192.58,199.74 193.19,201.01 193.80,202.42 194.39,203.91 195.00,205.45 195.59,207.04 196.20,208.58 196.78,210.09 197.39,211.53 
      198.00,212.85 198.59,214.02 199.20,215.05 199.79,215.85 200.40,216.46 200.98,216.85 201.59,217.00 202.20,216.90 202.79,216.58 203.40,216.05 
      203.99,215.29 204.60,214.31 205.18,213.19 205.79,211.90 206.40,210.50 206.99,209.02 207.60,207.45 208.19,205.89 208.80,204.33 209.41,202.81 
      209.99,201.37 210.60,200.08 211.19,198.91 211.80,197.91 212.38,197.10 212.99,196.51 213.61,196.12 214.19,196.00 214.80,196.10 215.39,196.44 
      216.00,196.98 216.58,197.76 217.19,198.74 217.80,199.88 218.39,201.15 219.00,202.57 219.59,204.08 220.20,205.62 220.78,207.21 221.39,208.77 
      222.00,210.26 222.59,211.68 223.20,212.99 223.79,214.14 224.40,215.14 224.98,215.92 225.59,216.51 226.20,216.88 226.79,217.00 227.40,216.88 
      227.99,216.53 228.60,215.97 229.18,215.19 229.79,214.19 230.40,213.04 230.99,211.75 231.60,210.33 232.18,208.82 232.80,207.28 233.38,205.69 
      233.99,204.16 234.60,202.64 235.19,201.23 235.80,199.93 236.38,198.79 236.99,197.81 237.60,197.03 238.19,196.44 238.80,196.10 239.39,196.00 
      240.00,196.12 240.58,196.49 241.19,197.08 241.80,197.86 242.39,198.86 243.00,200.01 243.59,201.32 244.20,202.74 244.78,204.25 245.39,205.82 
      246.00,207.38 246.59,208.94 247.20,210.43 247.79,211.85 248.40,213.14 248.98,214.26 249.59,215.24 250.20,216.00 250.79,216.56 251.40,216.90 
      251.99,217.00 252.60,216.85 253.18,216.49 253.79,215.88 254.40,215.07 254.99,214.09 255.60,212.92 256.18,211.60 256.79,210.16 257.38,208.65 
      257.99,207.11 258.60,205.52 259.19,203.99 259.80,202.47 260.38,201.08 260.99,199.79 261.58,198.66 262.19,197.71 262.80,196.95 263.39,196.39 
      264.00,196.08 264.58,196.00 265.19,196.15 265.80,196.54 266.39,197.15 267.00,197.96 267.59,198.98 268.20,200.15 268.78,201.47 269.39,202.91 
      270.00,204.43 270.59,205.99 271.20,207.55 271.79,209.11 272.40,210.60 272.98,211.99 "/>
    <polyline
      stroke-width="1"
      stroke="#F03232"
      stroke-opacity="1.000000"
      fill="none"
      points="272.98,211.99 273.59,213.26 274.20,214.39 274.79,215.34 275.40,216.07 275.98,216.61 276.60,216.93 277.18,217.00 277.79,216.83 278.40,216.44 
      278.99,215.80 279.60,214.97 280.18,213.95 280.79,212.78 281.38,211.43 281.99,210.02 282.60,208.48 283.19,206.92 283.80,205.35 284.38,203.81 
      284.99,202.33 285.58,200.93 286.19,199.66 286.80,198.54 287.39,197.61 288.00,196.88 288.58,196.34 289.19,196.08 289.78,196.00 290.39,196.17 
      291.00,196.59 291.59,197.22 292.20,198.08 292.78,199.10 293.39,200.30 294.00,201.62 294.59,203.08 295.20,204.60 295.79,206.16 296.40,207.72 
      296.98,209.28 297.59,210.75 298.20,212.14 298.79,213.41 299.40,214.51 299.98,215.44 300.60,216.14 301.18,216.66 301.79,216.95 302.40,216.97 
      302.99,216.80 303.60,216.36 304.18,215.73 304.79,214.87 305.38,213.82 305.99,212.63 306.60,211.29 307.19,209.85 307.80,208.31 308.38,206.74 
      308.99,205.18 309.58,203.64 310.19,202.15 310.80,200.79 311.39,199.52 312.00,198.42 312.58,197.52 313.19,196.81 313.78,196.32 314.39,196.05 
      315.00,196.00 315.59,196.22 316.20,196.66 316.78,197.32 317.39,198.17 317.98,199.22 318.59,200.45 319.20,201.79 319.79,203.23 320.40,204.77 
      320.98,206.33 321.59,207.89 322.20,209.45 322.79,210.92 323.40,212.29 323.98,213.53 324.59,214.61 325.18,215.51 325.79,216.22 326.40,216.71 
      326.99,216.95 327.60,216.97 328.18,216.75 328.79,216.32 329.38,215.63 329.99,214.78 330.60,213.70 331.19,212.48 331.80,211.14 332.38,209.67 
      332.99,208.14 333.58,206.57 334.19,205.01 334.80,203.47 335.39,202.01 336.00,200.64 336.58,199.40 337.19,198.32 337.78,197.42 338.39,196.73 
      339.00,196.27 339.59,196.03 340.20,196.03 340.78,196.25 341.39,196.71 341.98,197.39 342.59,198.27 343.20,199.35 343.78,200.59 344.40,201.93 
      344.98,203.40 345.59,204.94 346.18,206.50 346.79,208.09 347.40,209.60 347.98,211.07 348.59,212.43 349.18,213.65 349.79,214.73 350.40,215.61 
      350.99,216.29 351.60,216.75 352.18,216.97 352.79,216.95 353.38,216.71 353.99,216.24 354.60,215.56 355.19,214.65 355.80,213.58 356.38,212.34 
      356.99,210.97 357.58,209.50 358.19,207.97 358.80,206.40 359.39,204.82 360.00,203.30 360.58,201.84 361.19,200.49 361.78,199.27 362.39,198.20 
      363.00,197.34 363.59,196.69 364.20,196.22 364.78,196.03 365.39,196.05 365.98,196.30 366.59,196.78 367.20,197.49 367.78,198.39 368.40,199.47 
      368.98,200.74 369.59,202.11 370.18,203.57 370.79,205.11 371.40,206.70 371.98,208.26 372.59,209.77 373.18,211.24 373.79,212.58 374.38,213.80 
      374.99,214.83 375.60,215.70 376.18,216.34 376.79,216.78 377.38,216.97 377.99,216.95 378.60,216.68 379.19,216.17 379.80,215.46 380.38,214.53 
      380.99,213.43 381.58,212.19 382.19,210.82 382.80,209.33 383.39,207.79 384.00,206.21 384.58,204.64 385.19,203.13 385.78,201.69 386.39,200.35 
      387.00,199.13 387.59,198.10 388.20,197.25 388.78,196.61 389.39,196.20 389.98,196.00 390.59,196.05 391.20,196.34 391.78,196.86 392.39,197.59 
      392.98,198.52 393.59,199.62 394.18,200.89 394.79,202.25 395.40,203.74 395.98,205.28 396.59,206.87 397.18,208.43 397.79,209.94 398.38,211.38 
      398.99,212.73 399.60,213.92 400.18,214.95 400.79,215.78 401.38,216.41 401.99,216.80 402.58,217.00 403.19,216.93 403.80,216.63 404.38,216.10 
      404.99,215.36 405.58,214.44 406.19,213.31 406.80,212.04 407.39,210.65 408.00,209.16 408.58,207.62 409.19,206.04 409.78,204.47 410.39,202.96 
      411.00,201.52 411.58,200.20 412.20,199.01 412.78,198.00 413.39,197.17 413.98,196.56 414.59,196.17 415.20,196.00 415.78,196.08 416.39,196.39 
      416.98,196.93 417.59,197.66 418.18,198.61 418.79,199.74 419.40,201.03 419.98,202.42 420.59,203.91 421.18,205.48 421.79,207.04 422.38,208.60 
      422.99,210.11 423.60,211.55 424.18,212.87 424.79,214.04 425.38,215.05 425.99,215.85 "/>
    <polyline
      stroke-width="1"
      stroke="#F03232"
      stroke-opacity="1.000000"
      fill="none"
      points="425.99,215.85 426.58,216.46 427.19,216.85 427.80,217.00 428.38,216.90 428.99,216.58 429.58,216.05 430.19,215.27 430.77,214.31 431.39,213.17 
      432.00,211.90 432.58,210.48 433.19,208.99 433.78,207.43 434.39,205.87 435.00,204.30 435.58,202.79 436.19,201.37 436.78,200.05 437.39,198.88 
      437.98,197.91 438.59,197.10 439.20,196.49 439.78,196.12 440.39,196.00 440.98,196.10 441.59,196.44 442.18,197.00 442.79,197.76 443.40,198.74 
      443.98,199.88 444.59,201.18 445.18,202.59 445.79,204.08 446.38,205.65 446.99,207.21 447.60,208.77 448.18,210.28 448.79,211.70 449.38,212.99 
      449.99,214.17 450.58,215.14 451.19,215.95 451.80,216.51 452.38,216.88 452.99,217.00 453.58,216.88 454.19,216.53 454.77,215.95 455.38,215.17 
      456.00,214.19 456.58,213.04 457.19,211.75 457.78,210.33 458.39,208.82 458.97,207.26 459.58,205.69 460.19,204.13 460.78,202.64 461.39,201.23 
      461.98,199.91 462.59,198.76 463.20,197.78 463.78,197.00 464.39,196.44 464.98,196.10 465.59,196.00 466.18,196.12 466.79,196.49 467.40,197.08 
      467.98,197.86 468.59,198.86 469.18,200.03 469.79,201.32 470.38,202.76 470.99,204.25 471.60,205.82 472.18,207.40 472.79,208.94 473.38,210.43 
      473.99,211.85 474.58,213.14 475.19,214.29 475.80,215.24 476.38,216.02 476.99,216.56 477.58,216.90 478.19,217.00 478.77,216.85 479.38,216.49 
      480.00,215.88 480.58,215.07 481.19,214.07 481.78,212.90 482.39,211.58 482.97,210.16 483.58,208.65 484.19,207.09 484.78,205.52 485.39,203.96 
      485.98,202.47 486.59,201.06 487.20,199.79 487.78,198.66 488.39,197.69 488.98,196.93 489.59,196.39 490.18,196.08 490.79,196.00 491.40,196.15 
      491.98,196.54 492.59,197.15 493.18,197.98 493.79,198.98 494.38,200.15 494.99,201.50 495.60,202.91 496.18,204.43 496.79,205.99 497.38,207.57 
      497.99,209.11 498.57,210.60 499.19,211.99 499.80,213.29 500.38,214.41 500.99,215.34 501.58,216.10 502.19,216.61 502.77,216.93 503.38,217.00 
      503.99,216.83 504.58,216.41 505.19,215.80 505.78,214.97 506.39,213.95 506.97,212.75 507.58,211.43 508.19,209.99 508.78,208.48 509.39,206.92 
      509.98,205.33 510.59,203.79 511.17,202.30 511.78,200.91 512.39,199.64 512.98,198.54 513.59,197.61 514.18,196.88 514.79,196.34 515.40,196.05 
      515.98,196.00 516.59,196.20 517.18,196.59 517.79,197.22 518.38,198.08 518.99,199.10 519.60,200.30 520.18,201.64 520.79,203.08 521.38,204.60 
      521.99,206.18 522.57,207.75 523.18,209.28 523.80,210.77 524.38,212.16 524.99,213.41 525.58,214.51 526.19,215.44 526.77,216.17 527.38,216.66 
      527.99,216.95 528.58,216.97 529.19,216.78 529.78,216.36 530.39,215.73 530.97,214.87 531.58,213.82 532.19,212.63 532.78,211.29 533.39,209.82 
      533.98,208.31 534.59,206.74 535.17,205.16 535.78,203.62 536.39,202.15 536.98,200.76 537.59,199.52 538.18,198.42 538.79,197.52 539.37,196.81 
      539.98,196.32 540.59,196.05 541.18,196.03 541.79,196.22 542.37,196.66 542.99,197.32 543.60,198.17 544.18,199.22 544.79,200.45 545.38,201.79 
      545.99,203.25 546.57,204.79 547.18,206.35 547.80,207.92 548.38,209.45 548.99,210.92 549.58,212.31 550.19,213.53 550.77,214.63 551.38,215.53 
      551.99,216.22 552.58,216.71 553.19,216.95 553.78,216.97 554.39,216.75 554.97,216.29 555.58,215.63 556.19,214.75 556.78,213.70 557.39,212.48 
      557.98,211.11 558.59,209.65 559.17,208.14 559.78,206.55 560.39,204.99 560.98,203.45 561.59,201.98 562.18,200.62 562.79,199.40 563.37,198.32 
      563.98,197.42 564.59,196.73 565.18,196.27 565.79,196.03 566.37,196.03 566.99,196.27 567.57,196.71 568.18,197.39 568.79,198.30 569.38,199.37 
      569.99,200.59 570.57,201.96 571.18,203.42 571.79,204.96 572.38,206.52 572.99,208.09 573.58,209.63 574.19,211.09 574.77,212.46 575.38,213.68 
      575.99,214.73 576.58,215.61 577.19,216.29 577.78,216.75 578.39,216.97 578.97,216.95 "/>
    <polyline
      stroke-width="1"
      stroke="#F03232"
      stroke-opacity="1.000000"
      fill="none"
      points="578.97,216.95 579.58,216.71 580.19,216.24 580.78,215.53 581.39,214.65 581.98,213.56 582.59,212.34 583.17,210.97 583.78,209.48 584.39,207.94 
      584.98,206.38 585.59,204.82 586.18,203.28 586.79,201.84 587.37,200.47 587.98,199.25 588.59,198.20 589.18,197.34 589.79,196.66 590.37,196.22 
      590.98,196.03 591.57,196.05 592.18,196.30 592.79,196.78 593.38,197.49 593.99,198.39 594.57,199.49 595.18,200.74 595.77,202.11 596.38,203.60 
      596.99,205.13 597.58,206.70 598.19,208.26 598.77,209.80 599.38,211.24 599.99,212.58 600.58,213.80 601.19,214.85 601.78,215.70 602.39,216.36 
      602.97,216.78 603.58,216.97 604.19,216.95 604.78,216.68 605.39,216.17 605.98,215.46 606.59,214.53 607.17,213.43 607.78,212.19 608.39,210.80 
      608.98,209.31 609.59,207.77 610.17,206.21 610.79,204.64 611.37,203.11 611.98,201.67 612.59,200.32 613.18,199.13 613.79,198.10 614.37,197.25 
      614.98,196.61 615.57,196.20 616.18,196.00 616.79,196.05 617.38,196.34 617.99,196.86 618.57,197.59 619.18,198.52 619.77,199.62 620.38,200.89 
      620.99,202.28 621.58,203.77 622.19,205.30 622.77,206.87 623.38,208.43 623.97,209.97 624.58,211.41 625.19,212.73 625.78,213.92 626.39,214.95 
      626.97,215.78 627.58,216.41 628.19,216.83 628.78,217.00 629.39,216.93 629.98,216.63 630.59,216.10 631.17,215.36 631.78,214.41 632.39,213.31 
      632.98,212.04 633.59,210.63 634.17,209.14 634.78,207.60 635.37,206.04 635.98,204.47 636.59,202.96 637.18,201.52 637.79,200.18 638.37,199.01 
      638.98,197.98 639.57,197.17 640.18,196.54 640.79,196.15 641.38,196.00 641.99,196.08 642.57,196.39 643.18,196.93 643.77,197.69 644.38,198.64 
      644.99,199.76 645.58,201.03 646.19,202.45 646.77,203.94 647.38,205.48 647.97,207.06 648.58,208.62 649.19,210.14 649.78,211.55 650.39,212.87 
      650.97,214.04 651.58,215.05 652.17,215.88 652.78,216.46 653.39,216.85 653.98,217.00 654.59,216.90 655.17,216.58 655.78,216.02 656.39,215.27 
      656.98,214.31 657.59,213.17 658.17,211.87 658.78,210.48 659.37,208.97 659.98,207.43 660.59,205.84 661.18,204.30 661.79,202.79 662.37,201.35 
      662.98,200.05 663.57,198.88 664.18,197.88 664.79,197.08 665.38,196.49 665.99,196.12 666.57,196.00 667.18,196.10 667.77,196.44 668.38,197.00 
      668.99,197.78 669.58,198.76 670.19,199.88 670.77,201.18 671.38,202.59 671.97,204.11 672.58,205.65 673.19,207.23 673.78,208.80 674.39,210.28 
      674.97,211.70 675.58,213.02 676.17,214.17 676.78,215.17 677.39,215.95 677.97,216.53 678.59,216.88 679.17,217.00 679.78,216.88 680.37,216.53 
      680.98,215.95 681.59,215.17 682.17,214.19 682.78,213.02 683.37,211.73 683.98,210.31 684.59,208.80 685.18,207.26 685.79,205.67 686.37,204.13 
      686.98,202.62 687.57,201.20 688.18,199.91 688.79,198.76 689.38,197.78 689.99,197.00 690.57,196.44 691.18,196.10 691.77,196.00 692.38,196.12 
      692.99,196.49 693.58,197.08 694.19,197.88 694.77,198.86 695.38,200.03 695.97,201.35 696.58,202.76 697.19,204.28 697.78,205.84 698.39,207.40 
      698.97,208.97 699.58,210.46 700.17,211.87 700.78,213.14 701.39,214.29 701.97,215.27 702.58,216.02 703.17,216.58 703.78,216.90 704.37,217.00 
      704.98,216.85 705.59,216.49 706.17,215.88 706.78,215.07 707.37,214.07 707.98,212.90 708.57,211.58 709.18,210.14 709.79,208.62 710.37,207.06 
      710.98,205.50 711.57,203.94 712.18,202.45 712.79,201.06 713.38,199.76 713.99,198.64 714.57,197.69 715.18,196.93 715.77,196.39 716.38,196.08 
      716.99,196.00 717.58,196.15 718.19,196.54 718.77,197.15 719.38,197.98 "/>
    <clipPath
      id="text-clipping108"
      >
      <polygon
        points="0.000000,0.000000 0.000000,349.986267 800.000000,349.986267 800.000000,0.000000"
        />
    </clipPath>
    <g
      clip-path="url(#text-clipping108)"
      >
      <g
        transform="matrix(0.000000 1.000000 1.000000 -0.000000 92.410047 206.500443)"
        >
        <g
          transform="matrix(1.0 0.0 0.0 1.0 0.0 3.759176)"
          >
          <text
            dominant-baseline="no-change"
            fill="#000000"
            fill-opacity="1.000000"
            xml:space="preserve"
            font-size="9"
            text-anchor="middle"
            x="0.000000"
            y="0"
><tspan font-family="sans-serif" font-style="normal" font-weight="normal">&#x33;&#x72;&#x64;</tspan></text>
        </g>
      </g>
    </g>
    <polyline
      stroke-width="1"
      stroke="#000000"
      stroke-opacity="1.000000"
      fill="none"
      points="120.00,245.00 719.99,245.00"
      />
    <polyline
      stroke-width="1"
      stroke="#000000"
      stroke-opacity="1.000000"
      fill="none"
      points="719.99,245.00 719.99,307.99"
      />
    <polyline
      stroke-width="1"
      stroke="#000000"
      stroke-opacity="1.000000"
      fill="none"
      points="714.82,245.00 719.99,245.00"
      />
    <polyline
      stroke-width="1"
      stroke="#000000"
      stroke-opacity="1.000000"
      fill="none"
      points="714.82,276.50 719.99,276.50"
      />
    <polyline
      stroke-width="1"
      stroke="#000000"
      stroke-opacity="1.000000"
      fill="none"
      points="714.82,307.99 719.99,307.99"
      />
    <polyline
      stroke-width="1"
      stroke="#000000"
      stroke-opacity="1.000000"
      fill="none"
      points="719.99,307.99 120.00,307.99"
      />
    <polyline
      stroke-width="1"
      stroke="#000000"
      stroke-opacity="1.000000"
      fill="none"
      points="120.00,307.99 120.00,245.00"
      />
    <polyline
      stroke-width="1"
      stroke="#000000"
      stroke-opacity="1.000000"
      fill="none"
      points="120.00,307.99 125.17,307.99"
      />
    <polyline
      stroke-width="1"
      stroke="#000000"
      stroke-opacity="1.000000"
      fill="none"
      points="120.00,276.50 125.17,276.50"
      />
    <polyline
      stroke-width="1"
      stroke="#000000"
      stroke-opacity="1.000000"
      fill="none"
      points="120.00,245.00 125.17,245.00"
      />
    <clipPath
      id="text-clipping109"
      >
      <polygon
        points="0.000000,0.000000 0.000000,349.986267 800.000000,349.986267 800.000000,0.000000"
        />
    </clipPath>
    <g
      clip-path="url(#text-clipping109)"
      >
      <g
        transform="matrix(0.000000 1.000000 1.000000 -0.000000 113.089389 245.002594)"
        >
        <g
          transform="matrix(1.0 0.0 0.0 1.0 0.0 2.672784)"
          >
          <text
            dominant-baseline="no-change"
            fill="#000000"
            fill-opacity="1.000000"
            xml:space="preserve"
            font-size="6"
            text-anchor="middle"
            x="0.000000"
            y="0"
><tspan font-family="sans-serif" font-style="normal" font-weight="normal">&#x2d;&#x31;</tspan></text>
        </g>
      </g>
    </g>
    <clipPath
      id="text-clipping110"
      >
      <polygon
        points="0.000000,0.000000 0.000000,349.986267 800.000000,349.986267 800.000000,0.000000"
        />
    </clipPath>
    <g
      clip-path="url(#text-clipping110)"
      >
      <g
        transform="matrix(0.000000 1.000000 1.000000 -0.000000 113.089389 276.497696)"
        >
        <g
          transform="matrix(1.0 0.0 0.0 1.0 0.0 2.672784)"
          >
          <text
            dominant-baseline="no-change"
            fill="#000000"
            fill-opacity="1.000000"
            xml:space="preserve"
            font-size="6"
            text-anchor="middle"
            x="0.000000"
            y="0"
><tspan font-family="sans-serif" font-style="normal" font-weight="normal">&#x30;</tspan></text>
        </g>
      </g>
    </g>
    <clipPath
      id="text-clipping111"
      >
      <polygon
        points="0.000000,0.000000 0.000000,349.986267 800.000000,349.986267 800.000000,0.000000"
        />
    </clipPath>
    <g
      clip-path="url(#text-clipping111)"
      >
      <g
        transform="matrix(0.000000 1.000000 1.000000 -0.000000 113.089389 307.992798)"
        >
        <g
          transform="matrix(1.0 0.0 0.0 1.0 0.0 2.672784)"
          >
          <text
            dominant-baseline="no-change"
            fill="#000000"
            fill-opacity="1.000000"
            xml:space="preserve"
            font-size="6"
            text-anchor="middle"
            x="0.000000"
            y="0"
><tspan font-family="sans-serif" font-style="normal" font-weight="normal">&#x31;</tspan></text>
        </g>
      </g>
    </g>
    <polyline
      stroke-width="1"
      stroke="#000000"
      stroke-opacity="1.000000"
      fill="none"
      points="120.00,276.50 120.58,278.06 121.20,279.65 121.81,281.21 122.39,282.75 123.00,284.29 123.59,285.80 124.20,287.29 124.78,288.75 125.39,290.19 
      126.00,291.59 126.59,292.95 127.20,294.27 127.79,295.54 128.40,296.79 129.01,297.96 129.59,299.08 130.20,300.16 130.79,301.16 131.40,302.11 
      131.99,302.99 132.60,303.82 133.21,304.55 133.79,305.23 134.40,305.84 134.99,306.38 135.60,306.85 136.19,307.21 136.80,307.53 137.41,307.75 
      137.99,307.92 138.60,307.97 139.19,307.97 139.80,307.90 140.39,307.72 141.00,307.48 141.61,307.16 142.19,306.77 142.80,306.28 143.39,305.75 
      144.00,305.14 144.58,304.43 145.19,303.67 145.81,302.84 146.39,301.96 147.00,300.99 147.59,299.98 148.20,298.91 148.78,297.76 149.39,296.57 
      150.00,295.35 150.59,294.05 151.20,292.73 151.79,291.37 152.40,289.95 152.98,288.51 153.59,287.04 154.20,285.56 154.79,284.02 155.40,282.48 
      155.99,280.94 156.60,279.38 157.21,277.79 157.79,276.23 158.40,274.64 158.99,273.08 159.60,271.52 160.19,269.98 160.80,268.44 161.41,266.93 
      161.99,265.44 162.60,263.97 163.19,262.56 163.80,261.17 164.38,259.80 165.00,258.48 165.61,257.21 166.19,255.99 166.80,254.84 167.39,253.72 
      168.00,252.67 168.58,251.67 169.19,250.72 169.80,249.84 170.39,249.03 171.00,248.30 171.59,247.64 172.20,247.05 172.78,246.52 173.39,246.08 
      174.00,245.71 174.59,245.42 175.20,245.20 175.79,245.05 176.40,245.00 176.98,245.03 177.59,245.12 178.20,245.30 178.79,245.54 179.40,245.88 
      179.99,246.30 180.60,246.78 181.21,247.32 181.79,247.96 182.40,248.66 182.99,249.45 183.60,250.28 184.19,251.18 184.80,252.16 185.41,253.18 
      185.99,254.28 186.60,255.40 187.19,256.60 187.80,257.84 188.38,259.14 189.00,260.48 189.61,261.85 190.19,263.26 190.80,264.71 191.39,266.19 
      192.00,267.68 192.58,269.22 193.19,270.76 193.80,272.30 194.39,273.89 195.00,275.45 195.59,277.01 196.20,278.60 196.78,280.16 197.39,281.72 
      198.00,283.26 198.59,284.80 199.20,286.31 199.79,287.78 200.40,289.24 200.98,290.66 201.59,292.05 202.20,293.39 202.79,294.71 203.40,295.98 
      203.99,297.18 204.60,298.35 205.18,299.45 205.79,300.50 206.40,301.50 206.99,302.43 207.60,303.28 208.19,304.06 208.80,304.79 209.41,305.45 
      209.99,306.04 210.60,306.55 211.19,306.97 211.80,307.33 212.38,307.60 212.99,307.82 213.61,307.94 214.19,307.99 214.80,307.94 215.39,307.85 
      216.00,307.65 216.58,307.38 217.19,307.04 217.80,306.63 218.39,306.11 219.00,305.55 219.59,304.92 220.20,304.18 220.78,303.40 221.39,302.55 
      222.00,301.64 222.59,300.67 223.20,299.62 223.79,298.52 224.40,297.37 224.98,296.18 225.59,294.91 226.20,293.61 226.79,292.27 227.40,290.88 
      227.99,289.46 228.60,288.02 229.18,286.53 229.79,285.04 230.40,283.50 230.99,281.97 231.60,280.40 232.18,278.84 232.80,277.28 233.38,275.69 
      233.99,274.13 234.60,272.57 235.19,271.00 235.80,269.47 236.38,267.93 236.99,266.44 237.60,264.95 238.19,263.51 238.80,262.09 239.39,260.70 
      240.00,259.36 240.58,258.06 241.19,256.79 241.80,255.60 242.39,254.45 243.00,253.35 243.59,252.30 244.20,251.33 244.78,250.42 245.39,249.57 
      246.00,248.79 246.59,248.08 247.20,247.42 247.79,246.86 248.40,246.37 248.98,245.95 249.59,245.59 250.20,245.32 250.79,245.15 251.40,245.03 
      251.99,245.00 252.60,245.05 253.18,245.17 253.79,245.37 254.40,245.66 254.99,246.00 255.60,246.44 256.18,246.96 256.79,247.54 257.38,248.20 
      257.99,248.91 258.60,249.71 259.19,250.57 259.80,251.50 260.38,252.50 260.99,253.55 261.58,254.65 262.19,255.82 262.80,257.01 263.39,258.28 
      264.00,259.60 264.58,260.95 265.19,262.34 265.80,263.75 266.39,265.22 267.00,266.68 267.59,268.20 268.20,269.73 268.78,271.27 269.39,272.84 
      270.00,274.40 270.59,275.98 271.20,277.55 271.79,279.13 272.40,280.70 272.98,282.24 "/>
    <polyline
      stroke-width="1"
      stroke="#000000"
      stroke-opacity="1.000000"
      fill="none"
      points="272.98,282.24 273.59,283.77 274.20,285.31 274.79,286.80 275.40,288.29 275.98,289.73 276.60,291.15 277.18,292.51 277.79,293.86 278.40,295.15 
      278.99,296.40 279.60,297.59 280.18,298.72 280.79,299.81 281.38,300.84 281.99,301.82 282.60,302.72 283.19,303.55 283.80,304.33 284.38,305.01 
      284.99,305.65 285.58,306.21 286.19,306.70 286.80,307.11 287.39,307.43 288.00,307.70 288.58,307.87 289.19,307.97 289.78,307.99 290.39,307.92 
      291.00,307.80 291.59,307.58 292.20,307.28 292.78,306.89 293.39,306.45 294.00,305.94 294.59,305.33 295.20,304.67 295.79,303.94 296.40,303.13 
      296.98,302.26 297.59,301.33 298.20,300.33 298.79,299.25 299.40,298.15 299.98,296.98 300.60,295.76 301.18,294.49 301.79,293.17 302.40,291.81 
      302.99,290.41 303.60,289.00 304.18,287.53 304.79,286.04 305.38,284.53 305.99,282.99 306.60,281.45 307.19,279.89 307.80,278.33 308.38,276.74 
      308.99,275.18 309.58,273.59 310.19,272.03 310.80,270.49 311.39,268.95 312.00,267.42 312.58,265.93 313.19,264.46 313.78,263.02 314.39,261.60 
      315.00,260.24 315.59,258.92 316.20,257.63 316.78,256.40 317.39,255.21 317.98,254.08 318.59,252.99 319.20,251.99 319.79,251.01 320.40,250.13 
      320.98,249.30 321.59,248.54 322.20,247.86 322.79,247.22 323.40,246.69 323.98,246.22 324.59,245.81 325.18,245.49 325.79,245.25 326.40,245.10 
      326.99,245.00 327.60,245.00 328.18,245.08 328.79,245.22 329.38,245.47 329.99,245.76 330.60,246.15 331.19,246.61 331.80,247.15 332.38,247.76 
      332.99,248.42 333.58,249.18 334.19,250.01 334.80,250.89 335.39,251.84 336.00,252.84 336.58,253.91 337.19,255.04 337.78,256.21 338.39,257.45 
      339.00,258.72 339.59,260.04 340.20,261.41 340.78,262.80 341.39,264.24 341.98,265.71 342.59,267.20 343.20,268.71 343.78,270.25 344.40,271.81 
      344.98,273.37 345.59,274.94 346.18,276.50 346.79,278.08 347.40,279.65 347.98,281.21 348.59,282.77 349.18,284.29 349.79,285.82 350.40,287.31 
      350.99,288.78 351.60,290.19 352.18,291.61 352.79,292.98 353.38,294.30 353.99,295.57 354.60,296.79 355.19,297.96 355.80,299.11 356.38,300.16 
      356.99,301.18 357.58,302.11 358.19,303.01 358.80,303.82 359.39,304.57 360.00,305.23 360.58,305.84 361.19,306.38 361.78,306.85 362.39,307.24 
      363.00,307.53 363.59,307.75 364.20,307.92 364.78,307.97 365.39,307.97 365.98,307.90 366.59,307.72 367.20,307.48 367.78,307.16 368.40,306.77 
      368.98,306.28 369.59,305.75 370.18,305.14 370.79,304.43 371.40,303.67 371.98,302.84 372.59,301.94 373.18,300.99 373.79,299.96 374.38,298.89 
      374.99,297.76 375.60,296.57 376.18,295.32 376.79,294.05 377.38,292.71 377.99,291.34 378.60,289.95 379.19,288.51 379.80,287.02 380.38,285.53 
      380.99,284.02 381.58,282.48 382.19,280.92 382.80,279.35 383.39,277.79 384.00,276.20 384.58,274.64 385.19,273.08 385.78,271.52 386.39,269.95 
      387.00,268.44 387.59,266.93 388.20,265.44 388.78,263.97 389.39,262.53 389.98,261.14 390.59,259.80 391.20,258.48 391.78,257.21 392.39,255.99 
      392.98,254.82 393.59,253.69 394.18,252.64 394.79,251.64 395.40,250.72 395.98,249.84 396.59,249.03 397.18,248.30 397.79,247.64 398.38,247.03 
      398.99,246.52 399.60,246.08 400.18,245.71 400.79,245.42 401.38,245.20 401.99,245.05 402.58,245.00 403.19,245.03 403.80,245.12 404.38,245.30 
      404.99,245.56 405.58,245.88 406.19,246.30 406.80,246.78 407.39,247.35 408.00,247.98 408.58,248.66 409.19,249.45 409.78,250.28 410.39,251.20 
      411.00,252.16 411.58,253.18 412.20,254.28 412.78,255.43 413.39,256.62 413.98,257.87 414.59,259.16 415.20,260.51 415.78,261.87 416.39,263.29 
      416.98,264.73 417.59,266.19 418.18,267.71 418.79,269.22 419.40,270.76 419.98,272.32 420.59,273.89 421.18,275.47 421.79,277.03 422.38,278.60 
      422.99,280.18 423.60,281.75 424.18,283.29 424.79,284.80 425.38,286.31 425.99,287.80 "/>
    <polyline
      stroke-width="1"
      stroke="#000000"
      stroke-opacity="1.000000"
      fill="none"
      points="425.99,287.80 426.58,289.27 427.19,290.68 427.80,292.07 428.38,293.42 428.99,294.71 429.58,295.98 430.19,297.20 430.77,298.35 431.39,299.47 
      432.00,300.50 432.58,301.50 433.19,302.43 433.78,303.28 434.39,304.09 435.00,304.79 435.58,305.45 436.19,306.04 436.78,306.55 437.39,306.99 
      437.98,307.33 438.59,307.63 439.20,307.82 439.78,307.94 440.39,307.99 440.98,307.94 441.59,307.85 442.18,307.65 442.79,307.38 443.40,307.04 
      443.98,306.60 444.59,306.11 445.18,305.55 445.79,304.89 446.38,304.18 446.99,303.40 447.60,302.55 448.18,301.62 448.79,300.64 449.38,299.62 
      449.99,298.52 450.58,297.37 451.19,296.15 451.80,294.91 452.38,293.61 452.99,292.27 453.58,290.88 454.19,289.46 454.77,288.00 455.38,286.53 
      456.00,285.02 456.58,283.50 457.19,281.97 457.78,280.40 458.39,278.84 458.97,277.25 459.58,275.69 460.19,274.11 460.78,272.54 461.39,270.98 
      461.98,269.44 462.59,267.93 463.20,266.41 463.78,264.93 464.39,263.48 464.98,262.07 465.59,260.68 466.18,259.36 466.79,258.04 467.40,256.79 
      467.98,255.60 468.59,254.45 469.18,253.35 469.79,252.30 470.38,251.33 470.99,250.42 471.60,249.57 472.18,248.79 472.79,248.08 473.38,247.42 
      473.99,246.86 474.58,246.37 475.19,245.93 475.80,245.59 476.38,245.32 476.99,245.15 477.58,245.03 478.19,245.00 478.77,245.05 479.38,245.17 
      480.00,245.37 480.58,245.66 481.19,246.00 481.78,246.44 482.39,246.96 482.97,247.54 483.58,248.20 484.19,248.93 484.78,249.71 485.39,250.59 
      485.98,251.52 486.59,252.50 487.20,253.55 487.78,254.67 488.39,255.82 488.98,257.04 489.59,258.31 490.18,259.60 490.79,260.95 491.40,262.34 
      491.98,263.78 492.59,265.22 493.18,266.71 493.79,268.22 494.38,269.73 494.99,271.30 495.60,272.86 496.18,274.42 496.79,275.98 497.38,277.57 
      497.99,279.13 498.57,280.70 499.19,282.26 499.80,283.80 500.38,285.31 500.99,286.83 501.58,288.29 502.19,289.73 502.77,291.15 503.38,292.51 
      503.99,293.86 504.58,295.15 505.19,296.40 505.78,297.59 506.39,298.74 506.97,299.81 507.58,300.84 508.19,301.82 508.78,302.72 509.39,303.55 
      509.98,304.33 510.59,305.04 511.17,305.65 511.78,306.21 512.39,306.70 512.98,307.11 513.59,307.43 514.18,307.70 514.79,307.87 515.40,307.97 
      515.98,307.99 516.59,307.92 517.18,307.77 517.79,307.58 518.38,307.28 518.99,306.89 519.60,306.45 520.18,305.94 520.79,305.33 521.38,304.67 
      521.99,303.94 522.57,303.11 523.18,302.26 523.80,301.30 524.38,300.30 524.99,299.25 525.58,298.13 526.19,296.96 526.77,295.74 527.38,294.47 
      527.99,293.15 528.58,291.81 529.19,290.41 529.78,288.97 530.39,287.51 530.97,286.02 531.58,284.51 532.19,282.99 532.78,281.43 533.39,279.87 
      533.98,278.30 534.59,276.72 535.17,275.15 535.78,273.59 536.39,272.03 536.98,270.47 537.59,268.93 538.18,267.42 538.79,265.93 539.37,264.44 
      539.98,263.00 540.59,261.60 541.18,260.24 541.79,258.89 542.37,257.63 542.99,256.38 543.60,255.21 544.18,254.06 544.79,252.99 545.38,251.96 
      545.99,251.01 546.57,250.13 547.18,249.30 547.80,248.54 548.38,247.83 548.99,247.22 549.58,246.69 550.19,246.20 550.77,245.81 551.38,245.49 
      551.99,245.25 552.58,245.10 553.19,245.00 553.78,245.00 554.39,245.08 554.97,245.22 555.58,245.47 556.19,245.76 556.78,246.15 557.39,246.61 
      557.98,247.15 558.59,247.76 559.17,248.45 559.78,249.18 560.39,250.01 560.98,250.89 561.59,251.84 562.18,252.84 562.79,253.91 563.37,255.04 
      563.98,256.23 564.59,257.45 565.18,258.72 565.79,260.04 566.37,261.41 566.99,262.83 567.57,264.24 568.18,265.73 568.79,267.22 569.38,268.73 
      569.99,270.27 570.57,271.81 571.18,273.37 571.79,274.94 572.38,276.52 572.99,278.08 573.58,279.67 574.19,281.23 574.77,282.77 575.38,284.31 
      575.99,285.82 576.58,287.31 577.19,288.78 577.78,290.22 578.39,291.61 578.97,292.98 "/>
    <polyline
      stroke-width="1"
      stroke="#000000"
      stroke-opacity="1.000000"
      fill="none"
      points="578.97,292.98 579.58,294.30 580.19,295.57 580.78,296.81 581.39,297.98 581.98,299.11 582.59,300.18 583.17,301.18 583.78,302.13 584.39,303.01 
      584.98,303.82 585.59,304.57 586.18,305.26 586.79,305.84 587.37,306.38 587.98,306.85 588.59,307.24 589.18,307.53 589.79,307.75 590.37,307.92 
      590.98,307.97 591.57,307.97 592.18,307.90 592.79,307.72 593.38,307.48 593.99,307.16 594.57,306.75 595.18,306.28 595.77,305.75 596.38,305.11 
      596.99,304.43 597.58,303.67 598.19,302.84 598.77,301.94 599.38,300.99 599.99,299.96 600.58,298.89 601.19,297.74 601.78,296.57 602.39,295.32 
      602.97,294.03 603.58,292.71 604.19,291.34 604.78,289.93 605.39,288.49 605.98,287.02 606.59,285.53 607.17,283.99 607.78,282.45 608.39,280.92 
      608.98,279.35 609.59,277.77 610.17,276.20 610.79,274.62 611.37,273.06 611.98,271.49 612.59,269.95 613.18,268.42 613.79,266.90 614.37,265.41 
      614.98,263.95 615.57,262.53 616.18,261.14 616.79,259.77 617.38,258.48 617.99,257.21 618.57,255.99 619.18,254.82 619.77,253.69 620.38,252.64 
      620.99,251.64 621.58,250.72 622.19,249.84 622.77,249.03 623.38,248.30 623.97,247.61 624.58,247.03 625.19,246.52 625.78,246.08 626.39,245.71 
      626.97,245.42 627.58,245.20 628.19,245.05 628.78,245.00 629.39,245.03 629.98,245.12 630.59,245.30 631.17,245.56 631.78,245.88 632.39,246.30 
      632.98,246.78 633.59,247.35 634.17,247.98 634.78,248.69 635.37,249.45 635.98,250.30 636.59,251.20 637.18,252.18 637.79,253.21 638.37,254.28 
      638.98,255.43 639.57,256.62 640.18,257.87 640.79,259.16 641.38,260.51 641.99,261.87 642.57,263.29 643.18,264.75 643.77,266.22 644.38,267.71 
      644.99,269.25 645.58,270.78 646.19,272.35 646.77,273.91 647.38,275.47 647.97,277.06 648.58,278.62 649.19,280.18 649.78,281.75 650.39,283.29 
      650.97,284.82 651.58,286.34 652.17,287.80 652.78,289.27 653.39,290.68 653.98,292.07 654.59,293.42 655.17,294.74 655.78,296.01 656.39,297.20 
      656.98,298.37 657.59,299.47 658.17,300.52 658.78,301.50 659.37,302.43 659.98,303.28 660.59,304.09 661.18,304.82 661.79,305.45 662.37,306.04 
      662.98,306.55 663.57,306.99 664.18,307.33 664.79,307.63 665.38,307.82 665.99,307.94 666.57,307.99 667.18,307.94 667.77,307.85 668.38,307.65 
      668.99,307.38 669.58,307.04 670.19,306.60 670.77,306.11 671.38,305.53 671.97,304.89 672.58,304.18 673.19,303.40 673.78,302.55 674.39,301.62 
      674.97,300.64 675.58,299.59 676.17,298.50 676.78,297.35 677.39,296.15 677.97,294.88 678.59,293.59 679.17,292.25 679.78,290.85 680.37,289.44 
      680.98,288.00 681.59,286.51 682.17,285.02 682.78,283.48 683.37,281.94 683.98,280.38 684.59,278.82 685.18,277.25 685.79,275.67 686.37,274.11 
      686.98,272.54 687.57,270.98 688.18,269.44 688.79,267.90 689.38,266.41 689.99,264.93 690.57,263.48 691.18,262.07 691.77,260.68 692.38,259.33 
      692.99,258.04 693.58,256.79 694.19,255.57 694.77,254.43 695.38,253.33 695.97,252.30 696.58,251.33 697.19,250.40 697.78,249.54 698.39,248.76 
      698.97,248.05 699.58,247.42 700.17,246.86 700.78,246.35 701.39,245.93 701.97,245.59 702.58,245.32 703.17,245.15 703.78,245.03 704.37,245.00 
      704.98,245.05 705.59,245.17 706.17,245.37 706.78,245.66 707.37,246.03 707.98,246.44 708.57,246.96 709.18,247.54 709.79,248.20 710.37,248.93 
      710.98,249.74 711.57,250.59 712.18,251.52 712.79,252.52 713.38,253.57 713.99,254.67 714.57,255.84 715.18,257.04 715.77,258.31 716.38,259.63 
      716.99,260.97 717.58,262.36 718.19,263.78 718.77,265.24 719.38,266.73 "/>
    <clipPath
      id="text-clipping112"
      >
      <polygon
        points="0.000000,0.000000 0.000000,349.986267 800.000000,349.986267 800.000000,0.000000"
        />
    </clipPath>
    <g
      clip-path="url(#text-clipping112)"
      >
      <g
        transform="matrix(0.000000 1.000000 1.000000 -0.000000 92.410047 276.497696)"
        >
        <g
          transform="matrix(1.0 0.0 0.0 1.0 0.0 3.759176)"
          >
          <text
            dominant-baseline="no-change"
            fill="#000000"
            fill-opacity="1.000000"
            xml:space="preserve"
            font-size="9"
            text-anchor="middle"
            x="0.000000"
            y="0"
><tspan font-family="sans-serif" font-style="normal" font-weight="normal">&#x46;&#x75;&#x6e;&#x64;</tspan></text>
        </g>
      </g>
    </g>
  </g>
</svg>
