<?xml version="1.0" encoding="UTF-8" standalone="no"?>
<!-- Created with Inkscape (http://www.inkscape.org/) -->

<svg
   xmlns:dc="http://purl.org/dc/elements/1.1/"
   xmlns:cc="http://creativecommons.org/ns#"
   xmlns:rdf="http://www.w3.org/1999/02/22-rdf-syntax-ns#"
   xmlns:svg="http://www.w3.org/2000/svg"
   xmlns="http://www.w3.org/2000/svg"
   xmlns:sodipodi="http://sodipodi.sourceforge.net/DTD/sodipodi-0.dtd"
   xmlns:inkscape="http://www.inkscape.org/namespaces/inkscape"
   width="640px"
   height="480px"
   id="svg2985"
   version="1.1"
   inkscape:version="0.48.1 r9760"
   sodipodi:docname="cw.svg">
  <defs
     id="defs2987" />
  <sodipodi:namedview
     id="base"
     pagecolor="#ffffff"
     bordercolor="#666666"
     borderopacity="1.0"
     inkscape:pageopacity="0.0"
     inkscape:pageshadow="2"
     inkscape:zoom="0.77472527"
     inkscape:cx="297.41135"
     inkscape:cy="240"
     inkscape:current-layer="layer1"
     inkscape:document-units="px"
     showgrid="false"
     inkscape:window-width="1024"
     inkscape:window-height="549"
     inkscape:window-x="0"
     inkscape:window-y="25"
     inkscape:window-maximized="1" />
  <metadata
     id="metadata2990">
    <rdf:RDF>
      <cc:Work
         rdf:about="">
        <dc:format>image/svg+xml</dc:format>
        <dc:type
           rdf:resource="http://purl.org/dc/dcmitype/StillImage" />
        <dc:title />
      </cc:Work>
    </rdf:RDF>
  </metadata>
  <g
     id="layer1"
     inkscape:label="Layer 1"
     inkscape:groupmode="layer">
    <rect
       style="fill:#000000;fill-opacity:0.00423728;stroke:#000000;stroke-width:4.9000001;stroke-miterlimit:4;stroke-opacity:1;stroke-dasharray:none;stroke-dashoffset:0"
       id="rect2997"
       width="219.43263"
       height="138.11348"
       x="40.014191"
       y="79.858154" />
    <text
       xml:space="preserve"
       style="font-size:40px;font-style:normal;font-weight:normal;line-height:125%;letter-spacing:0px;word-spacing:0px;fill:#000000;fill-opacity:1;stroke:none;font-family:Sans"
       x="58.085098"
       y="137.94325"
       id="text3767"
       sodipodi:linespacing="125%"><tspan
         sodipodi:role="line"
         id="tspan3769"
         x="58.085098"
         y="137.94325">Oscillator</tspan></text>
    <path
       style="fill:#000000;fill-opacity:0.00423728;stroke:#000000;stroke-width:4.9000001;stroke-miterlimit:4;stroke-opacity:1;stroke-dasharray:none;stroke-dashoffset:0"
       d="m 59.375887,192.15603 c 3.84836,-1.24283 -0.96209,-4.52972 0,-6.4539 0.27212,-0.54424 1.01866,-0.74654 1.29078,-1.29078 0.19242,-0.38484 -0.19242,-0.90595 0,-1.29078 0.54424,-1.08848 2.03732,-1.49308 2.58156,-2.58156 0.19242,-0.38484 -0.30424,-0.98654 0,-1.29078 0.30424,-0.30424 0.98654,0.30424 1.29078,0 0.30424,-0.30424 -0.19242,-0.90595 0,-1.29078 0.27212,-0.54424 0.95326,-0.7845 1.29078,-1.29078 0.53367,-0.80051 0.75711,-1.78106 1.29078,-2.58156 0.33752,-0.50629 1.09836,-0.71353 1.29078,-1.29078 0.27212,-0.81636 -0.38484,-1.81189 0,-2.58156 0.19242,-0.38484 0.98654,0.30424 1.29078,0 0.30424,-0.30424 -0.19242,-0.90595 0,-1.29078 0.27212,-0.54424 0.86052,-0.86052 1.29078,-1.29078 0.43026,-0.43026 0.74654,-1.01866 1.29078,-1.29078 0.38484,-0.19242 0.90595,0.19241 1.29078,0 0.54424,-0.27212 0.74654,-1.01866 1.29078,-1.29078 0.76967,-0.38484 1.81189,0.38483 2.58156,0 0.54424,-0.27213 0.74654,-1.01866 1.29078,-1.29078 0.38484,-0.19242 0.86052,0 1.29078,0 0.43026,0 0.90595,-0.19242 1.29078,0 0.54424,0.27212 0.74654,1.01865 1.29078,1.29078 0.38484,0.19241 0.86052,0 1.29078,0 0.58132,0 3.47952,-0.19642 3.87234,0 0.54424,0.27212 0.74654,1.01866 1.29078,1.29078 0.38484,0.19241 0.90595,-0.19242 1.29078,0 1.08849,0.54424 1.49308,2.03732 2.58156,2.58156 0.76968,0.38483 1.97308,-0.60848 2.58156,0 0.30424,0.30424 -0.30424,0.98654 0,1.29078 2.67067,2.67067 -0.10439,-4.08114 2.58156,1.29078 0.19242,0.38483 0,0.86052 0,1.29078 0.43026,0.43026 1.01866,0.74654 1.29078,1.29078 0.19242,0.38483 -0.30424,0.98654 0,1.29078 0.30424,0.30424 1.098373,-0.38484 1.290783,0 0.38484,0.76967 -0.27212,1.7652 0,2.58156 0.38484,1.15451 2.03732,1.49308 2.58157,2.58156 0.19241,0.38483 -0.19242,0.90594 0,1.29078 0.27212,0.54424 1.01865,0.74654 1.29078,1.29078 0.38483,0.76967 -0.38484,1.81189 0,2.58156 0.27212,0.54424 1.01866,0.74654 1.29078,1.29078 0.51631,1.03262 -0.51632,2.83971 0,3.87234 0.89582,1.79165 2.29671,1.29078 3.87234,1.29078 0.43026,0 0.98654,-0.30424 1.29078,0 0.30424,0.30424 -0.30424,0.98654 0,1.29078 0.30424,0.30424 0.98654,-0.30424 1.29078,0 0.30424,0.30424 -0.30424,0.98654 0,1.29078 0.60848,0.60848 1.81188,-0.38484 2.58156,0 0.54424,0.27212 0.74654,1.01866 1.29078,1.29078 0.51178,0.25589 3.60845,-0.26388 3.87234,0 0.30424,0.30424 -0.30424,0.98654 0,1.29078 0.001,0.001 3.86649,-0.002 3.87234,0 0.57725,0.19242 0.74654,1.01866 1.29078,1.29078 0.38483,0.19242 0.86052,0 1.29078,0 2.58156,0 5.16312,0 7.74468,0 0.43026,0 0.98654,0.30424 1.29078,0 0.30424,-0.30424 -0.30424,-0.98654 0,-1.29078 0.87686,-0.87686 2.56705,1.3198 3.87234,-1.29078 0.19242,-0.38484 -0.19242,-0.90595 0,-1.29078 0.77447,-1.54894 3.09787,-2.32341 3.87234,-3.87234 0.19242,-0.38484 -0.19242,-0.90595 0,-1.29078 0.17136,-0.34272 3.52962,-3.70098 3.87234,-3.87234 0.38484,-0.19242 0.98654,0.30424 1.29078,0 2.67067,-2.67067 -4.08114,0.1044 1.29078,-2.58156 0.38484,-0.19242 0.90594,0.19242 1.29078,0 1.08848,-0.54424 1.49308,-2.03732 2.58156,-2.58156 0.38484,-0.19242 0.98654,0.30424 1.29078,0 2.67067,-2.67067 -4.08114,0.1044 1.29078,-2.58156 0.38484,-0.19242 0.90595,0.19241 1.29078,0 0.54424,-0.27212 0.86052,-0.86052 1.29078,-1.29078 0.43026,-0.43026 1.01866,-0.74654 1.29078,-1.29078 0.19242,-0.38484 -0.30424,-0.98654 0,-1.29078 0.30424,-0.30424 0.90595,0.19241 1.29078,0 0.54424,-0.27212 0.74654,-1.01866 1.29078,-1.29078 0.38484,-0.19242 0.98654,0.30424 1.29078,0 0.30424,-0.30424 -0.19242,-0.90595 0,-1.29078 2.68596,-5.37192 -0.0891,1.37989 2.58156,-1.29078 0.30424,-0.30424 -0.30424,-0.98654 0,-1.29078 0.60848,-0.60848 1.81189,0.38483 2.58156,0 1.08848,-0.54424 1.49308,-2.03732 2.58156,-2.58156 0.38484,-0.19242 0.8826,0.13606 1.29078,0 0.91272,-0.30424 1.66884,-0.98654 2.58156,-1.29078 0.74772,-0.24924 4.04455,0 5.16312,0 0.84819,0 3.14409,0.24275 3.87234,0 0.91272,-0.30424 1.66885,-0.98655 2.58156,-1.29078 0.81017,-0.27006 4.124,0 5.16313,0 0.43026,0 0.86052,0 1.29078,0 0.43026,0 0.98654,-0.30424 1.29078,0 0.30424,0.30423 -0.30424,0.98654 0,1.29078 0.30424,0.30424 0.90594,-0.19242 1.29078,0 0.34271,0.17135 3.70098,3.52962 3.87234,3.87234 0.19241,0.38483 -0.30424,0.98654 0,1.29078 0.60848,0.60848 1.97308,-0.60848 2.58156,0 0.30424,0.30424 -0.30424,0.98654 0,1.29078 0.30424,0.30424 0.98654,-0.30424 1.29078,0 0.30424,0.30424 -0.30424,0.98654 0,1.29078 0.30424,0.30424 0.98654,-0.30424 1.29078,0 0.30424,0.30424 0,0.86052 0,1.29078 0.43026,0 0.98654,-0.30424 1.29078,0 0.30424,0.30424 -0.19242,0.90594 0,1.29078 0.27212,0.54424 1.01866,0.74654 1.29078,1.29078 0.19242,0.38483 -0.30424,0.98654 0,1.29078 0.60848,0.60848 1.81189,-0.38484 2.58156,0 1.08848,0.54424 1.49308,2.03732 2.58156,2.58156 0.76967,0.38483 1.97308,-0.60848 2.58156,0 0.30424,0.30424 -0.30424,0.98654 0,1.29078 0.30424,0.30424 0.98654,-0.30424 1.29078,0 0.30424,0.30424 -0.19242,0.90594 0,1.29078 0.54424,1.08848 2.03732,1.49308 2.58156,2.58156 0.19242,0.38483 -0.30424,0.98654 0,1.29078 0.30424,0.30424 0.98654,-0.30424 1.29078,0 0.30424,0.30424 -0.30424,0.98654 0,1.29078 0.30424,0.30424 0.98654,-0.30424 1.29078,0 0.60848,0.60848 -0.60848,1.97308 0,2.58156 0.30424,0.30424 0.98654,-0.30424 1.29078,0 0.30424,0.30424 0.43026,1.29078 0,1.29078 -0.43026,0 0,-1.72104 0,-1.29078 0,3.01182 -0.86052,2.58156 1.29078,2.58156"
       id="path3773"
       inkscape:connector-curvature="0" />
    <path
       style="fill:#000000;fill-opacity:0.00423728;stroke:#000000;stroke-width:4.9000001;stroke-miterlimit:4;stroke-opacity:1;stroke-dasharray:none;stroke-dashoffset:0"
       d="m 260.73759,144.39716 61.95745,0"
       id="path3779"
       inkscape:connector-curvature="0" />
    <path
       style="fill:#000000;fill-opacity:0.00423728;stroke:#000000;stroke-width:4.9000001;stroke-miterlimit:4;stroke-opacity:1;stroke-dasharray:none;stroke-dashoffset:0"
       d="M 322.69504,144.39716 371.74468,92.765955"
       id="path3785"
       inkscape:connector-curvature="0" />
    <path
       sodipodi:type="arc"
       id="path3787"
       style="fill:#000000;stroke:none"
       sodipodi:cx="374.32623"
       sodipodi:cy="94.056732"
       sodipodi:rx="7.3499999"
       sodipodi:ry="7.3499999"
       d="m 381.67623,94.056732 a 7.3499999,7.3499999 0 1 1 -14.7,0 7.3499999,7.3499999 0 1 1 14.7,0 z" />
    <path
       style="fill:#000000;fill-opacity:0.00423728;stroke:#000000;stroke-width:5.7762332;stroke-miterlimit:4;stroke-opacity:1;stroke-dasharray:none;stroke-dashoffset:0"
       d="m 393.68794,10.156024 177.57621,1.29078"
       id="path3789"
       inkscape:connector-curvature="0" />
    <path
       style="fill:#000000;fill-opacity:0.00423728;stroke:#000000;stroke-width:4.9000001;stroke-miterlimit:4;stroke-opacity:1;stroke-dasharray:none;stroke-dashoffset:0"
       d="m 485.33333,144.39716 0,-136.8226943"
       id="path3791"
       inkscape:connector-curvature="0" />
    <path
       style="fill:#000000;fill-opacity:0.00423728;stroke:#000000;stroke-width:4.9000001;stroke-miterlimit:4;stroke-opacity:1;stroke-dasharray:none;stroke-dashoffset:0"
       d="m 385.29788,146.97872 101.97163,0"
       id="path3795-6"
       inkscape:connector-curvature="0" />
  </g>
</svg>
