<?xml version="1.0" encoding="UTF-8" standalone="no"?>
<!-- Created with Inkscape (http://www.inkscape.org/) -->

<svg
   xmlns:dc="http://purl.org/dc/elements/1.1/"
   xmlns:cc="http://creativecommons.org/ns#"
   xmlns:rdf="http://www.w3.org/1999/02/22-rdf-syntax-ns#"
   xmlns:svg="http://www.w3.org/2000/svg"
   xmlns="http://www.w3.org/2000/svg"
   xmlns:sodipodi="http://sodipodi.sourceforge.net/DTD/sodipodi-0.dtd"
   xmlns:inkscape="http://www.inkscape.org/namespaces/inkscape"
   width="640px"
   height="480px"
   id="svg2985"
   version="1.1"
   inkscape:version="0.48.1 r9760"
   sodipodi:docname="cw.svg">
  <defs
     id="defs2987" />
  <sodipodi:namedview
     id="base"
     pagecolor="#ffffff"
     bordercolor="#666666"
     borderopacity="1.0"
     inkscape:pageopacity="0.0"
     inkscape:pageshadow="2"
     inkscape:zoom="0.54781349"
     inkscape:cx="297.41135"
     inkscape:cy="240"
     inkscape:current-layer="layer1"
     inkscape:document-units="px"
     showgrid="false"
     inkscape:window-width="1024"
     inkscape:window-height="549"
     inkscape:window-x="0"
     inkscape:window-y="25"
     inkscape:window-maximized="1" />
  <metadata
     id="metadata2990">
    <rdf:RDF>
      <cc:Work
         rdf:about="">
        <dc:format>image/svg+xml</dc:format>
        <dc:type
           rdf:resource="http://purl.org/dc/dcmitype/StillImage" />
        <dc:title />
      </cc:Work>
    </rdf:RDF>
  </metadata>
  <g
     id="layer1"
     inkscape:label="Layer 1"
     inkscape:groupmode="layer">
    <rect
       style="fill:#000000;fill-opacity:0.00423728;stroke:#000000;stroke-width:4.9000001;stroke-miterlimit:4;stroke-opacity:1;stroke-dasharray:none;stroke-dashoffset:0"
       id="rect2997"
       width="219.43263"
       height="138.11348"
       x="40.014191"
       y="79.858154" />
    <text
       xml:space="preserve"
       style="font-size:34.99649811px;font-style:normal;font-weight:normal;line-height:125%;letter-spacing:0px;word-spacing:0px;fill:#000000;fill-opacity:1;stroke:none;font-family:Sans"
       x="62.2384"
       y="132.85098"
       id="text3767"
       sodipodi:linespacing="125%"><tspan
         sodipodi:role="line"
         id="tspan3769"
         x="62.2384"
         y="132.85098">Oscillator</tspan></text>
    <path
       style="fill:#000000;fill-opacity:0.00423728;stroke:#000000;stroke-width:4.9000001;stroke-miterlimit:4;stroke-opacity:1;stroke-dasharray:none;stroke-dashoffset:0"
       d="m 260.73759,144.39716 61.95745,0"
       id="path3779"
       inkscape:connector-curvature="0" />
    <path
       style="fill:#000000;fill-opacity:0.00423728;stroke:#000000;stroke-width:4.9000001;stroke-miterlimit:4;stroke-opacity:1;stroke-dasharray:none;stroke-dashoffset:0"
       d="M 322.69504,144.39716 371.74468,92.765955"
       id="path3785"
       inkscape:connector-curvature="0" />
    <path
       sodipodi:type="arc"
       id="path3787"
       style="fill:#000000;stroke:none"
       sodipodi:cx="374.32623"
       sodipodi:cy="94.056732"
       sodipodi:rx="7.3499999"
       sodipodi:ry="7.3499999"
       d="m 381.67623,94.056732 a 7.3499999,7.3499999 0 1 1 -14.7,0 7.3499999,7.3499999 0 1 1 14.7,0 z" />
    <path
       style="fill:#000000;fill-opacity:0.00423728;stroke:#000000;stroke-width:4.9000001;stroke-miterlimit:4;stroke-opacity:1;stroke-dasharray:none;stroke-dashoffset:0"
       d="m 485.33333,144.39716 0,-136.8226943"
       id="path3791"
       inkscape:connector-curvature="0" />
    <path
       style="fill:#000000;fill-opacity:0.00423728;stroke:#000000;stroke-width:4.9000001;stroke-miterlimit:4;stroke-opacity:1;stroke-dasharray:none;stroke-dashoffset:0"
       d="m 385.29788,146.97872 101.97163,0"
       id="path3795-6"
       inkscape:connector-curvature="0" />
    <text
       xml:space="preserve"
       style="font-size:32.79204559px;font-style:normal;font-weight:normal;line-height:125%;letter-spacing:0px;word-spacing:0px;fill:#000000;fill-opacity:1;stroke:none;font-family:Sans"
       x="494.80185"
       y="53.567368"
       id="text3767-7"
       sodipodi:linespacing="125%"><tspan
         sodipodi:role="line"
         id="tspan3769-5"
         x="494.80185"
         y="53.567368">Antenna</tspan></text>
    <path
       style="fill:#000000;fill-opacity:0.00423728;stroke:#000000;stroke-width:4.9000001;stroke-miterlimit:4;stroke-opacity:1;stroke-dasharray:none;stroke-dashoffset:0"
       d="m 351.36068,211.27612 67.9976,0"
       id="path3129"
       inkscape:connector-curvature="0" />
    <path
       style="fill:#000000;fill-opacity:0.00423728;stroke:#000000;stroke-width:4.9000001;stroke-miterlimit:4;stroke-opacity:1;stroke-dasharray:none;stroke-dashoffset:0"
       d="m 361.85695,224.51055 43.35418,0"
       id="path3131"
       inkscape:connector-curvature="0" />
    <path
       style="fill:#000000;fill-opacity:0.00423728;stroke:#000000;stroke-width:4.9000001;stroke-miterlimit:4;stroke-opacity:1;stroke-dasharray:none;stroke-dashoffset:0"
       d="m 375.09139,240.02678 17.79803,0"
       id="path3133"
       inkscape:connector-curvature="0" />
    <path
       style="fill:#000000;fill-opacity:0.00423728;stroke:#000000;stroke-width:4.0999999;stroke-miterlimit:4;stroke-opacity:1;stroke-dasharray:none;stroke-dashoffset:0"
       d="m 383.69064,184.52104 0,25.81561"
       id="path4007"
       inkscape:connector-curvature="0" />
    <path
       style="fill:#000000;fill-opacity:0.00423728;stroke:#000000;stroke-width:4.0999999;stroke-miterlimit:4;stroke-opacity:1;stroke-dasharray:none;stroke-dashoffset:0"
       d="m 259.21231,185.19163 125.95528,0"
       id="path4009"
       inkscape:connector-curvature="0" />
    <path
       style="fill:#000000;fill-opacity:0;stroke:#000000;stroke-width:3.36316633;stroke-miterlimit:4;stroke-opacity:1;stroke-dasharray:none;stroke-dashoffset:0"
       d="m 71.204559,186.7544 c 3.536014,0.43084 1.174524,-4.11373 1.764678,-5.29404 0.372026,-0.74406 1.501613,-0.97549 1.764678,-1.76467 0.186013,-0.55806 -0.186013,-1.20664 0,-1.76468 0.17159,-0.51479 2.998933,-2.73372 3.529356,-3.52936 0.364808,-0.54721 0.588226,-1.17646 0.882339,-1.76469 0.588226,-0.58823 1.265548,-1.09917 1.764678,-1.76468 0.394598,-0.52611 0.487741,-1.23854 0.882339,-1.76468 0.748687,-0.99824 1.954861,-1.60876 2.647017,-2.64701 0.364807,-0.5472 0.417306,-1.29965 0.882339,-1.76468 0.465032,-0.46503 1.299645,-0.41731 1.764678,-0.88234 0.465032,-0.46503 0.417306,-1.29964 0.882338,-1.76468 0.465033,-0.46503 1.176452,-0.58822 1.764678,-0.88234 0.588226,-0.29411 1.14077,-0.67437 1.764678,-0.88233 0.27902,-0.093 0.60332,0.093 0.882339,0 0.623909,-0.20797 1.14077,-0.67437 1.764678,-0.88234 0.558042,-0.18602 1.238562,0.26306 1.764682,0 0.37202,-0.18602 0.51031,-0.69633 0.88234,-0.88234 0.52613,-0.26305 1.23856,0.26306 1.76467,0 0.37203,-0.18602 0.51032,-0.69633 0.88234,-0.88234 0.12687,-0.0634 4.371616,-0.0137 4.411686,0 0.3946,0.13152 0.51032,0.69632 0.88234,0.88234 0.52613,0.26306 1.23856,-0.26305 1.76468,0 0.37203,0.18601 0.47883,0.78145 0.88234,0.88234 0.85599,0.21399 1.79102,-0.214 2.64702,0 0.40352,0.10089 0.53626,0.65162 0.88234,0.88234 0.54721,0.3648 1.23856,0.48775 1.76467,0.88233 0.99826,0.7487 1.76468,1.76468 2.64702,2.64702 -0.22604,1.36062 2.96208,2.07974 3.52936,2.64702 0.46503,0.46503 0.51754,1.21748 0.88234,1.76468 0.46145,0.69217 1.39265,1.02062 1.76467,1.76467 0.13152,0.26307 -0.13152,0.61929 0,0.88234 0.18602,0.37204 0.69633,0.51032 0.88234,0.88234 0.47296,0.94593 -0.47295,0.81877 0,1.76469 0.18602,0.37203 0.69633,0.5103 0.88234,0.88234 0.26307,0.52612 -0.18601,1.20663 0,1.76468 0.20797,0.62389 0.67437,1.14077 0.88234,1.76468 0.18601,0.55804 -0.26305,1.23855 0,1.76468 0.18601,0.37202 0.69633,0.51031 0.88234,0.88233 0.17492,0.34984 -0.18038,2.46663 0,2.64702 0.20797,0.20797 0.67437,-0.20797 0.88234,0 0.20797,0.20797 -0.13152,0.61928 0,0.88234 0.18601,0.37203 0.69632,0.51031 0.88234,0.88234 0.13152,0.26305 -0.13152,0.61927 0,0.88234 0.18601,0.37203 0.58822,0.58822 0.88234,0.88234 0.29411,0.29411 0.51031,0.69632 0.88234,0.88234 0.26306,0.13152 0.61928,-0.13152 0.88233,0 0.37204,0.18601 0.51032,0.69632 0.88234,0.88234 0.26307,0.13151 0.61929,-0.13152 0.88234,0 0.74407,0.37202 0.9755,1.50161 1.76469,1.76467 0.55804,0.18602 1.23855,-0.26306 1.76468,0 0.26305,0.13152 -0.20797,0.67437 0,0.88234 0.20797,0.20797 0.61928,-0.13152 0.88234,0 1.0588,0.5294 1.58821,2.11761 2.64702,2.64702 0.26305,0.13152 0.61927,-0.13152 0.88234,0 0.74405,0.37203 1.02061,1.39265 1.76467,1.76468 0.26306,0.13152 0.67437,-0.20797 0.88234,0 0.20797,0.20797 -0.13152,0.61927 0,0.88234 0.43413,0.86824 3.09522,2.66109 3.52936,3.52935 0.13152,0.26307 -0.20797,0.67437 0,0.88234 0.20797,0.20797 0.61927,-0.13152 0.88234,0 0.37202,0.18601 0.51031,0.69633 0.88234,0.88234 0.26305,0.13152 0.58822,0 0.88234,0 0.58822,0 1.17645,0 1.76467,0 1.76468,0 3.52936,0 5.29404,0 0.30058,0 3.05183,0.15918 3.52935,0 0.62391,-0.20797 1.14077,-0.67437 1.76468,-0.88234 0.27902,-0.093 0.61928,0.13152 0.88234,0 0.74405,-0.37203 1.02063,-1.39265 1.76468,-1.76468 0.34984,-0.17492 2.46663,0.18038 2.64702,0 0.20796,-0.20797 -0.20797,-0.67437 0,-0.88234 0.20796,-0.20797 0.58822,0 0.88233,0 0.29412,-0.29411 0.65162,-0.53626 0.88234,-0.88233 0.3648,-0.54722 0.67437,-1.14077 0.88234,-1.76468 0.093,-0.27902 -0.20797,-0.67437 0,-0.88234 0.20797,-0.20797 0.67437,0.20797 0.88234,0 0.20797,-0.20797 -0.13152,-0.61929 0,-0.88234 0.40545,-0.81092 3.30619,-2.85985 3.52936,-3.52936 0.18601,-0.55804 -0.18602,-1.20663 0,-1.76467 0.26306,-0.7892 1.39265,-1.02063 1.76468,-1.76468 0.13151,-0.26307 -0.093,-0.60332 0,-0.88234 0.41593,-1.24782 1.44566,-2.25332 1.76467,-3.52936 0.14266,-0.57067 0,-1.17645 0,-1.76468 0.29412,-0.58822 0.72284,-1.12666 0.88234,-1.76467 0.14266,-0.57067 -0.18601,-1.20664 0,-1.76468 0.13152,-0.3946 0.69633,-0.51031 0.88234,-0.88234 0.26307,-0.52613 -0.26306,-1.23856 0,-1.76468 0.18601,-0.37204 0.69633,-0.51031 0.88234,-0.88234 0.26307,-0.52613 -0.26307,-1.23856 0,-1.76469 0.18601,-0.37202 0.69633,-0.5103 0.88234,-0.88234 0.26306,-0.52611 -0.26307,-1.23854 0,-1.76468 0.18601,-0.37202 0.69632,-0.51031 0.88234,-0.88233 0.13152,-0.26306 -0.13152,-0.61928 0,-0.88234 1.83604,-3.67207 -0.061,0.94326 1.76468,-0.88234 0.20797,-0.20797 -0.13152,-0.61928 0,-0.88234 0.52939,-1.0588 2.1176,-1.58821 2.64701,-2.64702 0.13152,-0.26305 -0.20797,-0.67437 0,-0.88234 0.20797,-0.20797 0.61928,0.13152 0.88234,0 0.37203,-0.18601 0.51031,-0.69632 0.88234,-0.88234 0.94167,-0.47083 0.82301,0.47085 1.76468,0 0.37202,-0.18601 0.51031,-0.69632 0.88234,-0.88233 0.26306,-0.13152 0.58822,0 0.88234,0 0.58822,0 1.17645,0 1.76467,0 1.47057,0 2.94113,0 4.4117,0 1.76468,0 3.52936,0 5.29403,0 0.88234,0 1.80996,-0.27902 2.64702,0 0.78918,0.26306 1.02063,1.39265 1.76468,1.76467 0.57777,0.28889 3.62868,-0.261 4.41169,0 6.39115,2.13039 -1.3911,-0.25437 2.64702,1.76468 0.26306,0.13152 0.61927,-0.13152 0.88234,0 2.92635,2.92635 -0.83188,-0.41594 1.76468,0.88234 1.05881,0.52941 1.5882,2.11762 2.64701,2.64702 0.26307,0.13152 0.61928,-0.13152 0.88234,0 0.36507,0.18254 2.39769,2.27303 2.64702,2.64701 0.36481,0.54722 0.41731,1.29965 0.88234,1.76468 0.46503,0.46505 1.21748,0.51755 1.76468,0.88234 0.34607,0.23073 0.51031,0.69633 0.88234,0.88235 0.26306,0.13152 0.61927,-0.13152 0.88233,0 0.37203,0.18602 0.58823,0.58823 0.88234,0.88234 0.29412,0.29412 0.69633,0.5103 0.88234,0.88234 0.13152,0.26305 -0.13152,0.61927 0,0.88234 0.52941,1.0588 2.11762,1.58821 2.64702,2.64702 0.13152,0.26305 -0.20797,0.67437 0,0.88234 1.8256,1.82558 -0.0714,-2.78975 1.76468,0.88233 0.13152,0.26306 -0.13152,0.61928 0,0.88234 0.18601,0.37203 0.69632,0.51032 0.88234,0.88234 0.13151,0.26305 -0.13152,0.61928 0,0.88234 0.18601,0.37203 0.69632,0.51031 0.88233,0.88234 0.26307,0.52612 -0.26306,1.23855 0,1.76468 0.18602,0.37203 0.69633,0.51031 0.88234,0.88234 0.26307,0.52611 -0.41594,1.34874 0,1.76468 0.20797,0.20797 0.67437,-0.20797 0.88234,0 0.44118,0.44116 -0.44116,2.20584 0,2.64701 1.17645,1.17645 0.88234,-1.47056 0.88234,0.88234"
       id="path5016"
       inkscape:connector-curvature="0" />
  </g>
</svg>
