<?xml version="1.0" encoding="UTF-8" standalone="no"?>
<!-- Created with Inkscape (http://www.inkscape.org/) -->

<svg
   xmlns:dc="http://purl.org/dc/elements/1.1/"
   xmlns:cc="http://creativecommons.org/ns#"
   xmlns:rdf="http://www.w3.org/1999/02/22-rdf-syntax-ns#"
   xmlns:svg="http://www.w3.org/2000/svg"
   xmlns="http://www.w3.org/2000/svg"
   xmlns:sodipodi="http://sodipodi.sourceforge.net/DTD/sodipodi-0.dtd"
   xmlns:inkscape="http://www.inkscape.org/namespaces/inkscape"
   width="640px"
   height="480px"
   id="svg2985"
   version="1.1"
   inkscape:version="0.48.1 r9760"
   sodipodi:docname="diode.svg">
  <defs
     id="defs2987" />
  <sodipodi:namedview
     id="base"
     pagecolor="#ffffff"
     bordercolor="#666666"
     borderopacity="1.0"
     inkscape:pageopacity="0.0"
     inkscape:pageshadow="2"
     inkscape:zoom="0.77472527"
     inkscape:cx="335.65782"
     inkscape:cy="313.22669"
     inkscape:current-layer="layer1"
     inkscape:document-units="px"
     showgrid="false"
     inkscape:window-width="1024"
     inkscape:window-height="549"
     inkscape:window-x="0"
     inkscape:window-y="25"
     inkscape:window-maximized="1" />
  <metadata
     id="metadata2990">
    <rdf:RDF>
      <cc:Work
         rdf:about="">
        <dc:format>image/svg+xml</dc:format>
        <dc:type
           rdf:resource="http://purl.org/dc/dcmitype/StillImage" />
        <dc:title></dc:title>
      </cc:Work>
    </rdf:RDF>
  </metadata>
  <g
     id="layer1"
     inkscape:label="Layer 1"
     inkscape:groupmode="layer">
    <path
       style="fill:#000000;fill-opacity:0.00423728;stroke:#000000;stroke-width:4.9000001;stroke-miterlimit:4;stroke-opacity:1;stroke-dasharray:none;stroke-dashoffset:0"
       d="m 132.95036,32.099288 0,214.269502"
       id="path3024"
       inkscape:connector-curvature="0" />
    <path
       style="fill:#000000;fill-opacity:0.00423728;stroke:#000000;stroke-width:4.9000001;stroke-miterlimit:4;stroke-opacity:1;stroke-dasharray:none;stroke-dashoffset:0"
       d="m 81.319149,217.97163 401.432631,0"
       id="path3028"
       inkscape:connector-curvature="0" />
    <path
       style="fill:#0000ff;fill-opacity:0.00423728;stroke:#0000ff;stroke-width:6.83093929;stroke-miterlimit:4;stroke-opacity:1;stroke-dasharray:none;stroke-dashoffset:0"
       d="M 85.491524,242.22052 471.48011,12.368116"
       id="path3032"
       inkscape:connector-curvature="0" />
    <path
       style="fill:#ff0000;fill-opacity:0.00423728;stroke:#ff0000;stroke-width:5.15845299;stroke-miterlimit:4;stroke-opacity:1;stroke-dasharray:none;stroke-dashoffset:0"
       d="m 84.029934,211.3038 c 1.8494,0 3.754023,-0.4305 5.5482,0 0.448552,0.10763 -0.326931,1.01747 0,1.33125 0.326931,0.31378 0.924699,0 1.387049,0 0.46235,0 0.9247,0 1.38705,0 6.010549,0 12.021097,0 18.031647,0 0.52857,0 6.80063,0.12921 6.93526,0 0.32693,-0.31378 -0.46235,-1.33125 0,-1.33125 1.03385,0 1.79331,1.01747 2.7741,1.33125 0.83215,0.26623 5.82844,0 6.93525,0 2.77409,0 5.54819,0 8.32229,0 0.46235,0 0.9247,0 1.38705,0 0.46235,0 0.97352,-0.19845 1.38705,0 0.58483,0.28065 0.80222,1.0506 1.38705,1.33125 0.36471,0.17502 4.82289,0 5.5482,0 0.72532,0 5.18348,0.17502 5.5482,0 0.58483,-0.28065 0.80222,-1.0506 1.38705,-1.33125 0.89929,-0.43156 7.01554,0.41806 8.32231,0 0.98078,-0.31378 1.79329,-1.01747 2.77409,-1.33125 0.87058,-0.27852 4.43157,0 5.54819,0 3.6988,0 7.3976,0 11.0964,0 0.3364,0 4.11655,-0.0428 4.16115,0 0.32693,0.31378 -0.32693,1.01747 0,1.33125 0.32693,0.31378 0.9247,0 1.38705,0 0.46235,0 0.9247,0 1.38705,0 6.01056,0 12.02111,0 18.03166,0 5.08585,0 10.1717,0 15.25755,0 0.96475,0 6.43364,-0.24072 6.93525,0 0.58483,0.28065 0.80222,1.0506 1.38705,1.33125 0.36471,0.17502 4.82287,0 5.5482,0 1.11662,0 4.67761,0.27852 5.54819,0 0.9808,-0.31378 1.79331,-1.01747 2.7741,-1.33125 0.87725,-0.28065 1.94703,0.3969 2.7741,0 0.58483,-0.28065 0.80222,-1.05059 1.38705,-1.33125 0.82708,-0.3969 1.94703,0.3969 2.7741,0 0.58483,-0.28065 0.80222,-1.05059 1.38705,-1.33124 0.41355,-0.19846 0.9247,0 1.38705,0 1.1353,0 7.91646,0.19476 8.3223,0 0.41354,-0.19846 -0.32693,-1.01747 0,-1.33125 0.32693,-0.31378 0.97352,0.19845 1.38705,0 0.58483,-0.28065 0.80222,-1.0506 1.38705,-1.33125 0.41354,-0.19845 0.97352,0.19845 1.38705,0 0.58483,-0.28065 0.80222,-1.0506 1.38705,-1.33125 0.41354,-0.19845 0.97352,0.19845 1.38705,0 0.58483,-0.28065 0.80222,-1.0506 1.38705,-1.33125 0.75247,-0.3611 5.16868,0.36425 5.5482,0 0.32693,-0.31378 -0.32693,-1.01747 0,-1.33125 0.32693,-0.31378 0.9247,0 1.38705,0 3.23645,0 6.4729,0 9.70936,0 0.95779,0 5.12648,0.20237 5.5482,0 1.16966,-0.5613 1.60443,-2.10119 2.7741,-2.66249 0.82707,-0.39691 1.94701,0.39689 2.7741,0 0.58483,-0.28066 0.9247,-0.8875 1.38705,-1.33125 0.9247,0 1.89685,0.28065 2.7741,0 0.6203,-0.19846 0.80222,-1.0506 1.38705,-1.33125 0.82707,-0.39691 1.94701,0.39689 2.7741,0 0.58483,-0.28065 0.9247,-0.8875 1.38705,-1.33125 0.9247,0 1.89685,0.28065 2.7741,0 0.6203,-0.19845 0.76673,-1.13281 1.38705,-1.33125 6.31424,0 0.0793,0.62756 4.16114,-1.33125 1.10964,-0.5325 3.05151,0.5325 4.16115,0 0.58483,-0.28065 0.80222,-1.05059 1.38705,-1.33125 0.41355,-0.19845 0.97351,0.19845 1.38705,0 0.58483,-0.28065 0.80222,-1.05059 1.38705,-1.33124 0.41355,-0.19846 0.97351,0.19844 1.38705,0 0.58483,-0.28066 0.80222,-1.0506 1.38705,-1.33125 0.41355,-0.19846 0.97351,0.19844 1.38705,0 1.2294,-0.58998 2.8985,-3.18585 4.16115,-3.99375 0.86022,-0.55041 1.91389,-0.78085 2.7741,-1.33125 0.54405,-0.34811 0.9247,-0.8875 1.38705,-1.33125 1.38705,-1.33125 2.7741,-2.6625 4.16115,-3.99375 0.46235,-0.44375 0.80222,-1.0506 1.38705,-1.33125 0.41354,-0.19844 1.06012,0.31378 1.38705,0 0.32693,-0.31378 -0.41354,-1.1328 0,-1.33125 0.82707,-0.39689 1.89685,0.28065 2.7741,0 0.62031,-0.19844 0.80222,-1.0506 1.38705,-1.33125 0.82707,-0.39689 2.12024,0.62756 2.7741,0 0.32693,-0.31378 -0.32693,-1.01747 0,-1.33125 0.32693,-0.31377 0.94843,0.14033 1.38705,0 0.98079,-0.31377 1.79331,-1.01747 2.7741,-1.33124 0.43862,-0.14033 0.97352,0.19845 1.38705,0 3.06685,-1.47173 0.43043,-0.82623 1.38705,-2.6625 2.88628,-5.54033 -0.0958,1.42315 2.7741,-1.33125 0.32693,-0.31378 -0.32693,-1.01747 0,-1.33125 0.32693,-0.31378 0.9247,0 1.38705,0 0,-0.44375 -0.20677,-0.93434 0,-1.33125 0.29241,-0.5613 0.9247,-0.8875 1.38705,-1.33125 0.46235,-0.44374 0.80222,-1.05059 1.38705,-1.33124 0.82708,-0.3969 2.12024,0.62755 2.7741,0 0.32693,-0.31378 -0.32693,-1.01747 0,-1.33125 0.32693,-0.31378 1.06012,0.31378 1.38705,0 0.32693,-0.31378 -0.32693,-1.01747 0,-1.33125 0.32693,-0.31378 1.06012,0.31378 1.38705,0 0.32693,-0.31378 0,-0.8875 0,-1.33125 0.46235,0 0.97352,0.19845 1.38705,0 2.12437,-1.01945 1.0847,-2.3723 2.7741,-3.99374 0.32693,-0.31378 1.06012,0.31377 1.38705,0 0.32693,-0.31378 -0.32693,-1.01747 0,-1.33125 0.32693,-0.31378 0.97351,0.19845 1.38705,0 1.16967,-0.56131 1.60443,-2.1012 2.77411,-2.6625 0.41353,-0.19845 1.06011,0.31378 1.38705,0 0.32692,-0.31378 -0.20678,-0.93434 0,-1.33125 0.29241,-0.5613 1.09462,-0.76994 1.38705,-1.33125 0.20676,-0.3969 -0.32694,-1.01747 0,-1.33125 0.32693,-0.31377 0.9735,0.19846 1.38705,0 5.77256,-2.77017 -1.48281,0.0919 1.38705,-2.66249 0.32693,-0.31378 0.9735,0.19845 1.38705,0 5.77256,-2.77017 -1.48281,0.0919 1.38705,-2.6625 0.32693,-0.31378 1.06011,0.31378 1.38704,0 0.32694,-0.31378 0,-0.8875 0,-1.33125 0.46235,0 1.06012,0.31378 1.38705,0 0.65387,-0.62756 -0.65386,-2.03494 0,-2.6625 0.32694,-0.31377 1.06012,0.31378 1.38705,0 0.32694,-0.31377 -0.1462,-0.91027 0,-1.33124 0.32694,-0.94134 0.65602,-1.96087 1.38705,-2.6625 0.32694,-0.31378 1.06012,0.31378 1.38705,0 0.32694,-0.31378 -0.20677,-0.93434 0,-1.33125 0.58483,-1.12261 2.18927,-1.53989 2.7741,-2.6625 0.20677,-0.3969 -0.32693,-1.01747 0,-1.33125 0.32693,-0.31377 1.06012,0.31378 1.38705,0 0.32693,-0.31377 -0.20677,-0.93434 0,-1.33124 0.29242,-0.56131 1.09464,-0.76995 1.38705,-1.33125 0.20677,-0.39691 -0.32693,-1.01747 0,-1.33125 0.32693,-0.31378 0.97351,0.19845 1.38705,0 0.58483,-0.28065 0.80222,-1.0506 1.38705,-1.33125 0.41353,-0.19845 1.06012,0.31378 1.38705,0 0.32693,-0.31378 -0.32693,-1.01747 0,-1.33125 0.32693,-0.31378 1.06012,0.31378 1.38705,0 0.32693,-0.31378 -0.20677,-0.93435 0,-1.33125 4.60027,-4.41519 -0.65386,1.25512 1.38705,-2.66249 0.29242,-0.56131 1.09464,-0.76995 1.38705,-1.33125 0.20677,-0.39691 -0.20677,-0.93436 0,-1.33125 0.29242,-0.5613 1.09464,-0.76995 1.38705,-1.33125 0.20677,-0.3969 -0.20677,-0.93435 0,-1.33125 0.29242,-0.5613 1.09464,-0.76994 1.38705,-1.33125 0.41353,-0.79381 -0.29241,-1.82054 0,-2.66249 0.32693,-0.94134 1.06012,-1.72116 1.38705,-2.6625 0.14621,-0.42098 -0.20677,-0.93435 0,-1.33125 0.29242,-0.5613 1.09464,-0.76994 1.38705,-1.33125 0.20677,-0.3969 -0.32693,-1.01747 0,-1.33125 0.32693,-0.31377 1.06012,0.31378 1.38705,0 0.65386,-0.62755 -0.41354,-1.86869 0,-2.662493 0.29242,-0.561303 1.09464,-0.769945 1.38705,-1.331248 0.43589,-0.836726 -0.43589,-4.488279 0,-5.324994 0.29242,-0.561303 1.02436,-0.809096 1.38705,-1.331249 0.57347,-0.825608 0.81358,-1.8369 1.38705,-2.662497 0.36269,-0.522163 1.09463,-0.769946 1.38705,-1.331249 0.41354,-0.793811 -0.65386,-2.03494 0,-2.662497 0.32693,-0.313778 0.9247,0 1.38705,0 0,-0.443749 -0.32693,-1.01747 0,-1.331248 0.32693,-0.313779 1.06012,0.313778 1.38705,0 0.65386,-0.627557 -0.41354,-1.868697 0,-2.662497 0.73034,-1.401917 2.04376,-1.260591 2.7741,-2.662508 0.41354,-0.7938 -0.41354,-1.868686 0,-2.662497 0.29241,-0.561303 1.09463,-0.769935 1.38705,-1.331248 0.20677,-0.396895 0,-0.887499 0,-1.331249 0,-0.443749 0,-0.887499 0,-1.331248 0,-2.218748 0,-4.437495 0,-6.656243 0,-0.887499 0,-1.774998 0,-2.662497 0,-0.443749 -0.20677,-0.934343 0,-1.331248 0.29241,-0.561303 1.09463,-0.769946 1.38705,-1.331249 0.43753,-0.83984 -0.43753,-5.816392 0,-6.656243 0.29241,-0.561303 1.09463,-0.769945 1.38705,-1.331248 0.36773,-0.705878 -0.31454,-5.750592 0,-6.656243 0.20677,-0.595348 1.09463,-0.769945 1.38705,-1.331248 0.20677,-0.396906 0,-0.887499 0,-1.331249 0,-0.443749 0,-0.887499 0,-1.331248 0,-1.340634 -0.25569,-7.251292 0,-7.987491 0.20677,-0.595348 1.09463,-0.769946 1.38705,-1.331249 0.20677,-0.396905 0,-0.887499 0,-1.331249 0,-0.443749 0,-0.887499 0,-1.331248 0,-2.218748 0,-4.437495 0,-6.656243 0,-0.443749 -0.20677,-0.934353 0,-1.331248 0.29241,-0.561303 1.09463,-0.769946 1.38705,-1.331249 0.20677,-0.396905 0,-0.887499 0,-1.331248 0,-0.44375 0,-0.887499 0,-1.331249 0,-2.218747 0,-4.437495 0,-6.656242"
       id="path3812"
       inkscape:connector-curvature="0" />
    <text
       xml:space="preserve"
       style="font-size:26.84998703px;font-style:normal;font-weight:normal;line-height:125%;letter-spacing:0px;word-spacing:0px;fill:#000000;fill-opacity:1;stroke:none;font-family:Sans"
       x="12.342584"
       y="114.51142"
       id="text3814"
       sodipodi:linespacing="125%"><tspan
         sodipodi:role="line"
         id="tspan3816"
         x="12.342584"
         y="114.51142">current</tspan></text>
    <text
       xml:space="preserve"
       style="font-size:26.84998703px;font-style:normal;font-weight:normal;line-height:125%;letter-spacing:0px;word-spacing:0px;fill:#000000;fill-opacity:1;stroke:none;font-family:Sans"
       x="250.53975"
       y="272.38516"
       id="text3814-5"
       sodipodi:linespacing="125%"><tspan
         sodipodi:role="line"
         id="tspan3816-2"
         x="250.53975"
         y="272.38516">voltage</tspan></text>
    <rect
       style="fill:#000000;fill-opacity:0.00423728;stroke:#000000;stroke-width:2.13797688;stroke-miterlimit:4;stroke-opacity:1;stroke-dasharray:2.13797675, 2.13797675;stroke-dashoffset:0"
       id="rect3845"
       width="236.21277"
       height="181.4276"
       x="223.30496"
       y="50.742607" />
    <path
       style="fill:#000000;fill-opacity:0.00423728;stroke:#ff0000;stroke-width:4.0999999;stroke-miterlimit:4;stroke-opacity:1;stroke-dasharray:none;stroke-dashoffset:0"
       d="m 535.67376,174.08511 54.21277,0"
       id="path3847"
       inkscape:connector-curvature="0" />
    <path
       style="fill:#000000;fill-opacity:0.00423728000000000;stroke:#0000ff;stroke-width:4.09999990000000025;stroke-miterlimit:4;stroke-opacity:1;stroke-dasharray:none;stroke-dashoffset:0"
       d="m 536.96454,110.83687 54.21277,0"
       id="path3847-3"
       inkscape:connector-curvature="0" />
    <text
       xml:space="preserve"
       style="font-size:26.84998703px;font-style:normal;font-weight:normal;line-height:125%;letter-spacing:0px;word-spacing:0px;fill:#000000;fill-opacity:1;stroke:none;font-family:Sans"
       x="521.97009"
       y="98.882523"
       id="text3814-5-3"
       sodipodi:linespacing="125%"><tspan
         sodipodi:role="line"
         id="tspan3816-2-8"
         x="521.97009"
         y="98.882523">ohmic</tspan></text>
    <text
       xml:space="preserve"
       style="font-size:26.84998703px;font-style:normal;font-weight:normal;line-height:125%;letter-spacing:0px;word-spacing:0px;fill:#000000;fill-opacity:1;stroke:none;font-family:Sans"
       x="525.82684"
       y="155.69769"
       id="text3814-5-3-7"
       sodipodi:linespacing="125%"><tspan
         sodipodi:role="line"
         id="tspan3816-2-8-9"
         x="525.82684"
         y="155.69769">diode</tspan></text>
  </g>
</svg>
