<?xml version="1.0" encoding="UTF-8" standalone="no"?>
<!-- Created with Inkscape (http://www.inkscape.org/) -->

<svg
   xmlns:dc="http://purl.org/dc/elements/1.1/"
   xmlns:cc="http://creativecommons.org/ns#"
   xmlns:rdf="http://www.w3.org/1999/02/22-rdf-syntax-ns#"
   xmlns:svg="http://www.w3.org/2000/svg"
   xmlns="http://www.w3.org/2000/svg"
   xmlns:sodipodi="http://sodipodi.sourceforge.net/DTD/sodipodi-0.dtd"
   xmlns:inkscape="http://www.inkscape.org/namespaces/inkscape"
   width="640px"
   height="480px"
   id="svg2985"
   version="1.1"
   inkscape:version="0.48.1 r9760"
   sodipodi:docname="fsk.svg">
  <defs
     id="defs2987" />
  <sodipodi:namedview
     id="base"
     pagecolor="#ffffff"
     bordercolor="#666666"
     borderopacity="1.0"
     inkscape:pageopacity="0.0"
     inkscape:pageshadow="2"
     inkscape:zoom="1.095627"
     inkscape:cx="317.0302"
     inkscape:cy="295.47477"
     inkscape:current-layer="layer1"
     inkscape:document-units="px"
     showgrid="false"
     inkscape:window-width="1024"
     inkscape:window-height="549"
     inkscape:window-x="0"
     inkscape:window-y="25"
     inkscape:window-maximized="1" />
  <metadata
     id="metadata2990">
    <rdf:RDF>
      <cc:Work
         rdf:about="">
        <dc:format>image/svg+xml</dc:format>
        <dc:type
           rdf:resource="http://purl.org/dc/dcmitype/StillImage" />
        <dc:title></dc:title>
      </cc:Work>
    </rdf:RDF>
  </metadata>
  <g
     id="layer1"
     inkscape:label="Layer 1"
     inkscape:groupmode="layer">
    <rect
       style="fill:#000000;fill-opacity:0.00423728;stroke:#000000;stroke-width:2.97443724;stroke-miterlimit:4;stroke-opacity:1;stroke-dasharray:none;stroke-dashoffset:0"
       id="rect2997"
       width="133.20175"
       height="83.838745"
       x="148.02377"
       y="61.681358" />
    <text
       xml:space="preserve"
       style="font-size:21.24385452px;font-style:normal;font-weight:normal;line-height:125%;letter-spacing:0px;word-spacing:0px;fill:#000000;fill-opacity:1;stroke:none;font-family:Sans"
       x="161.5145"
       y="93.849487"
       id="text3767"
       sodipodi:linespacing="125%"><tspan
         sodipodi:role="line"
         id="tspan3769"
         x="161.5145"
         y="93.849487">Oscillator</tspan></text>
    <path
       style="fill:#000000;fill-opacity:0.00423728;stroke:#000000;stroke-width:2.47637844;stroke-miterlimit:4;stroke-opacity:1;stroke-dasharray:none;stroke-dashoffset:0"
       d="m 423.33643,164.03396 61.89963,0"
       id="path3795-6"
       inkscape:connector-curvature="0" />
    <path
       style="fill:#000000;fill-opacity:0.00423728;stroke:#000000;stroke-width:2.97443724;stroke-miterlimit:4;stroke-opacity:1;stroke-dasharray:none;stroke-dashoffset:0"
       d="m 50.425921,117.72502 41.27645,0"
       id="path3129"
       inkscape:connector-curvature="0" />
    <path
       style="fill:#000000;fill-opacity:0.00423728;stroke:#000000;stroke-width:2.97443724;stroke-miterlimit:4;stroke-opacity:1;stroke-dasharray:none;stroke-dashoffset:0"
       d="m 56.797451,125.75869 26.3172,0"
       id="path3131"
       inkscape:connector-curvature="0" />
    <path
       style="fill:#000000;fill-opacity:0.00423728;stroke:#000000;stroke-width:2.97443724;stroke-miterlimit:4;stroke-opacity:1;stroke-dasharray:none;stroke-dashoffset:0"
       d="m 64.831131,135.17748 10.8039,0"
       id="path3133"
       inkscape:connector-curvature="0" />
    <path
       style="fill:#000000;fill-opacity:0.00423728;stroke:#000000;stroke-width:2.48881459;stroke-miterlimit:4;stroke-opacity:1;stroke-dasharray:none;stroke-dashoffset:0"
       d="m 70.051111,101.48394 0,15.6708"
       id="path4007"
       inkscape:connector-curvature="0" />
    <path
       style="fill:#000000;fill-opacity:0.00423728;stroke:#000000;stroke-width:2.48881459;stroke-miterlimit:4;stroke-opacity:1;stroke-dasharray:none;stroke-dashoffset:0"
       d="m 69.332273,101.89102 76.458377,0"
       id="path4009"
       inkscape:connector-curvature="0" />
    <path
       style="fill:#000000;fill-opacity:0.00423728;stroke:#000000;stroke-width:2.48881459;stroke-miterlimit:4;stroke-opacity:1;stroke-dasharray:none;stroke-dashoffset:0"
       d="m 281.67895,102.13417 76.45838,0"
       id="path4009-8"
       inkscape:connector-curvature="0" />
    <text
       xml:space="preserve"
       style="font-size:24.19497299px;font-style:normal;font-weight:normal;line-height:125%;letter-spacing:0px;word-spacing:0px;fill:#000000;fill-opacity:1;stroke:none;font-family:Sans"
       x="518.71613"
       y="117.17101"
       id="text3767-7-7"
       sodipodi:linespacing="125%"><tspan
         sodipodi:role="line"
         id="tspan3769-5-3"
         x="518.71613"
         y="117.17101">Antenna</tspan></text>
    <rect
       style="fill:#000000;fill-opacity:0.00423728;stroke:#000000;stroke-width:2.97443724;stroke-miterlimit:4;stroke-opacity:1;stroke-dasharray:none;stroke-dashoffset:0"
       id="rect2997-3"
       width="133.20175"
       height="83.838745"
       x="147.88818"
       y="177.95561" />
    <text
       xml:space="preserve"
       style="font-size:21.24385452px;font-style:normal;font-weight:normal;line-height:125%;letter-spacing:0px;word-spacing:0px;fill:#000000;fill-opacity:1;stroke:none;font-family:Sans"
       x="161.37889"
       y="210.12375"
       id="text3767-8"
       sodipodi:linespacing="125%"><tspan
         sodipodi:role="line"
         id="tspan3769-0"
         x="161.37889"
         y="210.12375">Oscillator</tspan></text>
    <path
       style="fill:#000000;fill-opacity:0.00423728;stroke:#000000;stroke-width:2.97443724;stroke-miterlimit:4;stroke-opacity:1;stroke-dasharray:none;stroke-dashoffset:0"
       d="m 51.012735,231.01323 41.27645,0"
       id="path3129-2"
       inkscape:connector-curvature="0" />
    <path
       style="fill:#000000;fill-opacity:0.00423728;stroke:#000000;stroke-width:2.97443724;stroke-miterlimit:4;stroke-opacity:1;stroke-dasharray:none;stroke-dashoffset:0"
       d="m 57.384265,239.0469 26.3172,0"
       id="path3131-7"
       inkscape:connector-curvature="0" />
    <path
       style="fill:#000000;fill-opacity:0.00423728;stroke:#000000;stroke-width:2.97443724;stroke-miterlimit:4;stroke-opacity:1;stroke-dasharray:none;stroke-dashoffset:0"
       d="m 65.417945,248.46569 10.8039,0"
       id="path3133-4"
       inkscape:connector-curvature="0" />
    <path
       style="fill:#000000;fill-opacity:0.00423728;stroke:#000000;stroke-width:2.48881459;stroke-miterlimit:4;stroke-opacity:1;stroke-dasharray:none;stroke-dashoffset:0"
       d="m 70.637925,214.77215 0,15.6708"
       id="path4007-4"
       inkscape:connector-curvature="0" />
    <path
       style="fill:#000000;fill-opacity:0.00423728;stroke:#000000;stroke-width:2.48881459;stroke-miterlimit:4;stroke-opacity:1;stroke-dasharray:none;stroke-dashoffset:0"
       d="m 69.919087,215.17923 76.458383,0"
       id="path4009-1"
       inkscape:connector-curvature="0" />
    <path
       style="fill:#000000;fill-opacity:0.00423728;stroke:#000000;stroke-width:2.48881459;stroke-miterlimit:4;stroke-opacity:1;stroke-dasharray:none;stroke-dashoffset:0"
       d="m 281.2226,218.04954 76.45837,0"
       id="path4009-8-1"
       inkscape:connector-curvature="0" />
    <path
       style="fill:#000000;fill-opacity:0.00423728;stroke:#000000;stroke-width:2.46000004;stroke-miterlimit:4;stroke-opacity:1;stroke-dasharray:none;stroke-dashoffset:0"
       d="M 424.66666,163.11348 356.90071,102.44681"
       id="path4869"
       inkscape:connector-curvature="0" />
    <path
       sodipodi:type="arc"
       style="fill:#000000;fill-opacity:0.99215686;stroke:#000000;stroke-width:2.46000004;stroke-miterlimit:4;stroke-opacity:1;stroke-dasharray:none;stroke-dashoffset:0"
       id="path4871"
       sodipodi:cx="385.94327"
       sodipodi:cy="70.177307"
       sodipodi:rx="3.2269504"
       sodipodi:ry="3.2269504"
       d="m 389.17022,70.177307 a 3.2269504,3.2269504 0 1 1 -6.4539,0 3.2269504,3.2269504 0 1 1 6.4539,0 z"
       transform="matrix(1.3071784,0,0,1.3071784,-147.13964,10.523517)" />
    <path
       style="fill:#000000;fill-opacity:0.99215686;stroke:#000000;stroke-width:2.46000004;stroke-miterlimit:4;stroke-opacity:1;stroke-dasharray:none;stroke-dashoffset:0"
       d="m 485.33333,163.75887 0,-145.212767"
       id="path4873"
       inkscape:connector-curvature="0" />
    <path
       style="fill:#000000;fill-opacity:0;stroke:#000000;stroke-width:2.46000004;stroke-miterlimit:4;stroke-opacity:1;stroke-dasharray:none;stroke-dashoffset:0"
       d="m 154.24823,126.97164 c 2.58643,0.31514 0.85911,-3.009 1.29078,-3.87234 0.27212,-0.54425 1.09836,-0.71353 1.29078,-1.29078 0.13606,-0.40819 -0.13606,-0.8826 0,-1.29078 0.12551,-0.37654 2.19358,-1.99959 2.58156,-2.58156 0.26684,-0.40026 0.43026,-0.86053 0.64539,-1.29079 0.43026,-0.43026 0.92569,-0.80399 1.29078,-1.29078 0.28863,-0.38483 0.35676,-0.90594 0.64539,-1.29078 0.54763,-0.73017 1.42989,-1.17674 1.93617,-1.93617 0.26684,-0.40025 0.30524,-0.95063 0.64539,-1.29078 0.34015,-0.34015 0.95063,-0.30524 1.29078,-0.64539 0.34015,-0.34015 0.30524,-0.95063 0.64539,-1.29078 0.34015,-0.34015 0.86052,-0.43026 1.29078,-0.64539 0.43026,-0.21513 0.83442,-0.49327 1.29078,-0.64539 0.20409,-0.068 0.4413,0.068 0.64539,0 0.45636,-0.15212 0.83442,-0.49327 1.29078,-0.64539 0.40818,-0.13606 0.90595,0.19242 1.29078,0 0.27212,-0.13606 0.37327,-0.50933 0.64539,-0.64539 0.38484,-0.19241 0.90595,0.19242 1.29078,0 0.27212,-0.13606 0.37327,-0.50933 0.64539,-0.64539 0.0928,-0.0464 3.19764,-0.01 3.22695,0 0.28863,0.0962 0.37327,0.50933 0.64539,0.64539 0.38484,0.19242 0.90595,-0.19241 1.29078,0 0.27212,0.13606 0.35024,0.5716 0.64539,0.64539 0.62612,0.15653 1.31005,-0.15653 1.93617,0 0.29516,0.0738 0.39225,0.47663 0.64539,0.64539 0.40026,0.26684 0.90595,0.35677 1.29078,0.64539 0.73018,0.54764 1.29078,1.29078 1.93617,1.93617 -0.16534,0.99523 2.16662,1.52123 2.58156,1.93617 0.34015,0.34015 0.37856,0.89053 0.64539,1.29078 0.33753,0.50629 1.01866,0.74654 1.29078,1.29078 0.0962,0.19242 -0.0962,0.45298 0,0.64539 0.13606,0.27213 0.50933,0.37327 0.64539,0.64539 0.34595,0.6919 -0.34594,0.59889 0,1.29079 0.13606,0.27212 0.50933,0.37326 0.64539,0.64539 0.19242,0.38483 -0.13606,0.88259 0,1.29078 0.15212,0.45635 0.49327,0.83442 0.64539,1.29078 0.13606,0.40818 -0.19241,0.90594 0,1.29078 0.13606,0.27212 0.50933,0.37327 0.64539,0.64539 0.12795,0.25589 -0.13194,1.80422 0,1.93617 0.15212,0.15212 0.49327,-0.15212 0.64539,0 0.15212,0.15212 -0.0962,0.45297 0,0.64539 0.13606,0.27212 0.50933,0.37327 0.64539,0.64539 0.0962,0.19241 -0.0962,0.45297 0,0.64539 0.13606,0.27212 0.43026,0.43026 0.64539,0.64539 0.21513,0.21513 0.37327,0.50933 0.64539,0.64539 0.19242,0.0962 0.45298,-0.0962 0.64539,0 0.27213,0.13606 0.37327,0.50933 0.64539,0.64539 0.19242,0.0962 0.45298,-0.0962 0.64539,0 0.54425,0.27212 0.71353,1.09836 1.29079,1.29078 0.40818,0.13606 0.90594,-0.19242 1.29078,0 0.19241,0.0962 -0.15212,0.49327 0,0.64539 0.15212,0.15212 0.45297,-0.0962 0.64539,0 0.77446,0.38723 1.1617,1.54893 1.93617,1.93617 0.19241,0.0962 0.45297,-0.0962 0.64539,0 0.54424,0.27212 0.74653,1.01866 1.29078,1.29078 0.19241,0.0962 0.49327,-0.15212 0.64539,0 0.15212,0.15212 -0.0962,0.45297 0,0.64539 0.31754,0.63508 2.26401,1.94647 2.58156,2.58156 0.0962,0.19242 -0.15212,0.49327 0,0.64539 0.15212,0.15212 0.45297,-0.0962 0.64539,0 0.27212,0.13606 0.37327,0.50933 0.64539,0.64539 0.19241,0.0962 0.43026,0 0.64539,0 0.43026,0 0.86052,0 1.29078,0 1.29078,0 2.58156,0 3.87234,0 0.21986,0 2.23227,0.11643 2.58156,0 0.45636,-0.15212 0.83442,-0.49327 1.29078,-0.64539 0.20409,-0.068 0.45297,0.0962 0.64539,0 0.54424,-0.27212 0.74654,-1.01866 1.29078,-1.29078 0.25589,-0.12795 1.80423,0.13194 1.93617,0 0.15212,-0.15212 -0.15212,-0.49327 0,-0.64539 0.15212,-0.15212 0.43026,0 0.64539,0 0.21513,-0.21513 0.47663,-0.39225 0.64539,-0.64539 0.26683,-0.40026 0.49327,-0.83442 0.64539,-1.29078 0.068,-0.20409 -0.15212,-0.49327 0,-0.64539 0.15212,-0.15212 0.49327,0.15212 0.64539,0 0.15212,-0.15212 -0.0962,-0.45298 0,-0.64539 0.29657,-0.59315 2.41832,-2.09185 2.58156,-2.58156 0.13606,-0.40818 -0.13606,-0.8826 0,-1.29078 0.19242,-0.57726 1.01866,-0.74654 1.29078,-1.29078 0.0962,-0.19242 -0.068,-0.4413 0,-0.64539 0.30424,-0.91272 1.05744,-1.6482 1.29078,-2.58156 0.10435,-0.41742 0,-0.86052 0,-1.29078 0.21513,-0.43026 0.52872,-0.8241 0.64539,-1.29078 0.10435,-0.41742 -0.13606,-0.8826 0,-1.29078 0.0962,-0.28863 0.50933,-0.37327 0.64539,-0.64539 0.19242,-0.38484 -0.19242,-0.90595 0,-1.29078 0.13606,-0.27213 0.50933,-0.37327 0.64539,-0.64539 0.19242,-0.38484 -0.19242,-0.90595 0,-1.29079 0.13606,-0.27212 0.50933,-0.37326 0.64539,-0.64539 0.19242,-0.38483 -0.19242,-0.90594 0,-1.29078 0.13606,-0.27212 0.50933,-0.37327 0.64539,-0.64539 0.0962,-0.19241 -0.0962,-0.45297 0,-0.64539 1.34298,-2.68595 -0.0446,0.68995 1.29078,-0.64539 0.15212,-0.15212 -0.0962,-0.45297 0,-0.64539 0.38723,-0.77446 1.54893,-1.1617 1.93617,-1.93617 0.0962,-0.19241 -0.15212,-0.49327 0,-0.64539 0.15212,-0.15212 0.45297,0.0962 0.64539,0 0.27212,-0.13606 0.37327,-0.50933 0.64539,-0.64539 0.68879,-0.34439 0.60199,0.3444 1.29078,0 0.27212,-0.13606 0.37327,-0.50933 0.64539,-0.64539 0.19242,-0.0962 0.43026,0 0.64539,0 0.43026,0 0.86052,0 1.29078,0 1.07565,0 2.1513,0 3.22695,0 1.29078,0 2.58156,0 3.87234,0 0.64539,0 1.3239,-0.20409 1.93617,0 0.57725,0.19242 0.74654,1.01866 1.29078,1.29078 0.42261,0.21131 2.65421,-0.19091 3.22695,0 4.67483,1.55828 -1.01753,-0.18606 1.93617,1.29078 0.19242,0.0962 0.45297,-0.0962 0.64539,0 2.14049,2.14049 -0.60848,-0.30424 1.29078,0.64539 0.77447,0.38724 1.1617,1.54894 1.93617,1.93617 0.19242,0.0962 0.45297,-0.0962 0.64539,0 0.26703,0.13352 1.7538,1.66262 1.93617,1.93617 0.26684,0.40026 0.30524,0.95063 0.64539,1.29078 0.34015,0.34016 0.89053,0.37856 1.29078,0.64539 0.25314,0.16877 0.37327,0.50933 0.64539,0.6454 0.19242,0.0962 0.45297,-0.0962 0.64539,0 0.27212,0.13606 0.43026,0.43026 0.64539,0.64539 0.21513,0.21513 0.50933,0.37326 0.64539,0.64539 0.0962,0.19241 -0.0962,0.45297 0,0.64539 0.38724,0.77446 1.54894,1.1617 1.93617,1.93617 0.0962,0.19241 -0.15212,0.49327 0,0.64539 1.33534,1.33533 -0.0522,-2.04057 1.29078,0.64539 0.0962,0.19241 -0.0962,0.45297 0,0.64539 0.13606,0.27212 0.50933,0.37327 0.64539,0.64539 0.0962,0.19241 -0.0962,0.45297 0,0.64539 0.13606,0.27212 0.50933,0.37327 0.64539,0.64539 0.19242,0.38483 -0.19242,0.90594 0,1.29078 0.13606,0.27212 0.50933,0.37327 0.64539,0.64539 0.19242,0.38483 -0.30424,0.98654 0,1.29078 0.15212,0.15212 0.49327,-0.15212 0.64539,0 0.3227,0.32269 -0.32269,1.61347 0,1.93617 0.86052,0.86052 0.64539,-1.07565 0.64539,0.64539"
       id="path5016"
       inkscape:connector-curvature="0" />
    <path
       style="fill:#000000;fill-opacity:0;stroke:#000000;stroke-width:2.46000004;stroke-miterlimit:4;stroke-opacity:1;stroke-dasharray:none;stroke-dashoffset:0"
       d="m 153.33685,250.90743 c 0.30424,-1.21696 -0.30424,-3.95511 0.91272,-3.65087 1.21696,0.30424 -1.79972,4.53788 -0.91272,3.65087 1.93844,-1.93843 1.82544,-3.46515 1.82544,-5.47631 0,-0.30424 -0.13606,-0.6406 0,-0.91272 0.19242,-0.38484 0.7203,-0.52789 0.91272,-0.91272 0.36509,-0.73018 -0.36509,-2.00798 0,-2.73816 0.19242,-0.38484 0.7203,-0.52788 0.91272,-0.91272 0.18095,-0.36189 -0.18659,-2.55156 0,-2.73816 0.21513,-0.21513 0.69759,0.21513 0.91272,0 0.43026,-0.43026 -0.19242,-1.24818 0,-1.82544 0.21513,-0.64539 0.69759,-1.18005 0.91272,-1.82544 0.0962,-0.28862 -0.13606,-0.64059 0,-0.91271 0.19242,-0.38484 0.60848,-0.60848 0.91272,-0.91272 0.30424,-0.30424 0.60848,-0.60848 0.91272,-0.91272 2.14049,-2.14049 -0.21513,0.64539 0.91272,-2.73816 0.27212,-0.81636 1.4406,-1.05577 1.82544,-1.82544 0.13606,-0.27212 -0.13606,-0.6406 0,-0.91272 0.54763,-1.09526 2.19052,-1.64289 2.73816,-2.73816 0.13606,-0.27212 -0.21513,-0.69759 0,-0.91272 0.21513,-0.21513 0.69759,-0.21513 0.91272,0 0.21513,0.21513 -0.21513,0.69759 0,0.91272 0.21513,0.21513 0.69758,-0.21513 0.91271,0 0.21513,0.21513 -0.13606,0.6406 0,0.91272 0.19242,0.38484 0.72031,0.52788 0.91272,0.91272 0.13606,0.27212 -0.13606,0.6406 0,0.91272 3.02711,3.02711 -0.43026,-0.86052 0.91272,1.82544 0.19242,0.38484 0.7203,0.52788 0.91272,0.91272 0.13606,0.27212 -0.13606,0.6406 0,0.91272 0.19242,0.38483 0.7203,0.52788 0.91272,0.91272 0.27212,0.54424 -0.27212,1.2812 0,1.82544 0.19242,0.38483 0.7203,0.52788 0.91272,0.91272 0.2879,0.5758 -0.2879,3.98779 0,4.56359 0.19242,0.38484 0.7203,0.52789 0.91272,0.91272 0.2879,0.57581 -0.2879,3.98779 0,4.5636 0.19242,0.38483 0.7203,0.52788 0.91272,0.91272 0.27212,0.54424 -0.43026,1.39518 0,1.82544 0.21513,0.21513 0.69759,-0.21513 0.91272,0 0.21963,0.21963 -0.21963,3.43125 0,3.65087 0.21513,0.21513 0.69759,-0.21513 0.91272,0 0.21513,0.21513 -0.21513,0.69759 0,0.91272 0.21513,0.21513 0.69759,-0.21513 0.91272,0 1.88845,1.88845 -2.8858,-0.0738 0.91272,1.82544 0.36188,0.18095 2.55156,-0.18659 2.73816,0 0.21513,0.21513 -0.21513,0.69759 0,0.91272 0.0293,0.0293 2.5168,0 2.73815,0 0.30424,0 0.69759,0.21513 0.91272,0 0.21513,-0.21513 -0.21513,-0.69759 0,-0.91272 0.21513,-0.21513 0.69759,0.21513 0.91272,0 0.21513,-0.21513 0,-0.60848 0,-0.91272 0,-1.5212 0,-3.0424 0,-4.56359 0,-0.30424 0,-0.60848 0,-0.91272 0,-0.30424 0.13606,-0.6406 0,-0.91272 -0.19242,-0.38484 -0.7203,-0.52789 -0.91272,-0.91272 -0.13575,-0.27151 0,-5.09237 0,-5.47632 0,-0.30424 -0.21513,-0.69759 0,-0.91272 0.21513,-0.21513 0.69759,0.21513 0.91272,0 0.21513,-0.21513 -0.13606,-0.6406 0,-0.91272 0.19242,-0.38483 0.7203,-0.52788 0.91272,-0.91272 0.13606,-0.27212 -0.13606,-0.6406 0,-0.91272 0.19242,-0.38483 0.7203,-0.52788 0.91272,-0.91272 0.13606,-0.27212 -0.21513,-0.69758 0,-0.91271 0.21513,-0.21513 0.69759,0.21513 0.91272,0 0.21513,-0.21513 -0.13606,-0.6406 0,-0.91272 0.19242,-0.38484 0.7203,-0.52789 0.91272,-0.91272 0.36509,-0.73018 -0.36509,-2.00799 0,-2.73816 0.19242,-0.38484 0.7203,-0.52788 0.91272,-0.91272 0.48917,-0.97835 -0.48917,-0.8471 0,-1.82544 0.38484,-0.76967 1.4406,-1.05577 1.82544,-1.82544 0.13606,-0.27212 -0.21513,-0.69759 0,-0.91272 0.21513,-0.21513 0.69759,0.21513 0.91272,0 0.21513,-0.21513 -0.21513,-0.69759 0,-0.91272 0.0294,-0.0294 2.5168,0 2.73816,0 0.30424,0 0.6406,-0.13606 0.91272,0 1.84595,0.92298 0.29268,2.11813 0.91271,2.73816 0.21514,0.21513 0.69759,-0.21513 0.91272,0 0.21513,0.21513 -0.21513,0.69759 0,0.91272 0.21513,0.21513 0.69759,-0.21513 0.91272,0 0.21513,0.21513 -0.21513,0.69759 0,0.91272 0.21513,0.21513 0.69759,-0.21513 0.91272,0 0.43026,0.43026 -0.27212,1.2812 0,1.82544 0.19242,0.38483 0.7203,0.52788 0.91272,0.91272 0.48917,0.97834 -0.48917,0.84709 0,1.82544 0.19242,0.38483 0.7203,0.52788 0.91272,0.91272 0.13606,0.27212 -0.21513,0.69759 0,0.91272 0.21513,0.21513 0.69759,-0.21513 0.91272,0 0.21513,0.21513 -0.13606,0.64059 0,0.91271 0.19242,0.38484 0.7203,0.52789 0.91272,0.91272 0.36509,0.73018 -0.36509,2.00799 0,2.73816 0.19242,0.38484 0.7203,0.52789 0.91272,0.91272 0.27212,0.54424 -0.27212,1.2812 0,1.82544 0.19242,0.38484 0.7203,0.52788 0.91272,0.91272 0.36509,0.73018 -0.36509,2.00798 0,2.73816 0.19242,0.38483 0.7203,0.52788 0.91272,0.91272 0.13606,0.27212 -0.21513,0.69759 0,0.91272 0.21513,0.21513 0.6406,-0.13606 0.91272,0 0.38483,0.19241 0.60848,0.60848 0.91272,0.91272 0.30424,0.30424 0.77666,0.50453 0.91272,0.91272 1.12785,3.38354 -1.22777,0.59766 0.91272,2.73815 0.30424,0.30424 0.60848,0.60848 0.91272,0.91272 0.30424,0.30424 0.52788,0.7203 0.91272,0.91272 0.27212,0.13606 0.64059,-0.13606 0.91271,0 0.38484,0.19242 0.52789,0.7203 0.91272,0.91272 0.27212,0.13606 0.69759,-0.21513 0.91272,0 0.21513,0.21513 -0.21513,0.69759 0,0.91272 0.0294,0.0294 2.5168,0 2.73816,0 0.30424,0 0.60848,0 0.91272,0 0.30424,0 0.69759,0.21513 0.91272,0 0.21513,-0.21513 -0.21513,-0.69759 0,-0.91272 0.21513,-0.21513 0.69759,0.21513 0.91272,0 0.21513,-0.21513 0,-0.60848 0,-0.91272 0,-0.30424 0,-0.60848 0,-0.91272 0,-1.82544 0,-3.65087 0,-5.47631 0,-0.30424 0,-0.60848 0,-0.91272 0,-0.30424 0.13606,-0.6406 0,-0.91272 -0.19242,-0.38484 -0.7203,-0.52789 -0.91272,-0.91272 -0.0389,-0.0778 -0.0389,-3.57307 0,-3.65088 0.19242,-0.38484 0.7203,-0.52788 0.91272,-0.91272 0.27212,-0.54424 -0.43026,-1.39518 0,-1.82544 0.21513,-0.21513 0.69759,0.21513 0.91272,0 0.43026,-0.43026 -0.27212,-1.2812 0,-1.82544 3.02711,-3.02711 -0.43026,0.86052 0.91272,-1.82543 0.19242,-0.38484 0.60848,-0.60848 0.91272,-0.91272 0.30424,-0.30424 0.52788,-0.72031 0.91272,-0.91272 0.27212,-0.13606 0.69759,0.21513 0.91272,0 0.21513,-0.21513 -0.13606,-0.6406 0,-0.91272 0.38483,-0.76968 1.4406,-1.05577 1.82544,-1.82544 0.13606,-0.27212 -0.13606,-0.6406 0,-0.91272 0.54763,-1.09526 2.19052,-1.6429 2.73815,-2.73816 0.13606,-0.27212 -0.21513,-0.69759 0,-0.91272 0.21513,-0.21513 0.69759,0.21513 0.91272,0 1.88845,-1.88845 -2.8858,0.0738 0.91272,-1.82544 0.89532,-0.44766 1.33068,0.41796 1.82544,0.91272 0.30424,0.30424 0.60848,0.60848 0.91272,0.91272 0,0.30424 -0.21513,0.69759 0,0.91272 0.21513,0.21513 0.69759,-0.21513 0.91272,0 0.61146,0.61147 -0.61147,1.21397 0,1.82544 0.21513,0.21513 0.69759,-0.21513 0.91272,0 0.21513,0.21513 -0.21513,0.69759 0,0.91272 0.21513,0.21513 0.69759,-0.21513 0.91272,0 0.43026,0.43026 -0.27212,1.2812 0,1.82544 1.12785,2.2557 0.91272,-0.31505 0.91272,1.82544 0,2.43391 -0.30424,-0.30424 0.91272,0.91272 0.45636,0.45636 -0.45636,2.28179 0,2.73815 0.21513,0.21513 0.69759,-0.21513 0.91272,0 0.43026,0.43026 -0.43026,1.39518 0,1.82544 0.21513,0.21513 0.69759,-0.21513 0.91272,0 0.18659,0.1866 -0.18095,2.37628 0,2.73816 0.19241,0.38484 0.7203,0.52788 0.91272,0.91272 0.27212,0.54424 -0.43026,1.39518 0,1.82544 0.21513,0.21513 0.69758,-0.21513 0.91271,0 0.43026,0.43026 -0.27212,1.2812 0,1.82544 0.19242,0.38483 0.72031,0.52788 0.91272,0.91272 0.13606,0.27212 -0.21513,0.69759 0,0.91272 1.88845,1.88845 -0.0738,-2.8858 1.82544,0.91272 0.27212,0.54424 -0.27212,1.28119 0,1.82543 0.19242,0.38484 0.7203,0.52789 0.91272,0.91272 0.13606,0.27212 -0.21513,0.69759 0,0.91272 0.21513,0.21513 0.6406,-0.13606 0.91272,0 0.38484,0.19242 0.52788,0.7203 0.91272,0.91272 0.27212,0.13606 0.69759,-0.21513 0.91272,0 0.21513,0.21513 -0.21513,0.69759 0,0.91272 0.21513,0.21513 0.6406,-0.13606 0.91272,0 0.38484,0.19242 0.52788,0.7203 0.91272,0.91272 0.27212,0.13606 0.69759,-0.21513 0.91272,0 0.21513,0.21513 -0.21513,0.69759 0,0.91272 0.43026,0.43026 1.2812,-0.27212 1.82544,0 0.38483,0.19242 0.52788,0.7203 0.91272,0.91272 0.10187,0.0509 4.46172,0.0509 4.56359,0 0.38484,-0.19242 0.52789,-0.7203 0.91272,-0.91272 0.73018,-0.36509 2.00799,0.36509 2.73816,0 1.68033,-0.84016 0.14511,-1.89799 1.82544,-2.73816 0.27212,-0.13606 0.69759,0.21513 0.91272,0 0.24974,-0.24974 -0.24757,-3.15574 0,-3.65087 0.19242,-0.38484 0.7203,-0.52789 0.91272,-0.91272 0.13606,-0.27212 -0.13606,-0.6406 0,-0.91272 0.19242,-0.38484 0.7203,-0.52789 0.91272,-0.91272 0.13888,-0.27777 0,-2.32711 0,-2.73816 0,-0.30424 0.21513,-0.69759 0,-0.91272 -0.21513,-0.21513 -0.69759,0.21513 -0.91272,0 -0.21513,-0.21513 0.13606,-0.6406 0,-0.91272 -0.19242,-0.38484 -0.7203,-0.52788 -0.91272,-0.91272 -0.13889,-0.27777 0,-2.32711 0,-2.73816 0,-2.14049 -0.21513,0.43026 0.91272,-1.82544 0.13606,-0.27212 -0.13606,-0.6406 0,-0.91272 0.19242,-0.38483 0.7203,-0.52788 0.91272,-0.91271 0.27212,-0.54425 -0.43026,-1.39518 0,-1.82544 0.21513,-0.21513 0.69759,0.21513 0.91272,0 0.21513,-0.21513 -0.13606,-0.6406 0,-0.91272 0.19242,-0.38484 0.7203,-0.52789 0.91272,-0.91272 0.13606,-0.27212 -0.13606,-0.6406 0,-0.91272 0.19242,-0.38484 0.7203,-0.52788 0.91272,-0.91272 0.27212,-0.54424 -0.43026,-1.39518 0,-1.82544 0.21513,-0.21513 0.69759,0.21513 0.91272,0 0.21513,-0.21513 0,-0.60848 0,-0.91272 0,-0.30424 0,-0.60848 0,-0.91272"
       id="path5098"
       inkscape:connector-curvature="0" />
  </g>
</svg>
