<?xml version="1.0" encoding="UTF-8" standalone="no"?>
<!-- Created with Inkscape (http://www.inkscape.org/) -->

<svg
   xmlns:dc="http://purl.org/dc/elements/1.1/"
   xmlns:cc="http://creativecommons.org/ns#"
   xmlns:rdf="http://www.w3.org/1999/02/22-rdf-syntax-ns#"
   xmlns:svg="http://www.w3.org/2000/svg"
   xmlns="http://www.w3.org/2000/svg"
   xmlns:sodipodi="http://sodipodi.sourceforge.net/DTD/sodipodi-0.dtd"
   xmlns:inkscape="http://www.inkscape.org/namespaces/inkscape"
   width="640px"
   height="480px"
   id="svg2985"
   version="1.1"
   inkscape:version="0.48.1 r9760"
   sodipodi:docname="psk.svg">
  <defs
     id="defs2987" />
  <sodipodi:namedview
     id="base"
     pagecolor="#ffffff"
     bordercolor="#666666"
     borderopacity="1.0"
     inkscape:pageopacity="0.0"
     inkscape:pageshadow="2"
     inkscape:zoom="1.095627"
     inkscape:cx="297.41135"
     inkscape:cy="322.10266"
     inkscape:current-layer="layer1"
     inkscape:document-units="px"
     showgrid="false"
     inkscape:window-width="1024"
     inkscape:window-height="549"
     inkscape:window-x="0"
     inkscape:window-y="25"
     inkscape:window-maximized="1" />
  <metadata
     id="metadata2990">
    <rdf:RDF>
      <cc:Work
         rdf:about="">
        <dc:format>image/svg+xml</dc:format>
        <dc:type
           rdf:resource="http://purl.org/dc/dcmitype/StillImage" />
        <dc:title></dc:title>
      </cc:Work>
    </rdf:RDF>
  </metadata>
  <g
     id="layer1"
     inkscape:label="Layer 1"
     inkscape:groupmode="layer">
    <rect
       style="fill:#000000;fill-opacity:0.00423728;stroke:#000000;stroke-width:4.58368731;stroke-miterlimit:4;stroke-opacity:1;stroke-dasharray:none;stroke-dashoffset:0"
       id="rect2997"
       width="258.9758"
       height="102.40374"
       x="5.6832123"
       y="79.656761" />
    <text
       xml:space="preserve"
       style="font-size:26.32218742px;font-style:normal;font-weight:normal;line-height:125%;letter-spacing:0px;word-spacing:0px;fill:#000000;fill-opacity:1;stroke:none;font-family:Sans"
       x="9.8435011"
       y="112.44476"
       id="text3767"
       sodipodi:linespacing="125%"><tspan
         sodipodi:role="line"
         id="tspan3769"
         x="9.8435011"
         y="112.44476">Oscillator</tspan></text>
    <path
       style="fill:#000000;fill-opacity:0.00423728;stroke:#000000;stroke-width:3.6330874;stroke-miterlimit:4;stroke-opacity:1;stroke-dasharray:none;stroke-dashoffset:0"
       d="m 85.338427,156.46571 c 2.85335,-0.92149 -0.71334,-3.35854 0,-4.78522 0.20176,-0.40352 0.75528,-0.55352 0.95704,-0.95704 0.14267,-0.28534 -0.14267,-0.67172 0,-0.95705 0.40353,-0.80705 1.51056,-1.10704 1.91409,-1.91409 0.14267,-0.28533 -0.22558,-0.73146 0,-0.95704 0.22558,-0.22558 0.73147,0.22558 0.95704,0 0.22558,-0.22558 -0.14267,-0.67171 0,-0.95704 0.20177,-0.40353 0.70679,-0.58167 0.95705,-0.95705 0.39568,-0.59353 0.56135,-1.32056 0.95704,-1.91409 0.25025,-0.37538 0.81438,-0.52904 0.95705,-0.95704 0.20176,-0.60529 -0.28534,-1.34342 0,-1.91409 0.14266,-0.28534 0.73146,0.22558 0.95704,0 0.22558,-0.22558 -0.14267,-0.67171 0,-0.95704 0.20176,-0.40353 0.63803,-0.63803 0.95704,-0.95705 0.31902,-0.31901 0.55352,-0.75528 0.95705,-0.95704 0.28534,-0.14267 0.67171,0.14266 0.95704,0 0.40353,-0.20176 0.55352,-0.75528 0.95705,-0.95705 0.57067,-0.28533 1.34342,0.28534 1.914083,0 0.40353,-0.20177 0.55352,-0.75528 0.95705,-0.95704 0.28534,-0.14267 0.63803,0 0.95704,0 0.31902,0 0.67172,-0.14267 0.95705,0 0.40352,0.20176 0.55352,0.75527 0.95704,0.95704 0.28534,0.14267 0.63803,0 0.95705,0 0.43101,0 2.57987,-0.14563 2.87113,0 0.40352,0.20177 0.55352,0.75529 0.95704,0.95705 0.28534,0.14266 0.67172,-0.14267 0.95705,0 0.80705,0.40352 1.10704,1.51056 1.91408,1.91409 0.57068,0.28533 1.46294,-0.45116 1.91409,0 0.22558,0.22557 -0.22557,0.73146 0,0.95704 1.98016,1.98016 -0.0774,-3.02595 1.91409,0.95705 0.14267,0.28533 0,0.63802 0,0.95704 0.31902,0.31901 0.75528,0.55352 0.95705,0.95704 0.14266,0.28533 -0.22558,0.73147 0,0.95705 0.22557,0.22558 0.81438,-0.28534 0.95704,0 0.28534,0.57067 -0.20176,1.3088 0,1.91409 0.28534,0.856 1.51057,1.10703 1.9141,1.91408 0.14266,0.28534 -0.14267,0.67171 0,0.95705 0.20176,0.40352 0.75527,0.55352 0.95704,0.95704 0.28533,0.57067 -0.28534,1.34342 0,1.91409 0.20176,0.40353 0.75528,0.55352 0.95705,0.95705 0.38281,0.76563 -0.38283,2.10549 0,2.87113 0.6642,1.32841 1.70288,0.95704 2.87113,0.95704 0.31901,0 0.73147,-0.22558 0.95704,0 0.22558,0.22558 -0.22557,0.73147 0,0.95705 0.22558,0.22557 0.73147,-0.22558 0.95705,0 0.22557,0.22557 -0.22558,0.73146 0,0.95704 0.45115,0.45116 1.34341,-0.28534 1.91409,0 0.40352,0.20176 0.55351,0.75528 0.95704,0.95704 0.37946,0.18973 2.67547,-0.19565 2.87113,0 0.22558,0.22558 -0.22558,0.73147 0,0.95705 7.4e-4,7.4e-4 2.8668,-0.001 2.87113,0 0.428,0.14267 0.55352,0.75528 0.95705,0.95704 0.28533,0.14267 0.63803,0 0.95704,0 1.91409,0 3.82818,0 5.74227,0 0.31901,0 0.73146,0.22558 0.95704,0 0.22558,-0.22557 -0.22558,-0.73146 0,-0.95704 0.65015,-0.65015 1.90333,0.97856 2.87113,-0.95705 0.14267,-0.28533 -0.14266,-0.67171 0,-0.95704 0.57423,-1.14846 2.29691,-1.72268 2.87114,-2.87113 0.14267,-0.28534 -0.14267,-0.67172 0,-0.95705 0.12705,-0.2541 2.61702,-2.74407 2.87113,-2.87113 0.28534,-0.14267 0.73147,0.22558 0.95704,0 1.98016,-1.98016 -3.02594,0.0774 0.95705,-1.91409 0.28534,-0.14267 0.6717,0.14267 0.95704,0 0.80705,-0.40352 1.10704,-1.51056 1.91409,-1.91409 0.28534,-0.14266 0.73147,0.22558 0.95704,0 1.98016,-1.98015 -3.02594,0.0774 0.95705,-1.91408 0.28534,-0.14267 0.67171,0.14266 0.95704,0 0.40353,-0.20177 0.63803,-0.63803 0.95705,-0.95705 0.31901,-0.31901 0.75528,-0.55352 0.95704,-0.95704 0.14267,-0.28534 -0.22558,-0.73147 0,-0.95705 0.22558,-0.22557 0.67172,0.14267 0.95705,0 0.40352,-0.20176 0.55352,-0.75528 0.95704,-0.95704 0.28534,-0.14267 0.73147,0.22558 0.95704,0 0.22558,-0.22558 -0.14266,-0.67171 0,-0.95704 1.9915,-3.983 -0.0661,1.02311 1.91409,-0.95705 0.22558,-0.22558 -0.22558,-0.73147 0,-0.95704 0.45116,-0.45116 1.34342,0.28533 1.91409,0 0.80705,-0.40353 1.10704,-1.51057 1.91409,-1.91409 0.28534,-0.14267 0.6544,0.10088 0.95704,0 0.67674,-0.22558 1.23736,-0.73147 1.91409,-0.95705 0.5544,-0.18479 2.99882,0 3.82818,0 0.62889,0 2.33117,0.17999 2.87113,0 0.67673,-0.22557 1.23736,-0.73147 1.91409,-0.95704 0.6007,-0.20023 3.05772,0 3.82818,0 0.31902,0 0.63803,0 0.95705,0 0.31901,0 0.73146,-0.22558 0.95704,0 0.22558,0.22557 -0.22558,0.73147 0,0.95704 0.22558,0.22558 0.67171,-0.14266 0.95705,0 0.2541,0.12705 2.74407,2.61703 2.87113,2.87114 0.14266,0.28533 -0.22558,0.73146 0,0.95704 0.45115,0.45116 1.46293,-0.45115 1.91409,0 0.22557,0.22558 -0.22558,0.73147 0,0.95705 0.22557,0.22557 0.73146,-0.22558 0.95704,0 0.22558,0.22557 -0.22558,0.73146 0,0.95704 0.22558,0.22558 0.73147,-0.22558 0.95705,0 0.22557,0.22558 0,0.63803 0,0.95704 0.31901,0 0.73146,-0.22557 0.95704,0 0.22558,0.22558 -0.14267,0.67171 0,0.95705 0.20176,0.40352 0.75528,0.55352 0.95704,0.95704 0.14267,0.28533 -0.22557,0.73147 0,0.95705 0.45116,0.45115 1.34342,-0.28534 1.91409,0 0.80705,0.40352 1.10704,1.51056 1.91409,1.91408 0.57067,0.28534 1.46293,-0.45115 1.91409,0 0.22558,0.22558 -0.22558,0.73147 0,0.95705 0.22558,0.22558 0.73147,-0.22558 0.95704,0 0.22558,0.22558 -0.14267,0.6717 0,0.95704 0.40353,0.80705 1.51057,1.10704 1.91409,1.91409 0.14267,0.28533 -0.22558,0.73147 0,0.95705 0.22558,0.22557 0.73147,-0.22558 0.95705,0 0.22557,0.22557 -0.22558,0.73146 0,0.95704 0.22557,0.22558 0.73146,-0.22558 0.95704,0 0.45115,0.45115 -0.45116,1.46293 0,1.91409 0.22558,0.22558 0.73147,-0.22558 0.95704,0 0.22558,0.22558 0.31902,0.95704 0,0.95704 -0.31901,0 0,-1.27606 0,-0.95704 0,2.2331 -0.63803,1.91409 0.95705,1.91409"
       id="path3773"
       inkscape:connector-curvature="0" />
    <path
       style="fill:#000000;fill-opacity:0.00423728;stroke:#000000;stroke-width:3.6330874;stroke-miterlimit:4;stroke-opacity:1;stroke-dasharray:none;stroke-dashoffset:0"
       d="m 265.61605,127.50897 45.93813,0"
       id="path3779"
       inkscape:connector-curvature="0" />
    <path
       style="fill:#000000;fill-opacity:0.00423728;stroke:#000000;stroke-width:3.6330874;stroke-miterlimit:4;stroke-opacity:1;stroke-dasharray:none;stroke-dashoffset:0"
       d="M 311.55418,127.50897 347.92186,89.2272"
       id="path3785"
       inkscape:connector-curvature="0" />
    <path
       sodipodi:type="arc"
       id="path3787"
       style="fill:#000000;stroke:none"
       sodipodi:cx="374.32623"
       sodipodi:cy="94.056732"
       sodipodi:rx="7.3499999"
       sodipodi:ry="7.3499999"
       d="m 381.67623,94.056732 a 7.3499999,7.3499999 0 1 1 -14.7,0 7.3499999,7.3499999 0 1 1 14.7,0 z"
       transform="matrix(0.74144639,0,0,0.74144639,72.293111,20.44622)" />
    <path
       style="fill:#000000;fill-opacity:0.00423728;stroke:#000000;stroke-width:3.6330874;stroke-miterlimit:4;stroke-opacity:1;stroke-dasharray:none;stroke-dashoffset:0"
       d="m 466.99282,130.09053 0,-101.446689"
       id="path3791"
       inkscape:connector-curvature="0" />
    <path
       style="fill:#000000;fill-opacity:0.00423728;stroke:#000000;stroke-width:3.6330874;stroke-miterlimit:4;stroke-opacity:1;stroke-dasharray:none;stroke-dashoffset:0"
       d="m 391.53111,30.032991 75.6065,0"
       id="path3795-6"
       inkscape:connector-curvature="0" />
    <path
       style="fill:#000000;fill-opacity:0.00423728;stroke:#000000;stroke-width:3.6330874;stroke-miterlimit:4;stroke-opacity:1;stroke-dasharray:none;stroke-dashoffset:0"
       d="m 486.84995,130.5815 0,-101.446689"
       id="path3791-2"
       inkscape:connector-curvature="0" />
    <path
       style="fill:#000000;fill-opacity:0.00423728;stroke:#000000;stroke-width:3.6330874;stroke-miterlimit:4;stroke-opacity:1;stroke-dasharray:none;stroke-dashoffset:0"
       d="m 484.96271,30.523961 75.6065,0"
       id="path3795-6-1"
       inkscape:connector-curvature="0" />
    <path
       style="fill:#000000;fill-opacity:0.00423728;stroke:#000000;stroke-width:3.6330874;stroke-miterlimit:4;stroke-opacity:1;stroke-dasharray:none;stroke-dashoffset:0"
       d="m 267.45647,150.85106 45.93813,0"
       id="path3779-7"
       inkscape:connector-curvature="0" />
    <path
       style="fill:#000000;fill-opacity:0.00423728;stroke:#000000;stroke-width:4.9000001;stroke-miterlimit:4;stroke-opacity:1;stroke-dasharray:none;stroke-dashoffset:0"
       d="m 432.21715,293.30397 67.9976,0"
       id="path3129"
       inkscape:connector-curvature="0" />
    <path
       style="fill:#000000;fill-opacity:0.00423728;stroke:#000000;stroke-width:4.9000001;stroke-miterlimit:4;stroke-opacity:1;stroke-dasharray:none;stroke-dashoffset:0"
       d="m 442.71342,306.5384 43.35418,0"
       id="path3131"
       inkscape:connector-curvature="0" />
    <path
       style="fill:#000000;fill-opacity:0.00423728;stroke:#000000;stroke-width:4.9000001;stroke-miterlimit:4;stroke-opacity:1;stroke-dasharray:none;stroke-dashoffset:0"
       d="m 455.94786,322.05463 17.79803,0"
       id="path3133"
       inkscape:connector-curvature="0" />
  </g>
</svg>
