<?xml version="1.0" encoding="UTF-8" standalone="no"?>
<!-- Created with Inkscape (http://www.inkscape.org/) -->

<svg
   xmlns:dc="http://purl.org/dc/elements/1.1/"
   xmlns:cc="http://creativecommons.org/ns#"
   xmlns:rdf="http://www.w3.org/1999/02/22-rdf-syntax-ns#"
   xmlns:svg="http://www.w3.org/2000/svg"
   xmlns="http://www.w3.org/2000/svg"
   xmlns:sodipodi="http://sodipodi.sourceforge.net/DTD/sodipodi-0.dtd"
   xmlns:inkscape="http://www.inkscape.org/namespaces/inkscape"
   width="640px"
   height="480px"
   id="svg2985"
   version="1.1"
   inkscape:version="0.48.1 r9760"
   sodipodi:docname="psk.svg">
  <defs
     id="defs2987" />
  <sodipodi:namedview
     id="base"
     pagecolor="#ffffff"
     bordercolor="#666666"
     borderopacity="1.0"
     inkscape:pageopacity="0.0"
     inkscape:pageshadow="2"
     inkscape:zoom="0.5478135"
     inkscape:cx="364.08706"
     inkscape:cy="299.8404"
     inkscape:current-layer="layer1"
     inkscape:document-units="px"
     showgrid="false"
     inkscape:window-width="1024"
     inkscape:window-height="549"
     inkscape:window-x="0"
     inkscape:window-y="25"
     inkscape:window-maximized="1" />
  <metadata
     id="metadata2990">
    <rdf:RDF>
      <cc:Work
         rdf:about="">
        <dc:format>image/svg+xml</dc:format>
        <dc:type
           rdf:resource="http://purl.org/dc/dcmitype/StillImage" />
        <dc:title />
      </cc:Work>
    </rdf:RDF>
  </metadata>
  <g
     id="layer1"
     inkscape:label="Layer 1"
     inkscape:groupmode="layer">
    <rect
       style="fill:#000000;fill-opacity:0.00423728;stroke:#000000;stroke-width:2.97443724;stroke-miterlimit:4;stroke-opacity:1;stroke-dasharray:none;stroke-dashoffset:0"
       id="rect2997"
       width="133.20175"
       height="83.838745"
       x="26.632099"
       y="83.586624" />
    <text
       xml:space="preserve"
       style="font-size:21.24385452px;font-style:normal;font-weight:normal;line-height:125%;letter-spacing:0px;word-spacing:0px;fill:#000000;fill-opacity:1;stroke:none;font-family:Sans"
       x="40.122814"
       y="115.75475"
       id="text3767"
       sodipodi:linespacing="125%"><tspan
         sodipodi:role="line"
         id="tspan3769"
         x="40.122814"
         y="115.75475">Oscillator</tspan></text>
    <path
       style="fill:#000000;fill-opacity:0.00423728;stroke:#000000;stroke-width:2.97443724;stroke-miterlimit:4;stroke-opacity:1;stroke-dasharray:none;stroke-dashoffset:0"
       d="m 296.95328,122.7636 0,-83.055197"
       id="path3791"
       inkscape:connector-curvature="0" />
    <path
       style="fill:#000000;fill-opacity:0.00423728;stroke:#000000;stroke-width:2.97443724;stroke-miterlimit:4;stroke-opacity:1;stroke-dasharray:none;stroke-dashoffset:0"
       d="m 215.62813,163.361 41.27645,0"
       id="path3129"
       inkscape:connector-curvature="0" />
    <path
       style="fill:#000000;fill-opacity:0.00423728;stroke:#000000;stroke-width:2.97443724;stroke-miterlimit:4;stroke-opacity:1;stroke-dasharray:none;stroke-dashoffset:0"
       d="m 221.99966,171.39467 26.3172,0"
       id="path3131"
       inkscape:connector-curvature="0" />
    <path
       style="fill:#000000;fill-opacity:0.00423728;stroke:#000000;stroke-width:2.97443724;stroke-miterlimit:4;stroke-opacity:1;stroke-dasharray:none;stroke-dashoffset:0"
       d="m 230.03334,180.81346 10.8039,0"
       id="path3133"
       inkscape:connector-curvature="0" />
    <path
       style="fill:#000000;fill-opacity:0.00423728;stroke:#000000;stroke-width:2.48881459;stroke-miterlimit:4;stroke-opacity:1;stroke-dasharray:none;stroke-dashoffset:0"
       d="m 235.25332,147.11992 0,15.6708"
       id="path4007"
       inkscape:connector-curvature="0" />
    <path
       style="fill:#000000;fill-opacity:0.00423728;stroke:#000000;stroke-width:2.48881459;stroke-miterlimit:4;stroke-opacity:1;stroke-dasharray:none;stroke-dashoffset:0"
       d="m 159.69149,147.52699 76.45838,0"
       id="path4009"
       inkscape:connector-curvature="0" />
    <rect
       style="fill:#000000;fill-opacity:0.00423728;stroke:#000000;stroke-width:2.97443724;stroke-miterlimit:4;stroke-opacity:1;stroke-dasharray:none;stroke-dashoffset:0"
       id="rect2997-9"
       width="133.20175"
       height="83.838745"
       x="343.42944"
       y="86.412498" />
    <text
       xml:space="preserve"
       style="font-size:21.24385452px;font-style:normal;font-weight:normal;line-height:125%;letter-spacing:0px;word-spacing:0px;fill:#000000;fill-opacity:1;stroke:none;font-family:Sans"
       x="356.92017"
       y="118.58064"
       id="text3767-1"
       sodipodi:linespacing="125%"><tspan
         sodipodi:role="line"
         id="tspan3769-7"
         x="356.92017"
         y="118.58064">Oscillator</tspan></text>
    <path
       style="fill:#000000;fill-opacity:0.00423728;stroke:#000000;stroke-width:2.97443724;stroke-miterlimit:4;stroke-opacity:1;stroke-dasharray:none;stroke-dashoffset:0"
       d="m 613.75062,125.58948 0,-83.055203"
       id="path3791-3"
       inkscape:connector-curvature="0" />
    <path
       style="fill:#000000;fill-opacity:0.00423728;stroke:#000000;stroke-width:2.97443724;stroke-miterlimit:4;stroke-opacity:1;stroke-dasharray:none;stroke-dashoffset:0"
       d="m 532.42547,166.18688 41.27645,0"
       id="path3129-4"
       inkscape:connector-curvature="0" />
    <path
       style="fill:#000000;fill-opacity:0.00423728;stroke:#000000;stroke-width:2.97443724;stroke-miterlimit:4;stroke-opacity:1;stroke-dasharray:none;stroke-dashoffset:0"
       d="m 538.797,174.22055 26.3172,0"
       id="path3131-1"
       inkscape:connector-curvature="0" />
    <path
       style="fill:#000000;fill-opacity:0.00423728;stroke:#000000;stroke-width:2.97443724;stroke-miterlimit:4;stroke-opacity:1;stroke-dasharray:none;stroke-dashoffset:0"
       d="m 546.83068,183.63934 10.8039,0"
       id="path3133-8"
       inkscape:connector-curvature="0" />
    <path
       style="fill:#000000;fill-opacity:0.00423728;stroke:#000000;stroke-width:2.48881459;stroke-miterlimit:4;stroke-opacity:1;stroke-dasharray:none;stroke-dashoffset:0"
       d="m 552.05066,149.9458 0,15.6708"
       id="path4007-3"
       inkscape:connector-curvature="0" />
    <path
       style="fill:#000000;fill-opacity:0.00423728;stroke:#000000;stroke-width:2.48881459;stroke-miterlimit:4;stroke-opacity:1;stroke-dasharray:none;stroke-dashoffset:0"
       d="m 160.28727,124.03944 76.45838,0"
       id="path4009-8"
       inkscape:connector-curvature="0" />
    <path
       style="fill:#000000;fill-opacity:0.00423728;stroke:#000000;stroke-width:2.47600007;stroke-miterlimit:4;stroke-opacity:1;stroke-dasharray:none;stroke-dashoffset:0"
       d="m 477.35224,125.58308 35.13969,0"
       id="path4693"
       inkscape:connector-curvature="0" />
    <path
       style="fill:#000000;fill-opacity:0.00423728;stroke:#000000;stroke-width:2.47600007;stroke-miterlimit:4;stroke-opacity:1;stroke-dasharray:none;stroke-dashoffset:0"
       d="m 476.6677,148.68286 35.13969,0"
       id="path4693-3"
       inkscape:connector-curvature="0" />
    <path
       style="fill:none;stroke:#000000;stroke-width:2.56103659;stroke-linecap:butt;stroke-linejoin:miter;stroke-miterlimit:4;stroke-opacity:1;stroke-dasharray:none"
       d="m 511.17338,148.63234 43.70949,-22.80495"
       id="path4713"
       inkscape:connector-curvature="0" />
    <path
       style="fill:none;stroke:#000000;stroke-width:2.56103659;stroke-linecap:butt;stroke-linejoin:miter;stroke-miterlimit:4;stroke-opacity:1;stroke-dasharray:none"
       d="m 511.31319,124.5047 41.60441,26.45105"
       id="path4713-6"
       inkscape:connector-curvature="0" />
    <text
       xml:space="preserve"
       style="font-size:24.19497299px;font-style:normal;font-weight:normal;line-height:125%;letter-spacing:0px;word-spacing:0px;fill:#000000;fill-opacity:1;stroke:none;font-family:Sans"
       x="507.43878"
       y="83.118607"
       id="text3767-7"
       sodipodi:linespacing="125%"><tspan
         sodipodi:role="line"
         id="tspan3769-5"
         x="507.43878"
         y="83.118607">Antenna</tspan></text>
    <text
       xml:space="preserve"
       style="font-size:24.19497299px;font-style:normal;font-weight:normal;line-height:125%;letter-spacing:0px;word-spacing:0px;fill:#000000;fill-opacity:1;stroke:none;font-family:Sans"
       x="188.31172"
       y="79.749527"
       id="text3767-7-7"
       sodipodi:linespacing="125%"><tspan
         sodipodi:role="line"
         id="tspan3769-5-3"
         x="188.31172"
         y="79.749527">Antenna</tspan></text>
    <path
       style="fill:#000000;fill-opacity:0.00423728;stroke:#000000;stroke-width:2.56727815;stroke-miterlimit:4;stroke-opacity:1;stroke-dasharray:none;stroke-dashoffset:0"
       d="M 236.37185,123.26068 262.07064,96.209311"
       id="path3785"
       inkscape:connector-curvature="0" />
    <path
       transform="matrix(0.52393432,0,0,0.52393432,66.410396,46.375411)"
       sodipodi:type="arc"
       id="path3787"
       style="fill:#000000;stroke:none"
       sodipodi:cx="374.32623"
       sodipodi:cy="94.056732"
       sodipodi:rx="7.3499999"
       sodipodi:ry="7.3499999"
       d="m 381.67623,94.056732 a 7.3499999,7.3499999 0 1 1 -14.7,0 7.3499999,7.3499999 0 1 1 14.7,0 z" />
    <path
       style="fill:#000000;fill-opacity:0.99215686;stroke:#000000;stroke-width:2.46000004;stroke-miterlimit:4;stroke-opacity:1;stroke-dasharray:none;stroke-dashoffset:0"
       d="m 298.49291,124.06737 -14.84397,0"
       id="path4949"
       inkscape:connector-curvature="0" />
    <path
       style="fill:#000000;fill-opacity:0.99215686;stroke:#000000;stroke-width:2.46000004;stroke-miterlimit:4;stroke-opacity:1;stroke-dasharray:none;stroke-dashoffset:0"
       d="m 614.08865,125.68085 -14.84397,0"
       id="path4949-6"
       inkscape:connector-curvature="0" />
    <path
       style="fill:#000000;fill-opacity:0.99215686;stroke:#000000;stroke-width:2.46000004;stroke-miterlimit:4;stroke-opacity:1;stroke-dasharray:none;stroke-dashoffset:0"
       d="m 553.09929,125.68085 49.69503,0"
       id="path4990"
       inkscape:connector-curvature="0" />
    <path
       transform="matrix(0.52393432,0,0,0.52393432,402.15423,75.755914)"
       sodipodi:type="arc"
       id="path3787-7"
       style="fill:#000000;stroke:none"
       sodipodi:cx="374.32623"
       sodipodi:cy="94.056732"
       sodipodi:rx="7.3499999"
       sodipodi:ry="7.3499999"
       d="m 381.67623,94.056732 a 7.3499999,7.3499999 0 1 1 -14.7,0 7.3499999,7.3499999 0 1 1 14.7,0 z" />
    <path
       style="fill:#000000;fill-opacity:0;stroke:#000000;stroke-width:2.46000004;stroke-miterlimit:4;stroke-opacity:1;stroke-dasharray:none;stroke-dashoffset:0"
       d="m 30.593318,147.44259 c 2.58643,0.31514 0.85911,-3.009 1.29078,-3.87234 0.27212,-0.54425 1.09836,-0.71353 1.29078,-1.29078 0.13606,-0.40819 -0.13606,-0.8826 0,-1.29078 0.12551,-0.37654 2.19358,-1.99959 2.58156,-2.58156 0.26684,-0.40026 0.43026,-0.86053 0.64539,-1.29079 0.43026,-0.43026 0.92569,-0.80399 1.29078,-1.29078 0.28863,-0.38483 0.35676,-0.90594 0.64539,-1.29078 0.54763,-0.73017 1.42989,-1.17674 1.93617,-1.93617 0.26684,-0.40025 0.30524,-0.95063 0.64539,-1.29078 0.34015,-0.34015 0.95063,-0.30524 1.29078,-0.64539 0.34015,-0.34015 0.30524,-0.95063 0.64539,-1.29078 0.34015,-0.34015 0.86052,-0.43026 1.29078,-0.64539 0.43026,-0.21513 0.83442,-0.49327 1.29078,-0.64539 0.20409,-0.068 0.4413,0.068 0.64539,0 0.45636,-0.15212 0.83442,-0.49327 1.29078,-0.64539 0.40818,-0.13606 0.90595,0.19242 1.29078,0 0.27212,-0.13606 0.37327,-0.50933 0.64539,-0.64539 0.38484,-0.19241 0.90595,0.19242 1.29078,0 0.27212,-0.13606 0.37327,-0.50933 0.64539,-0.64539 0.0928,-0.0464 3.19764,-0.01 3.22695,0 0.28863,0.0962 0.37327,0.50933 0.64539,0.64539 0.38484,0.19242 0.90595,-0.19241 1.29078,0 0.27212,0.13606 0.35024,0.5716 0.64539,0.64539 0.62612,0.15653 1.31005,-0.15653 1.93617,0 0.29516,0.0738 0.39225,0.47663 0.64539,0.64539 0.40026,0.26684 0.90595,0.35677 1.29078,0.64539 0.73018,0.54764 1.29078,1.29078 1.93617,1.93617 -0.16534,0.99523 2.16662,1.52123 2.58156,1.93617 0.34015,0.34015 0.37856,0.89053 0.64539,1.29078 0.33753,0.50629 1.01866,0.74654 1.29078,1.29078 0.0962,0.19242 -0.0962,0.45298 0,0.64539 0.13606,0.27213 0.50933,0.37327 0.64539,0.64539 0.34595,0.6919 -0.34594,0.59889 0,1.29079 0.13606,0.27212 0.50933,0.37326 0.64539,0.64539 0.19242,0.38483 -0.13606,0.88259 0,1.29078 0.15212,0.45635 0.49327,0.83442 0.64539,1.29078 0.13606,0.40818 -0.19241,0.90594 0,1.29078 0.13606,0.27212 0.50933,0.37327 0.64539,0.64539 0.12795,0.25589 -0.13194,1.80422 0,1.93617 0.15212,0.15212 0.49327,-0.15212 0.64539,0 0.15212,0.15212 -0.0962,0.45297 0,0.64539 0.13606,0.27212 0.50933,0.37327 0.64539,0.64539 0.0962,0.19241 -0.0962,0.45297 0,0.64539 0.13606,0.27212 0.43026,0.43026 0.64539,0.64539 0.21513,0.21513 0.37327,0.50933 0.64539,0.64539 0.19242,0.0962 0.45298,-0.0962 0.64539,0 0.27213,0.13606 0.37327,0.50933 0.64539,0.64539 0.19242,0.0962 0.45298,-0.0962 0.64539,0 0.54425,0.27212 0.71353,1.09836 1.29079,1.29078 0.40818,0.13606 0.90594,-0.19242 1.29078,0 0.19241,0.0962 -0.15212,0.49327 0,0.64539 0.15212,0.15212 0.45297,-0.0962 0.64539,0 0.77446,0.38723 1.1617,1.54893 1.93617,1.93617 0.19241,0.0962 0.45297,-0.0962 0.64539,0 0.54424,0.27212 0.74653,1.01866 1.29078,1.29078 0.19241,0.0962 0.49327,-0.15212 0.64539,0 0.15212,0.15212 -0.0962,0.45297 0,0.64539 0.31754,0.63508 2.26401,1.94647 2.58156,2.58156 0.0962,0.19242 -0.15212,0.49327 0,0.64539 0.15212,0.15212 0.45297,-0.0962 0.64539,0 0.27212,0.13606 0.37327,0.50933 0.64539,0.64539 0.19241,0.0962 0.43026,0 0.64539,0 0.43026,0 0.86052,0 1.29078,0 1.29078,0 2.58156,0 3.87234,0 0.21986,0 2.23227,0.11643 2.58156,0 0.45636,-0.15212 0.83442,-0.49327 1.29078,-0.64539 0.20409,-0.068 0.45297,0.0962 0.64539,0 0.54424,-0.27212 0.74654,-1.01866 1.29078,-1.29078 0.25589,-0.12795 1.80423,0.13194 1.93617,0 0.15212,-0.15212 -0.15212,-0.49327 0,-0.64539 0.15212,-0.15212 0.430262,0 0.645392,0 0.21513,-0.21513 0.47663,-0.39225 0.64539,-0.64539 0.26683,-0.40026 0.49327,-0.83442 0.64539,-1.29078 0.068,-0.20409 -0.15212,-0.49327 0,-0.64539 0.15212,-0.15212 0.49327,0.15212 0.64539,0 0.15212,-0.15212 -0.0962,-0.45298 0,-0.64539 0.29657,-0.59315 2.41832,-2.09185 2.58156,-2.58156 0.13606,-0.40818 -0.13606,-0.8826 0,-1.29078 0.19242,-0.57726 1.01866,-0.74654 1.29078,-1.29078 0.0962,-0.19242 -0.068,-0.4413 0,-0.64539 0.30424,-0.91272 1.05744,-1.6482 1.29078,-2.58156 0.10435,-0.41742 0,-0.86052 0,-1.29078 0.21513,-0.43026 0.52872,-0.8241 0.64539,-1.29078 0.10435,-0.41742 -0.13606,-0.8826 0,-1.29078 0.0962,-0.28863 0.50933,-0.37327 0.64539,-0.64539 0.19242,-0.38484 -0.19242,-0.90595 0,-1.29078 0.13606,-0.27213 0.50933,-0.37327 0.64539,-0.64539 0.19242,-0.38484 -0.19242,-0.90595 0,-1.29079 0.13606,-0.27212 0.50933,-0.37326 0.64539,-0.64539 0.19242,-0.38483 -0.19242,-0.90594 0,-1.29078 0.13606,-0.27212 0.50933,-0.37327 0.64539,-0.64539 0.0962,-0.19241 -0.0962,-0.45297 0,-0.64539 1.34298,-2.68595 -0.0446,0.68995 1.29078,-0.64539 0.15212,-0.15212 -0.0962,-0.45297 0,-0.64539 0.38723,-0.77446 1.54893,-1.1617 1.93617,-1.93617 0.0962,-0.19241 -0.15212,-0.49327 0,-0.64539 0.15212,-0.15212 0.45297,0.0962 0.64539,0 0.27212,-0.13606 0.37327,-0.50933 0.64539,-0.64539 0.68879,-0.34439 0.60199,0.3444 1.29078,0 0.27212,-0.13606 0.37327,-0.50933 0.64539,-0.64539 0.19242,-0.0962 0.43026,0 0.64539,0 0.43026,0 0.86052,0 1.29078,0 1.07565,0 2.1513,0 3.22695,0 1.29078,0 2.58156,0 3.87234,0 0.64539,0 1.3239,-0.20409 1.93617,0 0.57725,0.19242 0.74654,1.01866 1.29078,1.29078 0.42261,0.21131 2.65421,-0.19091 3.22695,0 4.67483,1.55828 -1.01753,-0.18606 1.93617,1.29078 0.19242,0.0962 0.45297,-0.0962 0.64539,0 2.14049,2.14049 -0.60848,-0.30424 1.29078,0.64539 0.77447,0.38724 1.1617,1.54894 1.93617,1.93617 0.19242,0.0962 0.45297,-0.0962 0.64539,0 0.26703,0.13352 1.7538,1.66262 1.93617,1.93617 0.26684,0.40026 0.30524,0.95063 0.64539,1.29078 0.34015,0.34016 0.89053,0.37856 1.29078,0.64539 0.25314,0.16877 0.37327,0.50933 0.64539,0.6454 0.19242,0.0962 0.45297,-0.0962 0.64539,0 0.27212,0.13606 0.43026,0.43026 0.64539,0.64539 0.21513,0.21513 0.50933,0.37326 0.64539,0.64539 0.0962,0.19241 -0.0962,0.45297 0,0.64539 0.38724,0.77446 1.54894,1.1617 1.93617,1.93617 0.0962,0.19241 -0.15212,0.49327 0,0.64539 1.33534,1.33533 -0.0522,-2.04057 1.29078,0.64539 0.0962,0.19241 -0.0962,0.45297 0,0.64539 0.13606,0.27212 0.50933,0.37327 0.64539,0.64539 0.0962,0.19241 -0.0962,0.45297 0,0.64539 0.13606,0.27212 0.50933,0.37327 0.64539,0.64539 0.19242,0.38483 -0.19242,0.90594 0,1.29078 0.13606,0.27212 0.50933,0.37327 0.64539,0.64539 0.19242,0.38483 -0.30424,0.98654 0,1.29078 0.15212,0.15212 0.49327,-0.15212 0.64539,0 0.3227,0.32269 -0.32269,1.61347 0,1.93617 0.86052,0.86052 0.64539,-1.07565 0.64539,0.64539"
       id="path5016"
       inkscape:connector-curvature="0" />
    <path
       style="fill:#000000;fill-opacity:0;stroke:#000000;stroke-width:2.46000004;stroke-miterlimit:4;stroke-opacity:1;stroke-dasharray:none;stroke-dashoffset:0"
       d="m 348.21967,149.26804 c 2.58643,0.31514 0.85911,-3.009 1.29078,-3.87234 0.27212,-0.54425 1.09836,-0.71353 1.29078,-1.29078 0.13606,-0.40819 -0.13606,-0.8826 0,-1.29078 0.12551,-0.37654 2.19358,-1.99959 2.58156,-2.58156 0.26684,-0.40026 0.43026,-0.86053 0.64539,-1.29079 0.43026,-0.43026 0.92569,-0.80399 1.29078,-1.29078 0.28863,-0.38483 0.35676,-0.90594 0.64539,-1.29078 0.54763,-0.73017 1.42989,-1.17674 1.93617,-1.93617 0.26684,-0.40025 0.30524,-0.95063 0.64539,-1.29078 0.34015,-0.34015 0.95063,-0.30524 1.29078,-0.64539 0.34015,-0.34015 0.30524,-0.95063 0.64539,-1.29078 0.34015,-0.34015 0.86052,-0.43026 1.29078,-0.64539 0.43026,-0.21513 0.83442,-0.49327 1.29078,-0.64539 0.20409,-0.068 0.4413,0.068 0.64539,0 0.45636,-0.15212 0.83442,-0.49327 1.29078,-0.64539 0.40818,-0.13606 0.90595,0.19242 1.29078,0 0.27212,-0.13606 0.37327,-0.50933 0.64539,-0.64539 0.38484,-0.19241 0.90595,0.19242 1.29078,0 0.27212,-0.13606 0.37327,-0.50933 0.64539,-0.64539 0.0928,-0.0464 3.19764,-0.01 3.22695,0 0.28863,0.0962 0.37327,0.50933 0.64539,0.64539 0.38484,0.19242 0.90595,-0.19241 1.29078,0 0.27212,0.13606 0.35024,0.5716 0.64539,0.64539 0.62612,0.15653 1.31005,-0.15653 1.93617,0 0.29516,0.0738 0.39225,0.47663 0.64539,0.64539 0.40026,0.26684 0.90595,0.35677 1.29078,0.64539 0.73018,0.54764 1.29078,1.29078 1.93617,1.93617 -0.16534,0.99523 2.16662,1.52123 2.58156,1.93617 0.34015,0.34015 0.37856,0.89053 0.64539,1.29078 0.33753,0.50629 1.01866,0.74654 1.29078,1.29078 0.0962,0.19242 -0.0962,0.45298 0,0.64539 0.13606,0.27213 0.50933,0.37327 0.64539,0.64539 0.34595,0.6919 -0.34594,0.59889 0,1.29079 0.13606,0.27212 0.50933,0.37326 0.64539,0.64539 0.19242,0.38483 -0.13606,0.88259 0,1.29078 0.15212,0.45635 0.49327,0.83442 0.64539,1.29078 0.13606,0.40818 -0.19241,0.90594 0,1.29078 0.13606,0.27212 0.50933,0.37327 0.64539,0.64539 0.12795,0.25589 -0.13194,1.80422 0,1.93617 0.15212,0.15212 0.49327,-0.15212 0.64539,0 0.15212,0.15212 -0.0962,0.45297 0,0.64539 0.13606,0.27212 0.50933,0.37327 0.64539,0.64539 0.0962,0.19241 -0.0962,0.45297 0,0.64539 0.13606,0.27212 0.43026,0.43026 0.64539,0.64539 0.21513,0.21513 0.37327,0.50933 0.64539,0.64539 0.19242,0.0962 0.45298,-0.0962 0.64539,0 0.27213,0.13606 0.37327,0.50933 0.64539,0.64539 0.19242,0.0962 0.45298,-0.0962 0.64539,0 0.54425,0.27212 0.71353,1.09836 1.29079,1.29078 0.40818,0.13606 0.90594,-0.19242 1.29078,0 0.19241,0.0962 -0.15212,0.49327 0,0.64539 0.15212,0.15212 0.45297,-0.0962 0.64539,0 0.77446,0.38723 1.1617,1.54893 1.93617,1.93617 0.19241,0.0962 0.45297,-0.0962 0.64539,0 0.54424,0.27212 0.74653,1.01866 1.29078,1.29078 0.19241,0.0962 0.49327,-0.15212 0.64539,0 0.15212,0.15212 -0.0962,0.45297 0,0.64539 0.31754,0.63508 2.26401,1.94647 2.58156,2.58156 0.0962,0.19242 -0.15212,0.49327 0,0.64539 0.15212,0.15212 0.45297,-0.0962 0.64539,0 0.27212,0.13606 0.37327,0.50933 0.64539,0.64539 0.19241,0.0962 0.43026,0 0.64539,0 0.43026,0 0.86052,0 1.29078,0 1.29078,0 2.58156,0 3.87234,0 0.21986,0 2.23227,0.11643 2.58156,0 0.45636,-0.15212 0.83442,-0.49327 1.29078,-0.64539 0.20409,-0.068 0.45297,0.0962 0.64539,0 0.54424,-0.27212 0.74654,-1.01866 1.29078,-1.29078 0.25589,-0.12795 1.80423,0.13194 1.93617,0 0.15212,-0.15212 -0.15212,-0.49327 0,-0.64539 0.15212,-0.15212 0.43026,0 0.64539,0 0.21513,-0.21513 0.47663,-0.39225 0.64539,-0.64539 0.26683,-0.40026 0.49327,-0.83442 0.64539,-1.29078 0.068,-0.20409 -0.15212,-0.49327 0,-0.64539 0.15212,-0.15212 0.49327,0.15212 0.64539,0 0.15212,-0.15212 -0.0962,-0.45298 0,-0.64539 0.29657,-0.59315 2.41832,-2.09185 2.58156,-2.58156 0.13606,-0.40818 -0.13606,-0.8826 0,-1.29078 0.19242,-0.57726 1.01866,-0.74654 1.29078,-1.29078 0.0962,-0.19242 -0.068,-0.4413 0,-0.64539 0.30424,-0.91272 1.05744,-1.6482 1.29078,-2.58156 0.10435,-0.41742 0,-0.86052 0,-1.29078 0.21513,-0.43026 0.52872,-0.8241 0.64539,-1.29078 0.10435,-0.41742 -0.13606,-0.8826 0,-1.29078 0.0962,-0.28863 0.50933,-0.37327 0.64539,-0.64539 0.19242,-0.38484 -0.19242,-0.90595 0,-1.29078 0.13606,-0.27213 0.50933,-0.37327 0.64539,-0.64539 0.19242,-0.38484 -0.19242,-0.90595 0,-1.29079 0.13606,-0.27212 0.50933,-0.37326 0.64539,-0.64539 0.19242,-0.38483 -0.19242,-0.90594 0,-1.29078 0.13606,-0.27212 0.50933,-0.37327 0.64539,-0.64539 0.0962,-0.19241 -0.0962,-0.45297 0,-0.64539 1.34298,-2.68595 -0.0446,0.68995 1.29078,-0.64539 0.15212,-0.15212 -0.0962,-0.45297 0,-0.64539 0.38723,-0.77446 1.54893,-1.1617 1.93617,-1.93617 0.0962,-0.19241 -0.15212,-0.49327 0,-0.64539 0.15212,-0.15212 0.45297,0.0962 0.64539,0 0.27212,-0.13606 0.37327,-0.50933 0.64539,-0.64539 0.68879,-0.34439 0.60199,0.3444 1.29078,0 0.27212,-0.13606 0.37327,-0.50933 0.64539,-0.64539 0.19242,-0.0962 0.43026,0 0.64539,0 0.43026,0 0.86052,0 1.29078,0 1.07565,0 2.1513,0 3.22695,0 1.29078,0 2.58156,0 3.87234,0 0.64539,0 1.3239,-0.20409 1.93617,0 0.57725,0.19242 0.74654,1.01866 1.29078,1.29078 0.42261,0.21131 2.65421,-0.19091 3.22695,0 4.67483,1.55828 -1.01753,-0.18606 1.93617,1.29078 0.19242,0.0962 0.45297,-0.0962 0.64539,0 2.14049,2.14049 -0.60848,-0.30424 1.29078,0.64539 0.77447,0.38724 1.1617,1.54894 1.93617,1.93617 0.19242,0.0962 0.45297,-0.0962 0.64539,0 0.26703,0.13352 1.7538,1.66262 1.93617,1.93617 0.26684,0.40026 0.30524,0.95063 0.64539,1.29078 0.34015,0.34016 0.89053,0.37856 1.29078,0.64539 0.25314,0.16877 0.37327,0.50933 0.64539,0.6454 0.19242,0.0962 0.45297,-0.0962 0.64539,0 0.27212,0.13606 0.43026,0.43026 0.64539,0.64539 0.21513,0.21513 0.50933,0.37326 0.64539,0.64539 0.0962,0.19241 -0.0962,0.45297 0,0.64539 0.38724,0.77446 1.54894,1.1617 1.93617,1.93617 0.0962,0.19241 -0.15212,0.49327 0,0.64539 1.33534,1.33533 -0.0522,-2.04057 1.29078,0.64539 0.0962,0.19241 -0.0962,0.45297 0,0.64539 0.13606,0.27212 0.50933,0.37327 0.64539,0.64539 0.0962,0.19241 -0.0962,0.45297 0,0.64539 0.13606,0.27212 0.50933,0.37327 0.64539,0.64539 0.19242,0.38483 -0.19242,0.90594 0,1.29078 0.13606,0.27212 0.50933,0.37327 0.64539,0.64539 0.19242,0.38483 -0.30424,0.98654 0,1.29078 0.15212,0.15212 0.49327,-0.15212 0.64539,0 0.3227,0.32269 -0.32269,1.61347 0,1.93617 0.86052,0.86052 0.64539,-1.07565 0.64539,0.64539"
       id="path5016-0"
       inkscape:connector-curvature="0" />
  </g>
</svg>
