<?xml version="1.0" encoding="UTF-8" standalone="no"?>
<!-- Created with Inkscape (http://www.inkscape.org/) -->

<svg
   xmlns:dc="http://purl.org/dc/elements/1.1/"
   xmlns:cc="http://creativecommons.org/ns#"
   xmlns:rdf="http://www.w3.org/1999/02/22-rdf-syntax-ns#"
   xmlns:svg="http://www.w3.org/2000/svg"
   xmlns="http://www.w3.org/2000/svg"
   xmlns:sodipodi="http://sodipodi.sourceforge.net/DTD/sodipodi-0.dtd"
   xmlns:inkscape="http://www.inkscape.org/namespaces/inkscape"
   width="640px"
   height="480px"
   id="svg2985"
   version="1.1"
   inkscape:version="0.48.1 r9760"
   sodipodi:docname="psk2.svg">
  <defs
     id="defs2987" />
  <sodipodi:namedview
     id="base"
     pagecolor="#ffffff"
     bordercolor="#666666"
     borderopacity="1.0"
     inkscape:pageopacity="0.0"
     inkscape:pageshadow="2"
     inkscape:zoom="1.5494506"
     inkscape:cx="317.0302"
     inkscape:cy="344.29256"
     inkscape:current-layer="layer1"
     inkscape:document-units="px"
     showgrid="false"
     inkscape:window-width="1024"
     inkscape:window-height="549"
     inkscape:window-x="0"
     inkscape:window-y="25"
     inkscape:window-maximized="1" />
  <metadata
     id="metadata2990">
    <rdf:RDF>
      <cc:Work
         rdf:about="">
        <dc:format>image/svg+xml</dc:format>
        <dc:type
           rdf:resource="http://purl.org/dc/dcmitype/StillImage" />
        <dc:title></dc:title>
      </cc:Work>
    </rdf:RDF>
  </metadata>
  <g
     id="layer1"
     inkscape:label="Layer 1"
     inkscape:groupmode="layer">
    <rect
       style="fill:#000000;fill-opacity:0.00423728;stroke:#000000;stroke-width:2.97443724;stroke-miterlimit:4;stroke-opacity:1;stroke-dasharray:none;stroke-dashoffset:0"
       id="rect2997"
       width="133.20175"
       height="83.838745"
       x="148.02377"
       y="61.681358" />
    <text
       xml:space="preserve"
       style="font-size:21.24385452px;font-style:normal;font-weight:normal;line-height:125%;letter-spacing:0px;word-spacing:0px;fill:#000000;fill-opacity:1;stroke:none;font-family:Sans"
       x="161.5145"
       y="93.849487"
       id="text3767"
       sodipodi:linespacing="125%"><tspan
         sodipodi:role="line"
         id="tspan3769"
         x="161.5145"
         y="93.849487">Oscillator</tspan></text>
    <path
       style="fill:#000000;fill-opacity:0.00423728;stroke:#000000;stroke-width:2.47637844;stroke-miterlimit:4;stroke-opacity:1;stroke-dasharray:none;stroke-dashoffset:0"
       d="m 423.33643,164.03396 61.89963,0"
       id="path3795-6"
       inkscape:connector-curvature="0" />
    <path
       style="fill:#000000;fill-opacity:0.00423728;stroke:#000000;stroke-width:2.97443724;stroke-miterlimit:4;stroke-opacity:1;stroke-dasharray:none;stroke-dashoffset:0"
       d="m 50.425921,117.72502 41.27645,0"
       id="path3129"
       inkscape:connector-curvature="0" />
    <path
       style="fill:#000000;fill-opacity:0.00423728;stroke:#000000;stroke-width:2.97443724;stroke-miterlimit:4;stroke-opacity:1;stroke-dasharray:none;stroke-dashoffset:0"
       d="m 56.797451,125.75869 26.3172,0"
       id="path3131"
       inkscape:connector-curvature="0" />
    <path
       style="fill:#000000;fill-opacity:0.00423728;stroke:#000000;stroke-width:2.97443724;stroke-miterlimit:4;stroke-opacity:1;stroke-dasharray:none;stroke-dashoffset:0"
       d="m 64.831131,135.17748 10.8039,0"
       id="path3133"
       inkscape:connector-curvature="0" />
    <path
       style="fill:#000000;fill-opacity:0.00423728;stroke:#000000;stroke-width:2.48881459;stroke-miterlimit:4;stroke-opacity:1;stroke-dasharray:none;stroke-dashoffset:0"
       d="m 70.051111,101.48394 0,15.6708"
       id="path4007"
       inkscape:connector-curvature="0" />
    <path
       style="fill:#000000;fill-opacity:0.00423728;stroke:#000000;stroke-width:2.48881459;stroke-miterlimit:4;stroke-opacity:1;stroke-dasharray:none;stroke-dashoffset:0"
       d="m 69.332273,101.89102 76.458377,0"
       id="path4009"
       inkscape:connector-curvature="0" />
    <path
       style="fill:#000000;fill-opacity:0.00423728;stroke:#000000;stroke-width:2.48881459;stroke-miterlimit:4;stroke-opacity:1;stroke-dasharray:none;stroke-dashoffset:0"
       d="m 281.67895,102.13417 76.45838,0"
       id="path4009-8"
       inkscape:connector-curvature="0" />
    <text
       xml:space="preserve"
       style="font-size:24.19497299px;font-style:normal;font-weight:normal;line-height:125%;letter-spacing:0px;word-spacing:0px;fill:#000000;fill-opacity:1;stroke:none;font-family:Sans"
       x="518.71613"
       y="117.17101"
       id="text3767-7-7"
       sodipodi:linespacing="125%"><tspan
         sodipodi:role="line"
         id="tspan3769-5-3"
         x="518.71613"
         y="117.17101">Antenna</tspan></text>
    <rect
       style="fill:#000000;fill-opacity:0.00423728;stroke:#000000;stroke-width:2.97443724;stroke-miterlimit:4;stroke-opacity:1;stroke-dasharray:none;stroke-dashoffset:0"
       id="rect2997-3"
       width="133.20175"
       height="83.838745"
       x="147.88818"
       y="177.95561" />
    <text
       xml:space="preserve"
       style="font-size:21.24385452px;font-style:normal;font-weight:normal;line-height:125%;letter-spacing:0px;word-spacing:0px;fill:#000000;fill-opacity:1;stroke:none;font-family:Sans"
       x="161.37889"
       y="210.12375"
       id="text3767-8"
       sodipodi:linespacing="125%"><tspan
         sodipodi:role="line"
         id="tspan3769-0"
         x="161.37889"
         y="210.12375">Oscillator</tspan></text>
    <path
       style="fill:#000000;fill-opacity:0.00423728;stroke:#000000;stroke-width:2.97443724;stroke-miterlimit:4;stroke-opacity:1;stroke-dasharray:none;stroke-dashoffset:0"
       d="m 51.012735,231.01323 41.27645,0"
       id="path3129-2"
       inkscape:connector-curvature="0" />
    <path
       style="fill:#000000;fill-opacity:0.00423728;stroke:#000000;stroke-width:2.97443724;stroke-miterlimit:4;stroke-opacity:1;stroke-dasharray:none;stroke-dashoffset:0"
       d="m 57.384265,239.0469 26.3172,0"
       id="path3131-7"
       inkscape:connector-curvature="0" />
    <path
       style="fill:#000000;fill-opacity:0.00423728;stroke:#000000;stroke-width:2.97443724;stroke-miterlimit:4;stroke-opacity:1;stroke-dasharray:none;stroke-dashoffset:0"
       d="m 65.417945,248.46569 10.8039,0"
       id="path3133-4"
       inkscape:connector-curvature="0" />
    <path
       style="fill:#000000;fill-opacity:0.00423728;stroke:#000000;stroke-width:2.48881459;stroke-miterlimit:4;stroke-opacity:1;stroke-dasharray:none;stroke-dashoffset:0"
       d="m 70.637925,214.77215 0,15.6708"
       id="path4007-4"
       inkscape:connector-curvature="0" />
    <path
       style="fill:#000000;fill-opacity:0.00423728;stroke:#000000;stroke-width:2.48881459;stroke-miterlimit:4;stroke-opacity:1;stroke-dasharray:none;stroke-dashoffset:0"
       d="m 69.919087,215.17923 76.458383,0"
       id="path4009-1"
       inkscape:connector-curvature="0" />
    <path
       style="fill:#000000;fill-opacity:0.00423728;stroke:#000000;stroke-width:2.48881459;stroke-miterlimit:4;stroke-opacity:1;stroke-dasharray:none;stroke-dashoffset:0"
       d="m 281.2226,218.04954 76.45837,0"
       id="path4009-8-1"
       inkscape:connector-curvature="0" />
    <path
       style="fill:#000000;fill-opacity:0.00423728;stroke:#000000;stroke-width:2.46000004;stroke-miterlimit:4;stroke-opacity:1;stroke-dasharray:none;stroke-dashoffset:0"
       d="M 424.66666,163.11348 356.90071,102.44681"
       id="path4869"
       inkscape:connector-curvature="0" />
    <path
       sodipodi:type="arc"
       style="fill:#000000;fill-opacity:0.99215686;stroke:#000000;stroke-width:2.46000004;stroke-miterlimit:4;stroke-opacity:1;stroke-dasharray:none;stroke-dashoffset:0"
       id="path4871"
       sodipodi:cx="385.94327"
       sodipodi:cy="70.177307"
       sodipodi:rx="3.2269504"
       sodipodi:ry="3.2269504"
       d="m 389.17022,70.177307 a 3.2269504,3.2269504 0 1 1 -6.4539,0 3.2269504,3.2269504 0 1 1 6.4539,0 z"
       transform="matrix(1.3071784,0,0,1.3071784,-147.13964,10.523517)" />
    <path
       style="fill:#000000;fill-opacity:0.99215686;stroke:#000000;stroke-width:2.46000004;stroke-miterlimit:4;stroke-opacity:1;stroke-dasharray:none;stroke-dashoffset:0"
       d="m 485.33333,163.75887 0,-145.212767"
       id="path4873"
       inkscape:connector-curvature="0" />
    <path
       style="fill:#000000;fill-opacity:0;stroke:#000000;stroke-width:2.46000004;stroke-miterlimit:4;stroke-opacity:1;stroke-dasharray:none;stroke-dashoffset:0"
       d="m 154.24823,126.97164 c 2.58643,0.31514 0.85911,-3.009 1.29078,-3.87234 0.27212,-0.54425 1.09836,-0.71353 1.29078,-1.29078 0.13606,-0.40819 -0.13606,-0.8826 0,-1.29078 0.12551,-0.37654 2.19358,-1.99959 2.58156,-2.58156 0.26684,-0.40026 0.43026,-0.86053 0.64539,-1.29079 0.43026,-0.43026 0.92569,-0.80399 1.29078,-1.29078 0.28863,-0.38483 0.35676,-0.90594 0.64539,-1.29078 0.54763,-0.73017 1.42989,-1.17674 1.93617,-1.93617 0.26684,-0.40025 0.30524,-0.95063 0.64539,-1.29078 0.34015,-0.34015 0.95063,-0.30524 1.29078,-0.64539 0.34015,-0.34015 0.30524,-0.95063 0.64539,-1.29078 0.34015,-0.34015 0.86052,-0.43026 1.29078,-0.64539 0.43026,-0.21513 0.83442,-0.49327 1.29078,-0.64539 0.20409,-0.068 0.4413,0.068 0.64539,0 0.45636,-0.15212 0.83442,-0.49327 1.29078,-0.64539 0.40818,-0.13606 0.90595,0.19242 1.29078,0 0.27212,-0.13606 0.37327,-0.50933 0.64539,-0.64539 0.38484,-0.19241 0.90595,0.19242 1.29078,0 0.27212,-0.13606 0.37327,-0.50933 0.64539,-0.64539 0.0928,-0.0464 3.19764,-0.01 3.22695,0 0.28863,0.0962 0.37327,0.50933 0.64539,0.64539 0.38484,0.19242 0.90595,-0.19241 1.29078,0 0.27212,0.13606 0.35024,0.5716 0.64539,0.64539 0.62612,0.15653 1.31005,-0.15653 1.93617,0 0.29516,0.0738 0.39225,0.47663 0.64539,0.64539 0.40026,0.26684 0.90595,0.35677 1.29078,0.64539 0.73018,0.54764 1.29078,1.29078 1.93617,1.93617 -0.16534,0.99523 2.16662,1.52123 2.58156,1.93617 0.34015,0.34015 0.37856,0.89053 0.64539,1.29078 0.33753,0.50629 1.01866,0.74654 1.29078,1.29078 0.0962,0.19242 -0.0962,0.45298 0,0.64539 0.13606,0.27213 0.50933,0.37327 0.64539,0.64539 0.34595,0.6919 -0.34594,0.59889 0,1.29079 0.13606,0.27212 0.50933,0.37326 0.64539,0.64539 0.19242,0.38483 -0.13606,0.88259 0,1.29078 0.15212,0.45635 0.49327,0.83442 0.64539,1.29078 0.13606,0.40818 -0.19241,0.90594 0,1.29078 0.13606,0.27212 0.50933,0.37327 0.64539,0.64539 0.12795,0.25589 -0.13194,1.80422 0,1.93617 0.15212,0.15212 0.49327,-0.15212 0.64539,0 0.15212,0.15212 -0.0962,0.45297 0,0.64539 0.13606,0.27212 0.50933,0.37327 0.64539,0.64539 0.0962,0.19241 -0.0962,0.45297 0,0.64539 0.13606,0.27212 0.43026,0.43026 0.64539,0.64539 0.21513,0.21513 0.37327,0.50933 0.64539,0.64539 0.19242,0.0962 0.45298,-0.0962 0.64539,0 0.27213,0.13606 0.37327,0.50933 0.64539,0.64539 0.19242,0.0962 0.45298,-0.0962 0.64539,0 0.54425,0.27212 0.71353,1.09836 1.29079,1.29078 0.40818,0.13606 0.90594,-0.19242 1.29078,0 0.19241,0.0962 -0.15212,0.49327 0,0.64539 0.15212,0.15212 0.45297,-0.0962 0.64539,0 0.77446,0.38723 1.1617,1.54893 1.93617,1.93617 0.19241,0.0962 0.45297,-0.0962 0.64539,0 0.54424,0.27212 0.74653,1.01866 1.29078,1.29078 0.19241,0.0962 0.49327,-0.15212 0.64539,0 0.15212,0.15212 -0.0962,0.45297 0,0.64539 0.31754,0.63508 2.26401,1.94647 2.58156,2.58156 0.0962,0.19242 -0.15212,0.49327 0,0.64539 0.15212,0.15212 0.45297,-0.0962 0.64539,0 0.27212,0.13606 0.37327,0.50933 0.64539,0.64539 0.19241,0.0962 0.43026,0 0.64539,0 0.43026,0 0.86052,0 1.29078,0 1.29078,0 2.58156,0 3.87234,0 0.21986,0 2.23227,0.11643 2.58156,0 0.45636,-0.15212 0.83442,-0.49327 1.29078,-0.64539 0.20409,-0.068 0.45297,0.0962 0.64539,0 0.54424,-0.27212 0.74654,-1.01866 1.29078,-1.29078 0.25589,-0.12795 1.80423,0.13194 1.93617,0 0.15212,-0.15212 -0.15212,-0.49327 0,-0.64539 0.15212,-0.15212 0.43026,0 0.64539,0 0.21513,-0.21513 0.47663,-0.39225 0.64539,-0.64539 0.26683,-0.40026 0.49327,-0.83442 0.64539,-1.29078 0.068,-0.20409 -0.15212,-0.49327 0,-0.64539 0.15212,-0.15212 0.49327,0.15212 0.64539,0 0.15212,-0.15212 -0.0962,-0.45298 0,-0.64539 0.29657,-0.59315 2.41832,-2.09185 2.58156,-2.58156 0.13606,-0.40818 -0.13606,-0.8826 0,-1.29078 0.19242,-0.57726 1.01866,-0.74654 1.29078,-1.29078 0.0962,-0.19242 -0.068,-0.4413 0,-0.64539 0.30424,-0.91272 1.05744,-1.6482 1.29078,-2.58156 0.10435,-0.41742 0,-0.86052 0,-1.29078 0.21513,-0.43026 0.52872,-0.8241 0.64539,-1.29078 0.10435,-0.41742 -0.13606,-0.8826 0,-1.29078 0.0962,-0.28863 0.50933,-0.37327 0.64539,-0.64539 0.19242,-0.38484 -0.19242,-0.90595 0,-1.29078 0.13606,-0.27213 0.50933,-0.37327 0.64539,-0.64539 0.19242,-0.38484 -0.19242,-0.90595 0,-1.29079 0.13606,-0.27212 0.50933,-0.37326 0.64539,-0.64539 0.19242,-0.38483 -0.19242,-0.90594 0,-1.29078 0.13606,-0.27212 0.50933,-0.37327 0.64539,-0.64539 0.0962,-0.19241 -0.0962,-0.45297 0,-0.64539 1.34298,-2.68595 -0.0446,0.68995 1.29078,-0.64539 0.15212,-0.15212 -0.0962,-0.45297 0,-0.64539 0.38723,-0.77446 1.54893,-1.1617 1.93617,-1.93617 0.0962,-0.19241 -0.15212,-0.49327 0,-0.64539 0.15212,-0.15212 0.45297,0.0962 0.64539,0 0.27212,-0.13606 0.37327,-0.50933 0.64539,-0.64539 0.68879,-0.34439 0.60199,0.3444 1.29078,0 0.27212,-0.13606 0.37327,-0.50933 0.64539,-0.64539 0.19242,-0.0962 0.43026,0 0.64539,0 0.43026,0 0.86052,0 1.29078,0 1.07565,0 2.1513,0 3.22695,0 1.29078,0 2.58156,0 3.87234,0 0.64539,0 1.3239,-0.20409 1.93617,0 0.57725,0.19242 0.74654,1.01866 1.29078,1.29078 0.42261,0.21131 2.65421,-0.19091 3.22695,0 4.67483,1.55828 -1.01753,-0.18606 1.93617,1.29078 0.19242,0.0962 0.45297,-0.0962 0.64539,0 2.14049,2.14049 -0.60848,-0.30424 1.29078,0.64539 0.77447,0.38724 1.1617,1.54894 1.93617,1.93617 0.19242,0.0962 0.45297,-0.0962 0.64539,0 0.26703,0.13352 1.7538,1.66262 1.93617,1.93617 0.26684,0.40026 0.30524,0.95063 0.64539,1.29078 0.34015,0.34016 0.89053,0.37856 1.29078,0.64539 0.25314,0.16877 0.37327,0.50933 0.64539,0.6454 0.19242,0.0962 0.45297,-0.0962 0.64539,0 0.27212,0.13606 0.43026,0.43026 0.64539,0.64539 0.21513,0.21513 0.50933,0.37326 0.64539,0.64539 0.0962,0.19241 -0.0962,0.45297 0,0.64539 0.38724,0.77446 1.54894,1.1617 1.93617,1.93617 0.0962,0.19241 -0.15212,0.49327 0,0.64539 1.33534,1.33533 -0.0522,-2.04057 1.29078,0.64539 0.0962,0.19241 -0.0962,0.45297 0,0.64539 0.13606,0.27212 0.50933,0.37327 0.64539,0.64539 0.0962,0.19241 -0.0962,0.45297 0,0.64539 0.13606,0.27212 0.50933,0.37327 0.64539,0.64539 0.19242,0.38483 -0.19242,0.90594 0,1.29078 0.13606,0.27212 0.50933,0.37327 0.64539,0.64539 0.19242,0.38483 -0.30424,0.98654 0,1.29078 0.15212,0.15212 0.49327,-0.15212 0.64539,0 0.3227,0.32269 -0.32269,1.61347 0,1.93617 0.86052,0.86052 0.64539,-1.07565 0.64539,0.64539"
       id="path5016"
       inkscape:connector-curvature="0" />
    <path
       style="fill:#000000;fill-opacity:0;stroke:#000000;stroke-width:2.46000004;stroke-miterlimit:4;stroke-opacity:1;stroke-dasharray:none;stroke-dashoffset:0"
       d="m 277.23821,229.12731 c -2.59698,-0.21126 -0.73787,3.04099 -1.1346,3.92094 -0.25009,0.55471 -1.06889,0.75697 -1.23802,1.34146 -0.11959,0.41331 0.17135,0.87644 0.0518,1.28975 -0.11033,0.38125 -2.11171,2.08586 -2.47605,2.68292 -0.25059,0.41063 -0.39544,0.87707 -0.59316,1.31561 -0.41267,0.44714 -0.89274,0.84043 -1.23803,1.34144 -0.27297,0.3961 -0.32018,0.91952 -0.59316,1.31561 -0.51794,0.75152 -1.38159,1.23308 -1.85704,2.0122 -0.25059,0.4106 -0.26691,0.96209 -0.59316,1.31559 -0.32625,0.3535 -0.93763,0.34308 -1.26388,0.69659 -0.32625,0.3535 -0.26691,0.9621 -0.59316,1.3156 -0.32625,0.3535 -0.84259,0.46438 -1.26389,0.69659 -0.42129,0.23219 -0.81399,0.5263 -1.26388,0.69659 -0.20121,0.0762 -0.44367,-0.0502 -0.64488,0.0258 -0.44989,0.17028 -0.81398,0.5263 -1.26388,0.69659 -0.40241,0.1523 -0.91293,-0.15598 -1.28975,0.0518 -0.26645,0.14685 -0.35256,0.52388 -0.61902,0.67073 -0.37681,0.20768 -0.91291,-0.15597 -1.28973,0.0518 -0.26645,0.14685 -0.35257,0.52388 -0.61902,0.67073 -0.0909,0.0501 -3.19467,0.13813 -3.22434,0.12925 -0.29227,-0.0845 -0.39339,-0.49396 -0.67074,-0.61901 -0.39225,-0.17684 -0.89751,0.22855 -1.28975,0.0518 -0.27735,-0.12505 -0.37286,-0.55712 -0.67072,-0.61902 -0.63189,-0.13132 -1.30273,0.20889 -1.93462,0.0776 -0.29787,-0.0619 -0.41103,-0.46053 -0.67073,-0.61902 -0.41063,-0.25058 -0.91952,-0.32018 -1.3156,-0.59316 -0.75154,-0.51794 -1.34146,-1.23802 -2.01219,-1.85704 0.12534,-1.00105 -2.22583,-1.43321 -2.65706,-1.83119 -0.3535,-0.32624 -0.41394,-0.87463 -0.69658,-1.26388 -0.35755,-0.49237 -1.04776,-0.70513 -1.34147,-1.23802 -0.1038,-0.18843 0.078,-0.45648 -0.0258,-0.64488 -0.14686,-0.26647 -0.52388,-0.35257 -0.67073,-0.61902 -0.3734,-0.67748 0.32167,-0.61227 -0.0518,-1.28975 -0.14685,-0.26645 -0.52388,-0.35255 -0.67074,-0.61902 -0.20768,-0.37681 0.10059,-0.88733 -0.0518,-1.28973 -0.17029,-0.44989 -0.5263,-0.81399 -0.69659,-1.26389 -0.15231,-0.4024 0.15595,-0.91293 -0.0518,-1.28974 -0.14686,-0.26645 -0.52388,-0.35256 -0.67073,-0.61902 -0.1381,-0.25056 0.0595,-1.80806 -0.0776,-1.93461 -0.15809,-0.1459 -0.48678,0.17175 -0.64487,0.0258 -0.15809,-0.1459 0.078,-0.45647 -0.0258,-0.64488 -0.14686,-0.26645 -0.52388,-0.35257 -0.67073,-0.61901 -0.10381,-0.1884 0.078,-0.45646 -0.0258,-0.64488 -0.14684,-0.26645 -0.44713,-0.41268 -0.67071,-0.61901 -0.22358,-0.20634 -0.39339,-0.49397 -0.67073,-0.61901 -0.19612,-0.0884 -0.44876,0.11432 -0.64488,0.0258 -0.27736,-0.12506 -0.39338,-0.49398 -0.67073,-0.61902 -0.19612,-0.0884 -0.44876,0.11432 -0.64487,0.0258 -0.55473,-0.25009 -0.75697,-1.06888 -1.34147,-1.23803 -0.4133,-0.1196 -0.89751,0.22857 -1.28974,0.0518 -0.19611,-0.0884 0.13224,-0.49898 -0.0258,-0.64487 -0.15809,-0.1459 -0.44876,0.11422 -0.64488,0.0258 -0.78934,-0.3559 -1.22283,-1.50115 -2.01218,-1.85705 -0.19611,-0.0884 -0.44875,0.11432 -0.64488,0.0258 -0.5547,-0.25008 -0.78674,-0.98792 -1.34146,-1.23802 -0.1961,-0.0884 -0.48678,0.17176 -0.64488,0.0258 -0.15809,-0.1459 0.078,-0.45647 -0.0258,-0.64488 -0.34272,-0.62185 -2.34018,-1.8542 -2.68291,-2.47605 -0.10381,-0.18841 0.13222,-0.49897 -0.0258,-0.64488 -0.1581,-0.1459 -0.44876,0.11433 -0.64488,0.0258 -0.27735,-0.12505 -0.39338,-0.49396 -0.67073,-0.61902 -0.1961,-0.0884 -0.42992,0.0171 -0.64488,0.0258 -0.4299,0.0171 -0.85982,0.0345 -1.28973,0.0518 -1.28975,0.0518 -2.57949,0.10342 -3.86924,0.15518 -0.21969,0.009 -2.23514,-0.0269 -2.57948,0.10343 -0.4499,0.17027 -0.81399,0.52629 -1.26389,0.69659 -0.2012,0.0762 -0.45645,-0.078 -0.64487,0.0258 -0.53291,0.2937 -0.70513,1.04775 -1.23803,1.34145 -0.25055,0.13811 -1.80808,-0.0595 -1.93462,0.0776 -0.1459,0.15809 0.17176,0.48678 0.0258,0.64488 -0.1459,0.15808 -0.42991,0.0171 -0.64487,0.0258 -0.20635,0.22358 -0.46053,0.41103 -0.61902,0.67072 -0.25058,0.41063 -0.45945,0.85351 -0.59316,1.3156 -0.0597,0.20665 0.17177,0.48678 0.0258,0.64488 -0.14591,0.15809 -0.49897,-0.13224 -0.64487,0.0258 -0.14591,0.1581 0.11431,0.44877 0.0258,0.64488 -0.27256,0.60455 -2.33256,2.18705 -2.47606,2.68291 -0.11959,0.41331 0.17136,0.87645 0.0518,1.28976 -0.16914,0.58449 -0.98793,0.78674 -1.23802,1.34145 -0.0884,0.19612 0.0856,0.43822 0.0258,0.64487 -0.26743,0.92418 -0.99056,1.68925 -1.18631,2.63121 -0.0875,0.42126 0.0345,0.85982 0.0518,1.28974 -0.19772,0.43854 -0.49527,0.84461 -0.59315,1.3156 -0.0875,0.42127 0.17134,0.87643 0.0518,1.28974 -0.0846,0.29225 -0.49396,0.39338 -0.61901,0.67073 -0.17685,0.39223 0.22857,0.89751 0.0518,1.28973 -0.12504,0.27737 -0.49397,0.39339 -0.619,0.67074 -0.17686,0.39225 0.22855,0.89751 0.0518,1.28975 -0.12506,0.27736 -0.49397,0.39337 -0.61902,0.67072 -0.17685,0.39224 0.22856,0.89752 0.0518,1.28975 -0.12503,0.27735 -0.49396,0.39337 -0.61901,0.67073 -0.0884,0.19611 0.11432,0.44874 0.0258,0.64488 -1.23429,2.7376 0.0169,-0.69119 -1.2639,0.69659 -0.14589,0.15808 0.11433,0.44874 0.0258,0.64486 -0.35589,0.78936 -1.50114,1.22283 -1.85704,2.01219 -0.0884,0.19611 0.17176,0.48679 0.0258,0.64488 -0.14591,0.1581 -0.45646,-0.078 -0.64488,0.0258 -0.26646,0.14685 -0.35256,0.52388 -0.61901,0.67073 -0.67443,0.37171 -0.61531,-0.32 -1.28974,0.0518 -0.26646,0.14686 -0.35257,0.52389 -0.61902,0.67073 -0.18842,0.1038 -0.42991,0.0171 -0.64487,0.0258 -0.42992,0.0171 -0.85983,0.0345 -1.28975,0.0518 -1.07478,0.0431 -2.14957,0.0862 -3.22435,0.12926 -1.28974,0.0518 -2.57949,0.10342 -3.86924,0.15518 -0.64487,0.0258 -1.31465,0.25698 -1.93461,0.0776 -0.5845,-0.16914 -0.78676,-0.98793 -1.34146,-1.23804 -0.43074,-0.19419 -2.64443,0.29707 -3.22435,0.12926 -4.73351,-1.36974 1.02415,0.14514 -1.98634,-1.21217 -0.19612,-0.0884 -0.44875,0.11432 -0.64488,0.0258 -2.22452,-2.05302 0.62018,0.27962 -1.3156,-0.59316 -0.78936,-0.3559 -1.22281,-1.50116 -2.01219,-1.85704 -0.19611,-0.0884 -0.44875,0.11423 -0.64487,0.0258 -0.27216,-0.12273 -1.819,-1.59103 -2.01218,-1.85705 -0.28267,-0.38924 -0.34308,-0.93764 -0.69659,-1.26388 -0.35351,-0.32627 -0.90498,-0.34258 -1.31561,-0.59316 -0.25969,-0.1585 -0.39337,-0.49398 -0.67072,-0.61902 -0.19613,-0.0884 -0.44875,0.11431 -0.64488,0.0258 -0.27735,-0.12505 -0.44716,-0.41268 -0.67073,-0.61902 -0.22357,-0.20632 -0.52388,-0.35254 -0.67072,-0.61901 -0.10381,-0.18841 0.078,-0.45646 -0.0258,-0.64487 -0.41797,-0.75833 -1.59424,-1.09872 -2.01219,-1.85704 -0.1038,-0.18841 0.13223,-0.49897 -0.0258,-0.64488 -1.38776,-1.28076 0.13396,2.03683 -1.31561,-0.59316 -0.1038,-0.1884 0.078,-0.45645 -0.0258,-0.64488 -0.14686,-0.26644 -0.52387,-0.35255 -0.67074,-0.619 -0.1038,-0.18841 0.078,-0.45646 -0.0258,-0.64488 -0.14685,-0.26645 -0.52387,-0.35256 -0.67073,-0.61902 -0.20767,-0.3768 0.15597,-0.91292 -0.0518,-1.28973 -0.14685,-0.26645 -0.52388,-0.35257 -0.67073,-0.61902 -0.20769,-0.37681 0.26447,-0.99794 -0.0518,-1.28974 -0.15809,-0.1459 -0.48678,0.17176 -0.64488,0.0258 -0.33535,-0.30951 0.25779,-1.6251 -0.0776,-1.93462 -0.89431,-0.82535 -0.60178,1.10065 -0.67073,-0.61902"
       id="path5016-2"
       inkscape:connector-curvature="0" />
  </g>
</svg>
