<?xml version="1.0" encoding="UTF-8" standalone="no"?>
<!-- Created with Inkscape (http://www.inkscape.org/) -->

<svg
   xmlns:dc="http://purl.org/dc/elements/1.1/"
   xmlns:cc="http://creativecommons.org/ns#"
   xmlns:rdf="http://www.w3.org/1999/02/22-rdf-syntax-ns#"
   xmlns:svg="http://www.w3.org/2000/svg"
   xmlns="http://www.w3.org/2000/svg"
   xmlns:sodipodi="http://sodipodi.sourceforge.net/DTD/sodipodi-0.dtd"
   xmlns:inkscape="http://www.inkscape.org/namespaces/inkscape"
   width="640px"
   height="480px"
   id="svg2985"
   version="1.1"
   inkscape:version="0.48.1 r9760"
   sodipodi:docname="qpsk.svg">
  <defs
     id="defs2987" />
  <sodipodi:namedview
     id="base"
     pagecolor="#ffffff"
     bordercolor="#666666"
     borderopacity="1.0"
     inkscape:pageopacity="0.0"
     inkscape:pageshadow="2"
     inkscape:zoom="0.77472527"
     inkscape:cx="274.8227"
     inkscape:cy="313.22669"
     inkscape:current-layer="layer1"
     inkscape:document-units="px"
     showgrid="false"
     inkscape:window-width="1024"
     inkscape:window-height="549"
     inkscape:window-x="0"
     inkscape:window-y="25"
     inkscape:window-maximized="1" />
  <metadata
     id="metadata2990">
    <rdf:RDF>
      <cc:Work
         rdf:about="">
        <dc:format>image/svg+xml</dc:format>
        <dc:type
           rdf:resource="http://purl.org/dc/dcmitype/StillImage" />
        <dc:title></dc:title>
      </cc:Work>
    </rdf:RDF>
  </metadata>
  <g
     id="layer1"
     inkscape:label="Layer 1"
     inkscape:groupmode="layer">
    <path
       style="fill:#000000;fill-opacity:0.00423728;stroke:#000000;stroke-width:4.9000001;stroke-miterlimit:4;stroke-opacity:1;stroke-dasharray:none;stroke-dashoffset:0"
       d="m 93.98323,172.94822 467.31233,0"
       id="path3194"
       inkscape:connector-curvature="0" />
    <path
       style="fill:#000000;fill-opacity:0.00423728;stroke:#000000;stroke-width:4.9000001;stroke-miterlimit:4;stroke-opacity:1;stroke-dasharray:none;stroke-dashoffset:0"
       d="m 331.29027,7.2113523 0,327.6662677"
       id="path3196"
       inkscape:connector-curvature="0" />
    <path
       sodipodi:type="arc"
       style="fill:#000000;fill-opacity:1;stroke:#000000;stroke-width:4.9000001;stroke-miterlimit:4;stroke-opacity:1;stroke-dasharray:none;stroke-dashoffset:0"
       id="path3242"
       sodipodi:cx="198.13475"
       sodipodi:cy="173.43971"
       sodipodi:rx="17.425531"
       sodipodi:ry="17.425531"
       d="m 215.56028,173.43971 a 17.425531,17.425531 0 1 1 -34.85106,0 17.425531,17.425531 0 1 1 34.85106,0 z"
       transform="translate(91.64539,-43.886532)" />
    <path
       transform="translate(93.58156,37.368801)"
       sodipodi:type="arc"
       style="fill:#000000;fill-opacity:1;stroke:#000000;stroke-width:4.9000001;stroke-miterlimit:4;stroke-opacity:1;stroke-dasharray:none;stroke-dashoffset:0"
       id="path3242-5"
       sodipodi:cx="198.13475"
       sodipodi:cy="173.43971"
       sodipodi:rx="17.425531"
       sodipodi:ry="17.425531"
       d="m 215.56028,173.43971 a 17.425531,17.425531 0 1 1 -34.85106,0 17.425531,17.425531 0 1 1 34.85106,0 z" />
    <path
       transform="translate(176.19149,38.078016)"
       sodipodi:type="arc"
       style="fill:#000000;fill-opacity:1;stroke:#000000;stroke-width:4.9000001;stroke-miterlimit:4;stroke-opacity:1;stroke-dasharray:none;stroke-dashoffset:0"
       id="path3242-5-7"
       sodipodi:cx="198.13475"
       sodipodi:cy="173.43971"
       sodipodi:rx="17.425531"
       sodipodi:ry="17.425531"
       d="m 215.56028,173.43971 a 17.425531,17.425531 0 1 1 -34.85106,0 17.425531,17.425531 0 1 1 34.85106,0 z" />
    <path
       transform="translate(178.19149,-42.531913)"
       sodipodi:type="arc"
       style="fill:#000000;fill-opacity:1;stroke:#000000;stroke-width:4.9000001;stroke-miterlimit:4;stroke-opacity:1;stroke-dasharray:none;stroke-dashoffset:0"
       id="path3242-5-3"
       sodipodi:cx="198.13475"
       sodipodi:cy="173.43971"
       sodipodi:rx="17.425531"
       sodipodi:ry="17.425531"
       d="m 215.56028,173.43971 a 17.425531,17.425531 0 1 1 -34.85106,0 17.425531,17.425531 0 1 1 34.85106,0 z" />
    <path
       sodipodi:type="arc"
       style="fill:#000000;fill-opacity:1;stroke:#000000;stroke-width:4.9000001;stroke-miterlimit:4;stroke-opacity:1;stroke-dasharray:none;stroke-dashoffset:0"
       id="path3242-7"
       sodipodi:cx="198.13475"
       sodipodi:cy="173.43971"
       sodipodi:rx="17.425531"
       sodipodi:ry="17.425531"
       d="m 215.56028,173.43971 a 17.425531,17.425531 0 1 1 -34.85106,0 17.425531,17.425531 0 1 1 34.85106,0 z"
       transform="translate(26.460995,-44.531913)" />
    <path
       sodipodi:type="arc"
       style="fill:#000000;fill-opacity:1;stroke:#000000;stroke-width:4.9000001;stroke-miterlimit:4;stroke-opacity:1;stroke-dasharray:none;stroke-dashoffset:0"
       id="path3242-8"
       sodipodi:cx="198.13475"
       sodipodi:cy="173.43971"
       sodipodi:rx="17.425531"
       sodipodi:ry="17.425531"
       d="m 215.56028,173.43971 a 17.425531,17.425531 0 1 1 -34.85106,0 17.425531,17.425531 0 1 1 34.85106,0 z"
       transform="translate(26.460996,35.496456)" />
    <path
       transform="translate(237.43972,-42.531913)"
       sodipodi:type="arc"
       style="fill:#000000;fill-opacity:1;stroke:#000000;stroke-width:4.9000001;stroke-miterlimit:4;stroke-opacity:1;stroke-dasharray:none;stroke-dashoffset:0"
       id="path3242-5-3-0"
       sodipodi:cx="198.13475"
       sodipodi:cy="173.43971"
       sodipodi:rx="17.425531"
       sodipodi:ry="17.425531"
       d="m 215.56028,173.43971 a 17.425531,17.425531 0 1 1 -34.85106,0 17.425531,17.425531 0 1 1 34.85106,0 z" />
    <path
       transform="translate(238.14894,35.496456)"
       sodipodi:type="arc"
       style="fill:#000000;fill-opacity:1;stroke:#000000;stroke-width:4.9000001;stroke-miterlimit:4;stroke-opacity:1;stroke-dasharray:none;stroke-dashoffset:0"
       id="path3242-5-3-05"
       sodipodi:cx="198.13475"
       sodipodi:cy="173.43971"
       sodipodi:rx="17.425531"
       sodipodi:ry="17.425531"
       d="m 215.56028,173.43971 a 17.425531,17.425531 0 1 1 -34.85106,0 17.425531,17.425531 0 1 1 34.85106,0 z" />
    <path
       transform="translate(239.43972,-105.19858)"
       sodipodi:type="arc"
       style="fill:#000000;fill-opacity:1;stroke:#000000;stroke-width:4.9000001;stroke-miterlimit:4;stroke-opacity:1;stroke-dasharray:none;stroke-dashoffset:0"
       id="path3242-5-3-0-4"
       sodipodi:cx="198.13475"
       sodipodi:cy="173.43971"
       sodipodi:rx="17.425531"
       sodipodi:ry="17.425531"
       d="m 215.56028,173.43971 a 17.425531,17.425531 0 1 1 -34.85106,0 17.425531,17.425531 0 1 1 34.85106,0 z" />
    <path
       transform="translate(178.77305,-105.19858)"
       sodipodi:type="arc"
       style="fill:#000000;fill-opacity:1;stroke:#000000;stroke-width:4.9000001;stroke-miterlimit:4;stroke-opacity:1;stroke-dasharray:none;stroke-dashoffset:0"
       id="path3242-5-3-0-42"
       sodipodi:cx="198.13475"
       sodipodi:cy="173.43971"
       sodipodi:rx="17.425531"
       sodipodi:ry="17.425531"
       d="m 215.56028,173.43971 a 17.425531,17.425531 0 1 1 -34.85106,0 17.425531,17.425531 0 1 1 34.85106,0 z" />
    <path
       transform="translate(94.872344,-106.48936)"
       sodipodi:type="arc"
       style="fill:#000000;fill-opacity:1;stroke:#000000;stroke-width:4.9000001;stroke-miterlimit:4;stroke-opacity:1;stroke-dasharray:none;stroke-dashoffset:0"
       id="path3242-5-3-0-1"
       sodipodi:cx="198.13475"
       sodipodi:cy="173.43971"
       sodipodi:rx="17.425531"
       sodipodi:ry="17.425531"
       d="m 215.56028,173.43971 a 17.425531,17.425531 0 1 1 -34.85106,0 17.425531,17.425531 0 1 1 34.85106,0 z" />
    <path
       transform="translate(23.879435,-105.19858)"
       sodipodi:type="arc"
       style="fill:#000000;fill-opacity:1;stroke:#000000;stroke-width:4.9000001;stroke-miterlimit:4;stroke-opacity:1;stroke-dasharray:none;stroke-dashoffset:0"
       id="path3242-5-3-0-8"
       sodipodi:cx="198.13475"
       sodipodi:cy="173.43971"
       sodipodi:rx="17.425531"
       sodipodi:ry="17.425531"
       d="m 215.56028,173.43971 a 17.425531,17.425531 0 1 1 -34.85106,0 17.425531,17.425531 0 1 1 34.85106,0 z" />
    <path
       transform="translate(239.43972,100.03546)"
       sodipodi:type="arc"
       style="fill:#000000;fill-opacity:1;stroke:#000000;stroke-width:4.9000001;stroke-miterlimit:4;stroke-opacity:1;stroke-dasharray:none;stroke-dashoffset:0"
       id="path3242-5-3-0-0"
       sodipodi:cx="198.13475"
       sodipodi:cy="173.43971"
       sodipodi:rx="17.425531"
       sodipodi:ry="17.425531"
       d="m 215.56028,173.43971 a 17.425531,17.425531 0 1 1 -34.85106,0 17.425531,17.425531 0 1 1 34.85106,0 z" />
    <path
       transform="translate(177.35461,100.03546)"
       sodipodi:type="arc"
       style="fill:#000000;fill-opacity:1;stroke:#000000;stroke-width:4.9000001;stroke-miterlimit:4;stroke-opacity:1;stroke-dasharray:none;stroke-dashoffset:0"
       id="path3242-5-3-0-5"
       sodipodi:cx="198.13475"
       sodipodi:cy="173.43971"
       sodipodi:rx="17.425531"
       sodipodi:ry="17.425531"
       d="m 215.56028,173.43971 a 17.425531,17.425531 0 1 1 -34.85106,0 17.425531,17.425531 0 1 1 34.85106,0 z" />
    <path
       transform="translate(93.581563,101.32624)"
       sodipodi:type="arc"
       style="fill:#000000;fill-opacity:1;stroke:#000000;stroke-width:4.9000001;stroke-miterlimit:4;stroke-opacity:1;stroke-dasharray:none;stroke-dashoffset:0"
       id="path3242-5-3-0-6"
       sodipodi:cx="198.13475"
       sodipodi:cy="173.43971"
       sodipodi:rx="17.425531"
       sodipodi:ry="17.425531"
       d="m 215.56028,173.43971 a 17.425531,17.425531 0 1 1 -34.85106,0 17.425531,17.425531 0 1 1 34.85106,0 z" />
    <path
       transform="translate(26.460996,102.61702)"
       sodipodi:type="arc"
       style="fill:#000000;fill-opacity:1;stroke:#000000;stroke-width:4.9000001;stroke-miterlimit:4;stroke-opacity:1;stroke-dasharray:none;stroke-dashoffset:0"
       id="path3242-5-3-0-80"
       sodipodi:cx="198.13475"
       sodipodi:cy="173.43971"
       sodipodi:rx="17.425531"
       sodipodi:ry="17.425531"
       d="m 215.56028,173.43971 a 17.425531,17.425531 0 1 1 -34.85106,0 17.425531,17.425531 0 1 1 34.85106,0 z" />
  </g>
</svg>
