<?xml version="1.0" encoding="UTF-8" standalone="no"?>
<!-- Created with Inkscape (http://www.inkscape.org/) -->

<svg
   xmlns:dc="http://purl.org/dc/elements/1.1/"
   xmlns:cc="http://creativecommons.org/ns#"
   xmlns:rdf="http://www.w3.org/1999/02/22-rdf-syntax-ns#"
   xmlns:svg="http://www.w3.org/2000/svg"
   xmlns="http://www.w3.org/2000/svg"
   xmlns:sodipodi="http://sodipodi.sourceforge.net/DTD/sodipodi-0.dtd"
   xmlns:inkscape="http://www.inkscape.org/namespaces/inkscape"
   width="640px"
   height="480px"
   id="svg2985"
   version="1.1"
   inkscape:version="0.48.4 r9939"
   sodipodi:docname="raisedcosine.svg">
  <defs
     id="defs2987" />
  <sodipodi:namedview
     id="base"
     pagecolor="#ffffff"
     bordercolor="#666666"
     borderopacity="1.0"
     inkscape:pageopacity="0.0"
     inkscape:pageshadow="2"
     inkscape:zoom="1.095627"
     inkscape:cx="224.01698"
     inkscape:cy="285.76484"
     inkscape:current-layer="layer1"
     inkscape:document-units="px"
     showgrid="false"
     inkscape:window-width="1920"
     inkscape:window-height="1004"
     inkscape:window-x="0"
     inkscape:window-y="24"
     inkscape:window-maximized="1" />
  <metadata
     id="metadata2990">
    <rdf:RDF>
      <cc:Work
         rdf:about="">
        <dc:format>image/svg+xml</dc:format>
        <dc:type
           rdf:resource="http://purl.org/dc/dcmitype/StillImage" />
        <dc:title></dc:title>
      </cc:Work>
    </rdf:RDF>
  </metadata>
  <g
     id="layer1"
     inkscape:label="Layer 1"
     inkscape:groupmode="layer">
    <path
       style="fill:none;stroke:#000000;stroke-width:5.46631861;stroke-linecap:butt;stroke-linejoin:miter;stroke-miterlimit:4;stroke-opacity:1;stroke-dasharray:none"
       d="m 113.30281,322.25274 c 8.81093,-0.39468 17.62187,-0.78936 26.43281,-1.18404 1.76218,-0.079 3.52438,-0.15788 5.28655,-0.23681 1.1748,-0.0526 2.39743,0.1781 3.52438,-0.15789 1.25996,-0.37563 2.29696,-1.28002 3.44544,-1.92005 1.14847,-0.64001 2.55829,-0.94971 3.44543,-1.92006 0.88716,-0.97035 0.71717,-2.63295 1.60432,-3.6033 0.88715,-0.97037 2.55829,-0.94971 3.44543,-1.92007 0.88716,-0.97036 0.71717,-2.63296 1.60433,-3.60331 0.88713,-0.97035 2.42997,-1.08491 3.44543,-1.92006 1.28447,-1.05637 2.24433,-2.45484 3.3665,-3.68224 1.12216,-1.22742 2.42919,-2.30847 3.3665,-3.68225 0.741,-1.08607 1.06953,-2.40222 1.60431,-3.60332 1.09585,-1.8148 2.03861,-3.73137 3.28756,-5.44442 0.97976,-1.34385 2.57553,-2.21932 3.36649,-3.68226 0.88433,-1.63561 0.64106,-3.72988 1.52538,-5.36549 0.79098,-1.46293 2.57553,-2.21932 3.3665,-3.68224 0.88433,-1.63562 0.64105,-3.72989 1.52538,-5.36551 0.79097,-1.46294 2.50683,-2.25858 3.3665,-3.68225 1.35924,-2.25099 2.13909,-4.8044 3.20863,-7.20662 1.96144,-4.40544 3.5501,-8.77544 6.49618,-12.65105 1.50965,-1.98595 3.54011,-3.5374 5.04975,-5.52337 5.9734,-7.85806 1.19517,-2.68437 4.81295,-10.80992 0.86229,-1.93673 2.0386,-3.73138 3.28755,-5.44444 0.97976,-1.34385 2.69007,-2.16296 3.3665,-3.68226 0.98606,-2.21473 0.69765,-4.8219 1.44644,-7.12769 4.65506,-14.3343 1.68326,-1.84113 4.81295,-10.80992 1.2252,-3.51111 1.53817,-7.33376 3.05075,-10.73099 0.86229,-1.93672 2.24553,-3.5982 3.28755,-5.44444 1.6852,-2.98578 3.49736,-5.91566 4.89187,-9.04775 1.28791,-2.89264 1.8418,-6.07616 3.12969,-8.9688 0.86231,-1.93672 2.42528,-3.50772 3.28757,-5.44443 0.75628,-1.69862 0.64105,-3.72989 1.52537,-5.3655 0.791,-1.46294 2.24434,-2.45484 3.36652,-3.68226 1.09586,-1.8148 2.31915,-3.55851 3.28756,-5.44443 1.80172,-3.50877 2.93699,-7.34028 4.81294,-10.80992 1.00829,-1.86488 2.19171,-3.62963 3.28756,-5.44444 1.68325,-1.84111 3.76027,-3.38789 5.04975,-5.52337 0.96113,-1.59169 0.64103,-3.7299 1.52538,-5.3655 0.79097,-1.46294 2.36006,-2.35828 3.3665,-3.68223 1.77914,-2.3405 3.19167,-4.9451 4.97081,-7.28558 6.96488,-9.16235 -0.42514,3.54341 8.33731,-10.9678 2.1165,-3.505073 1.58999,-4.879786 3.1297,-8.968808 3.38532,-8.990429 2.40212,-5.078906 6.49618,-12.651056 0.62531,-1.156551 0.8633,-2.517243 1.60432,-3.60331 1.39182,-2.039955 3.6579,-3.483415 5.04974,-5.523371 1.19482,-1.75123 1.85709,-3.879781 3.28757,-5.444435 0.88714,-0.970357 2.42997,-1.084917 3.44543,-1.92006 1.28448,-1.056382 2.08202,-2.625865 3.3665,-3.682248 9.68409,-7.964448 -3.49551,5.671877 6.81193,-5.602307 2.24434,-2.454833 4.48868,-4.909664 6.73301,-7.364496 1.12216,-1.227416 2.24433,-2.454831 3.3665,-3.682246 0.56107,-0.613709 1.0127,-1.349372 1.68325,-1.841124 1.06023,-0.77753 2.29696,-1.280041 3.44542,-1.920061 1.1485,-0.640019 2.18548,-1.544422 3.44543,-1.92006 1.12697,-0.335983 2.39744,0.178107 3.52439,-0.157874 1.25998,-0.37564 2.21799,-1.448893 3.44543,-1.920062 0.54894,-0.210712 1.1748,-0.05263 1.7622,-0.07894 1.17478,-0.05263 2.34957,-0.105256 3.52437,-0.157873 1.17479,-0.05263 2.39742,0.178107 3.52436,-0.157874 1.25999,-0.37564 2.18548,-1.544421 3.44546,-1.920061 1.22083,-0.36397 9.93507,-0.44504 10.57312,-0.473622 5.87396,-0.263123 11.74792,-0.526245 17.62187,-0.789368 12.3353,-0.552558 24.6706,-1.105118 37.00591,-1.657675 3.52439,-0.157875 7.04875,-0.315748 10.57312,-0.473621 1.17479,-0.05263 2.45008,-0.636188 3.52438,-0.157874 1.51928,0.676437 2.45483,2.244332 3.68225,3.3665 0.6137,0.561084 1.31293,1.041014 1.84113,1.683249 1.34662,1.637386 2.19652,3.6982 3.76118,5.128686 0.97035,0.887151 2.63294,0.717163 3.6033,1.604314 1.43927,1.315841 3.40891,7.52665 3.91907,8.653061 0.54242,1.197663 1.19384,2.349427 1.92004,3.445436 2.67031,4.030004 5.58589,7.569598 7.60131,12.01956 0.76712,1.69375 1.23189,3.513873 1.99901,5.207625 0.54242,1.197663 1.54442,2.185466 1.92006,3.445436 0.33598,1.126951 -0.3273,2.453153 0.15786,3.524373 1.40486,3.101794 4.67275,5.191371 5.68126,8.574124 0.33598,1.126951 -0.3273,2.453152 0.15786,3.524374 0.87466,1.931171 2.59019,3.361426 3.76118,5.128687 0.72625,1.096008 1.08493,2.429972 1.92006,3.445436 1.0564,1.284471 2.62589,2.082029 3.68225,3.366505 3.51963,4.27956 0.45224,6.36846 3.99801,10.41524 1.39711,1.59453 3.87977,1.85707 5.44444,3.28757 1.56466,1.43048 2.36406,3.53417 3.76118,5.12869 1.64397,1.87628 3.68225,3.3665 5.52338,5.04975 1.2274,1.12216 2.33841,2.38674 3.68223,3.36649 1.71307,1.24895 3.87978,1.85708 5.44444,3.28758 6.90699,6.31473 1.26042,3.19877 5.68124,8.5741 1.05638,1.28448 2.30847,2.4292 3.68225,3.3665 1.08606,0.74101 2.76816,0.58886 3.60332,1.60432 1.18106,1.43608 1.09386,3.58343 1.99899,5.20763 4.50788,8.08914 2.74829,2.09836 5.68124,8.57411 0.76711,1.69376 0.97197,3.65763 1.999,5.20764 0.9186,1.38633 2.62586,2.08202 3.68225,3.36649 0.83513,1.01546 1.28004,2.29696 1.92006,3.44544 3.35099,6.01318 5.45255,12.64798 7.91705,19.06831 1.33268,3.47174 2.46377,7.02774 3.998,10.41524 0.54243,1.19767 1.60477,2.16903 1.92006,3.44543 0.42299,1.7125 -0.13079,3.56135 0.23681,5.28656 -0.45143,3.61285 3.15976,5.57908 3.91906,8.65307 0.42298,1.71249 -0.13077,3.56134 0.2368,5.28657 1.05934,4.97211 2.0915,4.61789 3.91906,8.65307 0.76713,1.69373 1.09387,3.58342 1.999,5.20761 1.032,1.85186 2.83971,3.21941 3.76118,5.12869 1.05376,2.18333 1.30828,4.6709 2.07794,6.96982 0.59031,1.76317 1.33266,3.47173 1.999,5.20761 1.33266,3.47175 2.46376,7.02775 3.99799,10.41525 3.4688,7.65891 0.53869,-1.44381 3.91906,8.65305 0.76966,2.2989 1.38529,4.64654 2.07793,6.96982 0.69265,2.32327 1.57278,4.59869 2.07794,6.9698 0.24504,1.15016 -0.1781,2.39742 0.15788,3.52437 0.75128,2.51994 2.89777,4.43599 3.84011,6.89089 0.86879,2.26329 1.62804,4.5876 2.07794,6.96979 0.69587,3.68452 -0.92016,5.91883 2.15686,8.732 9.40885,8.60206 -2.78875,-7.2787 7.28556,4.97082 6.22479,7.56883 -2.94574,-0.0642 5.52338,5.04974 0.71182,0.42985 1.04128,1.45587 1.84112,1.68325 1.69674,0.48239 3.52437,-0.15787 5.28657,-0.2368 3.52437,-0.15788 7.04874,-0.31575 10.57312,-0.47363 1.1748,-0.0526 2.34958,-0.10519 3.52437,-0.15787 0.5874,-0.0264 1.73587,-0.66633 1.76219,-0.079 0.0263,0.5874 -2.34959,0.10519 -1.76219,0.079 1.76219,-0.079 3.52439,-0.15788 5.28656,-0.23681"
       id="path3787"
       inkscape:connector-curvature="0" />
    <path
       style="fill:none;stroke:#000000;stroke-width:1.36657965px;stroke-linecap:butt;stroke-linejoin:miter;stroke-opacity:1"
       d="m 247.59897,329.4951 253.12738,0"
       id="path3789"
       inkscape:connector-curvature="0" />
    <path
       style="fill:none;stroke:#000000;stroke-width:1.36657965px;stroke-linecap:butt;stroke-linejoin:miter;stroke-opacity:1"
       d="m 500.72635,310.09161 0,36.16105"
       id="path3795"
       inkscape:connector-curvature="0" />
    <path
       style="fill:none;stroke:#000000;stroke-width:1.36657965px;stroke-linecap:butt;stroke-linejoin:miter;stroke-opacity:1"
       d="m 248.56817,311.85556 0,36.16105"
       id="path3795-9"
       inkscape:connector-curvature="0" />
    <text
       xml:space="preserve"
       style="font-size:40.34418106px;font-style:normal;font-weight:normal;line-height:125%;letter-spacing:0px;word-spacing:0px;fill:#000000;fill-opacity:1;stroke:none;font-family:Sans"
       x="220.88843"
       y="309.74338"
       id="text3815"
       sodipodi:linespacing="125%"><tspan
         sodipodi:role="line"
         id="tspan3817"
         x="220.88843"
         y="309.74338">Δf of sidebands</tspan></text>
    <text
       xml:space="preserve"
       style="font-size:54.66318512px;font-style:normal;font-weight:normal;line-height:125%;letter-spacing:0px;word-spacing:0px;fill:#000000;fill-opacity:1;stroke:none;font-family:Sans"
       x="228.75385"
       y="415.89029"
       id="text3819"
       sodipodi:linespacing="125%"><tspan
         sodipodi:role="line"
         id="tspan3821"
         x="228.75385"
         y="415.89029">frequency</tspan></text>
    <text
       xml:space="preserve"
       style="font-size:54.66318512px;font-style:normal;font-weight:normal;line-height:125%;letter-spacing:0px;word-spacing:0px;fill:#000000;fill-opacity:1;stroke:none;font-family:Sans"
       x="-401.45499"
       y="59.346931"
       id="text3823"
       sodipodi:linespacing="125%"
       transform="matrix(0.0181417,-0.99983543,0.99983543,0.0181417,0,0)"><tspan
         sodipodi:role="line"
         id="tspan3825"
         x="-401.45499"
         y="59.346931">filter response</tspan></text>
  </g>
</svg>
