<?xml version="1.0" encoding="UTF-8" standalone="no"?>
<!-- Created with Inkscape (http://www.inkscape.org/) -->

<svg
   xmlns:dc="http://purl.org/dc/elements/1.1/"
   xmlns:cc="http://creativecommons.org/ns#"
   xmlns:rdf="http://www.w3.org/1999/02/22-rdf-syntax-ns#"
   xmlns:svg="http://www.w3.org/2000/svg"
   xmlns="http://www.w3.org/2000/svg"
   xmlns:sodipodi="http://sodipodi.sourceforge.net/DTD/sodipodi-0.dtd"
   xmlns:inkscape="http://www.inkscape.org/namespaces/inkscape"
   width="640px"
   height="480px"
   id="svg2985"
   version="1.1"
   inkscape:version="0.48.1 r9760"
   sodipodi:docname="sinc.svg">
  <defs
     id="defs2987" />
  <sodipodi:namedview
     id="base"
     pagecolor="#ffffff"
     bordercolor="#666666"
     borderopacity="1.0"
     inkscape:pageopacity="0.0"
     inkscape:pageshadow="2"
     inkscape:zoom="0.5478135"
     inkscape:cx="365.31713"
     inkscape:cy="206.54603"
     inkscape:current-layer="layer1"
     inkscape:document-units="px"
     showgrid="false"
     inkscape:window-width="1024"
     inkscape:window-height="549"
     inkscape:window-x="0"
     inkscape:window-y="25"
     inkscape:window-maximized="1" />
  <metadata
     id="metadata2990">
    <rdf:RDF>
      <cc:Work
         rdf:about="">
        <dc:format>image/svg+xml</dc:format>
        <dc:type
           rdf:resource="http://purl.org/dc/dcmitype/StillImage" />
        <dc:title></dc:title>
      </cc:Work>
    </rdf:RDF>
  </metadata>
  <g
     id="layer1"
     inkscape:label="Layer 1"
     inkscape:groupmode="layer">
    <g
       transform="matrix(0.80755301,0,0,-0.80755301,36.868828,448.78579)"
       id="g6">
      <polyline
         style="fill:none;stroke:#000000;stroke-width:1;stroke-opacity:1"
         points="80.01,285.92 80.62,284.97 81.23,283.72 81.86,282.19 82.47,280.38 83.08,278.26 83.69,275.86 84.33,273.20 84.94,270.25 85.55,267.07        86.16,263.61 86.79,259.92 87.41,255.99 88.02,251.86 88.65,247.49 89.26,242.93 89.87,238.17 90.48,233.23 91.12,228.13 91.73,222.86        92.34,217.46 92.95,211.94 93.58,206.28 94.19,200.54 94.80,194.71 95.41,188.82 96.05,182.87 96.66,176.86 97.27,170.83 97.88,164.80        98.51,158.77 99.12,152.76 99.73,146.78 100.34,140.85 100.98,134.99 101.59,129.18 102.20,123.49 102.81,117.90 103.45,112.43 104.06,107.11        104.67,101.91 105.28,96.88 105.91,92.04 106.52,87.36 107.13,82.89 107.74,78.64 108.38,74.59 108.99,70.78 109.60,67.19 110.21,63.87        110.84,60.79 111.45,57.99 112.06,55.45 112.67,53.20 113.31,51.22 113.92,49.54 114.53,48.12 115.14,47.02 115.78,46.22 116.39,45.70        117.00,45.51 117.61,45.61 118.24,46.00 118.85,46.71 119.46,47.71 120.07,49.00 120.71,50.59 121.32,52.47 121.93,54.62 122.56,57.06        123.17,59.77 123.78,62.75 124.39,65.99 125.03,69.48 125.64,73.22 126.25,77.18 126.86,81.35 127.49,85.77 128.10,90.36 128.71,95.14        129.33,100.13 129.96,105.25 130.57,110.53 131.18,115.95 131.79,121.51 132.43,127.15 133.04,132.91 133.65,138.77 134.26,144.68 134.89,150.64        135.50,156.65 136.11,162.68 136.72,168.71 137.36,174.74 137.97,180.74 138.58,186.72 139.19,192.63 139.82,198.49 140.43,204.28 141.04,209.94        141.65,215.51 142.29,220.98 142.90,226.28 143.51,231.43 144.12,236.43 144.76,241.27 145.37,245.91 145.98,250.33 146.59,254.55 147.22,258.55        147.83,262.34 148.44,265.88 149.05,269.15 149.69,272.18 150.30,274.94 150.91,277.45 151.52,279.65 152.15,281.58 152.76,283.21 153.37,284.58        154.01,285.63 154.62,286.39 155.23,286.83 155.84,287.00 156.47,286.85 157.08,286.39 157.70,285.65 158.31,284.60 158.94,283.26 159.55,281.62        160.16,279.70 160.77,277.47 161.41,274.98 162.02,272.23 162.63,269.22 163.24,265.93 163.87,262.41 164.48,258.63 165.09,254.62 165.70,250.40        166.34,245.98 166.95,241.34 167.56,236.53 168.17,231.53 168.80,226.37 169.41,221.05 170.02,215.61 170.64,210.04 171.27,204.38 171.88,198.59        172.49,192.75 173.10,186.82 173.74,180.84 174.35,174.83 174.96,168.80 175.57,162.77 176.20,156.74 176.81,150.74 177.42,144.78 178.03,138.87        178.67,133.01 179.28,127.27 179.89,121.61 180.50,116.04 181.13,110.62 181.74,105.33 182.35,100.20 182.96,95.24 183.60,90.43 184.21,85.84        184.82,81.45 185.43,77.25 186.07,73.29 186.68,69.56 187.29,66.04 187.92,62.82 188.53,59.82 189.14,57.11 189.75,54.66 190.39,52.49        191.00,50.61 191.61,49.02 192.22,47.73 192.85,46.73 193.46,46.02 194.07,45.61 194.68,45.51 195.32,45.70 195.93,46.22 196.54,47.00        197.15,48.10 197.78,49.49 198.39,51.17 199.01,53.15 199.62,55.42 200.25,57.94 200.86,60.74 201.47,63.82 202.08,67.14 202.72,70.71        203.33,74.51 203.94,78.57 204.55,82.82 205.18,87.28 205.79,91.95 206.40,96.80 207.01,101.81 207.65,107.01 208.26,112.33 208.87,117.80        209.48,123.39 210.11,129.08 210.72,134.87 211.33,140.75 211.94,146.68 212.58,152.64 213.19,158.67 213.80,164.70 214.41,170.73 215.05,176.76        215.66,182.77 216.27,188.73 216.88,194.61 217.51,200.45 218.12,206.18 218.73,211.85 219.37,217.37 219.98,222.76 220.59,228.03 221.20,233.14        221.83,238.07 222.44,242.83 223.05,247.42 223.66,251.77 224.30,255.94 224.91,259.85 225.52,263.56 226.13,267.00 226.76,270.20 227.38,273.15        227.99,275.81 228.60,278.21 229.23,280.33 229.84,282.16 230.45,283.70 231.06,284.97 231.70,285.92 232.31,286.56 232.92,286.92 233.53,286.97        234.16,286.73 234.77,286.17 235.38,285.31 235.99,284.16 236.63,282.72 237.24,280.99 "
         id="polyline8" />
      <polyline
         style="fill:none;stroke:#000000;stroke-width:1;stroke-opacity:1"
         points="237.24,280.99 237.85,278.99 238.46,276.67 239.09,274.11 239.70,271.25 240.31,268.15 240.93,264.78 241.56,261.17 242.17,257.31 242.78,253.23        243.39,248.93 244.03,244.44 244.64,239.75 245.25,234.87 245.86,229.82 246.49,224.59 247.10,219.24 247.71,213.75 248.32,208.16 248.96,202.45        249.57,196.64 250.18,190.75 250.81,184.82 251.42,178.84 252.03,172.81 252.64,166.78 253.28,160.75 253.89,154.72 254.50,148.74 255.11,142.78        255.75,136.89 256.36,131.08 256.97,125.35 257.58,119.73 258.21,114.21 258.82,108.84 259.43,103.59 260.04,98.51 260.68,93.61 261.29,88.87        261.90,84.33 262.51,80.01 263.14,75.88 263.75,72.00 264.36,68.34 264.97,64.94 265.61,61.77 266.22,58.89 266.83,56.25 267.44,53.91        268.07,51.83 268.68,50.05 269.30,48.56 269.91,47.36 270.54,46.46 271.15,45.85 271.76,45.53 272.37,45.53 273.01,45.85 273.62,46.44        274.23,47.34 274.84,48.54 275.47,50.03 276.08,51.81 276.69,53.88 277.30,56.23 277.94,58.86 278.55,61.75 279.16,64.89 279.77,68.31        280.40,71.97 281.01,75.86 281.62,79.96 282.24,84.30 282.87,88.82 283.48,93.56 284.09,98.46 284.73,103.54 285.34,108.79 285.95,114.16        286.56,119.68 287.19,125.30 287.80,131.03 288.41,136.84 289.02,142.73 289.66,148.69 290.27,154.67 290.88,160.70 291.49,166.73 292.12,172.76        292.73,178.79 293.34,184.77 293.95,190.70 294.59,196.59 295.20,202.40 295.81,208.11 296.42,213.70 297.05,219.20 297.67,224.57 298.28,229.77        298.89,234.82 299.52,239.70 300.13,244.39 300.74,248.91 301.35,253.21 301.99,257.28 302.60,261.12 303.21,264.73 303.82,268.10 304.45,271.22        305.06,274.08 305.67,276.64 306.28,278.96 306.92,280.99 307.53,282.72 308.14,284.16 308.75,285.31 309.38,286.17 309.99,286.73 310.61,286.97        311.22,286.92 311.85,286.58 312.46,285.92 313.07,284.97 313.68,283.72 314.32,282.19 314.93,280.36 315.54,278.23 316.17,275.84 316.78,273.18        317.39,270.22 318.00,267.02 318.64,263.58 319.25,259.90 319.86,255.96 320.47,251.81 321.10,247.44 321.71,242.88 322.32,238.12 322.93,233.19        323.57,228.08 324.18,222.81 324.79,217.41 325.40,211.90 326.04,206.23 326.65,200.49 327.26,194.66 327.87,188.78 328.50,182.82 329.11,176.81        329.72,170.78 330.33,164.75 330.97,158.72 331.58,152.71 332.19,146.73 332.80,140.80 333.43,134.92 334.04,129.13 334.65,123.44 335.26,117.85        335.90,112.38 336.51,107.06 337.12,101.86 337.73,96.85 338.36,91.99 338.98,87.33 339.59,82.86 340.20,78.59 340.83,74.56 341.44,70.75        342.05,67.17 342.66,63.84 343.30,60.77 343.91,57.96 344.52,55.45 345.13,53.18 345.76,51.20 346.37,49.51 346.98,48.12 347.59,47.02        348.23,46.22 348.84,45.70 349.45,45.51 350.08,45.61 350.69,46.02 351.30,46.71 351.92,47.71 352.55,49.00 353.16,50.61 353.77,52.49        354.38,54.64 355.02,57.08 355.63,59.79 356.24,62.79 356.85,66.02 357.48,69.51 358.09,73.24 358.70,77.22 359.31,81.40 359.95,85.79        360.56,90.41 361.17,95.19 361.78,100.15 362.41,105.30 363.02,110.57 363.63,115.99 364.24,121.56 364.88,127.20 365.49,132.96 366.10,138.82        366.71,144.73 367.35,150.69 367.96,156.69 368.57,162.72 369.18,168.76 369.81,174.79 370.42,180.79 371.03,186.77 371.64,192.68 372.28,198.54        372.89,204.33 373.50,209.99 374.11,215.56 374.74,221.03 375.35,226.33 375.96,231.48 376.57,236.48 377.21,241.29 377.82,245.93 378.43,250.37        379.04,254.60 379.67,258.60 380.29,262.36 380.90,265.90 381.53,269.17 382.14,272.20 382.75,274.96 383.36,277.45 384.00,279.67 384.61,281.60        385.22,283.24 385.83,284.58 386.46,285.63 387.07,286.39 387.68,286.85 388.29,287.00 388.93,286.85 389.54,286.39 390.15,285.63 390.76,284.58        391.39,283.24 392.00,281.60 392.61,279.67 393.22,277.45 393.86,274.96 394.47,272.20 "
         id="polyline10" />
      <polyline
         style="fill:none;stroke:#000000;stroke-width:1;stroke-opacity:1"
         points="394.47,272.20 395.08,269.17 395.69,265.90 396.33,262.36 396.94,258.60 397.55,254.60 398.16,250.37 398.79,245.93 399.40,241.29 400.01,236.48        400.62,231.48 401.26,226.33 401.87,221.03 402.48,215.56 403.09,209.99 403.72,204.33 404.33,198.54 404.94,192.68 405.55,186.77 406.19,180.79        406.80,174.79 407.41,168.76 408.02,162.72 408.66,156.69 409.27,150.69 409.88,144.73 410.49,138.82 411.12,132.96 411.73,127.20 412.34,121.56        412.95,115.99 413.59,110.57 414.20,105.30 414.81,100.15 415.44,95.19 416.05,90.41 416.66,85.79 417.27,81.40 417.91,77.22 418.52,73.24        419.13,69.51 419.74,66.02 420.37,62.79 420.98,59.79 421.59,57.08 422.21,54.64 422.84,52.49 423.45,50.61 424.06,49.00 424.67,47.71        425.31,46.71 425.92,46.02 426.53,45.61 427.14,45.51 427.77,45.70 428.38,46.22 428.99,47.02 429.60,48.12 430.24,49.51 430.85,51.20        431.46,53.18 432.07,55.45 432.70,57.96 433.31,60.77 433.92,63.84 434.53,67.17 435.17,70.75 435.78,74.56 436.39,78.59 437.00,82.86        437.64,87.33 438.25,91.99 438.86,96.85 439.47,101.86 440.10,107.06 440.71,112.38 441.32,117.85 441.93,123.44 442.57,129.13 443.18,134.92        443.79,140.80 444.40,146.73 445.03,152.71 445.64,158.72 446.25,164.75 446.89,170.78 447.50,176.81 448.11,182.82 448.72,188.78 449.35,194.66        449.96,200.49 450.58,206.23 451.19,211.90 451.82,217.41 452.43,222.81 453.04,228.08 453.65,233.19 454.29,238.12 454.90,242.88 455.51,247.44        456.12,251.81 456.75,255.96 457.36,259.90 457.97,263.58 458.58,267.02 459.22,270.22 459.83,273.18 460.44,275.84 461.05,278.23 461.68,280.36        462.29,282.19 462.90,283.72 463.52,284.97 464.15,285.92 464.76,286.58 465.37,286.92 465.98,286.97 466.62,286.73 467.23,286.17 467.84,285.31        468.45,284.16 469.08,282.72 469.69,280.99 470.30,278.96 470.91,276.64 471.55,274.08 472.16,271.22 472.77,268.10 473.38,264.73 474.01,261.12        474.62,257.28 475.23,253.21 475.84,248.91 476.48,244.39 477.09,239.70 477.70,234.82 478.33,229.77 478.95,224.57 479.56,219.20 480.17,213.70        480.80,208.11 481.41,202.40 482.02,196.59 482.63,190.70 483.27,184.77 483.88,178.79 484.49,172.76 485.10,166.73 485.73,160.70 486.34,154.67        486.95,148.69 487.56,142.73 488.20,136.84 488.81,131.03 489.42,125.30 490.03,119.68 490.66,114.16 491.27,108.79 491.89,103.54 492.50,98.46        493.13,93.56 493.74,88.82 494.35,84.30 494.96,79.96 495.60,75.86 496.21,71.97 496.82,68.31 497.43,64.89 498.06,61.75 498.67,58.86        499.28,56.23 499.89,53.88 500.53,51.81 501.14,50.03 501.75,48.54 502.36,47.34 502.99,46.44 503.60,45.85 504.21,45.53 504.82,45.53        505.46,45.85 506.07,46.46 506.68,47.36 507.29,48.56 507.93,50.05 508.54,51.83 509.15,53.91 509.76,56.25 510.39,58.89 511.00,61.77        511.61,64.94 512.25,68.34 512.86,72.00 513.47,75.88 514.08,80.01 514.71,84.33 515.32,88.87 515.93,93.61 516.54,98.51 517.18,103.59        517.79,108.84 518.40,114.21 519.01,119.73 519.64,125.35 520.26,131.08 520.87,136.89 521.48,142.78 522.11,148.74 522.72,154.72 523.33,160.75        523.94,166.78 524.58,172.81 525.19,178.84 525.80,184.82 526.41,190.75 527.04,196.64 527.65,202.45 528.26,208.16 528.87,213.75 529.51,219.24        530.12,224.59 530.73,229.82 531.34,234.87 531.97,239.75 532.58,244.44 533.19,248.93 533.81,253.23 534.44,257.31 535.05,261.17 535.66,264.78        536.27,268.15 536.91,271.25 537.52,274.11 538.13,276.67 538.74,278.99 539.37,280.99 539.98,282.72 540.59,284.16 541.20,285.31 541.84,286.17        542.45,286.73 543.06,286.97 543.69,286.92 544.30,286.56 544.91,285.92 545.52,284.97 546.16,283.70 546.77,282.16 547.38,280.33 547.99,278.21        548.63,275.81 549.24,273.15 549.85,270.20 550.46,267.00 551.09,263.56 551.70,259.85 "
         id="polyline12" />
      <polyline
         style="fill:none;stroke:#000000;stroke-width:1;stroke-opacity:1"
         points="551.70,259.85 552.31,255.94 552.92,251.77 553.56,247.42 554.17,242.83 554.78,238.07 555.39,233.14 556.02,228.03 556.63,222.76 557.24,217.37        557.85,211.85 558.49,206.18 559.10,200.45 559.71,194.61 560.32,188.73 560.95,182.77 561.56,176.76 562.18,170.73 562.79,164.70 563.42,158.67        564.03,152.64 564.64,146.68 565.25,140.75 565.89,134.87 566.50,129.08 567.11,123.39 567.72,117.80 568.35,112.33 568.96,107.01 569.57,101.81        570.18,96.80 570.82,91.95 571.43,87.28 572.04,82.82 572.65,78.57 573.28,74.51 573.89,70.71 574.50,67.14 575.12,63.82 575.75,60.74        576.36,57.94 576.97,55.42 577.61,53.15 578.22,51.17 578.83,49.49 579.44,48.10 580.07,47.00 580.68,46.22 581.29,45.70 581.90,45.51        582.54,45.61 583.15,46.02 583.76,46.73 584.37,47.73 585.00,49.02 585.61,50.61 586.22,52.49 586.83,54.66 587.47,57.11 588.08,59.82        588.69,62.82 589.30,66.04 589.93,69.56 590.55,73.29 591.16,77.25 591.77,81.45 592.40,85.84 593.01,90.43 593.62,95.24 594.23,100.20        594.87,105.33 595.48,110.62 596.09,116.04 596.70,121.61 597.33,127.27 597.94,133.01 598.55,138.87 599.16,144.78 599.80,150.74 600.41,156.74        601.02,162.77 601.63,168.80 602.26,174.83 602.87,180.84 603.49,186.82 604.10,192.75 604.73,198.59 605.34,204.38 605.95,210.04 606.56,215.61        607.20,221.05 607.81,226.37 608.42,231.53 609.05,236.53 609.66,241.34 610.27,245.98 610.88,250.40 611.52,254.62 612.13,258.63 612.74,262.41        613.35,265.93 613.98,269.22 614.59,272.23 615.20,274.98 615.81,277.47 616.45,279.70 617.06,281.62 617.67,283.26 618.28,284.60 618.92,285.65        619.53,286.39 620.14,286.85 620.75,287.00 621.38,286.83 621.99,286.39 622.60,285.63 623.21,284.58 623.85,283.21 624.46,281.58 625.07,279.65        625.68,277.45 626.31,274.94 626.92,272.18 627.53,269.15 628.14,265.88 628.78,262.34 629.39,258.55 630.00,254.55 630.61,250.33 631.24,245.91        631.86,241.27 632.47,236.43 633.08,231.43 633.71,226.28 634.32,220.98 634.93,215.51 635.54,209.94 636.18,204.28 636.79,198.49 637.40,192.63        638.01,186.72 638.64,180.74 639.25,174.74 639.86,168.71 640.50,162.68 641.11,156.65 641.72,150.64 642.33,144.68 642.96,138.77 643.57,132.91        644.18,127.15 644.80,121.51 645.43,115.95 646.04,110.53 646.65,105.25 647.26,100.13 647.90,95.14 648.51,90.36 649.12,85.77 649.73,81.35        650.36,77.18 650.97,73.22 651.58,69.48 652.19,65.99 652.83,62.75 653.44,59.77 654.05,57.06 654.66,54.62 655.29,52.47 655.90,50.59        656.51,49.00 657.12,47.71 657.76,46.71 658.37,46.00 658.98,45.61 659.59,45.51 660.23,45.70 660.84,46.22 661.45,47.02 662.06,48.12        662.69,49.54 663.30,51.22 663.91,53.20 664.52,55.45 665.16,57.99 665.77,60.79 666.38,63.87 666.99,67.19 667.62,70.78 668.23,74.59        668.84,78.64 669.45,82.89 670.09,87.36 670.70,92.04 671.31,96.88 671.92,101.91 672.55,107.11 673.17,112.43 673.78,117.90 674.41,123.49        675.02,129.18 675.63,134.99 676.24,140.85 676.88,146.78 677.49,152.76 678.10,158.77 678.71,164.80 679.34,170.83 679.95,176.86 680.56,182.87        681.17,188.82 681.81,194.71 682.42,200.54 683.03,206.28 683.64,211.94 684.27,217.46 684.88,222.86 685.49,228.13 686.10,233.23 686.74,238.17        687.35,242.93 687.96,247.49 688.57,251.86 689.21,255.99 689.82,259.92 690.43,263.61 691.04,267.07 691.67,270.25 692.28,273.20 692.89,275.86        693.50,278.26 694.14,280.38 694.75,282.19 695.36,283.72 695.97,284.97 "
         id="polyline14" />
      <polyline
         style="fill:none;stroke:#000000;stroke-width:1;stroke-opacity:1"
         points="80.01,166.24 80.62,166.24 81.23,166.24 81.86,166.24 82.47,166.24 83.08,166.24 83.69,166.24 84.33,166.24 84.94,166.24 85.55,166.24        86.16,166.24 86.79,166.24 87.41,166.24 88.02,166.24 88.65,166.24 89.26,166.24 89.87,166.24 90.48,166.24 91.12,166.24 91.73,166.24        92.34,166.24 92.95,166.24 93.58,166.24 94.19,166.24 94.80,166.24 95.41,166.24 96.05,166.24 96.66,166.24 97.27,166.24 97.88,166.24        98.51,166.24 99.12,166.24 99.73,166.24 100.34,166.24 100.98,166.24 101.59,166.24 102.20,166.24 102.81,166.24 103.45,166.24 104.06,166.24        104.67,166.24 105.28,166.24 105.91,166.24 106.52,166.24 107.13,166.24 107.74,166.24 108.38,166.24 108.99,166.24 109.60,166.24 110.21,166.24        110.84,166.24 111.45,166.24 112.06,166.24 112.67,166.24 113.31,166.24 113.92,166.24 114.53,166.24 115.14,166.24 115.78,166.24 116.39,166.24        117.00,166.24 117.61,166.24 118.24,166.24 118.85,166.24 119.46,166.24 120.07,166.24 120.71,166.24 121.32,166.24 121.93,166.24 122.56,166.24        123.17,166.24 123.78,166.24 124.39,166.24 125.03,166.24 125.64,166.24 126.25,166.24 126.86,166.24 127.49,166.24 128.10,166.24 128.71,166.24        129.33,166.24 129.96,166.24 130.57,166.24 131.18,166.24 131.79,166.24 132.43,166.24 133.04,166.24 133.65,166.24 134.26,166.24 134.89,166.24        135.50,166.24 136.11,166.24 136.72,166.24 137.36,166.24 137.97,166.24 138.58,166.24 139.19,166.24 139.82,166.24 140.43,166.24 141.04,166.24        141.65,166.24 142.29,166.24 142.90,166.24 143.51,166.24 144.12,166.24 144.76,166.24 145.37,166.24 145.98,166.24 146.59,166.24 147.22,166.24        147.83,166.24 148.44,166.24 149.05,166.24 149.69,166.24 150.30,166.24 150.91,166.24 151.52,166.24 152.15,166.24 152.76,166.24 153.37,166.24        154.01,166.24 154.62,166.24 155.23,166.24 155.84,166.24 156.47,166.24 157.08,166.24 157.70,166.24 158.31,166.24 158.94,166.24 159.55,166.24        160.16,166.24 160.77,166.24 161.41,166.24 162.02,166.24 162.63,166.24 163.24,166.24 163.87,166.24 164.48,166.24 165.09,166.24 165.70,166.24        166.34,166.24 166.95,166.24 167.56,166.24 168.17,166.24 168.80,166.24 169.41,166.24 170.02,166.24 170.64,166.24 171.27,166.24 171.88,166.24        172.49,166.24 173.10,166.24 173.74,166.24 174.35,166.24 174.96,166.24 175.57,166.24 176.20,166.24 176.81,166.24 177.42,166.24 178.03,166.24        178.67,166.24 179.28,166.24 179.89,166.24 180.50,166.24 181.13,166.24 181.74,166.24 182.35,166.24 182.96,166.24 183.60,166.24 184.21,166.24        184.82,166.24 185.43,166.24 186.07,166.24 186.68,166.24 187.29,166.24 187.92,166.24 188.53,166.24 189.14,166.24 189.75,166.24 190.39,166.24        191.00,166.24 191.61,166.24 192.22,166.24 192.85,166.24 193.46,166.24 194.07,166.24 194.68,166.24 195.32,166.24 195.93,166.24 196.54,166.24        197.15,166.24 197.78,166.24 198.39,166.24 199.01,166.24 199.62,166.24 200.25,166.24 200.86,166.24 201.47,166.24 202.08,166.24 202.72,166.24        203.33,166.24 203.94,166.24 204.55,166.24 205.18,166.24 205.79,166.24 206.40,166.24 207.01,166.24 207.65,166.24 208.26,166.24 208.87,166.24        209.48,166.24 210.11,166.24 210.72,166.24 211.33,166.24 211.94,166.24 212.58,166.24 213.19,166.24 213.80,166.24 214.41,166.24 215.05,166.24        215.66,166.24 216.27,166.24 216.88,166.24 217.51,166.24 218.12,166.24 218.73,166.24 219.37,166.24 219.98,166.24 220.59,166.24 221.20,166.24        221.83,166.24 222.44,166.24 223.05,166.24 223.66,166.24 224.30,166.24 224.91,166.24 225.52,166.24 226.13,166.24 226.76,166.24 227.38,166.24        227.99,166.24 228.60,166.24 229.23,166.24 229.84,166.24 230.45,166.24 231.06,166.24 231.70,166.24 232.31,166.24 232.92,166.24 233.53,166.24        234.16,166.24 234.77,166.24 235.38,166.24 235.99,166.24 236.63,166.24 237.24,166.24 "
         id="polyline16" />
      <polyline
         style="fill:none;stroke:#000000;stroke-width:1;stroke-opacity:1"
         points="237.24,166.24 237.85,166.24 238.46,166.24 239.09,166.24 239.70,166.24 240.31,166.24 240.93,166.24 241.56,166.24 242.17,166.24 242.78,166.24        243.39,166.24 244.03,166.24 244.64,166.24 245.25,166.24 245.86,166.24 246.49,166.24 247.10,166.24 247.71,166.24 248.32,166.24 248.96,166.24        249.57,166.24 250.18,166.24 250.81,166.24 251.42,166.24 252.03,166.24 252.64,166.24 253.28,166.24 253.89,166.24 254.50,166.24 255.11,166.24        255.75,166.24 256.36,166.24 256.97,166.24 257.58,166.24 258.21,166.24 258.82,166.24 259.43,166.24 260.04,166.24 260.68,166.24 261.29,166.24        261.90,166.24 262.51,166.24 263.14,166.24 263.75,166.24 264.36,166.24 264.97,166.24 265.61,166.24 266.22,166.24 266.83,166.24 267.44,166.24        268.07,166.24 268.68,166.24 269.30,166.24 269.91,166.24 270.54,166.24 271.15,166.24 271.76,166.24 272.37,166.24 273.01,166.24 273.62,166.24        274.23,166.24 274.84,166.24 275.47,166.24 276.08,166.24 276.69,166.24 277.30,166.24 277.94,166.24 278.55,166.24 279.16,166.24 279.77,166.24        280.40,166.24 281.01,166.24 281.62,166.24 282.24,166.24 282.87,166.24 283.48,166.24 284.09,166.24 284.73,166.24 285.34,166.24 285.95,166.24        286.56,166.24 287.19,166.24 287.80,166.24 288.41,166.24 289.02,166.24 289.66,166.24 290.27,166.24 290.88,166.24 291.49,166.24 292.12,166.24        292.73,166.24 293.34,166.24 293.95,166.24 294.59,166.24 295.20,166.24 295.81,166.24 296.42,166.24 297.05,166.24 297.67,166.24 298.28,166.24        298.89,166.24 299.52,166.24 300.13,166.24 300.74,166.24 301.35,166.24 301.99,166.24 302.60,166.24 303.21,166.24 303.82,166.24 304.45,166.24        305.06,166.24 305.67,166.24 306.28,166.24 306.92,166.24 307.53,166.24 308.14,166.24 308.75,166.24 309.38,166.24 309.99,166.24 310.61,166.24        311.22,166.24 311.85,166.24 312.46,166.24 313.07,166.24 313.68,166.24 314.32,166.24 314.93,166.24 315.54,166.24 316.17,166.24 316.78,166.24        317.39,166.24 318.00,166.24 318.64,166.24 319.25,166.24 319.86,166.24 320.47,166.24 321.10,166.24 321.71,166.24 322.32,166.24 322.93,166.24        323.57,166.24 324.18,166.24 324.79,166.24 325.40,166.24 326.04,166.24 326.65,166.24 327.26,166.24 327.87,166.24 328.50,166.24 329.11,166.24        329.72,166.24 330.33,166.24 330.97,166.24 331.58,166.24 332.19,166.24 332.80,166.24 333.43,166.24 334.04,166.24 334.65,166.24 335.26,166.24        335.90,166.24 336.51,166.24 337.12,166.24 337.73,166.24 338.36,166.24 338.98,166.24 339.59,166.24 340.20,166.24 340.83,166.24 341.44,166.24        342.05,166.24 342.66,166.24 343.30,166.24 343.91,166.24 344.52,166.24 345.13,166.24 345.76,166.24 346.37,166.24 346.98,166.24 347.59,166.24        348.23,166.24 348.84,166.24 349.45,166.24 350.08,166.24 350.69,166.24 351.30,166.24 351.92,166.24 352.55,166.24 353.16,166.24 353.77,166.24        354.38,166.24 355.02,166.24 355.63,166.24 356.24,166.24 356.85,166.24 357.48,166.24 358.09,166.24 358.70,166.24 359.31,166.24 359.95,166.24        360.56,166.24 361.17,166.24 361.78,166.24 362.41,166.24 363.02,166.24 363.63,166.24 364.24,166.24 364.88,166.24 365.49,166.24 366.10,166.24        366.71,166.24 367.35,166.24 367.96,166.24 368.57,166.24 369.18,166.24 369.81,166.24 370.42,166.24 371.03,166.24 371.64,166.24 372.28,166.24        372.89,166.24 373.50,166.24 374.11,166.24 374.74,166.24 375.35,166.24 375.96,166.24 376.57,166.24 377.21,166.24 377.82,166.24 378.43,166.24        379.04,166.24 379.67,166.24 380.29,166.24 380.90,166.24 381.53,166.24 382.14,166.24 382.75,166.24 383.36,166.24 384.00,166.24 384.61,166.24        385.22,166.24 385.83,166.24 386.46,166.24 387.07,166.24 387.68,166.24 388.29,166.24 388.93,166.24 389.54,166.24 390.15,166.24 390.76,166.24        391.39,166.24 392.00,166.24 392.61,166.24 393.22,166.24 393.86,166.24 394.47,166.24 "
         id="polyline18" />
      <polyline
         style="fill:none;stroke:#000000;stroke-width:1;stroke-opacity:1"
         points="394.47,166.24 395.08,166.24 395.69,166.24 396.33,166.24 396.94,166.24 397.55,166.24 398.16,166.24 398.79,166.24 399.40,166.24 400.01,166.24        400.62,166.24 401.26,166.24 401.87,166.24 402.48,166.24 403.09,166.24 403.72,166.24 404.33,166.24 404.94,166.24 405.55,166.24 406.19,166.24        406.80,166.24 407.41,166.24 408.02,166.24 408.66,166.24 409.27,166.24 409.88,166.24 410.49,166.24 411.12,166.24 411.73,166.24 412.34,166.24        412.95,166.24 413.59,166.24 414.20,166.24 414.81,166.24 415.44,166.24 416.05,166.24 416.66,166.24 417.27,166.24 417.91,166.24 418.52,166.24        419.13,166.24 419.74,166.24 420.37,166.24 420.98,166.24 421.59,166.24 422.21,166.24 422.84,166.24 423.45,166.24 424.06,166.24 424.67,166.24        425.31,166.24 425.92,166.24 426.53,166.24 427.14,166.24 427.77,166.24 428.38,166.24 428.99,166.24 429.60,166.24 430.24,166.24 430.85,166.24        431.46,166.24 432.07,166.24 432.70,166.24 433.31,166.24 433.92,166.24 434.53,166.24 435.17,166.24 435.78,166.24 436.39,166.24 437.00,166.24        437.64,166.24 438.25,166.24 438.86,166.24 439.47,166.24 440.10,166.24 440.71,166.24 441.32,166.24 441.93,166.24 442.57,166.24 443.18,166.24        443.79,166.24 444.40,166.24 445.03,166.24 445.64,166.24 446.25,166.24 446.89,166.24 447.50,166.24 448.11,166.24 448.72,166.24 449.35,166.24        449.96,166.24 450.58,166.24 451.19,166.24 451.82,166.24 452.43,166.24 453.04,166.24 453.65,166.24 454.29,166.24 454.90,166.24 455.51,166.24        456.12,166.24 456.75,166.24 457.36,166.24 457.97,166.24 458.58,166.24 459.22,166.24 459.83,166.24 460.44,166.24 461.05,166.24 461.68,166.24        462.29,166.24 462.90,166.24 463.52,166.24 464.15,166.24 464.76,166.24 465.37,166.24 465.98,166.24 466.62,166.24 467.23,166.24 467.84,166.24        468.45,166.24 469.08,166.24 469.69,166.24 470.30,166.24 470.91,166.24 471.55,166.24 472.16,166.24 472.77,166.24 473.38,166.24 474.01,166.24        474.62,166.24 475.23,166.24 475.84,166.24 476.48,166.24 477.09,166.24 477.70,166.24 478.33,166.24 478.95,166.24 479.56,166.24 480.17,166.24        480.80,166.24 481.41,166.24 482.02,166.24 482.63,166.24 483.27,166.24 483.88,166.24 484.49,166.24 485.10,166.24 485.73,166.24 486.34,166.24        486.95,166.24 487.56,166.24 488.20,166.24 488.81,166.24 489.42,166.24 490.03,166.24 490.66,166.24 491.27,166.24 491.89,166.24 492.50,166.24        493.13,166.24 493.74,166.24 494.35,166.24 494.96,166.24 495.60,166.24 496.21,166.24 496.82,166.24 497.43,166.24 498.06,166.24 498.67,166.24        499.28,166.24 499.89,166.24 500.53,166.24 501.14,166.24 501.75,166.24 502.36,166.24 502.99,166.24 503.60,166.24 504.21,166.24 504.82,166.24        505.46,166.24 506.07,166.24 506.68,166.24 507.29,166.24 507.93,166.24 508.54,166.24 509.15,166.24 509.76,166.24 510.39,166.24 511.00,166.24        511.61,166.24 512.25,166.24 512.86,166.24 513.47,166.24 514.08,166.24 514.71,166.24 515.32,166.24 515.93,166.24 516.54,166.24 517.18,166.24        517.79,166.24 518.40,166.24 519.01,166.24 519.64,166.24 520.26,166.24 520.87,166.24 521.48,166.24 522.11,166.24 522.72,166.24 523.33,166.24        523.94,166.24 524.58,166.24 525.19,166.24 525.80,166.24 526.41,166.24 527.04,166.24 527.65,166.24 528.26,166.24 528.87,166.24 529.51,166.24        530.12,166.24 530.73,166.24 531.34,166.24 531.97,166.24 532.58,166.24 533.19,166.24 533.81,166.24 534.44,166.24 535.05,166.24 535.66,166.24        536.27,166.24 536.91,166.24 537.52,166.24 538.13,166.24 538.74,166.24 539.37,166.24 539.98,166.24 540.59,166.24 541.20,166.24 541.84,166.24        542.45,166.24 543.06,166.24 543.69,166.24 544.30,166.24 544.91,166.24 545.52,166.24 546.16,166.24 546.77,166.24 547.38,166.24 547.99,166.24        548.63,166.24 549.24,166.24 549.85,166.24 550.46,166.24 551.09,166.24 551.70,166.24 "
         id="polyline20" />
      <polyline
         style="fill:none;stroke:#000000;stroke-width:1;stroke-opacity:1"
         points="551.70,166.24 552.31,166.24 552.92,166.24 553.56,166.24 554.17,166.24 554.78,166.24 555.39,166.24 556.02,166.24 556.63,166.24 557.24,166.24        557.85,166.24 558.49,166.24 559.10,166.24 559.71,166.24 560.32,166.24 560.95,166.24 561.56,166.24 562.18,166.24 562.79,166.24 563.42,166.24        564.03,166.24 564.64,166.24 565.25,166.24 565.89,166.24 566.50,166.24 567.11,166.24 567.72,166.24 568.35,166.24 568.96,166.24 569.57,166.24        570.18,166.24 570.82,166.24 571.43,166.24 572.04,166.24 572.65,166.24 573.28,166.24 573.89,166.24 574.50,166.24 575.12,166.24 575.75,166.24        576.36,166.24 576.97,166.24 577.61,166.24 578.22,166.24 578.83,166.24 579.44,166.24 580.07,166.24 580.68,166.24 581.29,166.24 581.90,166.24        582.54,166.24 583.15,166.24 583.76,166.24 584.37,166.24 585.00,166.24 585.61,166.24 586.22,166.24 586.83,166.24 587.47,166.24 588.08,166.24        588.69,166.24 589.30,166.24 589.93,166.24 590.55,166.24 591.16,166.24 591.77,166.24 592.40,166.24 593.01,166.24 593.62,166.24 594.23,166.24        594.87,166.24 595.48,166.24 596.09,166.24 596.70,166.24 597.33,166.24 597.94,166.24 598.55,166.24 599.16,166.24 599.80,166.24 600.41,166.24        601.02,166.24 601.63,166.24 602.26,166.24 602.87,166.24 603.49,166.24 604.10,166.24 604.73,166.24 605.34,166.24 605.95,166.24 606.56,166.24        607.20,166.24 607.81,166.24 608.42,166.24 609.05,166.24 609.66,166.24 610.27,166.24 610.88,166.24 611.52,166.24 612.13,166.24 612.74,166.24        613.35,166.24 613.98,166.24 614.59,166.24 615.20,166.24 615.81,166.24 616.45,166.24 617.06,166.24 617.67,166.24 618.28,166.24 618.92,166.24        619.53,166.24 620.14,166.24 620.75,166.24 621.38,166.24 621.99,166.24 622.60,166.24 623.21,166.24 623.85,166.24 624.46,166.24 625.07,166.24        625.68,166.24 626.31,166.24 626.92,166.24 627.53,166.24 628.14,166.24 628.78,166.24 629.39,166.24 630.00,166.24 630.61,166.24 631.24,166.24        631.86,166.24 632.47,166.24 633.08,166.24 633.71,166.24 634.32,166.24 634.93,166.24 635.54,166.24 636.18,166.24 636.79,166.24 637.40,166.24        638.01,166.24 638.64,166.24 639.25,166.24 639.86,166.24 640.50,166.24 641.11,166.24 641.72,166.24 642.33,166.24 642.96,166.24 643.57,166.24        644.18,166.24 644.80,166.24 645.43,166.24 646.04,166.24 646.65,166.24 647.26,166.24 647.90,166.24 648.51,166.24 649.12,166.24 649.73,166.24        650.36,166.24 650.97,166.24 651.58,166.24 652.19,166.24 652.83,166.24 653.44,166.24 654.05,166.24 654.66,166.24 655.29,166.24 655.90,166.24        656.51,166.24 657.12,166.24 657.76,166.24 658.37,166.24 658.98,166.24 659.59,166.24 660.23,166.24 660.84,166.24 661.45,166.24 662.06,166.24        662.69,166.24 663.30,166.24 663.91,166.24 664.52,166.24 665.16,166.24 665.77,166.24 666.38,166.24 666.99,166.24 667.62,166.24 668.23,166.24        668.84,166.24 669.45,166.24 670.09,166.24 670.70,166.24 671.31,166.24 671.92,166.24 672.55,166.24 673.17,166.24 673.78,166.24 674.41,166.24        675.02,166.24 675.63,166.24 676.24,166.24 676.88,166.24 677.49,166.24 678.10,166.24 678.71,166.24 679.34,166.24 679.95,166.24 680.56,166.24        681.17,166.24 681.81,166.24 682.42,166.24 683.03,166.24 683.64,166.24 684.27,166.24 684.88,166.24 685.49,166.24 686.10,166.24 686.74,166.24        687.35,166.24 687.96,166.24 688.57,166.24 689.21,166.24 689.82,166.24 690.43,166.24 691.04,166.24 691.67,166.24 692.28,166.24 692.89,166.24        693.50,166.24 694.14,166.24 694.75,166.24 695.36,166.24 695.97,166.24 "
         id="polyline22" />
      <polyline
         style="fill:none;stroke:#f03232;stroke-width:3;stroke-opacity:1"
         points="80.01,165.61 80.62,165.36 81.23,165.12 81.86,164.90 82.47,164.65 83.08,164.43 83.69,164.19 84.33,163.97 84.94,163.75 85.55,163.53        86.16,163.34 86.79,163.14 87.41,162.94 88.02,162.75 88.65,162.58 89.26,162.41 89.87,162.24 90.48,162.09 91.12,161.94 91.73,161.82        92.34,161.70 92.95,161.58 93.58,161.48 94.19,161.38 94.80,161.31 95.41,161.26 96.05,161.21 96.66,161.16 97.27,161.14 97.88,161.11        98.51,161.11 99.12,161.14 99.73,161.16 100.34,161.19 100.98,161.24 101.59,161.31 102.20,161.38 102.81,161.48 103.45,161.58 104.06,161.67        104.67,161.80 105.28,161.94 105.91,162.09 106.52,162.24 107.13,162.41 107.74,162.60 108.38,162.77 108.99,162.99 109.60,163.19 110.21,163.41        110.84,163.63 111.45,163.87 112.06,164.12 112.67,164.36 113.31,164.60 113.92,164.85 114.53,165.12 115.14,165.39 115.78,165.65 116.39,165.92        117.00,166.19 117.61,166.48 118.24,166.75 118.85,167.02 119.46,167.29 120.07,167.58 120.71,167.85 121.32,168.12 121.93,168.39 122.56,168.63        123.17,168.90 123.78,169.15 124.39,169.39 125.03,169.63 125.64,169.85 126.25,170.07 126.86,170.29 127.49,170.51 128.10,170.71 128.71,170.88        129.33,171.05 129.96,171.22 130.57,171.37 131.18,171.51 131.79,171.64 132.43,171.76 133.04,171.86 133.65,171.93 134.26,172.00 134.89,172.08        135.50,172.12 136.11,172.15 136.72,172.17 137.36,172.17 137.97,172.15 138.58,172.12 139.19,172.08 139.82,172.03 140.43,171.95 141.04,171.86        141.65,171.76 142.29,171.64 142.90,171.51 143.51,171.37 144.12,171.22 144.76,171.05 145.37,170.85 145.98,170.66 146.59,170.44 147.22,170.22        147.83,170.00 148.44,169.76 149.05,169.51 149.69,169.24 150.30,168.97 150.91,168.68 151.52,168.41 152.15,168.12 152.76,167.80 153.37,167.51        154.01,167.19 154.62,166.88 155.23,166.56 155.84,166.24 156.47,165.92 157.08,165.61 157.70,165.29 158.31,164.97 158.94,164.65 159.55,164.34        160.16,164.02 160.77,163.70 161.41,163.38 162.02,163.09 162.63,162.80 163.24,162.50 163.87,162.24 164.48,161.97 165.09,161.70 165.70,161.46        166.34,161.21 166.95,160.99 167.56,160.77 168.17,160.55 168.80,160.36 169.41,160.19 170.02,160.01 170.64,159.87 171.27,159.75 171.88,159.62        172.49,159.53 173.10,159.43 173.74,159.36 174.35,159.31 174.96,159.26 175.57,159.26 176.20,159.26 176.81,159.26 177.42,159.31 178.03,159.36        178.67,159.43 179.28,159.50 179.89,159.60 180.50,159.72 181.13,159.87 181.74,160.01 182.35,160.19 182.96,160.38 183.60,160.58 184.21,160.80        184.82,161.04 185.43,161.28 186.07,161.55 186.68,161.82 187.29,162.11 187.92,162.41 188.53,162.72 189.14,163.04 189.75,163.38 190.39,163.73        191.00,164.07 191.61,164.43 192.22,164.80 192.85,165.17 193.46,165.56 194.07,165.92 194.68,166.31 195.32,166.70 195.93,167.07 196.54,167.46        197.15,167.85 197.78,168.24 198.39,168.63 199.01,169.00 199.62,169.39 200.25,169.76 200.86,170.12 201.47,170.46 202.08,170.81 202.72,171.15        203.33,171.49 203.94,171.81 204.55,172.10 205.18,172.39 205.79,172.69 206.40,172.95 207.01,173.20 207.65,173.42 208.26,173.64 208.87,173.86        209.48,174.03 210.11,174.20 210.72,174.35 211.33,174.47 211.94,174.59 212.58,174.66 213.19,174.74 213.80,174.79 214.41,174.81 215.05,174.81        215.66,174.79 216.27,174.76 216.88,174.69 217.51,174.61 218.12,174.49 218.73,174.37 219.37,174.22 219.98,174.05 220.59,173.88 221.20,173.66        221.83,173.44 222.44,173.20 223.05,172.93 223.66,172.64 224.30,172.32 224.91,172.00 225.52,171.66 226.13,171.32 226.76,170.93 227.38,170.56        227.99,170.15 228.60,169.73 229.23,169.32 229.84,168.88 230.45,168.44 231.06,167.97 231.70,167.51 232.31,167.05 232.92,166.56 233.53,166.09        234.16,165.61 234.77,165.12 235.38,164.63 235.99,164.14 236.63,163.65 237.24,163.19 "
         id="polyline24" />
      <polyline
         style="fill:none;stroke:#f03232;stroke-width:3;stroke-opacity:1"
         points="237.24,163.19 237.85,162.70 238.46,162.24 239.09,161.77 239.70,161.31 240.31,160.84 240.93,160.41 241.56,159.97 242.17,159.55 242.78,159.16        243.39,158.77 244.03,158.38 244.64,158.01 245.25,157.67 245.86,157.35 246.49,157.06 247.10,156.77 247.71,156.50 248.32,156.28 248.96,156.06        249.57,155.86 250.18,155.69 250.81,155.55 251.42,155.42 252.03,155.33 252.64,155.28 253.28,155.23 253.89,155.23 254.50,155.23 255.11,155.28        255.75,155.35 256.36,155.45 256.97,155.57 257.58,155.74 258.21,155.91 258.82,156.13 259.43,156.38 260.04,156.65 260.68,156.94 261.29,157.26        261.90,157.60 262.51,157.96 263.14,158.35 263.75,158.77 264.36,159.21 264.97,159.67 265.61,160.16 266.22,160.67 266.83,161.19 267.44,161.72        268.07,162.29 268.68,162.87 269.30,163.46 269.91,164.04 270.54,164.68 271.15,165.29 271.76,165.92 272.37,166.56 273.01,167.22 273.62,167.85        274.23,168.51 274.84,169.17 275.47,169.83 276.08,170.49 276.69,171.12 277.30,171.78 277.94,172.42 278.55,173.05 279.16,173.66 279.77,174.27        280.40,174.86 281.01,175.44 281.62,176.01 282.24,176.57 282.87,177.08 283.48,177.59 284.09,178.08 284.73,178.52 285.34,178.96 285.95,179.38        286.56,179.74 287.19,180.11 287.80,180.43 288.41,180.69 289.02,180.96 289.66,181.18 290.27,181.35 290.88,181.52 291.49,181.62 292.12,181.69        292.73,181.74 293.34,181.74 293.95,181.69 294.59,181.62 295.20,181.50 295.81,181.35 296.42,181.16 297.05,180.91 297.67,180.62 298.28,180.30        298.89,179.96 299.52,179.55 300.13,179.13 300.74,178.64 301.35,178.13 301.99,177.57 302.60,176.98 303.21,176.37 303.82,175.71 304.45,175.03        305.06,174.30 305.67,173.54 306.28,172.76 306.92,171.95 307.53,171.10 308.14,170.24 308.75,169.37 309.38,168.44 309.99,167.51 310.61,166.56        311.22,165.61 311.85,164.63 312.46,163.65 313.07,162.65 313.68,161.63 314.32,160.63 314.93,159.60 315.54,158.60 316.17,157.57 316.78,156.57        317.39,155.57 318.00,154.57 318.64,153.59 319.25,152.64 319.86,151.69 320.47,150.76 321.10,149.86 321.71,148.98 322.32,148.12 322.93,147.29        323.57,146.49 324.18,145.73 324.79,145.00 325.40,144.34 326.04,143.68 326.65,143.10 327.26,142.53 327.87,142.05 328.50,141.58 329.11,141.19        329.72,140.85 330.33,140.56 330.97,140.34 331.58,140.17 332.19,140.07 332.80,140.02 333.43,140.04 334.04,140.14 334.65,140.29 335.26,140.53        335.90,140.82 336.51,141.19 337.12,141.63 337.73,142.14 338.36,142.73 338.98,143.41 339.59,144.15 340.20,144.95 340.83,145.85 341.44,146.81        342.05,147.86 342.66,148.95 343.30,150.15 343.91,151.40 344.52,152.74 345.13,154.16 345.76,155.62 346.37,157.18 346.98,158.79 347.59,160.48        348.23,162.24 348.84,164.04 349.45,165.92 350.08,167.88 350.69,169.88 351.30,171.93 351.92,174.05 352.55,176.20 353.16,178.42 353.77,180.69        354.38,183.01 355.02,185.36 355.63,187.75 356.24,190.19 356.85,192.66 357.48,195.15 358.09,197.69 358.70,200.23 359.31,202.81 359.95,205.40        360.56,207.99 361.17,210.63 361.78,213.24 362.41,215.88 363.02,218.51 363.63,221.15 364.24,223.76 364.88,226.37 365.49,228.99 366.10,231.57        366.71,234.14 367.35,236.68 367.96,239.19 368.57,241.68 369.18,244.12 369.81,246.54 370.42,248.91 371.03,251.23 371.64,253.52 372.28,255.75        372.89,257.92 373.50,260.02 374.11,262.09 374.74,264.07 375.35,266.00 375.96,267.85 376.57,269.64 377.21,271.35 377.82,272.96 378.43,274.52        379.04,275.98 379.67,277.38 380.29,278.67 380.90,279.87 381.53,280.99 382.14,282.02 382.75,282.97 383.36,283.80 384.00,284.53 384.61,285.19        385.22,285.73 385.83,286.19 386.46,286.53 387.07,286.80 387.68,286.95 "
         id="polyline26" />
      <polyline
         style="fill:none;stroke:#f03232;stroke-width:3;stroke-opacity:1"
         points="388.93,286.95 389.54,286.80 390.15,286.53 390.76,286.19 391.39,285.73 392.00,285.19 392.61,284.53 393.22,283.80 393.86,282.97 394.47,282.02        "
         id="polyline28" />
      <polyline
         style="fill:none;stroke:#f03232;stroke-width:3;stroke-opacity:1"
         points="394.47,282.02 395.08,280.99 395.69,279.87 396.33,278.67 396.94,277.38 397.55,275.98 398.16,274.52 398.79,272.96 399.40,271.35 400.01,269.64        400.62,267.85 401.26,266.00 401.87,264.07 402.48,262.09 403.09,260.02 403.72,257.92 404.33,255.75 404.94,253.52 405.55,251.23 406.19,248.91        406.80,246.54 407.41,244.12 408.02,241.68 408.66,239.19 409.27,236.68 409.88,234.14 410.49,231.57 411.12,228.99 411.73,226.37 412.34,223.76        412.95,221.15 413.59,218.51 414.20,215.88 414.81,213.24 415.44,210.63 416.05,207.99 416.66,205.40 417.27,202.81 417.91,200.23 418.52,197.69        419.13,195.15 419.74,192.66 420.37,190.19 420.98,187.75 421.59,185.36 422.21,183.01 422.84,180.69 423.45,178.42 424.06,176.20 424.67,174.05        425.31,171.93 425.92,169.88 426.53,167.88 427.14,165.92 427.77,164.04 428.38,162.24 428.99,160.48 429.60,158.79 430.24,157.18 430.85,155.62        431.46,154.16 432.07,152.74 432.70,151.40 433.31,150.15 433.92,148.95 434.53,147.86 435.17,146.81 435.78,145.85 436.39,144.95 437.00,144.15        437.64,143.41 438.25,142.73 438.86,142.14 439.47,141.63 440.10,141.19 440.71,140.82 441.32,140.53 441.93,140.29 442.57,140.14 443.18,140.04        443.79,140.02 444.40,140.07 445.03,140.17 445.64,140.34 446.25,140.56 446.89,140.85 447.50,141.19 448.11,141.58 448.72,142.05 449.35,142.53        449.96,143.10 450.58,143.68 451.19,144.34 451.82,145.00 452.43,145.73 453.04,146.49 453.65,147.29 454.29,148.12 454.90,148.98 455.51,149.86        456.12,150.76 456.75,151.69 457.36,152.64 457.97,153.59 458.58,154.57 459.22,155.57 459.83,156.57 460.44,157.57 461.05,158.60 461.68,159.60        462.29,160.63 462.90,161.63 463.52,162.65 464.15,163.65 464.76,164.63 465.37,165.61 465.98,166.56 466.62,167.51 467.23,168.44 467.84,169.37        468.45,170.24 469.08,171.10 469.69,171.95 470.30,172.76 470.91,173.54 471.55,174.30 472.16,175.03 472.77,175.71 473.38,176.37 474.01,176.98        474.62,177.57 475.23,178.13 475.84,178.64 476.48,179.13 477.09,179.55 477.70,179.96 478.33,180.30 478.95,180.62 479.56,180.91 480.17,181.16        480.80,181.35 481.41,181.50 482.02,181.62 482.63,181.69 483.27,181.74 483.88,181.74 484.49,181.69 485.10,181.62 485.73,181.52 486.34,181.35        486.95,181.18 487.56,180.96 488.20,180.69 488.81,180.43 489.42,180.11 490.03,179.74 490.66,179.38 491.27,178.96 491.89,178.52 492.50,178.08        493.13,177.59 493.74,177.08 494.35,176.57 494.96,176.01 495.60,175.44 496.21,174.86 496.82,174.27 497.43,173.66 498.06,173.05 498.67,172.42        499.28,171.78 499.89,171.12 500.53,170.49 501.14,169.83 501.75,169.17 502.36,168.51 502.99,167.85 503.60,167.22 504.21,166.56 504.82,165.92        505.46,165.29 506.07,164.68 506.68,164.04 507.29,163.46 507.93,162.87 508.54,162.29 509.15,161.72 509.76,161.19 510.39,160.67 511.00,160.16        511.61,159.67 512.25,159.21 512.86,158.77 513.47,158.35 514.08,157.96 514.71,157.60 515.32,157.26 515.93,156.94 516.54,156.65 517.18,156.38        517.79,156.13 518.40,155.91 519.01,155.74 519.64,155.57 520.26,155.45 520.87,155.35 521.48,155.28 522.11,155.23 522.72,155.23 523.33,155.23        523.94,155.28 524.58,155.33 525.19,155.42 525.80,155.55 526.41,155.69 527.04,155.86 527.65,156.06 528.26,156.28 528.87,156.50 529.51,156.77        530.12,157.06 530.73,157.35 531.34,157.67 531.97,158.01 532.58,158.38 533.19,158.77 533.81,159.16 534.44,159.55 535.05,159.97 535.66,160.41        536.27,160.84 536.91,161.31 537.52,161.77 538.13,162.24 538.74,162.70 539.37,163.19 539.98,163.65 540.59,164.14 541.20,164.63 541.84,165.12        542.45,165.61 543.06,166.09 543.69,166.56 544.30,167.05 544.91,167.51 545.52,167.97 546.16,168.44 546.77,168.88 547.38,169.32 547.99,169.73        548.63,170.15 549.24,170.56 549.85,170.93 550.46,171.32 551.09,171.66 551.70,172.00 "
         id="polyline30" />
      <polyline
         style="fill:none;stroke:#f03232;stroke-width:3;stroke-opacity:1"
         points="551.70,172.00 552.31,172.32 552.92,172.64 553.56,172.93 554.17,173.20 554.78,173.44 555.39,173.66 556.02,173.88 556.63,174.05 557.24,174.22        557.85,174.37 558.49,174.49 559.10,174.61 559.71,174.69 560.32,174.76 560.95,174.79 561.56,174.81 562.18,174.81 562.79,174.79 563.42,174.74        564.03,174.66 564.64,174.59 565.25,174.47 565.89,174.35 566.50,174.20 567.11,174.03 567.72,173.86 568.35,173.64 568.96,173.42 569.57,173.20        570.18,172.95 570.82,172.69 571.43,172.39 572.04,172.10 572.65,171.81 573.28,171.49 573.89,171.15 574.50,170.81 575.12,170.46 575.75,170.12        576.36,169.76 576.97,169.39 577.61,169.00 578.22,168.63 578.83,168.24 579.44,167.85 580.07,167.46 580.68,167.07 581.29,166.70 581.90,166.31        582.54,165.92 583.15,165.56 583.76,165.17 584.37,164.80 585.00,164.43 585.61,164.07 586.22,163.73 586.83,163.38 587.47,163.04 588.08,162.72        588.69,162.41 589.30,162.11 589.93,161.82 590.55,161.55 591.16,161.28 591.77,161.04 592.40,160.80 593.01,160.58 593.62,160.38 594.23,160.19        594.87,160.01 595.48,159.87 596.09,159.72 596.70,159.60 597.33,159.50 597.94,159.43 598.55,159.36 599.16,159.31 599.80,159.26 600.41,159.26        601.02,159.26 601.63,159.26 602.26,159.31 602.87,159.36 603.49,159.43 604.10,159.53 604.73,159.62 605.34,159.75 605.95,159.87 606.56,160.01        607.20,160.19 607.81,160.36 608.42,160.55 609.05,160.77 609.66,160.99 610.27,161.21 610.88,161.46 611.52,161.70 612.13,161.97 612.74,162.24        613.35,162.50 613.98,162.80 614.59,163.09 615.20,163.38 615.81,163.70 616.45,164.02 617.06,164.34 617.67,164.65 618.28,164.97 618.92,165.29        619.53,165.61 620.14,165.92 620.75,166.24 621.38,166.56 621.99,166.88 622.60,167.19 623.21,167.51 623.85,167.80 624.46,168.12 625.07,168.41        625.68,168.68 626.31,168.97 626.92,169.24 627.53,169.51 628.14,169.76 628.78,170.00 629.39,170.22 630.00,170.44 630.61,170.66 631.24,170.85        631.86,171.05 632.47,171.22 633.08,171.37 633.71,171.51 634.32,171.64 634.93,171.76 635.54,171.86 636.18,171.95 636.79,172.03 637.40,172.08        638.01,172.12 638.64,172.15 639.25,172.17 639.86,172.17 640.50,172.15 641.11,172.12 641.72,172.08 642.33,172.00 642.96,171.93 643.57,171.86        644.18,171.76 644.80,171.64 645.43,171.51 646.04,171.37 646.65,171.22 647.26,171.05 647.90,170.88 648.51,170.71 649.12,170.51 649.73,170.29        650.36,170.07 650.97,169.85 651.58,169.63 652.19,169.39 652.83,169.15 653.44,168.90 654.05,168.63 654.66,168.39 655.29,168.12 655.90,167.85        656.51,167.58 657.12,167.29 657.76,167.02 658.37,166.75 658.98,166.48 659.59,166.19 660.23,165.92 660.84,165.65 661.45,165.39 662.06,165.12        662.69,164.85 663.30,164.60 663.91,164.36 664.52,164.12 665.16,163.87 665.77,163.63 666.38,163.41 666.99,163.19 667.62,162.99 668.23,162.77        668.84,162.60 669.45,162.41 670.09,162.24 670.70,162.09 671.31,161.94 671.92,161.80 672.55,161.67 673.17,161.58 673.78,161.48 674.41,161.38        675.02,161.31 675.63,161.24 676.24,161.19 676.88,161.16 677.49,161.14 678.10,161.11 678.71,161.11 679.34,161.14 679.95,161.16 680.56,161.21        681.17,161.26 681.81,161.31 682.42,161.38 683.03,161.48 683.64,161.58 684.27,161.70 684.88,161.82 685.49,161.94 686.10,162.09 686.74,162.24        687.35,162.41 687.96,162.58 688.57,162.75 689.21,162.94 689.82,163.14 690.43,163.34 691.04,163.53 691.67,163.75 692.28,163.97 692.89,164.19        693.50,164.43 694.14,164.65 694.75,164.90 695.36,165.12 695.97,165.36 "
         id="polyline32" />
    </g>
    <path
       style="fill:#000000;fill-opacity:0.00423728;stroke:#ff0000;stroke-width:4.50262213;stroke-miterlimit:4;stroke-opacity:1;stroke-dasharray:none;stroke-dashoffset:0"
       d="m 153.85859,143.43283 136.40161,0 0,-75.910469 132.84332,0 0,75.910469"
       id="path3122"
       inkscape:connector-curvature="0" />
    <path
       style="fill:#000000;fill-opacity:0.00423728;stroke:#ff0000;stroke-width:4.50262213;stroke-miterlimit:4;stroke-opacity:1;stroke-dasharray:none;stroke-dashoffset:0"
       d="m 420.73132,141.06063 136.40161,0"
       id="path3124"
       inkscape:connector-curvature="0" />
    <path
       style="fill:#000000;fill-opacity:0.00423728;stroke:#000000;stroke-width:2.38914633;stroke-miterlimit:4;stroke-opacity:1;stroke-dasharray:none;stroke-dashoffset:0"
       d="m 290.85326,31.34628 0,12.45406"
       id="path3894"
       inkscape:connector-curvature="0" />
    <path
       style="fill:#000000;fill-opacity:0.00423728;stroke:#000000;stroke-width:2.38914633;stroke-miterlimit:4;stroke-opacity:1;stroke-dasharray:none;stroke-dashoffset:0"
       d="m 424.28962,31.049755 0,12.45406"
       id="path3894-5"
       inkscape:connector-curvature="0" />
    <path
       style="fill:#000000;fill-opacity:0.00423728;stroke:#000000;stroke-width:2.38914633;stroke-miterlimit:4;stroke-opacity:1;stroke-dasharray:none;stroke-dashoffset:0"
       d="m 290.85326,36.683734 133.43636,0"
       id="path3921"
       inkscape:connector-curvature="0" />
    <text
       xml:space="preserve"
       style="font-size:36.75609589px;font-style:normal;font-weight:normal;line-height:125%;letter-spacing:0px;word-spacing:0px;fill:#000000;fill-opacity:1;stroke:none;font-family:Sans"
       x="345.71915"
       y="32.31142"
       id="text3923"
       sodipodi:linespacing="125%"><tspan
         sodipodi:role="line"
         id="tspan3925"
         x="345.71915"
         y="32.31142">t</tspan></text>
    <path
       style="fill:#000000;fill-opacity:0.00423728;stroke:#000000;stroke-width:2.38914633;stroke-miterlimit:4;stroke-opacity:1;stroke-dasharray:none;stroke-dashoffset:0"
       d="m 382.2005,307.09131 0,12.45406"
       id="path3894-5-4"
       inkscape:connector-curvature="0" />
    <path
       style="fill:#000000;fill-opacity:0.00423728;stroke:#000000;stroke-width:2.38914633;stroke-miterlimit:4;stroke-opacity:1;stroke-dasharray:none;stroke-dashoffset:0"
       d="m 319.04061,307.38785 0,12.45406"
       id="path3894-5-7"
       inkscape:connector-curvature="0" />
    <path
       style="fill:#000000;fill-opacity:0.00423728;stroke:#000000;stroke-width:2.38914633;stroke-miterlimit:4;stroke-opacity:1;stroke-dasharray:none;stroke-dashoffset:0"
       d="m 319.33713,313.02182 64.04946,0"
       id="path3952"
       inkscape:connector-curvature="0" />
    <text
       xml:space="preserve"
       style="font-size:36.75609589px;font-style:normal;font-weight:normal;line-height:125%;letter-spacing:0px;word-spacing:0px;fill:#000000;fill-opacity:1;stroke:none;font-family:Sans"
       x="321.9303"
       y="295.5181"
       id="text3954"
       sodipodi:linespacing="125%"><tspan
         sodipodi:role="line"
         id="tspan3956"
         x="321.9303"
         y="295.5181">1/t</tspan></text>
    <text
       xml:space="preserve"
       style="font-size:36.75609589px;font-style:normal;font-weight:normal;line-height:125%;letter-spacing:0px;word-spacing:0px;fill:#000000;fill-opacity:1;stroke:none;font-family:Sans"
       x="-110.09254"
       y="69.16256"
       id="text3958"
       sodipodi:linespacing="125%"
       transform="matrix(-0.06026322,-0.99818252,0.99818252,-0.06026322,0,0)"><tspan
         sodipodi:role="line"
         id="tspan3960"
         x="-110.09254"
         y="69.16256">time</tspan></text>
    <text
       xml:space="preserve"
       style="font-size:36.75609589px;font-style:normal;font-weight:normal;line-height:125%;letter-spacing:0px;word-spacing:0px;fill:#000000;fill-opacity:1;stroke:none;font-family:Sans"
       x="-392.73532"
       y="57.48101"
       id="text3962"
       sodipodi:linespacing="125%"
       transform="matrix(-0.0319503,-0.99948946,0.99948946,-0.0319503,0,0)"><tspan
         sodipodi:role="line"
         id="tspan3964"
         x="-392.73532"
         y="57.48101">frequency</tspan></text>
  </g>
</svg>
